<svg width="244" height="160" viewBox="0 0 244 160" fill="none" xmlns="http://www.w3.org/2000/svg">
<g clip-path="url(#clip0_244_1141)">
<path d="M201.593 5.44847C201.758 5.59674 201.922 5.74501 202.092 5.89777C202.279 6.06125 202.467 6.22473 202.66 6.39317C205.598 9.10496 207.013 12.5842 207.155 16.5193C207.176 18.8186 206.806 21.0499 206.397 23.3067C206.257 24.1367 206.158 24.9697 206.059 25.8056C206.279 25.9171 206.499 26.0287 206.726 26.1436C207.973 26.9743 208.607 28.3627 208.898 29.7947C209.023 32.1351 208.023 34.3963 206.52 36.1503C205.437 37.2531 204.437 37.9783 202.836 38.0944C202.754 38.6621 202.672 39.2299 202.588 39.8148C202.179 39.8148 201.769 39.8148 201.348 39.8148C201.266 39.3282 201.184 38.8416 201.1 38.3402C200.773 38.3402 200.445 38.3402 200.108 38.3402C200.102 38.6588 200.096 38.9773 200.089 39.3056C200.066 40.4924 200.041 41.6792 200.016 42.866C200.005 43.3787 199.995 43.8915 199.985 44.4042C199.97 45.1431 199.955 45.8819 199.938 46.6207C199.934 46.8484 199.93 47.076 199.926 47.3106C199.898 48.52 199.815 49.6814 199.612 50.8747C199.873 50.895 200.134 50.9153 200.402 50.9362C208.632 52.0019 216.845 57.5505 222.747 63.0358C223.296 63.5433 223.853 64.0329 224.424 64.5153C231.877 70.9884 236.214 80.2117 240.279 89.0007C240.356 89.1656 240.432 89.3306 240.511 89.5005C241.37 91.3517 242.156 93.215 242.845 95.1355C242.906 95.3063 242.967 95.4771 243.03 95.6531C244.251 99.1506 244.557 103.633 242.941 107.089C241.357 109.666 239.498 111.394 236.482 112.232C233.39 112.633 230.395 112.293 227.384 111.581C227.361 111.766 227.337 111.95 227.313 112.14C226.931 114.959 226.383 117.741 225.836 120.532C225.732 121.061 225.629 121.589 225.526 122.118C225.311 123.22 225.095 124.322 224.879 125.424C224.603 126.83 224.329 128.237 224.055 129.643C223.843 130.733 223.63 131.822 223.417 132.912C223.315 133.43 223.214 133.948 223.113 134.467C221.744 141.504 221.744 141.504 221.185 142.058C220.714 142.081 220.241 142.086 219.769 142.085C219.466 142.085 219.163 142.085 218.851 142.085C218.518 142.084 218.185 142.083 217.852 142.082C217.513 142.081 217.175 142.081 216.836 142.08C215.943 142.08 215.05 142.077 214.156 142.074C213.246 142.072 212.335 142.071 211.424 142.07C209.636 142.067 207.847 142.063 206.059 142.058C206.049 142.216 206.039 142.375 206.028 142.538C205.889 144.37 205.556 146.114 205.145 147.902C205.08 148.191 205.015 148.48 204.948 148.778C204.741 149.692 204.532 150.606 204.323 151.52C204.183 152.141 204.043 152.762 203.903 153.382C203.77 153.973 203.636 154.563 203.502 155.153C203.439 155.431 203.376 155.709 203.311 155.995C203.252 156.252 203.194 156.509 203.133 156.774C203.081 157 203.03 157.226 202.977 157.459C202.836 158.033 202.836 158.033 202.588 158.77C208.234 158.77 213.88 158.77 219.697 158.77C219.697 159.176 219.697 159.581 219.697 159.999C148.015 159.999 76.3325 159.999 2.47791 159.999C2.39608 159.594 2.31425 159.188 2.22994 158.77C6.07592 158.77 9.92189 158.77 13.8844 158.77C13.5571 158.203 13.2298 157.635 12.8925 157.05C12.6561 155.892 12.7311 154.737 13.2645 153.67C15.0153 151.104 18.4285 150.272 21.2466 149.399C26.9849 147.616 31.5566 144.79 36.3226 141.234C36.5031 141.099 36.6835 140.965 36.8695 140.826C37.3082 140.5 37.7468 140.173 38.1852 139.846C38.04 139.844 37.8947 139.843 37.745 139.841C36.2284 139.825 34.7119 139.805 33.1953 139.781C32.6299 139.773 32.0645 139.766 31.499 139.76C30.6846 139.752 29.8703 139.739 29.056 139.726C28.8046 139.724 28.5532 139.722 28.2942 139.721C26.8736 139.692 25.7612 139.63 24.547 138.862C23.7897 137.619 23.6925 136.508 23.7043 135.099C23.7036 134.909 23.7029 134.719 23.7021 134.524C23.7016 134.125 23.703 133.726 23.7061 133.326C23.7101 132.72 23.7062 132.113 23.7014 131.506C23.7019 131.117 23.7029 130.727 23.7043 130.337C23.7028 130.158 23.7013 129.979 23.6997 129.794C23.7168 128.55 23.9086 127.657 24.547 126.574C25.7029 125.747 26.7639 125.736 28.1329 125.764C28.3068 125.765 28.4808 125.766 28.6601 125.767C29.3039 125.77 29.9475 125.781 30.5912 125.79C31.3708 125.799 32.1505 125.807 32.9301 125.815C33.3174 125.819 33.7047 125.823 34.0921 125.827C34.379 125.83 34.666 125.833 34.9616 125.836C34.977 125.626 34.9923 125.417 35.0081 125.2C35.5451 117.944 36.2595 110.707 36.9922 103.467C37.1168 102.233 37.2404 101 37.3641 99.7662C37.5138 98.2732 37.664 96.7802 37.8142 95.2872C37.8559 94.873 37.8559 94.873 37.8983 94.4504C38.2226 91.2286 38.5593 88.0088 38.9291 84.7918C36.0579 85.9766 34.3927 87.4796 32.3569 89.7846C29.385 93.1043 24.805 96.147 20.3006 96.6476C19.0276 96.6975 18.3556 96.4459 17.356 95.6059C16.1257 94.3692 15.311 92.9979 14.5198 91.4585C14.3938 91.2163 14.2679 90.9741 14.1381 90.7245C12.6141 87.7517 11.2523 84.7042 9.87472 81.6629C9.07843 79.9078 8.26028 78.163 7.43726 76.42C7.29553 76.1193 7.15381 75.8185 7.01209 75.5178C6.33492 74.082 5.654 72.648 4.96799 71.2163C-0.0377445 60.7678 -0.0377444 60.7678 -0.0792576 57.1881C-0.0900456 56.8823 -0.0900456 56.8823 -0.101052 56.5703C-0.11997 54.7427 0.385174 53.7434 1.64102 52.3801C2.90901 51.5888 4.05345 51.493 5.52616 51.6869C7.27242 52.1342 8.42258 53.3298 9.66896 54.5614C9.80302 54.6883 9.93707 54.8153 10.0752 54.9461C11.1674 55.9944 12.0835 57.1141 12.9855 58.3248C15.8863 62.1387 18.7522 64.6981 23.0786 66.8449C25.2258 67.9485 27.1038 69.2971 28.5145 71.2741C30.317 70.7381 32.1695 70.1399 33.7218 69.0621C33.9072 68.2062 33.9072 68.2062 33.9698 67.3417C35.338 66.1296 37.1499 65.3365 38.7741 64.5153C39.2891 64.2523 39.8041 63.9892 40.3191 63.7261C40.5836 63.5915 40.848 63.457 41.1205 63.3183C41.8529 62.9442 42.5829 62.5662 43.3121 62.1862C49.139 59.157 55.0414 56.2732 60.9304 53.3653C61.4492 53.109 61.9677 52.8522 62.486 52.5952C62.3517 52.3365 62.3517 52.3365 62.2146 52.0727C54.2851 36.7461 47.3065 18.7708 48.3519 1.22804C48.4337 0.984717 48.5156 0.741399 48.5999 0.490708C49.7903 0.601526 50.4791 1.159 51.343 1.91928C51.563 2.11014 51.563 2.11014 51.7874 2.30486C55.0193 5.15725 58.0956 8.1734 60.6752 11.6223C61.1414 12.2283 61.637 12.8085 62.1307 13.3925C65.5708 17.4813 68.4813 21.9399 71.1649 26.5429C71.397 26.9353 71.6291 27.3277 71.8613 27.72C77.9198 38.0238 77.9198 38.0238 79.836 43.0858C80.0284 43.7179 80.0284 43.7179 80.3397 43.993C80.7153 44.05 81.0929 44.0943 81.4711 44.1313C81.6759 44.1519 81.8808 44.1725 82.0919 44.1937C82.2502 44.2086 82.4084 44.2234 82.5714 44.2388C82.5657 43.9191 82.5599 43.5994 82.554 43.2701C82.4056 31.138 84.4113 19.2499 87.7787 7.6182C87.8849 7.25091 87.8849 7.25091 87.9933 6.8762C88.49 5.19284 88.49 5.19284 88.7706 4.91467C89.1838 4.90468 89.5973 4.90417 90.0104 4.91467C97.5193 19.2652 100.392 34.6464 101.417 50.629C101.484 50.475 101.551 50.3211 101.62 50.1624C105.889 40.3863 110.702 32.0237 117.51 23.7904C117.976 23.2257 118.439 22.6581 118.893 22.0835C121.089 19.3331 123.212 17.1836 126.849 16.758C127.47 16.7071 127.47 16.7071 127.949 16.7119C128.197 16.9577 128.197 16.9577 128.244 17.768C128.224 19.1808 127.959 20.5484 127.701 21.9346C127.647 22.2315 127.592 22.5284 127.536 22.8343C125.809 32.0211 123.394 40.9989 120.51 49.8916C120.636 49.8518 120.762 49.812 120.892 49.771C121.707 49.6038 122.508 49.6095 123.338 49.6097C123.523 49.6088 123.709 49.6079 123.9 49.6069C124.521 49.6042 125.143 49.6033 125.765 49.6024C126.21 49.6008 126.656 49.5992 127.102 49.5975C128.565 49.5923 130.028 49.5897 131.491 49.5873C131.994 49.5863 132.498 49.5853 133.001 49.5843C135.366 49.5796 137.73 49.5761 140.094 49.574C142.826 49.5716 145.557 49.5651 148.288 49.5552C150.399 49.5478 152.509 49.5442 154.619 49.5434C155.88 49.5428 157.141 49.5406 158.402 49.5344C159.587 49.5287 160.773 49.5276 161.958 49.5302C162.393 49.5303 162.829 49.5287 163.264 49.5254C163.858 49.521 164.451 49.5227 165.045 49.526C165.218 49.5233 165.391 49.5206 165.569 49.5178C166.34 49.528 166.821 49.6084 167.476 50.022C167.872 50.629 167.872 50.629 168.12 52.5952C171.148 52.5952 174.176 52.5952 177.295 52.5952C177.303 50.5298 177.303 50.5298 176.559 49.9137C176.352 49.8203 176.145 49.7268 175.931 49.6305C171.781 47.4681 170.196 43.6018 168.787 39.387C167.98 36.763 167.834 34.1181 167.822 31.3893C167.82 31.1305 167.819 30.8717 167.818 30.6051C167.815 30.0598 167.814 29.5145 167.813 28.9693C167.81 28.1495 167.803 27.33 167.795 26.5103C167.783 23.9083 167.817 21.4026 168.398 18.8544C168.655 17.6676 168.546 16.8628 168.12 15.7288C167.831 15.2667 167.831 15.2667 167.485 14.93C166.513 13.8431 166.5 12.8197 166.519 11.4152C166.9 8.56867 168.926 5.98751 171.096 4.17734C179.268 -1.98729 193.762 -1.11579 201.593 5.44847ZM50.3356 3.44002C50.0884 12.4941 51.6085 21.3481 54.3031 29.9838C54.3765 30.2219 54.4499 30.4601 54.5255 30.7054C56.2665 36.2942 58.5642 41.6627 61.1222 46.927C61.1959 47.079 61.2696 47.2311 61.3456 47.3878C62.3984 49.5792 62.3984 49.5792 63.7259 51.6121C64.7128 51.9184 65.2567 51.9284 66.2336 51.5919C66.4954 51.4516 66.7572 51.3112 67.0269 51.1666C67.1743 51.0894 67.3216 51.0122 67.4734 50.9327C68.3159 50.4872 69.1455 50.0191 69.9764 49.5527C70.3415 49.3481 70.7067 49.1436 71.0719 48.9393C71.2553 48.8362 71.4387 48.7332 71.6277 48.627C73.6685 47.4981 75.7973 46.5725 77.9434 45.6596C78.3552 45.4963 78.3552 45.4963 78.6039 45.2219C78.6368 42.2345 77.4796 39.2389 76.1243 36.6197C76.0184 36.4097 76.0184 36.4097 75.9104 36.1954C73.1477 30.7699 69.3578 25.8008 65.7987 20.8686C65.4352 20.3617 65.0762 19.8519 64.7178 19.3415C61.0691 14.1534 57.0412 8.69515 52.0714 4.6689C51.9253 4.54502 51.7793 4.42114 51.6287 4.29351C51.0547 3.70335 51.0547 3.70335 50.3356 3.44002ZM176.544 6.24436C175.251 7.99743 174.428 9.58943 174.567 11.7964C175.326 11.6317 175.326 11.6317 175.601 11.1018C175.69 10.9106 175.78 10.7194 175.872 10.5224C175.97 10.3147 176.069 10.107 176.17 9.89307C176.27 9.67462 176.37 9.45618 176.474 9.23111C176.577 9.01361 176.68 8.79611 176.786 8.57203C177.333 7.52236 177.333 7.52236 177.543 6.38933C177.758 6.37412 177.973 6.35891 178.194 6.34324C179.295 6.08061 179.72 5.7064 180.519 4.91467C180.753 4.38249 180.753 4.38249 180.767 3.93157C178.91 3.60134 177.659 4.93125 176.544 6.24436ZM182.826 9.3732C182.204 10.2517 182.006 10.693 182.006 11.7964C182.252 11.8775 182.497 11.9586 182.75 12.0422C182.855 11.8996 182.961 11.757 183.069 11.6101C185.469 8.44143 188.472 7.01283 192.173 5.652C192.173 5.32757 192.173 5.00315 192.173 4.6689C188.691 4.2676 184.952 6.83619 182.826 9.3732ZM89.2665 7.86398C87.8129 12.0714 86.6513 16.2782 85.795 20.6443C85.7464 20.8911 85.6979 21.1378 85.6479 21.3921C84.4562 27.6322 83.9887 34.0076 83.9972 40.3525C83.9974 40.5362 83.9976 40.7199 83.9977 40.9091C83.8327 42.7102 83.8327 42.7102 84.3072 44.2388C84.6707 44.2972 85.0365 44.342 85.4027 44.3809C90.1991 44.9293 94.2299 46.2459 98.1556 49.1005C98.8455 49.693 98.8455 49.693 99.4332 49.6459C99.6989 38.2159 97.299 27.0049 93.575 16.2204C93.5194 16.0592 93.4639 15.8981 93.4067 15.732C93.0348 14.6596 92.645 13.595 92.2421 12.5337C92.1831 12.3773 92.124 12.2208 92.0631 12.0596C91.1496 9.60696 91.1496 9.60696 89.2665 7.86398ZM170.538 15.7749C169.295 17.7544 169.619 19.8856 169.856 22.119C170.042 22.1431 170.228 22.1671 170.42 22.1919C171.993 22.4198 173.37 22.7566 174.825 23.3959C175.3 23.6247 175.3 23.6247 175.807 23.5936C175.725 24.1614 175.644 24.7291 175.559 25.3141C175.395 25.3053 175.231 25.2966 175.062 25.2876C174.324 25.249 173.586 25.2124 172.847 25.1758C172.589 25.162 172.331 25.1482 172.065 25.134C171.82 25.1222 171.574 25.1103 171.321 25.098C171.094 25.0865 170.867 25.0749 170.633 25.0629C170.108 25.0071 170.108 25.0071 169.856 25.3141C168.659 32.0543 169.368 40.1134 173.204 45.9285C174.499 47.5799 176.023 48.5686 178.039 49.1543C178.203 49.0732 178.366 48.9921 178.535 48.9085C178.289 48.6652 178.044 48.4219 177.791 48.1712C177.986 48.2216 178.18 48.272 178.381 48.3239C181.207 49.0421 183.642 49.4604 186.47 48.6628C186.841 48.5694 187.213 48.4772 187.586 48.3863C188.015 48.2798 188.015 48.2798 188.454 48.1712C188.535 48.4956 188.617 48.8201 188.702 49.1543C188.528 49.2224 188.354 49.2905 188.175 49.3607C187.181 49.758 186.199 50.1799 185.214 50.5992C183.731 51.1605 182.242 51.1945 180.672 51.2693C179.696 51.3042 179.696 51.3042 178.783 51.6121C178.433 53.0007 178.537 54.1978 179.031 55.5445C179.905 56.9357 180.967 57.5161 182.502 58.0022C183.437 58.1351 184.349 58.1432 185.292 58.1251C185.544 58.1216 185.797 58.1181 186.057 58.1145C190.558 57.9896 194.339 55.914 197.619 52.9533C198.718 51.6399 198.686 50.2355 198.66 48.6128C198.659 48.3971 198.657 48.1813 198.656 47.959C198.652 47.2719 198.644 46.5849 198.636 45.8978C198.629 45.2142 198.623 44.5306 198.618 43.847C198.615 43.423 198.611 42.9989 198.605 42.5749C198.595 41.3248 198.67 40.1067 198.812 38.8644C198.876 38.2674 198.893 37.6807 198.884 37.0806C198.879 36.7663 198.873 36.452 198.868 36.1282C199.195 36.1282 199.523 36.1282 199.86 36.1282C199.942 36.3715 200.024 36.6148 200.108 36.8655C200.608 37.0457 200.608 37.0457 201.1 37.1113C201.223 36.7463 201.223 36.7463 201.348 36.374C201.512 36.4551 201.675 36.5362 201.844 36.6197C202.731 36.7604 203.33 36.7793 204.1 36.2876C205.816 34.8444 206.913 33.3318 207.106 31.0543C207.152 29.6085 207.095 28.515 206.307 27.2803C205.631 26.637 204.996 26.305 204.049 26.2876C202.6 26.5164 201.582 27.2402 200.445 28.1261C199.822 28.5338 199.354 28.6607 198.62 28.7549C196.268 25.3217 194.556 21.9401 194.296 17.7104C194.21 16.5581 193.964 15.8719 193.165 14.9915C192.147 14.2309 191.269 14.147 190.032 14.1548C189.846 14.1532 189.66 14.1515 189.467 14.1497C188.853 14.1452 188.239 14.1462 187.625 14.1476C187.197 14.1465 186.769 14.1452 186.34 14.1437C185.444 14.1415 184.547 14.1421 183.65 14.1445C182.502 14.1473 181.355 14.1424 180.207 14.1352C179.323 14.1307 178.438 14.1308 177.554 14.1322C177.131 14.1322 176.708 14.1307 176.285 14.1277C175.693 14.124 175.101 14.1266 174.508 14.1308C174.335 14.1285 174.161 14.1261 173.982 14.1236C172.463 14.1462 171.599 14.7521 170.538 15.7749ZM121.9 20.9823C121.224 21.6578 120.581 22.3467 119.972 23.0819C119.563 23.5438 119.138 23.9663 118.694 24.3953C117.806 25.2701 117.034 26.1987 116.279 27.1881C116.143 27.367 116.006 27.5459 115.865 27.7303C113.099 31.3934 110.658 35.2388 108.43 39.2438C108.151 39.7453 107.867 40.244 107.582 40.7422C103.897 46.863 103.897 46.863 102.657 53.5783C103.057 54.0166 103.46 54.4068 103.897 54.8071C104.225 55.1277 104.552 55.4494 104.879 55.772C105.057 55.9477 105.236 56.1234 105.419 56.3044C105.602 56.4845 105.785 56.6646 105.973 56.8502C106.154 57.0274 106.335 57.2047 106.522 57.3873C107.683 58.5336 108.786 59.7137 109.848 60.9515C110.011 60.8704 110.175 60.7893 110.344 60.7058C110.178 58.8618 109.788 57.1471 109.306 55.3616C108.826 53.4763 108.754 51.918 108.608 49.8916C111.963 49.8916 115.318 49.8916 118.775 49.8916C119.376 48.4024 119.954 46.9489 120.445 45.4273C120.504 45.245 120.563 45.0626 120.624 44.8747C120.815 44.2843 121.004 43.6933 121.192 43.1021C121.29 42.7947 121.29 42.7947 121.39 42.4811C125.12 31.1619 125.12 31.1619 126.477 19.4308C126.475 19.241 126.473 19.0512 126.47 18.8557C126.467 18.716 126.465 18.5763 126.462 18.4323C124.515 18.4323 123.225 19.7368 121.9 20.9823ZM71.6349 49.6833C69.0205 51.1043 66.3455 52.3948 63.6639 53.6858C59.0606 55.9039 54.4718 58.1491 49.8938 60.4179C49.4124 60.6564 48.9309 60.8946 48.4493 61.1328C45.1715 62.7543 41.9011 64.3865 38.6674 66.0933C37.6886 66.6088 36.6986 67.0997 35.7056 67.5875C35.8408 69.0664 36.1699 70.3215 36.6955 71.7081C36.7704 71.9106 36.8453 72.1131 36.9225 72.3218C37.1656 72.977 37.4118 73.6309 37.6583 74.2849C37.8266 74.736 37.9949 75.1873 38.163 75.6385C39.5251 79.2828 40.9381 82.9063 42.4007 86.5122C46.1294 86.1708 50.8608 84.5876 53.5592 81.8425C54.3878 80.7508 54.5612 79.5868 54.83 78.2787C55.714 74.3327 57.2562 70.5584 59.7584 67.3417C59.9444 67.0951 59.9444 67.0951 60.1342 66.8434C61.8759 64.676 64.0989 63.3125 66.8255 62.7334C72.4195 62.3374 76.8874 63.7485 81.1456 67.3263C82.3936 68.3994 83.5177 69.5056 84.5552 70.7826C84.8227 71.0896 84.8227 71.0896 85.0956 71.4028C90.7234 77.9075 95.2079 85.4601 99.7353 92.7324C100.672 94.2329 101.627 95.7195 102.599 97.1978C103.538 98.627 104.462 100.065 105.384 101.505C105.826 102.193 106.268 102.881 106.709 103.568C106.968 103.971 107.226 104.374 107.484 104.777C110.172 108.967 112.983 113.048 116.216 116.846C116.485 117.166 116.748 117.492 117.008 117.819C121.217 122.982 127.71 125.302 134.151 126.016C136.506 126.225 138.875 126.176 141.237 126.163C141.832 126.162 142.427 126.162 143.023 126.161C144.26 126.16 145.497 126.157 146.735 126.151C148.311 126.144 149.888 126.142 151.464 126.141C152.983 126.139 154.503 126.136 156.022 126.132C156.306 126.132 156.591 126.131 156.883 126.131C159.895 126.124 162.887 126.098 165.888 125.836C165.967 118.551 160.811 112.03 155.921 107.052C154.368 105.498 152.742 104.089 151.01 102.733C150.481 102.301 149.955 101.865 149.43 101.428C148.966 101.043 148.501 100.659 148.035 100.276C147.817 100.085 147.599 99.8936 147.374 99.6967C147.088 99.4967 147.088 99.4967 146.795 99.2926C146.55 99.3737 146.304 99.4548 146.051 99.5383C146.487 100.564 147.196 101.369 147.895 102.227C148.674 103.183 149.41 104.114 150.019 105.191C148.812 105.058 148.148 104.161 147.429 103.276C147.037 102.77 146.652 102.261 146.268 101.75C144.217 99.0607 142.032 96.5269 139.721 94.0545C139.233 93.5289 138.756 92.9983 138.287 92.4569C137.021 91.0113 135.685 89.6277 134.365 88.2318C128.021 81.5246 128.021 81.5246 126.555 79.8302C125.698 78.8469 124.766 77.946 123.834 77.0335C123.328 76.5258 122.852 76.0102 122.386 75.4677C121.675 74.6439 120.916 73.878 120.138 73.1174C119.22 72.218 118.341 71.3003 117.501 70.3285C115.892 68.4862 114.21 66.717 112.448 65.0184C111.957 64.5203 111.501 64.0167 111.044 63.4893C110.134 62.4552 109.173 61.4844 108.189 60.5205C107.925 60.2607 107.925 60.2607 107.656 59.9957C107.101 59.4484 106.545 58.9019 105.989 58.3555C105.254 57.634 104.52 56.9116 103.787 56.1887C103.621 56.0263 103.455 55.864 103.285 55.6967C102.389 54.8139 101.54 53.9118 100.731 52.9504C100.055 52.1653 99.2358 51.5372 98.4413 50.8747C98.2214 50.6815 98.0015 50.4882 97.7749 50.2891C93.7137 46.7883 89.3542 44.9643 83.9145 45.1789C79.4714 45.4975 75.4554 47.5835 71.6349 49.6833ZM199.116 52.3494C198.867 52.7581 198.619 53.1679 198.372 53.5783C194.671 56.9905 189.586 59.2798 184.486 59.2311C182.497 59.1035 180.829 58.5292 179.279 57.2649C178.622 56.4671 178.167 55.6124 177.777 54.6606C177.325 53.9719 177.325 53.9719 176.391 53.9303C176.017 53.9305 175.643 53.9374 175.27 53.9498C175.073 53.9516 174.875 53.9533 174.672 53.9551C174.043 53.962 173.414 53.9774 172.785 53.993C172.358 53.9992 171.932 54.0048 171.505 54.0098C170.459 54.0234 169.414 54.0446 168.368 54.0698C169.252 58.8785 170.441 63.5855 171.69 68.3105C172.087 69.8133 172.48 71.3169 172.874 72.8204C173.016 73.3607 173.158 73.9007 173.301 74.4408C173.707 75.987 174.105 77.5337 174.461 79.0924C174.517 79.3371 174.573 79.5819 174.631 79.834C174.73 80.2747 174.826 80.716 174.919 81.1581C175.026 81.6378 175.165 82.1103 175.311 82.5798C176.016 82.9038 176.016 82.9038 176.521 82.6248C176.78 82.4647 176.78 82.4647 177.045 82.3014C177.239 82.1848 177.432 82.0682 177.632 81.9481C177.838 81.822 178.044 81.6959 178.256 81.566C180.126 80.4589 181.9 79.5324 183.99 78.8932C184.225 78.8155 184.461 78.7379 184.703 78.658C190.31 77.0731 195.622 78.5605 200.834 80.6356C201.079 80.7313 201.324 80.827 201.576 80.9256C201.905 81.0572 201.905 81.0572 202.24 81.1914C203.064 81.4123 203.064 81.4123 203.828 81.1051C204.164 80.3682 204.164 80.3682 204.386 79.449C204.433 79.2826 204.479 79.1162 204.527 78.9447C204.675 78.4114 204.817 77.8767 204.959 77.3417C205.102 76.8095 205.247 76.2778 205.393 75.7466C205.527 75.2629 205.656 74.7781 205.786 74.2932C206.038 73.5497 206.285 73.0861 206.803 72.503C206.264 75.1167 205.696 77.7112 205.001 80.2891C204.84 81.0127 204.805 81.6 204.819 82.334C206.872 83.2675 208.938 84.167 211.019 85.0376C211.256 85.138 211.494 85.2385 211.739 85.342C213.058 85.8851 214.305 86.3527 215.73 86.5122C216.752 86.0753 217.268 85.3851 217.962 84.546C221.674 81.7071 226.533 81.3006 231.042 81.1973C231.387 81.1879 231.732 81.1783 232.076 81.1685C232.909 81.1456 233.742 81.1245 234.575 81.1051C232.221 76.2041 229.376 71.8863 225.659 67.8899C225.192 67.3845 224.746 66.8672 224.3 66.3432C218.715 60.041 208.467 53.23 199.922 52.2419C199.523 52.2951 199.523 52.2951 199.116 52.3494ZM2.72587 53.5783C2.72587 54.7052 3.08903 55.3587 3.60829 56.3212C4.61017 58.2419 5.43975 60.2017 6.23606 62.2131C10.6634 73.3669 15.9752 83.9808 22.8112 93.8855C26.5603 92.7429 30.4694 90.0279 32.9779 87.0038C33.0597 86.7604 33.1416 86.5171 33.2259 86.2664C33.0613 86.1742 32.8966 86.0821 32.727 85.9871C29.5887 84.1843 28.0265 81.8509 27.0267 78.4016C26.8867 77.1698 26.886 75.9535 26.9027 74.715C27.0362 72.695 27.0362 72.695 26.5124 70.8026C26.1558 70.4258 26.1558 70.4258 25.5389 70.0452C25.3752 69.8932 25.2116 69.7411 25.0429 69.5844C24.5495 69.2565 24.5495 69.2565 23.9116 69.3079C23.0918 69.6413 22.92 69.9871 22.5633 70.7826C22.3862 71.5676 22.3862 71.5676 22.3153 72.2572C21.9471 72.1356 21.9471 72.1356 21.5714 72.0114C21.6947 70.7892 21.9565 69.8884 22.5633 68.8164C22.2132 68.5739 21.8616 68.3337 21.5094 68.0944C21.216 67.8934 21.216 67.8934 20.9166 67.6883C20.3746 67.3672 19.9558 67.2066 19.3397 67.0959C19.1732 67.4128 19.0081 67.7304 18.8438 68.0483C18.7517 68.2251 18.6596 68.4019 18.5648 68.584C18.3139 69.0495 18.3139 69.0495 18.3478 69.5537C18.0205 69.5537 17.6932 69.5537 17.356 69.5537C17.4125 69.3522 17.4691 69.1507 17.5274 68.9431C17.5987 68.6782 17.67 68.4134 17.7434 68.1405C17.8153 67.8782 17.8872 67.6158 17.9613 67.3455C18.1394 66.4476 18.1394 66.4476 17.8519 65.6213C17.4071 65.1797 16.9664 64.7792 16.4881 64.377C15.2675 63.31 14.2211 62.1955 13.2112 60.9256C12.3521 59.847 11.4514 58.8045 10.5514 57.7593C10.1779 57.3236 9.80766 56.885 9.44521 56.4402C8.25645 55.0069 6.79456 53.5948 4.93337 53.1482C4.08076 53.0754 3.51266 53.2626 2.72587 53.5783ZM1.48604 55.5445C1.45826 56.0049 1.43959 56.4659 1.42405 56.927C1.41254 57.1836 1.40103 57.4402 1.38917 57.7046C1.52288 60.5959 2.93248 63.3385 4.15169 65.9131C4.31629 66.2657 4.48062 66.6183 4.64472 66.9711C4.98758 67.7075 5.3317 68.4433 5.67678 69.1787C6.43714 70.8007 7.18507 72.4283 7.93399 74.0555C8.18177 74.5934 8.43004 75.1311 8.67849 75.6687C9.50602 77.4598 10.3298 79.2524 11.1461 81.0485C13.9702 88.7238 13.9702 88.7238 18.8438 94.8686C19.9269 95.2344 20.7405 95.225 21.8194 94.8686C21.6975 93.7081 21.1493 92.9736 20.4556 92.0729C19.1276 90.2874 17.9725 88.4354 16.86 86.5122C16.7642 86.3477 16.6685 86.1831 16.5698 86.0136C12.2048 78.4818 8.57955 70.4991 5.63023 62.3214C4.25169 58.4492 4.25169 58.4492 1.48604 55.5445ZM61.8506 66.3586C56.6618 71.8879 54.7458 80.2366 52.7367 87.2792C52.3447 88.648 51.93 90.0095 51.5106 91.3704C50.6607 94.1325 49.8596 96.9012 49.1121 99.692C48.1672 103.212 47.1765 106.718 46.1444 110.214C46.0831 110.422 46.0217 110.63 45.9585 110.844C45.5229 112.319 45.0856 113.794 44.6479 115.268C44.2033 116.766 43.7594 118.264 43.317 119.762C43.1438 120.348 42.9694 120.933 42.795 121.518C41.5664 125.334 41.5664 125.334 41.1608 129.277C43.7562 129.973 46.3584 130.633 48.9689 131.27C49.346 131.363 49.7231 131.455 50.1002 131.547C50.8813 131.738 51.6625 131.929 52.4438 132.12C53.4459 132.364 54.4478 132.61 55.4496 132.855C56.224 133.045 56.9985 133.234 57.7731 133.423C58.143 133.513 58.5129 133.604 58.8827 133.695C59.3957 133.821 59.9089 133.946 60.4222 134.071C60.7138 134.142 61.0055 134.213 61.3059 134.286C61.9539 134.456 61.9539 134.456 62.486 134.438C63.8538 131.094 65.1608 127.731 66.4225 124.346C66.5981 123.876 66.7738 123.406 66.9495 122.936C67.2102 122.239 67.471 121.541 67.7314 120.843C68.1861 119.625 68.6435 118.407 69.1056 117.192C70.5184 113.467 71.8365 109.713 73.1444 105.951C74.1825 102.966 75.2566 100.004 76.4187 97.0652C78.8465 90.8858 80.0589 84.8383 77.86 78.4016C78.1873 78.4827 78.5147 78.5638 78.8519 78.6474C79.5234 80.7798 79.7133 82.8088 79.6928 85.0309C79.6888 85.5448 79.6928 86.0583 79.6975 86.5722C79.7004 88.5489 79.484 90.2887 78.8519 92.1651C78.6191 92.91 78.5771 93.3204 78.6039 94.1313C79.2182 95.1073 80.0073 95.8472 80.9273 96.5399C81.5904 97.0896 82.0763 97.6488 82.6059 98.3242C83.8087 99.809 85.1223 101.155 86.4827 102.497C86.7344 102.747 86.9859 102.997 87.2374 103.247C87.7605 103.766 88.2845 104.284 88.8091 104.802C89.474 105.458 90.1367 106.117 90.7987 106.776C91.3165 107.291 91.8354 107.804 92.3548 108.318C92.5993 108.56 92.8434 108.802 93.0872 109.045C94.5202 110.471 95.9886 111.802 97.5794 113.053C98.1955 113.549 98.7764 114.07 99.3557 114.607C106.351 120.887 115.132 125.719 124.69 126.122C125.495 126.167 125.495 126.167 125.966 125.591C125.828 125.512 125.691 125.432 125.55 125.351C119.252 121.708 119.252 121.708 116.888 118.714C116.365 118.059 115.825 117.431 115.268 116.805C110.626 111.562 106.905 105.662 103.153 99.7841C101.228 96.7719 99.2881 93.7706 97.3168 90.788C96.3526 89.3265 95.4072 87.8549 94.4739 86.374C91.232 81.2521 87.7675 76.1322 83.8112 71.5199C83.5039 71.1616 83.5039 71.1616 83.1904 70.796C79.6467 66.7629 75.1067 64.101 69.6616 63.7012C66.5302 63.5364 64.2007 64.2386 61.8506 66.3586ZM139.108 70.291C138.554 71.3895 138.803 72.5667 139.154 73.6858C139.652 74.5537 139.92 74.8321 140.844 75.2065C142.242 75.5659 143.06 75.4195 144.315 74.715C145.076 74.019 145.284 73.6633 145.416 72.6412C145.251 71.3124 144.822 70.5784 143.928 69.5844C143.07 68.9317 142.251 68.8887 141.193 68.9393C140.217 69.14 139.781 69.5728 139.108 70.291ZM31.5986 71.5813C31.3641 71.6786 31.1297 71.7759 30.8881 71.8761C30.662 71.9727 30.4358 72.0693 30.2028 72.1689C29.9977 72.2564 29.7927 72.3439 29.5814 72.4341C28.8131 72.8575 28.1713 73.3542 27.8384 74.1773C27.4235 77.4675 27.927 80.0146 29.9713 82.6873C31.3294 84.3074 31.3294 84.3074 33.2216 85.115C34.7682 85.1411 35.9259 84.7598 37.3173 84.1159C37.5181 84.0304 37.7188 83.9448 37.9256 83.8567C38.9689 83.4654 38.9689 83.4654 39.5966 82.6348C39.6921 81.952 39.5541 81.5619 39.3142 80.9163C39.2298 80.6851 39.1454 80.4539 39.0584 80.2157C38.9649 79.9681 38.8714 79.7205 38.7751 79.4654C38.6812 79.2104 38.5873 78.9554 38.4905 78.6926C38.1898 77.8778 37.8853 77.0645 37.5808 76.2511C37.3763 75.6991 37.1721 75.1471 36.9682 74.595C36.4674 73.2412 35.9637 71.8886 35.4576 70.5368C33.9857 70.5072 32.9341 71.0033 31.5986 71.5813ZM177.047 83.5629C176.802 83.7251 176.556 83.8873 176.303 84.0545C176.385 84.7033 176.467 85.3522 176.551 86.0207C176.773 85.8952 176.773 85.8952 177 85.7672C181.106 83.4932 185.405 81.3309 190.189 81.1051C190.189 81.3485 190.189 81.5918 190.189 81.8425C189.714 81.8577 189.714 81.8577 189.228 81.8732C185.755 82.2287 182.49 83.7766 179.527 85.5291C179.269 85.6796 179.011 85.8301 178.745 85.9851C177.831 86.5409 177.831 86.5409 177.047 87.2495C176.967 88.0201 176.943 88.5189 177.295 89.2157C179.377 89.1364 181.046 87.9621 182.828 86.985C185.414 85.6015 188.042 84.7918 190.933 84.3002C190.933 84.5436 190.933 84.7869 190.933 85.0376C190.693 85.068 190.452 85.0984 190.205 85.1297C187.725 85.4891 185.724 86.225 183.546 87.4374C182.938 87.7747 182.324 88.1007 181.71 88.4275C181.276 88.664 180.843 88.9011 180.41 89.1389C180.203 89.2498 179.996 89.3607 179.782 89.475C178.647 90.0761 178.647 90.0761 178.03 91.1407C178.033 91.3165 178.036 91.4923 178.039 91.6735C181.166 91.8682 183.335 90.9516 186.066 89.5278C187.896 88.652 189.644 88.8662 191.523 89.4644C192.195 89.7156 192.829 90.0106 193.475 90.3217C195.662 91.3381 198.027 91.738 200.432 91.7954C202.18 92.1194 203.499 93.1608 204.788 94.3156C205.092 94.5805 205.396 94.8452 205.701 95.1096C205.847 95.2374 205.993 95.3652 206.144 95.4968C207.08 96.3047 208.059 97.0585 209.035 97.8179C209.296 98.0236 209.558 98.2294 209.819 98.4352C210.711 99.1357 211.607 99.8302 212.506 100.521C212.663 100.642 212.82 100.763 212.981 100.887C216.676 103.715 220.542 106.2 224.657 108.386C224.811 108.469 224.964 108.551 225.123 108.636C225.57 108.874 226.019 109.107 226.47 109.339C226.725 109.47 226.98 109.601 227.242 109.736C230.223 110.982 234.399 111.747 237.52 110.536C239.435 109.492 241.192 107.9 241.999 105.852C243.83 99.5538 241.131 93.4967 238.527 87.8311C238.373 87.4972 238.221 87.1627 238.07 86.8278C237.855 86.3511 237.634 85.8771 237.412 85.4033C237.219 84.9872 237.219 84.9872 237.023 84.5626C236.361 83.4868 235.571 82.8234 234.42 82.262C233.155 81.9991 231.912 82.0049 230.624 82.0114C230.208 82.0133 230.208 82.0133 229.784 82.0151C225.519 82.0748 220.935 83.0231 217.714 86.0207C217.546 86.7769 217.546 86.7769 217.466 87.4953C220.237 88.5381 223.022 89.5353 225.819 90.5061C226.381 90.7013 226.943 90.8966 227.505 91.0923C227.85 91.2124 228.195 91.3322 228.54 91.4517C228.982 91.6056 229.423 91.7623 229.864 91.9193C230.096 91.9933 230.328 92.0674 230.567 92.1437C231.21 92.4638 231.356 92.735 231.6 93.3939C221.56 90.0977 211.694 86.4298 202.039 82.142C199.289 80.9269 196.588 79.8559 193.661 79.1389C193.469 79.0902 193.277 79.0414 193.08 78.9911C187.086 78.0999 181.794 80.0176 177.047 83.5629ZM50.1516 84.6497C49.8665 84.7802 49.5813 84.9108 49.2876 85.0452C48.6936 85.3218 48.1004 85.6002 47.5073 85.8786C45.5844 86.7575 43.7396 87.3572 41.6568 87.7411C41.4931 87.0922 41.3295 86.4434 41.1608 85.7749C40.8335 85.7749 40.5062 85.7749 40.169 85.7749C38.5587 101.749 38.5587 101.749 36.9912 117.728C36.9405 118.254 36.8894 118.78 36.8379 119.307C36.7687 120.015 36.7008 120.723 36.6335 121.432C36.6142 121.626 36.595 121.821 36.5752 122.022C36.4562 123.298 36.4342 124.554 36.4495 125.836C36.9659 125.884 37.4825 125.93 37.9993 125.975C38.2869 126 38.5746 126.026 38.871 126.052C39.5791 126.079 40.0155 126.088 40.6649 125.836C40.9186 125.439 40.9186 125.439 41.0456 124.921C41.1066 124.718 41.1676 124.514 41.2305 124.305C41.3264 123.96 41.3264 123.96 41.4243 123.609C41.4958 123.365 41.5672 123.122 41.6408 122.871C41.9003 121.977 42.1516 121.08 42.4007 120.183C42.4512 120.002 42.5017 119.82 42.5537 119.633C43.0738 117.761 43.5915 115.887 44.1064 114.013C44.7437 111.699 45.4056 109.398 46.1357 107.111C46.9905 104.43 47.7322 101.726 48.4594 99.009C49.0598 96.7683 49.6814 94.5368 50.356 92.3167C50.4192 92.1085 50.4824 91.9003 50.5476 91.6858C50.8534 90.6814 51.1626 89.6781 51.4755 88.6759C51.587 88.3134 51.6985 87.9509 51.8099 87.5884C51.8617 87.426 51.9135 87.2636 51.9668 87.0963C52.2595 86.1375 52.3704 85.3004 52.3194 84.3002C51.3408 83.9769 51.0716 84.218 50.1516 84.6497ZM184.734 91.6735C187.68 91.6735 190.626 91.6735 193.661 91.6735C192.325 90.3491 190.92 89.8435 189.058 89.5844C187.27 89.8422 186.013 90.406 184.734 91.6735ZM194.405 92.1651C194.323 92.9761 194.241 93.7872 194.157 94.6228C184.281 94.9108 174.403 94.9433 164.524 94.9958C162.206 95.0081 159.888 95.0215 157.57 95.035C152.821 95.0626 148.072 95.0889 143.323 95.1144C143.323 95.3577 143.323 95.601 143.323 95.8517C143.684 96.209 143.684 96.209 144.178 96.5276C144.453 96.7195 144.453 96.7195 144.734 96.9152C145.033 97.1187 145.033 97.1187 145.338 97.3263C145.75 97.6138 146.161 97.9018 146.572 98.1904C146.778 98.3344 146.983 98.4784 147.195 98.6268C149.294 100.117 151.291 101.729 153.189 103.464C153.677 103.906 154.176 104.326 154.683 104.746C160.698 109.974 164.952 117.095 166.903 124.754C167.041 125.545 167.041 125.545 167.376 125.836C174.512 126.72 182.604 121.49 187.981 117.386C188.645 116.855 189.296 116.313 189.941 115.76C190.135 115.595 190.329 115.43 190.528 115.26C193.471 112.697 196.211 109.972 198.545 106.85C198.869 106.419 199.198 105.993 199.529 105.567C200.901 103.777 202.146 101.921 203.347 100.015C203.486 99.7951 203.625 99.5757 203.768 99.3496C204.426 98.2894 204.991 97.3125 205.315 96.0975C203.239 94.0881 201.167 92.4658 198.182 92.3331C197.962 92.3228 197.741 92.3125 197.514 92.3019C197.286 92.2922 197.058 92.2825 196.822 92.2726C196.59 92.262 196.358 92.2514 196.119 92.2404C195.548 92.2144 194.976 92.1896 194.405 92.1651ZM77.86 95.6059C77.8084 95.75 77.7567 95.894 77.7035 96.0424C77.0281 97.9249 76.3517 99.807 75.6748 101.689C75.6198 101.842 75.5649 101.995 75.5082 102.152C73.5942 107.474 71.6512 112.785 69.6787 118.086C69.4919 118.59 69.3051 119.094 69.1182 119.598C69.0347 119.821 68.9512 120.044 68.8652 120.274C67.8152 122.988 67.8152 122.988 67.4454 125.836C83.4021 125.836 99.3588 125.836 115.799 125.836C115.384 125.014 114.437 124.84 113.614 124.5C106.911 121.635 100.987 117.519 95.61 112.647C95.2663 112.339 94.9211 112.032 94.5677 111.735C93.0276 110.433 91.6049 109.021 90.1772 107.601C89.7479 107.174 89.3172 106.748 88.8864 106.323C87.4724 104.922 86.0932 103.511 84.8031 101.996C83.4666 100.489 82.0887 99.0448 80.6439 97.6393C80.1833 97.1732 79.778 96.7066 79.3788 96.1896C79.2049 95.997 79.0311 95.8044 78.8519 95.6059C78.5246 95.6059 78.1973 95.6059 77.86 95.6059ZM206.059 97.3263C205.977 97.4608 205.895 97.5953 205.811 97.7338C202.394 103.314 198.685 108.541 194.157 113.302C193.97 113.499 193.784 113.697 193.592 113.901C191.934 115.606 190.12 117.055 188.206 118.463C188.072 118.562 187.938 118.66 187.8 118.762C184.529 121.141 181.034 122.94 177.319 124.54C177.094 124.638 176.869 124.736 176.637 124.837C176.435 124.923 176.233 125.01 176.025 125.098C175.517 125.31 175.517 125.31 175.311 125.836C176.845 126.058 178.34 126.123 179.889 126.133C180.142 126.135 180.395 126.137 180.656 126.14C181.491 126.148 182.326 126.154 183.161 126.16C183.751 126.165 184.342 126.17 184.932 126.175C186.175 126.186 187.417 126.196 188.659 126.206C190.22 126.218 191.781 126.231 193.342 126.244C200.474 126.307 207.606 126.346 214.738 126.328C214.738 126.571 214.738 126.815 214.738 127.065C149.438 127.187 149.438 127.187 82.8194 127.311C82.1866 128.774 81.9817 129.289 81.9854 130.76C81.9856 131.081 81.9857 131.401 81.9859 131.732C81.9879 131.896 81.99 132.061 81.9921 132.23C81.998 132.733 81.9972 133.235 81.9956 133.738C81.9101 136.252 81.9101 136.252 83.0673 138.371C83.7836 138.419 84.476 138.436 85.1925 138.431C85.4162 138.432 85.6399 138.433 85.8704 138.433C86.6285 138.434 87.3865 138.432 88.1445 138.43C88.6901 138.43 89.2357 138.431 89.7813 138.431C91.2871 138.432 92.7929 138.43 94.2987 138.428C95.7537 138.426 97.2088 138.426 98.6638 138.427C101.641 138.427 104.619 138.426 107.597 138.423C110.546 138.42 113.495 138.418 116.444 138.418C116.628 138.418 116.811 138.417 117 138.417C117.93 138.417 118.86 138.417 119.791 138.417C126.384 138.416 132.978 138.413 139.572 138.408C145.979 138.403 152.387 138.4 158.794 138.398C158.991 138.398 159.188 138.398 159.392 138.398C161.374 138.397 163.356 138.396 165.339 138.396C169.377 138.395 173.416 138.393 177.454 138.392C177.64 138.392 177.825 138.392 178.017 138.392C190.422 138.387 202.828 138.379 215.234 138.371C215.61 137.284 215.871 136.246 216.062 135.112C216.092 134.939 216.122 134.767 216.152 134.589C216.216 134.216 216.279 133.842 216.341 133.469C216.442 132.871 216.544 132.274 216.646 131.676C216.864 130.401 217.079 129.125 217.295 127.849C217.577 126.183 217.86 124.517 218.145 122.852C218.179 122.649 218.214 122.447 218.249 122.239C218.723 119.468 219.23 116.708 219.808 113.956C220.196 112.111 220.518 110.265 220.689 108.386C220.728 108.175 220.767 107.963 220.807 107.745C220.74 107.073 220.74 107.073 219.978 106.612C219.649 106.421 219.318 106.235 218.985 106.051C218.617 105.837 218.251 105.621 217.885 105.403C217.693 105.289 217.502 105.176 217.304 105.058C216.34 104.464 215.423 103.81 214.506 103.148C214.321 103.015 214.137 102.882 213.946 102.745C212.99 102.051 212.045 101.345 211.109 100.625C210.922 100.482 210.735 100.338 210.542 100.191C210.19 99.9186 209.839 99.6451 209.489 99.3695C208.399 98.5251 207.315 97.9043 206.059 97.3263ZM25.5839 127.753C25.14 128.573 25.1848 129.391 25.1921 130.3C25.1914 130.493 25.1907 130.686 25.19 130.885C25.1894 131.293 25.1908 131.7 25.1939 132.108C25.1979 132.732 25.194 133.356 25.1892 133.98C25.1897 134.376 25.1907 134.773 25.1921 135.169C25.1906 135.356 25.1891 135.542 25.1875 135.735C25.1956 136.736 25.1956 136.736 25.6225 137.619C26.3693 138.091 27.0155 138.157 27.8762 138.158C28.22 138.158 28.22 138.158 28.5707 138.159C28.9495 138.158 28.9495 138.158 29.3359 138.156C29.7312 138.155 29.7312 138.155 30.1345 138.154C34.2242 138.134 38.313 138 42.4007 137.879C42.6455 137.254 42.8883 136.629 43.13 136.002C43.1991 135.827 43.2681 135.651 43.3392 135.47C43.9326 133.925 44.4329 132.371 43.8885 130.752C43.2157 130.535 42.577 130.364 41.8892 130.214C41.7011 130.171 41.513 130.127 41.3192 130.082C40.8538 129.975 40.3875 129.871 39.921 129.769C39.921 128.958 39.921 128.147 39.921 127.311C38.1233 127.288 36.3257 127.271 34.5279 127.26C33.6932 127.255 32.8585 127.248 32.0238 127.237C31.0642 127.225 30.1047 127.219 29.1451 127.215C28.8452 127.21 28.5453 127.205 28.2363 127.2C27.9583 127.2 27.6804 127.199 27.394 127.199C27.1489 127.197 26.9039 127.195 26.6515 127.193C26.0056 127.258 26.0056 127.258 25.5839 127.753ZM66.0394 127.962C65.9306 128.234 65.8218 128.506 65.7096 128.786C65.5973 129.032 65.4851 129.278 65.3694 129.532C65.2707 129.789 65.172 130.046 65.0703 130.31C64.9617 130.592 64.853 130.873 64.741 131.163C64.631 131.453 64.5211 131.743 64.4078 132.042C64.294 132.336 64.1802 132.63 64.063 132.933C63.4777 134.264 63.4776 134.264 63.2299 135.667C62.9562 135.61 62.9562 135.61 62.6769 135.551C62.4349 135.503 62.1929 135.456 61.9436 135.406C61.7048 135.358 61.4661 135.309 61.2201 135.259C60.4933 135.175 59.9659 135.239 59.2625 135.422C59.1371 135.774 59.0134 136.128 58.8905 136.481C58.8215 136.678 58.7524 136.875 58.6813 137.078C58.484 137.655 58.484 137.655 58.5186 138.371C61.4564 138.377 64.3942 138.381 67.3321 138.384C68.6961 138.385 70.0601 138.387 71.4241 138.389C72.7392 138.392 74.0544 138.394 75.3696 138.394C75.8725 138.395 76.3755 138.396 76.8784 138.397C77.5803 138.399 78.2822 138.399 78.9841 138.399C79.1942 138.4 79.4043 138.401 79.6208 138.401C80.5517 138.489 80.5517 138.489 81.3316 138.125C81.3546 137.786 81.3607 137.445 81.3597 137.105C81.3597 136.888 81.3597 136.672 81.3597 136.448C81.3584 136.213 81.3571 135.978 81.3558 135.736C81.3554 135.496 81.3551 135.256 81.3547 135.009C81.3533 134.24 81.3502 133.472 81.3471 132.703C81.3458 132.183 81.3447 131.663 81.3437 131.143C81.3409 129.866 81.3368 128.588 81.3316 127.311C79.4412 127.277 77.551 127.251 75.6604 127.235C74.7825 127.227 73.9048 127.216 73.027 127.2C72.0175 127.181 71.0083 127.173 69.9987 127.167C69.6838 127.159 69.3689 127.152 69.0445 127.144C67.3668 127.087 67.3668 127.087 66.0394 127.962ZM45.6243 131.489C45.0719 132.944 44.5398 134.377 44.1984 135.898C44.1383 136.159 44.0783 136.419 44.0163 136.688C43.859 137.43 43.859 137.43 43.8885 138.371C44.4434 138.811 44.4434 138.811 45.1593 139.185C46.2529 139.83 47.0184 140.421 47.7533 141.448C48.8822 142.619 50.8029 142.5 52.3194 142.549C53.8685 142.536 55.1446 142.452 56.2869 141.32C56.727 140.448 57.0085 139.553 57.2787 138.617C57.3561 138.356 57.4334 138.096 57.5131 137.828C57.8607 136.57 58.0665 135.719 57.7747 134.438C53.7486 133.327 49.719 132.32 45.6243 131.489ZM38.9291 141.566C39.0816 141.676 39.2341 141.786 39.3912 141.899C41.3772 143.372 41.3772 143.372 41.9047 144.515C42.0275 144.759 42.0275 144.759 42.1527 145.007C40.9795 144.68 40.2442 143.977 39.3679 143.178C38.8069 142.688 38.4956 142.559 37.7513 142.442C36.7377 142.577 36.4119 142.936 35.7307 143.653C35.4088 144.013 35.4088 144.013 35.4576 144.515C36.3577 145.002 37.2578 145.489 38.1852 145.99C38.1852 146.233 38.1852 146.477 38.1852 146.727C37.3576 146.631 36.9274 146.469 36.2325 145.99C35.3243 145.414 34.7997 145.253 33.7218 145.253C33.0186 145.516 32.3805 145.85 31.7381 146.236C31.7381 146.56 31.7381 146.885 31.7381 147.219C31.8726 147.276 32.0072 147.332 32.1459 147.391C33.272 147.9 33.9408 148.26 34.4657 149.431C32.5886 148.769 32.5886 148.769 31.8931 148.279C30.7665 147.72 29.4319 147.769 28.2266 148.106C27.6974 148.32 27.1847 148.555 26.6702 148.801C24.3941 149.829 22.0646 150.599 19.672 151.318C18.0668 151.82 16.5316 152.343 15.3722 153.609C15.1998 154.016 15.0337 154.425 14.8763 154.838C19.5499 154.844 24.2235 154.848 28.8972 154.851C31.068 154.852 33.2387 154.854 35.4095 154.856C37.3049 154.859 39.2002 154.86 41.0956 154.861C42.0961 154.861 43.0967 154.862 44.0973 154.864C48.7459 154.872 53.3782 154.819 58.0226 154.592C59.0341 150.894 58.0331 146.308 56.7828 142.795C56.3148 142.917 56.3148 142.917 55.8374 143.041C53.587 143.477 50.4433 143.892 48.3364 142.81C47.3054 142.1 46.3887 141.224 45.4896 140.358C44.6804 139.677 43.8545 139.193 42.8036 139.001C41.0521 139.29 39.9503 140.174 38.9291 141.566ZM57.7747 141.812C57.8034 141.958 57.8322 142.104 57.8618 142.254C57.9936 142.926 58.1243 143.598 58.2551 144.27C58.3003 144.499 58.3456 144.729 58.3922 144.966C58.8931 147.547 59.0533 149.964 59.0455 152.595C59.0465 152.917 59.0474 153.24 59.0484 153.572C59.0481 153.887 59.0478 154.203 59.0474 154.529C59.0471 154.812 59.0469 155.096 59.0466 155.388C59.0074 156.518 58.8801 157.645 58.7665 158.77C64.1673 158.77 69.568 158.77 75.1324 158.77C75.6207 157.318 75.9959 156.129 76.2482 154.659C76.2933 154.4 76.2933 154.4 76.3392 154.136C76.4348 153.582 76.5277 153.027 76.6202 152.472C76.6853 152.089 76.7503 151.705 76.8154 151.322C77.1913 149.088 77.5429 146.852 77.8445 144.607C77.8763 144.373 77.9081 144.139 77.9409 143.898C78.0083 143.368 78.0601 142.836 78.108 142.303C77.5849 141.785 76.4326 141.994 75.7087 141.98C75.3736 141.972 75.3736 141.972 75.0317 141.964C74.2955 141.948 73.5594 141.934 72.8232 141.919C72.4494 141.911 72.4494 141.911 72.0681 141.904C67.3033 141.804 62.5403 141.783 57.7747 141.812ZM86.5389 142.058C85.1792 147.77 85.1792 147.77 83.9306 153.503C83.8218 154.033 83.7107 154.561 83.5996 155.09C83.5283 155.434 83.4571 155.778 83.386 156.122C83.3244 156.42 83.2627 156.718 83.1991 157.025C83.0394 157.82 83.0394 157.82 83.0673 158.77C120.054 158.77 157.041 158.77 195.149 158.77C197.592 150.302 197.592 150.302 197.38 142.058C160.803 142.058 124.225 142.058 86.5389 142.058ZM39.9188 155.971C37.3092 156.089 34.6994 156.146 32.0877 156.198C31.5789 156.209 31.07 156.22 30.5611 156.23C29.2432 156.258 27.9254 156.285 26.6075 156.311C25.2541 156.339 23.9007 156.367 22.5473 156.396C19.9076 156.451 17.268 156.505 14.6283 156.558C14.8072 157.363 14.9651 157.75 15.6202 158.279C17.0351 159.149 18.7029 159.051 20.3102 159.043C20.5291 159.043 20.7479 159.043 20.9734 159.042C21.702 159.042 22.4305 159.039 23.159 159.036C23.6784 159.035 24.1979 159.034 24.7173 159.033C26.11 159.03 27.5026 159.025 28.8953 159.019C29.747 159.016 30.5987 159.013 31.4505 159.01C34.6052 158.999 37.7598 158.982 40.9144 158.958C42.3886 158.947 43.8627 158.937 45.3369 158.931C46.799 158.925 48.261 158.915 49.723 158.902C50.272 158.898 50.821 158.895 51.37 158.894C52.1274 158.891 52.8847 158.885 53.6421 158.877C53.9753 158.877 53.9753 158.877 54.3152 158.878C55.5647 158.859 56.4496 158.732 57.5267 158.033C57.9929 157.214 58.0226 156.78 58.0226 155.821C56.2136 155.815 54.4046 155.811 52.5956 155.808C51.7548 155.807 50.9141 155.805 50.0734 155.802C49.0989 155.799 48.1244 155.798 47.1498 155.797C46.8593 155.796 46.5687 155.794 46.2693 155.793C44.1483 155.793 42.0372 155.874 39.9188 155.971Z" fill="black"/>
<path d="M189.197 22.7655C189.395 22.7591 189.594 22.7527 189.798 22.7461C191.158 22.7419 191.86 22.9865 192.916 23.8407C193.164 24.0865 193.164 24.0865 193.195 24.8238C193.164 25.5612 193.164 25.5612 192.916 25.8069C192.584 25.8323 192.25 25.841 191.917 25.8426C191.705 25.8442 191.493 25.8458 191.275 25.8474C191.045 25.8477 190.814 25.8479 190.577 25.8482C190.342 25.849 190.107 25.8499 189.864 25.8507C189.366 25.852 188.868 25.8525 188.369 25.8525C187.604 25.853 186.84 25.8575 186.075 25.8621C185.592 25.8629 185.109 25.8634 184.626 25.8636C184.281 25.8662 184.281 25.8662 183.929 25.8689C183.716 25.8682 183.504 25.8674 183.285 25.8666C183.097 25.867 182.91 25.8673 182.716 25.8677C182.254 25.8069 182.254 25.8069 181.758 25.3154C181.727 24.5473 181.727 24.5473 181.758 23.8407C184.17 22.9901 186.655 22.8088 189.197 22.7655Z" fill="black"/>
<path d="M177.612 27.7725C178.174 27.9938 178.004 27.9239 178.577 28.1498C178.504 30.4139 178.33 32.6378 176.705 34.3684C176.587 34.4759 176.26 34.7048 176.138 34.8156C175.745 35.3098 175.571 35.5982 176.251 36.4925C177.272 37.3869 179.396 36.9352 181.015 37.1633C180.866 37.606 180.716 38.0487 180.562 38.5049C176.364 38.6856 176.364 38.6856 174.663 37.2192C174.308 36.4317 174.222 35.7544 174.436 34.9274C174.769 34.4584 174.996 34.4584 175.415 33.9771C176.411 32.8285 176.657 31.693 176.932 30.232C177.336 28.2684 177.109 28.2684 177.612 27.7725Z" fill="black"/>
<path d="M144.068 27.2812C144.736 27.3246 145.39 27.4332 146.052 27.527C145.888 28.0948 145.725 28.6625 145.556 29.2475C145.065 29.2475 144.574 29.2475 144.068 29.2475C143.974 28.6758 143.892 28.102 143.82 27.527C143.902 27.4459 143.984 27.3648 144.068 27.2812Z" fill="black"/>
<path d="M174.071 27.7732C174.61 28.3253 174.797 28.7264 174.846 29.4956C174.79 30.4183 174.712 30.8365 174.009 31.4752C173.229 31.7385 172.858 31.7284 172.087 31.4598C171.467 30.8453 171.51 30.605 171.498 29.7548C171.491 29.5397 171.484 29.3245 171.477 29.1029C171.591 28.5105 171.591 28.5105 172.045 28.0718C172.783 27.6622 173.24 27.6331 174.071 27.7732Z" fill="black"/>
<path d="M185.962 27.6953C186.722 27.7721 186.722 27.7721 187.136 28.0765C187.553 28.625 187.558 28.9348 187.543 29.6154C187.542 29.8055 187.541 29.9956 187.54 30.1915C187.465 30.7214 187.465 30.7214 186.969 31.4588C186.487 31.5308 186.487 31.5308 185.947 31.5048C185.63 31.4896 185.312 31.4744 184.986 31.4588C184.529 30.6953 184.439 30.2169 184.552 29.3389C184.574 29.1482 184.595 28.9575 184.618 28.761C184.821 27.9197 185.114 27.7847 185.962 27.6953Z" fill="black"/>
<path d="M205.809 29.2473C205.695 29.8995 205.606 30.3831 205.313 30.9677C204.476 31.4747 204.476 31.4747 204.012 31.6945C203.291 32.1195 202.994 32.7124 202.586 33.4255C202.258 33.3444 201.931 33.2633 201.594 33.1797C201.625 31.6709 202.135 30.9835 203.158 29.8867C203.99 29.1059 204.699 29.2269 205.809 29.2473Z" fill="black"/>
<path d="M22.8122 30.4463C23.5561 30.477 23.5561 30.477 23.8041 30.7228C23.8142 31.2142 23.8146 31.706 23.8041 32.1974C23.2312 32.2785 22.6584 32.3597 22.0683 32.4432C21.9739 31.8715 21.8916 31.2978 21.8203 30.7228C22.0683 30.477 22.0683 30.477 22.8122 30.4463Z" fill="black"/>
<path d="M186.225 39.8164C186.225 40.4923 186.225 40.4923 185.977 41.2911C184.172 42.7152 181.568 42.8513 179.36 42.8425C179.157 42.8465 178.955 42.8504 178.747 42.8545C177.495 42.8555 176.659 42.6935 175.562 42.0284C175.562 41.704 175.562 41.3795 175.562 41.0453C175.704 41.043 175.846 41.0407 175.992 41.0383C178.962 40.9784 181.742 40.7494 184.624 40.0228C185.481 39.8164 185.481 39.8164 186.225 39.8164Z" fill="black"/>
<path d="M225.772 49.124C226.392 49.1547 226.392 49.1547 226.64 49.4005C226.675 50.0569 226.651 50.7091 226.64 51.3667C226.061 51.3772 225.483 51.3768 224.904 51.3667C224.822 51.2856 224.741 51.2045 224.656 51.121C224.867 49.1689 224.867 49.1689 225.772 49.124Z" fill="black"/>
<path d="M16.1177 106.912C16.6154 106.983 17.1117 107.064 17.6055 107.158C17.7605 107.987 17.7605 107.987 17.8535 108.878C17.6898 109.041 17.5261 109.203 17.3575 109.37C16.5826 109.278 16.5826 109.278 15.8697 109.124C15.8455 107.612 15.8455 107.612 15.8697 107.158C15.9516 107.077 16.0334 106.996 16.1177 106.912Z" fill="black"/>
<path d="M81.0897 116.007C81.5874 116.077 82.0837 116.159 82.5775 116.253C82.5775 116.901 82.5775 117.55 82.5775 118.219C81.8646 118.372 81.8646 118.372 81.0897 118.465C80.926 118.302 80.7624 118.14 80.5938 117.973C80.7368 116.357 80.7368 116.357 81.0897 116.007Z" fill="black"/>
<path d="M237.802 132.227C237.884 132.795 237.966 133.363 238.05 133.948C237.314 133.948 236.577 133.948 235.818 133.948C235.648 133.379 235.648 133.379 235.57 132.719C236.132 131.737 236.807 131.986 237.802 132.227Z" fill="black"/>
</g>
<defs>
<clipPath id="clip0_244_1141">
<rect width="244" height="160" fill="white"/>
</clipPath>
</defs>
</svg>
