<svg width="320" height="229" viewBox="0 0 320 229" fill="none" xmlns="http://www.w3.org/2000/svg">
<g clip-path="url(#clip0_246_3164)">
<path d="M179.355 0.00350158C179.64 0.45393 179.923 0.906486 180.19 1.36817C180.797 2.12989 181.487 2.52434 182.319 3.0277C186.228 5.41196 188.974 8.46384 190.323 12.9067C190.323 13.2261 190.323 13.5454 190.323 13.8745C190.596 13.9531 190.87 14.0317 191.152 14.1126C192.367 14.5599 193.4 15.1627 194.476 15.8704C194.673 15.9997 194.87 16.129 195.073 16.2622C199.091 18.9405 199.091 18.9405 199.778 20.8704C199.677 21.939 199.677 21.939 198.981 22.6396C197.356 23.6857 195.738 23.4587 193.871 23.2293C192.008 22.8107 190.196 22.223 188.387 21.6164C187.158 23.9124 186.254 26.2287 185.423 28.693C184.501 31.34 183.489 33.875 182.177 36.3543C181.984 36.7213 181.984 36.7213 181.787 37.0958C180.666 39.1403 179.371 40.9259 177.419 42.2616C177.1 42.2616 176.781 42.2616 176.452 42.2616C176.452 42.4745 176.452 42.6874 176.452 42.9067C176.703 42.9321 176.955 42.9575 177.214 42.9836C178.798 43.3154 180.195 43.9297 181.673 44.5801C181.996 44.7213 182.318 44.8626 182.651 45.0081C189.152 47.9066 195.389 51.398 201.613 54.8422C201.899 55.0006 202.186 55.1591 202.481 55.3223C204.128 56.2348 205.775 57.1502 207.419 58.068C207.431 57.8254 207.443 57.5828 207.455 57.3328C207.635 54.3973 208.124 51.5648 208.73 48.693C208.779 48.4561 208.829 48.2192 208.879 47.9751C214.001 23.5225 214.001 23.5225 222.02 16.8168C223.933 15.5832 225.858 15.5942 228.065 15.81C231.877 16.709 235.797 19.7771 237.925 23.0353C239.314 25.4818 239.596 27.51 239.355 30.3261C239.056 31.3338 238.757 31.7461 238.065 32.5841C237.739 32.7039 237.413 32.8237 237.077 32.9471C236.046 33.4599 236.046 33.4599 235.847 34.4844C235.699 35.2357 235.553 35.9876 235.41 36.7399C235.07 38.1171 234.717 38.5796 233.548 39.3583C232.742 39.6809 232.742 39.6809 231.936 39.6809C230.757 39.1479 230.03 38.5249 229.355 37.4229C229.355 37.21 229.355 36.9971 229.355 36.7777C228.61 36.8841 227.865 36.9906 227.097 37.1003C227.203 37.4196 227.31 37.739 227.419 38.068C228.122 43.3722 228.133 48.7754 228.145 54.1164C228.147 54.4025 228.148 54.6886 228.15 54.9834C228.189 63.4997 228.189 63.4997 227.097 66.7777C227.423 66.6784 227.75 66.579 228.087 66.4767C229.855 65.9726 231.663 65.7706 233.483 65.5326C234.129 65.4477 234.774 65.3587 235.419 65.2694C240.129 64.6433 240.129 64.6433 242.258 64.8422C242.773 65.357 242.632 65.8913 242.635 66.603C242.617 68.2875 242.378 69.8618 242.039 71.508C241.983 71.7909 241.927 72.0738 241.87 72.3652C241.693 73.2587 241.512 74.1512 241.331 75.0438C241.212 75.6444 241.093 76.2451 240.974 76.8457C240.484 79.3112 239.982 81.7622 239.355 84.1971C239.546 84.1309 239.737 84.0648 239.933 83.9967C240.188 83.9098 240.443 83.8229 240.706 83.7333C240.956 83.6473 241.207 83.5612 241.465 83.4725C244.903 82.4178 249.26 82.4285 252.581 83.8745C256.458 86.0186 259.241 89.4132 261.593 93.0882C261.815 93.4283 262.037 93.7684 262.265 94.1188C262.912 95.1104 263.553 96.1051 264.194 97.1003C264.514 97.5916 264.834 98.0826 265.155 98.5733C265.871 99.6702 266.581 100.771 267.287 101.874C267.605 102.37 267.923 102.866 268.242 103.361C273.12 110.935 277.763 118.648 282.258 126.455C282.462 126.809 282.666 127.163 282.876 127.528C285.885 132.755 288.846 138.007 291.754 143.29C292.083 143.882 292.417 144.471 292.756 145.058C292.905 145.316 293.053 145.575 293.207 145.841C293.338 146.065 293.469 146.288 293.603 146.518C293.871 147.1 293.871 147.1 293.79 147.987C293.008 148.993 292.082 149.709 290.968 150.326C290.755 150.326 290.542 150.326 290.323 150.326C290.596 150.763 290.596 150.763 290.876 151.209C291.115 151.594 291.354 151.978 291.593 152.362C291.713 152.554 291.834 152.746 291.958 152.944C292.48 153.787 292.911 154.543 293.226 155.487C293.43 155.456 293.633 155.424 293.843 155.392C295.973 155.061 298.103 154.732 300.233 154.403C301.027 154.28 301.821 154.157 302.614 154.034C303.758 153.856 304.903 153.679 306.047 153.503C306.399 153.448 306.751 153.393 307.114 153.337C309.75 152.931 312.347 152.533 315.02 152.564C315.353 152.567 315.686 152.57 316.03 152.573C316.398 152.578 318.065 152.362 319.355 153.337C320.248 156.053 320 158.31 316.774 160.649C313.065 163.713 309.525 165.923 305.864 168.047C303.691 169.317 301.625 170.729 299.559 172.164C298.561 172.855 297.553 173.531 296.547 174.21C295.137 175.164 293.733 176.128 292.336 177.102C291.535 177.659 290.731 178.211 289.927 178.762C289.55 179.022 289.176 179.284 288.803 179.548C288.292 179.909 287.775 180.263 287.258 180.616C286.969 180.818 286.679 181.02 286.381 181.228C285.199 181.74 284.461 181.601 283.226 181.294C280.478 178.632 279.294 173.759 278.427 170.145C277.675 167.144 276.226 164.503 274.516 161.939C274.283 162.152 274.05 162.365 273.81 162.584C272.805 163.299 272.486 163.415 271.29 163.229C270.722 162.647 270.722 162.647 270.215 161.841C269.939 161.408 269.939 161.408 269.658 160.967C269.471 160.663 269.285 160.358 269.093 160.044C268.9 159.742 268.707 159.439 268.509 159.128C267.097 156.885 267.097 156.885 267.097 156.133C265.5 156.133 263.903 156.133 262.258 156.133C262.305 156.699 262.352 157.265 262.4 157.849C262.95 164.514 263.498 171.179 264.043 177.845C264.145 179.089 264.247 180.332 264.349 181.576C264.639 185.111 264.927 188.647 265.214 192.182C265.341 193.746 265.469 195.31 265.597 196.874C265.718 198.356 265.839 199.838 265.958 201.32C266.003 201.866 266.047 202.412 266.092 202.958C266.154 203.71 266.215 204.462 266.275 205.213C266.309 205.634 266.344 206.055 266.379 206.489C266.459 207.874 266.452 209.262 266.452 210.649C278.374 210.649 290.297 210.649 302.581 210.649C302.687 211.074 302.794 211.5 302.903 211.939C302.258 212.584 302.258 212.584 301.531 212.664C301.072 212.664 301.072 212.664 300.605 212.664C300.255 212.665 299.905 212.667 299.544 212.668C298.966 212.665 298.966 212.665 298.375 212.663C297.97 212.663 297.565 212.664 297.148 212.664C296.036 212.666 294.923 212.663 293.811 212.66C292.648 212.657 291.486 212.658 290.323 212.658C288.371 212.658 286.418 212.655 284.466 212.651C282.207 212.645 279.947 212.644 277.688 212.644C275.517 212.644 273.346 212.643 271.175 212.64C270.25 212.639 269.325 212.638 268.4 212.638C267.11 212.638 265.819 212.634 264.528 212.631C264.142 212.631 263.757 212.631 263.359 212.631C263.009 212.63 262.659 212.629 262.298 212.627C261.993 212.627 261.687 212.626 261.373 212.626C260.645 212.584 260.645 212.584 260 212.262C260 212.474 260 212.687 260 212.907C260.224 212.939 260.448 212.971 260.68 213.005C261.78 213.27 262.644 213.709 263.644 214.24C263.931 214.392 263.931 214.392 264.224 214.548C264.628 214.763 265.031 214.98 265.434 215.197C266.04 215.523 266.649 215.844 267.258 216.165C270.944 218.129 275.324 220.662 276.774 224.842C276.996 227.303 276.996 227.303 276.452 228.391C273.736 229.112 270.732 228.589 267.974 228.339C267.46 228.294 266.947 228.249 266.434 228.205C261.034 227.725 255.655 227.079 250.276 226.408C249.257 226.282 248.238 226.158 247.218 226.034C244.288 225.676 241.36 225.309 238.432 224.931C237.744 224.842 237.055 224.755 236.367 224.668C235.094 224.506 233.822 224.336 232.55 224.166C231.984 224.094 231.984 224.094 231.407 224.021C230.892 223.95 230.892 223.95 230.366 223.877C230.068 223.837 229.769 223.798 229.462 223.757C228.609 223.525 228.271 223.284 227.742 222.584C227.219 219.301 228.184 215.74 228.71 212.584C194.858 212.584 161.006 212.584 126.129 212.584C126.129 212.584 123.487 212.584 123.548 212.584C123.197 212.585 123.197 212.585 122.838 212.585C108.949 212.599 95.0602 212.61 81.1714 212.617C79.5054 212.618 77.8393 212.619 76.1733 212.62C75.8416 212.62 75.5099 212.62 75.1682 212.62C69.791 212.623 64.4137 212.628 59.0365 212.634C53.5228 212.64 48.0091 212.644 42.4953 212.645C39.0905 212.646 35.6858 212.649 32.281 212.654C29.9491 212.657 27.6172 212.658 25.2854 212.657C23.9381 212.657 22.5909 212.658 21.2437 212.661C20.0121 212.664 18.7804 212.664 17.5487 212.662C17.1016 212.662 16.6544 212.663 16.2072 212.665C15.6025 212.667 14.9978 212.666 14.3931 212.664C14.0562 212.664 13.7194 212.664 13.3723 212.664C12.5807 212.584 12.5806 212.584 11.9355 211.939C12.0419 211.513 12.1484 211.087 12.2581 210.649C16.8355 210.542 21.4129 210.436 26.129 210.326C25.4903 209.049 24.8516 207.771 24.1936 206.455C23.8263 205.533 23.4799 204.631 23.1653 203.693C23.0854 203.458 23.0055 203.224 22.9232 202.982C22.6978 202.313 22.4775 201.642 22.2581 200.971C22.1508 200.655 22.0435 200.339 21.933 200.014C20.4113 195.109 20.5765 189.473 22.7067 184.787C24.0767 182.379 25.9874 180.167 28.7097 179.358C31.1379 178.754 32.9787 179.129 35.1613 180.326C36.0282 180.971 36.0282 180.971 36.4516 181.616C36.4 182.249 36.4 182.249 36.129 182.907C35.5418 183.343 35.5418 183.343 34.7984 183.754C30.7409 186.33 29.3402 191.382 28.3165 195.83C27.9567 197.529 27.8076 199.237 27.7419 200.971C28.0613 200.971 28.3806 200.971 28.7097 200.971C28.6928 200.41 28.6928 200.41 28.6757 199.837C28.6772 198.471 28.9057 197.208 29.254 195.891C29.3412 195.556 29.3412 195.556 29.4301 195.214C30.4947 191.275 32.0677 187.281 35.4625 184.791C36.5162 184.362 37.5805 184.31 38.7097 184.197C38.8157 177.425 38.8157 177.425 38.4274 170.669C38.4021 170.403 38.3768 170.136 38.3507 169.862C38.1853 168.341 37.8817 166.946 37.4194 165.487C37.2896 165.757 37.2896 165.757 37.1573 166.032C35.2979 169.653 32.6127 171.824 28.7903 173.149C23.4854 174.838 18.0428 173.896 13.1856 171.395C9.8378 169.588 7.16251 167.243 4.5259 164.534C3.11812 163.093 1.65046 161.81 0 160.649C0.33841 158.454 2.59525 157.249 4.25655 156.007C11.4122 150.916 20.8206 147.149 29.6774 146.778C29.9053 146.765 30.1332 146.752 30.3679 146.739C33.9455 146.629 37.8963 147.082 40.6174 149.609C41.9077 151.055 42.3853 152.181 42.345 154.179C42.195 155.323 41.7257 155.925 40.9677 156.778C38.8527 158.391 38.8527 158.391 37.4194 158.391C38.0431 160.448 38.6749 162.494 39.3952 164.52C40.9162 169.151 40.6905 173.756 40.5589 178.566C40.5356 179.473 40.5223 180.379 40.5103 181.286C40.5 181.564 40.4896 181.843 40.479 182.129C40.4728 182.854 40.4774 183.492 40.6452 184.197C41.3948 184.873 41.3948 184.873 42.2581 185.165C42.3645 185.271 42.471 185.378 42.5806 185.487C42.611 182.639 42.6392 179.838 42.2656 177.007C42.2578 176.107 42.4613 175.423 42.7293 174.571C43.1202 173.005 43.1776 171.366 43.3266 169.762C44.1347 161.914 46.24 155.242 51.2903 149.036C50.8412 148.686 50.8412 148.686 50.3831 148.33C49.2487 147.365 48.4939 146.596 48.285 145.059C48.1991 143.207 48.391 142.067 49.6774 140.649C52.3318 138.242 55.8479 137.624 59.3397 137.677C69.0938 138.353 77.4164 143.5 84.094 150.437C87.3018 154.128 90.1657 158.175 90 163.229C89.8936 163.336 89.7871 163.442 89.6774 163.552C87.4954 163.435 85.4319 162.942 83.3203 162.41C82.9835 162.327 82.9835 162.327 82.6399 162.241C82.4421 162.191 82.2444 162.141 82.0406 162.089C79.6644 161.614 77.3728 161.585 74.9584 161.619C74.2244 161.625 73.4904 161.63 72.7564 161.635C71.6127 161.645 70.4691 161.657 69.3255 161.672C56.6534 161.829 56.6534 161.829 52.5189 158.071C51.5208 156.966 50.7503 155.804 50 154.52C47.0556 159.721 45.2479 165.922 45.4839 171.939C46.5484 171.833 47.6129 171.726 48.7097 171.616C48.7696 171.177 48.8294 170.738 48.8911 170.286C49.2266 168.822 49.713 168.076 50.9199 167.192C54.3391 165.147 58.2308 164.939 62.088 165.712C68.346 167.633 72.8037 172.518 75.843 178.139C78.5635 183.422 79.7346 188.976 79.7379 194.883C79.7419 195.259 79.7458 195.635 79.7499 196.023C79.7505 196.386 79.7511 196.749 79.7518 197.123C79.7531 197.452 79.7544 197.78 79.7558 198.119C79.6739 199.077 79.4343 199.78 79.0323 200.649C77.7366 200.454 76.9258 199.784 75.8871 199.016C70.0347 194.856 60.1103 190.326 52.9032 190.326C49.1078 196.981 47.6794 202.897 46.129 210.649C59.9677 210.649 73.8065 210.649 88.0645 210.649C88.0645 209.584 88.0645 208.52 88.0645 207.423C88.1109 206.594 88.1678 205.766 88.236 204.939C88.2544 204.711 88.2729 204.483 88.2919 204.248C88.353 203.495 88.4161 202.742 88.4791 201.989C88.5237 201.445 88.5682 200.9 88.6126 200.356C88.7079 199.189 88.8041 198.022 88.9009 196.856C89.054 195.011 89.2052 193.166 89.3562 191.321C89.5951 188.404 89.8352 185.487 90.0759 182.57C90.5073 177.342 90.9371 172.115 91.3657 166.887C91.5161 165.052 91.6672 163.219 91.8189 161.385C91.913 160.245 92.0066 159.106 92.1001 157.966C92.1436 157.438 92.1873 156.909 92.2312 156.381C92.2911 155.66 92.3503 154.939 92.4092 154.218C92.4425 153.814 92.4758 153.411 92.5101 152.995C92.545 152.472 92.545 152.472 92.5807 151.939C92.6029 151.643 92.6251 151.346 92.6481 151.041C92.651 150.204 92.651 150.204 91.6734 149.52C91.4967 149.384 91.3199 149.249 91.1379 149.11C89.5302 147.815 89.2998 145.81 89.0323 143.874C89.0323 143.449 89.0323 143.023 89.0323 142.584C88.7063 142.617 88.3802 142.651 88.0444 142.685C85.7857 142.673 83.7016 141.746 81.6129 140.971C81.3389 140.873 81.0649 140.774 80.7827 140.673C79.9072 140.356 79.0361 140.03 78.1653 139.701C77.8875 139.601 77.6096 139.5 77.3233 139.397C75.6296 138.738 74.6643 138.182 73.871 136.455C73.7223 135.442 73.7223 135.442 73.75 134.439C73.7542 134.105 73.7583 133.77 73.7626 133.426C73.871 132.584 73.871 132.584 74.5161 131.939C75.1815 131.861 75.1815 131.861 76.0107 131.866C76.3207 131.866 76.6306 131.866 76.95 131.866C77.2853 131.869 77.6207 131.873 77.9662 131.876C78.309 131.877 78.6518 131.878 79.0049 131.879C80.1028 131.882 81.2006 131.89 82.2984 131.899C83.0414 131.902 83.7844 131.905 84.5275 131.907C86.3517 131.915 88.1758 131.925 90 131.939C89.9398 131.514 89.9398 131.514 89.8785 131.08C89.4365 127.872 89.0981 124.663 88.7979 121.44C88.7483 120.914 88.6985 120.388 88.6488 119.862C88.5457 118.771 88.4433 117.681 88.3414 116.59C88.2108 115.191 88.0789 113.793 87.9466 112.395C87.8444 111.314 87.7427 110.233 87.6411 109.153C87.5926 108.637 87.544 108.121 87.4952 107.605C87.4276 106.888 87.3606 106.171 87.2938 105.454C87.2557 105.046 87.2175 104.639 87.1782 104.219C87.0968 103.229 87.0968 103.229 87.0968 102.262C86.68 102.265 86.2632 102.268 85.8337 102.272C84.2911 102.283 82.7485 102.291 81.2059 102.297C80.5375 102.3 79.8692 102.305 79.2008 102.31C78.2416 102.318 77.2824 102.322 76.3231 102.325C76.023 102.328 75.7229 102.331 75.4138 102.335C74.9973 102.335 74.9973 102.335 74.5724 102.335C74.2049 102.337 74.2049 102.337 73.83 102.339C73.2258 102.262 73.2258 102.262 72.5807 101.616C72.4533 100.939 72.4533 100.939 72.3879 100.101C72.3624 99.7925 72.337 99.4845 72.3108 99.1671C72.2868 98.8377 72.2627 98.5082 72.2379 98.1688C72.2113 97.8332 72.1848 97.4975 72.1574 97.1516C72.0805 96.167 72.0076 95.1821 71.9355 94.1971C71.8982 93.7161 71.8609 93.2352 71.8233 92.7543C71.4326 87.4326 71.4326 87.4326 71.6129 85.81C72.2581 85.1648 72.2581 85.1648 73.5454 85.0916C74.1017 85.0917 74.658 85.0953 75.2142 85.1018C75.6532 85.1032 75.6532 85.1032 76.101 85.1046C77.0378 85.1082 77.9745 85.1163 78.9113 85.1245C79.5455 85.1277 80.1798 85.1306 80.814 85.1333C82.3707 85.1404 83.9273 85.1516 85.4839 85.1648C85.4839 84.4196 85.4839 83.6745 85.4839 82.9067C85.1123 82.9588 84.7407 83.0109 84.3578 83.0646C82.9921 83.2347 81.6497 83.2813 80.2747 83.2835C80.0364 83.2846 79.7982 83.2856 79.5527 83.2868C79.0545 83.2884 78.5563 83.2891 78.0581 83.2891C77.2936 83.2898 76.5293 83.2957 75.7649 83.3018C75.2789 83.3027 74.7929 83.3034 74.307 83.3036C74.0785 83.306 73.85 83.3083 73.6146 83.3107C72.0093 83.3031 72.0093 83.3031 71.2903 82.5841C71.1655 81.7621 71.078 80.9668 71.0156 80.1396C70.9951 79.8935 70.9745 79.6473 70.9533 79.3937C70.9102 78.8699 70.8685 78.346 70.8282 77.822C70.7674 77.0359 70.7016 76.2503 70.6351 75.4647C70.5117 73.9679 70.4082 72.4707 70.3226 70.9712C70.3096 70.7437 70.2965 70.5161 70.2831 70.2816C70.2515 69.6533 70.2325 69.0244 70.2142 68.3956C70.1978 67.8656 70.1978 67.8656 70.181 67.3249C70.3226 66.4551 70.3226 66.4551 70.8019 65.9256C71.9744 65.292 73.1071 65.3456 74.4076 65.3479C74.6902 65.3446 74.9727 65.3413 75.2638 65.3379C76.2033 65.3282 77.1426 65.3252 78.0822 65.3223C78.7453 65.3169 79.4084 65.311 80.0714 65.3048C81.8284 65.2894 83.5854 65.2798 85.3425 65.2714C87.0811 65.262 88.8196 65.2468 90.5582 65.2322C98.6517 65.1674 106.745 65.1499 114.839 65.1648C114.859 64.9228 114.88 64.6809 114.901 64.4316C114.929 64.1133 114.957 63.795 114.986 63.4671C115.013 63.1519 115.041 62.8368 115.069 62.5121C115.742 55.9799 119.518 49.3426 124.516 45.1648C130.56 41.0321 138.29 39.2186 145.543 38.9564C145.901 38.9392 146.259 38.922 146.628 38.9042C147.344 38.8716 148.06 38.8504 148.776 38.8422C150.7 38.7508 150.7 38.7508 152.316 37.7963C152.912 37.0546 153.401 36.3142 153.871 35.4874C154.05 35.1786 154.05 35.1786 154.233 34.8636C156.627 30.4715 156.627 30.4715 157.319 25.7432C157.094 25.107 157.094 25.107 156.613 24.3583C155.623 22.7086 155.608 20.9159 155.806 19.0358C156.223 17.5806 156.636 16.4473 157.911 15.5768C159.041 14.5376 159.097 13.5532 159.335 12.0801C160.052 8.37081 161.422 5.25016 164.516 2.90673C167.526 1.18413 170.386 0.541716 173.811 0.648663C174.35 0.665128 174.89 0.678695 175.43 0.688985C175.783 0.700213 175.783 0.700213 176.143 0.711667C177.463 0.579916 177.914 -0.277623 179.355 0.00350158ZM163.871 6.13253C162.501 7.98394 161.873 10.0588 161.29 12.2616C162.278 12.2153 163.266 12.1681 164.254 12.1204C164.527 12.1078 164.799 12.0951 165.08 12.082C166.636 12.0062 168.186 11.9037 169.739 11.7714C172.164 11.581 174.585 11.5395 177.016 11.5358C177.354 11.5346 177.354 11.5346 177.698 11.5335C181.129 11.5292 184.401 11.7389 187.742 12.5841C187.344 9.78573 185.212 7.54748 183.119 5.77467C177.514 1.8028 169.016 0.686567 163.871 6.13253ZM169.032 13.5519C169.834 15.1544 173.193 15.8943 174.839 16.4551C176.935 17.0623 179.074 17.4867 181.21 17.9269C182.348 18.1692 183.486 18.4154 184.623 18.6628C185.034 18.7516 185.034 18.7516 185.453 18.8422C187.839 19.3649 190.185 19.9959 192.508 20.7533C194.198 21.2852 195.645 21.362 197.419 21.2938C195.863 17.9052 191.028 15.895 187.742 14.5196C184.334 13.2976 180.928 13.1738 177.339 13.189C176.984 13.1896 176.629 13.1902 176.263 13.1909C173.839 13.2038 171.443 13.2835 169.032 13.5519ZM159.093 16.9591C158.005 18.1716 157.784 19.2086 157.641 20.81C157.788 22.458 158.271 23.4478 159.456 24.6003C160.37 25.1956 161.21 25.5176 162.258 25.81C162.152 26.1293 162.045 26.4487 161.936 26.7777C161.19 26.7777 160.445 26.7777 159.677 26.7777C159.607 26.9544 159.536 27.1311 159.463 27.3132C159.241 27.8688 159.018 28.4241 158.794 28.9791C158.506 29.7032 158.226 30.4302 157.95 31.159C156.566 34.7891 155.156 38.2826 151.935 40.6487C152.346 43.3452 154.233 45.0927 156.268 46.784C158.785 48.6297 162.213 50.8229 165.484 50.3261C167.295 49.3236 167.885 47.6058 168.669 45.7898C168.87 45.3491 168.87 45.3491 169.075 44.8995C169.884 43.3021 169.884 43.3021 169.677 41.6164C169.079 41.0948 169.079 41.0948 168.347 40.5882C164.799 37.9079 164.799 37.9079 164.294 35.8931C164.244 35.5326 164.244 35.5326 164.194 35.1648C164.832 35.0051 164.832 35.0051 165.484 34.8422C165.643 35.0767 165.643 35.0767 165.805 35.316C167.417 37.5872 169.77 39.1187 170.968 39.3583C177.026 40.57 178.387 36.939 176.835 40.2253C181.423 36.2527 183.385 28.9033 185.215 23.3613C185.495 22.5533 185.806 21.7627 186.129 20.9712C185.012 20.4901 183.961 20.183 182.765 19.967C182.43 19.9044 182.096 19.8419 181.752 19.7775C181.4 19.7123 181.048 19.6472 180.686 19.5801C177.861 19.0431 175.197 18.396 172.514 17.3649C171.566 17.0866 171.202 16.9932 170.323 17.4229C169.654 18.0691 169.654 18.0691 169.032 18.8543C167.638 20.5514 167.638 20.5514 166.452 20.9712C165.403 20.8503 165.403 20.8503 164.516 20.6487C164.461 20.4503 164.406 20.252 164.35 20.0476C163.887 18.4582 163.887 18.4582 162.984 17.1003C161.558 16.4666 160.496 16.1795 159.093 16.9591ZM220.323 21.6164C219.679 22.6 219.126 23.6157 218.589 24.6608C218.438 24.9535 218.287 25.2463 218.132 25.5479C212.051 37.7009 209.903 51.4437 208.71 64.8422C208.284 64.7358 207.858 64.6293 207.419 64.5196C207.313 63.0293 207.206 61.539 207.097 60.0035C205.713 59.3648 204.329 58.7261 202.903 58.068C202.848 58.54 202.793 59.0119 202.737 59.4982C202.266 63.3958 201.649 67.175 200.645 70.9712C204.054 70.8053 207.382 70.2879 210.745 69.7305C211.644 69.5816 212.545 69.436 213.445 69.2909C217.268 68.6679 221.056 67.9327 224.839 67.1003C226.96 59.8649 226.219 51.7248 225.857 44.2842C225.825 43.6109 225.795 42.9375 225.769 42.2639C225.734 41.415 225.683 40.5689 225.625 39.7212C225.617 39.4762 225.609 39.2311 225.601 38.9787C225.561 38.1938 225.561 38.1938 225.161 37.1003C224.539 36.5956 223.905 36.2316 223.199 35.8537C222.348 35.3498 222.03 34.7883 221.633 33.8946C221.509 33.6164 221.385 33.3383 221.258 33.0516C220.926 32.1475 220.721 31.2871 220.645 30.3261C221.177 30.3261 221.71 30.3261 222.258 30.3261C222.313 30.5169 222.368 30.7078 222.424 30.9045C222.897 32.4449 223.315 33.7097 224.516 34.8422C225.523 35.277 225.523 35.277 226.452 35.4874C226.386 35.2732 226.319 35.0591 226.251 34.8384C226.164 34.5536 226.077 34.2687 225.988 33.9753C225.902 33.6946 225.816 33.4139 225.727 33.1247C225.342 31.7591 225.121 30.5005 225.13 29.0799C225.131 28.651 225.131 28.651 225.133 28.2136C225.137 27.7723 225.137 27.7723 225.141 27.3221C225.143 27.0216 225.144 26.7212 225.146 26.4116C225.149 25.6734 225.155 24.9352 225.161 24.1971C225.587 24.1971 226.013 24.1971 226.452 24.1971C226.475 24.7403 226.475 24.7403 226.5 25.2946C226.599 30.2149 226.599 30.2149 228.71 34.5196C228.923 34.5196 229.135 34.5196 229.355 34.5196C229.702 32.7633 229.781 31.021 229.859 29.2374C229.88 28.7889 229.88 28.7889 229.901 28.3314C229.935 27.5985 229.968 26.8655 230 26.1325C230.426 26.0261 230.852 25.9196 231.29 25.81C231.652 28.5797 231.581 31.0433 231.1 33.7874C230.908 35.0734 230.86 35.8413 231.597 36.9503C231.815 37.2127 232.033 37.4751 232.258 37.7454C233.353 36.8994 233.621 35.826 233.871 34.5196C233.99 33.2372 234.034 31.9558 234.073 30.6688C234.085 30.3251 234.098 29.9815 234.11 29.6274C234.141 28.7851 234.168 27.9427 234.194 27.1003C234.619 27.1003 235.045 27.1003 235.484 27.1003C235.803 29.1761 235.803 29.1761 236.129 31.2938C237.432 30.2109 237.432 30.2109 237.602 29.2853C237.597 26.295 236.513 24.198 234.476 22.0398C232.115 19.8165 229.441 17.938 226.149 17.6245C223.43 17.7175 221.882 19.6152 220.323 21.6164ZM123.548 49.0358C123.348 49.2258 123.148 49.4158 122.942 49.6116C114.189 58.5217 115.168 76.1645 114.839 87.7454C116.621 87.6137 118.379 87.4444 120.137 87.1204C126.465 85.9644 132.596 85.9026 139.032 85.81C139.245 78.4648 139.458 71.1196 139.677 63.5519C140.21 63.4454 140.742 63.339 141.29 63.2293C141.214 66.3782 141.135 69.5271 141.055 72.6759C141.017 74.1379 140.981 75.5999 140.945 77.0619C140.911 78.4717 140.875 79.8814 140.838 81.2911C140.825 81.8301 140.811 82.3691 140.799 82.9082C140.781 83.6606 140.761 84.413 140.741 85.1653C140.736 85.3904 140.731 85.6155 140.726 85.8474C140.682 87.3861 140.682 87.3861 140.323 87.7454C139.365 87.8519 138.406 87.9583 137.419 88.068C137.419 90.9422 137.419 93.8164 137.419 96.7777C140.181 97.1162 142.944 97.4531 145.706 97.7871C146.989 97.9423 148.272 98.0982 149.555 98.2558C150.795 98.4081 152.035 98.5584 153.276 98.7076C153.747 98.7645 154.218 98.8221 154.689 98.8804C159.508 99.5778 159.508 99.5778 164.246 98.8165C164.588 98.703 164.93 98.5895 165.282 98.4725C165.628 98.3523 165.974 98.2322 166.331 98.1083C172.517 96.0191 172.517 96.0191 175.968 96.0922C176.233 96.0951 176.498 96.098 176.772 96.101C177.418 96.1085 178.064 96.1201 178.71 96.1325C179.9 92.0352 180.699 87.8822 181.492 83.693C181.683 82.6868 181.874 81.6808 182.067 80.675C182.186 80.0545 182.304 79.4337 182.421 78.8127C183.038 75.5931 183.038 75.5931 183.548 74.5196C184.347 74.2003 184.347 74.2003 185.161 73.8745C185.481 70.468 185.8 67.0616 186.129 63.5519C186.555 63.6583 186.981 63.7648 187.419 63.8745C187.313 66.9616 187.206 70.0487 187.097 73.2293C191 72.6755 191 72.6755 194.899 72.1003C195.163 72.0624 195.427 72.0246 195.699 71.9856C195.952 71.9469 196.205 71.9083 196.465 71.8684C196.688 71.8354 196.911 71.8023 197.141 71.7682C197.844 71.6262 197.844 71.6262 198.71 70.9712C198.979 70.4045 198.979 70.4045 199.134 69.7376C199.234 69.363 199.234 69.363 199.336 68.9808C199.435 68.5789 199.435 68.5789 199.536 68.1688C199.606 67.8942 199.676 67.6196 199.748 67.3367C200.345 64.9056 200.737 62.4983 200.968 60.0035C201.031 59.5644 201.031 59.5644 201.095 59.1164C201.21 58.2669 201.21 58.2669 200.968 57.1003C200.511 56.6672 200.511 56.6672 199.893 56.3405C199.658 56.2038 199.423 56.0673 199.181 55.9265C198.919 55.7816 198.657 55.6367 198.387 55.4874C198.11 55.3325 197.833 55.1776 197.548 55.018C196.615 54.5025 195.677 53.9958 194.738 53.4914C194.396 53.3077 194.055 53.124 193.703 52.9347C193.009 52.562 192.315 52.1898 191.621 51.818C190.758 51.3544 189.897 50.8865 189.037 50.4168C180.727 45.5279 180.727 45.5279 171.613 43.2293C171.524 43.4375 171.434 43.6458 171.342 43.8603C170.933 44.8079 170.517 45.7524 170.101 46.6971C169.96 47.0247 169.82 47.3524 169.676 47.69C168.331 50.718 168.331 50.718 166.774 51.6164C163.706 52.639 160.656 51.1942 157.903 49.8221C154.299 47.7585 151.507 44.8519 150 40.9712C140.821 40.6464 130.189 42.0983 123.548 49.0358ZM89.3548 82.9067C89.3548 83.6519 89.3548 84.397 89.3548 85.1648C97.2323 85.0583 105.11 84.9519 113.226 84.8422C113.226 84.2035 113.226 83.5648 113.226 82.9067C105.348 82.9067 97.471 82.9067 89.3548 82.9067ZM215.719 98.231C214.472 98.9142 213.22 99.5874 211.968 100.262C208.803 101.967 205.658 103.706 202.532 105.484C200.158 106.832 197.772 108.158 195.383 109.479C192.773 110.922 190.178 112.387 187.601 113.887C186.219 114.69 184.832 115.482 183.445 116.275C182.724 116.694 182.017 117.127 181.313 117.572C178.707 119.102 176.592 119.132 173.655 119.109C169.789 119.193 166.504 120.895 163.093 122.586C162.213 122.924 161.579 122.971 160.645 122.907C160.645 122.587 160.645 122.268 160.645 121.939C162.348 121.194 164.052 120.449 165.806 119.681C164.641 118.904 163.97 118.911 162.581 118.834C162.181 118.81 161.782 118.786 161.371 118.761C160.914 118.744 160.457 118.728 160 118.713C159.726 118.699 159.453 118.684 159.171 118.669C156.902 118.595 155.073 119.002 152.944 119.762C152.615 119.875 152.286 119.988 151.948 120.105C148.064 121.474 144.275 123.083 140.484 124.689C138.736 125.426 136.979 126.142 135.222 126.858C134.642 127.095 134.062 127.332 133.482 127.569C133.074 127.735 132.666 127.902 132.258 128.068C132.797 132.376 135.101 136.329 137.742 139.681C137.967 139.969 138.193 140.257 138.425 140.554C143.345 146.42 150.977 149.156 158.387 150.004C159.968 150.095 161.542 150.111 163.125 150.104C163.55 150.102 163.976 150.101 164.414 150.099C167.657 150.059 170.725 149.83 173.871 149.036C174.126 148.972 174.381 148.908 174.643 148.842C187.075 145.606 197.336 137.546 207.57 130.101C210.847 127.719 214.178 125.424 217.536 123.159C218.33 122.623 219.122 122.083 219.913 121.542C230.423 114.397 230.423 114.397 235.281 113.19C235.53 113.126 235.78 113.062 236.037 112.995C236.532 112.872 237.029 112.758 237.529 112.657C238.315 112.488 238.315 112.488 239.355 111.939C239.779 111.055 239.87 110.348 240 109.358C240.319 109.358 240.639 109.358 240.968 109.358C241.074 110.21 241.181 111.062 241.29 111.939C241.734 112.021 241.734 112.021 242.188 112.105C245.358 112.731 247.834 113.302 250 115.81C250.148 115.977 250.296 116.144 250.449 116.317C253.229 119.696 255.318 124.567 255.107 128.968C254.918 134.305 257.022 137.687 259.993 141.965C260.714 143.006 261.401 144.065 262.081 145.132C262.492 145.777 262.909 146.418 263.328 147.057C264.937 149.525 266.496 152.026 268.065 154.52C269.869 153.415 271.625 152.277 273.306 150.991C277.964 147.445 282.851 144.185 287.742 140.971C287.551 139.723 287.18 138.805 286.559 137.709C286.379 137.39 286.2 137.072 286.015 136.744C285.82 136.402 285.625 136.061 285.423 135.709C285.22 135.35 285.016 134.991 284.807 134.621C282.699 130.913 280.553 127.227 278.387 123.552C278.141 123.133 277.895 122.715 277.649 122.296C274.906 117.633 272.167 112.978 269.181 108.465C268.406 107.281 267.649 106.085 266.889 104.89C264.893 101.753 262.876 98.6299 260.827 95.5277C260.625 95.2195 260.423 94.9114 260.215 94.5939C257.381 90.3293 254.326 85.9549 249.032 84.8422C237.714 83.7033 225.322 92.9418 215.719 98.231ZM128.649 87.6446C128.319 87.6733 127.988 87.702 127.648 87.7315C121.894 88.0845 121.894 88.0845 116.452 89.6809C116.435 91.7751 116.424 93.8693 116.416 95.9636C116.413 96.6747 116.409 97.3858 116.403 98.0969C116.395 99.1243 116.391 100.152 116.389 101.179C116.385 101.492 116.382 101.806 116.379 102.129C116.378 105.32 116.578 108.448 118.71 110.971C122.867 115.036 131.051 114.321 136.36 114.266C143.005 114.163 150.119 113.405 156.452 111.294C156.935 111.264 157.419 111.252 157.903 111.254C158.153 111.253 158.402 111.252 158.659 111.251C159.355 111.294 159.355 111.294 160.323 111.616C162.248 111.789 163.85 111.788 165.484 110.649C166.439 109.699 167.215 108.669 167.742 107.423C170.109 107.547 172.06 108.999 173.851 110.447C174.502 111.071 174.502 111.071 175.484 110.971C175.841 109.848 176.021 108.913 175.806 107.745C174.959 106.926 174.094 106.367 173.077 105.773C172.258 105.165 172.258 105.165 171.983 104.284C171.968 104.042 171.952 103.801 171.936 103.552C173.539 104.121 174.979 104.969 176.452 105.81C176.518 105.397 176.585 104.985 176.653 104.56C176.691 104.328 176.728 104.096 176.767 103.857C176.769 103.65 176.772 103.443 176.774 103.229C175.883 102.338 175.095 102.398 173.871 102.262C173.977 101.836 174.084 101.41 174.194 100.971C175.33 100.945 176.329 100.958 177.419 101.294C177.804 100.043 178.065 99.0628 178.065 97.7454C176.131 96.7787 173.581 97.5553 171.613 98.1083C171.217 98.2145 171.217 98.2145 170.813 98.3228C169.495 98.6862 168.207 99.0882 166.929 99.5738C166.696 99.6621 166.462 99.7504 166.222 99.8414C165.791 100.009 165.363 100.182 164.939 100.365C161.423 101.746 157.223 100.909 153.586 100.441C153.138 100.385 152.69 100.329 152.242 100.274C151.308 100.158 150.375 100.041 149.442 99.9218C148.267 99.7719 147.092 99.6251 145.916 99.4794C140.923 98.8603 135.938 98.2087 130.968 97.4229C130.968 96.997 130.968 96.5712 130.968 96.1325C132.352 96.1325 133.735 96.1325 135.161 96.1325C135.435 95.0365 135.522 94.2713 135.515 93.1638C135.514 92.8478 135.513 92.5317 135.512 92.2061C135.51 91.8784 135.507 91.5508 135.504 91.2132C135.503 90.8805 135.501 90.5479 135.5 90.2051C135.496 89.3852 135.491 88.5653 135.484 87.7454C133.163 87.4312 130.979 87.4328 128.649 87.6446ZM210 88.7132C209.211 89.8961 209.087 90.8868 209.355 92.2616C209.991 93.1412 209.991 93.1412 210.968 93.5519C211.971 93.658 211.971 93.658 212.903 93.2293C213.771 92.2475 214.153 91.5858 214.335 90.2858C214.175 89.2356 214.002 88.7905 213.226 88.068C211.842 87.5216 211.157 87.8376 210 88.7132ZM90.6452 102.262C90.6452 104.123 90.6739 105.902 90.8473 107.744C90.8688 107.983 90.8903 108.223 90.9125 108.47C90.983 109.251 91.0553 110.032 91.1278 110.814C91.1777 111.362 91.2276 111.91 91.2773 112.458C91.3815 113.602 91.4865 114.746 91.5922 115.89C91.7274 117.353 91.8607 118.816 91.9935 120.279C92.0961 121.409 92.1995 122.539 92.3032 123.669C92.3526 124.209 92.4019 124.748 92.4509 125.288C92.5197 126.042 92.5894 126.796 92.6593 127.55C92.6793 127.77 92.6992 127.991 92.7198 128.219C92.8377 129.476 93.0174 130.688 93.2258 131.939C105.787 131.939 118.348 131.939 131.29 131.939C130.971 130.981 130.652 130.023 130.323 129.036C129.575 128.805 128.822 128.59 128.065 128.391C125.609 124.953 125.293 119.595 124.839 115.487C124.667 115.432 124.494 115.378 124.317 115.321C118.587 113.457 118.587 113.457 117.097 111.616C116.871 111.35 116.644 111.084 116.411 110.81C114.998 108.171 114.81 105.199 114.516 102.262C106.639 102.262 98.7613 102.262 90.6452 102.262ZM168.387 109.358C168.261 109.598 168.134 109.837 168.004 110.084C167.369 111.048 166.734 111.583 165.806 112.262C165.381 112.581 164.955 112.9 164.516 113.229C167.816 113.229 171.116 113.229 174.516 113.229C173.984 112.804 173.452 112.378 172.903 111.939C172.66 111.738 172.418 111.537 172.167 111.33C171.931 111.139 171.695 110.947 171.452 110.749C171.215 110.555 170.979 110.361 170.736 110.161C169.939 109.641 169.323 109.482 168.387 109.358ZM156.129 112.907C156.129 113.013 156.129 113.12 156.129 113.229C157.406 113.229 158.684 113.229 160 113.229C158.466 112.462 157.741 112.558 156.129 112.907ZM221.936 121.939C221.717 122.086 221.498 122.232 221.272 122.384C219.993 123.245 218.725 124.122 217.462 125.006C216.717 125.528 215.97 126.047 215.223 126.566C212.625 128.375 210.041 130.2 207.48 132.06C193.177 142.433 193.177 142.433 187.097 145.487C187.097 145.594 187.097 145.7 187.097 145.81C190.039 145.865 192.889 145.752 195.806 145.366C196.414 145.288 196.414 145.288 197.035 145.207C203.208 144.371 209.328 143.144 215.447 141.986C215.961 141.888 215.961 141.888 216.486 141.789C216.961 141.699 216.961 141.699 217.445 141.606C217.722 141.553 217.998 141.501 218.283 141.446C218.969 141.307 219.645 141.147 220.323 140.971C220.28 140.78 220.237 140.59 220.193 140.393C220.075 139.866 219.958 139.34 219.842 138.813C219.725 138.281 219.602 137.751 219.476 137.221C219.28 135.984 219.107 134.693 219.677 133.552C220.103 133.552 220.529 133.552 220.968 133.552C220.976 133.817 220.984 134.082 220.993 134.356C221.117 136.802 221.51 138.765 222.581 140.971C223.418 139.716 224.096 138.395 224.798 137.06C224.939 136.796 225.079 136.533 225.223 136.261C226.137 134.527 226.97 132.773 227.742 130.971C228.168 130.971 228.594 130.971 229.032 130.971C228.237 133.987 226.883 136.659 225.447 139.413C223.342 143.488 223.108 146.912 223.667 151.394C223.827 152.681 223.975 153.97 224.124 155.258C224.156 155.534 224.188 155.811 224.221 156.095C224.611 159.481 224.933 162.872 225.255 166.265C225.317 166.92 225.379 167.575 225.442 168.23C225.6 169.89 225.756 171.55 225.913 173.21C226.166 175.893 226.421 178.576 226.676 181.26C226.763 182.178 226.85 183.097 226.937 184.016C227.288 187.735 227.666 191.451 228.065 195.165C230.659 195.045 233.253 194.925 235.847 194.803C237.051 194.746 238.256 194.69 239.461 194.635C240.626 194.581 241.791 194.527 242.956 194.472C243.398 194.451 243.84 194.431 244.282 194.41C246.735 194.298 249.173 194.156 251.613 193.874C251.942 191.899 252.039 189.938 252.12 187.938C252.136 187.572 252.152 187.206 252.168 186.829C252.22 185.613 252.27 184.396 252.32 183.18C252.347 182.538 252.373 181.897 252.4 181.255C252.525 178.264 252.644 175.273 252.762 172.282C252.771 172.048 252.781 171.813 252.79 171.572C253.48 154.364 253.48 154.364 253.747 137.144C253.75 136.441 253.756 135.738 253.762 135.035C253.846 128.466 253.846 128.466 251.936 122.262C251.846 122.069 251.756 121.877 251.664 121.679C250.166 118.491 248.396 115.945 245.147 114.42C237.057 111.562 228.33 117.641 221.936 121.939ZM149.677 114.52C149.361 114.561 149.361 114.561 149.038 114.603C148.055 114.731 147.072 114.857 146.089 114.983C145.757 115.027 145.426 115.07 145.084 115.115C140.652 115.679 136.275 115.856 131.815 115.83C131.322 115.828 130.83 115.827 130.338 115.826C129.15 115.822 127.962 115.817 126.774 115.81C126.92 118.224 127.118 120.557 127.702 122.907C127.754 123.136 127.806 123.365 127.859 123.601C128.176 124.918 128.59 125.981 129.355 127.1C130.75 126.912 131.925 126.571 133.22 126.024C133.591 125.869 133.963 125.713 134.345 125.553C134.745 125.383 135.145 125.213 135.544 125.044C136.169 124.782 136.793 124.52 137.418 124.258C137.847 124.079 138.276 123.899 138.704 123.719C140.957 122.773 143.22 121.851 145.484 120.931C145.849 120.782 146.214 120.634 146.59 120.481C148.048 119.888 149.506 119.297 150.968 118.713C150.876 118.256 150.781 117.799 150.685 117.342C150.633 117.088 150.581 116.833 150.527 116.571C150.325 115.818 150.035 115.209 149.677 114.52ZM51.2097 141.838C51.0234 142.084 50.8371 142.331 50.6452 142.584C50.5387 142.691 50.4323 142.797 50.3226 142.907C50.2297 143.851 50.165 144.569 50.3226 145.487C51.3288 146.612 52.4164 147.08 53.871 147.423C54.8706 147.168 54.8706 147.168 55.8266 146.677C60.5864 144.441 65.3053 145.693 70.0614 147.346C71.4607 147.86 72.8292 148.434 74.1936 149.036C74.6196 149.216 74.6196 149.216 75.0542 149.4C75.7661 149.721 75.7661 149.721 76.7742 150.326C76.9985 151.009 76.9985 151.009 77.0968 151.616C75.6798 151.442 74.6544 151.093 73.4073 150.407C71.1602 149.243 68.864 148.481 66.4516 147.745C66.2133 147.665 65.9751 147.585 65.7296 147.502C62.2988 146.452 58.7026 146.955 55.4839 148.391C54.0171 149.172 52.7934 150.01 52.2581 151.616C52.096 153.594 52.2223 154.562 53.5484 156.133C56.8875 159.555 61.607 159.89 66.129 160.004C67.1813 160.006 68.2333 159.996 69.2855 159.983C69.5692 159.98 69.8528 159.977 70.145 159.974C70.4338 159.97 70.7225 159.967 71.02 159.963C71.6142 159.957 72.2083 159.95 72.8024 159.943C73.0968 159.939 73.3912 159.936 73.6945 159.932C78.6707 159.882 83.2358 160.328 88.0645 161.616C87.3576 157.844 85.579 155.114 82.9398 152.343C82.2581 151.616 82.2581 151.616 81.6255 150.804C76.8647 145.012 68.0706 140.53 60.6452 139.681C57.5444 139.44 53.5734 139.502 51.2097 141.838ZM255.161 142.584C255.148 143.122 255.148 143.66 255.161 144.197C255.511 144.62 255.511 144.62 256.362 144.551C256.718 144.547 257.073 144.544 257.44 144.54C257.796 144.537 258.152 144.534 258.519 144.531C258.795 144.527 259.071 144.523 259.355 144.52C259.004 143.471 259.004 143.471 258.387 142.584C257.843 142.561 257.298 142.557 256.754 142.564C256.458 142.567 256.161 142.57 255.856 142.573C255.626 142.577 255.397 142.58 255.161 142.584ZM286.391 143.874C286.077 144.086 286.077 144.086 285.756 144.303C280.725 147.71 275.755 151.205 270.848 154.788C270.358 155.14 269.857 155.475 269.355 155.81C269.861 157.735 270.887 159.303 271.935 160.971C273.635 160.444 274.913 159.37 276.311 158.31C278.505 156.669 280.717 155.06 282.964 153.491C283.362 153.212 283.362 153.212 283.769 152.927C285.063 152.024 286.364 151.134 287.683 150.267C287.924 150.106 288.166 149.946 288.415 149.78C288.869 149.48 289.325 149.183 289.784 148.891C290.457 148.458 290.457 148.458 291.29 147.745C291.29 146.258 290.95 145.703 290.202 144.439C290 144.091 289.797 143.744 289.589 143.386C289.405 143.121 289.222 142.857 289.032 142.584C287.982 142.584 287.235 143.3 286.391 143.874ZM135.354 142.596C134.984 142.599 134.614 142.602 134.232 142.605C133.621 142.609 133.621 142.609 132.996 142.614C132.564 142.617 132.132 142.62 131.699 142.623C130.524 142.632 129.348 142.641 128.173 142.649C126.945 142.658 125.717 142.667 124.489 142.676C122.163 142.694 119.837 142.711 117.511 142.728C114.863 142.747 112.216 142.767 109.568 142.786C104.12 142.826 98.6732 142.867 93.2258 142.907C93.3323 143.545 93.4387 144.184 93.5484 144.842C98.2258 144.797 102.903 144.75 107.581 144.701C107.924 144.698 108.267 144.694 108.62 144.69C118.759 144.585 128.896 144.46 139.032 144.197C138.619 143.646 138.188 143.109 137.742 142.584C136.946 142.584 136.15 142.591 135.354 142.596ZM216.452 143.391C216.202 143.437 215.952 143.483 215.694 143.53C215.086 143.643 214.479 143.758 213.871 143.874C213.871 143.981 213.871 144.087 213.871 144.197C216.532 144.197 219.194 144.197 221.936 144.197C221.936 143.771 221.936 143.345 221.936 142.907C220.039 142.855 218.312 143.033 216.452 143.391ZM2.90323 159.681C2.79202 160.646 2.79202 160.646 3.37702 161.146C3.70136 161.409 3.70136 161.409 4.03226 161.677C4.96819 162.458 5.83436 163.253 6.67339 164.137C11.1087 168.598 16.6175 171.985 23.0444 172.06C26.9514 172.023 30.1616 171.211 33.125 168.592C35.2393 166.192 36.3352 164.156 36.2727 160.872C36.0345 159.432 35.3058 158.642 34.1936 157.745C29.5646 154.624 22.2274 156.116 17.0968 157.1C15.8159 157.391 14.5579 157.738 13.2989 158.111C12.2027 158.405 11.1255 158.574 10 158.713C10 158.287 10 157.862 10 157.423C16.6694 155.318 26.3689 152.353 33.1237 155.578C33.3969 155.728 33.6701 155.878 33.9516 156.032C35.5268 156.885 36.3356 156.945 38.0645 156.455C39.4319 155.723 39.4319 155.723 40.3226 154.52C40.4819 153.139 40.429 152.442 39.7177 151.233C37.6516 149.038 34.3735 148.727 31.5323 148.633C21.9974 148.74 9.63746 152.677 2.90323 159.681ZM94.5161 151.294C94.4881 151.651 94.4601 152.009 94.4312 152.377C92.0213 183.096 92.0213 183.096 90.8266 195.87C90.7962 196.196 90.7962 196.196 90.7652 196.529C90.0722 203.945 90.0722 203.945 89.816 206.003C89.6655 207.545 89.6774 209.099 89.6774 210.649C100.855 210.649 112.032 210.649 123.548 210.649C123.559 204.36 123.559 204.36 123.405 198.081C123.39 197.661 123.375 197.24 123.359 196.807C123.319 195.682 123.276 194.558 123.233 193.434C123.188 192.245 123.145 191.055 123.101 189.865C123.027 187.875 122.952 185.884 122.877 183.894C122.79 181.602 122.705 179.31 122.621 177.018C122.539 174.794 122.456 172.569 122.373 170.345C122.338 169.406 122.303 168.467 122.268 167.528C122.22 166.218 122.17 164.909 122.12 163.599C122.106 163.216 122.092 162.832 122.078 162.437C121.996 160.325 121.855 158.233 121.613 156.133C121.403 156.132 121.194 156.131 120.978 156.131C119.015 156.125 117.053 156.107 115.09 156.083C114.352 156.076 113.614 156.071 112.876 156.069C105.136 156.047 105.136 156.047 101.613 154.197C101.041 153.932 100.469 153.668 99.8967 153.404C99.1104 153.022 98.3266 152.635 97.5428 152.247C97.2884 152.123 97.0339 152 96.7717 151.872C96.5467 151.761 96.3216 151.649 96.0898 151.535C95.4427 151.234 95.4427 151.234 94.5161 151.294ZM123.548 156.133C123.751 163.227 123.965 170.317 124.244 177.408C124.27 178.077 124.296 178.746 124.322 179.415C124.403 181.495 124.485 183.574 124.567 185.654C124.651 187.787 124.734 189.92 124.816 192.053C124.887 193.907 124.96 195.761 125.033 197.616C125.076 198.714 125.119 199.812 125.161 200.91C125.208 202.124 125.256 203.338 125.304 204.553C125.318 204.91 125.331 205.267 125.345 205.635C125.359 205.967 125.372 206.298 125.386 206.64C125.397 206.925 125.408 207.21 125.42 207.505C125.496 208.558 125.657 209.603 125.806 210.649C127.616 210.649 129.426 210.649 131.29 210.649C131.677 209.952 131.677 209.952 132.072 209.241C137.462 199.581 143.166 190.293 152.399 183.854C152.625 183.696 152.85 183.538 153.082 183.375C153.402 183.158 153.402 183.158 153.729 182.936C153.919 182.806 154.11 182.675 154.306 182.541C154.839 182.262 154.839 182.262 155.806 182.262C155.623 183.409 155.335 184.256 154.742 185.253C154.588 185.515 154.434 185.777 154.276 186.047C154.109 186.328 153.942 186.609 153.77 186.899C150.792 192.027 148.044 197.21 145.706 202.665C145.549 203.028 145.392 203.391 145.23 203.765C145.089 204.102 144.948 204.439 144.802 204.787C144.676 205.086 144.551 205.385 144.421 205.693C144.103 206.492 144.103 206.492 144.516 207.423C144.658 207.219 144.799 207.015 144.945 206.805C149.541 200.322 155.404 194.078 162.903 190.971C163.329 190.971 163.755 190.971 164.194 190.971C164.005 192.14 163.691 193.042 163.129 194.081C162.975 194.37 162.821 194.658 162.662 194.955C162.412 195.418 162.412 195.418 162.157 195.891C160.655 198.723 159.201 201.574 157.802 204.459C157.63 204.809 157.458 205.159 157.281 205.52C157.125 205.844 156.969 206.168 156.808 206.502C156.599 206.933 156.599 206.933 156.386 207.372C156.301 207.602 156.217 207.831 156.129 208.068C156.235 208.281 156.342 208.494 156.452 208.713C156.745 208.405 157.038 208.097 157.34 207.779C160.07 204.955 162.881 202.533 166.129 200.326C166.475 200.081 166.82 199.836 167.176 199.584C168.065 199.036 168.065 199.036 169.032 199.036C168.916 201.002 167.97 202.235 166.875 203.794C166.522 204.309 166.17 204.825 165.818 205.341C165.649 205.588 165.479 205.835 165.305 206.089C163.673 208.208 163.673 208.208 162.903 210.649C184.832 210.649 206.761 210.649 229.355 210.649C230.71 206.113 230.71 206.113 230.645 203.874C230.416 203.855 230.187 203.835 229.951 203.815C229.654 203.788 229.358 203.761 229.052 203.733C228.609 203.694 228.609 203.694 228.157 203.654C227.419 203.552 227.419 203.552 227.097 203.229C226.997 202.473 226.917 201.722 226.849 200.962C226.826 200.724 226.804 200.485 226.78 200.239C226.705 199.438 226.631 198.636 226.557 197.835C226.505 197.269 226.451 196.704 226.398 196.138C226.256 194.617 226.115 193.095 225.975 191.574C225.858 190.319 225.741 189.064 225.624 187.81C225.07 181.882 224.525 175.955 223.998 170.025C223.979 169.81 223.96 169.596 223.94 169.375C223.749 167.224 223.56 165.072 223.374 162.921C223.329 162.402 223.329 162.402 223.283 161.874C223.228 161.243 223.173 160.613 223.12 159.982C223.096 159.708 223.072 159.434 223.047 159.152C223.027 158.917 223.007 158.682 222.986 158.441C222.894 157.665 222.734 156.899 222.581 156.133C189.9 156.133 157.219 156.133 123.548 156.133ZM255.161 156.133C254.964 157.318 254.797 158.341 254.751 159.515C254.734 159.923 254.734 159.923 254.717 160.34C254.706 160.633 254.695 160.926 254.684 161.228C254.671 161.542 254.658 161.855 254.645 162.178C254.604 163.216 254.564 164.254 254.525 165.292C254.497 166.023 254.468 166.754 254.44 167.485C254.38 169.024 254.321 170.562 254.263 172.101C254.204 173.657 254.144 175.214 254.082 176.771C253.74 185.379 253.438 193.969 253.548 202.584C252.058 202.691 250.568 202.797 249.032 202.907C249.066 203.299 249.099 203.692 249.133 204.096C249.152 204.317 249.171 204.538 249.19 204.765C249.726 207.109 251.568 208.217 253.478 209.43C255.852 210.755 257.852 210.854 260.533 210.753C260.918 210.746 261.303 210.738 261.699 210.73C262.639 210.711 263.577 210.683 264.516 210.649C263.604 198.051 262.631 185.458 261.62 172.867C261.532 171.775 261.445 170.683 261.358 169.592C261.22 167.859 261.081 166.127 260.941 164.395C260.888 163.75 260.837 163.104 260.786 162.459C260.715 161.572 260.643 160.685 260.571 159.799C260.55 159.538 260.53 159.276 260.509 159.007C260.424 157.992 260.324 157.103 260 156.133C258.403 156.133 256.806 156.133 255.161 156.133ZM51.2903 169.358C50.6661 170.342 50.6452 170.712 50.6452 171.939C50.9346 172.025 51.224 172.112 51.5222 172.201C56.9457 173.904 62.0738 176.408 66.3307 180.225C66.499 180.375 66.6673 180.525 66.8407 180.679C67.6899 181.469 68.2707 182.046 68.3871 183.229C67.125 183.043 66.4548 182.44 65.504 181.616C60.5284 177.469 54.3247 173.246 47.5655 173.459C46.4786 173.587 45.7267 173.882 44.8387 174.52C44.0008 175.909 43.9362 177.131 44.1936 178.713C45.6099 182.956 48.7168 185.723 52.498 187.867C54.1611 188.696 55.8714 189.183 57.6613 189.661C58.4285 189.878 59.1955 190.097 59.9622 190.316C60.3453 190.425 60.7284 190.533 61.1231 190.645C66.199 192.104 70.9194 193.783 75.4839 196.455C75.91 196.699 76.3363 196.943 76.7629 197.186C77.2475 197.463 77.2475 197.463 77.7419 197.745C79.589 191.318 76.5561 183.032 73.5081 177.423C70.877 173.059 66.7293 168.922 61.7276 167.504C58.2213 166.747 54.092 166.816 51.2903 169.358ZM44.5161 183.552C44.5114 183.777 44.5067 184.002 44.5019 184.234C44.3566 190.643 43.9965 197.027 43.5537 203.422C43.5322 203.734 43.5108 204.046 43.4887 204.368C43.4483 204.955 43.4071 205.541 43.3651 206.128C43.2605 207.639 43.2055 209.133 43.2258 210.649C43.8645 210.489 43.8645 210.489 44.5161 210.326C44.5635 209.939 44.6109 209.552 44.6598 209.153C45.5187 202.586 47.3283 196.89 50.3207 190.985C50.6863 190.243 51.0039 189.49 51.2903 188.713C51.0949 188.611 50.8994 188.509 50.6981 188.403C48.6345 187.254 47.0833 185.904 45.4625 184.189C45.2566 183.979 45.0508 183.769 44.8387 183.552C44.7323 183.552 44.6258 183.552 44.5161 183.552ZM151.29 186.778C143.822 192.96 137.614 201.148 133.548 210.004C133.548 210.216 133.548 210.429 133.548 210.649C135.997 210.649 138.445 210.649 140.968 210.649C141.195 210.035 141.422 209.422 141.656 208.79C143.333 204.306 145.105 199.897 147.198 195.588C147.379 195.214 147.56 194.84 147.747 194.454C148.81 192.297 149.96 190.226 151.226 188.182C151.354 187.931 151.481 187.681 151.613 187.423C151.453 187.104 151.453 187.104 151.29 186.778ZM158.266 195.588C158.065 195.732 157.864 195.876 157.657 196.025C155.605 197.525 153.758 199.2 151.935 200.971C151.758 201.14 151.581 201.309 151.398 201.484C149.954 202.886 148.712 204.387 147.5 205.991C147.227 206.344 147.227 206.344 146.949 206.704C145.955 208.01 145.267 209.146 144.516 210.649C147.284 210.649 150.052 210.649 152.903 210.649C155.053 206.66 157.028 202.639 158.889 198.508C159.546 197.051 160.242 195.621 160.968 194.197C159.887 194.197 159.117 194.977 158.266 195.588ZM243.981 196.022C243.529 196.043 243.078 196.065 242.626 196.087C241.447 196.143 240.268 196.201 239.09 196.259C237.883 196.317 236.676 196.376 235.469 196.434C233.109 196.548 230.748 196.662 228.387 196.778C227.886 197.78 228.198 198.63 228.367 199.721C228.43 200.135 228.493 200.548 228.557 200.974C228.608 201.292 228.658 201.611 228.71 201.939C233.386 202.029 238.033 201.879 242.702 201.637C243.115 201.615 243.115 201.615 243.536 201.594C244.336 201.553 245.135 201.51 245.935 201.466C246.29 201.448 246.29 201.448 246.652 201.429C248.314 201.335 249.96 201.166 251.613 200.971C251.613 199.268 251.613 197.565 251.613 195.81C249.063 195.781 246.527 195.896 243.981 196.022ZM40.6048 197.967C39.8324 198.857 39.3872 199.389 39.2566 200.569C39.3254 201.246 39.4131 201.921 39.5149 202.593C39.7603 204.23 39.712 205.872 39.6976 207.524C39.6961 207.83 39.6947 208.137 39.6932 208.453C39.6894 209.185 39.6842 209.917 39.6774 210.649C40.2097 210.649 40.7419 210.649 41.2903 210.649C41.4304 209.244 41.5681 207.839 41.7038 206.433C41.7501 205.957 41.797 205.48 41.8446 205.004C42.1184 202.258 42.3382 199.541 42.2581 196.778C41.577 196.778 41.055 197.53 40.6048 197.967ZM37.4194 201.294C37.2765 201.429 37.1337 201.563 36.9865 201.702C36.3248 202.326 35.6624 202.949 35 203.572C34.7755 203.784 34.5509 203.996 34.3196 204.214C34.095 204.425 33.8705 204.636 33.6391 204.854C33.2979 205.174 33.2979 205.174 32.9499 205.501C32.0848 206.291 31.1849 207.034 30.2715 207.766C29.4499 208.58 29.4499 208.58 28.3871 210.649C31.5806 210.649 34.7742 210.649 38.0645 210.649C38.0778 209.285 38.0911 207.921 38.1048 206.516C38.1107 206.087 38.1166 205.658 38.1226 205.215C38.1243 204.877 38.1259 204.539 38.1275 204.191C38.1309 203.844 38.1343 203.498 38.1378 203.141C38.1301 202.191 38.1301 202.191 37.4194 201.294ZM161.532 205.991C161.249 206.256 161.249 206.256 160.959 206.525C159.685 207.725 158.495 208.943 157.419 210.326C157.419 210.433 157.419 210.539 157.419 210.649C158.619 211.039 159.458 211.108 160.645 210.649C162.227 208.868 163.443 206.448 164.194 204.197C163.055 204.197 162.327 205.244 161.532 205.991Z" fill="black"/>
<path d="M175.807 21.6152C176.233 21.7217 176.659 21.8281 177.097 21.9378C176.991 22.8959 176.884 23.8539 176.775 24.841C176.349 24.841 175.923 24.841 175.484 24.841C175.111 23.5332 175.214 22.8352 175.807 21.6152Z" fill="black"/>
<path d="M180.64 24.1963C181.066 24.4092 181.491 24.6221 181.93 24.8415C181.902 25.7156 181.867 26.5887 181.829 27.4624C181.818 27.8304 181.818 27.8304 181.807 28.2059C181.72 30.0435 181.303 31.3566 180.196 32.8656C179.454 33.3797 178.941 33.3416 178.059 33.2285C177.846 33.0156 177.633 32.8027 177.414 32.5834C177.454 31.9382 177.454 31.9382 177.737 31.2931C177.947 31.2003 178.158 31.1076 178.376 31.0121C179.072 30.7095 179.072 30.7095 179.283 30.0519C179.325 29.8161 179.367 29.5803 179.41 29.3374C179.458 29.0804 179.506 28.8235 179.555 28.5587C179.704 27.5209 179.81 26.4833 179.884 25.4375C179.995 24.8415 179.995 24.8415 180.64 24.1963Z" fill="black"/>
<path d="M172.577 32.9062C174.02 33.0712 174.701 33.6052 175.803 34.5192C176.441 34.8561 177.084 35.1827 177.738 35.4869C177.632 35.9127 177.525 36.3385 177.416 36.7772C175.338 36.611 174.212 35.931 172.597 34.6804C172.254 34.1966 172.254 34.1966 172.355 33.4909C172.428 33.298 172.502 33.105 172.577 32.9062Z" fill="black"/>
<path d="M59.3584 40.3252C60.1447 40.5671 60.1447 40.5671 60.9713 40.9704C61.2939 41.5954 61.2939 41.5954 61.2939 42.2607C60.9309 42.8454 60.9309 42.8454 60.3261 43.2284C59.4592 43.1276 59.4592 43.1276 58.7132 42.9058C58.4914 42.1599 58.4914 42.1599 58.3906 41.2929C58.8543 40.7083 58.8543 40.7083 59.3584 40.3252Z" fill="black"/>
<path d="M257.654 44.4302C258.016 44.4271 258.379 44.424 258.753 44.4209C259.142 44.4211 259.531 44.4214 259.931 44.4217C260.333 44.4204 260.735 44.419 261.149 44.4176C262.216 44.4152 263.282 44.4162 264.348 44.4181C265.001 44.418 265.654 44.4147 266.306 44.4103C267.562 44.4024 268.817 44.4011 270.072 44.4016C270.461 44.3986 270.85 44.3956 271.251 44.3926C271.613 44.3946 271.976 44.3966 272.35 44.3987C272.668 44.3985 272.986 44.3983 273.314 44.3981C274.354 44.5405 274.963 44.8729 275.808 45.4865C276.651 47.1714 276.232 49.866 276.244 51.7424C276.249 52.3685 276.258 52.9946 276.27 53.6206C276.288 54.5236 276.295 55.4263 276.3 56.3295C276.307 56.6085 276.314 56.8874 276.322 57.1748C276.317 58.452 276.213 59.2069 275.591 60.3412C273.844 61.3658 272.077 61.187 270.09 61.1619C269.653 61.1614 269.217 61.1614 268.78 61.162C267.868 61.1614 266.955 61.1554 266.042 61.1452C264.872 61.1324 263.703 61.131 262.533 61.1334C261.633 61.1344 260.732 61.1305 259.832 61.125C259.191 61.1216 258.55 61.1215 257.909 61.1214C257.52 61.1163 257.131 61.1111 256.731 61.1058C256.217 61.1018 256.217 61.1018 255.693 61.0976C254.84 60.9704 254.84 60.9704 254.259 60.5385C253.322 59.238 253.498 57.7622 253.496 56.2337C253.495 55.9589 253.494 55.6841 253.493 55.401C253.491 54.8199 253.49 54.2388 253.49 53.6577C253.49 52.7693 253.484 51.8809 253.478 50.9924C253.477 50.4277 253.476 49.863 253.476 49.2983C253.473 49.0328 253.471 48.7673 253.469 48.4937C253.479 46.033 253.479 46.033 254.195 45.1639C255.382 44.587 256.341 44.4363 257.654 44.4302ZM256.776 46.4543C256.776 46.6672 256.776 46.8801 256.776 47.0994C257.094 47.2736 257.412 47.4479 257.74 47.6274C258.642 48.1424 259.494 48.698 260.338 49.3033C260.558 49.4607 260.778 49.6181 261.004 49.7802C261.457 50.1072 261.908 50.4366 262.357 50.7681C262.685 51.0011 262.685 51.0011 263.02 51.2388C263.215 51.3809 263.41 51.523 263.611 51.6695C264.183 51.9918 264.183 51.9918 264.819 51.8791C265.62 51.5622 266.282 51.1542 267 50.678C267.284 50.4913 267.568 50.3046 267.861 50.1123C268.155 49.9164 268.449 49.7206 268.752 49.5188C269.337 49.1321 269.923 48.7457 270.508 48.3595C270.767 48.1875 271.026 48.0156 271.292 47.8385C271.937 47.422 271.937 47.422 272.582 47.0994C272.423 46.7801 272.423 46.7801 272.26 46.4543C267.15 46.4543 262.04 46.4543 256.776 46.4543ZM271.836 49.3373C271.488 49.6025 271.14 49.8671 270.791 50.1312C270.609 50.2687 270.427 50.4062 270.24 50.5479C269.315 51.2445 268.383 51.9298 267.441 52.6034C267.106 52.8467 266.77 53.09 266.424 53.3406C265.405 53.9196 265.013 54.1126 263.873 53.8736C263.113 53.4076 262.436 52.9435 261.736 52.4018C259.815 50.9489 257.856 49.6928 255.808 48.3897C255.808 51.9026 255.808 55.4155 255.808 59.0349C258.156 59.0417 260.503 59.0481 262.851 59.0516C263.944 59.0533 265.037 59.0556 266.13 59.0592C267.383 59.0634 268.637 59.065 269.89 59.0664C270.48 59.0689 270.48 59.0689 271.082 59.0714C271.444 59.0715 271.805 59.0715 272.178 59.0715C272.498 59.0722 272.818 59.073 273.148 59.0737C273.863 59.1163 273.863 59.1163 274.195 58.7123C274.224 57.9225 274.232 57.1419 274.227 56.3522C274.226 56.1164 274.226 55.8805 274.225 55.6376C274.224 54.8816 274.22 54.1256 274.215 53.3696C274.214 52.8582 274.212 52.3468 274.211 51.8354C274.207 50.5793 274.202 49.3232 274.195 48.0672C273.169 48.0672 272.635 48.7184 271.836 49.3373Z" fill="black"/>
<path d="M83.937 53.6724C84.1299 53.7389 84.3229 53.8055 84.5217 53.874C84.6281 54.5127 84.7346 55.1514 84.8443 55.8095C83.8765 56.4547 83.8765 56.4547 83.191 56.3539C82.5862 56.1321 82.5862 56.1321 82.2636 55.8095C82.183 55.0232 82.183 55.0232 82.2636 54.1966C83.2314 53.5514 83.2314 53.5514 83.937 53.6724Z" fill="black"/>
<path d="M48.3876 74.5186C49.2545 74.8008 49.2545 74.8008 50.0005 75.1637C50.0408 75.9298 50.0408 75.9298 50.0005 76.7766C49.7876 76.9895 49.5747 77.2024 49.3553 77.4218C47.8858 77.2426 47.8858 77.2426 47.4199 76.7766C47.3392 75.9903 47.3392 75.9903 47.4199 75.1637C47.7392 74.9508 48.0586 74.7379 48.3876 74.5186Z" fill="black"/>
<path d="M292.761 97.0391C293.547 97.0995 293.547 97.0995 293.87 97.4221C293.93 98.2084 293.93 98.2084 293.87 99.035C293.657 99.2479 293.444 99.4608 293.225 99.6802C292.378 99.5592 292.378 99.5592 291.612 99.3576C291.41 98.5915 291.41 98.5915 291.289 97.7447C291.934 97.0995 291.934 97.0995 292.761 97.0391Z" fill="black"/>
<path d="M28.2049 110.89C28.6141 110.93 28.6141 110.93 29.0315 110.97C29.6767 111.938 29.6767 111.938 29.6363 112.603C29.2706 113.413 28.8747 113.56 28.0638 113.874C27.638 113.554 27.2121 113.235 26.7734 112.906C27.1152 111.001 27.1152 111.001 28.2049 110.89Z" fill="black"/>
<path d="M303.87 130.97C304.071 131.737 304.071 131.737 304.192 132.583C303.547 133.229 303.547 133.229 302.721 133.289C301.934 133.229 301.934 133.229 301.612 132.906C301.598 132.261 301.598 131.615 301.612 130.97C302.472 130.54 302.956 130.754 303.87 130.97Z" fill="black"/>
<path d="M206.776 170.647C206.978 171.413 206.978 171.413 207.099 172.26C206.453 172.905 206.453 172.905 205.607 172.946C205.354 172.932 205.101 172.919 204.84 172.905C204.498 172.321 204.498 172.321 204.195 171.615C204.302 171.296 204.408 170.976 204.518 170.647C205.378 170.217 205.862 170.431 206.776 170.647Z" fill="black"/>
<path d="M108.388 183.551C109.255 183.833 109.255 183.833 110.001 184.196C110.041 184.962 110.041 184.962 110.001 185.809C109.788 186.022 109.575 186.235 109.355 186.454C107.886 186.275 107.886 186.275 107.42 185.809C107.339 185.023 107.339 185.023 107.42 184.196C107.739 183.983 108.059 183.77 108.388 183.551Z" fill="black"/>
<path d="M285.157 192.221C286.124 192.261 286.124 192.261 286.447 192.584C286.507 193.37 286.507 193.37 286.447 194.197C286.234 194.409 286.021 194.622 285.802 194.842C284.332 194.662 284.332 194.662 283.866 194.197C283.826 193.39 283.826 193.39 283.866 192.584C284.189 192.261 284.189 192.261 285.157 192.221Z" fill="black"/>
</g>
<defs>
<clipPath id="clip0_246_3164">
<rect width="320" height="228.71" fill="white" transform="translate(0 0.00292969)"/>
</clipPath>
</defs>
</svg>
