<svg width="214" height="140" viewBox="0 0 214 140" fill="none" xmlns="http://www.w3.org/2000/svg">
<g clip-path="url(#clip0_244_1238)">
<path d="M176.639 4.76716C176.783 4.8969 176.927 5.02664 177.075 5.16031C177.24 5.30335 177.404 5.4464 177.573 5.59378C180.143 7.9666 181.381 11.0109 181.506 14.4541C181.524 16.466 181.201 18.4184 180.843 20.3931C180.72 21.1194 180.633 21.8483 180.547 22.5797C180.739 22.6772 180.932 22.7748 181.13 22.8754C182.221 23.6023 182.776 24.8171 183.031 26.0701C183.14 28.1179 182.266 30.0965 180.95 31.6312C180.003 32.5962 179.128 33.2307 177.726 33.3324C177.655 33.8291 177.583 34.3259 177.509 34.8377C177.151 34.8377 176.793 34.8377 176.424 34.8377C176.353 34.4119 176.281 33.9861 176.208 33.5474C175.921 33.5474 175.635 33.5474 175.34 33.5474C175.334 33.8262 175.329 34.1049 175.323 34.3921C175.303 35.4306 175.281 36.469 175.259 37.5075C175.249 37.9561 175.24 38.4048 175.232 38.8535C175.219 39.4999 175.205 40.1464 175.191 40.7929C175.188 40.9921 175.184 41.1913 175.18 41.3965C175.156 42.4548 175.083 43.471 174.906 44.5152C175.134 44.5329 175.362 44.5506 175.597 44.5689C182.798 45.5015 189.985 50.3565 195.148 55.1561C195.629 55.6002 196.116 56.0285 196.616 56.4506C203.138 62.1146 206.932 70.185 210.489 77.8754C210.556 78.0197 210.623 78.164 210.693 78.3127C211.444 79.9325 212.132 81.5629 212.734 83.2433C212.788 83.3928 212.841 83.5422 212.897 83.6962C213.965 86.7565 214.233 90.6788 212.819 93.7028C211.433 95.9577 209.806 97.4694 207.167 98.203C204.461 98.5538 201.841 98.2564 199.206 97.6334C199.186 97.7948 199.165 97.9562 199.144 98.1225C198.81 100.589 198.33 103.023 197.851 105.465C197.761 105.928 197.671 106.39 197.581 106.853C197.392 107.817 197.203 108.782 197.014 109.746C196.773 110.976 196.533 112.207 196.294 113.438C196.108 114.391 195.921 115.344 195.735 116.297C195.646 116.751 195.557 117.205 195.469 117.658C194.271 123.816 194.271 123.816 193.782 124.3C193.369 124.32 192.956 124.325 192.543 124.325C192.278 124.324 192.013 124.324 191.74 124.324C191.448 124.323 191.157 124.322 190.866 124.321C190.569 124.321 190.273 124.32 189.977 124.32C189.195 124.319 188.413 124.317 187.632 124.315C186.835 124.313 186.038 124.312 185.241 124.311C183.676 124.308 182.112 124.305 180.547 124.3C180.538 124.439 180.529 124.578 180.52 124.721C180.398 126.323 180.107 127.849 179.747 129.414C179.69 129.667 179.633 129.92 179.574 130.181C179.394 130.981 179.211 131.78 179.028 132.58C178.905 133.123 178.783 133.666 178.66 134.209C178.543 134.726 178.427 135.242 178.309 135.758C178.254 136.002 178.199 136.245 178.142 136.496C178.091 136.72 178.039 136.945 177.987 137.177C177.941 137.375 177.896 137.572 177.85 137.776C177.726 138.279 177.726 138.279 177.509 138.924C182.45 138.924 187.39 138.924 192.48 138.924C192.48 139.279 192.48 139.633 192.48 139.999C129.758 139.999 67.0361 139.999 2.41329 139.999C2.34169 139.644 2.27008 139.289 2.19631 138.924C5.56154 138.924 8.92677 138.924 12.394 138.924C12.1076 138.427 11.8212 137.93 11.5261 137.418C11.3192 136.405 11.3848 135.395 11.8515 134.461C13.3835 132.215 16.3701 131.487 18.8359 130.724C23.8569 129.164 27.8572 126.691 32.0274 123.579C32.1853 123.462 32.3432 123.344 32.5059 123.223C32.8898 122.937 33.2736 122.651 33.6572 122.365C33.5301 122.363 33.403 122.362 33.272 122.361C31.945 122.347 30.618 122.329 29.291 122.308C28.7963 122.301 28.3015 122.295 27.8067 122.29C27.0941 122.283 26.3816 122.272 25.6691 122.26C25.4491 122.258 25.2291 122.257 25.0025 122.255C23.7595 122.23 22.7862 122.176 21.7238 121.504C21.0611 120.417 20.976 119.444 20.9864 118.211C20.9858 118.045 20.9851 117.879 20.9845 117.708C20.9841 117.359 20.9852 117.01 20.988 116.66C20.9915 116.129 20.988 115.599 20.9838 115.068C20.9843 114.727 20.9851 114.386 20.9864 114.045C20.9851 113.888 20.9837 113.731 20.9824 113.569C20.9973 112.481 21.1651 111.7 21.7238 110.752C22.7351 110.028 23.6635 110.019 24.8614 110.044C25.0136 110.044 25.1658 110.045 25.3227 110.046C25.886 110.049 26.4492 110.058 27.0124 110.066C27.6946 110.074 28.3768 110.081 29.0589 110.088C29.3978 110.091 29.7368 110.095 30.0757 110.099C30.3268 110.101 30.5779 110.104 30.8366 110.107C30.85 109.923 30.8634 109.739 30.8772 109.55C31.3471 103.2 31.9722 96.868 32.6133 90.5333C32.7223 89.454 32.8305 88.3746 32.9387 87.2952C33.0697 85.9888 33.2011 84.6824 33.3326 83.376C33.369 83.0136 33.369 83.0136 33.4062 82.6438C33.6899 79.8248 33.9845 77.0074 34.3081 74.1926C31.7958 75.2293 30.3387 76.5444 28.5574 78.5613C25.957 81.466 21.9495 84.1283 18.0081 84.5664C16.8942 84.6101 16.3062 84.3899 15.4316 83.6549C14.3551 82.5728 13.6423 81.3729 12.95 80.0259C12.8397 79.814 12.7295 79.6021 12.6159 79.3837C11.2825 76.7825 10.0909 74.1159 8.8855 71.4548C8.18874 69.9191 7.47286 68.3924 6.75272 66.8673C6.6287 66.6041 6.5047 66.341 6.3807 66.0778C5.78817 64.8215 5.19236 63.5668 4.59211 62.314C0.212091 53.1716 0.212091 53.1716 0.175767 50.0393C0.166327 49.7718 0.166327 49.7718 0.156697 49.4988C0.140143 47.8997 0.582144 47.0252 1.68101 45.8324C2.7905 45.14 3.79188 45.0561 5.08051 45.2258C6.60848 45.6172 7.61488 46.6633 8.70546 47.741C8.82276 47.852 8.94005 47.9631 9.0609 48.0776C10.0166 48.9949 10.8182 49.9746 11.6075 51.034C14.1456 54.3712 16.6533 56.6106 20.4389 58.489C22.3177 59.4547 23.9609 60.6347 25.1953 62.3646C26.7725 61.8956 28.3934 61.3722 29.7517 60.4291C29.9139 59.6802 29.9139 59.6802 29.9687 58.9238C31.1659 57.8631 32.7513 57.1692 34.1725 56.4506C34.6231 56.2205 35.0737 55.9903 35.5243 55.7601C35.7557 55.6424 35.9871 55.5246 36.2256 55.4033C36.8664 55.076 37.5052 54.7452 38.1432 54.4127C43.2417 51.7621 48.4063 49.2388 53.5592 46.6944C54.0131 46.4701 54.4668 46.2454 54.9204 46.0205C54.8028 45.7942 54.8028 45.7942 54.6829 45.5633C47.7446 32.1526 41.6383 16.4242 42.553 1.07429C42.6246 0.861384 42.6962 0.64848 42.77 0.429126C43.8116 0.526091 44.4143 1.01389 45.1702 1.67913C45.3627 1.84613 45.3627 1.84613 45.5591 2.01651C48.387 4.51235 51.0788 7.15148 53.3359 10.1692C53.7438 10.6995 54.1775 11.2072 54.6095 11.7182C57.6196 15.2959 60.1663 19.1972 62.5144 23.2248C62.7175 23.5682 62.9206 23.9115 63.1238 24.2547C68.425 33.2706 68.425 33.2706 70.1016 37.6998C70.27 38.2529 70.27 38.2529 70.5424 38.4936C70.871 38.5435 71.2014 38.5823 71.5323 38.6146C71.7116 38.6326 71.8909 38.6507 72.0756 38.6692C72.214 38.6822 72.3525 38.6953 72.4951 38.7087C72.4901 38.429 72.485 38.1493 72.4798 37.8611C72.35 27.2455 74.105 16.8434 77.0515 6.66569C77.1444 6.3443 77.1444 6.3443 77.2392 6.01643C77.6738 4.54349 77.6738 4.54349 77.9194 4.30009C78.2809 4.29135 78.6427 4.29091 79.0043 4.30009C85.5745 16.8568 88.0878 30.3154 88.9849 44.3001C89.0436 44.1654 89.1023 44.0307 89.1627 43.8919C92.8982 35.3378 97.1098 28.0205 103.066 20.8164C103.475 20.3222 103.879 19.8256 104.276 19.3228C106.198 16.9162 108.056 15.0354 111.238 14.663C111.781 14.6185 111.781 14.6185 112.201 14.6227C112.418 14.8377 112.418 14.8377 112.459 15.5467C112.441 16.7829 112.209 17.9796 111.984 19.1926C111.936 19.4524 111.888 19.7121 111.839 19.9798C110.328 28.0182 108.215 35.8738 105.692 43.6549C105.802 43.6201 105.912 43.5853 106.025 43.5494C106.739 43.4031 107.44 43.408 108.166 43.4082C108.328 43.4074 108.49 43.4067 108.657 43.4058C109.201 43.4035 109.745 43.4026 110.289 43.4018C110.679 43.4005 111.069 43.399 111.459 43.3975C112.739 43.393 114.019 43.3908 115.3 43.3886C115.74 43.3878 116.181 43.3869 116.621 43.386C118.69 43.3819 120.759 43.3788 122.828 43.377C125.218 43.3749 127.607 43.3693 129.997 43.3606C131.844 43.3541 133.69 43.3509 135.537 43.3502C136.64 43.3497 137.744 43.3478 138.847 43.3424C139.884 43.3374 140.921 43.3364 141.958 43.3387C142.339 43.3388 142.72 43.3374 143.101 43.3344C143.621 43.3307 144.14 43.3322 144.66 43.335C144.811 43.3326 144.962 43.3303 145.118 43.3278C145.793 43.3368 146.214 43.4071 146.786 43.769C147.133 44.3001 147.133 44.3001 147.35 46.0205C150 46.0205 152.649 46.0205 155.378 46.0205C155.385 44.2133 155.385 44.2133 154.734 43.6743C154.553 43.5925 154.372 43.5107 154.185 43.4264C150.553 41.5343 149.167 38.1514 147.934 34.4634C147.228 32.1674 147.1 29.8531 147.089 27.4654C147.088 27.239 147.087 27.0125 147.086 26.7792C147.083 26.3021 147.082 25.825 147.081 25.3479C147.079 24.6306 147.072 23.9135 147.066 23.1963C147.055 20.9195 147.085 18.727 147.594 16.4973C147.818 15.4589 147.723 14.7547 147.35 13.7625C147.097 13.3581 147.097 13.3581 146.794 13.0635C145.944 12.1125 145.933 11.217 145.949 9.9881C146.282 7.49734 148.056 5.23883 149.954 3.65493C157.105 -1.73912 169.787 -0.976563 176.639 4.76716ZM44.2888 3.00977C44.0724 10.9321 45.4025 18.6794 47.7603 26.2356C47.8246 26.4439 47.8888 26.6523 47.955 26.867C49.4783 31.7572 51.4888 36.4546 53.7271 41.0609C53.7916 41.1939 53.856 41.327 53.9225 41.4641C54.8437 43.3815 54.8437 43.3815 56.0053 45.1603C56.8688 45.4283 57.3447 45.4371 58.1996 45.1427C58.4286 45.0199 58.6577 44.8971 58.8937 44.7705C59.0226 44.703 59.1515 44.6355 59.2843 44.5659C60.0215 44.176 60.7475 43.7665 61.4745 43.3584C61.7939 43.1794 62.1135 43.0004 62.433 42.8216C62.5935 42.7314 62.754 42.6413 62.9193 42.5484C64.7051 41.5606 66.5677 40.7507 68.4456 39.9519C68.8059 39.809 68.8059 39.809 69.0236 39.5689C69.0523 36.9549 68.0397 34.3338 66.8538 32.042C66.7612 31.8582 66.7612 31.8582 66.6667 31.6707C64.2494 26.9234 60.9332 22.5754 57.819 18.2598C57.501 17.8163 57.1868 17.3702 56.8732 16.9236C53.6806 12.384 50.1562 7.60801 45.8076 4.08504C45.6798 3.97665 45.552 3.86826 45.4203 3.75658C44.918 3.24018 44.918 3.24018 44.2888 3.00977ZM154.721 5.46357C153.59 6.99751 152.87 8.39051 152.992 10.3216C153.655 10.1775 153.655 10.1775 153.896 9.71387C153.974 9.54655 154.052 9.37924 154.133 9.20685C154.219 9.02513 154.305 8.84342 154.394 8.65619C154.481 8.46505 154.569 8.27391 154.66 8.07698C154.75 7.88667 154.84 7.69636 154.933 7.50028C155.412 6.58182 155.412 6.58182 155.595 5.59042C155.783 5.57711 155.971 5.5638 156.165 5.55009C157.128 5.32029 157.5 4.99286 158.199 4.30009C158.404 3.83444 158.404 3.83444 158.416 3.43988C156.792 3.15093 155.696 4.3146 154.721 5.46357ZM160.218 8.2013C159.674 8.96997 159.501 9.35611 159.501 10.3216C159.716 10.3926 159.93 10.4635 160.152 10.5367C160.244 10.4119 160.336 10.2872 160.43 10.1586C162.531 7.386 165.158 6.13598 168.397 4.94526C168.397 4.66138 168.397 4.37751 168.397 4.08504C165.35 3.73391 162.078 5.98142 160.218 8.2013ZM78.3533 6.88074C77.0814 10.5622 76.065 14.2432 75.3157 18.0635C75.2733 18.2795 75.2308 18.4954 75.187 18.7178C74.1443 24.1779 73.7352 29.7564 73.7427 35.3082C73.7428 35.4689 73.743 35.6296 73.7431 35.7952C73.5987 37.3712 73.5987 37.3712 74.0139 38.7087C74.332 38.7598 74.6521 38.799 74.9725 38.833C79.1693 39.3129 82.6963 40.4649 86.1313 42.9627C86.735 43.4811 86.735 43.4811 87.2492 43.4399C87.4817 33.4387 85.3817 23.6291 82.1232 14.1926C82.0746 14.0516 82.026 13.9106 81.976 13.7653C81.6505 12.8269 81.3095 11.8954 80.957 10.9668C80.9053 10.8298 80.8536 10.6929 80.8003 10.5519C80.001 8.40585 80.001 8.40585 78.3533 6.88074ZM149.466 13.8028C148.378 15.5348 148.662 17.3997 148.869 19.3539C149.032 19.3749 149.195 19.396 149.362 19.4177C150.739 19.617 151.944 19.9118 153.217 20.4711C153.633 20.6714 153.633 20.6714 154.076 20.6442C154.005 21.141 153.933 21.6377 153.859 22.1496C153.716 22.1419 153.573 22.1343 153.425 22.1264C152.779 22.0926 152.132 22.0606 151.486 22.0286C151.26 22.0165 151.035 22.0045 150.802 21.992C150.587 21.9817 150.373 21.9713 150.151 21.9605C149.953 21.9504 149.754 21.9403 149.549 21.9298C149.089 21.881 149.089 21.881 148.869 22.1496C147.822 28.0473 148.443 35.099 151.798 40.1872C152.932 41.6322 154.265 42.4972 156.029 43.0098C156.172 42.9388 156.316 42.8678 156.463 42.7947C156.248 42.5818 156.033 42.3689 155.812 42.1496C155.983 42.1936 156.153 42.2377 156.328 42.2831C158.801 42.9116 160.932 43.2776 163.406 42.5797C163.731 42.498 164.057 42.4173 164.383 42.3377C164.758 42.2446 164.758 42.2446 165.142 42.1496C165.214 42.4334 165.285 42.7173 165.359 43.0098C165.207 43.0694 165.055 43.129 164.898 43.1904C164.029 43.538 163.169 43.9072 162.308 44.2741C161.009 44.7652 159.707 44.7949 158.333 44.8604C157.479 44.8909 157.479 44.8909 156.68 45.1603C156.374 46.3754 156.465 47.4228 156.897 48.6012C157.662 49.8185 158.592 50.3264 159.935 50.7517C160.752 50.8679 161.551 50.875 162.376 50.8592C162.596 50.8562 162.817 50.8531 163.045 50.8499C166.983 50.7406 170.292 48.9245 173.161 46.3339C174.124 45.1847 174.096 43.9558 174.073 42.536C174.071 42.3472 174.07 42.1584 174.069 41.9639C174.065 41.3627 174.059 40.7615 174.051 40.1603C174.045 39.5622 174.04 38.9641 174.036 38.3659C174.033 37.9949 174.03 37.6238 174.024 37.2528C174.015 36.159 174.081 35.0932 174.205 34.0061C174.262 33.4837 174.277 32.9704 174.268 32.4453C174.264 32.1703 174.259 31.8953 174.255 31.6119C174.541 31.6119 174.828 31.6119 175.123 31.6119C175.194 31.8248 175.266 32.0377 175.34 32.2571C175.777 32.4148 175.777 32.4148 176.208 32.4721C176.315 32.1528 176.315 32.1528 176.424 31.827C176.568 31.8979 176.711 31.9689 176.858 32.042C177.634 32.1651 178.159 32.1817 178.832 31.7514C180.334 30.4886 181.294 29.1651 181.463 27.1722C181.503 25.9072 181.454 24.9504 180.764 23.87C180.172 23.3072 179.617 23.0166 178.788 23.0014C177.52 23.2016 176.63 23.8349 175.635 24.6101C175.09 24.9668 174.68 25.0779 174.038 25.1603C171.98 22.1562 170.482 19.1973 170.254 15.4963C170.179 14.4881 169.964 13.8877 169.264 13.1173C168.374 12.4518 167.605 12.3784 166.524 12.3852C166.36 12.3838 166.197 12.3823 166.029 12.3808C165.492 12.3768 164.955 12.3777 164.417 12.3789C164.043 12.3779 163.668 12.3768 163.293 12.3755C162.508 12.3736 161.723 12.3741 160.939 12.3762C159.934 12.3787 158.93 12.3743 157.926 12.3681C157.152 12.3641 156.379 12.3642 155.605 12.3654C155.235 12.3654 154.865 12.3641 154.494 12.3615C153.976 12.3583 153.458 12.3606 152.94 12.3642C152.788 12.3622 152.636 12.3601 152.48 12.3579C151.15 12.3777 150.395 12.9078 149.466 13.8028ZM106.908 18.3592C106.316 18.9503 105.754 19.5531 105.221 20.1964C104.862 20.6006 104.491 20.9703 104.103 21.3456C103.325 22.1111 102.65 22.9236 101.99 23.7893C101.87 23.9459 101.75 24.1025 101.627 24.2638C99.2064 27.4689 97.0707 30.8337 95.1215 34.3381C94.8771 34.7769 94.629 35.2133 94.3796 35.6492C91.1552 41.0049 91.1552 41.0049 90.0698 46.8807C90.42 47.2643 90.7727 47.6057 91.1547 47.956C91.4421 48.2365 91.7284 48.518 92.0141 48.8003C92.1701 48.954 92.3262 49.1077 92.487 49.2661C92.647 49.4237 92.807 49.5813 92.9718 49.7436C93.1301 49.8988 93.2884 50.0539 93.4515 50.2137C94.468 51.2166 95.433 52.2492 96.362 53.3324C96.5052 53.2614 96.6484 53.1904 96.7959 53.1173C96.6511 51.5038 96.3097 50.0035 95.8882 48.4411C95.4674 46.7915 95.4049 45.428 95.2771 43.6549C98.2127 43.6549 101.148 43.6549 104.173 43.6549C104.699 42.3518 105.205 41.0801 105.634 39.7487C105.686 39.5891 105.738 39.4295 105.791 39.2651C105.958 38.7485 106.124 38.2314 106.288 37.7141C106.374 37.4451 106.374 37.4451 106.461 37.1707C109.725 27.2664 109.725 27.2664 110.913 17.0017C110.911 16.8357 110.909 16.6696 110.907 16.4985C110.904 16.3763 110.902 16.254 110.899 16.1281C109.196 16.1281 108.067 17.2694 106.908 18.3592ZM62.9256 43.4726C60.638 44.716 58.2974 45.8452 55.951 46.9748C51.9231 48.9157 47.908 50.8802 43.9022 52.8654C43.481 53.0741 43.0597 53.2826 42.6383 53.491C39.7701 54.9097 36.9085 56.3379 34.0791 57.8314C33.2226 58.2824 32.3564 58.712 31.4875 59.1388C31.6058 60.4328 31.8938 61.5311 32.3537 62.7443C32.4192 62.9215 32.4848 63.0987 32.5523 63.2813C32.765 63.8546 32.9805 64.4268 33.1961 64.999C33.3434 65.3938 33.4906 65.7886 33.6378 66.1834C34.8296 69.3722 36.066 72.5428 37.3457 75.6979C40.6084 75.3992 44.7483 74.0139 47.1094 71.6119C47.8345 70.6567 47.9862 69.6382 48.2214 68.4936C48.9949 65.0408 50.3443 61.7383 52.5337 58.9238C52.6965 58.7079 52.6965 58.7079 52.8626 58.4878C54.3866 56.5913 56.3317 55.3982 58.7174 54.8915C63.6122 54.545 67.5216 55.7797 71.2475 58.9103C72.3396 59.8492 73.3231 60.8172 74.2309 61.9345C74.465 62.2031 74.465 62.2031 74.7038 62.4772C79.6281 68.1688 83.5521 74.7774 87.5135 81.1406C88.3328 82.4536 89.169 83.7543 90.019 85.0479C90.8404 86.2984 91.6495 87.5565 92.4565 88.8162C92.8428 89.4183 93.2293 90.0202 93.6159 90.6221C93.8421 90.9744 94.0682 91.3268 94.294 91.6793C96.6454 95.3459 99.1051 98.9164 101.934 102.24C102.17 102.52 102.399 102.805 102.627 103.091C106.31 107.609 111.991 109.639 117.627 110.264C119.688 110.447 121.761 110.404 123.828 110.392C124.348 110.392 124.869 110.391 125.39 110.391C126.473 110.39 127.555 110.387 128.638 110.382C130.017 110.376 131.397 110.374 132.776 110.373C134.106 110.372 135.435 110.368 136.764 110.365C137.013 110.365 137.262 110.364 137.518 110.364C140.153 110.359 142.771 110.335 145.398 110.107C145.466 103.732 140.955 98.0263 136.676 93.67C135.317 92.3101 133.895 91.0781 132.379 89.8915C131.916 89.5134 131.456 89.1313 130.996 88.749C130.59 88.4121 130.183 88.0761 129.776 87.741C129.585 87.5738 129.394 87.4066 129.198 87.2344C128.947 87.0593 128.947 87.0593 128.691 86.8807C128.476 86.9517 128.261 87.0227 128.04 87.0958C128.422 87.9935 129.041 88.6973 129.654 89.4479C130.335 90.2852 130.979 91.0998 131.511 92.042C130.456 91.9258 129.875 91.1404 129.245 90.366C128.903 89.9237 128.566 89.4781 128.23 89.0313C126.435 86.6778 124.523 84.4608 122.501 82.2974C122.074 81.8375 121.657 81.3733 121.246 80.8996C120.138 79.6347 118.97 78.424 117.814 77.2026C112.264 71.3338 112.264 71.3338 110.98 69.8512C110.231 68.9908 109.415 68.2025 108.6 67.4041C108.157 66.9598 107.741 66.5087 107.333 66.034C106.711 65.3132 106.047 64.643 105.366 63.9775C104.563 63.1905 103.794 62.3875 103.058 61.5372C101.65 59.9252 100.179 58.3771 98.6368 56.8908C98.2079 56.455 97.8083 56.0144 97.409 55.5529C96.6127 54.648 95.7718 53.7986 94.9101 52.9552C94.6796 52.7279 94.6796 52.7279 94.4444 52.496C93.9586 52.0171 93.4721 51.5389 92.9854 51.0609C92.3426 50.4295 91.7005 49.7974 91.0589 49.1648C90.9138 49.0228 90.7686 48.8807 90.6191 48.7343C89.8357 47.9619 89.0926 47.1726 88.3847 46.3313C87.7931 45.6444 87.0765 45.0948 86.3813 44.5152C86.1889 44.346 85.9964 44.1769 85.7982 44.0027C82.2446 40.9395 78.43 39.3435 73.6703 39.5313C69.7826 39.8101 66.2686 41.6353 62.9256 43.4726ZM174.472 45.8055C174.253 46.1631 174.037 46.5217 173.821 46.8807C170.582 49.8665 166.133 51.8696 161.67 51.827C159.93 51.7153 158.471 51.2128 157.114 50.1066C156.539 49.4085 156.142 48.6606 155.8 47.8278C155.405 47.2251 155.405 47.2251 154.587 47.1888C154.26 47.189 153.933 47.195 153.606 47.2058C153.434 47.2074 153.261 47.2089 153.083 47.2105C152.533 47.2165 151.983 47.23 151.432 47.2436C151.059 47.249 150.685 47.2539 150.312 47.2583C149.397 47.2702 148.482 47.2888 147.567 47.3109C148.341 51.5184 149.381 55.6371 150.474 59.7715C150.821 61.0864 151.165 62.402 151.51 63.7176C151.634 64.1903 151.759 64.6629 151.883 65.1355C152.239 66.4884 152.587 67.8417 152.898 69.2056C152.947 69.4197 152.996 69.6339 153.047 69.8545C153.134 70.2401 153.218 70.6263 153.299 71.0131C153.393 71.4328 153.515 71.8463 153.642 72.2571C154.259 72.5406 154.259 72.5406 154.701 72.2965C154.928 72.1564 154.928 72.1564 155.16 72.0135C155.329 71.9115 155.498 71.8094 155.673 71.7043C155.853 71.594 156.033 71.4837 156.219 71.37C157.856 70.4013 159.408 69.5906 161.236 69.0313C161.442 68.9634 161.648 68.8954 161.86 68.8255C166.767 67.4388 171.415 68.7402 175.975 70.5559C176.189 70.6397 176.404 70.7234 176.625 70.8097C176.912 70.9248 176.912 70.9248 177.205 71.0422C177.926 71.2355 177.926 71.2355 178.594 70.9668C178.889 70.3219 178.889 70.3219 179.083 69.5177C179.124 69.372 179.164 69.2264 179.206 69.0764C179.336 68.6097 179.46 68.1419 179.584 67.6738C179.709 67.2081 179.836 66.7428 179.964 66.278C180.081 65.8548 180.194 65.4306 180.308 65.0063C180.528 64.3557 180.745 63.9501 181.198 63.4399C180.726 65.7269 180.229 67.9971 179.621 70.2527C179.48 70.8859 179.449 71.3997 179.462 72.042C181.258 72.8588 183.066 73.6459 184.886 74.4076C185.094 74.4955 185.302 74.5834 185.516 74.674C186.671 75.1492 187.762 75.5584 189.009 75.6979C189.903 75.3156 190.355 74.7118 190.962 73.9775C194.21 71.4935 198.462 71.1378 202.407 71.0474C202.709 71.0392 203.01 71.0308 203.312 71.0222C204.041 71.0021 204.77 70.9837 205.499 70.9668C203.439 66.6784 200.949 62.9003 197.697 59.4034C197.288 58.9612 196.898 58.5085 196.508 58.0501C191.62 52.5356 182.654 46.576 175.177 45.7114C174.828 45.758 174.828 45.758 174.472 45.8055ZM2.63026 46.8807C2.63026 47.8668 2.94802 48.4386 3.40237 49.2808C4.27902 50.9614 5.0049 52.6763 5.70167 54.4362C9.57555 64.1958 14.2234 73.483 20.205 82.1496C23.4854 81.1498 26.9058 78.7741 29.1008 76.1281C29.1724 75.9152 29.244 75.7022 29.3178 75.4829C29.1737 75.4022 29.0297 75.3216 28.8813 75.2384C26.1352 73.661 24.7683 71.6193 23.8935 68.6012C23.771 67.5233 23.7703 66.4591 23.785 65.3754C23.9018 63.6079 23.9018 63.6079 23.4434 61.952C23.1314 61.6224 23.1314 61.6224 22.5916 61.2893C22.4484 61.1563 22.3052 61.0232 22.1577 60.8861C21.726 60.5992 21.726 60.5992 21.1678 60.6442C20.4504 60.9359 20.3001 61.2385 19.988 61.9345C19.8331 62.6214 19.8331 62.6214 19.771 63.2248C19.4488 63.1184 19.4488 63.1184 19.1201 63.0098C19.228 61.9403 19.4571 61.1521 19.988 60.2141C19.6817 60.002 19.374 59.7917 19.0659 59.5824C18.8091 59.4065 18.8091 59.4065 18.5472 59.227C18.0729 58.9461 17.7064 58.8055 17.1674 58.7087C17.0216 58.9859 16.8772 59.2638 16.7334 59.542C16.6529 59.6967 16.5723 59.8514 16.4893 60.0108C16.2698 60.4181 16.2698 60.4181 16.2995 60.8592C16.0131 60.8592 15.7267 60.8592 15.4316 60.8592C15.4811 60.6829 15.5306 60.5066 15.5816 60.325C15.644 60.0932 15.7063 59.8615 15.7706 59.6227C15.8335 59.3931 15.8965 59.1636 15.9613 58.9271C16.1171 58.1414 16.1171 58.1414 15.8655 57.4184C15.4763 57.032 15.0907 56.6815 14.6722 56.3297C13.6041 55.396 12.6886 54.4208 11.8049 53.3097C11.0532 52.3659 10.2651 51.4537 9.47757 50.5392C9.15078 50.1579 8.82682 49.7742 8.50968 49.3849C7.46951 48.1308 6.19036 46.8952 4.56181 46.5044C3.81578 46.4407 3.3187 46.6046 2.63026 46.8807ZM1.5454 48.6012C1.52109 49.0041 1.50476 49.4075 1.49116 49.8109C1.48109 50.0354 1.47102 50.2599 1.46065 50.4913C1.57764 53.0212 2.81104 55.4209 3.87784 57.6738C4.02187 57.9822 4.16566 58.2908 4.30924 58.5995C4.60925 59.2438 4.91035 59.8876 5.2123 60.5311C5.87762 61.9503 6.53205 63.3745 7.18736 64.7983C7.40417 65.269 7.6214 65.7395 7.83879 66.2099C8.56289 67.777 9.28372 69.3456 9.99797 70.9172C12.4691 77.6331 12.4691 77.6331 16.7334 83.0098C17.6812 83.3299 18.393 83.3217 19.3371 83.0098C19.2304 81.9943 18.7508 81.3516 18.1437 80.5635C16.9818 79.0013 15.971 77.3807 14.9976 75.6979C14.9138 75.554 14.83 75.41 14.7437 75.2616C10.9243 68.6713 7.75222 61.6865 5.17157 54.531C3.96534 51.1428 3.96534 51.1428 1.5454 48.6012ZM54.3644 58.0635C49.8242 62.9017 48.1477 70.2068 46.3897 76.369C46.0468 77.5668 45.6839 78.7581 45.3169 79.9488C44.5732 82.3657 43.8723 84.7883 43.2182 87.2303C42.3914 90.3107 41.5245 93.378 40.6215 96.4372C40.5678 96.6191 40.5141 96.801 40.4588 96.9885C40.0777 98.279 39.695 99.5692 39.312 100.859C38.923 102.17 38.5346 103.48 38.1475 104.791C37.9959 105.304 37.8433 105.816 37.6907 106.328C36.6158 109.667 36.6158 109.667 36.2608 113.117C38.5318 113.726 40.8087 114.304 43.0929 114.861C43.4229 114.942 43.7528 115.023 44.0828 115.103C44.7663 115.271 45.4498 115.438 46.1334 115.604C47.0103 115.818 47.8869 116.033 48.7635 116.248C49.4411 116.414 50.1188 116.58 50.7966 116.745C51.1203 116.824 51.4439 116.903 51.7675 116.983C52.2164 117.093 52.6654 117.202 53.1145 117.311C53.3697 117.374 53.6249 117.436 53.8878 117.5C54.4548 117.649 54.4548 117.649 54.9204 117.633C56.1172 114.707 57.2608 111.765 58.3648 108.803C58.5185 108.392 58.6722 107.98 58.8259 107.569C59.0541 106.958 59.2822 106.348 59.5101 105.737C59.9079 104.671 60.3082 103.606 60.7125 102.543C61.9487 99.2836 63.102 95.9984 64.2465 92.7068C65.1548 90.0953 66.0947 87.5036 67.1115 84.9318C69.2358 79.5249 70.2967 74.2333 68.3726 68.6012C68.659 68.6721 68.9454 68.7431 69.2405 68.8162C69.8281 70.682 69.9943 72.4574 69.9763 74.4018C69.9728 74.8515 69.9763 75.3008 69.9804 75.7505C69.983 77.4801 69.7937 79.0023 69.2405 80.6442C69.0368 81.296 69.0001 81.6551 69.0236 82.3646C69.5611 83.2186 70.2515 83.8661 71.0565 84.4721C71.6367 84.9531 72.0618 85.4425 72.5253 86.0334C73.5777 87.3327 74.7271 88.5107 75.9175 89.6848C76.1377 89.9034 76.3578 90.122 76.5779 90.3406C77.0356 90.7949 77.494 91.2484 77.9531 91.7014C78.5349 92.2756 79.1147 92.8517 79.6939 93.4284C80.147 93.879 80.6011 94.3286 81.0556 94.7779C81.2695 94.9897 81.4831 95.2018 81.6964 95.4142C82.9503 96.6616 84.2351 97.8264 85.6271 98.9214C86.1661 99.3553 86.6745 99.811 87.1814 100.281C93.3026 105.776 100.986 110.004 109.349 110.357C110.053 110.396 110.053 110.396 110.465 109.891C110.345 109.822 110.225 109.753 110.101 109.682C104.591 106.495 104.591 106.495 102.522 103.874C102.064 103.301 101.592 102.752 101.105 102.204C97.0429 97.6164 93.7867 92.454 90.5037 87.3109C88.8195 84.6751 87.1222 82.049 85.3973 79.4392C84.5536 78.1605 83.7265 76.8728 82.9097 75.577C80.0732 71.0954 77.0417 66.6155 73.58 62.5797C73.311 62.2661 73.311 62.2661 73.0367 61.9463C69.936 58.4173 65.9635 56.0881 61.199 55.7383C58.4591 55.5941 56.4208 56.2085 54.3644 58.0635ZM121.965 61.5044C121.48 62.4655 121.698 63.4956 122.005 64.4748C122.441 65.2342 122.675 65.4778 123.483 65.8055C124.707 66.1199 125.422 65.9918 126.521 65.3754C127.187 64.7664 127.369 64.4551 127.484 63.5608C127.34 62.3981 126.964 61.7558 126.182 60.8861C125.432 60.315 124.715 60.2773 123.789 60.3216C122.935 60.4973 122.553 60.8759 121.965 61.5044ZM27.8939 62.6334C27.6887 62.7185 27.4836 62.8036 27.2722 62.8913C27.0743 62.9759 26.8764 63.0604 26.6726 63.1475C26.4931 63.2241 26.3137 63.3007 26.1288 63.3796C25.4566 63.7501 24.895 64.1847 24.6037 64.9049C24.2406 67.7838 24.6812 70.0125 26.47 72.3512C27.6584 73.7687 27.6584 73.7687 29.314 74.4754C30.6673 74.4982 31.6803 74.1646 32.8978 73.6012C33.0734 73.5263 33.2491 73.4515 33.43 73.3744C34.3429 73.0319 34.3429 73.0319 34.8922 72.3052C34.9757 71.7078 34.855 71.3664 34.6451 70.8015C34.5712 70.5992 34.4973 70.3969 34.4212 70.1885C34.3394 69.9718 34.2576 69.7552 34.1733 69.532C34.0912 69.3088 34.009 69.0857 33.9243 68.8558C33.6612 68.1429 33.3948 67.4312 33.1283 66.7195C32.9494 66.2365 32.7707 65.7535 32.5923 65.2704C32.1541 64.0858 31.7133 62.9023 31.2705 61.7195C29.9826 61.6935 29.0625 62.1276 27.8939 62.6334ZM155.161 73.1173C154.946 73.2592 154.732 73.4012 154.51 73.5474C154.582 74.1152 154.654 74.6829 154.727 75.2678C154.922 75.1581 154.922 75.1581 155.12 75.0461C158.713 73.0563 162.475 71.1643 166.661 70.9668C166.661 71.1797 166.661 71.3926 166.661 71.6119C166.245 71.6252 166.245 71.6252 165.82 71.6388C162.78 71.9499 159.924 73.3043 157.331 74.8377C157.105 74.9694 156.88 75.1011 156.647 75.2368C155.847 75.723 155.847 75.723 155.161 76.3431C155.092 77.0174 155.071 77.4538 155.378 78.0635C157.2 77.9941 158.661 76.9666 160.219 76.1117C162.482 74.9011 164.782 74.1926 167.312 73.7625C167.312 73.9754 167.312 74.1883 167.312 74.4076C167.101 74.4342 166.891 74.4608 166.674 74.4883C164.505 74.8027 162.754 75.4466 160.848 76.5074C160.316 76.8026 159.779 77.0879 159.241 77.3739C158.862 77.5808 158.483 77.7883 158.104 77.9963C157.923 78.0934 157.741 78.1904 157.554 78.2904C156.561 78.8163 156.561 78.8163 156.022 79.7478C156.024 79.9017 156.027 80.0556 156.029 80.2141C158.765 80.3845 160.663 79.5824 163.053 78.3366C164.654 77.5703 166.183 77.7577 167.828 78.2811C168.416 78.5009 168.971 78.759 169.536 79.0313C171.449 79.9206 173.519 80.2705 175.623 80.3208C177.153 80.6043 178.307 81.5155 179.435 82.5259C179.701 82.7577 179.967 82.9893 180.233 83.2206C180.361 83.3325 180.489 83.4443 180.621 83.5595C181.44 84.2664 182.297 84.926 183.151 85.5904C183.379 85.7704 183.608 85.9505 183.837 86.1306C184.617 86.7435 185.402 87.3512 186.188 87.956C186.325 88.0615 186.463 88.167 186.604 88.2757C189.837 90.7501 193.22 92.925 196.82 94.8377C196.954 94.9099 197.089 94.982 197.228 95.0564C197.619 95.2645 198.012 95.4686 198.406 95.6711C198.629 95.7858 198.852 95.9006 199.082 96.0188C201.69 97.1093 205.345 97.7779 208.075 96.7186C209.751 95.8057 211.289 94.412 211.994 92.62C213.596 87.1094 211.235 81.8093 208.956 76.8519C208.822 76.5598 208.689 76.2672 208.557 75.9741C208.368 75.557 208.175 75.1422 207.98 74.7277C207.812 74.3636 207.812 74.3636 207.64 73.9921C207.061 73.0507 206.37 72.4702 205.362 71.979C204.256 71.749 203.169 71.754 202.041 71.7598C201.677 71.7614 201.677 71.7614 201.306 71.763C197.574 71.8152 193.563 72.6449 190.745 75.2678C190.598 75.9296 190.598 75.9296 190.528 76.5582C192.952 77.4706 195.389 78.3432 197.837 79.1926C198.329 79.3634 198.82 79.5343 199.312 79.7055C199.614 79.8106 199.916 79.9154 200.218 80.02C200.604 80.1547 200.99 80.2918 201.376 80.4291C201.579 80.4939 201.782 80.5587 201.991 80.6255C202.554 80.9056 202.682 81.1429 202.895 81.7195C194.11 78.8352 185.477 75.6259 177.03 71.874C174.623 70.8108 172.26 69.8737 169.698 69.2463C169.531 69.2036 169.363 69.161 169.19 69.117C163.945 68.3372 159.315 70.0151 155.161 73.1173ZM44.1278 74.0682C43.8783 74.1825 43.6288 74.2967 43.3718 74.4143C42.852 74.6563 42.333 74.8999 41.814 75.1435C40.1315 75.9126 38.5172 76.4373 36.6948 76.7732C36.5516 76.2055 36.4084 75.6377 36.2608 75.0528C35.9744 75.0528 35.688 75.0528 35.393 75.0528C33.9839 89.0304 33.984 89.0304 32.6125 103.012C32.568 103.472 32.5233 103.933 32.4782 104.393C32.4177 105.013 32.3584 105.633 32.2994 106.252C32.2826 106.423 32.2657 106.593 32.2484 106.769C32.1443 107.885 32.1251 108.985 32.1384 110.107C32.5903 110.149 33.0423 110.189 33.4945 110.228C33.7462 110.25 33.9979 110.272 34.2573 110.296C34.8768 110.319 35.2587 110.327 35.8269 110.107C36.0489 109.759 36.0489 109.759 36.16 109.306C36.2134 109.128 36.2668 108.95 36.3218 108.766C36.4058 108.465 36.4058 108.465 36.4914 108.158C36.5539 107.944 36.6164 107.731 36.6809 107.511C36.9079 106.729 37.1278 105.945 37.3457 105.16C37.3899 105.001 37.4341 104.842 37.4796 104.679C37.9347 103.04 38.3877 101.401 38.8382 99.7614C39.3958 97.7368 39.975 95.7234 40.6138 93.7221C41.3618 91.3764 42.0108 89.0099 42.6471 86.6326C43.1724 84.672 43.7163 82.7194 44.3066 80.7769C44.3619 80.5947 44.4172 80.4125 44.4742 80.2248C44.7419 79.346 45.0124 78.4681 45.2862 77.5912C45.3837 77.274 45.4813 76.9568 45.5788 76.6396C45.6241 76.4975 45.6694 76.3554 45.7161 76.209C45.9722 75.3701 46.0692 74.6377 46.0246 73.7625C45.1683 73.4796 44.9327 73.6905 44.1278 74.0682ZM161.887 80.2141C164.465 80.2141 167.043 80.2141 169.698 80.2141C168.529 79.0553 167.3 78.6128 165.671 78.3861C164.106 78.6117 163.006 79.105 161.887 80.2141ZM170.349 80.6442C170.278 81.3539 170.206 82.0635 170.132 82.7947C161.491 83.0467 152.848 83.0751 144.204 83.121C142.175 83.1318 140.147 83.1436 138.119 83.1554C133.964 83.1795 129.808 83.2026 125.653 83.2248C125.653 83.4377 125.653 83.6506 125.653 83.87C125.969 84.1826 125.969 84.1826 126.401 84.4614C126.642 84.6293 126.642 84.6293 126.888 84.8006C127.149 84.9786 127.149 84.9786 127.416 85.1603C127.776 85.4118 128.136 85.6639 128.496 85.9164C128.676 86.0424 128.856 86.1684 129.041 86.2982C130.878 87.6023 132.625 89.0127 134.285 90.5308C134.712 90.9179 135.149 91.2852 135.593 91.6522C140.856 96.2273 144.578 102.458 146.285 109.16C146.406 109.851 146.406 109.851 146.699 110.107C152.943 110.88 160.024 106.304 164.728 102.712C165.31 102.248 165.879 101.774 166.444 101.289C166.613 101.145 166.783 101.001 166.957 100.853C169.532 98.61 171.93 96.225 173.972 93.4938C174.255 93.1164 174.544 92.7433 174.833 92.3705C176.034 90.8048 177.123 89.1805 178.174 87.5125C178.295 87.3205 178.417 87.1285 178.542 86.9307C179.118 86.003 179.612 85.1482 179.896 84.085C178.08 82.3268 176.266 80.9073 173.655 80.7912C173.462 80.7822 173.269 80.7732 173.07 80.7639C172.87 80.7554 172.671 80.747 172.465 80.7383C172.262 80.729 172.059 80.7197 171.849 80.7101C171.349 80.6874 170.849 80.6657 170.349 80.6442ZM68.3726 83.6549C68.3274 83.781 68.2822 83.907 68.2356 84.0369C67.6447 85.684 67.0528 87.3308 66.4606 88.9775C66.4125 89.1113 66.3644 89.2451 66.3148 89.3829C64.64 94.0398 62.9399 98.6869 61.214 103.325C61.0505 103.766 60.887 104.207 60.7235 104.648C60.6505 104.843 60.5775 105.038 60.5022 105.24C59.5834 107.614 59.5834 107.614 59.2598 110.107C73.222 110.107 87.1841 110.107 101.569 110.107C101.206 109.387 100.378 109.235 99.6572 108.937C93.7924 106.43 88.609 102.829 83.9039 98.5659C83.6031 98.2962 83.3011 98.0277 82.9919 97.7676C81.6442 96.6286 80.3994 95.3929 79.1502 94.1502C78.7745 93.7767 78.3976 93.4043 78.0207 93.032C76.7834 91.8065 75.5766 90.5722 74.4478 89.2463C73.2784 87.9278 72.0727 86.6639 70.8085 85.4342C70.4055 85.0263 70.0508 84.618 69.7016 84.1657C69.5494 83.9971 69.3973 83.8286 69.2405 83.6549C68.9541 83.6549 68.6677 83.6549 68.3726 83.6549ZM180.547 85.1603C180.475 85.278 180.403 85.3956 180.329 85.5169C177.34 90.3998 174.094 94.9733 170.132 99.1388C169.969 99.3118 169.806 99.4848 169.638 99.663C168.187 101.155 166.6 102.423 164.925 103.655C164.808 103.741 164.691 103.827 164.57 103.916C161.708 105.998 158.65 107.572 155.399 108.972C155.203 109.058 155.006 109.144 154.803 109.232C154.626 109.308 154.449 109.383 154.267 109.461C153.823 109.646 153.823 109.646 153.642 110.107C154.985 110.3 156.293 110.358 157.648 110.366C157.87 110.368 158.091 110.37 158.319 110.372C159.049 110.379 159.78 110.384 160.511 110.39C161.028 110.394 161.544 110.399 162.061 110.403C163.148 110.413 164.235 110.421 165.322 110.43C166.688 110.44 168.054 110.452 169.42 110.464C175.66 110.518 181.9 110.552 188.141 110.537C188.141 110.75 188.141 110.962 188.141 111.182C131.004 111.288 131.004 111.288 72.7121 111.397C72.1584 112.677 71.9791 113.127 71.9823 114.415C71.9825 114.696 71.9826 114.976 71.9828 115.265C71.9846 115.409 71.9864 115.553 71.9882 115.701C71.9934 116.141 71.9927 116.581 71.9912 117.021C71.9165 119.22 71.9165 119.22 72.929 121.074C73.5557 121.116 74.1616 121.131 74.7885 121.127C74.9843 121.128 75.18 121.128 75.3817 121.129C76.045 121.13 76.7083 121.128 77.3716 121.126C77.849 121.126 78.3264 121.127 78.8038 121.127C80.1213 121.128 81.4389 121.126 82.7565 121.124C84.0296 121.123 85.3028 121.123 86.5759 121.123C89.1813 121.124 91.7867 121.122 94.3921 121.12C96.9727 121.117 99.5534 121.116 102.134 121.115C102.294 121.115 102.455 121.115 102.62 121.115C103.434 121.115 104.248 121.115 105.062 121.115C110.832 121.114 116.601 121.111 122.371 121.107C127.977 121.103 133.583 121.1 139.189 121.098C139.362 121.098 139.535 121.098 139.713 121.098C141.447 121.097 143.182 121.097 144.916 121.096C148.45 121.095 151.984 121.094 155.517 121.093C155.68 121.092 155.842 121.092 156.01 121.092C166.865 121.088 177.72 121.082 188.575 121.074C188.904 120.124 189.132 119.215 189.3 118.222C189.326 118.072 189.351 117.921 189.378 117.765C189.434 117.438 189.489 117.112 189.544 116.785C189.632 116.262 189.721 115.739 189.81 115.217C190.001 114.1 190.19 112.984 190.378 111.867C190.625 110.41 190.873 108.952 191.122 107.495C191.152 107.318 191.182 107.141 191.213 106.959C191.628 104.535 192.071 102.119 192.577 99.7115C192.917 98.0972 193.198 96.4817 193.348 94.8377C193.382 94.6526 193.416 94.4674 193.451 94.2766C193.393 93.6884 193.393 93.6884 192.726 93.2853C192.438 93.1184 192.148 92.9552 191.857 92.7947C191.535 92.6069 191.215 92.4178 190.895 92.2277C190.727 92.1281 190.559 92.0284 190.386 91.9258C189.543 91.4061 188.74 90.8339 187.938 90.2544C187.776 90.1381 187.615 90.0218 187.448 89.902C186.612 89.2948 185.785 88.6765 184.965 88.0467C184.802 87.9212 184.638 87.7958 184.47 87.6665C184.161 87.4285 183.854 87.1892 183.548 86.9481C182.594 86.2092 181.646 85.666 180.547 85.1603ZM22.6311 111.783C22.2426 112.501 22.2818 113.217 22.2882 114.012C22.2876 114.181 22.287 114.35 22.2863 114.524C22.2859 114.881 22.2871 115.238 22.2898 115.594C22.2933 116.14 22.2898 116.686 22.2857 117.232C22.2861 117.579 22.2869 117.926 22.2882 118.273C22.2869 118.436 22.2856 118.599 22.2842 118.768C22.2913 119.644 22.2913 119.644 22.6648 120.416C23.3183 120.829 23.8837 120.887 24.6368 120.888C24.9376 120.888 24.9376 120.888 25.2445 120.889C25.5759 120.888 25.5759 120.888 25.914 120.886C26.2599 120.885 26.2599 120.885 26.6128 120.885C30.1913 120.867 33.769 120.749 37.3457 120.644C37.5599 120.097 37.7724 119.55 37.9839 119.002C38.0443 118.848 38.1047 118.695 38.1669 118.536C38.6861 117.185 39.1239 115.824 38.6475 114.408C38.0589 114.218 37.5 114.068 36.8982 113.937C36.7336 113.899 36.569 113.861 36.3994 113.822C35.9922 113.728 35.5842 113.637 35.176 113.547C35.176 112.838 35.176 112.128 35.176 111.397C33.603 111.377 32.0301 111.362 30.4571 111.352C29.7266 111.348 28.9963 111.342 28.2659 111.332C27.4263 111.322 26.5867 111.317 25.7471 111.313C25.4846 111.308 25.2222 111.304 24.9519 111.299C24.7086 111.299 24.4654 111.299 24.2148 111.299C24.0004 111.297 23.786 111.295 23.5651 111.293C23 111.35 23 111.35 22.6311 111.783ZM58.0296 111.967C57.9344 112.204 57.8392 112.442 57.741 112.687C57.6428 112.903 57.5446 113.118 57.4433 113.34C57.357 113.565 57.2706 113.79 57.1817 114.021C57.0866 114.267 56.9915 114.514 56.8935 114.767C56.7973 115.021 56.7011 115.275 56.6019 115.537C56.5024 115.794 56.4028 116.051 56.3002 116.316C55.7881 117.481 55.7881 117.481 55.5713 118.709C55.3318 118.658 55.3318 118.658 55.0874 118.607C54.8756 118.565 54.6639 118.523 54.4458 118.48C54.2369 118.438 54.0279 118.395 53.8127 118.352C53.1768 118.278 52.7153 118.334 52.0998 118.494C51.9901 118.802 51.8819 119.112 51.7743 119.421C51.7139 119.593 51.6535 119.765 51.5912 119.943C51.4186 120.448 51.4186 120.448 51.4489 121.074C54.0195 121.079 56.5901 121.083 59.1607 121.085C60.3542 121.087 61.5477 121.088 62.7412 121.091C63.892 121.093 65.0427 121.094 66.1935 121.095C66.6336 121.095 67.0737 121.096 67.5137 121.097C68.1279 121.099 68.742 121.099 69.3562 121.099C69.54 121.099 69.7239 121.1 69.9133 121.101C70.7279 121.178 70.7279 121.178 71.4102 120.859C71.4304 120.562 71.4357 120.264 71.4349 119.966C71.4349 119.777 71.4348 119.587 71.4348 119.392C71.4337 119.186 71.4326 118.98 71.4314 118.768C71.4311 118.559 71.4308 118.349 71.4305 118.133C71.4293 117.46 71.4266 116.787 71.4238 116.115C71.4227 115.66 71.4217 115.205 71.4208 114.75C71.4184 113.632 71.4148 112.515 71.4102 111.397C69.7562 111.367 68.1022 111.344 66.448 111.33C65.6798 111.323 64.9118 111.314 64.1437 111.3C63.2604 111.283 62.3774 111.277 61.494 111.271C61.2184 111.264 60.9429 111.258 60.659 111.251C59.1911 111.201 59.1911 111.201 58.0296 111.967ZM40.1663 115.053C39.683 116.326 39.2175 117.58 38.9188 118.91C38.8662 119.138 38.8136 119.367 38.7594 119.602C38.6218 120.251 38.6218 120.251 38.6475 121.074C39.1331 121.459 39.1331 121.459 39.7595 121.787C40.7164 122.351 41.3862 122.868 42.0292 123.767C43.017 124.792 44.6977 124.688 46.0246 124.73C47.3801 124.719 48.4966 124.646 49.4961 123.655C49.8813 122.891 50.1275 122.109 50.364 121.289C50.4317 121.061 50.4994 120.834 50.5691 120.599C50.8732 119.499 51.0533 118.754 50.7979 117.633C47.2751 116.661 43.7493 115.78 40.1663 115.053ZM34.3081 123.87C34.4415 123.966 34.5749 124.062 34.7124 124.161C36.4502 125.45 36.4502 125.45 36.9118 126.451C37.0192 126.664 37.0192 126.664 37.1287 126.881C36.1022 126.595 35.4588 125.979 34.692 125.28C34.2012 124.852 33.9288 124.739 33.2775 124.636C32.3906 124.754 32.1055 125.069 31.5095 125.696C31.2278 126.011 31.2278 126.011 31.2705 126.451C32.0581 126.876 32.8457 127.302 33.6572 127.741C33.6572 127.954 33.6572 128.167 33.6572 128.386C32.933 128.302 32.5566 128.16 31.9485 127.741C31.1539 127.237 30.6949 127.096 29.7517 127.096C29.1364 127.326 28.578 127.619 28.0159 127.956C28.0159 128.24 28.0159 128.524 28.0159 128.816C28.1337 128.866 28.2514 128.915 28.3727 128.967C29.3581 129.412 29.9433 129.727 30.4026 130.752C28.7602 130.172 28.7602 130.172 28.1515 129.744C27.1658 129.255 25.998 129.297 24.9434 129.593C24.4803 129.779 24.0317 129.985 23.5816 130.201C21.5899 131.1 19.5516 131.774 17.4581 132.403C16.0536 132.843 14.7102 133.3 13.6958 134.408C13.545 134.764 13.3996 135.122 13.2619 135.483C17.3513 135.488 21.4407 135.492 25.5301 135.494C27.4296 135.495 29.329 135.497 31.2284 135.499C32.8869 135.501 34.5453 135.503 36.2037 135.503C37.0792 135.503 37.9547 135.504 38.8302 135.506C42.8978 135.513 46.951 135.466 51.0149 135.268C51.8999 132.032 51.0241 128.019 49.9301 124.945C49.5206 125.052 49.5206 125.052 49.1029 125.16C47.1338 125.542 44.383 125.905 42.5395 124.959C41.6373 124.337 40.8352 123.571 40.0485 122.813C39.3405 122.217 38.6178 121.793 37.6983 121.625C36.1657 121.879 35.2016 122.652 34.3081 123.87ZM50.7979 124.085C50.8231 124.213 50.8483 124.341 50.8742 124.472C50.9895 125.06 51.1039 125.648 51.2183 126.236C51.2579 126.437 51.2975 126.638 51.3383 126.845C51.7766 129.104 51.9167 131.218 51.9099 133.521C51.9108 133.802 51.9116 134.084 51.9125 134.375C51.9122 134.651 51.9119 134.928 51.9116 135.212C51.9114 135.46 51.9111 135.709 51.9109 135.964C51.8765 136.953 51.7652 137.939 51.6658 138.924C56.3915 138.924 61.1171 138.924 65.986 138.924C66.4133 137.653 66.7415 136.613 66.9623 135.327C67.0017 135.1 67.0017 135.1 67.0419 134.869C67.1256 134.384 67.2068 133.898 67.2878 133.413C67.3447 133.077 67.4017 132.742 67.4586 132.406C67.7875 130.452 68.0952 128.495 68.3591 126.531C68.3869 126.327 68.4147 126.122 68.4434 125.911C68.5023 125.447 68.5477 124.981 68.5896 124.515C68.1319 124.061 67.1236 124.244 66.4902 124.232C66.197 124.225 66.197 124.225 65.8978 124.218C65.2537 124.204 64.6096 124.192 63.9654 124.179C63.6383 124.172 63.6383 124.172 63.3047 124.165C59.1355 124.078 54.9678 124.06 50.7979 124.085ZM75.9666 124.3C74.7769 129.298 74.7769 129.298 73.6844 134.315C73.5892 134.778 73.492 135.241 73.3948 135.704C73.3324 136.005 73.2701 136.306 73.2079 136.607C73.1539 136.868 73.1 137.128 73.0444 137.397C72.9046 138.092 72.9046 138.092 72.929 138.924C105.293 138.924 137.656 138.924 171 138.924C173.138 131.514 173.138 131.514 172.953 124.3C140.947 124.3 108.942 124.3 75.9666 124.3ZM35.1741 136.474C32.8907 136.578 30.6071 136.628 28.3219 136.673C27.8766 136.683 27.4314 136.692 26.9861 136.701C25.833 136.725 24.6798 136.749 23.5267 136.772C22.3424 136.796 21.1582 136.821 19.974 136.846C17.6643 136.894 15.3546 136.941 13.0449 136.988C13.2014 137.693 13.3396 138.031 13.9128 138.494C15.1508 139.255 16.6101 139.169 18.0165 139.162C18.208 139.162 18.3996 139.162 18.5969 139.162C19.2343 139.161 19.8718 139.159 20.5092 139.156C20.9637 139.155 21.4183 139.155 21.8728 139.154C23.0914 139.151 24.3099 139.147 25.5285 139.142C26.2738 139.139 27.019 139.136 27.7643 139.134C30.5246 139.124 33.2849 139.109 36.0453 139.088C37.3351 139.078 38.625 139.07 39.9149 139.064C41.1942 139.059 42.4735 139.05 43.7528 139.039C44.2331 139.036 44.7135 139.033 45.1939 139.032C45.8566 139.03 46.5192 139.024 47.1819 139.017C47.4735 139.017 47.4735 139.017 47.7709 139.018C48.8642 139.001 49.6386 138.89 50.581 138.279C50.9889 137.562 51.0149 137.182 51.0149 136.343C49.432 136.338 47.8491 136.334 46.2662 136.332C45.5306 136.331 44.795 136.329 44.0594 136.327C43.2067 136.324 42.3539 136.323 41.5012 136.322C41.247 136.321 40.9927 136.32 40.7307 136.319C38.8749 136.319 37.0277 136.389 35.1741 136.474Z" fill="black"/>
<path d="M165.795 19.9193C165.969 19.9137 166.143 19.9081 166.322 19.9024C167.511 19.8987 168.125 20.1127 169.05 20.8602C169.267 21.0752 169.267 21.0752 169.294 21.7204C169.267 22.3655 169.267 22.3655 169.05 22.5806C168.759 22.6027 168.467 22.6104 168.175 22.6118C167.99 22.6132 167.805 22.6146 167.614 22.616C167.412 22.6162 167.211 22.6165 167.003 22.6167C166.797 22.6174 166.591 22.6181 166.379 22.6189C165.943 22.62 165.507 22.6205 165.071 22.6204C164.402 22.6209 163.733 22.6248 163.064 22.6289C162.641 22.6295 162.218 22.6299 161.796 22.6302C161.494 22.6325 161.494 22.6325 161.186 22.6348C161 22.6342 160.814 22.6335 160.622 22.6328C160.458 22.6331 160.294 22.6334 160.125 22.6338C159.72 22.5806 159.72 22.5806 159.286 22.1505C159.259 21.4784 159.259 21.4784 159.286 20.8602C161.397 20.1158 163.571 19.9572 165.795 19.9193Z" fill="black"/>
<path d="M155.662 24.3018C156.153 24.4954 156.004 24.4343 156.506 24.6319C156.442 26.613 156.29 28.559 154.868 30.0732C154.765 30.1673 154.478 30.3676 154.372 30.4645C154.028 30.8969 153.875 31.1492 154.471 31.9318C155.364 32.7144 157.222 32.3192 158.639 32.5187C158.508 32.9061 158.377 33.2935 158.242 33.6926C154.569 33.8508 154.569 33.8508 153.081 32.5677C152.77 31.8786 152.696 31.286 152.883 30.5623C153.174 30.1519 153.372 30.1519 153.739 29.7308C154.611 28.7258 154.826 27.7322 155.066 26.4538C155.42 24.7357 155.222 24.7357 155.662 24.3018Z" fill="black"/>
<path d="M126.311 23.8721C126.895 23.91 127.467 24.0051 128.046 24.0871C127.903 24.5839 127.76 25.0807 127.613 25.5925C127.183 25.5925 126.753 25.5925 126.311 25.5925C126.228 25.0923 126.156 24.5902 126.094 24.0871C126.165 24.0162 126.237 23.9452 126.311 23.8721Z" fill="black"/>
<path d="M152.567 24.3018C153.039 24.7848 153.202 25.1359 153.245 25.8089C153.196 26.6162 153.128 26.9821 152.512 27.5411C151.831 27.7714 151.506 27.7626 150.831 27.5276C150.288 26.9898 150.327 26.7796 150.316 26.0357C150.309 25.8474 150.303 25.6592 150.297 25.4653C150.397 24.947 150.397 24.947 150.794 24.5631C151.44 24.2047 151.84 24.1792 152.567 24.3018Z" fill="black"/>
<path d="M162.976 24.2344C163.64 24.3016 163.64 24.3016 164.003 24.5679C164.368 25.0479 164.372 25.3189 164.359 25.9145C164.358 26.0808 164.357 26.2471 164.356 26.4185C164.291 26.8822 164.291 26.8822 163.857 27.5274C163.435 27.5904 163.435 27.5904 162.962 27.5677C162.685 27.5544 162.407 27.5411 162.121 27.5274C161.721 26.8593 161.643 26.4408 161.742 25.6725C161.761 25.5057 161.78 25.3388 161.799 25.1668C161.977 24.4307 162.234 24.3126 162.976 24.2344Z" fill="black"/>
<path d="M180.345 25.5916C180.245 26.1623 180.167 26.5854 179.911 27.097C179.179 27.5406 179.179 27.5406 178.773 27.7329C178.142 28.1048 177.882 28.6236 177.524 29.2476C177.238 29.1766 176.951 29.1056 176.656 29.0325C176.684 27.7123 177.13 27.1108 178.025 26.1511C178.753 25.4679 179.373 25.5738 180.345 25.5916Z" fill="black"/>
<path d="M20.2116 26.6406C20.8626 26.6675 20.8626 26.6675 21.0795 26.8826C21.0884 27.3126 21.0888 27.7429 21.0795 28.1729C20.5783 28.2439 20.0771 28.3148 19.5607 28.3879C19.4781 27.8877 19.4061 27.3857 19.3438 26.8826C19.5607 26.6675 19.5607 26.6675 20.2116 26.6406Z" fill="black"/>
<path d="M163.197 34.8398C163.197 35.4312 163.197 35.4312 162.98 36.1302C161.4 37.3763 159.122 37.4954 157.19 37.4877C157.013 37.4912 156.836 37.4946 156.653 37.4982C155.558 37.4991 154.826 37.3573 153.867 36.7753C153.867 36.4915 153.867 36.2076 153.867 35.9151C153.991 35.9131 154.115 35.9111 154.243 35.909C156.842 35.8566 159.274 35.6562 161.796 35.0205C162.546 34.8398 162.546 34.8398 163.197 34.8398Z" fill="black"/>
<path d="M197.804 42.9834C198.347 43.0103 198.347 43.0103 198.564 43.2253C198.595 43.7997 198.573 44.3703 198.564 44.9458C198.058 44.9549 197.551 44.9546 197.045 44.9458C196.973 44.8748 196.902 44.8038 196.828 44.7307C197.013 43.0226 197.013 43.0226 197.804 42.9834Z" fill="black"/>
<path d="M14.3579 93.5479C14.7934 93.6095 15.2276 93.6809 15.6597 93.7629C15.7953 94.4887 15.7953 94.4887 15.8767 95.2683C15.7335 95.4102 15.5903 95.5522 15.4427 95.6984C14.7647 95.6177 14.7647 95.6177 14.1409 95.4833C14.1197 94.1603 14.1197 94.1603 14.1409 93.7629C14.2125 93.6919 14.2841 93.621 14.3579 93.5479Z" fill="black"/>
<path d="M71.1996 101.506C71.6351 101.568 72.0693 101.639 72.5014 101.721C72.5014 102.289 72.5014 102.856 72.5014 103.441C71.8776 103.576 71.8776 103.576 71.1996 103.656C71.0564 103.514 70.9132 103.373 70.7656 103.226C70.8908 101.812 70.8908 101.812 71.1996 101.506Z" fill="black"/>
<path d="M208.328 115.699C208.399 116.196 208.471 116.693 208.545 117.205C207.9 117.205 207.256 117.205 206.592 117.205C206.443 116.707 206.443 116.707 206.375 116.129C206.866 115.27 207.457 115.488 208.328 115.699Z" fill="black"/>
</g>
<defs>
<clipPath id="clip0_244_1238">
<rect width="213.5" height="140" fill="white" transform="translate(0.25)"/>
</clipPath>
</defs>
</svg>
