<svg width="382" height="251" viewBox="0 0 382 251" fill="none" xmlns="http://www.w3.org/2000/svg">
<g clip-path="url(#clip0_244_981)">
<path d="M315.611 8.54212C315.869 8.77456 316.127 9.00701 316.392 9.2465C316.686 9.50278 316.98 9.75907 317.282 10.0231C321.882 14.2744 324.096 19.7287 324.319 25.8978C324.352 29.5024 323.773 33.0004 323.133 36.5384C322.913 37.8396 322.758 39.1455 322.604 40.4559C322.948 40.6308 323.292 40.8056 323.647 40.9857C325.599 42.2881 326.593 44.4647 327.048 46.7095C327.244 50.3786 325.679 53.9235 323.325 56.6732C321.63 58.4021 320.064 59.5389 317.557 59.721C317.429 60.6111 317.301 61.5011 317.169 62.4181C316.528 62.4181 315.888 62.4181 315.228 62.4181C315.1 61.6552 314.971 60.8923 314.839 60.1063C314.327 60.1063 313.815 60.1063 313.287 60.1063C313.277 60.6057 313.267 61.1052 313.257 61.6198C313.22 63.4803 313.182 65.3409 313.142 67.2014C313.125 68.0052 313.109 68.809 313.094 69.6129C313.071 70.7712 313.046 71.9294 313.021 73.0877C313.015 73.4446 313.008 73.8015 313.002 74.1692C312.958 76.0652 312.827 77.8859 312.51 79.7567C312.918 79.7885 313.327 79.8203 313.748 79.853C326.631 81.5238 339.49 90.2223 348.729 98.8216C349.589 99.6172 350.461 100.385 351.356 101.141C363.024 111.289 369.813 125.748 376.177 139.527C376.297 139.785 376.417 140.044 376.541 140.31C377.886 143.212 379.116 146.133 380.194 149.144C380.29 149.412 380.386 149.68 380.485 149.956C382.396 155.439 382.875 162.466 380.346 167.884C377.865 171.924 374.955 174.632 370.232 175.947C365.391 176.575 360.703 176.042 355.99 174.926C355.953 175.215 355.916 175.505 355.878 175.803C355.28 180.221 354.422 184.583 353.565 188.958C353.403 189.787 353.242 190.615 353.081 191.444C352.744 193.172 352.406 194.9 352.067 196.627C351.636 198.832 351.206 201.037 350.778 203.242C350.446 204.95 350.112 206.658 349.778 208.366C349.619 209.178 349.461 209.991 349.303 210.804C347.159 221.836 347.159 221.836 346.285 222.704C345.546 222.74 344.806 222.749 344.067 222.747C343.593 222.747 343.118 222.747 342.63 222.747C342.109 222.745 341.588 222.743 341.066 222.741C340.536 222.74 340.006 222.74 339.475 222.74C338.077 222.738 336.679 222.734 335.28 222.73C333.854 222.726 332.428 222.724 331.003 222.722C328.203 222.718 325.403 222.712 322.604 222.704C322.588 222.952 322.572 223.201 322.555 223.458C322.336 226.328 321.816 229.062 321.172 231.867C321.07 232.32 320.968 232.773 320.863 233.239C320.54 234.673 320.213 236.105 319.886 237.538C319.667 238.511 319.447 239.484 319.228 240.458C319.019 241.383 318.81 242.308 318.6 243.233C318.502 243.669 318.403 244.105 318.301 244.554C318.209 244.956 318.117 245.359 318.022 245.774C317.942 246.129 317.861 246.483 317.778 246.848C317.557 247.748 317.557 247.748 317.169 248.904C326.008 248.904 334.848 248.904 343.955 248.904C343.955 249.54 343.955 250.176 343.955 250.831C231.731 250.831 119.507 250.831 3.8821 250.831C3.75399 250.195 3.62588 249.559 3.49389 248.904C9.51505 248.904 15.5362 248.904 21.7398 248.904C21.2274 248.014 20.7149 247.124 20.187 246.207C19.8169 244.392 19.9342 242.582 20.7693 240.909C23.5103 236.885 28.854 235.581 33.2659 234.212C42.2497 231.417 49.407 226.987 56.8684 221.412C57.151 221.201 57.4335 220.991 57.7247 220.774C58.4115 220.261 59.0981 219.749 59.7845 219.236C59.5571 219.234 59.3297 219.231 59.0954 219.229C56.721 219.204 54.3467 219.172 51.9724 219.135C51.0872 219.122 50.202 219.111 49.3168 219.102C48.0417 219.089 46.7669 219.069 45.492 219.048C45.0984 219.045 44.7048 219.043 44.2993 219.04C42.0754 218.995 40.3339 218.898 38.4329 217.695C37.2473 215.746 37.0951 214.003 37.1136 211.795C37.1125 211.497 37.1114 211.199 37.1102 210.893C37.1094 210.267 37.1116 209.642 37.1164 209.016C37.1227 208.065 37.1165 207.114 37.1091 206.163C37.1098 205.552 37.1113 204.941 37.1136 204.329C37.1112 204.048 37.1089 203.767 37.1064 203.478C37.1331 201.528 37.4334 200.128 38.4329 198.43C40.2425 197.133 41.9036 197.117 44.0468 197.161C44.3192 197.162 44.5916 197.163 44.8722 197.164C45.8802 197.17 46.8877 197.186 47.8956 197.201C49.1161 197.215 50.3367 197.228 51.5572 197.24C52.1636 197.246 52.77 197.253 53.3764 197.259C53.8256 197.264 54.2749 197.269 54.7378 197.274C54.7618 196.945 54.7857 196.616 54.8104 196.277C55.6512 184.9 56.7697 173.555 57.9167 162.205C58.1118 160.272 58.3054 158.338 58.499 156.404C58.7334 154.063 58.9685 151.722 59.2037 149.382C59.2689 148.733 59.2689 148.733 59.3354 148.07C59.843 143.019 60.3701 137.972 60.9492 132.928C56.454 134.786 53.847 137.142 50.6599 140.755C46.0071 145.96 38.8368 150.73 31.7848 151.515C29.7918 151.593 28.7397 151.198 27.1748 149.882C25.2488 147.943 23.9733 145.793 22.7346 143.38C22.5374 143 22.3402 142.62 22.1369 142.229C19.7511 137.568 17.619 132.791 15.4624 128.023C14.2157 125.272 12.9348 122.536 11.6463 119.804C11.4244 119.332 11.2026 118.861 10.9807 118.389C9.92053 116.139 8.8545 113.891 7.78052 111.646C-0.0563383 95.266 -0.0563381 95.266 -0.12133 89.6541C-0.138219 89.1747 -0.138219 89.1747 -0.15545 88.6856C-0.185069 85.8205 0.605772 84.2539 2.57189 82.1167C4.55702 80.8761 6.34872 80.7259 8.65437 81.03C11.3883 81.7312 13.1889 83.6055 15.1402 85.5362C15.3501 85.7352 15.56 85.9342 15.7762 86.1393C17.4862 87.7828 18.9204 89.5381 20.3326 91.4361C24.874 97.4152 29.3608 101.428 36.134 104.793C39.4956 106.523 42.4357 108.637 44.6443 111.737C47.4663 110.896 50.3664 109.959 52.7967 108.269C53.0869 106.927 53.0869 106.927 53.1849 105.572C55.327 103.672 58.1637 102.428 60.7065 101.141C61.5128 100.729 62.319 100.316 63.1253 99.9037C63.5393 99.6928 63.9534 99.4818 64.38 99.2645C65.5265 98.678 66.6694 98.0853 67.8111 97.4896C76.9334 92.7407 86.1741 88.2198 95.3938 83.6611C96.2059 83.2593 97.0177 82.8568 97.8293 82.4538C97.6189 82.0483 97.6189 82.0483 97.4043 81.6347C84.9901 57.6073 74.0645 29.4275 75.7012 1.92577C75.8293 1.54432 75.9574 1.16287 76.0894 0.769861C77.9531 0.943589 79.0315 1.81755 80.384 3.00943C80.7284 3.30864 80.7284 3.30864 81.0798 3.61391C86.1395 8.08559 90.9557 12.814 94.9942 18.2207C95.7241 19.1708 96.4999 20.0804 97.2729 20.9959C102.659 27.406 107.215 34.3956 111.417 41.6118C111.78 42.227 112.143 42.8421 112.507 43.4571C121.992 59.6104 121.992 59.6104 124.992 67.5459C125.293 68.5369 125.293 68.5369 125.78 68.9682C126.368 69.0576 126.96 69.127 127.552 69.185C127.872 69.2173 128.193 69.2495 128.524 69.2828C128.771 69.3062 129.019 69.3295 129.274 69.3535C129.265 68.8524 129.256 68.3512 129.247 67.8349C129.015 48.8154 132.155 30.1786 137.427 11.9436C137.593 11.3678 137.593 11.3678 137.763 10.7804C138.54 8.14137 138.54 8.14137 138.98 7.70529C139.626 7.68963 140.274 7.68883 140.921 7.70529C152.676 30.2026 157.173 54.3156 158.778 79.3714C158.883 79.13 158.988 78.8887 159.097 78.64C165.78 63.314 173.316 50.204 183.973 37.2968C184.704 36.4114 185.427 35.5216 186.138 34.6207C189.577 30.3089 192.901 26.9392 198.594 26.272C199.566 26.1922 199.566 26.1922 200.317 26.1998C200.705 26.5851 200.705 26.5851 200.778 27.8554C200.746 30.0702 200.332 32.2142 199.929 34.3874C199.843 34.8529 199.758 35.3183 199.67 35.7979C196.965 50.1999 193.185 64.2744 188.671 78.2155C188.868 78.1531 189.065 78.0907 189.268 78.0264C190.545 77.7643 191.799 77.7731 193.097 77.7735C193.387 77.7721 193.678 77.7706 193.977 77.7692C194.95 77.7649 195.923 77.7635 196.897 77.762C197.594 77.7596 198.292 77.757 198.99 77.7543C201.28 77.7462 203.571 77.7422 205.861 77.7384C206.65 77.7368 207.438 77.7352 208.226 77.7336C211.928 77.7263 215.629 77.7208 219.331 77.7176C223.607 77.7138 227.883 77.7037 232.159 77.6881C235.463 77.6765 238.767 77.6708 242.07 77.6695C244.045 77.6686 246.019 77.6651 247.993 77.6554C249.848 77.6465 251.704 77.6448 253.56 77.6488C254.242 77.649 254.923 77.6465 255.605 77.6413C256.535 77.6345 257.463 77.6372 258.393 77.6423C258.664 77.638 258.935 77.6338 259.214 77.6294C260.421 77.6454 261.173 77.7714 262.198 78.4199C262.819 79.3714 262.819 79.3714 263.207 82.4538C267.947 82.4538 272.687 82.4538 277.571 82.4538C277.584 79.2159 277.584 79.2159 276.419 78.2501C276.094 78.1036 275.77 77.9571 275.436 77.8061C268.938 74.4161 266.457 68.355 264.251 61.7474C262.988 57.6338 262.759 53.4873 262.74 49.2095C262.738 48.8038 262.736 48.3981 262.734 47.9801C262.73 47.1252 262.727 46.2704 262.726 45.4156C262.722 44.1305 262.71 42.8457 262.698 41.5607C262.679 37.4815 262.733 33.5533 263.643 29.5585C264.044 27.698 263.873 26.4363 263.207 24.6586C262.755 23.9341 262.755 23.9341 262.212 23.4063C260.691 21.7024 260.671 20.098 260.701 17.8962C261.296 13.4336 264.469 9.38717 267.866 6.54939C280.66 -3.11488 303.351 -1.74864 315.611 8.54212ZM78.8069 5.39348C78.4198 19.5875 80.7996 33.468 85.0183 47.0061C85.1332 47.3794 85.2481 47.7527 85.3665 48.1373C88.0921 56.8989 91.6894 65.3149 95.6941 73.5678C95.8095 73.8062 95.9249 74.0446 96.0437 74.2903C97.692 77.7256 97.692 77.7256 99.7703 80.9126C101.315 81.3928 102.167 81.4086 103.696 80.881C104.106 80.661 104.516 80.4409 104.938 80.2142C105.169 80.0932 105.4 79.9722 105.637 79.8476C106.956 79.1491 108.255 78.4154 109.556 77.6842C110.128 77.3634 110.699 77.0429 111.271 76.7224C111.558 76.5609 111.845 76.3994 112.141 76.2329C115.336 74.4631 118.669 73.0121 122.029 71.581C122.674 71.3249 122.674 71.3249 123.063 70.8948C123.114 66.2114 121.303 61.5152 119.181 57.4092C119.015 57.0799 119.015 57.0799 118.846 56.7439C114.521 48.2385 108.587 40.4483 103.016 32.7162C102.446 31.9216 101.884 31.1224 101.323 30.3222C95.611 22.1888 89.3049 13.6319 81.5244 7.31999C81.2957 7.12579 81.067 6.93159 80.8314 6.7315C79.9327 5.8063 79.9327 5.8063 78.8069 5.39348ZM276.396 9.78983C274.372 12.5381 273.083 15.0339 273.301 18.4937C274.488 18.2355 274.488 18.2355 274.918 17.4049C275.059 17.1051 275.199 16.8053 275.343 16.4965C275.497 16.1709 275.651 15.8453 275.81 15.5099C275.967 15.1674 276.124 14.825 276.285 14.4721C276.447 14.1312 276.608 13.7902 276.774 13.4389C277.631 11.7933 277.631 11.7933 277.959 10.0171C278.296 9.99326 278.632 9.96942 278.978 9.94486C280.702 9.53312 281.367 8.94648 282.618 7.70529C282.984 6.87099 282.984 6.87099 283.006 6.16408C280.1 5.64639 278.141 7.73128 276.396 9.78983ZM286.23 14.6949C285.256 16.0721 284.947 16.7639 284.947 18.4937C285.331 18.6209 285.716 18.748 286.112 18.879C286.276 18.6555 286.441 18.432 286.611 18.2017C290.369 13.2342 295.07 10.9946 300.864 8.86119C300.864 8.3526 300.864 7.844 300.864 7.31999C295.413 6.69088 289.558 10.7176 286.23 14.6949ZM139.756 12.3289C137.48 18.9249 135.662 25.5199 134.321 32.3646C134.245 32.7514 134.169 33.1383 134.091 33.5369C132.225 43.3194 131.493 53.3142 131.507 63.261C131.507 63.5489 131.507 63.8369 131.507 64.1336C131.249 66.9572 131.249 66.9572 131.992 69.3535C132.561 69.4451 133.134 69.5154 133.707 69.5763C141.216 70.4361 147.527 72.5001 153.673 76.9753C154.753 77.9041 154.753 77.9041 155.673 77.8302C156.089 59.9115 152.331 42.3361 146.501 25.4292C146.414 25.1765 146.327 24.9239 146.238 24.6636C145.656 22.9824 145.045 21.3135 144.415 19.6496C144.322 19.4043 144.23 19.159 144.134 18.9063C142.704 15.0614 142.704 15.0614 139.756 12.3289ZM266.992 24.7308C265.047 27.8341 265.553 31.1752 265.925 34.6764C266.216 34.7141 266.507 34.7519 266.807 34.7908C269.27 35.1479 271.427 35.676 273.704 36.6782C274.448 37.037 274.448 37.037 275.242 36.9882C275.114 37.8783 274.986 38.7683 274.854 39.6853C274.597 39.6716 274.34 39.6579 274.076 39.6438C272.92 39.5833 271.764 39.5259 270.608 39.4686C270.203 39.447 269.799 39.4254 269.383 39.4031C268.999 39.3845 268.615 39.3659 268.219 39.3467C267.863 39.3285 267.508 39.3104 267.141 39.2916C266.319 39.2041 266.319 39.2041 265.925 39.6853C264.051 50.2519 265.162 62.8862 271.166 72.0025C273.194 74.5914 275.579 76.1413 278.736 77.0596C278.992 76.9324 279.248 76.8053 279.512 76.6743C279.128 76.2928 278.744 75.9114 278.348 75.5184C278.652 75.5973 278.957 75.6763 279.271 75.7577C283.695 76.8837 287.508 77.5395 291.935 76.289C292.517 76.1426 293.099 75.9981 293.682 75.8555C294.354 75.6886 294.354 75.6886 295.041 75.5184C295.169 76.027 295.297 76.5356 295.429 77.0596C295.157 77.1664 294.884 77.2731 294.604 77.3832C293.049 78.006 291.51 78.6674 289.97 79.3247C287.647 80.2046 285.316 80.258 282.858 80.3753C281.329 80.4299 281.329 80.4299 279.9 80.9126C279.352 83.0896 279.516 84.9662 280.289 87.0774C281.657 89.2584 283.32 90.1684 285.724 90.9304C287.187 91.1387 288.615 91.1514 290.091 91.1231C290.486 91.1176 290.881 91.1121 291.288 91.1064C298.335 90.9106 304.255 87.6567 309.389 83.0152C311.111 80.9562 311.061 78.7546 311.019 76.2107C311.017 75.8725 311.015 75.5342 311.013 75.1858C311.006 74.1086 310.994 73.0315 310.982 71.9543C310.971 70.8827 310.961 69.8111 310.954 68.7394C310.949 68.0746 310.943 67.4099 310.933 66.7451C310.917 64.7853 311.035 62.8758 311.257 60.9281C311.358 59.9922 311.385 59.0725 311.37 58.1316C311.362 57.6389 311.354 57.1462 311.346 56.6386C311.858 56.6386 312.37 56.6386 312.898 56.6386C313.026 57.02 313.155 57.4015 313.287 57.7945C314.069 58.077 314.069 58.077 314.839 58.1798C315.032 57.6076 315.032 57.6076 315.228 57.0239C315.484 57.151 315.74 57.2782 316.004 57.4092C317.393 57.6297 318.33 57.6593 319.536 56.8884C322.222 54.626 323.94 52.2547 324.243 48.6842C324.315 46.4176 324.226 44.7034 322.992 42.7677C321.933 41.7594 320.939 41.2388 319.457 41.2115C317.188 41.5702 315.595 42.7049 313.814 44.0937C312.839 44.7329 312.107 44.9319 310.957 45.0795C307.275 39.6972 304.595 34.396 304.188 27.7651C304.053 25.9587 303.668 24.8829 302.417 23.5027C300.823 22.3103 299.448 22.1787 297.513 22.1911C297.221 22.1884 296.929 22.1858 296.628 22.1831C295.667 22.176 294.705 22.1775 293.744 22.1797C293.074 22.1779 292.403 22.1759 291.732 22.1736C290.328 22.1701 288.924 22.1711 287.52 22.1749C285.723 22.1793 283.927 22.1715 282.13 22.1603C280.746 22.1532 279.361 22.1533 277.977 22.1555C277.314 22.1556 276.652 22.1533 275.99 22.1485C275.063 22.1427 274.136 22.1468 273.208 22.1534C272.937 22.1497 272.665 22.146 272.385 22.1422C270.006 22.1775 268.654 23.1273 266.992 24.7308ZM190.847 32.8944C189.788 33.9534 188.782 35.0333 187.828 36.186C187.187 36.9101 186.522 37.5725 185.827 38.245C184.437 39.6164 183.228 41.0721 182.047 42.6232C181.833 42.9037 181.619 43.1842 181.398 43.4732C177.067 49.2158 173.246 55.2443 169.758 61.523C169.321 62.3091 168.877 63.091 168.431 63.872C162.661 73.4675 162.661 73.4675 160.719 83.995C161.346 84.6821 161.977 85.2939 162.661 85.9215C163.175 86.424 163.687 86.9284 164.198 87.4341C164.477 87.7095 164.757 87.9849 165.044 88.2687C165.331 88.5511 165.617 88.8334 165.912 89.1243C166.195 89.4022 166.478 89.6801 166.77 89.9664C168.589 91.7634 170.315 93.6134 171.978 95.5541C172.234 95.4269 172.49 95.2998 172.754 95.1688C172.495 92.2779 171.884 89.5899 171.13 86.7907C170.377 83.8351 170.265 81.3923 170.037 78.2155C175.289 78.2155 180.542 78.2155 185.953 78.2155C186.894 75.8807 187.8 73.6022 188.568 71.2168C188.66 70.9309 188.753 70.645 188.849 70.3504C189.148 69.4249 189.444 68.4984 189.738 67.5715C189.892 67.0896 189.892 67.0896 190.048 66.598C195.887 48.853 195.887 48.853 198.012 30.4622C198.009 30.1647 198.005 29.8671 198.001 29.5606C197.997 29.3416 197.992 29.1225 197.988 28.8969C194.941 28.8969 192.92 30.9418 190.847 32.8944ZM112.152 77.8889C108.059 80.1166 103.872 82.1396 99.6733 84.1636C92.4664 87.6409 85.2824 91.1606 78.1152 94.7175C77.3615 95.0913 76.6077 95.4648 75.8538 95.8382C70.722 98.3802 65.6019 100.939 60.5393 103.615C59.007 104.423 57.4571 105.192 55.9024 105.957C56.1142 108.276 56.6294 110.243 57.4522 112.417C57.5695 112.735 57.6868 113.052 57.8077 113.379C58.1883 114.406 58.5738 115.431 58.9596 116.457C59.2231 117.164 59.4865 117.871 59.7498 118.579C61.8822 124.292 64.0944 129.972 66.3841 135.625C72.2218 135.09 79.629 132.608 83.8536 128.305C85.1509 126.593 85.4224 124.769 85.8432 122.718C87.2272 116.532 89.6416 110.615 93.5589 105.572C93.8502 105.185 93.8502 105.185 94.1473 104.791C96.8741 101.393 100.354 99.2553 104.623 98.3475C113.381 97.7266 120.376 99.9389 127.042 105.548C128.996 107.23 130.756 108.964 132.38 110.966C132.799 111.447 132.799 111.447 133.226 111.938C142.037 122.136 149.058 133.976 156.146 145.377C157.612 147.729 159.108 150.06 160.629 152.377C162.098 154.618 163.546 156.872 164.99 159.129C165.681 160.207 166.373 161.286 167.064 162.364C167.469 162.996 167.873 163.627 168.277 164.259C172.485 170.828 176.886 177.225 181.947 183.18C182.369 183.681 182.78 184.192 183.187 184.705C189.778 192.799 199.942 196.436 210.026 197.556C213.713 197.883 217.422 197.806 221.12 197.785C222.052 197.784 222.983 197.783 223.915 197.783C225.852 197.781 227.79 197.776 229.727 197.767C232.195 197.756 234.663 197.752 237.131 197.751C239.51 197.749 241.888 197.743 244.267 197.737C244.712 197.737 245.157 197.736 245.615 197.735C250.33 197.725 255.015 197.683 259.713 197.274C259.836 185.852 251.765 175.63 244.108 167.825C241.678 165.389 239.132 163.181 236.421 161.055C235.592 160.378 234.769 159.693 233.946 159.008C233.219 158.405 232.491 157.803 231.762 157.202C231.421 156.903 231.08 156.603 230.728 156.295C230.279 155.981 230.279 155.981 229.821 155.661C229.437 155.788 229.052 155.915 228.656 156.046C229.339 157.655 230.449 158.916 231.544 160.261C232.763 161.761 233.916 163.22 234.868 164.908C232.979 164.7 231.939 163.293 230.813 161.905C230.201 161.113 229.597 160.315 228.996 159.514C225.785 155.298 222.364 151.325 218.746 147.449C217.983 146.625 217.236 145.794 216.501 144.945C214.519 142.679 212.428 140.51 210.361 138.321C200.43 127.806 200.43 127.806 198.133 125.15C196.793 123.608 195.333 122.196 193.874 120.766C193.082 119.97 192.337 119.161 191.607 118.311C190.495 117.019 189.306 115.819 188.088 114.626C186.65 113.216 185.274 111.778 183.959 110.254C181.44 107.366 178.807 104.593 176.048 101.93C175.28 101.149 174.565 100.359 173.851 99.5325C172.426 97.9113 170.922 96.3893 169.38 94.8783C168.967 94.4711 168.967 94.4711 168.547 94.0557C167.677 93.1976 166.807 92.3408 165.936 91.4843C164.786 90.3531 163.637 89.2206 162.489 88.0873C162.23 87.8328 161.97 87.5783 161.702 87.316C160.301 85.9321 158.971 84.5178 157.705 83.0107C156.646 81.7799 155.364 80.7952 154.12 79.7567C153.776 79.4537 153.431 79.1507 153.077 78.8386C146.718 73.3504 139.893 70.491 131.377 70.8274C124.421 71.3268 118.134 74.597 112.152 77.8889ZM311.734 82.0685C311.343 82.7092 310.955 83.3516 310.569 83.995C304.775 89.3444 296.813 92.9333 288.829 92.8569C285.716 92.6569 283.104 91.7566 280.677 89.7745C279.648 88.5238 278.937 87.1839 278.327 85.6918C277.619 84.612 277.619 84.612 276.156 84.5469C275.571 84.5472 274.985 84.5581 274.4 84.5775C274.092 84.5802 273.783 84.5829 273.465 84.5857C272.48 84.5965 271.496 84.6207 270.511 84.6452C269.843 84.6549 269.175 84.6637 268.507 84.6715C266.869 84.6928 265.233 84.726 263.596 84.7656C264.979 92.3041 266.841 99.6834 268.796 107.091C269.417 109.447 270.033 111.804 270.65 114.161C270.872 115.008 271.095 115.854 271.318 116.701C271.955 119.125 272.577 121.55 273.134 123.993C273.222 124.377 273.309 124.761 273.4 125.156C273.555 125.847 273.706 126.539 273.851 127.232C274.019 127.984 274.237 128.725 274.465 129.461C275.568 129.968 275.568 129.968 276.359 129.531C276.765 129.28 276.765 129.28 277.18 129.024C277.483 128.841 277.786 128.659 278.099 128.47C278.421 128.273 278.743 128.075 279.075 127.871C282.004 126.136 284.781 124.683 288.053 123.681C288.421 123.559 288.789 123.438 289.169 123.312C297.947 120.828 306.264 123.16 314.424 126.413C314.807 126.563 315.191 126.713 315.586 126.867C316.1 127.074 316.1 127.074 316.624 127.284C317.915 127.63 317.915 127.63 319.11 127.149C319.637 125.993 319.637 125.993 319.985 124.553C320.057 124.292 320.13 124.031 320.205 123.762C320.436 122.926 320.659 122.088 320.881 121.249C321.105 120.415 321.331 119.581 321.561 118.748C321.77 117.99 321.973 117.23 322.175 116.47C322.57 115.304 322.958 114.577 323.768 113.663C322.925 117.761 322.035 121.828 320.948 125.869C320.695 127.004 320.639 127.924 320.663 129.075C323.876 130.539 327.11 131.949 330.368 133.314C330.74 133.471 331.112 133.629 331.495 133.791C333.561 134.642 335.512 135.375 337.744 135.625C339.344 134.94 340.153 133.859 341.238 132.543C347.05 128.092 354.658 127.455 361.716 127.293C362.256 127.279 362.796 127.263 363.336 127.248C364.64 127.212 365.944 127.179 367.248 127.149C363.563 119.465 359.107 112.696 353.289 106.431C352.558 105.639 351.859 104.828 351.161 104.007C342.416 94.1266 326.374 83.449 312.995 81.8999C312.371 81.9834 312.371 81.9834 311.734 82.0685ZM4.27031 83.995C4.27031 85.7617 4.83886 86.7862 5.6518 88.295C7.22031 91.3061 8.51909 94.3786 9.76576 97.5318C16.697 115.018 25.0131 131.657 35.7154 147.184C41.5849 145.393 47.7049 141.137 51.6321 136.396C51.7602 136.015 51.8883 135.633 52.0203 135.24C51.7626 135.096 51.5049 134.951 51.2393 134.802C46.3261 131.976 43.8804 128.318 42.315 122.91C42.0959 120.979 42.0947 119.073 42.1209 117.131C42.3299 113.964 42.3299 113.964 41.5098 110.998C40.9516 110.407 40.9516 110.407 39.9858 109.81C39.7295 109.572 39.4733 109.333 39.2093 109.088C38.4369 108.574 38.4369 108.574 37.4381 108.654C36.1546 109.177 35.8856 109.719 35.3272 110.966C35.05 112.197 35.05 112.197 34.939 113.278C34.3625 113.087 34.3625 113.087 33.7744 112.893C33.9674 110.976 34.3773 109.564 35.3272 107.884C34.7792 107.504 34.2288 107.127 33.6773 106.752C33.2179 106.437 33.2179 106.437 32.7493 106.115C31.9007 105.612 31.245 105.36 30.2805 105.187C30.0198 105.683 29.7614 106.181 29.504 106.68C29.3599 106.957 29.2158 107.234 29.0673 107.519C28.6745 108.249 28.6745 108.249 28.7276 109.04C28.2152 109.04 27.7027 109.04 27.1748 109.04C27.2634 108.724 27.3519 108.408 27.4432 108.082C27.5548 107.667 27.6664 107.252 27.7814 106.824C27.894 106.413 28.0066 106.002 28.1226 105.578C28.4013 104.17 28.4013 104.17 27.9512 102.875C27.2548 102.183 26.5649 101.555 25.816 100.924C23.9051 99.2515 22.267 97.5041 20.6859 95.5134C19.3409 93.8225 17.9308 92.1881 16.5217 90.5497C15.937 89.8665 15.3574 89.179 14.7899 88.4817C12.9288 86.2347 10.6401 84.0209 7.7263 83.3207C6.39148 83.2066 5.50209 83.5002 4.27031 83.995ZM2.32925 87.0774C2.28576 87.7993 2.25653 88.522 2.2322 89.2447C2.21419 89.647 2.19617 90.0494 2.17761 90.4639C2.38693 94.9965 4.59377 99.2961 6.50253 103.332C6.76022 103.885 7.0175 104.438 7.2744 104.991C7.81118 106.145 8.34992 107.299 8.89018 108.452C10.0806 110.994 11.2515 113.546 12.424 116.097C12.8119 116.94 13.2006 117.783 13.5896 118.626C14.8851 121.434 16.1749 124.244 17.4528 127.06C21.8742 139.093 21.8742 139.093 29.504 148.726C31.1999 149.299 32.4735 149.284 34.1626 148.726C33.9718 146.906 33.1136 145.755 32.0274 144.343C29.9484 141.544 28.14 138.64 26.3984 135.625C26.2484 135.367 26.0985 135.109 25.944 134.844C19.1103 123.036 13.4347 110.522 8.81729 97.7015C6.65908 91.6311 6.65908 91.6311 2.32925 87.0774ZM96.8345 104.031C88.7109 112.699 85.7113 125.787 82.5659 136.828C81.9523 138.974 81.303 141.108 80.6463 143.242C79.3158 147.572 78.0617 151.912 76.8913 156.287C75.412 161.806 73.861 167.302 72.2452 172.783C72.1492 173.109 72.0531 173.435 71.9541 173.771C71.2722 176.083 70.5875 178.394 69.9023 180.706C69.2063 183.054 68.5114 185.402 67.8187 187.751C67.5475 188.669 67.2745 189.587 67.0014 190.504C65.0781 196.486 65.0781 196.486 64.4431 202.668C68.5063 203.758 72.5803 204.793 76.6672 205.792C77.2576 205.937 77.848 206.082 78.4383 206.226C79.6612 206.526 80.8843 206.825 82.1074 207.124C83.6762 207.507 85.2447 207.892 86.8132 208.277C88.0256 208.574 89.2382 208.871 90.4508 209.167C91.0299 209.309 91.609 209.451 92.188 209.593C92.9912 209.79 93.7946 209.987 94.5982 210.182C95.0547 210.294 95.5113 210.406 95.9817 210.521C96.9961 210.787 96.9961 210.787 97.8293 210.759C99.9705 205.516 102.017 200.245 103.992 194.938C104.267 194.201 104.542 193.464 104.817 192.727C105.225 191.633 105.633 190.54 106.041 189.446C106.753 187.536 107.469 185.627 108.193 183.722C110.404 177.883 112.468 171.997 114.516 166.099C116.141 161.42 117.823 156.777 119.642 152.169C123.443 142.482 125.341 133.001 121.898 122.91C122.411 123.038 122.923 123.165 123.451 123.296C124.502 126.639 124.8 129.82 124.768 133.303C124.761 134.109 124.768 134.914 124.775 135.719C124.78 138.818 124.441 141.546 123.451 144.487C123.087 145.655 123.021 146.299 123.063 147.57C124.025 149.1 125.26 150.26 126.7 151.346C127.739 152.207 128.499 153.084 129.328 154.143C131.211 156.471 133.268 158.581 135.398 160.685C135.792 161.077 136.186 161.468 136.579 161.86C137.398 162.674 138.219 163.486 139.04 164.298C140.081 165.327 141.118 166.359 142.155 167.392C142.965 168.2 143.778 169.005 144.591 169.81C144.974 170.189 145.356 170.569 145.738 170.95C147.981 173.185 150.28 175.272 152.771 177.234C153.735 178.011 154.645 178.828 155.551 179.67C166.504 189.515 180.251 197.09 195.214 197.722C196.474 197.792 196.474 197.792 197.211 196.888C196.996 196.764 196.782 196.641 196.56 196.513C186.701 190.802 186.701 190.802 182.999 186.107C182.18 185.081 181.335 184.097 180.464 183.115C173.196 174.896 167.37 165.646 161.496 156.432C158.482 151.709 155.446 147.004 152.359 142.328C150.85 140.037 149.37 137.73 147.909 135.409C142.833 127.379 137.409 119.353 131.215 112.122C130.734 111.56 130.734 111.56 130.243 110.987C124.696 104.664 117.588 100.491 109.063 99.8646C104.161 99.6063 100.514 100.707 96.8345 104.031ZM217.787 110.196C216.919 111.918 217.309 113.763 217.859 115.517C218.639 116.878 219.058 117.315 220.504 117.902C222.693 118.465 223.973 118.235 225.939 117.131C227.13 116.04 227.456 115.482 227.662 113.88C227.404 111.797 226.732 110.646 225.332 109.088C223.99 108.064 222.707 107.997 221.051 108.076C219.523 108.391 218.84 109.07 217.787 110.196ZM49.4727 112.218C49.1056 112.371 48.7385 112.523 48.3604 112.68C48.0063 112.832 47.6522 112.983 47.2875 113.139C46.9664 113.277 46.6454 113.414 46.3146 113.555C45.1118 114.219 44.107 114.998 43.5858 116.288C42.9362 121.446 43.7245 125.439 46.925 129.629C49.0513 132.169 49.0513 132.169 52.0136 133.435C54.4349 133.476 56.2474 132.878 58.4258 131.869C58.7401 131.735 59.0543 131.601 59.3781 131.462C61.0114 130.849 61.0114 130.849 61.9942 129.547C62.1436 128.476 61.9276 127.865 61.5521 126.853C61.4199 126.49 61.2877 126.128 61.1516 125.754C61.0052 125.366 60.8589 124.978 60.7081 124.578C60.561 124.178 60.414 123.779 60.2625 123.367C59.7917 122.089 59.3151 120.814 58.8383 119.539C58.5182 118.674 58.1984 117.808 57.8791 116.943C57.0952 114.821 56.3065 112.7 55.5142 110.581C53.2098 110.534 51.5636 111.312 49.4727 112.218ZM277.183 131.002C276.799 131.256 276.414 131.51 276.018 131.772C276.146 132.79 276.275 133.807 276.406 134.855C276.754 134.658 276.754 134.658 277.109 134.457C283.538 130.893 290.268 127.503 297.758 127.149C297.758 127.53 297.758 127.912 297.758 128.305C297.013 128.329 297.013 128.329 296.254 128.353C290.815 128.91 285.704 131.337 281.065 134.084C280.661 134.32 280.257 134.556 279.841 134.799C278.41 135.67 278.41 135.67 277.183 136.781C277.058 137.989 277.021 138.771 277.571 139.864C280.831 139.739 283.444 137.898 286.233 136.367C290.282 134.198 294.397 132.928 298.923 132.158C298.923 132.539 298.923 132.921 298.923 133.314C298.546 133.361 298.17 133.409 297.782 133.458C293.901 134.021 290.768 135.175 287.357 137.076C286.405 137.605 285.444 138.116 284.483 138.628C283.804 138.999 283.126 139.371 282.448 139.743C282.124 139.917 281.799 140.091 281.465 140.27C279.688 141.212 279.688 141.212 278.722 142.881C278.727 143.157 278.731 143.433 278.736 143.717C283.631 144.022 287.027 142.585 291.303 140.353C294.167 138.98 296.904 139.316 299.846 140.254C300.898 140.647 301.891 141.11 302.902 141.598C306.325 143.191 310.029 143.818 313.793 143.908C316.53 144.416 318.595 146.048 320.614 147.859C321.09 148.274 321.566 148.689 322.043 149.103C322.272 149.304 322.501 149.504 322.737 149.711C324.201 150.977 325.735 152.159 327.262 153.349C327.672 153.672 328.081 153.994 328.491 154.317C329.886 155.415 331.29 156.504 332.697 157.588C332.943 157.777 333.188 157.966 333.441 158.16C339.225 162.594 345.278 166.49 351.719 169.917C351.96 170.047 352.201 170.176 352.449 170.309C353.149 170.682 353.853 171.047 354.558 171.41C354.957 171.616 355.356 171.822 355.767 172.033C360.433 173.987 366.972 175.185 371.858 173.287C374.856 171.651 377.607 169.154 378.87 165.944C381.736 156.071 377.511 146.575 373.434 137.693C373.194 137.169 372.956 136.645 372.719 136.12C372.382 135.373 372.036 134.63 371.688 133.887C371.387 133.235 371.387 133.235 371.08 132.569C370.043 130.882 368.807 129.842 367.004 128.962C365.024 128.55 363.079 128.559 361.061 128.57C360.41 128.572 360.41 128.572 359.747 128.575C353.069 128.669 345.893 130.155 340.85 134.855C340.588 136.04 340.588 136.04 340.461 137.167C344.8 138.801 349.159 140.365 353.539 141.887C354.419 142.193 355.299 142.499 356.179 142.806C356.719 142.994 357.259 143.182 357.799 143.369C358.491 143.61 359.182 143.856 359.872 144.102C360.235 144.218 360.598 144.334 360.973 144.454C361.98 144.956 362.208 145.381 362.589 146.414C346.871 141.246 331.425 135.496 316.31 128.774C312.005 126.869 307.776 125.19 303.193 124.066C302.893 123.99 302.593 123.913 302.283 123.835C292.899 122.438 284.614 125.444 277.183 131.002ZM78.5188 132.706C78.0724 132.91 77.626 133.115 77.1661 133.326C76.2361 133.759 75.3075 134.196 74.3789 134.632C71.3685 136.01 68.4803 136.95 65.2195 137.552C64.9633 136.535 64.7071 135.518 64.4431 134.47C63.9306 134.47 63.4182 134.47 62.8902 134.47C60.3692 159.513 60.3692 159.513 57.9153 184.562C57.8358 185.387 57.7558 186.212 57.6751 187.037C57.5668 188.147 57.4606 189.258 57.3552 190.368C57.3251 190.674 57.2949 190.979 57.2639 191.293C57.0776 193.294 57.0432 195.264 57.0671 197.274C57.8755 197.349 58.6844 197.421 59.4934 197.49C59.9438 197.531 60.3941 197.571 60.8582 197.612C61.9667 197.654 62.6499 197.668 63.6666 197.274C64.0638 196.651 64.0638 196.651 64.2626 195.839C64.3582 195.52 64.4537 195.201 64.5522 194.873C64.7023 194.333 64.7023 194.333 64.8555 193.782C64.9674 193.4 65.0793 193.018 65.1946 192.624C65.6008 191.223 65.9942 189.818 66.3841 188.412C66.4632 188.127 66.5422 187.842 66.6237 187.549C67.438 184.613 68.2485 181.677 69.0546 178.739C70.0523 175.111 71.0885 171.504 72.2316 167.919C73.5699 163.716 74.7311 159.476 75.8695 155.217C76.8094 151.704 77.7827 148.205 78.8387 144.725C78.9377 144.399 79.0367 144.072 79.1387 143.736C79.6176 142.161 80.1016 140.589 80.5915 139.017C80.766 138.449 80.9405 137.881 81.1149 137.313C81.196 137.058 81.2771 136.803 81.3606 136.541C81.8189 135.038 81.9925 133.726 81.9126 132.158C80.3805 131.651 79.9591 132.029 78.5188 132.706ZM289.217 143.717C293.829 143.717 298.441 143.717 303.193 143.717C301.101 141.641 298.903 140.848 295.987 140.442C293.188 140.846 291.219 141.73 289.217 143.717ZM304.358 144.487C304.23 145.759 304.101 147.03 303.969 148.34C288.508 148.792 273.044 148.843 257.577 148.925C253.948 148.944 250.319 148.965 246.691 148.987C239.256 149.03 231.821 149.071 224.386 149.111C224.386 149.492 224.386 149.874 224.386 150.267C224.951 150.827 224.951 150.827 225.724 151.326C226.155 151.627 226.155 151.627 226.595 151.934C227.063 152.253 227.063 152.253 227.54 152.579C228.185 153.029 228.829 153.481 229.472 153.933C229.794 154.159 230.116 154.385 230.448 154.617C233.734 156.954 236.86 159.481 239.831 162.201C240.595 162.894 241.376 163.552 242.171 164.21C251.588 172.407 258.247 183.569 261.301 195.577C261.517 196.816 261.517 196.816 262.043 197.274C273.214 198.66 285.884 190.46 294.301 184.026C295.341 183.194 296.36 182.344 297.37 181.476C297.673 181.218 297.976 180.96 298.289 180.694C302.896 176.676 307.185 172.403 310.84 167.509C311.347 166.833 311.862 166.165 312.38 165.497C314.528 162.692 316.477 159.782 318.358 156.793C318.575 156.449 318.793 156.105 319.017 155.751C320.047 154.088 320.932 152.557 321.439 150.652C318.189 147.502 314.944 144.959 310.272 144.751C309.927 144.735 309.581 144.718 309.226 144.702C308.868 144.687 308.511 144.672 308.143 144.656C307.779 144.639 307.416 144.623 307.042 144.605C306.147 144.565 305.252 144.526 304.358 144.487ZM121.898 149.882C121.817 150.107 121.737 150.333 121.653 150.566C120.596 153.517 119.537 156.468 118.477 159.418C118.391 159.657 118.305 159.897 118.216 160.144C115.22 168.488 112.178 176.814 109.09 185.124C108.797 185.914 108.505 186.704 108.212 187.494C108.082 187.844 107.951 188.193 107.816 188.554C106.172 192.808 106.172 192.808 105.593 197.274C130.575 197.274 155.556 197.274 181.295 197.274C180.645 195.984 179.162 195.712 177.874 195.179C167.38 190.687 158.106 184.235 149.687 176.597C149.149 176.114 148.609 175.633 148.056 175.167C145.644 173.126 143.417 170.912 141.182 168.685C140.51 168.016 139.835 167.349 139.161 166.682C136.947 164.486 134.788 162.275 132.768 159.899C130.676 157.537 128.519 155.273 126.257 153.069C125.536 152.339 124.901 151.607 124.276 150.797C124.004 150.495 123.732 150.193 123.451 149.882C122.939 149.882 122.426 149.882 121.898 149.882ZM322.604 152.579C322.475 152.789 322.347 153 322.214 153.217C316.865 161.966 311.058 170.16 303.969 177.623C303.678 177.933 303.386 178.243 303.085 178.562C300.489 181.235 297.649 183.507 294.652 185.715C294.443 185.869 294.233 186.024 294.017 186.183C288.896 189.913 283.424 192.733 277.609 195.242C277.257 195.395 276.904 195.549 276.541 195.707C276.225 195.842 275.909 195.978 275.583 196.117C274.788 196.448 274.788 196.448 274.465 197.274C276.867 197.621 279.208 197.723 281.633 197.738C282.029 197.742 282.425 197.746 282.832 197.75C284.14 197.762 285.447 197.771 286.755 197.781C287.679 197.789 288.604 197.797 289.528 197.805C291.473 197.822 293.418 197.838 295.363 197.853C297.807 197.871 300.251 197.892 302.694 197.914C313.86 198.011 325.025 198.072 336.191 198.044C336.191 198.426 336.191 198.807 336.191 199.2C233.959 199.391 233.959 199.391 129.663 199.585C128.672 201.88 128.351 202.686 128.357 204.993C128.357 205.496 128.357 205.998 128.358 206.516C128.361 206.774 128.364 207.032 128.367 207.298C128.377 208.086 128.375 208.873 128.373 209.661C128.239 213.603 128.239 213.603 130.051 216.924C131.172 216.999 132.256 217.026 133.378 217.019C133.728 217.02 134.078 217.021 134.439 217.022C135.626 217.024 136.813 217.02 138 217.017C138.854 217.017 139.708 217.018 140.562 217.019C142.919 217.02 145.277 217.017 147.634 217.013C149.912 217.011 152.19 217.011 154.468 217.012C159.13 217.013 163.791 217.01 168.453 217.006C173.07 217.001 177.688 216.998 182.305 216.997C182.592 216.997 182.879 216.997 183.174 216.997C184.631 216.997 186.087 216.997 187.544 216.996C197.867 216.995 208.19 216.989 218.514 216.982C228.544 216.975 238.575 216.97 248.606 216.966C248.915 216.966 249.224 216.966 249.542 216.966C252.646 216.965 255.749 216.964 258.853 216.963C265.175 216.961 271.497 216.959 277.82 216.957C278.111 216.957 278.401 216.956 278.701 216.956C298.123 216.949 317.545 216.937 336.967 216.924C337.557 215.221 337.964 213.592 338.264 211.815C338.311 211.544 338.357 211.274 338.405 210.995C338.504 210.41 338.603 209.825 338.701 209.239C338.858 208.302 339.018 207.366 339.178 206.429C339.519 204.429 339.857 202.429 340.194 200.428C340.636 197.817 341.079 195.205 341.524 192.594C341.578 192.278 341.632 191.961 341.688 191.634C342.43 187.291 343.224 182.963 344.129 178.649C344.736 175.757 345.239 172.863 345.508 169.917C345.569 169.585 345.629 169.254 345.692 168.912C345.587 167.858 345.587 167.858 344.395 167.136C343.88 166.837 343.361 166.544 342.839 166.257C342.264 165.92 341.69 165.582 341.118 165.241C340.818 165.062 340.518 164.884 340.208 164.7C338.699 163.769 337.263 162.744 335.827 161.706C335.538 161.497 335.249 161.289 334.952 161.074C333.455 159.986 331.975 158.879 330.509 157.75C330.216 157.525 329.924 157.3 329.622 157.069C329.071 156.643 328.521 156.214 327.973 155.782C326.267 154.458 324.569 153.485 322.604 152.579ZM40.0563 200.278C39.3613 201.564 39.4314 202.847 39.4429 204.271C39.4418 204.574 39.4406 204.877 39.4395 205.189C39.4387 205.828 39.4408 206.467 39.4457 207.106C39.452 208.084 39.4458 209.062 39.4383 210.041C39.4391 210.662 39.4406 211.283 39.4429 211.905C39.4405 212.197 39.4381 212.49 39.4357 212.791C39.4483 214.361 39.4483 214.361 40.1167 215.745C41.2858 216.485 42.2976 216.588 43.645 216.59C44.1832 216.591 44.1832 216.591 44.7323 216.592C45.3253 216.59 45.3253 216.59 45.9302 216.587C46.5491 216.586 46.5491 216.586 47.1805 216.585C53.5832 216.553 59.9845 216.342 66.3841 216.153C66.7674 215.174 67.1476 214.193 67.526 213.211C67.6341 212.936 67.7421 212.66 67.8534 212.377C68.7824 209.955 69.5658 207.518 68.7134 204.98C67.6601 204.64 66.6602 204.371 65.5834 204.137C65.2889 204.069 64.9944 204 64.691 203.93C63.9624 203.762 63.2323 203.599 62.502 203.438C62.502 202.167 62.502 200.896 62.502 199.585C59.6877 199.55 56.8733 199.522 54.0588 199.506C52.7519 199.498 51.4451 199.487 50.1383 199.469C48.636 199.451 47.1339 199.442 45.6315 199.435C45.162 199.427 44.6925 199.419 44.2087 199.411C43.7736 199.411 43.3384 199.411 42.89 199.411C42.5064 199.407 42.1228 199.404 41.7276 199.4C40.7164 199.502 40.7164 199.502 40.0563 200.278ZM103.392 200.606C103.222 201.032 103.052 201.458 102.876 201.897C102.7 202.283 102.524 202.669 102.343 203.067C102.189 203.47 102.034 203.872 101.875 204.287C101.705 204.728 101.535 205.169 101.36 205.624C101.187 206.079 101.015 206.534 100.838 207.003C100.66 207.463 100.482 207.924 100.298 208.399C99.3817 210.486 99.3817 210.486 98.9939 212.686C98.5653 212.596 98.5653 212.596 98.128 212.504C97.7492 212.429 97.3703 212.354 96.98 212.276C96.6062 212.2 96.2324 212.124 95.8473 212.046C94.7095 211.913 93.8838 212.015 92.7825 212.3C92.5862 212.854 92.3926 213.408 92.2002 213.962C92.0921 214.27 91.984 214.579 91.8726 214.897C91.5638 215.802 91.5638 215.802 91.6179 216.924C96.2173 216.933 100.817 216.94 105.416 216.944C107.552 216.946 109.687 216.949 111.822 216.953C113.881 216.957 115.94 216.96 117.999 216.961C118.787 216.961 119.574 216.963 120.362 216.965C121.46 216.968 122.559 216.968 123.658 216.968C123.987 216.969 124.316 216.971 124.655 216.972C126.112 217.11 126.112 217.11 127.333 216.539C127.369 216.006 127.379 215.472 127.377 214.939C127.377 214.599 127.377 214.26 127.377 213.91C127.375 213.541 127.373 213.173 127.371 212.793C127.371 212.417 127.37 212.041 127.37 211.654C127.367 210.449 127.363 209.243 127.358 208.038C127.356 207.223 127.354 206.408 127.352 205.593C127.348 203.59 127.341 201.588 127.333 199.585C124.374 199.532 121.414 199.491 118.455 199.466C117.08 199.454 115.706 199.437 114.332 199.411C112.751 199.381 111.171 199.37 109.591 199.36C109.098 199.348 108.605 199.336 108.097 199.324C105.47 199.235 105.47 199.235 103.392 200.606ZM71.4309 206.136C70.5661 208.417 69.7331 210.663 69.1987 213.047C69.1046 213.456 69.0105 213.864 68.9136 214.286C68.6673 215.45 68.6673 215.45 68.7134 216.924C69.5822 217.614 69.5822 217.614 70.703 218.2C72.415 219.211 73.6136 220.138 74.764 221.748C76.5314 223.584 79.5384 223.398 81.9126 223.474C84.3379 223.454 86.3357 223.323 88.124 221.548C88.8131 220.18 89.2537 218.777 89.6768 217.309C89.7979 216.901 89.919 216.493 90.0438 216.072C90.588 214.102 90.9102 212.767 90.4532 210.759C84.1501 209.016 77.8416 207.439 71.4309 206.136ZM60.9492 221.933C61.1879 222.105 61.4266 222.278 61.6725 222.455C64.7819 224.764 64.7819 224.764 65.6077 226.557C65.7999 226.938 65.7999 226.938 65.9959 227.327C64.1592 226.814 63.008 225.712 61.6361 224.46C60.7579 223.692 60.2704 223.49 59.1052 223.306C57.5184 223.518 57.0082 224.082 55.9419 225.205C55.4379 225.77 55.4379 225.77 55.5142 226.557C56.9234 227.319 58.3326 228.082 59.7845 228.868C59.7845 229.25 59.7845 229.631 59.7845 230.024C58.4888 229.873 57.8153 229.62 56.7274 228.868C55.3056 227.965 54.4843 227.712 52.7967 227.712C51.6958 228.125 50.6968 228.65 49.691 229.254C49.691 229.762 49.691 230.271 49.691 230.795C49.9017 230.884 50.1124 230.973 50.3295 231.064C52.0926 231.862 53.1396 232.427 53.9614 234.263C51.0227 233.224 51.0227 233.224 49.9337 232.457C48.1699 231.581 46.0805 231.657 44.1935 232.186C43.365 232.521 42.5624 232.889 41.757 233.275C38.1935 234.886 34.5465 236.094 30.8007 237.221C28.2877 238.009 25.8841 238.828 24.0691 240.813C23.7992 241.45 23.5392 242.092 23.2927 242.739C30.6096 242.748 37.9265 242.755 45.2434 242.759C48.6419 242.761 52.0404 242.764 55.439 242.768C58.4063 242.772 61.3736 242.775 64.3409 242.776C65.9074 242.776 67.4738 242.777 69.0403 242.78C76.3181 242.793 83.5702 242.709 90.8414 242.354C92.4249 236.557 90.8578 229.367 88.9004 223.859C88.1678 224.05 88.1678 224.05 87.4203 224.245C83.8972 224.929 78.9754 225.579 75.6769 223.884C74.0628 222.77 72.6276 221.397 71.2201 220.04C69.9533 218.972 68.6602 218.212 67.015 217.911C64.2729 218.365 62.5478 219.751 60.9492 221.933ZM90.4532 222.318C90.4982 222.547 90.5433 222.776 90.5896 223.012C90.7959 224.065 91.0007 225.118 91.2054 226.171C91.2762 226.531 91.347 226.891 91.42 227.262C92.2042 231.31 92.455 235.099 92.4428 239.223C92.4443 239.729 92.4458 240.234 92.4474 240.754C92.4469 241.249 92.4464 241.744 92.4459 242.255C92.4454 242.699 92.445 243.144 92.4445 243.601C92.3831 245.374 92.1839 247.139 92.0061 248.904C100.461 248.904 108.917 248.904 117.628 248.904C118.393 246.628 118.98 244.764 119.375 242.459C119.445 242.053 119.445 242.053 119.517 241.639C119.667 240.77 119.812 239.9 119.957 239.031C120.059 238.43 120.161 237.828 120.263 237.227C120.851 233.726 121.402 230.22 121.874 226.701C121.924 226.334 121.974 225.967 122.025 225.589C122.13 224.758 122.212 223.924 122.287 223.089C121.468 222.276 119.664 222.603 118.53 222.582C118.006 222.57 118.006 222.57 117.47 222.557C116.318 222.532 115.165 222.509 114.013 222.487C113.428 222.475 113.428 222.475 112.831 222.462C105.371 222.306 97.9141 222.273 90.4532 222.318ZM135.486 222.704C133.357 231.658 133.357 231.658 131.402 240.647C131.232 241.477 131.058 242.306 130.884 243.135C130.772 243.674 130.661 244.214 130.55 244.753C130.453 245.22 130.357 245.687 130.257 246.169C130.007 247.414 130.007 247.414 130.051 248.904C187.956 248.904 245.862 248.904 305.522 248.904C309.348 235.629 309.348 235.629 309.016 222.704C251.751 222.704 194.486 222.704 135.486 222.704ZM62.4986 244.516C58.4131 244.7 54.3272 244.79 50.2385 244.872C49.4418 244.889 48.6451 244.905 47.8484 244.922C45.7852 244.965 43.722 245.008 41.6587 245.049C39.5399 245.093 37.421 245.137 35.3022 245.181C31.1696 245.267 27.0371 245.352 22.9045 245.436C23.1844 246.699 23.4317 247.304 24.4573 248.133C26.6724 249.498 29.2835 249.344 31.7999 249.331C32.1425 249.331 32.4852 249.331 32.8382 249.331C33.9788 249.329 35.1193 249.325 36.2598 249.321C37.0731 249.319 37.8863 249.318 38.6995 249.316C40.8799 249.311 43.0602 249.303 45.2405 249.295C46.5739 249.289 47.9073 249.285 49.2408 249.28C54.1797 249.262 59.1185 249.236 64.0573 249.199C66.3652 249.181 68.673 249.166 70.981 249.156C73.27 249.146 75.5589 249.13 77.8478 249.111C78.7073 249.105 79.5668 249.1 80.4263 249.098C81.6121 249.094 82.7976 249.083 83.9834 249.071C84.505 249.072 84.505 249.072 85.0372 249.072C86.9934 249.043 88.3788 248.844 90.065 247.748C90.7949 246.464 90.8414 245.784 90.8414 244.28C88.0093 244.271 85.1771 244.265 82.345 244.26C81.0288 244.259 79.7126 244.256 78.3964 244.251C76.8707 244.247 75.345 244.245 73.8193 244.243C73.3644 244.241 72.9094 244.239 72.4407 244.237C69.1201 244.237 65.8151 244.363 62.4986 244.516Z" fill="black"/>
<path d="M296.206 35.6886C296.517 35.6786 296.828 35.6686 297.148 35.6583C299.277 35.6516 300.375 36.0351 302.029 37.3743C302.418 37.7596 302.418 37.7596 302.466 38.9155C302.418 40.0714 302.418 40.0714 302.029 40.4567C301.509 40.4964 300.987 40.51 300.465 40.5127C300.134 40.5151 299.802 40.5176 299.46 40.5201C299.099 40.5205 298.739 40.521 298.367 40.5214C297.999 40.5227 297.631 40.524 297.252 40.5253C296.471 40.5272 295.691 40.5281 294.911 40.5281C293.714 40.5289 292.517 40.5359 291.319 40.5432C290.563 40.5444 289.806 40.5451 289.05 40.5455C288.51 40.5496 288.51 40.5496 287.959 40.5539C287.626 40.5527 287.294 40.5515 286.951 40.5503C286.657 40.5508 286.363 40.5514 286.061 40.5519C285.336 40.4567 285.336 40.4567 284.56 39.6861C284.511 38.482 284.511 38.482 284.56 37.3743C288.337 36.0407 292.227 35.7565 296.206 35.6886Z" fill="black"/>
<path d="M278.068 43.5381C278.947 43.8851 278.681 43.7756 279.578 44.1296C279.463 47.679 279.192 51.1655 276.648 53.8785C276.463 54.0471 275.95 54.4059 275.76 54.5796C275.144 55.3543 274.872 55.8064 275.937 57.2085C277.536 58.6106 280.86 57.9025 283.396 58.2601C283.161 58.9541 282.927 59.6481 282.685 60.3632C276.113 60.6466 276.113 60.6466 273.451 58.3477C272.895 57.1132 272.761 56.0513 273.096 54.7548C273.616 54.0196 273.971 54.0196 274.628 53.2651C276.188 51.4644 276.572 49.6843 277.003 47.3938C277.636 44.3156 277.28 44.3156 278.068 43.5381Z" fill="black"/>
<path d="M225.552 42.7686C226.597 42.8365 227.621 43.0068 228.658 43.1539C228.402 44.0439 228.146 44.9339 227.882 45.851C227.113 45.851 226.344 45.851 225.552 45.851C225.405 44.9547 225.276 44.0552 225.164 43.1539C225.292 43.0267 225.42 42.8996 225.552 42.7686Z" fill="black"/>
<path d="M272.526 43.539C273.371 44.4044 273.663 45.0333 273.741 46.2391C273.652 47.6857 273.529 48.3412 272.429 49.3426C271.209 49.7554 270.628 49.7395 269.42 49.3185C268.449 48.355 268.518 47.9784 268.498 46.6455C268.487 46.3082 268.476 45.971 268.465 45.6235C268.644 44.6949 268.644 44.6949 269.355 44.0071C270.51 43.3649 271.225 43.3193 272.526 43.539Z" fill="black"/>
<path d="M291.136 43.418C292.325 43.5384 292.325 43.5384 292.974 44.0155C293.627 44.8754 293.634 45.361 293.611 46.4281C293.61 46.7261 293.608 47.0242 293.607 47.3312C293.49 48.162 293.49 48.162 292.713 49.3179C291.958 49.4308 291.958 49.4308 291.112 49.3901C290.616 49.3663 290.119 49.3425 289.608 49.3179C288.892 48.121 288.752 47.371 288.928 45.9947C288.962 45.6957 288.996 45.3967 289.031 45.0886C289.349 43.7697 289.809 43.5581 291.136 43.418Z" fill="black"/>
<path d="M322.217 45.8508C322.038 46.8733 321.899 47.6313 321.44 48.5479C320.13 49.3426 320.13 49.3426 319.404 49.6872C318.275 50.3535 317.81 51.2829 317.17 52.4009C316.658 52.2737 316.145 52.1466 315.617 52.0156C315.667 49.6502 316.464 48.5725 318.066 46.8532C319.369 45.629 320.478 45.8188 322.217 45.8508Z" fill="black"/>
<path d="M35.7169 47.7295C36.8815 47.7777 36.8815 47.7777 37.2698 48.163C37.2856 48.9334 37.2863 49.7043 37.2698 50.4748C36.373 50.6019 35.4762 50.7291 34.5523 50.8601C34.4045 49.9638 34.2756 49.0643 34.1641 48.163C34.5523 47.7777 34.5523 47.7777 35.7169 47.7295Z" fill="black"/>
<path d="M291.549 62.4189C291.549 63.4785 291.549 63.4785 291.16 64.7308C288.334 66.9633 284.257 67.1767 280.8 67.163C280.483 67.1692 280.167 67.1754 279.841 67.1818C277.881 67.1834 276.571 66.9294 274.855 65.8867C274.855 65.3781 274.855 64.8695 274.855 64.3455C275.078 64.3419 275.3 64.3383 275.529 64.3345C280.177 64.2406 284.53 63.8817 289.042 62.7425C290.384 62.4189 290.384 62.4189 291.549 62.4189Z" fill="black"/>
<path d="M353.466 77.0117C354.436 77.0599 354.436 77.0599 354.824 77.4452C354.879 78.4742 354.841 79.4967 354.824 80.5276C353.919 80.5439 353.013 80.5434 352.107 80.5276C351.979 80.4004 351.851 80.2733 351.719 80.1423C352.049 77.082 352.049 77.082 353.466 77.0117Z" fill="black"/>
<path d="M25.237 167.605C26.0162 167.716 26.7931 167.844 27.5662 167.991C27.8089 169.291 27.8089 169.291 27.9544 170.688C27.6982 170.942 27.442 171.196 27.178 171.458C25.9649 171.314 25.9649 171.314 24.8487 171.073C24.8108 168.703 24.8108 168.703 24.8487 167.991C24.9769 167.864 25.105 167.736 25.237 167.605Z" fill="black"/>
<path d="M126.948 181.862C127.728 181.973 128.504 182.101 129.278 182.248C129.278 183.265 129.278 184.282 129.278 185.33C128.161 185.571 128.161 185.571 126.948 185.715C126.692 185.461 126.436 185.207 126.172 184.945C126.396 182.411 126.396 182.411 126.948 181.862Z" fill="black"/>
<path d="M372.295 207.292C372.423 208.182 372.551 209.072 372.683 209.989C371.53 209.989 370.377 209.989 369.189 209.989C368.922 209.098 368.922 209.098 368.801 208.063C369.68 206.523 370.737 206.914 372.295 207.292Z" fill="black"/>
</g>
<defs>
<clipPath id="clip0_244_981">
<rect width="382" height="250.831" fill="white"/>
</clipPath>
</defs>
</svg>
