<svg width="350" height="320" viewBox="0 0 350 320" fill="none" xmlns="http://www.w3.org/2000/svg">
<path d="M292.315 3.74957C296.159 6.64033 298.353 10.4773 299.125 15.2228C299.627 20.6071 298.459 25.9899 294.993 30.2442C292.892 32.5335 290.463 34.1785 287.876 35.8774C285.039 37.7767 283.211 39.5091 282.393 42.9145C282.262 43.5805 282.14 44.2484 282.03 44.9183C281.881 45.6764 281.881 45.6764 281.503 46.0547C280.833 46.0923 280.163 46.1042 279.492 46.105C279.085 46.1054 278.678 46.1059 278.259 46.1064C277.831 46.105 277.403 46.1035 276.961 46.102C276.533 46.1035 276.105 46.1049 275.663 46.1064C275.256 46.1059 274.849 46.1055 274.43 46.105C274.054 46.1045 273.678 46.1041 273.29 46.1037C272.42 46.0547 272.42 46.0547 272.041 45.6764C271.49 41.452 272.956 37.4804 275.419 34.1056C277.664 31.4945 280.191 29.4674 282.963 27.4446C285.343 25.6731 287.591 23.7193 288.315 20.7083C288.632 17.9046 288.538 15.4518 286.801 13.1422C284.889 11.0433 282.845 10.4627 280.083 10.3285C277.686 10.3821 275.846 10.9137 273.934 12.3856C273.012 13.4448 272.321 14.5533 271.663 15.7903C271.534 16.0293 271.406 16.2682 271.274 16.5144C271.012 17.0232 270.767 17.5406 270.527 18.0601C268.24 17.6707 265.961 17.2398 263.692 16.7597C263.281 16.6744 262.871 16.589 262.448 16.5011C261.444 16.1686 261.444 16.1686 260.688 15.0337C261.617 10.3819 264.604 6.20796 268.362 3.42446C275.59 -1.25953 285.245 -1.12632 292.315 3.74957Z" fill="black"/>
<path d="M172.123 33.9489C173.022 34.5164 173.022 34.5164 173.637 35.0839C173.512 35.4584 173.387 35.8329 173.258 36.2188C173.043 36.21 172.828 36.2012 172.607 36.1922C170.637 36.1462 169.068 36.3409 167.203 36.9754C167.203 36.476 167.203 35.9767 167.203 35.4622C168.691 34.077 170.126 33.786 172.123 33.9489Z" fill="black"/>
<path d="M189.536 34.7057C190.293 35.4623 190.293 35.4623 190.293 36.9755C188.045 36.7258 185.797 36.4761 183.48 36.2189C183.605 35.7195 183.73 35.2202 183.859 34.7057C186.071 33.8766 187.292 33.9454 189.536 34.7057Z" fill="black"/>
<path d="M170.61 38.8672C172.455 39.1982 172.455 39.1982 172.881 39.6238C173.049 41.2221 173.136 42.5914 172.313 43.998C172.125 44.1774 171.938 44.3569 171.745 44.5418C170.279 44.2107 170.279 44.2107 169.853 43.7852C169.806 43.1718 169.786 42.5561 169.782 41.9409C169.777 41.6064 169.771 41.2718 169.766 40.9272C169.853 40.0021 169.853 40.0021 170.61 38.8672Z" fill="black"/>
<path d="M185.374 39.2441C186.154 39.4096 186.154 39.4096 186.888 39.6224C187.2 41.0673 187.376 41.9839 186.84 43.3819C186.131 44.1621 186.131 44.1621 185.114 44.2803C184.825 44.2413 184.536 44.2023 184.239 44.1621C183.727 41.7919 183.727 41.7919 184.38 40.4263C184.995 39.6224 184.995 39.6224 185.374 39.2441Z" fill="black"/>
<path d="M178.937 40.3789C179.691 40.4232 179.691 40.4232 180.45 40.7572C182.07 43.2222 183.002 46.5405 182.721 49.4582C182.134 50.3852 181.694 50.5542 180.663 50.9242C179.694 50.9714 179.694 50.9714 178.818 50.4276C178.608 50.2326 178.397 50.0375 178.18 49.8365C178.305 49.2123 178.429 48.5881 178.558 47.945C179.058 47.945 179.557 47.945 180.072 47.945C179.967 47.6436 179.862 47.3423 179.754 47.0318C179.617 46.6309 179.48 46.23 179.339 45.817C179.135 45.2245 179.135 45.2245 178.926 44.6201C178.571 43.4464 178.29 42.3574 178.18 41.1355C178.429 40.8858 178.679 40.6362 178.937 40.3789Z" fill="black"/>
<path d="M278.851 52.8626C280.691 53.748 281.698 54.8401 282.636 56.6456C283.121 58.2769 283.085 59.4248 282.612 61.0671C281.655 62.7019 280.569 63.7313 278.851 64.59C276.987 64.7945 275.494 64.796 273.789 63.9753C272.388 62.7082 271.419 61.7475 271.137 59.8154C271.067 58.0943 271.154 56.9162 271.897 55.3452C274.008 53.0683 275.793 52.3747 278.851 52.8626Z" fill="black"/>
<path d="M179.338 54.5898C180.45 55.5119 180.45 55.5119 180.852 56.8833C180.829 58.1601 180.829 58.1601 180.072 58.9167C179.315 58.8694 179.315 58.8694 178.558 58.5384C178.085 57.7581 178.085 57.7581 177.801 57.0251C175.312 56.8851 175.312 56.8851 173.259 58.1601C172.408 58.0418 172.408 58.0418 171.746 57.7818C171.462 56.9306 171.462 56.9306 171.367 55.8902C173.239 53.4849 176.681 53.3029 179.338 54.5898Z" fill="black"/>
<path d="M254.701 76.0825C254.927 76.1606 255.154 76.2386 255.387 76.319C255.624 77.4066 255.624 77.4066 255.765 78.5888C255.009 79.3454 255.009 79.3454 254.062 79.44C253.116 79.3454 253.116 79.3454 252.359 78.5888C252.43 77.6431 252.43 77.6431 252.738 76.6973C253.873 75.9407 253.873 75.9407 254.701 76.0825Z" fill="black"/>
<path d="M169.902 9.09851C170.99 9.3586 170.99 9.3586 171.368 9.7369C172.167 9.78007 172.967 9.82063 173.766 9.84653C179.635 10.0387 184.287 11.2777 188.466 15.6834C190.106 17.7337 191.396 19.9894 191.805 22.5993C192.113 22.609 192.421 22.6188 192.738 22.6288C197.435 22.8612 203.505 23.3673 207.208 26.5582C207.7 27.1389 207.7 27.1389 207.677 28.0847C207.251 29.2208 206.843 29.5568 205.808 30.1654C204.784 30.5068 204.204 30.5885 203.154 30.5806C202.725 30.5788 202.725 30.5788 202.286 30.5769C201.84 30.5722 201.84 30.5722 201.385 30.5673C200.932 30.5648 200.932 30.5648 200.471 30.5622C199.727 30.5577 198.983 30.5509 198.239 30.5437C198.202 30.7631 198.165 30.9826 198.127 31.2087C197.715 33.3598 197.177 35.0102 195.59 36.5966C195.548 37.3282 195.531 38.0612 195.523 38.794C195.383 46.9245 195.085 55.7663 189.534 62.3213C188.791 62.9695 188.026 63.5875 187.264 64.2128C187.622 64.2183 187.98 64.2239 188.349 64.2295C189.709 64.2519 191.069 64.2811 192.429 64.3121C193.011 64.3245 193.594 64.3352 194.177 64.3439C201.442 64.4554 208.491 65.2501 214.134 70.2657C214.354 70.4457 214.573 70.6256 214.799 70.811C222.429 77.6042 225.25 89.9198 228.433 99.2355C228.887 100.563 229.35 101.885 229.839 103.2C230.013 103.668 230.186 104.137 230.365 104.619C230.52 105.027 230.674 105.436 230.833 105.857C231.154 106.925 231.234 107.746 231.165 108.853C228.658 109.988 228.658 109.988 227.38 109.988C227.719 111.71 228.061 113.43 228.408 115.151C228.525 115.733 228.64 116.315 228.755 116.898C229.77 122.066 230.84 127.418 233.459 132.048C233.603 132.31 233.746 132.572 233.894 132.842C235.551 135.818 237.39 138.682 239.238 141.541C239.915 142.594 240.587 143.65 241.258 144.708C242.905 147.308 242.905 147.308 244.562 149.902C244.972 150.539 245.377 151.179 245.778 151.821C245.973 152.127 246.169 152.433 246.37 152.748C246.541 153.02 246.712 153.293 246.889 153.573C247.849 154.754 249.038 155.022 250.466 155.384C251.098 155.594 251.729 155.806 252.358 156.023C252.863 156.189 253.368 156.354 253.872 156.519C255.626 154.067 257.273 151.575 258.84 149C261.092 145.332 263.42 141.718 265.779 138.117C266.687 136.727 267.589 135.333 268.49 133.939C268.833 133.41 269.175 132.88 269.518 132.351C269.769 131.963 269.769 131.963 270.025 131.567C270.514 130.81 271.005 130.054 271.496 129.298C273.565 126.108 275.62 122.909 277.668 119.705C279.696 116.533 281.737 113.37 283.794 110.217C285.455 107.666 287.098 105.104 288.738 102.54C291.107 98.8356 293.477 95.1324 295.881 91.4508C296.079 91.1475 296.276 90.8441 296.479 90.5316C297.097 89.5832 297.719 88.6371 298.341 87.6914C298.532 87.3976 298.723 87.1038 298.92 86.8011C299.1 86.5297 299.28 86.2583 299.465 85.9787C299.623 85.7383 299.78 85.4979 299.943 85.2502C300.423 84.6413 300.423 84.6413 301.558 83.8847C302.652 83.7886 302.652 83.7886 304.003 83.7868C304.249 83.7855 304.495 83.7841 304.749 83.7828C305.562 83.7794 306.376 83.7816 307.189 83.7842C307.754 83.7837 308.319 83.783 308.884 83.782C310.068 83.7809 311.252 83.7825 312.436 83.7861C313.955 83.7904 315.474 83.7879 316.993 83.7834C318.16 83.7806 319.326 83.7815 320.493 83.7835C321.053 83.784 321.613 83.7833 322.173 83.7816C322.955 83.7797 323.737 83.7826 324.519 83.7868C324.965 83.7874 325.41 83.788 325.869 83.7886C326.915 83.8847 326.915 83.8847 327.672 84.6413C327.749 85.5789 327.778 86.4746 327.775 87.4129C327.776 87.7019 327.778 87.9909 327.78 88.2886C327.786 89.2622 327.786 90.2356 327.786 91.2092C327.789 91.905 327.792 92.6009 327.796 93.2967C327.803 94.7977 327.807 96.2986 327.81 97.7995C327.815 100.171 327.824 102.542 327.835 104.913C327.85 108.662 327.863 112.412 327.873 116.161C327.893 122.878 327.916 129.595 327.943 136.312C327.953 138.671 327.96 141.03 327.966 143.39C327.97 144.855 327.975 146.32 327.981 147.785C327.983 148.467 327.985 149.149 327.986 149.831C327.987 150.758 327.991 151.685 327.995 152.613C327.995 152.885 327.995 153.158 327.995 153.439C327.985 154.837 327.985 154.837 328.429 156.141C328.816 156.15 329.204 156.16 329.604 156.17C331.038 156.205 332.472 156.243 333.905 156.282C334.527 156.298 335.148 156.314 335.77 156.329C336.662 156.351 337.553 156.375 338.444 156.4C338.724 156.406 339.003 156.412 339.291 156.419C341.253 156.476 341.253 156.476 341.675 156.898C341.712 157.453 341.723 158.01 341.724 158.567C341.725 159.099 341.725 159.099 341.727 159.642C341.726 160.027 341.726 160.413 341.725 160.811C341.725 161.204 341.726 161.597 341.726 162.002C341.726 162.835 341.726 163.669 341.724 164.502C341.722 165.782 341.724 167.062 341.726 168.343C341.726 169.15 341.726 169.957 341.725 170.765C341.726 171.151 341.726 171.536 341.727 171.934C341.726 172.289 341.725 172.643 341.724 173.009C341.723 173.48 341.723 173.48 341.723 173.96C341.675 174.678 341.675 174.678 341.296 175.056C340.315 175.117 339.344 175.154 338.362 175.176C337.921 175.188 337.921 175.188 337.472 175.2C336.531 175.225 335.59 175.247 334.65 175.269C334.013 175.285 333.377 175.302 332.74 175.319C331.177 175.359 329.614 175.397 328.05 175.435C328.052 175.706 328.053 175.978 328.055 176.257C328.07 178.818 328.082 181.378 328.089 183.939C328.093 185.255 328.099 186.571 328.107 187.888C328.117 189.401 328.121 190.915 328.124 192.429C328.128 192.901 328.132 193.373 328.136 193.859C328.136 194.518 328.136 194.518 328.136 195.19C328.138 195.577 328.139 195.963 328.141 196.361C328.049 197.391 327.822 198.01 327.293 198.889C324.397 198.899 321.5 198.906 318.603 198.91C317.617 198.912 316.631 198.915 315.645 198.918C314.23 198.923 312.816 198.925 311.401 198.926C310.958 198.928 310.515 198.93 310.058 198.932C309.649 198.932 309.24 198.932 308.818 198.932C308.276 198.934 308.276 198.934 307.723 198.935C306.856 198.889 306.856 198.889 306.1 198.511C305.705 197.329 305.662 196.474 305.643 195.233C305.636 194.788 305.628 194.343 305.62 193.884C305.614 193.416 305.608 192.948 305.601 192.466C305.594 192.035 305.587 191.605 305.58 191.162C305.554 189.553 305.531 187.944 305.508 186.334C305.454 182.737 305.399 179.14 305.343 175.435C290.855 175.435 276.368 175.435 261.441 175.435C262.69 177.432 263.939 179.429 265.226 181.487C266.582 185.101 266.582 185.101 265.983 186.784C265.155 187.871 265.155 187.871 264.091 188.675C262.837 188.793 262.837 188.793 261.82 188.675C261.718 188.972 261.617 189.268 261.512 189.574C261.063 190.567 261.063 190.567 259.928 191.323C257.771 191.5 256.527 191.327 254.629 190.188C254.442 190.376 254.255 190.563 254.062 190.756C252.688 191.58 251.617 191.651 250.088 191.323C242.731 188.411 237.474 181.672 234.192 174.678C233.263 172.43 232.4 170.108 232.18 167.678C231.841 165.945 231.123 165.08 230.029 163.707C229.939 164.005 229.848 164.304 229.754 164.611C226.35 175.64 221.858 185.22 213.756 193.593C213.463 193.901 213.17 194.209 212.869 194.526C212.592 194.811 212.315 195.096 212.029 195.39C211.776 195.651 211.522 195.912 211.262 196.18C210.35 196.998 210.35 196.998 209.358 197.517C208.087 198.228 207.399 198.819 206.565 200.024C205.924 202.779 206.356 205.761 206.543 208.551C206.587 209.435 206.63 210.319 206.671 211.203C206.763 213.111 206.867 215.019 206.981 216.926C207.16 219.954 207.314 222.983 207.462 226.013C207.513 227.059 207.565 228.104 207.616 229.149C207.629 229.412 207.642 229.674 207.656 229.944C207.749 231.837 207.847 233.731 207.946 235.624C208.538 246.969 208.974 258.319 209.388 269.671C209.492 272.512 209.599 275.353 209.709 278.194C209.792 280.343 209.874 282.492 209.954 284.641C210.001 285.887 210.048 287.132 210.097 288.378C210.15 289.73 210.2 291.083 210.249 292.436C210.265 292.834 210.281 293.233 210.298 293.643C210.31 294.005 210.323 294.366 210.336 294.739C210.348 295.053 210.36 295.366 210.372 295.689C210.35 296.492 210.35 296.492 209.971 297.627C209.061 298.082 208.476 298.043 207.464 298.029C207.155 298.026 206.845 298.022 206.527 298.019C206.171 298.012 206.171 298.012 205.808 298.005C207.751 301.553 211.581 303.058 215.104 304.72C215.512 304.915 215.92 305.11 216.341 305.311C219.587 306.843 222.88 308.246 226.224 309.554C232.025 311.872 232.025 311.872 233.083 313.92C234.051 314.888 234.837 314.83 236.165 314.839C236.486 314.834 236.808 314.828 237.139 314.823C237.479 314.823 237.819 314.823 238.169 314.823C239.293 314.822 240.417 314.81 241.541 314.799C242.32 314.796 243.099 314.794 243.878 314.792C245.93 314.786 247.981 314.771 250.032 314.755C252.125 314.739 254.218 314.732 256.311 314.725C260.418 314.708 264.525 314.683 268.632 314.651C268.76 314.263 268.887 313.876 269.019 313.477C269.189 312.962 269.359 312.448 269.529 311.933C269.613 311.678 269.697 311.424 269.783 311.162C270.439 309.183 271.184 307.284 272.086 305.406C272.228 305.108 272.37 304.809 272.516 304.502C273.939 301.612 275.7 298.998 277.602 296.406C278.408 295.307 279.195 294.196 279.986 293.087C280.61 293.212 281.235 293.337 281.878 293.466C281.975 298.946 281.789 304.291 281.121 309.733C281.323 309.357 281.525 308.982 281.733 308.595C284.531 303.466 287.651 298.82 291.718 294.601C291.899 294.41 292.08 294.219 292.266 294.023C295.466 290.664 298.823 287.722 302.693 285.143C303.711 285.285 303.711 285.285 304.586 285.521C304.391 287.645 303.567 289.156 302.552 290.983C301.03 293.793 299.596 296.633 298.223 299.519C298.055 299.87 297.887 300.222 297.715 300.585C296.573 302.992 295.464 305.413 294.367 307.841C294.524 307.678 294.68 307.515 294.841 307.348C299.099 302.992 303.938 299.692 309.506 297.249C309.853 297.095 310.199 296.942 310.557 296.783C311.6 296.422 312.243 296.571 313.29 296.87C313.14 298.765 312.14 299.772 310.901 301.103C308.074 304.255 305.352 307.823 303.45 311.624C303.87 311.387 304.289 311.15 304.722 310.906C305.276 310.594 305.83 310.282 306.383 309.969C306.66 309.813 306.936 309.657 307.22 309.496C307.488 309.345 307.757 309.194 308.033 309.038C308.279 308.9 308.525 308.761 308.778 308.618C310.266 307.804 311.18 307.367 312.912 307.463C313.29 308.976 313.29 308.976 310.263 315.029C320.129 315.029 329.995 315.029 340.161 315.029C340.286 315.653 340.411 316.278 340.539 316.921C340.161 317.299 340.161 317.299 339.434 317.346C339.113 317.346 338.791 317.346 338.459 317.345C338.089 317.346 337.72 317.347 337.338 317.348C336.722 317.346 336.722 317.346 336.092 317.344C335.659 317.345 335.226 317.345 334.78 317.345C333.573 317.346 332.365 317.345 331.158 317.343C329.858 317.341 328.558 317.342 327.258 317.342C325.004 317.342 322.75 317.341 320.496 317.339C317.237 317.336 313.978 317.335 310.719 317.334C305.432 317.334 300.145 317.331 294.858 317.327C289.721 317.324 284.583 317.321 279.446 317.32C279.13 317.32 278.813 317.32 278.487 317.319C276.9 317.319 275.313 317.318 273.725 317.318C260.548 317.314 247.37 317.307 234.192 317.299C234.192 317.798 234.192 318.298 234.192 318.812C232.61 319.577 231.192 319.679 229.465 319.673C229.185 319.675 228.905 319.677 228.617 319.679C227.689 319.684 226.761 319.683 225.832 319.683C225.174 319.684 224.515 319.686 223.857 319.687C222.467 319.69 221.078 319.69 219.688 319.688C218.294 319.686 216.901 319.689 215.507 319.696C205.121 319.748 194.512 319.768 184.236 318.056C184.111 317.931 183.986 317.806 183.858 317.677C182.798 317.637 181.749 317.622 180.689 317.622C180.357 317.621 180.024 317.62 179.682 317.618C178.577 317.615 177.472 317.614 176.367 317.614C175.601 317.612 174.834 317.611 174.068 317.61C172.459 317.608 170.849 317.607 169.239 317.607C167.178 317.607 165.117 317.602 163.056 317.595C161.472 317.591 159.888 317.591 158.304 317.591C157.544 317.59 156.784 317.589 156.024 317.586C154.96 317.582 153.896 317.583 152.831 317.585C152.361 317.582 152.361 317.582 151.882 317.579C150.147 317.588 148.785 317.795 147.147 318.434C145.682 318.7 144.203 318.854 142.724 319.025C142.343 319.072 141.962 319.12 141.57 319.169C135.705 319.863 129.817 320.011 123.917 319.996C122.965 319.994 122.014 319.996 121.063 319.999C113.326 320.003 113.326 320.003 110.815 319.569C110.565 319.319 110.316 319.069 110.058 318.812C110.058 318.313 110.058 317.813 110.058 317.299C75.9628 317.299 41.8675 317.299 6.73904 317.299C6.5517 316.363 6.5517 316.363 6.36058 315.407C7.09996 314.668 8.22789 314.984 9.21188 314.982C9.56795 314.983 9.92402 314.985 10.2909 314.986C10.8502 314.986 10.8502 314.986 11.4208 314.986C12.6597 314.986 13.8986 314.989 15.1376 314.992C15.994 314.993 16.8505 314.993 17.7069 314.994C19.9661 314.995 22.2252 314.999 24.4844 315.003C26.7877 315.007 29.091 315.009 31.3943 315.011C35.9173 315.015 40.4403 315.021 44.9633 315.029C44.9623 314.707 44.9613 314.385 44.9603 314.053C44.9571 312.837 44.9547 311.622 44.9529 310.406C44.952 309.884 44.9507 309.362 44.9491 308.839C44.9367 304.835 45.0387 300.862 45.3418 296.87C43.9671 297.612 42.5952 298.358 41.2255 299.108C40.7616 299.361 40.2971 299.613 39.8318 299.864C36.0341 301.911 32.2159 304.101 29.281 307.321C28.3112 308.22 28.3112 308.22 27.3592 308.185C26.4189 307.841 26.4189 307.841 25.9154 307.159C25.7307 306.717 25.7307 306.717 25.5422 306.266C25.4022 305.938 25.2621 305.61 25.1178 305.271C24.9071 304.741 24.9071 304.741 24.6922 304.2C24.5446 303.84 24.3971 303.479 24.245 303.108C21.6892 296.729 20.2818 290.814 23.0113 284.234C24.6108 280.998 27.2942 278.626 30.7046 277.434C33.3058 276.83 36.1272 276.829 38.6123 277.883C39.4423 278.438 39.9322 279.081 40.5401 279.87C41.6287 281.246 42.4074 281.611 44.1354 281.904C44.7898 281.975 45.4442 282.046 46.0987 282.117C46.3485 282.241 46.5983 282.366 46.8556 282.495C47.1651 278.368 47.2925 274.243 47.3287 270.105C47.3367 269.654 47.3448 269.202 47.3531 268.737C47.3718 263.875 46.4402 259.581 44.2064 255.257C44.1279 255.522 44.0493 255.787 43.9684 256.061C42.6328 260.172 40.1259 263.118 36.2529 265.106C32.0515 266.778 27.4502 266.016 23.3912 264.336C20.3417 262.909 17.5343 261.222 14.7576 259.324C11.9812 257.452 9.69063 256.041 6.25414 255.844C5.89197 255.823 5.52979 255.802 5.15665 255.78C3.53987 255.707 1.92344 255.661 0.305248 255.635C-0.146202 254.324 -0.087487 253.781 0.419081 252.464C0.665054 251.988 0.919352 251.516 1.18043 251.048C1.31816 250.799 1.45589 250.549 1.59779 250.291C5.4538 243.567 12.271 239.235 19.6253 237.153C27.1217 235.153 35.693 234.997 42.7635 238.541C44.9396 239.858 46.4828 241.211 47.2577 243.671C47.2192 245.906 46.6926 247.757 45.2235 249.464C44.4573 250.301 44.4573 250.301 44.7268 251.379C45.2403 252.406 45.7761 253.258 46.4299 254.193C47.729 256.058 48.4414 258.02 49.1264 260.175C49.5599 258.298 49.954 256.422 50.2913 254.525C51.659 246.874 53.1663 239.824 58.2094 233.694C58.0498 233.438 57.8903 233.182 57.7259 232.919C57.5186 232.582 57.3113 232.244 57.0976 231.897C56.8913 231.563 56.6849 231.229 56.4723 230.886C55.5336 229.17 55.4255 227.701 55.5602 225.749C56.2837 223.664 57.5033 222.363 59.3447 221.209C67.0626 217.485 76.6865 217.871 84.7014 220.453C88.5029 221.785 91.8082 223.543 94.9198 226.127C95.2462 226.397 95.5726 226.666 95.9088 226.943C98.0464 228.785 100.357 230.823 101.732 233.315C101.739 234.326 101.739 234.326 101.354 235.207C99.704 236.158 97.8184 236.215 95.9576 236.433C91.9823 237.238 88.7351 239.097 85.3164 241.212C78.7965 245.231 72.161 249.088 64.2632 247.456C61.9191 246.651 60.2094 245.305 58.9663 243.151C58.4532 241.657 58.1032 240.167 57.8309 238.611C52.8987 247.563 52.0595 258.863 51.0187 268.876C51.1436 268.751 51.2684 268.626 51.3971 268.498C51.8122 268.124 52.2306 267.754 52.6508 267.386C52.8757 267.188 53.1006 266.989 53.3323 266.785C54.8177 265.626 55.8479 265.379 57.7363 265.424C58.109 265.431 58.4817 265.437 58.8658 265.445C59.2902 265.458 59.2902 265.458 59.7232 265.471C59.7544 265.034 59.7856 264.597 59.8178 264.147C60.1793 261.383 61.3395 259.336 63.5433 257.623C66.0285 255.989 68.5209 255.672 71.4554 256.014C78.0413 257.384 82.9277 262.494 86.5317 267.911C91.3853 275.691 93.8501 284.198 93.8554 293.347C93.86 293.769 93.8647 294.191 93.8695 294.625C93.8702 295.032 93.8709 295.439 93.8717 295.858C93.8732 296.225 93.8748 296.592 93.8764 296.97C93.7764 298.096 93.5578 298.899 93.0275 299.897C91.8922 300.275 91.8922 300.275 91.0835 299.935C90.7649 299.751 90.4464 299.567 90.1181 299.377C89.5656 299.063 89.5656 299.063 89.002 298.743C88.5819 298.499 88.1619 298.256 87.7291 298.005C80.6034 293.916 73.9943 291.159 65.8505 289.856C63.2731 289.432 60.9864 288.839 58.5878 287.791C54.4274 295.723 53.2239 304.721 52.6209 313.549C52.5325 314.272 52.5325 314.272 52.154 315.029C59.5296 314.997 66.9052 314.961 74.2808 314.92C77.7053 314.901 81.1298 314.884 84.5544 314.869C87.5388 314.857 90.5233 314.842 93.5077 314.824C95.0883 314.814 96.6688 314.806 98.2494 314.801C99.7367 314.796 101.224 314.788 102.711 314.777C103.257 314.773 103.804 314.771 104.35 314.77C105.095 314.769 105.84 314.763 106.586 314.756C107.003 314.754 107.42 314.752 107.85 314.75C109.216 314.624 110.053 314.306 110.988 313.303C111.157 313.081 111.327 312.86 111.501 312.632C112.64 311.256 113.825 310.394 115.357 309.496C115.737 309.266 115.737 309.266 116.125 309.03C117.731 308.06 119.352 307.117 120.97 306.167C121.532 305.836 121.532 305.836 122.106 305.499C122.848 305.064 123.591 304.632 124.335 304.201C124.847 303.903 124.847 303.903 125.369 303.599C125.674 303.423 125.978 303.247 126.292 303.065C127.755 302.11 128.355 301.305 128.863 299.637C128.958 299.331 129.053 299.025 129.151 298.71C129.22 298.478 129.289 298.245 129.36 298.005C129.004 298.019 129.004 298.019 128.641 298.032C128.177 298.042 128.177 298.042 127.704 298.053C127.396 298.061 127.089 298.07 126.772 298.079C125.953 298.005 125.953 298.005 125.196 297.249C125.176 296.075 125.209 294.943 125.277 293.773C125.297 293.393 125.316 293.012 125.337 292.621C125.655 286.691 126.074 280.766 126.481 274.842C126.603 273.055 126.724 271.268 126.845 269.481C127.05 266.47 127.255 263.458 127.461 260.447C127.72 256.653 127.978 252.86 128.235 249.066C129.928 224.138 129.928 224.138 130.6 214.83C130.619 214.574 130.637 214.319 130.656 214.056C130.839 211.522 131.024 208.989 131.211 206.457C131.268 205.68 131.325 204.904 131.381 204.128C131.407 203.789 131.433 203.45 131.459 203.101C131.925 199.728 131.925 199.728 131.128 196.661C130.888 196.491 130.648 196.322 130.4 196.147C118.137 186.521 112.356 171.123 110.326 156.078C110.009 153.366 109.988 150.654 109.988 147.927C109.987 147.138 109.98 146.349 109.973 145.56C109.96 142.345 110.215 139.257 110.815 136.091C110.456 136.083 110.097 136.075 109.727 136.067C106.753 135.634 104.165 133.148 102.332 130.895C99.1998 126.422 97.8074 121.027 96.989 115.696C96.9408 115.386 96.8927 115.076 96.8431 114.756C96.3522 111.493 96.04 108.221 95.7566 104.935C95.6999 104.298 95.643 103.662 95.586 103.025C95.4681 101.704 95.3519 100.383 95.2369 99.0624C95.0912 97.3875 94.9426 95.7128 94.7929 94.0382C94.6479 92.4138 94.5045 90.7893 94.361 89.1647C94.3344 88.865 94.3078 88.5653 94.2804 88.2565C94.2036 87.3888 94.1279 86.5211 94.0526 85.6533C94.0165 85.2421 94.0165 85.2421 93.9797 84.8225C93.8615 83.4344 93.7632 82.0482 93.6954 80.6567C93.6813 80.3806 93.6673 80.1046 93.6528 79.8201C93.6163 79.0641 93.5849 78.3079 93.554 77.5516C93.3741 76.0531 93.0121 75.2497 91.9129 74.235C90.5657 73.257 89.1873 72.3359 87.7868 71.4361C82.0443 67.6236 75.9273 62.0569 74.1046 55.1335C73.9102 53.4957 73.9206 52.7836 74.7906 51.3741C75.6185 50.5939 75.6185 50.5939 76.7538 50.5939C76.7226 50.1959 76.6914 49.798 76.6592 49.388C76.7698 47.7019 77.0373 47.1869 78.2677 46.0542C79.0197 45.7879 79.7769 45.5355 80.5384 45.2976C80.7804 45.0401 81.0224 44.7826 81.2717 44.5173C82.0522 43.7844 82.0522 43.7844 83.2822 43.3588C85.9984 43.4493 87.4891 45.414 89.2918 47.2878C92.5619 50.6783 96.271 53.221 100.597 55.1335C100.846 55.1335 101.096 55.1335 101.354 55.1335C101.318 54.9097 101.281 54.6858 101.244 54.4552C100.806 51.3354 100.806 51.3354 101.732 49.8372C102.418 49.1279 102.418 49.1279 103.246 48.7023C105.162 48.8929 105.86 49.5974 107.042 51.0357C111.015 56.7478 113.176 62.529 112.156 69.5682C112.028 70.2365 111.891 70.9032 111.738 71.5661C111.29 74.188 111.79 76.4806 112.424 79.014C112.508 79.3625 112.593 79.7111 112.681 80.0701C113.348 82.7621 114.104 85.4135 114.978 88.0461C115.084 87.8351 115.191 87.6242 115.3 87.4068C120.186 77.763 125.438 68.5093 136.172 64.5911C142.455 62.7478 148.82 63.3825 155.248 64.0099C155.654 64.0466 156.059 64.0834 156.477 64.1212C156.84 64.1569 157.203 64.1925 157.577 64.2293C158.6 64.2942 158.6 64.2942 159.636 63.4562C160.126 60.7071 159.561 58.2485 158.496 55.7187C158.142 54.8056 157.994 54.0173 157.862 53.0528C157.535 51.7072 157.535 51.7072 156.669 51.411C156.076 51.256 155.482 51.1045 154.888 50.9559C152.676 50.0935 151.342 47.8814 150.175 45.9123C149.496 43.4544 149.35 41.0496 150.459 38.7009C151.106 37.5824 151.806 36.6541 152.824 35.84C153.074 35.84 153.324 35.84 153.581 35.84C153.573 35.5812 153.565 35.3224 153.557 35.0558C153.356 27.4907 153.584 21.3279 158.998 15.4824C160.888 13.7158 163.155 12.1887 165.692 11.5811C166.865 11.3756 166.865 11.3756 167.3 10.4935C167.44 10.119 167.44 10.119 167.584 9.7369C168.719 8.98029 168.719 8.98029 169.902 9.09851ZM159.636 18.4379C156.713 22.0499 155.773 26.7646 155.852 31.3003C156.227 31.1082 156.603 30.916 156.99 30.7181C167.459 25.3972 177.409 22.6023 189.156 22.221C188.135 18.8602 185.986 16.2771 183.101 14.2766C175.533 10.5169 165.418 12.12 159.636 18.4379ZM164.178 29.4088C164.178 29.5336 164.178 29.6584 164.178 29.7871C171.601 31.1698 179.711 30.1289 187.142 29.1191C187.892 29.0181 188.642 28.9177 189.392 28.8177C189.762 28.7683 190.132 28.719 190.513 28.6682C195.088 28.0945 199.688 27.9925 204.294 27.8955C203.967 27.0253 203.967 27.0253 202.893 26.7606C202.228 26.5734 202.228 26.5734 201.55 26.3823C201.119 26.2575 200.688 26.1326 200.244 26.004C195.894 24.9279 191.578 24.7018 187.122 24.7036C186.823 24.7033 186.524 24.703 186.217 24.7028C178.339 24.7219 171.461 26.4608 164.178 29.4088ZM188.501 30.8614C180.143 32.1082 171.863 32.3622 163.421 32.4352C163.329 32.8273 163.237 33.2194 163.143 33.6233C163.015 34.1416 162.887 34.6598 162.758 35.1779C162.669 35.5649 162.669 35.5649 162.578 35.9597C162.17 37.5764 161.754 38.6228 160.393 39.623C158.075 39.6667 156.835 38.7374 155.095 37.3532C153.417 38.5928 152.445 39.3731 152.067 41.5145C152.115 44.4705 153.221 46.3921 155.237 48.5132C156.504 49.2373 157.441 49.1077 158.879 49.0806C159.735 50.3633 159.994 51.4184 160.369 52.911C160.783 54.5402 161.216 56.1372 161.812 57.7107C162.583 59.954 162.637 62.1282 161.812 64.3547C161.15 65.3477 161.15 65.3477 160.298 66.0807C159.51 66.8469 159.51 66.8469 159.589 68.0905C160.434 70.9064 162.506 73.1807 164.935 74.8054C169.073 76.9522 173.235 77.8622 177.852 76.8033C180.652 75.7422 182.691 74.2464 183.951 71.4745C184.421 70.1066 184.705 68.689 184.614 67.2393C184.365 66.9896 184.115 66.7399 183.858 66.4827C182.648 66.5967 181.49 66.7983 180.305 67.0619C179.264 67.2485 178.291 67.3028 177.234 67.3102C176.887 67.3156 176.54 67.3209 176.182 67.3265C175.079 67.233 174.262 66.9415 173.261 66.4827C173.261 65.9833 173.261 65.4839 173.261 64.9694C173.727 64.9914 174.193 65.0133 174.674 65.0359C179.273 65.188 182.862 64.8372 186.625 61.9194C191.63 57.1041 192.865 49.782 193.011 43.1445C193.022 42.2071 193.03 41.2697 193.035 40.3323C193.039 39.8861 193.042 39.4398 193.046 38.9801C193.035 36.0973 192.751 33.37 192.184 30.5437C190.887 30.5437 189.774 30.6596 188.501 30.8614ZM82.8092 46.0542C83.3731 47.9033 84.4316 49.0008 85.7422 50.3574C86.153 50.7931 86.5634 51.229 86.9737 51.6652C87.1699 51.8723 87.366 52.0794 87.5682 52.2927C90.4216 55.3131 90.4216 55.3131 90.7568 57.025C88.5667 56.2451 87.3441 55.2958 85.8368 53.5494C85.6423 53.3313 85.4478 53.1132 85.2473 52.8885C84.6825 52.2535 84.1238 51.6135 83.5661 50.9722C83.2753 50.6435 82.9846 50.3148 82.685 49.9761C82.0912 49.303 81.5015 48.6268 80.9169 47.9457C80.4173 48.0706 79.9177 48.1954 79.403 48.324C79.1276 49.0119 79.1276 49.0119 79.0246 49.8372C79.3531 50.5355 79.3531 50.5355 79.9234 51.185C80.1337 51.4463 80.3439 51.7077 80.5606 51.977C80.803 52.2696 81.0455 52.5622 81.2953 52.8637C81.5651 53.2031 81.8349 53.5425 82.1129 53.8922C82.9605 54.9502 83.8253 55.9906 84.7014 57.025C85.0022 57.3886 85.0022 57.3886 85.3091 57.7595C87.4276 60.1058 90.3079 61.5345 93.0275 63.0779C93.872 63.5572 94.7156 64.038 95.5585 64.5202C95.9112 64.7177 96.2639 64.9152 96.6273 65.1187C97.6056 65.7496 98.3477 66.3357 99.0829 67.2393C99.0829 67.7386 99.0829 68.238 99.0829 68.7525C97.8172 68.3571 96.9078 67.8 95.8896 66.9792C94.54 65.9274 93.1537 65.2053 91.6083 64.4729C86.6516 62.0814 83.3569 58.7951 80.0479 54.4962C79.0812 53.1843 79.0812 53.1843 77.5817 52.7218C77.3085 52.7686 77.0353 52.8154 76.7538 52.8637C76.1783 54.5363 76.6772 55.5423 77.3555 57.1122C80.3388 62.9689 85.4006 66.9784 90.6814 70.6411C94.89 73.6022 94.89 73.6022 95.6767 75.562C95.812 76.5564 95.9114 77.5246 95.9818 78.5235C96.0054 78.8209 96.0289 79.1184 96.0531 79.4249C96.1038 80.0714 96.1531 80.7181 96.2011 81.3649C96.278 82.3994 96.359 83.4336 96.441 84.4677C96.6445 87.0443 96.8416 89.6214 97.038 92.1985C97.452 113.979 97.452 113.979 107.03 132.308C110.019 134.294 113.225 134.612 116.715 134.038C121.661 132.765 125.405 128.997 127.94 124.718C128.2 124.288 128.2 124.288 128.464 123.848C132.293 118.14 132.293 118.14 134.279 111.879C132.246 110.854 130.212 109.83 128.177 108.808C127.484 108.46 126.792 108.112 126.1 107.762C125.106 107.261 124.112 106.762 123.118 106.264C122.807 106.107 122.497 105.949 122.176 105.787C121.745 105.572 121.745 105.572 121.304 105.351C121.05 105.224 120.797 105.096 120.535 104.964C119.898 104.642 119.898 104.642 119.141 104.691C119.298 105.342 119.298 105.342 119.459 106.005C119.598 106.584 119.736 107.163 119.874 107.742C119.978 108.168 119.978 108.168 120.084 108.604C120.493 110.322 120.812 112.018 121.033 113.771C120.409 113.771 119.785 113.771 119.141 113.771C119.067 113.435 118.992 113.1 118.916 112.755C117.714 107.451 116.262 102.215 114.827 96.9703C111.733 85.661 111.733 85.661 110.459 80.8671C110.383 80.5863 110.308 80.3056 110.23 80.0163C109.304 76.5067 108.868 73.1075 109.68 69.5327C110.992 63.5051 109.089 58.6987 105.904 53.6646C105.401 52.8902 104.894 52.1187 104.381 51.3505C104.131 51.3505 103.882 51.3505 103.624 51.3505C103.582 53.649 103.741 55.8767 104.003 58.1599C102.233 58.7456 101.055 58.0211 99.4613 57.2378C99.1749 57.0993 98.8885 56.9608 98.5934 56.8181C93.4461 54.2719 89.2449 50.8562 85.4155 46.5965C84.5015 45.9023 83.9297 45.9482 82.8092 46.0542ZM126.728 73.5271C123.2 77.6256 120.628 82.2645 118.15 87.0508C117.799 87.72 117.432 88.3817 117.052 89.0354C115.882 91.0917 115.882 91.0917 115.841 93.3896C115.981 93.8824 116.135 94.3714 116.303 94.8555C116.41 95.2154 116.41 95.2154 116.519 95.5826C116.664 96.0688 116.82 96.5523 116.986 97.0321C117.249 97.882 117.249 97.882 117.415 98.7849C117.719 100.239 117.99 101.319 119.13 102.32C120.111 102.899 121.101 103.385 122.138 103.855C122.506 104.034 122.874 104.214 123.253 104.399C124.424 104.966 125.602 105.514 126.781 106.063C127.579 106.445 128.376 106.829 129.173 107.214C131.121 108.152 133.076 109.076 135.036 109.988C137.592 107.569 137.711 104.581 137.875 101.248C137.906 100.659 137.938 100.07 137.969 99.4809C138.017 98.5603 138.064 97.6396 138.111 96.719C138.157 95.8249 138.205 94.9309 138.253 94.0369C138.267 93.7622 138.28 93.4875 138.294 93.2045C138.362 91.9492 138.447 90.764 138.821 89.5593C139.321 89.6841 139.82 89.809 140.335 89.9376C140.103 96.4776 139.801 103.011 139.436 109.544C139.386 110.443 139.337 111.342 139.288 112.241C139.159 114.579 139.03 116.917 138.9 119.254C138.692 122.998 138.486 126.742 138.279 130.486C138.208 131.775 138.137 133.063 138.065 134.352C137.782 139.47 137.53 144.589 137.307 149.71C137.874 149.85 138.44 149.99 139.006 150.129C139.322 150.207 139.637 150.285 139.962 150.365C156.634 154.458 186.83 158.816 202.78 150.845C202.792 150.577 202.803 150.31 202.815 150.034C203.092 143.504 203.37 136.973 203.649 130.442C203.784 127.284 203.918 124.125 204.052 120.967C204.169 118.211 204.287 115.456 204.405 112.7C204.467 111.244 204.529 109.787 204.591 108.33C204.649 106.954 204.708 105.578 204.767 104.202C204.798 103.467 204.829 102.731 204.86 101.996C205.007 98.604 205.208 95.217 205.43 91.8291C205.929 91.7043 206.429 91.5794 206.943 91.4508C207.009 99.0252 206.822 106.58 206.565 114.149C209.029 113.416 211.493 112.682 213.957 111.949C214.794 111.699 215.631 111.45 216.467 111.201C217.676 110.842 218.884 110.482 220.092 110.122C220.462 110.012 220.831 109.902 221.212 109.789C221.917 109.579 222.621 109.368 223.325 109.157C224.03 108.948 224.737 108.746 225.446 108.548C225.79 108.451 226.133 108.354 226.487 108.253C226.796 108.168 227.104 108.083 227.422 107.995C228.211 107.781 228.211 107.781 228.516 106.961C228.211 105.885 227.879 104.843 227.513 103.787C227.404 103.466 227.295 103.145 227.183 102.815C226.826 101.768 226.465 100.724 226.103 99.6789C225.981 99.325 225.859 98.971 225.734 98.6064C223.93 93.3751 222.096 88.1728 219.811 83.1281C219.684 82.8446 219.556 82.5611 219.425 82.269C216.676 76.2442 212.93 70.8905 206.565 68.3742C201.904 66.758 197.187 66.8064 192.302 66.8373C191.774 66.8392 191.246 66.8409 190.718 66.8425C189.44 66.8469 188.163 66.8531 186.885 66.861C186.842 67.1921 186.798 67.5233 186.754 67.8645C186.692 68.3023 186.631 68.7402 186.567 69.1914C186.508 69.624 186.449 70.0566 186.389 70.5022C185.831 73.2361 184.475 75.2613 182.202 76.8624C178.443 79.0977 174.402 79.9283 170.093 79.0997C165.78 77.995 161.719 76.0147 159.258 72.1572C159.077 71.6846 158.907 71.2084 158.743 70.7297C157.875 68.3536 157.875 68.3536 156.23 66.4827C153.344 65.4936 150.16 65.6748 147.147 65.7261C146.483 65.7167 145.819 65.7068 145.154 65.6965C138.144 65.7084 131.563 68.4328 126.728 73.5271ZM305.343 110.744C302.71 113.953 300.597 117.578 298.403 121.089C294.083 127.981 289.654 134.804 285.193 141.606C284.114 143.252 283.035 144.899 281.955 146.546C281.436 147.338 280.916 148.13 280.397 148.923C279.801 149.83 279.207 150.739 278.614 151.649C278.363 152.031 278.363 152.031 278.106 152.421C277.466 153.405 276.953 154.265 276.58 155.384C276.83 155.759 277.079 156.133 277.337 156.519C278.525 156.691 278.525 156.691 279.947 156.66C280.349 156.662 280.349 156.662 280.76 156.664C281.649 156.667 282.538 156.662 283.428 156.657C284.044 156.657 284.661 156.657 285.277 156.657C286.57 156.657 287.863 156.653 289.156 156.646C290.816 156.638 292.475 156.638 294.135 156.64C295.408 156.641 296.681 156.639 297.955 156.635C298.567 156.634 299.179 156.633 299.791 156.634C300.645 156.634 301.5 156.629 302.354 156.623C302.841 156.621 303.328 156.62 303.829 156.618C305.008 156.638 305.008 156.638 305.721 155.763C305.834 154.934 305.834 154.934 305.812 153.963C305.813 153.583 305.814 153.203 305.815 152.812C305.813 152.393 305.81 151.975 305.807 151.544C305.807 151.105 305.807 150.666 305.807 150.213C305.807 148.756 305.801 147.298 305.795 145.841C305.794 144.833 305.792 143.825 305.792 142.816C305.789 140.43 305.783 138.044 305.776 135.658C305.767 132.942 305.763 130.225 305.759 127.509C305.751 121.921 305.738 116.333 305.721 110.744C305.596 110.744 305.471 110.744 305.343 110.744ZM222.329 111.568C221.998 111.665 221.667 111.763 221.326 111.863C220.97 111.969 220.614 112.076 220.247 112.185C219.881 112.293 219.515 112.402 219.137 112.513C218.363 112.742 217.589 112.972 216.815 113.203C215.628 113.557 214.44 113.908 213.252 114.259C212.501 114.482 211.75 114.705 210.999 114.928C210.463 115.086 210.463 115.086 209.917 115.248C209.588 115.346 209.258 115.445 208.918 115.546C208.482 115.676 208.482 115.676 208.037 115.808C207.3 116.028 207.3 116.028 206.565 116.419C206.505 118.28 206.684 119.851 207.161 121.649C207.224 121.886 207.286 122.123 207.351 122.368C207.484 122.868 207.618 123.367 207.755 123.866C207.958 124.614 208.154 125.363 208.35 126.112C211.373 137.477 219.28 146.309 226.434 155.384C226.769 155.811 227.104 156.238 227.439 156.666C228.008 157.39 228.58 158.112 229.156 158.831C229.83 159.673 230.498 160.519 231.165 161.366C231.374 161.624 231.583 161.882 231.798 162.147C233.214 163.959 233.974 165.656 234.571 167.868C234.69 168.28 234.81 168.693 234.933 169.117C235.04 169.493 235.147 169.869 235.257 170.256C237.762 178.361 242.796 184.61 250.145 188.756C251.109 189.166 251.75 188.949 252.737 188.675C252.139 187.19 251.169 186.313 250.017 185.223C245.265 180.607 245.265 180.607 244.789 177.326C245.786 177.465 246.217 177.611 246.909 178.361C247.106 178.641 247.303 178.921 247.507 179.209C248.983 181.196 250.648 182.916 252.406 184.656C252.703 184.956 253 185.256 253.306 185.565C253.595 185.853 253.885 186.141 254.183 186.438C254.441 186.696 254.7 186.953 254.966 187.219C255.821 187.968 256.645 188.536 257.657 189.054C258.695 188.973 258.695 188.973 259.549 188.675C259.339 187.284 258.995 186.364 258.191 185.213C257.989 184.921 257.787 184.63 257.58 184.33C257.363 184.024 257.147 183.718 256.924 183.403C256.704 183.086 256.484 182.77 256.258 182.444C255.215 180.947 254.157 179.461 253.083 177.987C252.908 177.745 252.733 177.504 252.552 177.256C252.225 176.808 251.895 176.362 251.562 175.918C250.466 174.424 250.466 174.424 250.466 173.165C252.262 173.694 253 174.545 254.109 176.026C254.268 176.237 254.427 176.449 254.592 176.668C256.135 178.755 257.539 180.935 258.918 183.133C259.165 183.525 259.165 183.525 259.418 183.926C259.562 184.158 259.706 184.39 259.855 184.629C260.335 185.312 260.804 185.866 261.441 186.405C262.435 186.5 262.435 186.5 263.334 186.405C263.842 185.803 263.842 185.803 264.091 184.892C263.184 181.932 261.174 179.366 259.456 176.824C257.072 173.26 254.824 169.546 254.251 165.22C255.628 164.761 255.932 164.969 257.231 165.528C257.55 165.663 257.869 165.798 258.198 165.937C258.852 166.218 259.506 166.5 260.16 166.782C261.256 167.182 262.176 167.166 263.334 167.112C263.459 166.612 263.584 166.113 263.712 165.599C263.487 165.46 263.262 165.32 263.031 165.177C261.996 164.537 260.962 163.898 259.928 163.258C259.574 163.039 259.22 162.82 258.856 162.595C258.507 162.379 258.158 162.163 257.799 161.941C257.452 161.727 257.105 161.514 256.747 161.294C256.14 160.915 255.538 160.53 254.943 160.134C253.44 159.141 252.045 158.497 250.318 157.99C247.094 157.043 245.343 156.107 243.654 153.115C243.345 152.611 243.035 152.109 242.723 151.607C242.001 150.444 241.29 149.274 240.585 148.101C239.565 146.412 238.494 144.761 237.409 143.113C235.918 140.832 234.498 138.518 233.128 136.162C232.883 135.742 232.883 135.742 232.633 135.314C232.132 134.443 231.647 133.567 231.165 132.686C230.974 132.346 230.783 132.006 230.587 131.656C229.008 128.709 228.196 125.801 227.498 122.543C227.392 122.069 227.285 121.596 227.175 121.109C226.435 117.79 225.765 114.459 225.109 111.123C224.036 111.123 223.346 111.267 222.329 111.568ZM136.55 112.636C136.408 112.929 136.265 113.222 136.118 113.524C135.453 114.885 134.785 116.243 134.114 117.601C133.993 117.846 133.873 118.091 133.748 118.343C132.421 121.029 131.083 123.621 129.336 126.066C125.374 131.896 125.041 140.473 125.078 147.274C125.079 147.537 125.08 147.8 125.08 148.071C125.128 158.995 127.67 168.623 133.144 178.083C134.021 176.767 134.061 176.054 134.195 174.492C134.218 174.245 134.24 173.997 134.263 173.743C134.336 172.926 134.404 172.109 134.472 171.292C134.521 170.726 134.571 170.159 134.621 169.592C134.752 168.102 134.879 166.611 135.006 165.12C135.135 163.598 135.269 162.077 135.402 160.556C135.662 157.571 135.918 154.586 136.172 151.601C135.922 151.476 135.672 151.352 135.415 151.223C135.374 147.577 135.463 143.962 135.695 140.322C135.748 139.495 135.798 138.668 135.848 137.841C135.972 135.788 136.099 133.735 136.227 131.683C136.353 129.662 136.477 127.642 136.598 125.621C136.614 125.345 136.631 125.069 136.648 124.784C136.887 120.733 137.034 116.695 136.929 112.636C136.804 112.636 136.679 112.636 136.55 112.636ZM205.808 126.633C205.799 126.861 205.791 127.088 205.782 127.322C205.691 129.723 205.598 132.123 205.506 134.523C205.471 135.415 205.437 136.307 205.403 137.198C205.078 145.743 205.078 145.743 204.86 149.747C204.847 150.012 204.834 150.277 204.82 150.55C204.717 152.313 204.717 152.313 204.294 152.736C204.249 153.841 204.232 154.934 204.235 156.039C204.236 156.389 204.236 156.739 204.237 157.1C204.273 161.997 204.581 166.882 204.862 171.77C204.917 172.754 204.972 173.739 205.026 174.723C205.158 177.104 205.293 179.485 205.43 181.866C212.383 173.332 214.868 163.001 215.923 152.276C215.988 151.619 216.057 150.962 216.135 150.306C216.434 147.657 216.483 145.503 214.824 143.256C214.152 142.429 213.454 141.629 212.745 140.834C209.892 137.537 208.611 133.87 207.419 129.754C207.267 129.23 207.267 129.23 207.112 128.696C207.024 128.381 206.937 128.065 206.846 127.74C206.631 126.938 206.631 126.938 205.808 126.633ZM138.443 152.358C137.9 153.985 137.82 155.621 137.662 157.323C137.628 157.668 137.593 158.014 137.558 158.369C137.352 160.538 137.274 162.664 137.307 164.842C141.47 164.216 145.349 161.689 147.904 158.411C149.031 156.645 149.031 156.645 149.418 154.628C145.778 153.749 142.126 153.024 138.443 152.358ZM199.241 153.824C198.919 153.892 198.597 153.96 198.266 154.031C197.929 154.103 197.592 154.175 197.245 154.249C196.906 154.322 196.566 154.394 196.217 154.468C195.377 154.647 194.537 154.826 193.697 155.006C194.728 158.796 196.658 161.871 200.084 163.944C201.224 164.54 201.224 164.54 202.402 164.464C202.349 162.99 202.293 161.516 202.236 160.042C202.222 159.625 202.207 159.208 202.191 158.778C202.175 158.374 202.16 157.971 202.143 157.555C202.129 157.185 202.116 156.814 202.101 156.433C202.026 155.424 201.866 154.478 201.645 153.493C200.797 153.493 200.071 153.647 199.241 153.824ZM151.689 155.006C151.528 155.358 151.368 155.709 151.202 156.072C148.62 161.576 145.311 164.209 139.637 166.425C139.376 166.528 139.114 166.631 138.845 166.738C138.207 166.989 137.568 167.24 136.929 167.49C134.397 190.434 132.966 213.493 131.487 236.522C131.377 238.241 131.266 239.96 131.156 241.679C131.128 242.103 131.101 242.527 131.073 242.964C130.673 249.185 130.256 255.404 129.822 261.623C129.795 262.009 129.768 262.395 129.741 262.793C129.486 266.452 129.229 270.11 128.969 273.768C128.876 275.079 128.784 276.391 128.692 277.702C128.65 278.302 128.607 278.902 128.564 279.501C128.505 280.319 128.448 281.138 128.391 281.956C128.358 282.411 128.326 282.865 128.293 283.333C128.21 285.069 128.224 286.809 128.224 288.548C136.467 288.548 144.71 288.548 153.202 288.548C153.796 284.693 154.389 280.839 155 276.868C157.099 263.33 159.304 249.811 161.528 236.294C161.652 235.543 161.776 234.792 161.899 234.04C161.982 233.54 162.064 233.04 162.146 232.54C162.593 229.826 163.039 227.112 163.486 224.398C163.565 223.918 163.644 223.438 163.725 222.944C165.139 214.349 166.535 205.753 167.911 197.153C168.056 196.247 168.201 195.341 168.347 194.435C168.568 193.056 168.788 191.677 169.008 190.299C169.123 189.574 169.239 188.85 169.355 188.126C169.422 187.705 169.489 187.284 169.558 186.85C169.616 186.487 169.673 186.124 169.733 185.75C169.872 184.912 169.872 184.912 169.855 184.136C170.879 183.944 171.904 183.755 172.93 183.568C173.217 183.514 173.505 183.46 173.802 183.404C175.41 183.113 176.916 182.938 178.559 183.001C178.559 183.5 178.559 183.999 178.559 184.514C176.436 185.013 174.313 185.513 172.125 186.027C172.38 191.053 172.836 196.036 173.361 201.04C173.449 201.889 173.537 202.738 173.625 203.587C173.813 205.41 174.003 207.233 174.193 209.056C174.679 213.724 175.161 218.394 175.642 223.063C175.723 223.841 175.803 224.619 175.883 225.396C176.746 233.755 177.592 242.116 178.428 250.478C178.456 250.76 178.484 251.043 178.513 251.334C179.068 256.886 179.621 262.437 180.174 267.989C180.405 270.31 180.636 272.632 180.867 274.953C181.008 276.365 181.148 277.777 181.288 279.189C181.373 280.041 181.458 280.892 181.543 281.744C181.58 282.123 181.618 282.503 181.656 282.894C181.692 283.248 181.727 283.602 181.763 283.966C181.794 284.269 181.824 284.571 181.855 284.883C182.001 286.232 182.175 287.579 182.344 288.926C190.587 288.926 198.829 288.926 207.322 288.926C207.327 280.636 207.327 280.636 207.109 272.359C207.086 271.751 207.062 271.143 207.04 270.535C206.978 268.91 206.914 267.285 206.849 265.66C206.78 263.916 206.713 262.173 206.646 260.429C206.517 257.081 206.385 253.733 206.252 250.385C206.146 247.695 206.04 245.005 205.934 242.315C205.21 223.849 204.462 205.385 203.585 186.926C203.565 186.511 203.545 186.097 203.525 185.67C203.415 183.341 203.303 181.012 203.189 178.682C203.156 178.005 203.123 177.327 203.09 176.649C202.997 174.73 202.895 172.812 202.78 170.895C202.747 170.288 202.747 170.288 202.712 169.67C202.688 169.328 202.663 168.986 202.637 168.633C202.608 168.213 202.608 168.213 202.579 167.783C202.436 166.961 202.436 166.961 201.312 166.283C200.852 166.112 200.392 165.94 199.918 165.764C195.876 164.063 193.888 161.263 192.184 157.276C191.93 156.646 191.678 156.015 191.427 155.384C187.913 155.358 184.412 155.437 180.901 155.574C180.418 155.592 179.934 155.61 179.437 155.628C178.261 155.672 177.085 155.717 175.91 155.763C175.444 157.225 175.454 158.697 175.425 160.217C175.418 160.504 175.411 160.792 175.404 161.088C175.382 162.008 175.362 162.929 175.342 163.849C175.253 167.975 175.118 172.077 174.775 176.191C174.275 176.191 173.775 176.191 173.261 176.191C173.261 169.45 173.261 162.708 173.261 155.763C170.661 155.681 170.661 155.681 168.01 155.597C162.568 155.424 157.128 155.224 151.689 155.006ZM167.962 209.104C166.797 216.309 165.632 223.514 164.467 230.719C164.363 231.359 164.363 231.359 164.258 232.012C163.975 233.764 163.692 235.516 163.408 237.268C162.574 242.433 161.738 247.598 160.903 252.762C160.393 255.908 159.885 259.054 159.376 262.2C159.078 264.042 158.781 265.883 158.482 267.724C157.33 274.834 156.187 281.946 155.085 289.065C154.984 289.719 154.882 290.374 154.781 291.028C154.641 291.926 154.503 292.824 154.365 293.722C154.323 293.988 154.282 294.253 154.239 294.527C154.079 295.575 153.959 296.565 153.959 297.627C152.586 297.752 151.212 297.877 149.796 298.005C150.046 303.623 150.296 309.241 150.553 315.029C161.419 315.029 172.284 315.029 183.479 315.029C183.729 311.284 183.979 307.539 184.236 303.68C184.715 299.69 184.715 299.69 184.993 298.005C184.751 297.982 184.51 297.96 184.261 297.936C183.948 297.904 183.636 297.873 183.313 297.84C182.846 297.794 182.846 297.794 182.369 297.747C181.587 297.627 181.587 297.627 181.208 297.249C181.069 296.218 180.953 295.193 180.851 294.158C180.816 293.827 180.782 293.497 180.747 293.156C180.631 292.03 180.518 290.905 180.404 289.779C180.321 288.968 180.238 288.157 180.155 287.346C179.923 285.082 179.693 282.818 179.464 280.554C179.314 279.066 179.162 277.577 179.011 276.088C178.459 270.66 177.908 265.233 177.359 259.805C177.33 259.524 177.302 259.243 177.273 258.954C176.984 256.099 176.695 253.244 176.407 250.39C176.037 246.727 175.666 243.065 175.295 239.402C175.267 239.13 175.24 238.859 175.211 238.579C174.215 228.75 173.187 218.925 172.125 209.104C170.752 209.104 169.378 209.104 167.962 209.104ZM58.5878 224.614C57.7796 225.826 57.7323 226.018 57.8782 227.381C57.9026 227.66 57.927 227.939 57.9521 228.227C58.2987 229.476 58.972 230.379 59.7232 231.424C60.0715 231.25 60.4199 231.076 60.7787 230.898C65.8437 228.424 70.8057 226.818 76.4936 226.813C76.7978 226.808 77.102 226.804 77.4154 226.799C79.557 226.794 81.4971 227.093 83.5661 227.641C83.7534 228.39 83.7534 228.39 83.9445 229.154C83.6465 229.127 83.3484 229.099 83.0413 229.071C76.0647 228.477 68.5089 228.369 62.4789 232.508C60.7391 234.134 60.4281 236.587 60.3382 238.895C60.429 241.044 61.1409 242.309 62.6799 243.813C65.2207 245.606 67.6658 245.698 70.6985 245.421C76.3863 244.385 81.5757 240.924 86.4045 237.902C90.4136 235.407 93.9978 234.262 98.7044 233.694C95.017 227.444 88.2555 223.88 81.4727 221.968C74.4709 220.32 64.5744 219.732 58.5878 224.614ZM6.36058 247.691C4.14384 250.262 4.14384 250.262 2.95446 253.365C3.33889 253.371 3.72332 253.376 4.1194 253.382C9.86286 253.541 13.5758 255.582 18.3042 258.731C22.6961 261.638 27.415 264.221 32.8527 263.58C35.9577 262.827 38.4282 261.615 40.2459 258.942C41.4616 256.783 42.0558 254.702 41.5572 252.23C40.6575 250.175 39.3228 249.677 37.3181 248.868C30.8701 246.365 23.9617 246.227 17.2738 247.821C16.2005 248.069 16.2005 248.069 15.0651 248.069C15.0651 247.57 15.0651 247.07 15.0651 246.556C23.511 243.699 32.1758 244.45 40.237 248.05C41.0577 248.396 41.8237 248.641 42.6926 248.826C43.9605 247.347 44.99 246.111 44.9397 244.097C44.0795 241.804 42.0671 240.776 39.9532 239.798C28.8202 235.218 14.5087 239.183 6.36058 247.691ZM63.768 260.695C62.4252 262.399 61.9579 263.682 61.994 265.849C62.4242 266.028 62.8545 266.207 63.2979 266.392C71.5021 269.873 79.0456 274.843 83.9445 282.495C83.9445 282.869 83.9445 283.244 83.9445 283.63C82.8258 283.506 82.2194 283.423 81.421 282.603C81.2312 282.325 81.0414 282.048 80.8459 281.762C76.3387 275.635 68.4936 269.43 60.8586 267.741C58.8074 267.443 56.8981 267.251 55.0073 268.217C52.7564 270.015 51.5798 272.307 51.2315 275.142C51.727 279.033 53.8017 281.479 56.7724 283.943C60.2811 286.441 64.2483 287.245 68.4277 287.909C75.6857 289.172 81.7056 291.787 88.1076 295.357C88.7452 295.711 89.3829 296.065 90.0206 296.418C90.5183 296.695 91.0161 296.972 91.5137 297.249C91.8551 284.547 89.0579 273.266 80.1438 263.79C77.1222 260.689 73.8149 258.352 69.3739 258.165C67.024 258.237 65.3477 258.944 63.768 260.695ZM49.5048 278.712C49.5013 279.055 49.4978 279.398 49.4941 279.751C49.4773 281.046 49.4539 282.34 49.4263 283.635C49.4157 284.191 49.4076 284.747 49.4023 285.303C49.3747 287.996 49.347 290.513 48.3695 293.064C47.2568 296.003 47.3565 298.97 47.3287 302.072C47.318 302.656 47.3067 303.241 47.2947 303.825C47.2242 307.559 47.2226 311.294 47.2341 315.029C48.1083 315.029 48.9826 315.029 49.8833 315.029C49.9173 314.698 49.9512 314.368 49.9862 314.027C51.0041 304.357 52.6967 295.357 56.3171 286.278C56.0658 286.063 55.8146 285.848 55.5557 285.626C53.1965 283.564 51.1659 281.626 49.8833 278.712C49.7584 278.712 49.6335 278.712 49.5048 278.712ZM127.846 291.196C127.721 292.694 127.596 294.192 127.467 295.736C135.585 295.736 143.703 295.736 152.067 295.736C152.192 294.237 152.317 292.739 152.445 291.196C142.252 290.891 142.252 290.891 132.056 290.77C131.666 290.769 131.276 290.767 130.873 290.765C130.523 290.766 130.173 290.767 129.812 290.767C129.361 290.768 129.361 290.768 128.901 290.769C128.215 290.744 128.215 290.744 127.846 291.196ZM297.726 291.817C297.492 292.032 297.258 292.248 297.016 292.47C296.766 292.705 296.517 292.94 296.26 293.182C296.003 293.423 295.747 293.664 295.483 293.913C289.313 299.806 284.479 307.198 281.121 315.029C283.619 315.029 286.117 315.029 288.69 315.029C288.88 314.54 289.07 314.052 289.266 313.548C291.625 307.628 294.406 301.968 297.3 296.293C297.456 295.987 297.612 295.68 297.773 295.364C298.069 294.782 298.367 294.2 298.666 293.62C299.407 292.287 299.407 292.287 299.666 290.818C298.661 290.818 298.458 291.144 297.726 291.817ZM182.722 291.196C182.847 292.694 182.972 294.192 183.101 295.736C191.219 295.736 199.336 295.736 207.7 295.736C207.7 294.237 207.7 292.739 207.7 291.196C199.458 291.196 191.215 291.196 182.722 291.196ZM279.229 298.005C273.696 305.928 273.696 305.928 271.281 315.029C273.529 315.029 275.777 315.029 278.094 315.029C278.834 309.354 279.422 303.727 279.607 298.005C279.483 298.005 279.358 298.005 279.229 298.005ZM295.526 310.017C293.016 312.253 293.016 312.253 291.718 315.029C293.978 315.384 296.31 315.739 298.53 315.029C300.184 313.694 301.025 311.652 301.92 309.77C302.494 308.617 303.191 307.601 303.923 306.541C304.163 306.184 304.403 305.828 304.651 305.461C304.879 305.123 305.107 304.785 305.343 304.437C305.785 303.775 306.226 303.113 306.667 302.45C306.983 301.978 307.298 301.505 307.613 301.032C303.835 301.032 298.118 307.465 295.526 310.017ZM309.127 310.868C308.251 311.417 307.376 311.969 306.502 312.523C306.252 312.679 306.003 312.835 305.745 312.996C304.379 313.798 304.379 313.798 303.45 315.029C304.767 315.24 305.928 315.327 307.235 315.029C308.244 314.019 308.882 312.902 309.506 311.624C309.381 311.375 309.256 311.125 309.127 310.868Z" fill="black"/>
<path d="M61.2125 83.8427C61.8352 83.8495 62.4578 83.8545 63.0805 83.8578C64.7118 83.8715 66.3415 83.9105 67.9722 83.9546C69.6376 83.9947 71.3033 84.0087 72.9691 84.026C75.3944 84.0559 77.8193 84.0925 80.244 84.1534C80.7316 84.1651 81.2191 84.1768 81.7214 84.1889C82.8098 84.2624 82.8098 84.2624 83.1882 84.6407C83.2291 85.5584 83.2452 86.4656 83.2456 87.3837C83.248 87.8194 83.248 87.8194 83.2504 88.2639C83.2554 89.2448 83.2576 90.2256 83.2599 91.2064C83.2629 91.9065 83.2661 92.6066 83.2695 93.3068C83.2763 94.818 83.282 96.3293 83.2868 97.8405C83.2944 100.228 83.3049 102.614 83.3158 105.001C83.3405 110.5 83.3615 115.998 83.3824 121.496C83.4016 126.533 83.4216 131.57 83.4447 136.608C83.4554 138.983 83.4643 141.359 83.4719 143.734C83.4769 145.209 83.4835 146.684 83.4905 148.159C83.4935 148.846 83.4958 149.532 83.4974 150.219C83.4997 151.152 83.5042 152.086 83.5094 153.019C83.5095 153.294 83.5096 153.57 83.5097 153.854C83.4109 155.104 83.4109 155.104 83.9452 156.14C84.7798 156.196 85.6162 156.226 86.4524 156.247C86.8283 156.257 86.8283 156.257 87.2118 156.268C88.0151 156.29 88.8186 156.31 89.622 156.33C90.6786 156.355 91.7351 156.383 92.7916 156.412C93.2629 156.424 93.7342 156.435 94.2197 156.447C95.2989 156.519 95.2989 156.519 95.6774 156.897C95.7145 157.452 95.7258 158.009 95.7263 158.566C95.7275 158.921 95.7287 159.276 95.7299 159.641C95.7288 160.22 95.7288 160.22 95.7276 160.81C95.728 161.203 95.7284 161.597 95.7287 162.002C95.729 162.835 95.7283 163.668 95.7267 164.501C95.7247 165.782 95.7267 167.062 95.7291 168.342C95.7289 169.15 95.7284 169.957 95.7276 170.764C95.7284 171.15 95.7292 171.536 95.7299 171.933C95.7282 172.465 95.7282 172.465 95.7263 173.008C95.726 173.322 95.7257 173.636 95.7254 173.959C95.6774 174.677 95.6774 174.677 95.2989 175.056C94.3998 175.089 93.5118 175.099 92.6127 175.093C92.2103 175.092 92.2103 175.092 91.7998 175.091C90.9398 175.089 90.0799 175.084 89.2199 175.079C88.6382 175.077 88.0565 175.076 87.4747 175.074C86.0459 175.07 84.6171 175.063 83.1882 175.056C83.1902 175.538 83.1922 176.02 83.1942 176.516C83.2012 178.336 83.2055 180.156 83.209 181.976C83.2109 182.757 83.2135 183.539 83.2168 184.321C83.2326 188.161 83.2377 191.994 83.0212 195.828C83.0064 196.098 82.9917 196.367 82.9765 196.644C82.8585 198.462 82.8585 198.462 82.4313 198.889C81.7618 198.928 81.0908 198.941 80.4201 198.944C79.776 198.947 79.776 198.947 79.1188 198.951C78.6513 198.952 78.1838 198.952 77.7021 198.952C77.2256 198.954 76.7491 198.955 76.2582 198.956C75.248 198.958 74.2379 198.959 73.2277 198.959C71.9317 198.959 70.6357 198.964 69.3397 198.971C68.1061 198.976 66.8724 198.976 65.6387 198.976C65.1719 198.979 64.7052 198.981 64.2243 198.984C63.5783 198.983 63.5783 198.983 62.9194 198.981C62.539 198.981 62.1586 198.982 61.7666 198.982C60.8592 198.889 60.8592 198.889 60.1023 198.132C59.9969 197.18 59.9969 197.18 59.9816 195.963C59.9703 195.281 59.9703 195.281 59.9588 194.586C59.9523 193.847 59.9523 193.847 59.9456 193.093C59.9385 192.585 59.9311 192.077 59.9234 191.57C59.9039 190.233 59.8889 188.895 59.8749 187.558C59.8597 186.194 59.8404 184.83 59.8214 183.466C59.7847 180.788 59.7528 178.111 59.7238 175.434C59.4632 175.433 59.2025 175.431 58.9339 175.43C52.5981 175.399 46.2622 175.365 39.9264 175.325C36.8625 175.306 33.7986 175.289 30.7346 175.274C28.0648 175.262 25.395 175.247 22.7252 175.229C21.3109 175.219 19.8967 175.211 18.4824 175.206C16.9054 175.2 15.3286 175.188 13.7517 175.176C13.2802 175.175 12.8087 175.175 12.3229 175.174C11.8952 175.17 11.4674 175.165 11.0267 175.161C10.6534 175.159 10.2802 175.157 9.89556 175.155C9.01041 175.056 9.01041 175.056 8.2535 174.299C8.12427 173.58 8.12427 173.58 8.07748 172.69C8.05948 172.356 8.04147 172.021 8.02292 171.677C8.00876 171.312 7.99459 170.948 7.98 170.572C7.96524 170.195 7.95048 169.817 7.93527 169.428C7.4619 154.683 7.4619 154.683 13.0672 148.117C14.5315 146.326 15.755 144.377 17.0139 142.439C17.5938 141.552 18.185 140.673 18.7768 139.793C20.2389 137.62 21.654 135.426 23.0244 133.195C24.6551 130.556 26.37 127.971 28.0752 125.379C30.6569 121.455 33.2014 117.51 35.6969 113.53C38.4589 109.137 41.2531 104.764 44.0819 100.415C45.1364 98.7911 46.1803 97.1613 47.2184 95.5273C47.4829 95.1117 47.7474 94.6962 48.0199 94.268C48.5373 93.4544 49.0537 92.6401 49.5688 91.8251C49.8109 91.4449 50.0529 91.0646 50.3023 90.6729C50.5136 90.3394 50.7249 90.0059 50.9427 89.6623C51.2177 89.2536 51.4928 88.8449 51.7762 88.4238C51.9547 88.0766 52.1332 87.7294 52.3171 87.3717C54.5508 83.5296 57.2023 83.7029 61.2125 83.8427ZM60.1023 110.744C57.7485 113.788 55.7268 117.124 53.6212 120.343C53.2646 120.888 52.908 121.432 52.5513 121.976C51.5351 123.528 50.5201 125.08 49.5054 126.633C49.2579 127.011 49.0104 127.39 48.7554 127.779C46.8884 130.636 45.0314 133.498 43.1944 136.374C42.8283 136.947 42.8283 136.947 42.4548 137.531C41.9532 138.318 41.4522 139.104 40.9521 139.891C39.507 142.158 38.0354 144.402 36.5329 146.631C36.0306 147.381 35.5287 148.13 35.0269 148.88C34.6992 149.367 34.3696 149.853 34.0378 150.337C33.5743 151.013 33.1179 151.693 32.6626 152.375C32.3979 152.765 32.1332 153.154 31.8605 153.555C31.1599 154.722 31.1599 154.722 31.7179 156.519C41.0848 156.519 50.4516 156.519 60.1023 156.519C60.5656 155.593 60.5273 154.998 60.5263 153.962C60.5268 153.582 60.5273 153.202 60.5278 152.811C60.5265 152.393 60.5251 151.975 60.5237 151.544C60.5238 151.104 60.5238 150.665 60.5239 150.213C60.5236 148.755 60.5207 147.298 60.5177 145.84C60.517 144.832 60.5164 143.824 60.5161 142.816C60.5149 140.43 60.5118 138.043 60.508 135.657C60.5038 132.941 60.5017 130.225 60.4998 127.508C60.4958 121.92 60.4892 116.332 60.4807 110.744C60.3559 110.744 60.231 110.744 60.1023 110.744Z" fill="black"/>
<path d="M262.742 94.4062C263.712 94.4772 263.712 94.4772 264.469 95.2338C264.421 96.1796 264.421 96.1796 264.09 97.1253C263.31 97.6218 263.31 97.6218 262.576 97.8819C262.077 97.5074 261.577 97.1329 261.062 96.747C261.465 94.5044 261.465 94.5044 262.742 94.4062Z" fill="black"/>
<path d="M39.1445 194.066C40.0433 194.35 40.0433 194.35 40.4217 194.728C40.4927 195.65 40.4927 195.65 40.4217 196.62C40.172 196.869 39.9222 197.119 39.6648 197.376C38.4822 197.235 38.4822 197.235 37.3941 196.998C37.1339 196.123 37.1339 196.123 37.0156 195.107C37.6435 194.06 37.9227 193.95 39.1445 194.066Z" fill="black"/>
<path d="M241.14 211.702C241.488 211.701 241.836 211.699 242.195 211.698C242.773 211.698 242.773 211.698 243.363 211.699C243.77 211.698 244.177 211.696 244.597 211.695C245.971 211.692 247.345 211.691 248.719 211.691C249.7 211.689 250.682 211.687 251.663 211.685C254.336 211.68 257.009 211.678 259.681 211.676C261.349 211.675 263.018 211.673 264.686 211.672C269.303 211.667 273.92 211.663 278.537 211.662C278.832 211.662 279.128 211.662 279.433 211.662C279.877 211.662 279.877 211.662 280.331 211.661C280.931 211.661 281.532 211.661 282.132 211.661C282.579 211.661 282.579 211.661 283.035 211.661C287.862 211.659 292.689 211.653 297.516 211.644C302.47 211.635 307.424 211.63 312.377 211.63C315.16 211.629 317.942 211.627 320.724 211.62C323.341 211.614 325.957 211.613 328.573 211.616C329.535 211.617 330.497 211.615 331.458 211.611C332.769 211.607 334.079 211.609 335.389 211.613C335.963 211.608 335.963 211.608 336.549 211.604C338.884 211.62 340.231 211.895 341.983 213.525C343.316 216.121 342.028 219.554 341.387 222.205C341.274 222.684 341.161 223.163 341.045 223.656C340.733 224.976 340.417 226.296 340.1 227.615C339.833 228.729 339.568 229.844 339.303 230.959C338.336 235.025 337.358 239.088 336.377 243.151C336.292 243.501 336.208 243.851 336.121 244.212C334.873 249.383 333.619 254.553 332.361 259.722C332.096 260.811 331.831 261.901 331.567 262.99C331.147 264.717 330.725 266.444 330.303 268.171C330.147 268.808 329.992 269.446 329.837 270.083C327.607 279.26 327.607 279.26 325.023 280.982C323.922 281.349 323.222 281.408 322.077 281.411C321.702 281.412 321.327 281.414 320.94 281.416C320.527 281.416 320.114 281.416 319.689 281.416C319.251 281.417 318.812 281.418 318.361 281.42C317.143 281.423 315.926 281.425 314.708 281.426C313.395 281.427 312.083 281.431 310.77 281.434C307.599 281.442 304.428 281.446 301.257 281.449C299.764 281.451 298.271 281.453 296.778 281.455C291.815 281.461 286.853 281.467 281.89 281.469C280.602 281.47 279.314 281.471 278.026 281.472C277.706 281.472 277.386 281.472 277.056 281.472C271.87 281.475 266.683 281.485 261.497 281.497C256.173 281.51 250.849 281.516 245.525 281.518C242.535 281.518 239.546 281.522 236.556 281.531C234.01 281.54 231.465 281.543 228.919 281.539C227.62 281.537 226.321 281.538 225.023 281.545C223.614 281.552 222.206 281.549 220.797 281.544C220.387 281.549 219.977 281.553 219.555 281.557C217.158 281.536 215.71 281.265 213.756 279.847C212.405 278.365 212.51 276.88 212.544 274.97C212.621 274.172 212.621 274.172 212.999 273.794C213.7 273.734 214.403 273.699 215.106 273.674C215.745 273.65 215.745 273.65 216.396 273.626C216.844 273.611 217.292 273.596 217.754 273.581C218.203 273.565 218.653 273.548 219.116 273.532C220.231 273.491 221.346 273.453 222.461 273.416C222.656 272.614 222.852 271.813 223.048 271.012C223.111 270.754 223.174 270.496 223.239 270.23C223.603 268.738 223.967 267.247 224.331 265.755C225.082 262.674 225.835 259.592 226.589 256.511C227.026 254.725 227.463 252.938 227.9 251.152C227.988 250.79 228.076 250.429 228.167 250.057C229.378 245.1 230.571 240.14 231.747 235.175C232.206 233.24 232.669 231.305 233.131 229.371C233.569 227.538 234.001 225.703 234.43 223.867C234.697 222.728 234.969 221.59 235.243 220.453C235.368 219.929 235.491 219.405 235.611 218.88C236.741 213.958 236.741 213.958 238.735 212.13C239.624 211.686 240.148 211.704 241.14 211.702ZM239.113 215.157C238.73 216.217 238.73 216.217 238.455 217.459C238.338 217.94 238.221 218.42 238.1 218.916C237.975 219.448 237.85 219.981 237.725 220.513C237.591 221.072 237.456 221.63 237.321 222.188C236.957 223.698 236.597 225.209 236.239 226.721C235.864 228.297 235.484 229.873 235.105 231.448C234.558 233.723 234.012 235.998 233.468 238.274C232.162 243.738 230.838 249.198 229.512 254.657C229.058 256.525 228.605 258.393 228.153 260.261C228.031 260.763 227.91 261.265 227.788 261.767C227.566 262.682 227.345 263.598 227.123 264.513C227.024 264.923 226.924 265.334 226.822 265.756C226.68 266.343 226.68 266.343 226.535 266.941C226.142 268.54 225.731 270.134 225.316 271.728C225.069 272.685 225.069 272.685 225.11 273.794C258.456 273.794 291.802 273.794 326.158 273.794C327.099 270.991 327.099 270.991 327.87 268.167C327.97 267.759 328.069 267.351 328.172 266.931C328.277 266.493 328.382 266.056 328.49 265.606C328.604 265.134 328.719 264.662 328.837 264.176C329.15 262.884 329.461 261.591 329.772 260.299C329.967 259.486 330.163 258.674 330.359 257.862C330.984 255.268 331.608 252.675 332.23 250.081C332.919 247.209 333.61 244.338 334.306 241.468C335.028 238.488 335.746 235.507 336.461 232.525C336.847 230.918 337.234 229.311 337.624 227.705C337.992 226.189 338.357 224.671 338.718 223.152C338.852 222.593 338.987 222.033 339.124 221.474C339.312 220.707 339.494 219.939 339.675 219.17C339.779 218.74 339.882 218.31 339.989 217.866C340.173 216.589 340.114 215.644 339.783 214.4C338.897 213.957 338.38 213.973 337.393 213.972C337.048 213.97 336.704 213.969 336.348 213.967C335.776 213.968 335.776 213.968 335.193 213.968C334.588 213.967 334.588 213.967 333.971 213.965C332.611 213.962 331.251 213.961 329.891 213.961C328.919 213.959 327.948 213.957 326.976 213.955C324.331 213.95 321.686 213.948 319.041 213.946C317.39 213.945 315.739 213.943 314.088 213.942C309.521 213.937 304.953 213.933 300.386 213.932C300.093 213.932 299.801 213.932 299.499 213.931C299.206 213.931 298.913 213.931 298.611 213.931C298.017 213.931 297.423 213.931 296.829 213.931C296.534 213.931 296.24 213.931 295.936 213.93C291.158 213.929 286.381 213.922 281.603 213.914C276.702 213.905 271.8 213.9 266.899 213.899C264.145 213.899 261.392 213.897 258.638 213.89C256.05 213.884 253.462 213.883 250.873 213.886C249.921 213.887 248.969 213.885 248.016 213.881C246.721 213.876 245.425 213.879 244.13 213.883C243.749 213.88 243.369 213.876 242.977 213.873C242.631 213.876 242.285 213.878 241.929 213.881C241.629 213.881 241.33 213.88 241.022 213.88C240.042 214.059 239.718 214.379 239.113 215.157Z" fill="black"/>
<path d="M106.346 214.92C106.572 214.998 106.798 215.076 107.032 215.157C107.268 216.245 107.268 216.245 107.41 217.427C106.653 218.183 106.653 218.183 105.707 218.278C104.761 218.183 104.761 218.183 104.004 217.427C104.075 216.481 104.075 216.481 104.382 215.535C105.518 214.779 105.518 214.779 106.346 214.92Z" fill="black"/>
<path d="M286.797 221.587C288.919 223.016 289.833 224.651 290.922 226.926C291.088 227.262 291.254 227.598 291.425 227.943C291.953 229.014 292.474 230.089 292.995 231.163C293.341 231.869 293.688 232.575 294.035 233.28C294.714 234.66 295.39 236.041 296.064 237.423C296.923 239.183 297.797 240.936 298.677 242.687C299.718 244.758 300.725 246.841 301.699 248.943C303.036 251.8 304.466 254.597 305.962 257.373C308.744 262.559 308.744 262.559 308.37 264.714C307.743 265.663 307.441 266.061 306.477 266.606C304.89 266.894 303.316 266.864 301.707 266.85C300.98 266.855 300.98 266.855 300.238 266.86C298.912 266.869 297.586 266.866 296.26 266.86C294.871 266.855 293.482 266.859 292.093 266.862C289.76 266.866 287.427 266.861 285.095 266.852C282.399 266.842 279.704 266.845 277.009 266.856C274.693 266.864 272.378 266.865 270.062 266.86C268.679 266.858 267.297 266.857 265.915 266.863C264.373 266.87 262.833 266.861 261.291 266.85C260.605 266.856 260.605 266.856 259.905 266.862C256.465 266.818 256.465 266.818 255.3 265.701C254.574 264.635 254.25 264.111 254.25 262.823C254.961 260.927 255.835 259.426 257.041 257.786C257.205 257.562 257.368 257.338 257.537 257.107C257.892 256.62 258.248 256.134 258.605 255.648C259.391 254.577 260.167 253.499 260.943 252.422C261.568 251.555 262.194 250.69 262.82 249.824C264.064 248.105 265.307 246.384 266.55 244.664C266.96 244.096 267.37 243.529 267.78 242.962C267.983 242.681 268.186 242.4 268.395 242.11C269.01 241.259 269.625 240.408 270.24 239.557C270.443 239.276 270.646 238.995 270.855 238.705C271.264 238.139 271.673 237.574 272.082 237.008C273.127 235.562 274.171 234.115 275.213 232.667C276.237 231.245 277.264 229.825 278.293 228.407C278.651 227.914 279.008 227.42 279.365 226.926C279.821 226.295 280.282 225.667 280.742 225.039C281.117 224.526 281.117 224.526 281.499 224.002C283.096 222.1 284.253 221.186 286.797 221.587ZM281.499 235.206C280.514 238.795 280.519 242.844 280.364 246.555C280.343 247.025 280.323 247.495 280.302 247.978C280.291 248.414 280.28 248.849 280.269 249.298C280.259 249.682 280.249 250.067 280.239 250.463C280.385 251.646 280.651 252.155 281.499 252.987C282.824 253.239 282.824 253.239 284.148 252.987C285.253 251.864 285.495 250.835 285.726 249.304C285.79 248.879 285.855 248.453 285.922 248.015C285.985 247.564 286.047 247.114 286.111 246.65C286.176 246.192 286.241 245.733 286.308 245.261C287.066 240.24 287.066 240.24 286.797 235.206C285.925 234.081 285.564 233.74 284.148 233.504C282.733 233.74 282.386 234.097 281.499 235.206ZM280.056 257.006C279.134 258.007 278.85 258.442 278.85 259.796C279.282 260.66 279.679 261.381 280.364 262.066C282.33 262.254 282.33 262.254 284.125 261.64C284.712 260.605 284.881 259.855 284.905 258.661C284.179 257.355 283.688 256.877 282.28 256.368C281.083 256.299 281.083 256.299 280.056 257.006Z" fill="black"/>
<path d="M348.3 250.621C349.246 250.716 349.246 250.716 350.003 251.472C349.861 252.654 349.861 252.654 349.624 253.742C348.749 253.979 348.749 253.979 347.732 254.12C347.357 253.871 346.983 253.621 346.597 253.364C346.478 252.418 346.478 252.418 346.597 251.472C347.353 250.716 347.353 250.716 348.3 250.621Z" fill="black"/>
</svg>
