<svg width="220" height="202" viewBox="0 0 220 202" fill="none" xmlns="http://www.w3.org/2000/svg">
<path d="M183.74 2.35783C186.156 4.17561 187.535 6.58842 188.02 9.57252C188.336 12.9583 187.601 16.3431 185.423 19.0184C184.102 20.4579 182.575 21.4923 180.949 22.5607C179.166 23.755 178.017 24.8443 177.503 26.9857C177.42 27.4045 177.344 27.8246 177.275 28.2458C177.181 28.7225 177.181 28.7225 176.943 28.9604C176.522 28.9841 176.101 28.9915 175.679 28.992C175.424 28.9923 175.168 28.9926 174.904 28.9929C174.635 28.992 174.366 28.9911 174.089 28.9901C173.819 28.9911 173.55 28.992 173.273 28.9929C173.017 28.9926 172.761 28.9923 172.498 28.992C172.261 28.9917 172.025 28.9915 171.781 28.9912C171.234 28.9604 171.234 28.9604 170.996 28.7225C170.65 26.0661 171.571 23.5686 173.119 21.4465C174.53 19.8046 176.119 18.5298 177.861 17.2579C179.357 16.1439 180.77 14.9153 181.225 13.0219C181.425 11.2589 181.365 9.71647 180.274 8.26414C179.072 6.94433 177.787 6.5792 176.051 6.49485C174.544 6.52851 173.387 6.86282 172.185 7.78836C171.606 8.45446 171.172 9.15147 170.758 9.92936C170.677 10.0796 170.597 10.2299 170.514 10.3847C170.349 10.7046 170.195 11.03 170.044 11.3567C168.607 11.1118 167.174 10.8408 165.748 10.5389C165.49 10.4853 165.232 10.4316 164.966 10.3763C164.335 10.1672 164.335 10.1672 163.859 9.45358C164.443 6.5284 166.321 3.90373 168.683 2.15339C173.226 -0.792025 179.295 -0.70826 183.74 2.35783Z" fill="black"/>
<path d="M108.194 21.3479C108.759 21.7047 108.759 21.7047 109.146 22.0615C109.067 22.2971 108.989 22.5326 108.908 22.7752C108.773 22.7697 108.637 22.7642 108.498 22.7585C107.26 22.7296 106.274 22.852 105.102 23.251C105.102 22.937 105.102 22.623 105.102 22.2994C106.037 21.4284 106.939 21.2454 108.194 21.3479Z" fill="black"/>
<path d="M119.134 21.8232C119.61 22.299 119.61 22.299 119.61 23.2505C118.197 23.0935 116.784 22.9365 115.328 22.7748C115.407 22.4607 115.485 22.1467 115.566 21.8232C116.956 21.3019 117.724 21.3451 119.134 21.8232Z" fill="black"/>
<path d="M107.242 24.4404C108.401 24.6486 108.401 24.6486 108.669 24.9162C108.775 25.9213 108.83 26.7823 108.312 27.6668C108.194 27.7796 108.077 27.8925 107.955 28.0088C107.033 27.8006 107.033 27.8006 106.766 27.533C106.736 27.1473 106.724 26.7601 106.721 26.3733C106.718 26.1629 106.714 25.9525 106.711 25.7358C106.766 25.1541 106.766 25.1541 107.242 24.4404Z" fill="black"/>
<path d="M116.523 24.6777C117.013 24.7818 117.013 24.7818 117.474 24.9156C117.67 25.8242 117.781 26.4006 117.445 27.2796C116.999 27.7703 116.999 27.7703 116.359 27.8446C116.178 27.8201 115.996 27.7956 115.809 27.7703C115.488 26.2798 115.488 26.2798 115.898 25.4211C116.285 24.9156 116.285 24.9156 116.523 24.6777Z" fill="black"/>
<path d="M112.476 25.3916C112.95 25.4195 112.95 25.4195 113.427 25.6295C114.445 27.1795 115.031 29.2662 114.855 31.1009C114.485 31.6838 114.209 31.7901 113.561 32.0227C112.952 32.0525 112.952 32.0525 112.401 31.7105C112.269 31.5878 112.136 31.4652 112 31.3388C112.079 30.9463 112.157 30.5538 112.238 30.1494C112.552 30.1494 112.866 30.1494 113.189 30.1494C113.124 29.9599 113.058 29.7703 112.99 29.5751C112.903 29.323 112.817 29.0709 112.729 28.8112C112.6 28.4387 112.6 28.4387 112.469 28.0585C112.246 27.3205 112.069 26.6357 112 25.8674C112.157 25.7104 112.314 25.5534 112.476 25.3916Z" fill="black"/>
<path d="M175.275 33.2423C176.432 33.7991 177.065 34.4858 177.654 35.6212C177.959 36.647 177.937 37.3688 177.639 38.4015C177.038 39.4296 176.355 40.0769 175.275 40.6168C174.104 40.7454 173.165 40.7463 172.094 40.2303C171.213 39.4335 170.604 38.8294 170.426 37.6144C170.382 36.5322 170.437 35.7914 170.904 34.8035C172.231 33.3717 173.353 32.9355 175.275 33.2423Z" fill="black"/>
<path d="M112.729 34.3275C113.428 34.9073 113.428 34.9073 113.681 35.7697C113.666 36.5725 113.666 36.5725 113.19 37.0483C112.714 37.0186 112.714 37.0186 112.239 36.8104C111.941 36.3198 111.941 36.3198 111.763 35.8589C110.199 35.7708 110.199 35.7708 108.908 36.5725C108.373 36.4982 108.373 36.4982 107.957 36.3346C107.778 35.7994 107.778 35.7994 107.719 35.1452C108.895 33.6327 111.059 33.5182 112.729 34.3275Z" fill="black"/>
<path d="M160.097 47.8426C160.239 47.8917 160.382 47.9408 160.528 47.9913C160.677 48.6752 160.677 48.6752 160.766 49.4187C160.29 49.8944 160.29 49.8944 159.695 49.9539C159.101 49.8944 159.101 49.8944 158.625 49.4187C158.67 48.8239 158.67 48.8239 158.863 48.2292C159.577 47.7534 159.577 47.7534 160.097 47.8426Z" fill="black"/>
<path d="M106.795 5.72072C107.479 5.88427 107.479 5.88427 107.717 6.12216C108.22 6.14931 108.722 6.17481 109.225 6.1911C112.913 6.31192 115.837 7.09103 118.464 9.86146C119.495 11.1507 120.306 12.5692 120.563 14.2104C120.757 14.2165 120.95 14.2226 121.15 14.2289C124.102 14.3751 127.918 14.6933 130.245 16.6998C130.555 17.065 130.555 17.065 130.54 17.6597C130.272 18.3741 130.016 18.5854 129.365 18.9681C128.721 19.1828 128.357 19.2342 127.697 19.2292C127.427 19.2281 127.427 19.2281 127.151 19.2269C126.871 19.2239 126.871 19.2239 126.585 19.2209C126.3 19.2193 126.3 19.2193 126.01 19.2176C125.542 19.2148 125.075 19.2106 124.607 19.206C124.584 19.344 124.561 19.482 124.537 19.6242C124.278 20.9768 123.94 22.0146 122.942 23.0122C122.916 23.4723 122.905 23.9332 122.9 24.394C122.812 29.5067 122.625 35.0666 119.136 39.1886C118.669 39.5962 118.188 39.9848 117.709 40.378C117.934 40.3815 118.159 40.385 118.391 40.3886C119.246 40.4026 120.1 40.421 120.955 40.4405C121.321 40.4483 121.688 40.455 122.054 40.4605C126.62 40.5306 131.051 41.0303 134.599 44.1843C134.737 44.2974 134.875 44.4106 135.017 44.5271C139.813 48.7989 141.586 56.5432 143.586 62.4012C143.872 63.2359 144.163 64.0675 144.47 64.8943C144.579 65.1888 144.689 65.4832 144.801 65.7865C144.898 66.0433 144.995 66.3001 145.095 66.5647C145.297 67.2364 145.347 67.7531 145.304 68.4488C143.728 69.1625 143.728 69.1625 142.925 69.1625C143.137 70.2452 143.353 71.3274 143.571 72.4091C143.644 72.7752 143.717 73.1415 143.789 73.5079C144.427 76.7577 145.1 80.1233 146.746 83.0343C146.836 83.1993 146.926 83.3642 147.019 83.5341C148.06 85.4053 149.217 87.2059 150.378 89.004C150.804 89.6659 151.226 90.3303 151.648 90.9952C152.683 92.6306 152.683 92.6306 153.725 94.2617C153.982 94.6624 154.237 95.0647 154.489 95.4685C154.612 95.6608 154.735 95.8531 154.861 96.0513C154.969 96.2225 155.076 96.3938 155.187 96.5703C155.791 97.3128 156.538 97.4811 157.436 97.7091C157.833 97.8407 158.23 97.9745 158.625 98.1105C158.942 98.2149 159.26 98.319 159.577 98.4227C160.679 96.8809 161.714 95.3139 162.699 93.6947C164.115 91.3876 165.578 89.1152 167.061 86.8507C167.632 85.9769 168.199 85.1004 168.765 84.2238C168.981 83.8908 169.196 83.5578 169.411 83.2248C169.569 82.9809 169.569 82.9809 169.73 82.732C170.038 82.2561 170.346 81.7805 170.654 81.305C171.955 79.2992 173.247 77.2877 174.534 75.2732C175.809 73.2785 177.092 71.2894 178.385 69.3064C179.429 67.7027 180.462 66.0916 181.492 64.4791C182.981 62.1498 184.471 59.8211 185.982 57.506C186.106 57.3152 186.231 57.1245 186.358 56.928C186.747 56.3316 187.138 55.7366 187.529 55.142C187.649 54.9572 187.769 54.7725 187.893 54.5822C188.006 54.4115 188.119 54.2408 188.235 54.065C188.334 53.9138 188.433 53.7626 188.536 53.6069C188.837 53.224 188.837 53.224 189.551 52.7482C190.238 52.6878 190.238 52.6878 191.087 52.6867C191.242 52.6858 191.397 52.685 191.556 52.6841C192.068 52.682 192.579 52.6834 193.09 52.685C193.445 52.6847 193.801 52.6843 194.156 52.6837C194.9 52.683 195.644 52.684 196.388 52.6862C197.343 52.6889 198.298 52.6873 199.253 52.6845C199.986 52.6828 200.719 52.6833 201.453 52.6846C201.805 52.6849 202.157 52.6845 202.509 52.6834C203.001 52.6822 203.492 52.684 203.983 52.6867C204.263 52.687 204.543 52.6874 204.832 52.6878C205.489 52.7482 205.489 52.7482 205.965 53.224C206.013 53.8136 206.032 54.3768 206.03 54.9668C206.031 55.1486 206.032 55.3303 206.033 55.5175C206.037 56.1297 206.037 56.7419 206.037 57.3541C206.039 57.7916 206.041 58.2292 206.043 58.6668C206.048 59.6106 206.05 60.5544 206.052 61.4982C206.055 62.9893 206.061 64.4804 206.067 65.9715C206.077 68.3291 206.085 70.6866 206.092 73.0442C206.104 77.2681 206.119 81.4919 206.136 85.7157C206.142 87.1993 206.146 88.6829 206.15 90.1665C206.152 91.0879 206.156 92.0093 206.159 92.9307C206.161 93.3594 206.162 93.788 206.163 94.2167C206.163 94.7999 206.166 95.383 206.169 95.9662C206.168 96.1376 206.168 96.309 206.168 96.4856C206.162 97.3647 206.162 97.3647 206.441 98.1848C206.685 98.1908 206.928 98.1968 207.18 98.2029C208.081 98.2252 208.982 98.2491 209.883 98.2734C210.274 98.2837 210.665 98.2937 211.055 98.3031C211.616 98.3168 212.176 98.332 212.737 98.3475C212.912 98.3514 213.088 98.3554 213.269 98.3595C214.502 98.3956 214.502 98.3956 214.767 98.6606C214.79 99.0099 214.797 99.3602 214.798 99.7102C214.799 100.045 214.799 100.045 214.8 100.386C214.799 100.629 214.799 100.871 214.799 101.121C214.799 101.369 214.799 101.616 214.799 101.871C214.799 102.395 214.799 102.918 214.798 103.442C214.797 104.248 214.798 105.053 214.799 105.858C214.799 106.365 214.799 106.873 214.799 107.381C214.799 107.623 214.799 107.866 214.8 108.116C214.799 108.339 214.798 108.562 214.798 108.792C214.797 109.088 214.797 109.088 214.797 109.39C214.767 109.841 214.767 109.841 214.529 110.079C213.913 110.117 213.302 110.141 212.684 110.155C212.408 110.162 212.408 110.162 212.125 110.169C211.534 110.185 210.943 110.199 210.351 110.213C209.951 110.223 209.551 110.234 209.151 110.244C208.168 110.27 207.186 110.294 206.203 110.317C206.204 110.488 206.205 110.659 206.206 110.835C206.216 112.445 206.223 114.055 206.228 115.665C206.23 116.492 206.233 117.32 206.239 118.148C206.245 119.1 206.247 120.052 206.249 121.004C206.252 121.3 206.254 121.597 206.257 121.903C206.257 122.317 206.257 122.317 206.257 122.74C206.258 122.983 206.259 123.226 206.26 123.476C206.202 124.124 206.06 124.513 205.727 125.066C203.906 125.072 202.086 125.076 200.265 125.079C199.645 125.08 199.025 125.082 198.405 125.084C197.516 125.087 196.627 125.088 195.738 125.089C195.459 125.091 195.181 125.092 194.894 125.093C194.637 125.093 194.379 125.093 194.114 125.093C193.774 125.094 193.774 125.094 193.426 125.095C192.881 125.066 192.881 125.066 192.405 124.828C192.158 124.085 192.131 123.547 192.119 122.767C192.114 122.487 192.109 122.207 192.104 121.918C192.1 121.624 192.096 121.33 192.092 121.027C192.088 120.756 192.083 120.486 192.079 120.207C192.063 119.195 192.048 118.183 192.034 117.171C191.999 114.909 191.965 112.648 191.93 110.317C182.823 110.317 173.717 110.317 164.335 110.317C165.12 111.573 165.905 112.829 166.714 114.123C167.566 116.395 167.566 116.395 167.189 117.454C166.669 118.138 166.669 118.138 166 118.643C165.212 118.718 165.212 118.718 164.573 118.643C164.509 118.83 164.445 119.016 164.379 119.208C164.097 119.833 164.097 119.833 163.383 120.308C162.028 120.42 161.246 120.311 160.053 119.595C159.935 119.713 159.817 119.83 159.696 119.952C158.832 120.47 158.159 120.515 157.198 120.308C152.574 118.477 149.269 114.239 147.207 109.841C146.623 108.428 146.08 106.968 145.942 105.439C145.729 104.35 145.277 103.806 144.59 102.943C144.533 103.13 144.476 103.318 144.417 103.511C142.277 110.446 139.453 116.471 134.361 121.736C134.177 121.929 133.993 122.123 133.803 122.322C133.629 122.502 133.455 122.681 133.275 122.866C133.116 123.03 132.957 123.194 132.793 123.363C132.22 123.877 132.22 123.877 131.597 124.203C130.797 124.65 130.365 125.022 129.841 125.78C129.438 127.512 129.71 129.387 129.827 131.142C129.855 131.697 129.882 132.253 129.907 132.809C129.965 134.009 130.031 135.209 130.102 136.408C130.215 138.312 130.311 140.217 130.405 142.122C130.437 142.78 130.469 143.437 130.502 144.094C130.51 144.259 130.518 144.424 130.526 144.594C130.585 145.785 130.647 146.975 130.709 148.166C131.081 155.3 131.355 162.437 131.616 169.576C131.681 171.362 131.748 173.149 131.817 174.935C131.869 176.286 131.921 177.638 131.971 178.989C132 179.772 132.03 180.555 132.061 181.339C132.094 182.189 132.125 183.04 132.156 183.891C132.167 184.141 132.177 184.392 132.187 184.65C132.195 184.877 132.203 185.105 132.211 185.339C132.219 185.536 132.226 185.733 132.234 185.936C132.22 186.441 132.22 186.441 131.982 187.155C131.41 187.441 131.042 187.417 130.406 187.408C130.211 187.406 130.017 187.403 129.817 187.401C129.593 187.397 129.593 187.397 129.365 187.393C130.587 189.623 132.994 190.57 135.208 191.615C135.465 191.738 135.721 191.86 135.986 191.987C138.026 192.95 140.096 193.833 142.198 194.655C145.844 196.113 145.844 196.113 146.509 197.4C147.118 198.009 147.612 197.972 148.446 197.978C148.649 197.975 148.851 197.971 149.059 197.968C149.272 197.968 149.486 197.968 149.706 197.968C150.413 197.968 151.119 197.96 151.826 197.953C152.316 197.951 152.805 197.95 153.295 197.949C154.584 197.945 155.874 197.936 157.163 197.925C158.479 197.916 159.794 197.911 161.11 197.906C163.691 197.896 166.273 197.88 168.855 197.86C168.935 197.616 169.015 197.373 169.097 197.122C169.204 196.798 169.311 196.475 169.418 196.151C169.471 195.991 169.524 195.831 169.578 195.666C169.99 194.421 170.458 193.228 171.025 192.047C171.115 191.859 171.204 191.671 171.296 191.478C172.19 189.661 173.297 188.017 174.493 186.387C174.999 185.696 175.494 184.998 175.991 184.3C176.384 184.379 176.776 184.457 177.181 184.538C177.242 187.985 177.125 191.345 176.705 194.767C176.832 194.531 176.959 194.295 177.09 194.052C178.848 190.826 180.809 187.905 183.366 185.252C183.479 185.132 183.593 185.012 183.71 184.889C185.721 182.776 187.832 180.926 190.264 179.305C190.904 179.394 190.904 179.394 191.454 179.543C191.332 180.878 190.813 181.828 190.175 182.977C189.219 184.744 188.317 186.53 187.454 188.344C187.349 188.566 187.243 188.787 187.135 189.015C186.417 190.528 185.72 192.051 185.031 193.578C185.129 193.476 185.228 193.373 185.329 193.268C188.005 190.529 191.047 188.453 194.546 186.917C194.764 186.82 194.982 186.724 195.207 186.624C195.863 186.397 196.267 186.491 196.925 186.679C196.831 187.87 196.202 188.504 195.424 189.341C193.647 191.323 191.935 193.567 190.74 195.957C191.004 195.808 191.268 195.659 191.539 195.505C191.888 195.309 192.236 195.112 192.584 194.916C192.757 194.818 192.931 194.72 193.11 194.619C193.278 194.524 193.447 194.429 193.621 194.331C193.775 194.243 193.93 194.156 194.089 194.066C195.024 193.554 195.599 193.28 196.687 193.34C196.925 194.292 196.925 194.292 195.022 198.098C201.224 198.098 207.426 198.098 213.815 198.098C213.894 198.49 213.972 198.883 214.053 199.287C213.815 199.525 213.815 199.525 213.359 199.555C213.156 199.555 212.954 199.555 212.746 199.554C212.513 199.555 212.281 199.555 212.041 199.556C211.654 199.555 211.654 199.555 211.258 199.554C210.986 199.554 210.714 199.554 210.433 199.554C209.674 199.555 208.915 199.554 208.156 199.553C207.339 199.552 206.522 199.552 205.705 199.552C204.288 199.552 202.871 199.552 201.455 199.55C199.406 199.548 197.357 199.548 195.309 199.547C191.986 199.547 188.662 199.545 185.339 199.543C182.11 199.541 178.881 199.539 175.652 199.538C175.453 199.538 175.254 199.538 175.049 199.538C174.051 199.538 173.054 199.537 172.056 199.537C163.773 199.535 155.49 199.53 147.207 199.525C147.207 199.839 147.207 200.153 147.207 200.477C146.212 200.958 145.32 201.022 144.235 201.018C144.059 201.019 143.883 201.02 143.702 201.022C143.119 201.025 142.535 201.025 141.952 201.024C141.538 201.025 141.124 201.026 140.71 201.027C139.836 201.029 138.963 201.029 138.09 201.028C137.214 201.027 136.337 201.028 135.461 201.032C128.933 201.065 122.265 201.078 115.805 200.001C115.727 199.922 115.648 199.844 115.568 199.763C114.902 199.738 114.242 199.728 113.576 199.728C113.367 199.728 113.158 199.727 112.943 199.726C112.248 199.724 111.554 199.723 110.859 199.723C110.377 199.722 109.896 199.722 109.414 199.721C108.403 199.719 107.391 199.719 106.379 199.719C105.083 199.719 103.788 199.716 102.492 199.712C101.497 199.709 100.501 199.709 99.5051 199.709C99.0276 199.708 98.55 199.707 98.0725 199.705C97.4034 199.703 96.7343 199.704 96.0652 199.705C95.7699 199.703 95.7699 199.703 95.4685 199.701C94.3781 199.707 93.522 199.837 92.4924 200.239C91.5714 200.406 90.642 200.503 89.7121 200.611C89.4728 200.64 89.2334 200.67 88.9868 200.701C85.3002 201.138 81.5995 201.231 77.8904 201.221C77.2925 201.22 76.6947 201.221 76.0967 201.223C71.2332 201.226 71.2332 201.226 69.6552 200.952C69.4982 200.795 69.3412 200.638 69.1794 200.477C69.1794 200.163 69.1794 199.849 69.1794 199.525C47.7481 199.525 26.3167 199.525 4.23597 199.525C4.11821 198.936 4.11821 198.936 3.99808 198.336C4.46283 197.871 5.17181 198.069 5.79033 198.068C6.01414 198.069 6.23795 198.07 6.46855 198.071C6.82012 198.071 6.82012 198.071 7.17879 198.071C7.95755 198.071 8.73629 198.073 9.51504 198.075C10.0534 198.075 10.5917 198.075 11.1301 198.076C12.5501 198.077 13.9701 198.079 15.3902 198.081C16.838 198.084 18.2857 198.085 19.7335 198.086C22.5766 198.089 25.4196 198.093 28.2627 198.098C28.262 197.895 28.2614 197.693 28.2608 197.484C28.2587 196.719 28.2572 195.955 28.2561 195.191C28.2555 194.862 28.2547 194.534 28.2537 194.205C28.2459 191.688 28.3101 189.189 28.5006 186.679C27.6365 187.145 26.7742 187.614 25.9132 188.086C25.6216 188.245 25.3296 188.404 25.0371 188.561C22.65 189.849 20.25 191.226 18.4052 193.251C17.7956 193.816 17.7956 193.816 17.1972 193.794C16.6061 193.578 16.6061 193.578 16.2897 193.149C16.1736 192.871 16.1736 192.871 16.0551 192.587C15.9671 192.381 15.879 192.175 15.7883 191.962C15.6559 191.629 15.6559 191.629 15.5208 191.288C15.428 191.062 15.3353 190.835 15.2397 190.602C13.6332 186.59 12.7486 182.871 14.4642 178.733C15.4697 176.698 17.1563 175.207 19.3 174.457C20.9351 174.077 22.7085 174.077 24.2706 174.739C24.7923 175.088 25.1002 175.493 25.4823 175.989C26.1666 176.854 26.6561 177.084 27.7423 177.268C28.1536 177.313 28.565 177.357 28.9763 177.402C29.1333 177.48 29.2903 177.559 29.4521 177.639C29.6466 175.044 29.7267 172.451 29.7495 169.849C29.7545 169.565 29.7596 169.281 29.7648 168.988C29.7766 165.931 29.191 163.231 27.7869 160.512C27.7375 160.678 27.6881 160.845 27.6373 161.017C26.7978 163.602 25.222 165.455 22.7875 166.705C20.1467 167.756 17.2544 167.277 14.703 166.221C12.7862 165.323 11.0216 164.263 9.27622 163.069C7.53104 161.892 6.09125 161.005 3.93117 160.88C3.70352 160.867 3.47587 160.854 3.24132 160.841C2.22506 160.795 1.20902 160.766 0.19187 160.749C-0.0918983 159.925 -0.0549918 159.583 0.263423 158.755C0.418034 158.456 0.577878 158.159 0.741986 157.865C0.828558 157.708 0.91513 157.551 1.00433 157.389C3.4281 153.16 7.71318 150.436 12.3359 149.128C17.0479 147.87 22.4356 147.772 26.8799 150C28.2478 150.828 29.2178 151.679 29.7049 153.226C29.6806 154.632 29.3497 155.796 28.4262 156.869C27.9446 157.395 27.9446 157.395 28.114 158.073C28.4368 158.719 28.7735 159.254 29.1845 159.842C30.0011 161.015 30.4489 162.249 30.8794 163.604C31.152 162.424 31.3996 161.244 31.6117 160.052C32.4714 155.24 33.4188 150.807 36.5887 146.952C36.4885 146.791 36.3882 146.631 36.2849 146.465C36.1546 146.253 36.0242 146.041 35.89 145.822C35.7602 145.612 35.6305 145.402 35.4969 145.186C34.9069 144.108 34.8389 143.184 34.9235 141.956C35.3783 140.645 36.145 139.827 37.3024 139.102C42.1536 136.76 48.203 137.002 53.2409 138.626C55.6304 139.464 57.708 140.569 59.6639 142.194C59.869 142.363 60.0742 142.533 60.2856 142.707C61.6292 143.865 63.0817 145.147 63.9459 146.714C63.9505 147.35 63.9505 147.35 63.708 147.903C62.6711 148.502 61.4859 148.538 60.3162 148.675C57.8175 149.181 55.7763 150.35 53.6275 151.68C49.5292 154.207 45.3583 156.632 40.394 155.606C38.9206 155.1 37.8459 154.254 37.0645 152.899C36.742 151.959 36.522 151.022 36.3509 150.044C33.2506 155.673 32.7231 162.779 32.0689 169.075C32.1474 168.997 32.2259 168.918 32.3068 168.838C32.5677 168.603 32.8307 168.37 33.0948 168.139C33.2361 168.014 33.3775 167.889 33.5231 167.761C34.4568 167.032 35.1044 166.876 36.2914 166.905C36.5257 166.909 36.76 166.913 37.0013 166.918C37.2681 166.926 37.2681 166.926 37.5403 166.934C37.5599 166.66 37.5796 166.385 37.5998 166.102C37.827 164.364 38.5563 163.076 39.9415 161.999C41.5036 160.972 43.0703 160.773 44.9148 160.987C49.0545 161.849 52.126 165.063 54.3913 168.469C57.4422 173.361 58.9915 178.71 58.9948 184.464C58.9977 184.729 59.0007 184.994 59.0037 185.267C59.0041 185.523 59.0046 185.779 59.0051 186.043C59.006 186.273 59.007 186.504 59.008 186.742C58.9452 187.45 58.8078 187.955 58.4744 188.582C57.7608 188.82 57.7608 188.82 57.2525 188.606C57.0522 188.491 56.852 188.375 56.6457 188.255C56.2984 188.058 56.2984 188.058 55.9441 187.857C55.6801 187.704 55.416 187.551 55.144 187.393C50.665 184.821 46.5107 183.088 41.3918 182.268C39.7716 182.002 38.3343 181.629 36.8266 180.97C34.2115 185.958 33.455 191.616 33.076 197.167C33.0204 197.622 33.0204 197.622 32.7825 198.098C37.4186 198.078 42.0547 198.055 46.6908 198.029C48.8433 198.018 50.9959 198.006 53.1485 197.997C55.0244 197.99 56.9003 197.98 58.7763 197.969C59.7698 197.963 60.7632 197.958 61.7568 197.954C62.6916 197.951 63.6265 197.946 64.5614 197.939C64.9047 197.937 65.248 197.936 65.5913 197.935C66.0598 197.934 66.5282 197.93 66.9966 197.926C67.2589 197.925 67.5212 197.924 67.7914 197.922C68.6498 197.843 69.176 197.643 69.7639 197.012C69.8703 196.873 69.9767 196.734 70.0864 196.591C70.802 195.725 71.5471 195.183 72.5098 194.619C72.7489 194.474 72.7489 194.474 72.9928 194.325C74.0022 193.716 75.0213 193.122 76.0382 192.525C76.3917 192.317 76.3917 192.317 76.7523 192.105C77.2186 191.832 77.6857 191.56 78.1536 191.289C78.4754 191.101 78.4754 191.101 78.8037 190.91C78.9949 190.799 79.1862 190.689 79.3833 190.575C80.3034 189.974 80.6801 189.468 80.9995 188.419C81.0593 188.226 81.1191 188.034 81.1807 187.836C81.2239 187.69 81.2672 187.544 81.3117 187.393C81.0881 187.401 81.0881 187.401 80.8601 187.41C80.5685 187.416 80.5685 187.416 80.2709 187.423C80.0777 187.428 79.8846 187.434 79.6855 187.439C79.1707 187.393 79.1707 187.393 78.6949 186.917C78.682 186.179 78.7026 185.467 78.7457 184.731C78.758 184.492 78.7703 184.253 78.783 184.007C78.9834 180.278 79.2468 176.552 79.502 172.827C79.5789 171.703 79.655 170.58 79.7312 169.456C79.8597 167.562 79.9888 165.669 80.1181 163.775C80.2811 161.39 80.4433 159.004 80.6051 156.619C81.669 140.943 81.669 140.943 82.0917 135.09C82.1033 134.929 82.1149 134.769 82.1268 134.603C82.2417 133.01 82.3576 131.417 82.4756 129.825C82.5113 129.337 82.547 128.848 82.5826 128.36C82.5988 128.147 82.6149 127.934 82.6315 127.715C82.9241 125.594 82.9241 125.594 82.4231 123.665C82.2722 123.558 82.1213 123.451 81.9659 123.342C74.2576 117.289 70.6238 107.606 69.3478 98.1452C69.1484 96.4402 69.1351 94.7344 69.1353 93.0198C69.1348 92.5235 69.1305 92.0273 69.126 91.5309C69.1178 89.5096 69.2781 87.5675 69.6552 85.5768C69.4295 85.5719 69.2038 85.567 68.9713 85.5619C67.1016 85.2894 65.4752 83.7266 64.3231 82.3095C62.3542 79.4967 61.4789 76.1044 60.9645 72.7519C60.9342 72.5569 60.904 72.3618 60.8728 72.1609C60.5643 70.1092 60.368 68.0517 60.1898 65.9854C60.1542 65.5849 60.1185 65.1845 60.0826 64.7841C60.0085 63.9536 59.9355 63.123 59.8632 62.2924C59.7716 61.2391 59.6782 60.186 59.5841 59.133C59.493 58.1115 59.4028 57.09 59.3126 56.0684C59.2959 55.88 59.2792 55.6915 59.262 55.4973C59.2137 54.9517 59.1661 54.406 59.1188 53.8604C59.0961 53.6018 59.0961 53.6018 59.073 53.338C58.9987 52.4651 58.9368 51.5934 58.8943 50.7184C58.8854 50.5448 58.8766 50.3712 58.8675 50.1923C58.8445 49.7169 58.8248 49.2414 58.8054 48.7658C58.6923 47.8235 58.4648 47.3183 57.7738 46.6802C56.927 46.0652 56.0606 45.4861 55.1803 44.9202C51.5707 42.5228 47.7257 39.0224 46.58 34.6687C46.4579 33.6388 46.4643 33.191 47.0112 32.3047C47.5316 31.8141 47.5316 31.8141 48.2453 31.8141C48.2256 31.5638 48.206 31.3136 48.1858 31.0558C48.2553 29.9955 48.4235 29.6717 49.1968 28.9594C49.6696 28.792 50.1455 28.6332 50.6241 28.4836C50.7762 28.3217 50.9283 28.1598 51.0851 27.993C51.5757 27.5321 51.5757 27.5321 52.3488 27.2645C54.0561 27.3214 54.9931 28.5569 56.1263 29.7352C58.1818 31.8671 60.5132 33.4661 63.2322 34.6687C63.3892 34.6687 63.5462 34.6687 63.708 34.6687C63.6853 34.528 63.6626 34.3872 63.6392 34.2422C63.364 32.2804 63.364 32.2804 63.9459 31.3383C64.377 30.8923 64.377 30.8923 64.8974 30.6246C66.1019 30.7445 66.5406 31.1875 67.2837 32.0919C69.7807 35.6838 71.139 39.3192 70.498 43.7456C70.4178 44.1659 70.3312 44.5851 70.235 45.002C69.9536 46.6507 70.2682 48.0923 70.6662 49.6854C70.7196 49.9046 70.773 50.1237 70.8281 50.3495C71.2471 52.0423 71.7222 53.7096 72.272 55.365C72.3388 55.2323 72.4056 55.0997 72.4744 54.963C75.5455 48.8987 78.8468 43.0798 85.5937 40.6159C89.5434 39.4568 93.5439 39.8559 97.5846 40.2504C97.8394 40.2735 98.0943 40.2966 98.3569 40.3204C98.5851 40.3429 98.8132 40.3653 99.0482 40.3884C99.6915 40.4292 99.6915 40.4292 100.343 39.9023C100.651 38.1735 100.295 36.6275 99.6263 35.0367C99.4035 34.4625 99.3107 33.9668 99.2276 33.3603C99.0221 32.5142 99.0221 32.5142 98.4777 32.3279C98.105 32.2305 97.7317 32.1352 97.358 32.0417C95.9679 31.4994 95.1293 30.1084 94.3955 28.8702C93.9692 27.3246 93.8768 25.8124 94.574 24.3355C94.9812 23.6322 95.4208 23.0484 96.0608 22.5364C96.2178 22.5364 96.3748 22.5364 96.5365 22.5364C96.5316 22.3737 96.5266 22.211 96.5214 22.0434C96.395 17.2862 96.5384 13.4109 99.9413 9.73509C101.13 8.6242 102.554 7.6639 104.149 7.28187C104.887 7.1526 104.887 7.1526 105.16 6.59794C105.248 6.36243 105.248 6.36243 105.338 6.12216C106.052 5.64638 106.052 5.64638 106.795 5.72072ZM100.343 11.5936C98.505 13.8649 97.9147 16.8296 97.9639 19.6818C98.2 19.561 98.4361 19.4401 98.6794 19.3157C105.26 15.9698 111.515 14.2122 118.898 13.9725C118.257 11.8591 116.905 10.2348 115.092 8.97682C110.335 6.61265 103.977 7.62069 100.343 11.5936ZM103.197 18.4923C103.197 18.5708 103.197 18.6493 103.197 18.7302C107.863 19.5997 112.961 18.9452 117.632 18.3102C118.104 18.2467 118.575 18.1835 119.047 18.1206C119.279 18.0896 119.511 18.0586 119.751 18.0267C122.627 17.6659 125.518 17.6018 128.414 17.5408C128.208 16.9936 128.208 16.9936 127.533 16.8271C127.115 16.7094 127.115 16.7094 126.689 16.5892C126.418 16.5107 126.147 16.4322 125.867 16.3513C123.133 15.6747 120.421 15.5325 117.619 15.5336C117.432 15.5334 117.244 15.5333 117.05 15.5331C112.099 15.5451 107.776 16.6386 103.197 18.4923ZM118.486 19.4058C113.233 20.1898 108.028 20.3495 102.722 20.3954C102.664 20.642 102.606 20.8885 102.547 21.1426C102.467 21.4685 102.386 21.7943 102.305 22.1201C102.249 22.3635 102.249 22.3635 102.192 22.6117C101.935 23.6284 101.674 24.2864 100.819 24.9153C99.3612 24.9428 98.5817 24.3584 97.4881 23.488C96.4335 24.2675 95.8226 24.7582 95.585 26.1048C95.615 27.9636 96.3102 29.1719 97.5773 30.5057C98.3742 30.9611 98.9632 30.8796 99.867 30.8625C100.405 31.6691 100.568 32.3326 100.804 33.2711C101.063 34.2957 101.336 35.2999 101.711 36.2893C102.195 37.7 102.229 39.0671 101.711 40.4672C101.294 41.0917 101.294 41.0917 100.759 41.5526C100.263 42.0344 100.263 42.0344 100.313 42.8164C100.844 44.5871 102.147 46.0173 103.673 47.0389C106.275 48.3889 108.891 48.9611 111.793 48.2953C113.553 47.628 114.834 46.6874 115.626 44.9444C115.922 44.0842 116.1 43.1928 116.043 42.2811C115.886 42.1241 115.729 41.9671 115.568 41.8054C114.807 41.8771 114.079 42.0038 113.335 42.1696C112.68 42.287 112.069 42.3211 111.405 42.3258C111.186 42.3291 110.968 42.3325 110.743 42.336C110.05 42.2772 109.536 42.0939 108.907 41.8054C108.907 41.4914 108.907 41.1773 108.907 40.8538C109.2 40.8676 109.493 40.8814 109.795 40.8956C112.686 40.9913 114.942 40.7707 117.307 38.9358C120.453 35.9079 121.229 31.3036 121.321 27.1297C121.328 26.5403 121.333 25.9508 121.336 25.3614C121.339 25.0808 121.341 24.8001 121.343 24.511C121.337 22.6982 121.158 20.9833 120.801 19.206C119.986 19.206 119.287 19.2789 118.486 19.4058ZM52.0515 28.9594C52.4059 30.1222 53.0713 30.8123 53.8951 31.6654C54.1533 31.9394 54.4113 32.2135 54.6692 32.4878C54.7925 32.618 54.9158 32.7482 55.0428 32.8824C56.8364 34.7817 56.8364 34.7817 57.0471 35.8582C55.6705 35.3677 54.902 34.7708 53.9546 33.6726C53.8323 33.5354 53.71 33.3983 53.584 33.257C53.229 32.8577 52.8778 32.4552 52.5272 32.052C52.3445 31.8453 52.1617 31.6386 51.9734 31.4256C51.6002 31.0023 51.2295 30.5772 50.862 30.1489C50.548 30.2274 50.234 30.3059 49.9105 30.3867C49.7374 30.8193 49.7374 30.8193 49.6726 31.3383C49.8791 31.7774 49.8791 31.7774 50.2376 32.1858C50.3697 32.3501 50.5019 32.5145 50.6381 32.6839C50.7905 32.8678 50.9429 33.0518 51.0999 33.2414C51.2695 33.4548 51.4391 33.6683 51.6138 33.8882C52.1466 34.5535 52.6902 35.2077 53.2409 35.8582C53.43 36.0868 53.43 36.0868 53.6228 36.32C54.9545 37.7954 56.765 38.6938 58.4744 39.6644C59.0053 39.9658 59.5355 40.2681 60.0653 40.5713C60.287 40.6955 60.5087 40.8197 60.7372 40.9477C61.3521 41.3444 61.8185 41.713 62.2807 42.2811C62.2807 42.5952 62.2807 42.9092 62.2807 43.2327C61.4851 42.9841 60.9135 42.6337 60.2735 42.1176C59.4252 41.4562 58.5538 41.0021 57.5824 40.5416C54.4667 39.0377 52.3957 36.9713 50.3158 34.268C49.7082 33.443 49.7082 33.443 48.7656 33.1522C48.5939 33.1816 48.4222 33.2111 48.2453 33.2414C47.8835 34.2932 48.1971 34.9258 48.6235 35.913C50.4986 39.5958 53.6804 42.1171 56.9997 44.4203C59.6451 46.2823 59.6451 46.2823 60.1397 47.5147C60.2247 48.14 60.2872 48.7488 60.3314 49.377C60.3462 49.564 60.361 49.751 60.3762 49.9438C60.4081 50.3503 60.4391 50.757 60.4693 51.1637C60.5176 51.8143 60.5685 52.4645 60.6201 53.1148C60.748 54.7351 60.8719 56.3556 60.9953 57.9762C61.2555 71.672 61.2555 71.672 67.2763 83.1979C69.155 84.4471 71.1702 84.6467 73.3638 84.286C76.4726 83.4855 78.8261 81.1159 80.4196 78.4253C80.5826 78.1546 80.5826 78.1546 80.7489 77.8784C83.1556 74.2888 83.1556 74.2888 84.4042 70.3519C83.1262 69.707 81.8475 69.0634 80.5682 68.4208C80.1328 68.202 79.6976 67.9827 79.2626 67.7632C78.6383 67.4481 78.0134 67.1343 77.3884 66.8208C77.1931 66.7219 76.9978 66.6231 76.7967 66.5212C76.5252 66.3855 76.5252 66.3855 76.2483 66.247C76.0888 66.1667 75.9293 66.0864 75.7649 66.0037C75.3642 65.8008 75.3642 65.8008 74.8887 65.8321C74.9876 66.241 74.9876 66.241 75.0885 66.6582C75.1756 67.0221 75.2626 67.3861 75.3496 67.75C75.4147 68.0184 75.4147 68.0184 75.4811 68.2923C75.7384 69.3727 75.9391 70.4393 76.0782 71.5414C75.6856 71.5414 75.2931 71.5414 74.8887 71.5414C74.8419 71.3305 74.7952 71.1197 74.747 70.9024C73.9914 67.5673 73.0789 64.2746 72.1767 60.9768C70.2322 53.8652 70.2322 53.8652 69.4312 50.8507C69.3839 50.6741 69.3365 50.4976 69.2877 50.3157C68.7054 48.1087 68.4311 45.9712 68.9415 43.7233C69.7666 39.933 68.5705 36.9106 66.5682 33.7451C66.2521 33.2581 65.9331 32.7729 65.6111 32.2898C65.4541 32.2898 65.2971 32.2898 65.1353 32.2898C65.1085 33.7352 65.2084 35.136 65.3732 36.5718C64.2606 36.9401 63.5203 36.4845 62.5185 35.992C62.3385 35.9049 62.1585 35.8178 61.973 35.728C58.7376 34.1269 56.0968 31.979 53.6897 29.3005C53.1152 28.8639 52.7558 28.8927 52.0515 28.9594ZM79.6576 46.2351C77.4401 48.8124 75.8232 51.7294 74.266 54.7391C74.0449 55.16 73.8146 55.5761 73.5758 55.9871C72.8403 57.2802 72.8403 57.2802 72.8146 58.7252C72.9026 59.035 72.9994 59.3425 73.1046 59.647C73.1717 59.8733 73.1717 59.8733 73.2402 60.1042C73.332 60.4099 73.4297 60.7139 73.5338 61.0157C73.6993 61.5501 73.6993 61.5501 73.8037 62.1179C73.9951 63.0322 74.165 63.7111 74.8818 64.3409C75.4981 64.705 76.1204 65.0104 76.7723 65.3061C77.0036 65.4189 77.235 65.5317 77.4733 65.6479C78.2091 66.0046 78.9497 66.3495 79.6911 66.6944C80.1925 66.935 80.6935 67.1762 81.1941 67.4183C82.4188 68.0084 83.6476 68.589 84.88 69.1625C86.4863 67.6414 86.5613 65.7629 86.6642 63.6669C86.684 63.2965 86.7038 62.926 86.7237 62.5555C86.7536 61.9766 86.7833 61.3977 86.8129 60.8188C86.8418 60.2565 86.8719 59.6943 86.9021 59.1322C86.9105 58.9594 86.9189 58.7867 86.9276 58.6087C86.9702 57.8194 87.0238 57.0741 87.2589 56.3165C87.5729 56.395 87.8869 56.4735 88.2105 56.5544C88.0649 60.667 87.8748 64.7751 87.6455 68.8837C87.6143 69.449 87.5832 70.0143 87.5522 70.5796C87.4714 72.0496 87.39 73.5196 87.3084 74.9895C87.1779 77.3438 87.048 79.6981 86.9185 82.0525C86.8738 82.8627 86.8288 83.673 86.7837 84.4832C86.6056 87.7016 86.4472 90.9204 86.3073 94.1407C86.6633 94.2287 87.0194 94.3167 87.3754 94.4046C87.5736 94.4536 87.7719 94.5025 87.9761 94.553C98.4553 97.1263 117.436 99.8673 127.462 94.8544C127.469 94.6863 127.476 94.5181 127.484 94.3449C127.658 90.2381 127.833 86.1313 128.008 82.0246C128.093 80.0385 128.177 78.0524 128.262 76.0664C128.335 74.3336 128.409 72.6009 128.483 70.8682C128.522 69.9522 128.561 69.0363 128.6 68.1203C128.636 67.255 128.673 66.3896 128.711 65.5242C128.73 65.0619 128.75 64.5995 128.769 64.1372C128.861 62.0041 128.988 59.8743 129.127 57.7439C129.441 57.6654 129.755 57.5869 130.079 57.506C130.12 62.269 130.002 67.0197 129.841 71.7793C131.39 71.3181 132.938 70.8568 134.487 70.3956C135.013 70.2389 135.539 70.0822 136.065 69.9256C136.825 69.6994 137.584 69.4732 138.344 69.2471C138.576 69.1779 138.808 69.1087 139.047 69.0375C139.49 68.9055 139.933 68.7731 140.376 68.64C140.819 68.5088 141.264 68.3814 141.709 68.2572C141.925 68.196 142.141 68.1349 142.364 68.0718C142.557 68.0183 142.751 67.9648 142.951 67.9097C143.447 67.775 143.447 67.775 143.638 67.2594C143.447 66.5826 143.238 65.9271 143.008 65.2634C142.94 65.0616 142.871 64.8598 142.801 64.6519C142.577 63.9939 142.349 63.3369 142.122 62.68C142.045 62.4575 141.969 62.2349 141.89 62.0056C140.756 58.716 139.603 55.4447 138.167 52.2724C138.087 52.0942 138.007 51.9159 137.924 51.7322C136.196 47.9437 133.842 44.5771 129.841 42.9948C126.911 41.9785 123.946 42.0089 120.875 42.0284C120.544 42.0296 120.212 42.0307 119.88 42.0316C119.077 42.0344 118.274 42.0383 117.471 42.0433C117.443 42.2515 117.416 42.4597 117.388 42.6743C117.349 42.9496 117.311 43.225 117.271 43.5087C117.234 43.7807 117.197 44.0527 117.159 44.333C116.808 46.0521 115.956 47.3256 114.527 48.3324C112.164 49.738 109.624 50.2603 106.915 49.7393C104.205 49.0446 101.652 47.7993 100.105 45.3737C99.9916 45.0765 99.8842 44.777 99.7815 44.476C99.2356 42.9819 99.2356 42.9819 98.2018 41.8054C96.3874 41.1834 94.3866 41.2974 92.4924 41.3296C92.0749 41.3237 91.6573 41.3175 91.2398 41.311C86.8333 41.3185 82.6969 43.0317 79.6576 46.2351ZM191.93 69.6383C190.275 71.6558 188.947 73.9354 187.568 76.1434C184.852 80.4773 182.068 84.7677 179.264 89.0449C178.586 90.0801 177.907 91.1155 177.229 92.151C176.903 92.6493 176.576 93.1476 176.249 93.6457C175.875 94.2166 175.502 94.7881 175.129 95.3599C174.971 95.6003 174.971 95.6003 174.81 95.8455C174.407 96.4642 174.085 97.0053 173.85 97.7091C174.007 97.9446 174.164 98.1801 174.326 98.4227C175.073 98.531 175.073 98.531 175.967 98.5113C176.22 98.5126 176.22 98.5126 176.478 98.5139C177.037 98.5159 177.595 98.5126 178.154 98.5092C178.542 98.509 178.93 98.5091 179.317 98.5095C180.13 98.5095 180.942 98.507 181.755 98.5027C182.798 98.4973 183.841 98.4972 184.885 98.4988C185.685 98.4996 186.485 98.498 187.286 98.4957C187.671 98.4947 188.055 98.4945 188.44 98.4948C188.977 98.4949 189.514 98.4919 190.051 98.4881C190.357 98.487 190.663 98.4859 190.978 98.4847C191.719 98.4974 191.719 98.4974 192.168 97.947C192.238 97.4258 192.238 97.4258 192.225 96.815C192.225 96.5762 192.226 96.3373 192.227 96.0913C192.225 95.8283 192.223 95.5653 192.222 95.2943C192.222 95.0181 192.222 94.7419 192.222 94.4574C192.221 93.5409 192.218 92.6244 192.214 91.708C192.213 91.074 192.212 90.44 192.212 89.8059C192.21 88.3055 192.207 86.805 192.202 85.3045C192.196 83.5964 192.194 81.8884 192.191 80.1803C192.187 76.6663 192.178 73.1523 192.168 69.6383C192.089 69.6383 192.011 69.6383 191.93 69.6383ZM139.749 70.1563C139.541 70.2174 139.333 70.2786 139.119 70.3416C138.895 70.4085 138.672 70.4754 138.441 70.5443C138.211 70.6124 137.981 70.6805 137.744 70.7506C137.257 70.8947 136.77 71.0393 136.284 71.1844C135.538 71.4068 134.791 71.6278 134.044 71.8485C133.572 71.9886 133.1 72.1287 132.628 72.269C132.291 72.3686 132.291 72.3686 131.948 72.4703C131.741 72.5321 131.534 72.594 131.32 72.6578C131.046 72.7394 131.046 72.7394 130.766 72.8227C130.303 72.9608 130.303 72.9608 129.841 73.2066C129.803 74.3767 129.916 75.3649 130.215 76.4952C130.255 76.6445 130.294 76.7938 130.335 76.9476C130.418 77.2619 130.503 77.5759 130.589 77.8897C130.716 78.3597 130.84 78.8307 130.963 79.302C132.863 86.4483 137.833 92.0025 142.33 97.7091C142.541 97.9776 142.751 98.2462 142.962 98.5147C143.319 98.9704 143.679 99.4246 144.041 99.8767C144.464 100.406 144.884 100.938 145.304 101.471C145.435 101.633 145.566 101.795 145.702 101.962C146.592 103.101 147.069 104.168 147.445 105.559C147.52 105.818 147.595 106.078 147.672 106.345C147.739 106.581 147.807 106.817 147.876 107.061C149.45 112.157 152.614 116.087 157.234 118.694C157.84 118.952 158.243 118.816 158.863 118.643C158.487 117.709 157.878 117.158 157.153 116.472C154.167 113.57 154.167 113.57 153.868 111.507C154.494 111.594 154.765 111.686 155.2 112.158C155.324 112.333 155.448 112.509 155.576 112.69C156.504 113.94 157.55 115.022 158.655 116.116C158.842 116.304 159.029 116.493 159.221 116.687C159.403 116.868 159.585 117.05 159.772 117.236C159.935 117.398 160.097 117.56 160.265 117.727C160.802 118.198 161.32 118.556 161.956 118.881C162.608 118.83 162.608 118.83 163.145 118.643C163.013 117.768 162.797 117.19 162.291 116.466C162.164 116.283 162.038 116.1 161.907 115.911C161.771 115.718 161.635 115.526 161.495 115.328C161.357 115.129 161.219 114.93 161.077 114.725C160.421 113.784 159.756 112.849 159.081 111.922C158.971 111.77 158.86 111.619 158.747 111.462C158.541 111.181 158.334 110.9 158.125 110.621C157.436 109.682 157.436 109.682 157.436 108.89C158.564 109.223 159.029 109.758 159.726 110.689C159.826 110.822 159.926 110.955 160.029 111.092C160.999 112.405 161.882 113.776 162.749 115.158C162.904 115.405 162.904 115.405 163.062 115.657C163.153 115.803 163.244 115.949 163.337 116.099C163.639 116.528 163.934 116.876 164.335 117.216C164.959 117.276 164.959 117.276 165.524 117.216C165.844 116.837 165.844 116.837 166 116.264C165.43 114.403 164.167 112.79 163.087 111.191C161.588 108.95 160.175 106.614 159.815 103.894C160.681 103.606 160.871 103.736 161.688 104.087C161.889 104.172 162.089 104.257 162.296 104.345C162.707 104.522 163.118 104.699 163.529 104.876C164.218 105.128 164.796 105.117 165.524 105.084C165.603 104.77 165.681 104.456 165.762 104.132C165.621 104.045 165.479 103.957 165.334 103.867C164.683 103.465 164.033 103.062 163.383 102.66C163.161 102.523 162.938 102.385 162.709 102.243C162.49 102.108 162.271 101.972 162.045 101.832C161.827 101.698 161.609 101.563 161.384 101.425C161.003 101.187 160.624 100.945 160.25 100.696C159.305 100.072 158.429 99.6665 157.343 99.3476C155.316 98.7522 154.215 98.1634 153.154 96.2817C152.96 95.9651 152.765 95.6492 152.568 95.3339C152.115 94.6021 151.668 93.8669 151.225 93.1288C150.583 92.0669 149.91 91.0288 149.229 89.9926C148.291 88.5584 147.399 87.103 146.538 85.6214C146.384 85.3574 146.384 85.3574 146.226 85.088C145.912 84.5409 145.607 83.9895 145.304 83.4358C145.184 83.222 145.064 83.0083 144.94 82.788C143.948 80.9346 143.437 79.1062 142.999 77.0574C142.932 76.7598 142.865 76.4622 142.796 76.1556C142.331 74.069 141.91 71.9738 141.497 69.8762C140.823 69.8762 140.389 69.9668 139.749 70.1563ZM85.8316 70.8277C85.7419 71.0121 85.6522 71.1964 85.5598 71.3863C85.1421 72.2419 84.7218 73.0963 84.3002 73.95C84.2244 74.1039 84.1486 74.2578 84.0705 74.4164C83.236 76.1057 82.3948 77.7356 81.2968 79.2727C78.8062 82.9392 78.5971 88.3326 78.6206 92.6093C78.621 92.7746 78.6215 92.9398 78.6219 93.11C78.6521 99.9796 80.25 106.034 83.6906 111.982C84.2419 111.155 84.2666 110.707 84.3514 109.725C84.3654 109.569 84.3794 109.413 84.3938 109.253C84.4395 108.74 84.4823 108.226 84.525 107.712C84.5562 107.356 84.5875 107 84.619 106.643C84.7014 105.706 84.7813 104.769 84.8607 103.831C84.9422 102.874 85.0259 101.918 85.1095 100.961C85.2732 99.0842 85.4343 97.2073 85.5937 95.3302C85.4367 95.2517 85.2797 95.1732 85.1179 95.0923C85.092 92.7997 85.1484 90.5263 85.2941 88.2377C85.3272 87.7177 85.3588 87.1976 85.3901 86.6775C85.468 85.3865 85.548 84.0956 85.6284 82.8048C85.7074 81.5343 85.7854 80.2637 85.8613 78.993C85.8717 78.8195 85.8821 78.6459 85.8928 78.467C86.0431 75.9192 86.1355 73.3803 86.0695 70.8277C85.991 70.8277 85.9125 70.8277 85.8316 70.8277ZM129.365 79.6296C129.36 79.7726 129.354 79.9156 129.349 80.0629C129.291 81.5723 129.233 83.0816 129.175 84.5909C129.153 85.1517 129.132 85.7125 129.111 86.2733C128.906 91.6463 128.906 91.6463 128.769 94.164C128.761 94.3306 128.753 94.4972 128.744 94.6688C128.68 95.7778 128.68 95.7778 128.414 96.0438C128.385 96.7387 128.374 97.4257 128.376 98.1207C128.377 98.3409 128.377 98.5611 128.378 98.788C128.4 101.867 128.594 104.939 128.77 108.013C128.805 108.632 128.839 109.251 128.874 109.87C128.957 111.367 129.041 112.864 129.127 114.361C133.498 108.995 135.06 102.499 135.723 95.7542C135.764 95.341 135.807 94.9282 135.856 94.5159C136.044 92.8501 136.075 91.4952 135.032 90.0825C134.61 89.5625 134.171 89.0593 133.725 88.5592C131.932 86.4863 131.127 84.1805 130.378 81.5922C130.282 81.2628 130.282 81.2628 130.185 80.9268C130.13 80.7285 130.074 80.5302 130.018 80.3258C129.882 79.8214 129.882 79.8214 129.365 79.6296ZM87.021 95.806C86.68 96.829 86.6299 97.8579 86.5304 98.9282C86.5088 99.1454 86.4871 99.3625 86.4649 99.5862C86.3357 100.95 86.2863 102.287 86.3073 103.656C88.9243 103.263 91.362 101.674 92.9682 99.6122C93.6766 98.5017 93.6766 98.5017 93.9198 97.2333C91.632 96.6809 89.3362 96.225 87.021 95.806ZM125.237 96.7278C125.035 96.7707 124.833 96.8136 124.624 96.8579C124.412 96.9033 124.201 96.9486 123.983 96.9954C123.769 97.0408 123.556 97.0862 123.336 97.1329C122.808 97.2453 122.28 97.358 121.753 97.4712C122.401 99.8542 123.613 101.788 125.767 103.091C126.484 103.466 126.484 103.466 127.224 103.418C127.191 102.492 127.156 101.565 127.12 100.638C127.111 100.376 127.101 100.113 127.092 99.8431C127.082 99.5893 127.072 99.3356 127.061 99.0741C127.053 98.8412 127.044 98.6082 127.035 98.3682C126.988 97.7341 126.887 97.1394 126.748 96.5196C126.215 96.5196 125.759 96.6165 125.237 96.7278ZM95.3471 97.4712C95.2462 97.6923 95.1453 97.9134 95.0414 98.1412C93.4186 101.603 91.3381 103.258 87.7718 104.651C87.6076 104.716 87.4433 104.781 87.274 104.848C86.8728 105.007 86.4711 105.164 86.0695 105.321C84.4781 119.749 83.5787 134.249 82.649 148.731C82.5796 149.812 82.5102 150.893 82.4407 151.974C82.4236 152.24 82.4065 152.507 82.3889 152.782C82.1375 156.693 81.8751 160.604 81.6026 164.515C81.5857 164.758 81.5687 165 81.5513 165.251C81.3911 167.551 81.2298 169.852 81.0663 172.152C81.0078 172.976 80.95 173.801 80.8923 174.626C80.8658 175.003 80.8389 175.38 80.8117 175.757C80.7746 176.272 80.7385 176.786 80.7026 177.301C80.6823 177.586 80.662 177.872 80.641 178.166C80.5889 179.258 80.598 180.352 80.598 181.446C85.7792 181.446 90.9604 181.446 96.2986 181.446C96.6715 179.022 97.0444 176.598 97.4286 174.101C98.7481 165.588 100.134 157.087 101.532 148.587C101.61 148.115 101.688 147.642 101.765 147.17C101.817 146.856 101.869 146.541 101.921 146.227C102.201 144.52 102.482 142.814 102.763 141.107C102.812 140.805 102.862 140.503 102.913 140.192C103.801 134.788 104.679 129.382 105.544 123.974C105.635 123.404 105.727 122.835 105.818 122.265C105.957 121.398 106.095 120.531 106.233 119.664C106.306 119.209 106.379 118.753 106.452 118.298C106.494 118.033 106.536 117.768 106.579 117.496C106.616 117.267 106.652 117.039 106.689 116.804C106.777 116.277 106.777 116.277 106.766 115.789C107.41 115.668 108.054 115.549 108.699 115.432C108.879 115.398 109.06 115.364 109.247 115.329C110.258 115.146 111.204 115.035 112.237 115.075C112.237 115.389 112.237 115.703 112.237 116.026C110.903 116.34 109.568 116.654 108.193 116.978C108.353 120.138 108.64 123.272 108.97 126.418C109.025 126.952 109.08 127.486 109.136 128.02C109.254 129.167 109.373 130.313 109.493 131.459C109.798 134.395 110.101 137.331 110.404 140.267C110.454 140.756 110.505 141.245 110.555 141.734C111.097 146.991 111.629 152.248 112.154 157.506C112.172 157.684 112.19 157.862 112.208 158.045C112.557 161.536 112.905 165.027 113.252 168.518C113.397 169.978 113.543 171.437 113.688 172.897C113.776 173.785 113.865 174.673 113.953 175.561C114.006 176.096 114.059 176.632 114.113 177.167C114.136 177.406 114.16 177.645 114.184 177.89C114.206 178.113 114.228 178.336 114.251 178.565C114.27 178.755 114.289 178.945 114.309 179.141C114.401 179.99 114.51 180.836 114.616 181.684C119.797 181.684 124.978 181.684 130.317 181.684C130.32 176.471 130.32 176.471 130.183 171.266C130.168 170.883 130.154 170.501 130.139 170.119C130.1 169.097 130.06 168.075 130.019 167.053C129.976 165.957 129.934 164.86 129.892 163.764C129.81 161.659 129.728 159.553 129.644 157.448C129.577 155.756 129.511 154.065 129.444 152.373C128.989 140.762 128.519 129.151 127.968 117.543C127.955 117.283 127.943 117.022 127.93 116.754C127.861 115.289 127.791 113.824 127.719 112.36C127.698 111.933 127.677 111.507 127.657 111.081C127.598 109.874 127.534 108.668 127.462 107.462C127.441 107.081 127.441 107.081 127.419 106.692C127.404 106.477 127.388 106.262 127.372 106.04C127.354 105.776 127.354 105.776 127.335 105.506C127.245 104.989 127.246 104.989 126.539 104.562C126.25 104.455 125.961 104.347 125.663 104.236C123.122 103.167 121.872 101.406 120.801 98.8985C120.642 98.5022 120.483 98.1058 120.325 97.7091C118.117 97.6924 115.916 97.7422 113.709 97.828C113.405 97.8394 113.102 97.8507 112.789 97.8624C112.05 97.8901 111.311 97.9183 110.572 97.947C110.279 98.8665 110.285 99.7923 110.267 100.748C110.263 100.929 110.258 101.109 110.254 101.296C110.24 101.874 110.227 102.453 110.215 103.032C110.159 105.626 110.074 108.206 109.858 110.793C109.544 110.793 109.23 110.793 108.907 110.793C108.907 106.554 108.907 102.315 108.907 97.947C107.273 97.8954 107.273 97.8954 105.606 97.8429C102.186 97.7338 98.7664 97.6082 95.3471 97.4712ZM105.576 131.489C104.844 136.02 104.111 140.551 103.379 145.082C103.314 145.484 103.314 145.484 103.248 145.894C103.07 146.996 102.892 148.098 102.714 149.2C102.189 152.448 101.664 155.695 101.139 158.943C100.819 160.921 100.499 162.899 100.179 164.878C99.9922 166.036 99.805 167.193 99.6175 168.351C98.8934 172.822 98.175 177.294 97.4822 181.771C97.4185 182.182 97.3547 182.594 97.2907 183.005C97.2029 183.57 97.1159 184.135 97.0292 184.7C97.0031 184.867 96.9771 185.034 96.9503 185.206C96.8499 185.864 96.7744 186.487 96.7744 187.155C95.9109 187.233 95.0474 187.312 94.1577 187.393C94.3147 190.926 94.4717 194.458 94.6334 198.098C101.463 198.098 108.293 198.098 115.33 198.098C115.487 195.743 115.644 193.388 115.805 190.961C116.107 188.452 116.107 188.452 116.281 187.393C116.129 187.378 115.978 187.364 115.821 187.349C115.625 187.329 115.428 187.309 115.226 187.289C114.932 187.26 114.932 187.26 114.632 187.23C114.14 187.155 114.14 187.155 113.902 186.917C113.815 186.269 113.742 185.624 113.677 184.974C113.656 184.766 113.635 184.558 113.612 184.343C113.54 183.636 113.468 182.928 113.397 182.22C113.345 181.71 113.292 181.2 113.24 180.69C113.094 179.267 112.95 177.843 112.806 176.419C112.711 175.483 112.616 174.547 112.521 173.611C112.174 170.198 111.828 166.784 111.483 163.371C111.465 163.195 111.447 163.018 111.428 162.836C111.247 161.041 111.066 159.246 110.884 157.451C110.652 155.148 110.419 152.845 110.185 150.542C110.168 150.371 110.151 150.2 110.133 150.024C109.507 143.844 108.86 137.665 108.193 131.489C107.33 131.489 106.466 131.489 105.576 131.489ZM36.8266 141.243C36.3186 142.005 36.2889 142.125 36.3806 142.982C36.3959 143.158 36.4113 143.334 36.4271 143.515C36.6449 144.3 37.0681 144.867 37.5403 145.525C37.7592 145.415 37.9782 145.306 38.2038 145.194C41.3875 143.639 44.5064 142.628 48.0817 142.625C48.2729 142.622 48.4641 142.619 48.6611 142.616C50.0072 142.613 51.2268 142.802 52.5272 143.146C52.645 143.617 52.645 143.617 52.7651 144.097C52.5778 144.08 52.3904 144.063 52.1974 144.045C47.8121 143.672 43.0627 143.604 39.2724 146.207C38.1789 147.229 37.9834 148.771 37.9269 150.223C37.984 151.574 38.4315 152.37 39.3988 153.315C40.9959 154.443 42.5328 154.501 44.4391 154.326C48.0142 153.675 51.2762 151.498 54.3114 149.598C56.8314 148.03 59.0843 147.309 62.0428 146.952C59.725 143.022 55.4749 140.781 51.2114 139.578C46.8103 138.542 40.5896 138.173 36.8266 141.243ZM3.99808 155.754C2.6047 157.37 2.6047 157.37 1.85709 159.322C2.09873 159.325 2.34037 159.329 2.58934 159.332C6.19951 159.433 8.53333 160.716 11.5055 162.696C14.2661 164.524 17.2323 166.148 20.6502 165.745C22.602 165.272 24.1548 164.509 25.2974 162.829C26.0616 161.471 26.4351 160.162 26.1217 158.608C25.5561 157.316 24.7172 157.003 23.4571 156.494C19.404 154.92 15.0616 154.833 10.8578 155.836C10.1832 155.992 10.1832 155.992 9.4695 155.992C9.4695 155.678 9.4695 155.364 9.4695 155.04C14.7783 153.244 20.2248 153.716 25.2918 155.98C25.8077 156.197 26.2892 156.351 26.8353 156.467C27.6323 155.538 28.2794 154.76 28.2478 153.494C27.7071 152.052 26.4422 151.406 25.1134 150.791C18.1156 147.91 9.11975 150.404 3.99808 155.754ZM40.0827 163.931C39.2387 165.002 38.945 165.809 38.9676 167.172C39.2381 167.285 39.5086 167.397 39.7872 167.513C44.9442 169.703 49.6858 172.828 52.7651 177.639C52.7651 177.875 52.7651 178.11 52.7651 178.353C52.0619 178.276 51.6807 178.223 51.1789 177.707C51.0596 177.533 50.9403 177.358 50.8174 177.179C47.9843 173.326 43.0531 169.424 38.254 168.362C36.9647 168.175 35.7645 168.054 34.576 168.661C33.1612 169.792 32.4216 171.233 32.2027 173.016C32.5141 175.462 33.8182 177.001 35.6855 178.55C37.891 180.121 40.3847 180.627 43.0117 181.044C47.5739 181.838 51.3578 183.483 55.3819 185.728C55.7827 185.95 56.1835 186.172 56.5844 186.395C56.8972 186.569 57.2101 186.743 57.5229 186.917C57.7375 178.93 55.9793 171.836 50.3761 165.878C48.4768 163.927 46.3979 162.458 43.6064 162.34C42.1294 162.385 41.0757 162.83 40.0827 163.931ZM31.1173 175.261C31.1151 175.476 31.1129 175.692 31.1106 175.914C31.1 176.728 31.0853 177.542 31.068 178.356C31.0613 178.706 31.0562 179.056 31.0529 179.405C31.0355 181.099 31.0181 182.682 30.4037 184.285C29.7043 186.134 29.7669 187.999 29.7495 189.95C29.7427 190.318 29.7356 190.685 29.7281 191.052C29.6838 193.401 29.6828 195.749 29.69 198.098C30.2395 198.098 30.789 198.098 31.3552 198.098C31.3766 197.89 31.3979 197.682 31.4199 197.468C32.0597 191.387 33.1236 185.728 35.3993 180.018C35.2414 179.883 35.0835 179.748 34.9207 179.609C33.4378 178.312 32.1614 177.093 31.3552 175.261C31.2767 175.261 31.1982 175.261 31.1173 175.261ZM80.3601 183.111C80.2816 184.053 80.2031 184.995 80.1223 185.966C85.225 185.966 90.3277 185.966 95.585 185.966C95.6635 185.024 95.742 184.081 95.8229 183.111C89.4158 182.919 89.4158 182.919 83.0067 182.843C82.7613 182.842 82.516 182.841 82.2633 182.84C82.0431 182.84 81.8229 182.841 81.5961 182.841C81.3128 182.842 81.3128 182.842 81.0237 182.842C80.5924 182.827 80.5924 182.827 80.3601 183.111ZM187.142 183.501C186.995 183.637 186.848 183.772 186.696 183.912C186.539 184.06 186.382 184.207 186.22 184.36C186.059 184.511 185.898 184.663 185.732 184.819C181.854 188.525 178.815 193.174 176.705 198.098C178.275 198.098 179.845 198.098 181.463 198.098C181.582 197.791 181.701 197.483 181.824 197.167C183.307 193.444 185.055 189.885 186.874 186.316C186.972 186.123 187.07 185.931 187.171 185.732C187.358 185.366 187.545 185 187.733 184.635C188.199 183.797 188.199 183.797 188.361 182.873C187.73 182.873 187.602 183.078 187.142 183.501ZM114.854 183.111C114.932 184.053 115.011 184.995 115.092 185.966C120.195 185.966 125.297 185.966 130.555 185.966C130.555 185.024 130.555 184.081 130.555 183.111C125.373 183.111 120.192 183.111 114.854 183.111ZM175.515 187.393C172.038 192.375 172.038 192.375 170.52 198.098C171.933 198.098 173.346 198.098 174.802 198.098C175.267 194.529 175.637 190.991 175.753 187.393C175.675 187.393 175.596 187.393 175.515 187.393ZM185.759 194.946C184.181 196.352 184.181 196.352 183.366 198.098C184.786 198.321 186.252 198.544 187.648 198.098C188.687 197.258 189.216 195.974 189.778 194.791C190.139 194.066 190.577 193.427 191.038 192.76C191.188 192.536 191.339 192.312 191.495 192.081C191.638 191.868 191.782 191.656 191.93 191.437C192.207 191.021 192.485 190.605 192.762 190.188C192.961 189.891 193.159 189.593 193.357 189.296C190.982 189.296 187.389 193.341 185.759 194.946ZM194.309 195.481C193.758 195.827 193.208 196.174 192.658 196.522C192.501 196.62 192.344 196.718 192.183 196.819C191.324 197.324 191.324 197.324 190.74 198.098C191.568 198.23 192.297 198.285 193.119 198.098C193.753 197.462 194.154 196.76 194.546 195.957C194.468 195.8 194.389 195.643 194.309 195.481Z" fill="black"/>
<path d="M38.4747 52.7234C38.866 52.7277 39.2574 52.7309 39.6488 52.733C40.6742 52.7416 41.6986 52.7661 42.7236 52.7938C43.7704 52.819 44.8174 52.8278 45.8645 52.8387C47.389 52.8575 48.9132 52.8805 50.4373 52.9188C50.7438 52.9262 51.0502 52.9335 51.366 52.9411C52.0501 52.9874 52.0501 52.9874 52.288 53.2252C52.3136 53.8023 52.3238 54.3728 52.324 54.9501C52.3255 55.2241 52.3255 55.2241 52.3271 55.5036C52.3302 56.1204 52.3316 56.7371 52.333 57.3539C52.3349 57.7942 52.3369 58.2344 52.339 58.6747C52.3433 59.625 52.3469 60.5753 52.3499 61.5256C52.3547 63.0266 52.3613 64.5276 52.3681 66.0286C52.3837 69.486 52.3968 72.9433 52.41 76.4006C52.4221 79.5683 52.4347 82.7359 52.4491 85.9035C52.4559 87.3973 52.4615 88.8911 52.4663 90.3849C52.4694 91.3123 52.4736 92.2397 52.478 93.1671C52.4798 93.5989 52.4813 94.0307 52.4823 94.4626C52.4837 95.0495 52.4866 95.6364 52.4898 96.2233C52.4899 96.3965 52.49 96.5697 52.49 96.7481C52.4279 97.5344 52.4279 97.5344 52.7637 98.1861C53.2884 98.2209 53.8141 98.2402 54.3397 98.253C54.576 98.2596 54.576 98.2596 54.817 98.2663C55.322 98.2803 55.827 98.2928 56.3321 98.305C56.9962 98.3211 57.6603 98.3386 58.3244 98.3571C58.6206 98.3643 58.9168 98.3715 59.222 98.3789C59.9004 98.424 59.9004 98.424 60.1383 98.6619C60.1616 99.0111 60.1687 99.3614 60.1691 99.7114C60.1698 99.9345 60.1706 100.158 60.1713 100.387C60.1706 100.751 60.1706 100.751 60.1699 101.123C60.1701 101.37 60.1703 101.617 60.1706 101.872C60.1707 102.396 60.1703 102.92 60.1693 103.444C60.168 104.249 60.1693 105.054 60.1708 105.859C60.1706 106.367 60.1703 106.874 60.1699 107.382C60.1703 107.625 60.1708 107.867 60.1713 108.117C60.1702 108.452 60.1702 108.452 60.1691 108.793C60.1689 108.99 60.1687 109.188 60.1685 109.391C60.1383 109.843 60.1383 109.843 59.9004 110.08C59.3352 110.102 58.7771 110.108 58.2119 110.104C57.959 110.103 57.959 110.103 57.7009 110.103C57.1604 110.101 56.6199 110.098 56.0793 110.095C55.7136 110.094 55.348 110.093 54.9823 110.092C54.0842 110.089 53.1861 110.085 52.288 110.08C52.2892 110.384 52.2905 110.687 52.2917 110.999C52.2961 112.143 52.2988 113.288 52.301 114.432C52.3022 114.924 52.3038 115.415 52.3059 115.907C52.3159 118.321 52.319 120.732 52.183 123.143C52.1737 123.312 52.1644 123.482 52.1549 123.656C52.0807 124.799 52.0807 124.799 51.8122 125.067C51.3914 125.092 50.9696 125.1 50.548 125.102C50.1431 125.104 50.1431 125.104 49.7301 125.107C49.4362 125.107 49.1423 125.107 48.8395 125.107C48.54 125.108 48.2405 125.109 47.9319 125.11C47.297 125.111 46.662 125.112 46.0271 125.112C45.2124 125.111 44.3978 125.115 43.5832 125.119C42.8077 125.122 42.0323 125.122 41.2568 125.122C40.9634 125.124 40.67 125.126 40.3677 125.127C39.9617 125.126 39.9617 125.126 39.5475 125.125C39.3084 125.126 39.0693 125.126 38.823 125.126C38.2526 125.067 38.2526 125.067 37.7768 124.592C37.7105 123.993 37.7105 123.993 37.7009 123.227C37.6939 122.799 37.6939 122.799 37.6866 122.362C37.6825 121.897 37.6825 121.897 37.6783 121.423C37.6738 121.104 37.6692 120.784 37.6643 120.465C37.6521 119.624 37.6427 118.783 37.6338 117.942C37.6243 117.085 37.6122 116.227 37.6002 115.369C37.5772 113.685 37.5571 112.002 37.5389 110.318C37.3751 110.318 37.2112 110.317 37.0424 110.316C33.0599 110.297 29.0773 110.275 25.0948 110.25C23.1689 110.238 21.243 110.227 19.3171 110.218C17.6389 110.21 15.9608 110.201 14.2826 110.189C13.3937 110.183 12.5047 110.178 11.6157 110.175C10.6245 110.171 9.63332 110.164 8.64212 110.156C8.34576 110.156 8.0494 110.155 7.74405 110.155C7.47518 110.152 7.20631 110.149 6.92929 110.147C6.69466 110.145 6.46002 110.144 6.21828 110.143C5.6619 110.08 5.6619 110.08 5.18613 109.605C5.1049 109.152 5.1049 109.152 5.07549 108.593C5.06417 108.383 5.05285 108.172 5.0412 107.956C5.03229 107.726 5.02339 107.497 5.01421 107.261C5.00494 107.024 4.99566 106.786 4.9861 106.542C4.68855 97.2697 4.68855 97.2697 8.21188 93.1406C9.13228 92.0145 9.90138 90.789 10.6927 89.5705C11.0572 89.0125 11.4288 88.4595 11.8008 87.9065C12.7198 86.5402 13.6093 85.1605 14.4707 83.7574C15.4957 82.0977 16.5736 80.4724 17.6455 78.8428C19.2682 76.3747 20.8676 73.8944 22.4363 71.3915C24.1724 68.6293 25.9287 65.8796 27.7069 63.1443C28.3697 62.1234 29.0259 61.0985 29.6784 60.071C29.8446 59.8097 30.0109 59.5484 30.1821 59.2791C30.5074 58.7675 30.832 58.2555 31.1558 57.743C31.3079 57.5039 31.46 57.2648 31.6168 57.0184C31.7496 56.8087 31.8825 56.599 32.0193 56.3829C32.1922 56.1259 32.3651 55.8689 32.5433 55.6041C32.6555 55.3858 32.7677 55.1675 32.8833 54.9426C34.2873 52.5266 35.9539 52.6355 38.4747 52.7234ZM37.7768 69.6395C36.2973 71.5538 35.0265 73.6516 33.703 75.6759C33.4788 76.0182 33.2547 76.3605 33.0305 76.7028C32.3917 77.6784 31.7537 78.6546 31.1159 79.6308C30.9603 79.8688 30.8047 80.1068 30.6444 80.352C29.4709 82.1482 28.3036 83.9481 27.149 85.7564C26.9189 86.1167 26.9189 86.1167 26.6841 86.4843C26.3688 86.9787 26.0539 87.4733 25.7395 87.9682C24.8312 89.3936 23.9062 90.8048 22.9618 92.2064C22.646 92.6777 22.3305 93.1492 22.0151 93.6208C21.8092 93.9269 21.6019 94.2322 21.3934 94.5365C21.1021 94.9617 20.8152 95.3897 20.529 95.8184C20.3626 96.0633 20.1962 96.3082 20.0248 96.5606C19.5844 97.2939 19.5844 97.2939 19.9352 98.424C25.8229 98.424 31.7106 98.424 37.7768 98.424C38.068 97.8416 38.044 97.4674 38.0433 96.8163C38.0436 96.5774 38.0439 96.3386 38.0443 96.0925C38.0434 95.8295 38.0426 95.5665 38.0417 95.2955C38.0417 95.0194 38.0418 94.7432 38.0418 94.4586C38.0416 93.5421 38.0398 92.6257 38.0379 91.7092C38.0375 91.0752 38.0371 90.4412 38.0369 89.8072C38.0362 88.3067 38.0342 86.8062 38.0318 85.3057C38.0292 83.5977 38.0278 81.8896 38.0267 80.1816C38.0242 76.6675 38.02 73.1535 38.0147 69.6395C37.9362 69.6395 37.8577 69.6395 37.7768 69.6395Z" fill="black"/>
<path d="M165.149 59.3662C165.759 59.4108 165.759 59.4108 166.235 59.8866C166.205 60.4813 166.205 60.4813 165.997 61.076C165.506 61.3883 165.506 61.3883 165.045 61.5518C164.731 61.3163 164.417 61.0808 164.094 60.8381C164.347 59.4279 164.347 59.4279 165.149 59.3662Z" fill="black"/>
<path d="M24.6037 122.034C25.1687 122.212 25.1687 122.212 25.4066 122.45C25.4512 123.03 25.4512 123.03 25.4066 123.64C25.2496 123.797 25.0926 123.954 24.9308 124.115C24.1874 124.026 24.1874 124.026 23.5035 123.878C23.34 123.327 23.34 123.327 23.2656 122.688C23.6603 122.03 23.8358 121.961 24.6037 122.034Z" fill="black"/>
<path d="M151.571 133.124C151.79 133.124 152.009 133.123 152.234 133.122C152.598 133.122 152.598 133.122 152.968 133.122C153.224 133.122 153.48 133.121 153.744 133.12C154.608 133.118 155.471 133.118 156.335 133.117C156.952 133.116 157.569 133.115 158.186 133.114C159.866 133.111 161.546 133.109 163.226 133.108C164.274 133.107 165.323 133.106 166.371 133.105C169.273 133.102 172.175 133.1 175.078 133.099C175.263 133.099 175.449 133.099 175.641 133.099C175.92 133.099 175.92 133.099 176.205 133.099C176.583 133.099 176.96 133.099 177.337 133.099C177.618 133.099 177.618 133.099 177.905 133.098C180.939 133.097 183.973 133.093 187.008 133.088C190.121 133.082 193.235 133.079 196.349 133.079C198.098 133.079 199.846 133.077 201.595 133.073C203.24 133.069 204.885 133.069 206.529 133.071C207.134 133.071 207.738 133.07 208.343 133.067C209.166 133.064 209.99 133.066 210.813 133.068C211.174 133.065 211.174 133.065 211.542 133.062C213.01 133.073 213.857 133.246 214.958 134.271C215.796 135.903 214.986 138.062 214.583 139.729C214.512 140.03 214.441 140.331 214.368 140.642C214.172 141.472 213.974 142.301 213.775 143.131C213.607 143.832 213.44 144.533 213.273 145.234C212.666 147.791 212.051 150.346 211.434 152.9C211.381 153.121 211.328 153.341 211.273 153.567C210.489 156.819 209.701 160.07 208.91 163.321C208.743 164.006 208.577 164.691 208.411 165.376C208.147 166.462 207.882 167.548 207.616 168.633C207.518 169.034 207.421 169.435 207.323 169.836C205.922 175.606 205.922 175.606 204.298 176.689C203.605 176.92 203.166 176.958 202.446 176.959C202.21 176.96 201.974 176.961 201.731 176.962C201.472 176.962 201.212 176.962 200.944 176.962C200.669 176.963 200.394 176.964 200.11 176.965C199.345 176.967 198.579 176.968 197.814 176.969C196.989 176.97 196.163 176.972 195.338 176.974C193.345 176.979 191.352 176.981 189.359 176.983C188.42 176.984 187.482 176.986 186.544 176.987C183.424 176.991 180.305 176.994 177.185 176.996C176.376 176.996 175.566 176.997 174.757 176.997C174.555 176.997 174.354 176.998 174.147 176.998C170.887 177 167.627 177.006 164.367 177.013C161.02 177.021 157.674 177.026 154.327 177.026C152.448 177.027 150.569 177.029 148.69 177.035C147.09 177.04 145.489 177.042 143.889 177.04C143.073 177.039 142.256 177.039 141.44 177.044C140.555 177.048 139.669 177.046 138.784 177.043C138.526 177.046 138.269 177.048 138.004 177.051C136.497 177.038 135.587 176.867 134.358 175.976C133.509 175.044 133.575 174.11 133.596 172.909C133.645 172.407 133.645 172.407 133.883 172.169C134.323 172.132 134.765 172.11 135.207 172.094C135.608 172.079 135.608 172.079 136.018 172.064C136.299 172.055 136.581 172.045 136.871 172.036C137.154 172.025 137.436 172.015 137.727 172.004C138.428 171.979 139.129 171.955 139.83 171.931C139.953 171.428 140.076 170.924 140.199 170.42C140.238 170.258 140.278 170.096 140.319 169.928C140.548 168.99 140.776 168.052 141.005 167.115C141.478 165.177 141.951 163.239 142.425 161.302C142.7 160.178 142.974 159.055 143.249 157.931C143.304 157.704 143.36 157.477 143.417 157.243C144.178 154.126 144.927 151.007 145.667 147.885C145.956 146.668 146.246 145.452 146.537 144.235C146.812 143.082 147.084 141.928 147.353 140.774C147.521 140.058 147.692 139.343 147.864 138.627C147.943 138.298 148.02 137.968 148.096 137.638C148.806 134.543 148.806 134.543 150.059 133.394C150.618 133.114 150.948 133.125 151.571 133.124ZM150.297 135.297C150.056 135.964 150.056 135.964 149.883 136.745C149.81 137.047 149.736 137.349 149.66 137.661C149.582 137.995 149.503 138.33 149.424 138.665C149.34 139.016 149.255 139.367 149.17 139.718C148.941 140.668 148.716 141.618 148.49 142.569C148.255 143.56 148.016 144.551 147.778 145.541C147.434 146.972 147.091 148.402 146.749 149.833C145.928 153.269 145.096 156.703 144.262 160.136C143.977 161.31 143.692 162.485 143.408 163.659C143.331 163.975 143.255 164.291 143.178 164.607C143.039 165.182 142.9 165.758 142.761 166.333C142.698 166.591 142.636 166.849 142.571 167.115C142.482 167.484 142.482 167.484 142.391 167.86C142.144 168.866 141.885 169.868 141.625 170.87C141.469 171.472 141.469 171.472 141.495 172.169C162.455 172.169 183.416 172.169 205.011 172.169C205.603 170.407 205.603 170.407 206.087 168.631C206.15 168.374 206.212 168.118 206.277 167.854C206.343 167.579 206.409 167.304 206.477 167.02C206.549 166.724 206.62 166.427 206.695 166.121C206.892 165.309 207.087 164.496 207.283 163.683C207.405 163.172 207.528 162.662 207.651 162.151C208.044 160.52 208.436 158.889 208.828 157.258C209.261 155.452 209.695 153.647 210.132 151.842C210.586 149.968 211.038 148.093 211.487 146.218C211.73 145.208 211.973 144.197 212.218 143.188C212.45 142.234 212.679 141.28 212.906 140.325C212.99 139.973 213.075 139.621 213.161 139.269C213.279 138.787 213.394 138.304 213.507 137.821C213.572 137.55 213.638 137.279 213.705 137.001C213.82 136.198 213.783 135.603 213.575 134.821C213.019 134.543 212.693 134.553 212.073 134.552C211.856 134.551 211.64 134.55 211.416 134.549C211.057 134.549 211.057 134.549 210.69 134.55C210.31 134.549 210.31 134.549 209.922 134.548C209.067 134.545 208.212 134.545 207.357 134.545C206.747 134.544 206.136 134.542 205.525 134.541C203.863 134.538 202.2 134.536 200.537 134.535C199.5 134.535 198.462 134.534 197.424 134.533C194.553 134.53 191.682 134.527 188.811 134.527C188.627 134.526 188.444 134.526 188.254 134.526C188.07 134.526 187.886 134.526 187.696 134.526C187.322 134.526 186.949 134.526 186.575 134.526C186.39 134.526 186.205 134.526 186.014 134.526C183.011 134.525 180.008 134.521 177.005 134.515C173.924 134.509 170.843 134.507 167.762 134.506C166.032 134.506 164.301 134.505 162.57 134.5C160.943 134.496 159.316 134.496 157.689 134.498C157.09 134.498 156.492 134.497 155.893 134.495C155.079 134.492 154.265 134.493 153.45 134.496C153.211 134.494 152.972 134.492 152.726 134.49C152.508 134.491 152.291 134.493 152.067 134.495C151.879 134.494 151.691 134.494 151.497 134.494C150.881 134.607 150.677 134.808 150.297 135.297Z" fill="black"/>
<path d="M66.8469 135.147C66.9892 135.196 67.1315 135.245 67.2781 135.296C67.4268 135.98 67.4268 135.98 67.516 136.723C67.0402 137.199 67.0402 137.199 66.4455 137.259C65.8508 137.199 65.8508 137.199 65.375 136.723C65.4196 136.129 65.4196 136.129 65.6129 135.534C66.3266 135.058 66.3266 135.058 66.8469 135.147Z" fill="black"/>
<path d="M180.271 139.341C181.604 140.24 182.179 141.268 182.863 142.698C182.968 142.909 183.072 143.12 183.18 143.338C183.512 144.011 183.839 144.687 184.166 145.362C184.384 145.806 184.602 146.25 184.82 146.693C185.247 147.561 185.672 148.429 186.096 149.299C186.636 150.406 187.185 151.508 187.738 152.609C188.392 153.911 189.025 155.221 189.638 156.543C190.478 158.339 191.377 160.098 192.317 161.844C194.066 165.105 194.066 165.105 193.83 166.46C193.436 167.057 193.247 167.307 192.641 167.649C191.643 167.831 190.654 167.812 189.642 167.803C189.186 167.807 189.186 167.807 188.72 167.81C187.886 167.815 187.052 167.813 186.219 167.809C185.346 167.806 184.472 167.809 183.599 167.811C182.133 167.813 180.667 167.81 179.201 167.805C177.506 167.798 175.812 167.8 174.118 167.807C172.663 167.812 171.207 167.813 169.751 167.81C168.882 167.808 168.014 167.808 167.145 167.812C166.176 167.816 165.207 167.81 164.239 167.803C163.807 167.807 163.807 167.807 163.367 167.811C161.205 167.783 161.205 167.783 160.473 167.08C160.016 166.41 159.812 166.081 159.812 165.271C160.26 164.079 160.809 163.135 161.567 162.104C161.67 161.963 161.772 161.822 161.878 161.676C162.102 161.37 162.326 161.064 162.55 160.759C163.044 160.086 163.532 159.408 164.02 158.73C164.412 158.185 164.806 157.641 165.199 157.097C165.981 156.016 166.763 154.934 167.544 153.852C167.802 153.495 168.059 153.138 168.317 152.781C168.445 152.605 168.572 152.428 168.704 152.246C169.09 151.711 169.477 151.176 169.863 150.64C169.991 150.464 170.119 150.287 170.25 150.105C170.507 149.749 170.764 149.394 171.021 149.038C171.678 148.129 172.334 147.219 172.989 146.308C173.633 145.414 174.278 144.521 174.925 143.629C175.15 143.319 175.375 143.009 175.599 142.698C175.886 142.301 176.175 141.906 176.465 141.512C176.7 141.189 176.7 141.189 176.94 140.859C177.944 139.663 178.672 139.088 180.271 139.341ZM176.94 147.905C176.321 150.161 176.324 152.708 176.227 155.041C176.214 155.337 176.201 155.632 176.188 155.936C176.181 156.21 176.174 156.484 176.167 156.766C176.161 157.008 176.155 157.249 176.149 157.498C176.24 158.243 176.408 158.562 176.94 159.086C177.773 159.244 177.773 159.244 178.606 159.086C179.3 158.38 179.452 157.733 179.597 156.77C179.638 156.502 179.679 156.235 179.721 155.959C179.76 155.676 179.799 155.393 179.84 155.101C179.88 154.813 179.921 154.524 179.963 154.227C180.44 151.07 180.44 151.07 180.271 147.905C179.723 147.197 179.496 146.983 178.606 146.834C177.716 146.982 177.498 147.207 176.94 147.905ZM176.033 161.613C175.454 162.242 175.275 162.516 175.275 163.367C175.547 163.911 175.796 164.364 176.227 164.795C177.463 164.913 177.463 164.913 178.591 164.527C178.96 163.876 179.066 163.404 179.081 162.654C178.625 161.833 178.317 161.532 177.431 161.212C176.679 161.168 176.679 161.168 176.033 161.613Z" fill="black"/>
<path d="M218.931 157.599C219.526 157.658 219.526 157.658 220.001 158.134C219.912 158.877 219.912 158.877 219.764 159.561C219.213 159.71 219.213 159.71 218.574 159.799C218.339 159.642 218.103 159.485 217.86 159.323C217.786 158.729 217.786 158.729 217.86 158.134C218.336 157.658 218.336 157.658 218.931 157.599Z" fill="black"/>
</svg>
