<svg width="320" height="293" viewBox="0 0 320 293" fill="none" xmlns="http://www.w3.org/2000/svg">
<path d="M267.257 3.42956C270.771 6.07362 272.777 9.58315 273.482 13.9237C273.942 18.8484 272.874 23.7718 269.705 27.6631C267.784 29.757 265.563 31.2616 263.198 32.8155C260.605 34.5527 258.933 36.1372 258.185 39.252C258.065 39.8611 257.954 40.4721 257.853 41.0848C257.717 41.7782 257.717 41.7782 257.371 42.1242C256.759 42.1586 256.146 42.1695 255.533 42.1702C255.161 42.1706 254.789 42.1711 254.405 42.1715C254.014 42.1702 253.622 42.1689 253.219 42.1675C252.827 42.1688 252.435 42.1702 252.032 42.1715C251.66 42.1711 251.288 42.1706 250.905 42.1702C250.561 42.1698 250.217 42.1694 249.863 42.169C249.066 42.1242 249.066 42.1242 248.72 41.7782C248.217 37.9143 249.557 34.2817 251.809 31.1949C253.861 28.8066 256.172 26.9525 258.706 25.1024C260.882 23.4821 262.937 21.695 263.599 18.9409C263.889 16.3765 263.803 14.133 262.215 12.0206C260.467 10.1008 258.598 9.56974 256.073 9.44705C253.881 9.49601 252.199 9.98228 250.451 11.3285C249.608 12.2974 248.976 13.3112 248.374 14.4427C248.257 14.6613 248.14 14.8798 248.019 15.105C247.78 15.5704 247.556 16.0437 247.336 16.5188C245.245 16.1626 243.162 15.7685 241.086 15.3294C240.711 15.2513 240.336 15.1733 239.95 15.0928C239.032 14.7887 239.032 14.7887 238.34 13.7507C239.189 9.49585 241.92 5.67815 245.356 3.1322C251.965 -1.15204 260.792 -1.0302 267.257 3.42956Z" fill="black"/>
<path d="M157.373 31.0509C158.195 31.57 158.195 31.57 158.757 32.089C158.643 32.4316 158.529 32.7741 158.411 33.1271C158.215 33.119 158.018 33.111 157.815 33.1027C156.015 33.0606 154.58 33.2387 152.875 33.8191C152.875 33.3623 152.875 32.9056 152.875 32.435C154.236 31.1681 155.547 30.9019 157.373 31.0509Z" fill="black"/>
<path d="M173.286 31.7427C173.978 32.4347 173.978 32.4347 173.978 33.8188C171.923 33.5904 169.868 33.362 167.75 33.1267C167.864 32.67 167.978 32.2133 168.096 31.7427C170.118 30.9844 171.235 31.0472 173.286 31.7427Z" fill="black"/>
<path d="M155.987 35.5488C157.673 35.8516 157.673 35.8516 158.063 36.2409C158.217 37.7028 158.297 38.9552 157.544 40.2417C157.372 40.4059 157.201 40.57 157.025 40.7391C155.684 40.4363 155.684 40.4363 155.295 40.0471C155.251 39.486 155.234 38.9229 155.23 38.3602C155.225 38.0542 155.22 37.7483 155.215 37.433C155.295 36.5869 155.295 36.5869 155.987 35.5488Z" fill="black"/>
<path d="M169.479 35.8945C170.193 36.0459 170.193 36.0459 170.864 36.2406C171.149 37.5621 171.31 38.4005 170.82 39.6791C170.172 40.3928 170.172 40.3928 169.242 40.5009C168.978 40.4652 168.713 40.4295 168.441 40.3928C167.974 38.2248 167.974 38.2248 168.571 36.9758C169.133 36.2406 169.133 36.2406 169.479 35.8945Z" fill="black"/>
<path d="M163.598 36.9326C164.288 36.9732 164.288 36.9732 164.982 37.2786C166.463 39.5332 167.315 42.5684 167.058 45.2371C166.522 46.0849 166.12 46.2395 165.177 46.5779C164.29 46.6211 164.29 46.6211 163.49 46.1237C163.297 45.9453 163.105 45.7669 162.906 45.5831C163.02 45.0122 163.135 44.4412 163.252 43.853C163.709 43.853 164.166 43.853 164.636 43.853C164.54 43.5773 164.445 43.3017 164.346 43.0177C164.22 42.651 164.095 42.2844 163.966 41.9066C163.779 41.3647 163.779 41.3647 163.589 40.8118C163.264 39.7384 163.007 38.7423 162.906 37.6247C163.135 37.3963 163.363 37.1679 163.598 36.9326Z" fill="black"/>
<path d="M254.946 48.3519C256.628 49.1618 257.549 50.1607 258.406 51.8121C258.85 53.3042 258.817 54.3541 258.384 55.8562C257.51 57.3516 256.517 58.2931 254.946 59.0785C253.242 59.2655 251.877 59.2669 250.318 58.5162C249.037 57.3573 248.151 56.4785 247.893 54.7114C247.829 53.1371 247.908 52.0596 248.588 50.6227C250.518 48.5401 252.15 47.9057 254.946 48.3519Z" fill="black"/>
<path d="M163.968 49.9305C164.984 50.7739 164.984 50.7739 165.352 52.0282C165.33 53.1961 165.33 53.1961 164.638 53.8881C163.946 53.8448 163.946 53.8448 163.254 53.5421C162.822 52.8284 162.822 52.8284 162.562 52.158C160.287 52.0299 160.287 52.0299 158.41 53.1961C157.631 53.0879 157.631 53.0879 157.026 52.85C156.766 52.0715 156.766 52.0715 156.68 51.1199C158.391 48.9199 161.538 48.7534 163.968 49.9305Z" fill="black"/>
<path d="M232.868 69.589C233.075 69.6604 233.281 69.7318 233.495 69.8053C233.711 70.8001 233.711 70.8001 233.841 71.8814C233.149 72.5734 233.149 72.5734 232.284 72.6599C231.419 72.5734 231.419 72.5734 230.727 71.8814C230.791 71.0164 230.791 71.0164 231.073 70.1513C232.111 69.4593 232.111 69.4593 232.868 69.589Z" fill="black"/>
<path d="M155.339 8.32114C156.334 8.55903 156.334 8.55903 156.68 8.90505C157.41 8.94454 158.141 8.98163 158.872 9.00532C164.237 9.18107 168.491 10.3143 172.311 14.344C173.811 16.2193 174.99 18.2826 175.365 20.6697C175.646 20.6786 175.928 20.6875 176.218 20.6967C180.512 20.9093 186.062 21.3721 189.447 24.2907C189.898 24.8219 189.898 24.8219 189.876 25.687C189.486 26.7261 189.114 27.0334 188.167 27.5901C187.231 27.9023 186.701 27.9771 185.741 27.9699C185.348 27.9682 185.348 27.9682 184.947 27.9665C184.539 27.9622 184.539 27.9622 184.123 27.9577C183.709 27.9554 183.709 27.9554 183.287 27.953C182.607 27.9489 181.927 27.9427 181.247 27.9361C181.213 28.1368 181.179 28.3375 181.144 28.5443C180.768 30.5118 180.276 32.0214 178.825 33.4724C178.787 34.1416 178.771 34.8121 178.764 35.4823C178.636 42.9189 178.364 51.0061 173.289 57.0017C172.609 57.5946 171.91 58.1598 171.212 58.7318C171.54 58.7368 171.867 58.7419 172.205 58.7471C173.448 58.7675 174.691 58.7942 175.935 58.8226C176.467 58.8339 177 58.8437 177.533 58.8517C184.175 58.9537 190.62 59.6805 195.78 64.2681C195.981 64.4327 196.181 64.5973 196.388 64.7668C203.364 70.9803 205.943 82.2448 208.853 90.7654C209.268 91.9795 209.691 93.1892 210.139 94.3918C210.297 94.8201 210.456 95.2484 210.619 95.6896C210.761 96.0631 210.902 96.4366 211.047 96.8215C211.341 97.7985 211.414 98.55 211.351 99.562C209.058 100.6 209.058 100.6 207.89 100.6C208.2 102.175 208.513 103.749 208.83 105.322C208.937 105.855 209.043 106.388 209.147 106.921C210.076 111.648 211.054 116.543 213.448 120.777C213.58 121.017 213.711 121.257 213.846 121.504C215.361 124.226 217.042 126.845 218.731 129.46C219.351 130.423 219.965 131.39 220.578 132.357C222.084 134.736 222.084 134.736 223.6 137.108C223.974 137.691 224.345 138.276 224.712 138.863C224.89 139.143 225.068 139.423 225.252 139.711C225.409 139.96 225.566 140.209 225.727 140.466C226.605 141.546 227.692 141.791 228.998 142.122C229.575 142.314 230.152 142.508 230.728 142.706C231.189 142.858 231.65 143.01 232.112 143.16C233.715 140.918 235.221 138.639 236.653 136.283C238.712 132.927 240.841 129.622 242.998 126.328C243.828 125.057 244.653 123.783 245.477 122.507C245.79 122.023 246.103 121.539 246.416 121.054C246.646 120.7 246.646 120.7 246.88 120.338C247.327 119.645 247.776 118.954 248.225 118.262C250.117 115.344 251.995 112.419 253.868 109.488C255.722 106.587 257.588 103.694 259.469 100.809C260.988 98.4767 262.49 96.1334 263.989 93.7878C266.155 90.3997 268.322 87.0125 270.52 83.6452C270.7 83.3677 270.881 83.0903 271.067 82.8044C271.632 81.937 272.2 81.0715 272.769 80.2066C272.944 79.9379 273.119 79.6692 273.299 79.3923C273.463 79.1441 273.627 78.8958 273.796 78.64C273.941 78.4202 274.085 78.2003 274.234 77.9738C274.672 77.4168 274.672 77.4168 275.71 76.7248C276.711 76.6369 276.711 76.6369 277.945 76.6352C278.17 76.634 278.396 76.6328 278.628 76.6316C279.371 76.6285 280.115 76.6305 280.859 76.6329C281.375 76.6324 281.892 76.6317 282.409 76.6309C283.491 76.6298 284.573 76.6313 285.655 76.6346C287.044 76.6385 288.433 76.6362 289.822 76.6321C290.889 76.6296 291.955 76.6304 293.022 76.6322C293.534 76.6326 294.046 76.6321 294.559 76.6304C295.274 76.6287 295.988 76.6314 296.703 76.6352C297.11 76.6358 297.518 76.6363 297.937 76.6369C298.893 76.7248 298.893 76.7248 299.586 77.4168C299.656 78.2744 299.683 79.0937 299.68 79.9518C299.681 80.2162 299.683 80.4805 299.685 80.7529C299.69 81.6433 299.69 82.5337 299.69 83.4242C299.693 84.0606 299.696 84.6971 299.699 85.3336C299.706 86.7064 299.71 88.0792 299.712 89.452C299.716 91.6209 299.725 93.7897 299.734 95.9586C299.749 99.3878 299.76 102.817 299.77 106.246C299.788 112.39 299.809 118.534 299.834 124.677C299.843 126.835 299.849 128.993 299.855 131.151C299.858 132.492 299.863 133.832 299.868 135.172C299.87 135.796 299.872 136.419 299.873 137.043C299.874 137.891 299.878 138.739 299.881 139.587C299.881 139.837 299.881 140.086 299.881 140.343C299.872 141.621 299.872 141.621 300.278 142.814C300.632 142.823 300.987 142.832 301.352 142.841C302.663 142.873 303.974 142.908 305.285 142.943C305.853 142.958 306.421 142.973 306.99 142.986C307.805 143.006 308.62 143.028 309.435 143.051C309.69 143.057 309.946 143.062 310.209 143.068C312.003 143.121 312.003 143.121 312.388 143.506C312.422 144.014 312.433 144.524 312.433 145.033C312.435 145.52 312.435 145.52 312.436 146.016C312.436 146.369 312.435 146.722 312.434 147.086C312.435 147.445 312.435 147.805 312.435 148.175C312.435 148.938 312.435 149.7 312.433 150.462C312.431 151.633 312.433 152.804 312.436 153.975C312.435 154.713 312.435 155.452 312.434 156.19C312.435 156.543 312.436 156.896 312.436 157.259C312.435 157.584 312.434 157.908 312.433 158.243C312.433 158.673 312.433 158.673 312.432 159.113C312.388 159.769 312.388 159.769 312.042 160.115C311.145 160.171 310.257 160.205 309.359 160.225C308.957 160.236 308.957 160.236 308.546 160.247C307.686 160.269 306.826 160.29 305.965 160.31C305.383 160.325 304.801 160.34 304.22 160.355C302.79 160.392 301.361 160.427 299.932 160.461C299.933 160.71 299.935 160.958 299.936 161.214C299.95 163.556 299.961 165.898 299.967 168.24C299.971 169.444 299.976 170.648 299.984 171.852C299.993 173.236 299.996 174.621 299.999 176.005C300.003 176.437 300.006 176.869 300.01 177.314C300.01 177.916 300.01 177.916 300.01 178.531C300.012 178.885 300.013 179.238 300.015 179.602C299.93 180.544 299.723 181.111 299.24 181.915C296.591 181.923 293.943 181.929 291.294 181.934C290.393 181.935 289.491 181.938 288.59 181.941C287.296 181.945 286.003 181.947 284.709 181.948C284.304 181.95 283.899 181.952 283.482 181.954C283.108 181.954 282.734 181.954 282.348 181.954C281.853 181.955 281.853 181.955 281.347 181.956C280.554 181.915 280.554 181.915 279.862 181.569C279.502 180.488 279.463 179.705 279.445 178.57C279.438 178.163 279.431 177.756 279.424 177.336C279.419 176.908 279.413 176.48 279.407 176.039C279.4 175.646 279.394 175.252 279.387 174.847C279.364 173.375 279.343 171.903 279.322 170.431C279.272 167.141 279.222 163.851 279.17 160.461C265.925 160.461 252.679 160.461 239.032 160.461C240.174 162.288 241.316 164.115 242.492 165.998C243.732 169.303 243.732 169.303 243.184 170.842C242.428 171.837 242.428 171.837 241.454 172.572C240.308 172.68 240.308 172.68 239.378 172.572C239.285 172.843 239.193 173.114 239.097 173.394C238.686 174.302 238.686 174.302 237.648 174.994C235.676 175.156 234.539 174.997 232.804 173.956C232.633 174.127 232.461 174.299 232.285 174.475C231.029 175.229 230.05 175.294 228.652 174.994C221.925 172.33 217.119 166.166 214.119 159.769C213.269 157.713 212.48 155.59 212.279 153.367C211.969 151.781 211.312 150.991 210.313 149.735C210.23 150.008 210.146 150.28 210.061 150.561C206.949 160.649 202.841 169.412 195.434 177.07C195.166 177.352 194.899 177.633 194.623 177.923C194.369 178.184 194.116 178.445 193.855 178.714C193.624 178.952 193.392 179.191 193.153 179.437C192.32 180.184 192.32 180.184 191.413 180.659C190.251 181.309 189.622 181.85 188.859 182.953C188.273 185.472 188.668 188.2 188.839 190.752C188.88 191.56 188.919 192.369 188.956 193.177C189.04 194.923 189.136 196.667 189.239 198.412C189.404 201.182 189.544 203.952 189.679 206.723C189.726 207.68 189.774 208.636 189.821 209.592C189.833 209.832 189.844 210.071 189.857 210.318C189.942 212.051 190.032 213.782 190.122 215.514C190.663 225.891 191.062 236.272 191.441 246.655C191.536 249.254 191.633 251.853 191.734 254.451C191.81 256.417 191.884 258.382 191.958 260.348C192.001 261.487 192.044 262.626 192.089 263.766C192.137 265.003 192.182 266.24 192.228 267.478C192.242 267.842 192.257 268.206 192.272 268.581C192.284 268.912 192.295 269.243 192.307 269.584C192.318 269.871 192.329 270.157 192.34 270.453C192.32 271.187 192.32 271.187 191.974 272.226C191.141 272.642 190.607 272.606 189.681 272.593C189.398 272.59 189.116 272.587 188.824 272.584C188.499 272.578 188.499 272.578 188.167 272.572C189.944 275.816 193.445 277.193 196.667 278.713C197.04 278.892 197.413 279.07 197.797 279.254C200.765 280.655 203.776 281.938 206.833 283.134C212.137 285.255 212.137 285.255 213.104 287.128C213.989 288.013 214.708 287.96 215.922 287.969C216.216 287.964 216.51 287.959 216.813 287.953C217.124 287.954 217.434 287.954 217.754 287.954C218.782 287.953 219.81 287.942 220.838 287.932C221.55 287.929 222.262 287.927 222.975 287.926C224.85 287.92 226.726 287.907 228.601 287.891C230.514 287.877 232.428 287.871 234.341 287.864C238.096 287.849 241.852 287.825 245.607 287.796C245.723 287.442 245.84 287.088 245.96 286.723C246.115 286.252 246.271 285.781 246.427 285.311C246.503 285.078 246.58 284.845 246.659 284.605C247.259 282.795 247.939 281.059 248.764 279.341C248.894 279.068 249.024 278.795 249.158 278.514C250.459 275.871 252.068 273.48 253.808 271.108C254.544 270.104 255.264 269.088 255.987 268.073C256.558 268.187 257.129 268.302 257.717 268.419C257.806 273.432 257.636 278.321 257.025 283.298C257.21 282.955 257.395 282.611 257.585 282.257C260.143 277.566 262.995 273.317 266.714 269.457C266.879 269.283 267.045 269.109 267.215 268.929C270.14 265.856 273.21 263.166 276.748 260.807C277.678 260.937 277.678 260.937 278.478 261.153C278.3 263.095 277.547 264.478 276.619 266.149C275.228 268.719 273.916 271.316 272.661 273.956C272.508 274.277 272.354 274.599 272.196 274.931C271.152 277.132 270.138 279.347 269.136 281.568C269.279 281.419 269.422 281.27 269.569 281.116C273.462 277.132 277.886 274.114 282.977 271.879C283.294 271.739 283.611 271.598 283.938 271.454C284.891 271.123 285.479 271.26 286.437 271.533C286.299 273.266 285.385 274.187 284.253 275.405C281.668 278.288 279.179 281.551 277.44 285.028C277.824 284.811 278.207 284.595 278.603 284.371C279.109 284.086 279.616 283.8 280.122 283.514C280.374 283.372 280.627 283.229 280.887 283.082C281.132 282.944 281.378 282.805 281.63 282.663C281.855 282.536 282.08 282.409 282.311 282.278C283.671 281.533 284.507 281.134 286.091 281.222C286.437 282.606 286.437 282.606 283.669 288.142C292.689 288.142 301.71 288.142 311.004 288.142C311.118 288.713 311.233 289.284 311.35 289.872C311.004 290.218 311.004 290.218 310.34 290.261C310.046 290.261 309.752 290.261 309.448 290.261C309.11 290.262 308.772 290.262 308.424 290.263C307.86 290.262 307.86 290.262 307.284 290.26C306.888 290.26 306.493 290.261 306.085 290.261C304.981 290.261 303.877 290.26 302.773 290.259C301.584 290.257 300.396 290.258 299.207 290.258C297.147 290.258 295.086 290.257 293.025 290.255C290.045 290.252 287.065 290.251 284.086 290.251C279.252 290.25 274.418 290.248 269.584 290.245C264.887 290.241 260.191 290.239 255.494 290.238C255.204 290.237 254.915 290.237 254.617 290.237C253.166 290.237 251.714 290.236 250.263 290.236C238.215 290.232 226.167 290.226 214.119 290.218C214.119 290.675 214.119 291.132 214.119 291.603C212.672 292.303 211.375 292.395 209.796 292.39C209.541 292.391 209.285 292.393 209.021 292.395C208.172 292.4 207.324 292.399 206.475 292.399C205.873 292.4 205.271 292.402 204.669 292.403C203.399 292.406 202.128 292.406 200.858 292.404C199.583 292.402 198.309 292.405 197.035 292.411C187.539 292.458 177.84 292.477 168.444 290.911C168.33 290.796 168.216 290.682 168.098 290.565C167.13 290.528 166.17 290.514 165.201 290.514C164.898 290.513 164.594 290.512 164.281 290.511C163.27 290.507 162.26 290.507 161.25 290.506C160.549 290.505 159.849 290.504 159.148 290.503C157.676 290.501 156.205 290.5 154.733 290.5C152.849 290.5 150.964 290.496 149.08 290.49C147.631 290.486 146.183 290.485 144.735 290.485C144.04 290.485 143.346 290.483 142.651 290.481C141.678 290.477 140.704 290.478 139.731 290.48C139.302 290.478 139.302 290.478 138.863 290.475C137.277 290.483 136.032 290.673 134.534 291.257C133.195 291.5 131.843 291.641 130.49 291.797C130.142 291.841 129.794 291.884 129.435 291.929C124.073 292.564 118.69 292.7 113.295 292.686C112.425 292.684 111.556 292.686 110.686 292.688C103.612 292.692 103.612 292.692 101.317 292.295C101.088 292.066 100.86 291.838 100.625 291.603C100.625 291.146 100.625 290.689 100.625 290.218C69.4517 290.218 38.2789 290.218 6.16141 290.218C5.99013 289.362 5.99013 289.362 5.81539 288.488C6.49139 287.812 7.52264 288.101 8.42229 288.099C8.74784 288.101 9.07339 288.102 9.4088 288.103C9.92017 288.103 9.92017 288.103 10.4419 288.103C11.5746 288.103 12.7073 288.106 13.8401 288.109C14.6231 288.109 15.4061 288.11 16.1892 288.11C18.2547 288.111 20.3202 288.115 22.3857 288.119C24.4916 288.122 26.5974 288.124 28.7033 288.125C32.8387 288.129 36.974 288.135 41.1093 288.142C41.1084 287.848 41.1075 287.553 41.1066 287.249C41.1036 286.137 41.1014 285.026 41.0998 283.914C41.099 283.436 41.0978 282.959 41.0963 282.481C41.085 278.819 41.1783 275.185 41.4553 271.533C40.1985 272.211 38.9442 272.894 37.6919 273.58C37.2678 273.812 36.843 274.042 36.4176 274.271C32.9455 276.144 29.4546 278.147 26.7712 281.092C25.8845 281.914 25.8845 281.914 25.0141 281.882C24.1544 281.568 24.1544 281.568 23.6941 280.944C23.5252 280.54 23.5252 280.54 23.3529 280.127C23.2248 279.827 23.0968 279.527 22.9649 279.218C22.7722 278.732 22.7722 278.732 22.5757 278.238C22.4408 277.908 22.3059 277.578 22.1669 277.239C19.8301 271.404 18.5434 265.994 21.0389 259.976C22.5013 257.015 24.9547 254.846 28.0728 253.755C30.451 253.203 33.0306 253.202 35.3027 254.166C36.0615 254.674 36.5094 255.262 37.0652 255.984C38.0605 257.242 38.7725 257.577 40.3524 257.844C40.9507 257.909 41.549 257.974 42.1474 258.039C42.3758 258.153 42.6041 258.267 42.8394 258.385C43.1224 254.61 43.2388 250.838 43.2719 247.053C43.2793 246.64 43.2867 246.226 43.2942 245.801C43.3114 241.354 42.4596 237.427 40.4173 233.471C40.3455 233.714 40.2737 233.957 40.1997 234.207C38.9786 237.967 36.6865 240.661 33.1455 242.48C29.3042 244.009 25.0973 243.312 21.3862 241.776C18.5982 240.471 16.0314 238.928 13.4927 237.191C10.9542 235.48 8.86 234.189 5.71807 234.008C5.38694 233.989 5.05581 233.97 4.71465 233.95C3.23645 233.883 1.75857 233.841 0.279084 233.817C-0.13367 232.618 -0.0799881 232.121 0.38316 230.917C0.60805 230.481 0.84055 230.05 1.07925 229.622C1.20518 229.393 1.3311 229.165 1.46084 228.93C4.98633 222.779 11.2192 218.816 17.9431 216.913C24.797 215.083 32.6336 214.941 39.0981 218.182C41.0877 219.387 42.4986 220.624 43.2071 222.875C43.1718 224.919 42.6904 226.612 41.3472 228.173C40.6467 228.939 40.6467 228.939 40.8931 229.925C41.3625 230.864 41.8524 231.643 42.4501 232.498C43.6379 234.204 44.2893 235.999 44.9155 237.97C45.3119 236.253 45.6722 234.537 45.9806 232.802C47.2311 225.804 48.6092 219.356 53.22 213.748C53.0741 213.515 52.9283 213.281 52.778 213.04C52.5884 212.731 52.3989 212.423 52.2036 212.105C52.0149 211.8 51.8262 211.495 51.6318 211.18C50.7736 209.611 50.6747 208.268 50.7979 206.482C51.4594 204.575 52.5745 203.385 54.2581 202.33C61.3144 198.923 70.1134 199.276 77.4413 201.638C80.9169 202.856 83.9389 204.464 86.7838 206.828C87.0822 207.074 87.3806 207.32 87.6881 207.574C89.6424 209.259 91.7552 211.122 93.0122 213.402C93.0189 214.327 93.0189 214.327 92.6662 215.132C91.158 216.003 89.434 216.055 87.7327 216.254C84.0981 216.99 81.1292 218.691 78.0036 220.625C72.0425 224.301 65.9758 227.829 58.7549 226.336C56.6118 225.6 55.0486 224.369 53.912 222.399C53.443 221.032 53.1229 219.669 52.874 218.247C48.3645 226.434 47.5973 236.77 46.6456 245.928C46.7598 245.814 46.874 245.7 46.9917 245.582C47.3712 245.24 47.7537 244.902 48.1378 244.566C48.3435 244.384 48.5491 244.203 48.7609 244.015C50.119 242.955 51.0609 242.73 52.7875 242.771C53.1282 242.777 53.469 242.783 53.8201 242.79C54.2082 242.802 54.2082 242.802 54.6041 242.814C54.6326 242.414 54.6612 242.015 54.6906 241.603C55.0211 239.075 56.0819 237.202 58.0967 235.635C60.3689 234.141 62.6477 233.851 65.3307 234.163C71.352 235.417 75.8196 240.091 79.1146 245.045C83.5523 252.161 85.8058 259.942 85.8107 268.311C85.8149 268.697 85.8191 269.082 85.8235 269.48C85.8242 269.852 85.8248 270.224 85.8255 270.608C85.8269 270.943 85.8284 271.279 85.8298 271.625C85.7384 272.654 85.5386 273.389 85.0537 274.302C84.0157 274.648 84.0157 274.648 83.2763 274.337C82.9851 274.168 82.6938 274 82.3937 273.826C81.8886 273.539 81.8886 273.539 81.3732 273.246C80.9892 273.023 80.6052 272.801 80.2095 272.572C73.6945 268.831 67.6519 266.309 60.2062 265.118C57.8497 264.73 55.759 264.188 53.566 263.229C49.7622 270.484 48.6619 278.714 48.1106 286.788C48.0297 287.45 48.0297 287.45 47.6837 288.142C54.4271 288.113 61.1705 288.08 67.9139 288.043C71.0448 288.026 74.1758 288.009 77.3068 287.996C80.0355 287.985 82.7641 287.971 85.4927 287.955C86.9378 287.946 88.3829 287.938 89.828 287.934C91.1878 287.929 92.5476 287.922 93.9075 287.911C94.4068 287.908 94.9062 287.906 95.4055 287.906C96.0869 287.904 96.7683 287.899 97.4497 287.893C97.8311 287.891 98.2126 287.889 98.6056 287.887C99.8543 287.772 100.62 287.481 101.475 286.563C101.63 286.361 101.784 286.158 101.944 285.95C102.985 284.691 104.069 283.903 105.469 283.082C105.817 282.871 105.817 282.871 106.171 282.655C107.64 281.768 109.122 280.905 110.601 280.037C111.115 279.734 111.115 279.734 111.64 279.426C112.318 279.028 112.997 278.632 113.678 278.239C114.146 277.966 114.146 277.966 114.623 277.687C114.902 277.526 115.18 277.365 115.467 277.2C116.805 276.326 117.353 275.59 117.817 274.064C117.904 273.784 117.991 273.504 118.081 273.216C118.144 273.003 118.207 272.791 118.272 272.572C117.946 272.584 117.946 272.584 117.615 272.596C117.19 272.605 117.19 272.605 116.758 272.615C116.477 272.623 116.196 272.631 115.906 272.639C115.157 272.572 115.157 272.572 114.465 271.879C114.447 270.806 114.476 269.771 114.539 268.7C114.557 268.353 114.575 268.005 114.593 267.646C114.885 262.223 115.268 256.804 115.639 251.385C115.751 249.751 115.862 248.116 115.973 246.482C116.16 243.727 116.347 240.973 116.535 238.218C116.773 234.749 117.008 231.279 117.244 227.809C118.791 205.008 118.791 205.008 119.406 196.494C119.423 196.261 119.44 196.027 119.457 195.786C119.624 193.469 119.793 191.153 119.965 188.836C120.016 188.126 120.068 187.416 120.12 186.706C120.144 186.396 120.167 186.086 120.191 185.767C120.617 182.682 120.617 182.682 119.888 179.876C119.669 179.721 119.449 179.566 119.223 179.406C108.011 170.602 102.726 156.518 100.869 142.757C100.58 140.277 100.56 137.796 100.56 135.302C100.56 134.58 100.553 133.858 100.547 133.136C100.535 130.196 100.768 127.371 101.317 124.475C100.988 124.468 100.66 124.461 100.322 124.454C97.6023 124.057 95.2366 121.784 93.5609 119.723C90.697 115.632 89.4239 110.697 88.6756 105.821C88.6316 105.537 88.5876 105.254 88.5423 104.961C88.0935 101.977 87.808 98.9844 87.5489 95.9788C87.497 95.3964 87.445 94.8139 87.3929 94.2315C87.2851 93.0235 87.1788 91.8154 87.0738 90.6072C86.9405 89.0752 86.8046 87.5434 86.6678 86.0117C86.5353 84.526 86.4041 83.0401 86.2729 81.5542C86.2486 81.28 86.2243 81.0059 86.1992 80.7234C86.129 79.9298 86.0597 79.1362 85.9909 78.3424C85.958 77.9663 85.958 77.9663 85.9243 77.5826C85.8162 76.3129 85.7263 75.045 85.6644 73.7722C85.6515 73.5197 85.6387 73.2672 85.6254 73.0071C85.592 72.3156 85.5634 71.6239 85.5351 70.9322C85.3706 69.5615 85.0396 68.8267 84.0346 67.8986C82.8029 67.0041 81.5426 66.1616 80.2622 65.3386C75.0119 61.8514 69.4193 56.7599 67.7528 50.4273C67.5751 48.9293 67.5845 48.2779 68.38 46.9888C69.1369 46.2751 69.1369 46.2751 70.1749 46.2751C70.1464 45.9111 70.1178 45.5472 70.0884 45.1722C70.1895 43.63 70.4341 43.159 71.559 42.1229C72.2466 41.8793 72.9388 41.6484 73.6351 41.4308C73.8564 41.1953 74.0776 40.9598 74.3055 40.7172C75.0192 40.0468 75.0192 40.0468 76.1438 39.6575C78.6271 39.7403 79.99 41.5373 81.6382 43.2512C84.628 46.3523 88.0192 48.678 91.9741 50.4273C92.2025 50.4273 92.4309 50.4273 92.6662 50.4273C92.6331 50.2226 92.6001 50.0179 92.5661 49.8069C92.1658 46.9534 92.1658 46.9534 93.0122 45.5831C93.6393 44.9343 93.6393 44.9343 94.3962 44.545C96.1482 44.7194 96.7863 45.3637 97.8673 46.6792C101.499 51.9038 103.475 57.1916 102.543 63.6301C102.426 64.2414 102.3 64.8511 102.16 65.4575C101.751 67.8556 102.208 69.9526 102.787 72.2698C102.865 72.5886 102.943 72.9073 103.023 73.2358C103.632 75.698 104.323 78.1231 105.123 80.531C105.22 80.338 105.317 80.1451 105.417 79.9463C109.884 71.1255 114.686 62.6616 124.5 59.0778C130.245 57.3918 136.064 57.9723 141.941 58.5462C142.312 58.5798 142.683 58.6134 143.065 58.648C143.396 58.6806 143.728 58.7132 144.07 58.7468C145.006 58.8062 145.006 58.8062 145.953 58.0397C146.401 55.5252 145.884 53.2765 144.911 50.9626C144.587 50.1274 144.452 49.4064 144.331 48.5242C144.032 47.2935 144.032 47.2935 143.24 47.0226C142.698 46.8808 142.155 46.7422 141.612 46.6063C139.59 45.8174 138.37 43.7942 137.303 41.9931C136.682 39.745 136.548 37.5454 137.562 35.3971C138.154 34.3741 138.794 33.525 139.725 32.7804C139.953 32.7804 140.181 32.7804 140.417 32.7804C140.41 32.5437 140.402 32.307 140.395 32.0632C140.211 25.1437 140.419 19.5068 145.369 14.1602C147.098 12.5444 149.17 11.1476 151.489 10.5919C152.562 10.4039 152.562 10.4039 152.96 9.59709C153.088 9.25453 153.088 9.25453 153.219 8.90505C154.258 8.21301 154.258 8.21301 155.339 8.32114ZM145.953 16.8635C143.28 20.1672 142.421 24.4796 142.493 28.6281C142.836 28.4524 143.18 28.2767 143.534 28.0956C153.106 23.2289 162.203 20.6724 172.943 20.3237C172.009 17.2498 170.044 14.8871 167.406 13.0573C160.487 9.61849 151.239 11.0847 145.953 16.8635ZM150.105 26.898C150.105 27.0122 150.105 27.1264 150.105 27.2441C156.892 28.5088 164.308 27.5568 171.102 26.6331C171.787 26.5408 172.473 26.4488 173.159 26.3574C173.497 26.3123 173.835 26.2672 174.183 26.2207C178.366 25.6959 182.572 25.6027 186.783 25.514C186.484 24.718 186.484 24.718 185.502 24.4759C184.894 24.3046 184.894 24.3046 184.275 24.1299C183.88 24.0157 183.486 23.9015 183.08 23.7839C179.103 22.7996 175.157 22.5928 171.083 22.5944C170.81 22.5942 170.537 22.5939 170.255 22.5937C163.053 22.6112 156.765 24.2016 150.105 26.898ZM172.344 28.2267C164.702 29.3671 157.132 29.5994 149.413 29.6662C149.329 30.0248 149.246 30.3834 149.159 30.7529C149.042 31.2269 148.925 31.7009 148.808 32.1748C148.726 32.5288 148.726 32.5288 148.643 32.8898C148.27 34.3686 147.889 35.3257 146.645 36.2406C144.525 36.2805 143.392 35.4305 141.801 34.1644C140.267 35.2983 139.378 36.012 139.033 37.9706C139.076 40.6743 140.088 42.432 141.931 44.372C143.09 45.0344 143.946 44.9158 145.261 44.891C146.043 46.0642 146.28 47.0293 146.623 48.3945C147.001 49.8847 147.397 51.3454 147.943 52.7846C148.647 54.8365 148.697 56.825 147.943 58.8615C147.337 59.7698 147.337 59.7698 146.559 60.4403C145.838 61.1411 145.838 61.1411 145.91 62.2785C146.683 64.8541 148.577 66.9343 150.797 68.4203C154.581 70.3839 158.386 71.2163 162.608 70.2477C165.167 69.2772 167.031 67.9091 168.183 65.3737C168.613 64.1226 168.873 62.8259 168.79 61.4999C168.562 61.2716 168.334 61.0432 168.098 60.8079C166.993 60.9122 165.934 61.0966 164.85 61.3377C163.899 61.5084 163.009 61.558 162.043 61.5648C161.725 61.5697 161.408 61.5746 161.081 61.5797C160.072 61.4942 159.325 61.2276 158.41 60.8079C158.41 60.3512 158.41 59.8944 158.41 59.4238C158.836 59.4439 159.263 59.464 159.702 59.4846C163.907 59.6238 167.188 59.3029 170.629 56.634C175.204 52.2297 176.333 45.5325 176.468 39.4615C176.477 38.6041 176.485 37.7467 176.489 36.8893C176.492 36.4812 176.496 36.073 176.499 35.6525C176.489 33.0157 176.229 30.5213 175.711 27.9361C174.525 27.9361 173.508 28.0421 172.344 28.2267ZM75.7112 42.1229C76.2268 43.8142 77.1946 44.818 78.3929 46.0588C78.7684 46.4574 79.1437 46.8561 79.5188 47.255C79.6982 47.4444 79.8775 47.6338 80.0623 47.829C82.6712 50.5916 82.6712 50.5916 82.9776 52.1574C80.9753 51.4441 79.8575 50.5757 78.4794 48.9784C78.3015 48.7789 78.1237 48.5794 77.9404 48.3739C77.424 47.7931 76.9132 47.2077 76.4033 46.6211C76.1374 46.3205 75.8716 46.0199 75.5977 45.7101C75.0548 45.0944 74.5157 44.476 73.9811 43.853C73.5244 43.9672 73.0676 44.0813 72.5971 44.199C72.3453 44.8281 72.3453 44.8281 72.251 45.5831C72.5514 46.2218 72.5514 46.2218 73.0728 46.8158C73.2651 47.0548 73.4573 47.2939 73.6554 47.5402C73.8771 47.8079 74.0988 48.0755 74.3272 48.3512C74.5738 48.6617 74.8205 48.9721 75.0746 49.292C75.8496 50.2597 76.6403 51.2112 77.4413 52.1574C77.7163 52.4899 77.7163 52.4899 77.9968 52.8292C79.9338 54.9753 82.5672 56.282 85.0537 57.6937C85.8259 58.1321 86.5971 58.5719 87.3677 59.0129C87.6902 59.1936 88.0127 59.3742 88.345 59.5603C89.2394 60.1374 89.9179 60.6735 90.59 61.4999C90.59 61.9567 90.59 62.4134 90.59 62.884C89.4329 62.5224 88.6014 62.0128 87.6705 61.262C86.4366 60.3 85.1691 59.6395 83.7562 58.9697C79.2243 56.7822 76.212 53.7765 73.1866 49.8444C72.3028 48.6445 72.3028 48.6445 70.9318 48.2215C70.6821 48.2643 70.4323 48.3071 70.1749 48.3512C69.6487 49.8811 70.1048 50.8012 70.725 52.2372C73.4526 57.594 78.0806 61.2613 82.9087 64.6114C86.7566 67.3198 86.7566 67.3198 87.4759 69.1124C87.5995 70.0219 87.6905 70.9074 87.7548 71.8211C87.7763 72.0932 87.7978 72.3652 87.82 72.6456C87.8664 73.237 87.9114 73.8285 87.9553 74.42C88.0256 75.3663 88.0997 76.3122 88.1746 77.258C88.3607 79.6147 88.5409 81.9718 88.7205 84.329C89.099 104.25 89.099 104.25 97.8564 121.015C100.589 122.832 103.52 123.123 106.711 122.598C111.233 121.434 114.656 117.987 116.974 114.073C117.211 113.679 117.211 113.679 117.453 113.278C120.954 108.057 120.954 108.057 122.77 102.33C120.911 101.392 119.051 100.456 117.19 99.5213C116.557 99.2029 115.924 98.8841 115.291 98.5647C114.383 98.1065 113.474 97.65 112.565 97.194C112.281 97.0502 111.997 96.9063 111.704 96.7582C111.309 96.5607 111.309 96.5607 110.907 96.3593C110.675 96.2425 110.443 96.1257 110.203 96.0054C109.621 95.7104 109.621 95.7104 108.929 95.7558C109.073 96.3506 109.073 96.3506 109.22 96.9574C109.346 97.4868 109.473 98.0162 109.599 98.5456C109.694 98.936 109.694 98.936 109.791 99.3343C110.165 100.906 110.457 102.457 110.659 104.06C110.088 104.06 109.517 104.06 108.929 104.06C108.861 103.754 108.793 103.447 108.723 103.131C107.624 98.2798 106.297 93.4904 104.984 88.6936C102.156 78.3494 102.156 78.3494 100.991 73.9647C100.922 73.7079 100.853 73.4511 100.782 73.1865C99.9351 69.9764 99.5362 66.8673 100.279 63.5977C101.479 58.0844 99.7389 53.6882 96.8265 49.0838C96.3667 48.3755 95.9027 47.6698 95.4343 46.9671C95.2059 46.9671 94.9776 46.9671 94.7423 46.9671C94.7033 49.0695 94.8486 51.1071 95.0883 53.1955C93.4699 53.7311 92.3932 53.0685 90.9361 52.3521C90.6742 52.2254 90.4124 52.0987 90.1426 51.9681C85.4365 49.6392 81.5954 46.5151 78.0942 42.6189C77.2585 41.984 76.7357 42.0259 75.7112 42.1229ZM115.866 67.2512C112.64 70.9999 110.288 75.2429 108.023 79.6207C107.702 80.2328 107.367 80.838 107.019 81.4359C105.949 83.3167 105.949 83.3167 105.912 85.4185C106.04 85.8692 106.181 86.3165 106.334 86.7593C106.432 87.0885 106.432 87.0885 106.531 87.4243C106.665 87.8691 106.807 88.3113 106.958 88.7502C107.199 89.5275 107.199 89.5275 107.351 90.3534C107.629 91.6833 107.876 92.6708 108.919 93.5869C109.815 94.1165 110.721 94.5606 111.669 94.9908C112.005 95.1549 112.342 95.3189 112.688 95.488C113.759 96.0067 114.836 96.5085 115.914 97.0101C116.644 97.36 117.372 97.711 118.101 98.0631C119.882 98.9214 121.669 99.7659 123.462 100.6C125.798 98.3876 125.907 95.6552 126.057 92.6065C126.086 92.0677 126.115 91.5288 126.143 90.9899C126.187 90.1479 126.23 89.3058 126.273 88.4637C126.315 87.6459 126.359 86.8282 126.403 86.0105C126.415 85.7593 126.428 85.508 126.44 85.2492C126.502 84.101 126.58 83.017 126.922 81.9151C127.379 82.0292 127.836 82.1434 128.306 82.2611C128.094 88.2429 127.818 94.2184 127.484 100.195C127.439 101.017 127.394 101.839 127.349 102.661C127.231 104.8 127.113 106.938 126.994 109.076C126.804 112.5 126.615 115.925 126.427 119.349C126.362 120.528 126.296 121.706 126.231 122.885C125.972 127.566 125.741 132.248 125.538 136.932C126.056 137.06 126.574 137.188 127.091 137.316C127.38 137.387 127.668 137.458 127.965 137.532C143.208 141.275 170.816 145.262 185.399 137.97C185.41 137.726 185.42 137.481 185.431 137.229C185.684 131.256 185.939 125.282 186.193 119.309C186.317 116.42 186.44 113.531 186.562 110.642C186.669 108.122 186.776 105.601 186.884 103.081C186.941 101.749 186.998 100.417 187.054 99.0842C187.107 97.8255 187.161 96.5668 187.215 95.308C187.244 94.6356 187.272 93.963 187.301 93.2905C187.435 90.1879 187.619 87.09 187.821 83.9912C188.278 83.877 188.735 83.7628 189.205 83.6452C189.265 90.5732 189.094 97.4833 188.859 104.406C191.112 103.735 193.365 103.065 195.618 102.394C196.383 102.166 197.148 101.938 197.913 101.71C199.018 101.381 200.122 101.052 201.227 100.723C201.565 100.622 201.903 100.522 202.251 100.418C202.895 100.226 203.539 100.034 204.183 99.8402C204.828 99.6492 205.474 99.4639 206.122 99.2833C206.436 99.1943 206.75 99.1054 207.074 99.0137C207.356 98.9358 207.638 98.858 207.929 98.7778C208.65 98.5818 208.65 98.5818 208.929 97.8319C208.65 96.8475 208.346 95.8941 208.012 94.9286C207.913 94.6351 207.813 94.3416 207.71 94.0393C207.384 93.0821 207.054 92.1265 206.723 91.1711C206.611 90.8473 206.5 90.5236 206.385 90.19C204.736 85.4052 203.059 80.6469 200.97 76.0327C200.854 75.7734 200.737 75.5141 200.617 75.2469C198.104 69.7364 194.679 64.8396 188.859 62.538C184.598 61.0598 180.285 61.104 175.819 61.1323C175.336 61.134 174.853 61.1356 174.371 61.137C173.203 61.1411 172.034 61.1467 170.866 61.1539C170.827 61.4568 170.787 61.7597 170.746 62.0718C170.69 62.4723 170.634 62.8728 170.576 63.2854C170.522 63.6811 170.468 64.0768 170.412 64.4844C169.903 66.985 168.663 68.8373 166.584 70.3018C163.148 72.3463 159.453 73.106 155.513 72.3482C151.571 71.3377 147.857 69.5264 145.607 65.9982C145.442 65.5659 145.286 65.1303 145.137 64.6925C144.343 62.5192 144.343 62.5192 142.839 60.8079C140.2 59.9032 137.29 60.069 134.534 60.1159C133.927 60.1073 133.32 60.0983 132.712 60.0888C126.303 60.0997 120.286 62.5916 115.866 67.2512ZM279.17 101.292C276.763 104.227 274.832 107.543 272.826 110.754C268.875 117.058 264.827 123.299 260.748 129.52C259.761 131.026 258.774 132.532 257.788 134.038C257.313 134.763 256.838 135.487 256.363 136.212C255.818 137.042 255.275 137.874 254.733 138.705C254.503 139.055 254.503 139.055 254.269 139.412C253.683 140.312 253.214 141.099 252.873 142.122C253.101 142.465 253.33 142.807 253.565 143.16C254.651 143.318 254.651 143.318 255.951 143.289C256.319 143.291 256.319 143.291 256.695 143.293C257.508 143.296 258.321 143.291 259.134 143.286C259.697 143.286 260.261 143.286 260.825 143.287C262.007 143.287 263.189 143.283 264.371 143.277C265.889 143.269 267.406 143.269 268.923 143.271C270.087 143.272 271.252 143.27 272.416 143.267C272.975 143.265 273.535 143.265 274.094 143.265C274.876 143.265 275.657 143.261 276.438 143.255C276.883 143.254 277.328 143.252 277.787 143.251C278.864 143.269 278.864 143.269 279.516 142.468C279.62 141.71 279.62 141.71 279.6 140.822C279.601 140.475 279.602 140.127 279.603 139.769C279.6 139.387 279.598 139.004 279.595 138.61C279.595 138.208 279.595 137.807 279.595 137.393C279.595 136.06 279.589 134.727 279.584 133.393C279.583 132.471 279.582 131.549 279.581 130.627C279.579 128.444 279.573 126.262 279.566 124.079C279.559 121.595 279.555 119.11 279.551 116.626C279.544 111.515 279.532 106.403 279.516 101.292C279.402 101.292 279.288 101.292 279.17 101.292ZM203.272 102.046C202.969 102.135 202.667 102.223 202.355 102.315C202.03 102.412 201.704 102.51 201.369 102.61C201.034 102.709 200.699 102.808 200.354 102.91C199.646 103.12 198.939 103.33 198.231 103.541C197.146 103.865 196.06 104.186 194.974 104.507C194.287 104.711 193.6 104.915 192.913 105.119C192.424 105.264 192.424 105.264 191.925 105.411C191.623 105.501 191.322 105.591 191.011 105.684C190.612 105.803 190.612 105.803 190.206 105.924C189.531 106.125 189.531 106.125 188.859 106.482C188.805 108.184 188.968 109.622 189.404 111.266C189.461 111.483 189.519 111.7 189.578 111.924C189.699 112.381 189.823 112.838 189.947 113.294C190.133 113.978 190.313 114.663 190.492 115.348C193.255 125.743 200.484 133.822 207.025 142.122C207.332 142.513 207.638 142.904 207.945 143.294C208.465 143.957 208.987 144.618 209.514 145.275C210.13 146.045 210.741 146.819 211.351 147.594C211.542 147.83 211.733 148.065 211.93 148.308C213.224 149.965 213.919 151.517 214.465 153.541C214.574 153.918 214.683 154.295 214.796 154.683C214.894 155.027 214.991 155.371 215.092 155.725C217.382 163.138 221.985 168.854 228.704 172.646C229.585 173.021 230.172 172.823 231.074 172.572C230.527 171.213 229.641 170.412 228.587 169.415C224.242 165.193 224.242 165.193 223.807 162.191C224.719 162.319 225.113 162.452 225.745 163.138C225.926 163.394 226.106 163.65 226.292 163.913C227.642 165.731 229.164 167.305 230.771 168.896C231.043 169.17 231.314 169.444 231.594 169.727C231.859 169.99 232.123 170.254 232.396 170.526C232.632 170.761 232.869 170.997 233.112 171.24C233.893 171.925 234.647 172.445 235.572 172.918C236.521 172.844 236.521 172.844 237.302 172.572C237.11 171.299 236.796 170.458 236.06 169.405C235.876 169.139 235.691 168.872 235.501 168.598C235.303 168.318 235.105 168.038 234.902 167.749C234.701 167.46 234.5 167.171 234.293 166.873C233.339 165.503 232.372 164.145 231.39 162.796C231.23 162.575 231.07 162.354 230.905 162.127C230.606 161.717 230.304 161.309 230 160.903C228.998 159.537 228.998 159.537 228.998 158.385C230.639 158.87 231.314 159.648 232.328 161.002C232.474 161.196 232.619 161.39 232.769 161.589C234.181 163.498 235.464 165.492 236.725 167.503C236.951 167.862 236.951 167.862 237.182 168.228C237.314 168.44 237.446 168.653 237.582 168.871C238.021 169.495 238.45 170.002 239.032 170.496C239.941 170.583 239.941 170.583 240.762 170.496C241.227 169.945 241.227 169.945 241.454 169.112C240.625 166.404 238.788 164.058 237.217 161.732C235.037 158.472 232.982 155.075 232.458 151.119C233.717 150.699 233.995 150.889 235.183 151.4C235.474 151.524 235.766 151.647 236.067 151.774C236.665 152.032 237.263 152.289 237.86 152.548C238.863 152.913 239.704 152.898 240.762 152.849C240.876 152.392 240.991 151.935 241.108 151.465C240.903 151.338 240.697 151.21 240.485 151.079C239.539 150.494 238.594 149.909 237.648 149.324C237.325 149.124 237.001 148.924 236.668 148.718C236.349 148.52 236.03 148.323 235.702 148.12C235.384 147.924 235.067 147.729 234.74 147.527C234.186 147.181 233.635 146.829 233.09 146.467C231.717 145.559 230.442 144.97 228.862 144.506C225.915 143.64 224.313 142.783 222.769 140.046C222.487 139.586 222.203 139.126 221.918 138.668C221.258 137.603 220.608 136.534 219.963 135.46C219.031 133.916 218.052 132.406 217.06 130.898C215.696 128.812 214.398 126.695 213.146 124.54C212.922 124.156 212.922 124.156 212.693 123.765C212.235 122.969 211.791 122.167 211.351 121.361C211.176 121.05 211.002 120.739 210.822 120.419C209.379 117.723 208.636 115.064 207.999 112.084C207.901 111.651 207.804 111.218 207.703 110.772C207.026 107.737 206.414 104.689 205.814 101.638C204.833 101.638 204.202 101.77 203.272 102.046ZM124.846 103.022C124.715 103.29 124.585 103.558 124.451 103.835C123.843 105.079 123.232 106.322 122.618 107.564C122.508 107.788 122.398 108.011 122.284 108.242C121.071 110.699 119.847 113.07 118.25 115.306C114.627 120.639 114.323 128.484 114.357 134.705C114.358 134.945 114.358 135.185 114.359 135.433C114.403 145.425 116.727 154.231 121.732 162.884C122.534 161.681 122.57 161.028 122.693 159.599C122.713 159.373 122.734 159.147 122.755 158.914C122.821 158.167 122.883 157.42 122.946 156.673C122.991 156.154 123.036 155.636 123.082 155.118C123.202 153.755 123.318 152.391 123.434 151.027C123.552 149.635 123.674 148.244 123.796 146.852C124.034 144.123 124.268 141.393 124.5 138.662C124.272 138.548 124.043 138.434 123.808 138.316C123.77 134.981 123.852 131.675 124.064 128.346C124.112 127.589 124.158 126.833 124.204 126.076C124.317 124.199 124.433 122.321 124.55 120.443C124.665 118.595 124.779 116.747 124.889 114.899C124.904 114.647 124.919 114.394 124.935 114.134C125.154 110.428 125.288 106.735 125.192 103.022C125.078 103.022 124.964 103.022 124.846 103.022ZM188.167 115.825C188.16 116.033 188.152 116.241 188.143 116.455C188.06 118.651 187.976 120.846 187.891 123.041C187.859 123.857 187.828 124.673 187.797 125.489C187.5 133.304 187.5 133.304 187.301 136.966C187.289 137.208 187.277 137.451 187.264 137.7C187.17 139.313 187.17 139.313 186.783 139.7C186.742 140.711 186.726 141.71 186.729 142.721C186.73 143.041 186.73 143.362 186.731 143.692C186.764 148.17 187.046 152.639 187.302 157.109C187.353 158.01 187.403 158.91 187.452 159.811C187.573 161.988 187.696 164.166 187.821 166.344C194.179 158.538 196.451 149.089 197.415 139.279C197.474 138.678 197.538 138.077 197.609 137.478C197.882 135.055 197.928 133.084 196.41 131.029C195.796 130.273 195.158 129.541 194.51 128.813C191.902 125.798 190.73 122.444 189.64 118.68C189.501 118.201 189.501 118.201 189.36 117.712C189.279 117.423 189.199 117.135 189.116 116.838C188.92 116.104 188.92 116.104 188.167 115.825ZM126.576 139.354C126.08 140.842 126.007 142.339 125.862 143.896C125.831 144.212 125.799 144.527 125.767 144.853C125.579 146.836 125.507 148.781 125.538 150.773C129.344 150.2 132.89 147.889 135.226 144.891C136.257 143.275 136.257 143.275 136.611 141.43C133.283 140.627 129.944 139.964 126.576 139.354ZM182.163 140.695C181.869 140.757 181.575 140.82 181.271 140.884C180.964 140.95 180.656 141.016 180.339 141.084C180.028 141.15 179.718 141.216 179.398 141.284C178.63 141.448 177.862 141.612 177.095 141.776C178.037 145.243 179.801 148.055 182.934 149.951C183.977 150.496 183.977 150.496 185.053 150.427C185.005 149.079 184.954 147.731 184.902 146.383C184.888 146.001 184.875 145.62 184.861 145.226C184.846 144.857 184.832 144.488 184.817 144.108C184.804 143.769 184.791 143.43 184.778 143.081C184.71 142.159 184.563 141.294 184.361 140.392C183.586 140.392 182.922 140.533 182.163 140.695ZM138.687 141.776C138.54 142.098 138.393 142.42 138.242 142.751C135.882 147.786 132.855 150.193 127.668 152.22C127.429 152.315 127.19 152.409 126.944 152.507C126.36 152.737 125.776 152.966 125.192 153.195C122.877 174.181 121.569 195.271 120.217 216.336C120.116 217.908 120.015 219.48 119.914 221.053C119.889 221.44 119.864 221.828 119.838 222.228C119.473 227.918 119.091 233.606 118.695 239.294C118.67 239.647 118.645 240.001 118.62 240.364C118.387 243.711 118.152 247.057 117.915 250.403C117.83 251.602 117.745 252.802 117.662 254.001C117.623 254.55 117.584 255.098 117.544 255.647C117.49 256.395 117.438 257.144 117.386 257.892C117.356 258.308 117.326 258.723 117.296 259.151C117.22 260.739 117.234 262.331 117.234 263.921C124.77 263.921 132.306 263.921 140.071 263.921C140.613 260.396 141.156 256.87 141.714 253.238C143.634 240.856 145.649 228.491 147.683 216.127C147.796 215.44 147.909 214.753 148.022 214.066C148.098 213.608 148.173 213.151 148.248 212.693C148.656 210.211 149.065 207.729 149.473 205.247C149.545 204.807 149.617 204.368 149.692 203.916C150.984 196.055 152.261 188.192 153.519 180.326C153.651 179.497 153.784 178.669 153.917 177.84C154.119 176.579 154.321 175.318 154.521 174.057C154.627 173.394 154.733 172.732 154.839 172.069C154.9 171.684 154.961 171.299 155.024 170.903C155.077 170.571 155.13 170.238 155.185 169.896C155.312 169.13 155.312 169.13 155.296 168.42C156.232 168.245 157.169 168.072 158.107 167.901C158.37 167.851 158.633 167.802 158.904 167.751C160.375 167.484 161.752 167.324 163.254 167.382C163.254 167.838 163.254 168.295 163.254 168.766C161.313 169.223 159.372 169.679 157.372 170.15C157.604 174.747 158.021 179.304 158.502 183.881C158.582 184.658 158.663 185.435 158.743 186.211C158.915 187.879 159.088 189.546 159.262 191.213C159.707 195.483 160.147 199.754 160.587 204.025C160.661 204.736 160.734 205.448 160.807 206.159C161.596 213.805 162.37 221.452 163.134 229.1C163.16 229.359 163.185 229.617 163.212 229.883C163.719 234.961 164.225 240.039 164.73 245.117C164.941 247.24 165.153 249.364 165.365 251.487C165.493 252.778 165.621 254.07 165.749 255.361C165.827 256.14 165.904 256.919 165.982 257.698C166.016 258.045 166.05 258.392 166.086 258.75C166.118 259.074 166.15 259.397 166.184 259.731C166.211 260.007 166.239 260.284 166.267 260.569C166.401 261.803 166.56 263.035 166.714 264.267C174.251 264.267 181.787 264.267 189.551 264.267C189.557 256.685 189.557 256.685 189.357 249.114C189.335 248.558 189.314 248.002 189.293 247.446C189.237 245.959 189.178 244.473 189.119 242.986C189.056 241.392 188.995 239.797 188.934 238.202C188.815 235.14 188.695 232.078 188.573 229.015C188.476 226.555 188.379 224.094 188.283 221.634C187.621 204.744 186.937 187.856 186.135 170.972C186.117 170.593 186.099 170.214 186.08 169.824C185.979 167.693 185.877 165.563 185.773 163.432C185.743 162.812 185.712 162.192 185.683 161.572C185.597 159.817 185.504 158.063 185.399 156.309C185.368 155.755 185.368 155.755 185.337 155.189C185.314 154.876 185.292 154.563 185.268 154.241C185.242 153.856 185.242 153.856 185.215 153.463C185.084 152.711 185.084 152.711 184.057 152.091C183.636 151.934 183.216 151.778 182.782 151.616C179.086 150.061 177.269 147.5 175.711 143.852C175.479 143.276 175.249 142.699 175.019 142.122C171.806 142.098 168.605 142.171 165.395 142.295C164.953 142.312 164.511 142.328 164.056 142.345C162.981 142.386 161.907 142.427 160.832 142.468C160.406 143.806 160.415 145.152 160.389 146.542C160.382 146.805 160.376 147.068 160.369 147.339C160.349 148.181 160.331 149.023 160.313 149.865C160.231 153.638 160.108 157.39 159.794 161.153C159.337 161.153 158.88 161.153 158.41 161.153C158.41 154.987 158.41 148.821 158.41 142.468C156.033 142.393 156.033 142.393 153.609 142.317C148.634 142.158 143.66 141.976 138.687 141.776ZM153.565 191.257C152.5 197.847 151.435 204.437 150.37 211.028C150.275 211.613 150.275 211.613 150.179 212.21C149.92 213.813 149.661 215.415 149.402 217.018C148.639 221.742 147.875 226.466 147.111 231.19C146.645 234.067 146.18 236.945 145.715 239.822C145.443 241.506 145.171 243.19 144.898 244.874C143.845 251.378 142.8 257.883 141.792 264.394C141.7 264.993 141.607 265.591 141.514 266.19C141.386 267.011 141.26 267.833 141.133 268.654C141.095 268.897 141.058 269.14 141.019 269.39C140.873 270.348 140.763 271.254 140.763 272.226C139.507 272.34 138.251 272.454 136.957 272.572C137.185 277.71 137.413 282.848 137.649 288.142C147.583 288.142 157.517 288.142 167.752 288.142C167.981 284.717 168.209 281.291 168.444 277.762C168.882 274.112 168.882 274.112 169.136 272.572C168.916 272.551 168.695 272.53 168.467 272.508C168.181 272.479 167.895 272.45 167.601 272.42C167.173 272.378 167.173 272.378 166.737 272.335C166.022 272.226 166.022 272.226 165.676 271.879C165.549 270.937 165.443 269.999 165.349 269.053C165.318 268.75 165.287 268.448 165.254 268.136C165.148 267.106 165.045 266.077 164.941 265.047C164.865 264.305 164.789 263.564 164.713 262.822C164.501 260.751 164.291 258.681 164.082 256.61C163.944 255.248 163.805 253.886 163.667 252.524C163.162 247.56 162.659 242.596 162.157 237.631C162.131 237.374 162.105 237.117 162.078 236.853C161.814 234.242 161.55 231.631 161.286 229.019C160.948 225.67 160.609 222.32 160.27 218.97C160.244 218.721 160.219 218.473 160.193 218.217C159.283 209.227 158.342 200.241 157.372 191.257C156.116 191.257 154.86 191.257 153.565 191.257ZM53.566 205.444C52.827 206.552 52.7838 206.728 52.9172 207.974C52.9395 208.23 52.9618 208.485 52.9848 208.749C53.3017 209.891 53.9173 210.716 54.6041 211.672C54.9225 211.513 55.241 211.355 55.5691 211.191C60.1999 208.929 64.7367 207.459 69.937 207.455C70.2151 207.451 70.4932 207.447 70.7798 207.442C72.7378 207.438 74.5117 207.711 76.4033 208.212C76.5745 208.897 76.5745 208.897 76.7493 209.596C76.4768 209.571 76.2042 209.546 75.9234 209.52C69.5449 208.977 62.6367 208.878 57.1235 212.664C55.5329 214.151 55.2485 216.395 55.1664 218.506C55.2494 220.472 55.9003 221.629 57.3073 223.004C59.6303 224.644 61.8659 224.728 64.6386 224.475C69.8389 223.527 74.5835 220.361 78.9984 217.598C82.6639 215.316 85.9408 214.268 90.244 213.748C86.8727 208.032 80.6907 204.772 74.4893 203.023C68.0877 201.516 59.0395 200.979 53.566 205.444ZM5.81539 226.551C3.78865 228.902 3.78865 228.902 2.70122 231.741C3.0527 231.746 3.40418 231.751 3.76631 231.756C9.01747 231.902 12.4121 233.769 16.7353 236.649C20.7507 239.307 25.0652 241.67 30.0367 241.084C32.8756 240.396 35.1343 239.287 36.7963 236.842C37.9077 234.867 38.451 232.963 37.9952 230.703C37.1725 228.823 35.9523 228.368 34.1194 227.628C28.2241 225.338 21.9078 225.212 15.7932 226.67C14.8119 226.897 14.8119 226.897 13.7738 226.897C13.7738 226.44 13.7738 225.984 13.7738 225.513C21.4957 222.9 29.4179 223.587 36.7881 226.879C37.5385 227.196 38.2388 227.42 39.0332 227.589C40.1925 226.237 41.1337 225.106 41.0877 223.264C40.3012 221.167 38.4613 220.226 36.5286 219.332C26.3499 215.142 13.2651 218.769 5.81539 226.551ZM58.3021 238.445C57.0745 240.004 56.6473 241.177 56.6802 243.16C57.0736 243.324 57.467 243.487 57.8723 243.656C65.3733 246.84 72.2702 251.386 76.7493 258.385C76.7493 258.727 76.7493 259.07 76.7493 259.423C75.7264 259.31 75.172 259.234 74.442 258.483C74.2685 258.23 74.095 257.976 73.9163 257.714C69.7954 252.11 62.6227 246.435 55.6421 244.89C53.7668 244.618 52.0211 244.442 50.2923 245.325C48.2344 246.97 47.1586 249.067 46.8403 251.659C47.2932 255.218 49.1901 257.456 51.9062 259.709C55.1142 261.994 58.7413 262.73 62.5625 263.337C69.1984 264.492 74.7022 266.884 80.5555 270.149C81.1385 270.473 81.7215 270.796 82.3045 271.12C82.7596 271.373 83.2147 271.626 83.6697 271.879C83.9818 260.262 81.4244 249.943 73.2743 241.277C70.5118 238.44 67.4879 236.303 63.4276 236.131C61.2791 236.197 59.7465 236.844 58.3021 238.445ZM45.2616 254.925C45.2583 255.238 45.2551 255.552 45.2518 255.875C45.2364 257.059 45.215 258.243 45.1898 259.427C45.1801 259.936 45.1727 260.445 45.1678 260.953C45.1426 263.416 45.1173 265.719 44.2235 268.052C43.2062 270.74 43.2974 273.453 43.2719 276.291C43.2622 276.826 43.2518 277.36 43.2409 277.894C43.1764 281.31 43.1749 284.726 43.1854 288.142C43.9847 288.142 44.7841 288.142 45.6076 288.142C45.6386 287.84 45.6697 287.538 45.7017 287.226C46.6323 278.381 48.1798 270.149 51.4899 261.845C51.2602 261.648 51.0305 261.452 50.7938 261.249C48.6368 259.363 46.7803 257.59 45.6076 254.925C45.4934 254.925 45.3792 254.925 45.2616 254.925ZM116.887 266.343C116.773 267.713 116.659 269.084 116.541 270.495C123.964 270.495 131.386 270.495 139.033 270.495C139.147 269.125 139.261 267.755 139.379 266.343C130.059 266.065 130.059 266.065 120.737 265.954C120.38 265.952 120.023 265.951 119.656 265.949C119.335 265.95 119.015 265.951 118.685 265.951C118.273 265.952 118.273 265.952 117.853 265.952C117.225 265.93 117.225 265.93 116.887 266.343ZM272.207 266.911C271.993 267.108 271.778 267.305 271.558 267.508C271.329 267.723 271.101 267.938 270.866 268.16C270.632 268.38 270.397 268.601 270.156 268.828C264.515 274.219 260.095 280.98 257.025 288.142C259.309 288.142 261.593 288.142 263.946 288.142C264.119 287.695 264.293 287.249 264.471 286.788C266.629 281.373 269.171 276.196 271.817 271.005C271.96 270.725 272.102 270.445 272.249 270.156C272.52 269.623 272.792 269.091 273.066 268.56C273.744 267.341 273.744 267.341 273.98 265.997C273.062 265.997 272.876 266.295 272.207 266.911ZM167.06 266.343C167.174 267.713 167.289 269.084 167.406 270.495C174.828 270.495 182.25 270.495 189.898 270.495C189.898 269.125 189.898 267.755 189.898 266.343C182.361 266.343 174.825 266.343 167.06 266.343ZM255.295 272.572C250.237 279.818 250.237 279.818 248.029 288.142C250.084 288.142 252.139 288.142 254.257 288.142C254.934 282.951 255.472 277.805 255.641 272.572C255.527 272.572 255.413 272.572 255.295 272.572ZM270.196 283.558C267.9 285.603 267.9 285.603 266.714 288.142C268.78 288.467 270.912 288.792 272.942 288.142C274.454 286.921 275.223 285.053 276.041 283.332C276.566 282.278 277.203 281.348 277.873 280.379C278.092 280.053 278.312 279.726 278.538 279.391C278.747 279.081 278.955 278.772 279.17 278.454C279.574 277.849 279.978 277.243 280.381 276.637C280.67 276.205 280.958 275.772 281.247 275.34C277.792 275.34 272.565 281.224 270.196 283.558ZM282.631 284.336C281.829 284.839 281.029 285.344 280.23 285.85C280.002 285.993 279.774 286.135 279.539 286.283C278.29 287.016 278.29 287.016 277.44 288.142C278.645 288.335 279.705 288.415 280.901 288.142C281.823 287.218 282.406 286.197 282.977 285.028C282.862 284.8 282.748 284.571 282.631 284.336Z" fill="black"/>
<path d="M55.9656 76.6876C56.5349 76.6938 57.1042 76.6984 57.6735 76.7014C59.1649 76.7139 60.655 76.7496 62.1459 76.7899C63.6686 76.8266 65.1915 76.8394 66.7145 76.8552C68.9319 76.8826 71.149 76.9161 73.3658 76.9718C73.8116 76.9825 74.2574 76.9932 74.7166 77.0042C75.7117 77.0714 75.7117 77.0714 76.0577 77.4175C76.095 78.2569 76.1098 79.0866 76.1101 79.9264C76.1123 80.3249 76.1123 80.3249 76.1146 80.7315C76.1191 81.6286 76.1212 82.5257 76.1233 83.4228C76.126 84.0632 76.1289 84.7036 76.132 85.3439C76.1382 86.7262 76.1434 88.1085 76.1478 89.4908C76.1548 91.674 76.1643 93.8573 76.1743 96.0406C76.1969 101.069 76.2161 106.098 76.2352 111.127C76.2528 115.735 76.2711 120.342 76.2921 124.95C76.302 127.122 76.3101 129.295 76.317 131.468C76.3217 132.817 76.3277 134.166 76.3341 135.515C76.3368 136.143 76.3389 136.771 76.3404 137.399C76.3424 138.253 76.3466 139.106 76.3513 139.96C76.3514 140.212 76.3515 140.464 76.3516 140.723C76.2613 141.867 76.2613 141.867 76.7497 142.815C77.5129 142.866 78.2775 142.894 79.0421 142.912C79.3858 142.922 79.3858 142.922 79.7364 142.932C80.4709 142.952 81.2054 142.97 81.94 142.988C82.9061 143.011 83.872 143.037 84.8379 143.064C85.2688 143.074 85.6997 143.085 86.1436 143.096C87.1303 143.161 87.1303 143.161 87.4763 143.507C87.5103 144.015 87.5206 144.525 87.5211 145.034C87.5222 145.358 87.5233 145.683 87.5244 146.017C87.5234 146.546 87.5234 146.546 87.5223 147.086C87.5226 147.446 87.523 147.806 87.5233 148.176C87.5235 148.938 87.5229 149.7 87.5214 150.462C87.5196 151.633 87.5214 152.804 87.5236 153.976C87.5234 154.714 87.523 155.452 87.5223 156.191C87.523 156.544 87.5237 156.897 87.5244 157.26C87.5228 157.747 87.5228 157.747 87.5211 158.243C87.5208 158.53 87.5206 158.818 87.5203 159.113C87.4763 159.77 87.4763 159.77 87.1303 160.116C86.3083 160.147 85.4964 160.156 84.6744 160.15C84.3065 160.149 84.3065 160.149 83.9311 160.148C83.1449 160.146 82.3586 160.142 81.5724 160.138C81.0405 160.136 80.5086 160.134 79.9768 160.133C78.6704 160.129 77.3641 160.123 76.0577 160.116C76.0595 160.557 76.0613 160.998 76.0632 161.452C76.0695 163.117 76.0735 164.781 76.0767 166.445C76.0784 167.16 76.0808 167.876 76.0838 168.591C76.0983 172.103 76.1029 175.608 75.905 179.116C75.8915 179.362 75.878 179.608 75.8641 179.862C75.7562 181.525 75.7562 181.525 75.3657 181.915C74.7536 181.951 74.14 181.963 73.5269 181.965C72.9379 181.969 72.9379 181.969 72.3371 181.972C71.9097 181.973 71.4822 181.973 71.0418 181.973C70.6061 181.974 70.1705 181.976 69.7216 181.977C68.7981 181.979 67.8745 181.98 66.951 181.979C65.766 181.979 64.5811 181.984 63.3962 181.99C62.2683 181.995 61.1404 181.995 60.0124 181.995C59.5857 181.997 59.1589 182 58.7192 182.002C58.1287 182.001 58.1287 182.001 57.5262 181.999C57.1784 182 56.8306 182 56.4722 182.001C55.6426 181.915 55.6426 181.915 54.9505 181.223C54.8542 180.352 54.8542 180.352 54.8402 179.239C54.8299 178.615 54.8299 178.615 54.8194 177.979C54.8134 177.304 54.8134 177.304 54.8073 176.614C54.8008 176.15 54.794 175.685 54.787 175.221C54.7692 173.998 54.7555 172.775 54.7426 171.552C54.7288 170.304 54.7111 169.056 54.6937 167.808C54.6602 165.36 54.631 162.911 54.6045 160.462C54.3662 160.461 54.1279 160.46 53.8823 160.459C48.0895 160.43 42.2968 160.399 36.504 160.363C33.7027 160.345 30.9014 160.329 28.1001 160.316C25.6591 160.305 23.2182 160.291 20.7772 160.274C19.4842 160.265 18.1911 160.258 16.898 160.253C15.4563 160.248 14.0146 160.237 12.5728 160.226C12.1418 160.226 11.7107 160.225 11.2666 160.224C10.8755 160.22 10.4844 160.216 10.0815 160.212C9.74017 160.21 9.39888 160.209 9.04726 160.207C8.23798 160.116 8.23798 160.116 7.54594 159.424C7.42779 158.766 7.42779 158.766 7.38501 157.953C7.36855 157.647 7.35209 157.341 7.33513 157.025C7.32218 156.692 7.30923 156.359 7.29589 156.015C7.28239 155.67 7.2689 155.325 7.255 154.969C6.82219 141.482 6.82219 141.482 11.947 135.476C13.2858 133.838 14.4045 132.056 15.5555 130.283C16.0857 129.472 16.6262 128.667 17.1672 127.863C18.504 125.876 19.7979 123.869 21.0507 121.828C22.5417 119.414 24.1096 117.05 25.6687 114.679C28.029 111.089 30.3554 107.482 32.637 103.841C35.1623 99.8234 37.717 95.8238 40.3034 91.8452C41.2675 90.3603 42.2219 88.8695 43.171 87.375C43.4128 86.9949 43.6546 86.6148 43.9038 86.2231C44.3769 85.479 44.849 84.7342 45.32 83.9887C45.5413 83.6409 45.7625 83.2932 45.9905 82.9348C46.1838 82.6298 46.377 82.3248 46.5761 82.0105C46.8275 81.6367 47.079 81.2628 47.3381 80.8777C47.5013 80.5601 47.6645 80.2426 47.8327 79.9154C49.8749 76.4012 52.2991 76.5597 55.9656 76.6876ZM54.9505 101.293C52.7985 104.077 50.9501 107.129 49.025 110.073C48.6989 110.571 48.3729 111.069 48.0468 111.567C47.1177 112.986 46.1897 114.406 45.262 115.826C45.0357 116.172 44.8094 116.518 44.5762 116.875C42.8693 119.487 41.1714 122.105 39.4919 124.736C39.1572 125.26 39.1572 125.26 38.8157 125.794C38.3571 126.513 37.8991 127.233 37.4418 127.953C36.1206 130.026 34.7751 132.079 33.4014 134.117C32.9422 134.803 32.4833 135.489 32.0244 136.175C31.7249 136.62 31.4235 137.064 31.1202 137.507C30.6964 138.125 30.2791 138.748 29.8628 139.371C29.6208 139.727 29.3788 140.084 29.1295 140.451C28.4889 141.517 28.4889 141.517 28.9991 143.161C37.5631 143.161 46.1271 143.161 54.9505 143.161C55.3741 142.314 55.3392 141.77 55.3382 140.823C55.3387 140.475 55.3391 140.128 55.3396 139.77C55.3384 139.387 55.3371 139.005 55.3358 138.611C55.3359 138.209 55.3359 137.807 55.336 137.393C55.3358 136.06 55.3331 134.727 55.3304 133.394C55.3297 132.472 55.3292 131.55 55.3289 130.628C55.3278 128.445 55.325 126.263 55.3215 124.08C55.3176 121.596 55.3157 119.111 55.314 116.627C55.3104 111.515 55.3043 106.404 55.2966 101.293C55.1824 101.293 55.0682 101.293 54.9505 101.293Z" fill="black"/>
<path d="M240.223 86.3496C241.11 86.4145 241.11 86.4145 241.802 87.1065C241.758 87.9716 241.758 87.9716 241.456 88.8366C240.742 89.2908 240.742 89.2908 240.072 89.5287C239.615 89.1861 239.158 88.8435 238.688 88.4906C239.056 86.4394 239.056 86.4394 240.223 86.3496Z" fill="black"/>
<path d="M35.7901 177.503C36.6119 177.763 36.6119 177.763 36.9579 178.109C37.0228 178.952 37.0228 178.952 36.9579 179.839C36.7295 180.067 36.5012 180.296 36.2659 180.531C35.1846 180.401 35.1846 180.401 34.1898 180.185C33.9519 179.385 33.9519 179.385 33.8438 178.455C34.4178 177.498 34.6731 177.397 35.7901 177.503Z" fill="black"/>
<path d="M220.468 193.635C220.787 193.634 221.105 193.632 221.434 193.631C221.962 193.631 221.962 193.631 222.501 193.632C222.873 193.631 223.246 193.63 223.63 193.629C224.886 193.626 226.142 193.625 227.398 193.625C228.295 193.623 229.193 193.621 230.09 193.62C232.534 193.615 234.977 193.613 237.421 193.611C238.946 193.61 240.471 193.609 241.996 193.607C246.218 193.603 250.439 193.599 254.66 193.598C254.93 193.598 255.201 193.598 255.479 193.598C255.885 193.598 255.885 193.598 256.3 193.598C256.849 193.598 257.398 193.598 257.947 193.597C258.356 193.597 258.356 193.597 258.772 193.597C263.186 193.596 267.599 193.59 272.013 193.582C276.542 193.574 281.071 193.569 285.6 193.569C288.144 193.568 290.688 193.566 293.231 193.56C295.623 193.554 298.016 193.554 300.408 193.557C301.287 193.557 302.166 193.556 303.045 193.552C304.243 193.548 305.441 193.55 306.639 193.553C307.164 193.549 307.164 193.549 307.7 193.545C309.835 193.56 311.066 193.811 312.668 195.302C313.887 197.677 312.709 200.817 312.123 203.242C312.02 203.68 311.917 204.118 311.81 204.569C311.525 205.777 311.236 206.983 310.947 208.19C310.702 209.209 310.46 210.229 310.218 211.249C309.334 214.968 308.439 218.684 307.542 222.4C307.465 222.72 307.388 223.04 307.308 223.37C306.167 228.1 305.021 232.829 303.871 237.557C303.628 238.553 303.386 239.549 303.145 240.546C302.761 242.126 302.375 243.705 301.989 245.284C301.847 245.867 301.704 246.451 301.563 247.034C299.524 255.427 299.524 255.427 297.162 257.002C296.155 257.338 295.515 257.392 294.468 257.394C294.125 257.396 293.782 257.398 293.429 257.399C293.051 257.399 292.674 257.399 292.285 257.399C291.884 257.4 291.484 257.401 291.071 257.403C289.958 257.406 288.844 257.408 287.731 257.408C286.531 257.41 285.33 257.413 284.13 257.416C281.231 257.423 278.332 257.426 275.433 257.43C274.068 257.431 272.703 257.433 271.338 257.435C266.8 257.441 262.263 257.446 257.726 257.448C256.548 257.449 255.371 257.449 254.193 257.45C253.901 257.45 253.608 257.45 253.306 257.451C248.565 257.454 243.823 257.462 239.081 257.474C234.213 257.485 229.345 257.491 224.478 257.492C221.744 257.493 219.011 257.496 216.278 257.505C213.95 257.512 211.623 257.515 209.295 257.512C208.108 257.51 206.92 257.511 205.733 257.518C204.445 257.524 203.157 257.521 201.869 257.517C201.495 257.521 201.12 257.524 200.734 257.528C198.543 257.51 197.219 257.261 195.432 255.964C194.197 254.609 194.293 253.251 194.324 251.504C194.394 250.774 194.394 250.774 194.74 250.428C195.381 250.373 196.024 250.341 196.666 250.318C197.25 250.296 197.25 250.296 197.846 250.274C198.255 250.261 198.665 250.247 199.087 250.233C199.498 250.218 199.909 250.203 200.333 250.188C201.352 250.151 202.371 250.116 203.391 250.082C203.569 249.349 203.748 248.616 203.927 247.883C203.985 247.647 204.042 247.411 204.102 247.168C204.435 245.804 204.767 244.439 205.1 243.075C205.788 240.257 206.475 237.438 207.165 234.62C207.565 232.986 207.964 231.352 208.363 229.718C208.444 229.387 208.525 229.057 208.608 228.716C209.715 224.183 210.805 219.646 211.881 215.104C212.301 213.335 212.724 211.565 213.146 209.796C213.547 208.119 213.942 206.441 214.334 204.762C214.578 203.72 214.827 202.68 215.077 201.639C215.191 201.16 215.304 200.681 215.414 200.2C216.447 195.698 216.447 195.698 218.269 194.027C219.083 193.62 219.562 193.636 220.468 193.635ZM218.615 196.795C218.265 197.765 218.265 197.765 218.014 198.901C217.907 199.34 217.8 199.78 217.69 200.233C217.575 200.72 217.461 201.207 217.346 201.694C217.224 202.205 217.1 202.715 216.977 203.226C216.644 204.607 216.315 205.989 215.988 207.372C215.645 208.814 215.298 210.255 214.951 211.696C214.451 213.777 213.952 215.858 213.455 217.939C212.261 222.937 211.05 227.931 209.837 232.924C209.422 234.632 209.008 236.341 208.595 238.049C208.484 238.509 208.372 238.968 208.261 239.427C208.059 240.265 207.856 241.102 207.653 241.939C207.563 242.314 207.472 242.689 207.378 243.076C207.248 243.612 207.248 243.612 207.116 244.16C206.756 245.622 206.38 247.08 206.001 248.538C205.775 249.413 205.775 249.413 205.813 250.428C236.301 250.428 266.788 250.428 298.2 250.428C299.06 247.864 299.06 247.864 299.765 245.281C299.856 244.908 299.947 244.535 300.041 244.15C300.137 243.75 300.232 243.35 300.331 242.938C300.436 242.507 300.541 242.075 300.649 241.631C300.935 240.449 301.22 239.267 301.504 238.084C301.682 237.341 301.861 236.598 302.04 235.855C302.612 233.483 303.182 231.111 303.751 228.738C304.381 226.112 305.013 223.486 305.649 220.861C306.309 218.135 306.966 215.408 307.62 212.68C307.972 211.211 308.326 209.741 308.682 208.273C309.019 206.885 309.353 205.497 309.683 204.108C309.805 203.596 309.929 203.085 310.054 202.573C310.226 201.872 310.392 201.169 310.558 200.466C310.653 200.072 310.747 199.679 310.845 199.273C311.013 198.105 310.959 197.241 310.657 196.103C309.847 195.698 309.374 195.713 308.472 195.711C308.156 195.71 307.841 195.709 307.516 195.707C306.993 195.708 306.993 195.708 306.46 195.708C305.907 195.707 305.907 195.707 305.343 195.705C304.099 195.702 302.856 195.701 301.612 195.701C300.724 195.699 299.836 195.698 298.948 195.696C296.529 195.691 294.111 195.689 291.692 195.687C290.183 195.686 288.674 195.685 287.164 195.683C282.988 195.679 278.812 195.676 274.636 195.674C274.369 195.674 274.101 195.674 273.826 195.674C273.558 195.674 273.29 195.674 273.014 195.674C272.471 195.674 271.927 195.674 271.384 195.674C271.115 195.673 270.845 195.673 270.568 195.673C266.2 195.672 261.832 195.666 257.464 195.658C252.982 195.65 248.501 195.645 244.02 195.645C241.502 195.645 238.985 195.643 236.467 195.636C234.101 195.63 231.734 195.63 229.368 195.633C228.497 195.633 227.626 195.632 226.756 195.628C225.571 195.624 224.387 195.626 223.202 195.629C222.854 195.627 222.506 195.624 222.148 195.621C221.832 195.623 221.516 195.626 221.19 195.628C220.916 195.628 220.643 195.628 220.361 195.627C219.465 195.791 219.169 196.084 218.615 196.795Z" fill="black"/>
<path d="M97.2308 196.577C97.4378 196.649 97.6448 196.72 97.858 196.794C98.0743 197.788 98.0743 197.788 98.204 198.87C97.512 199.562 97.512 199.562 96.6469 199.648C95.7819 199.562 95.7819 199.562 95.0898 198.87C95.1547 198.005 95.1547 198.005 95.4359 197.14C96.4739 196.448 96.4739 196.448 97.2308 196.577Z" fill="black"/>
<path d="M262.215 202.677C264.154 203.984 264.99 205.48 265.986 207.56C266.138 207.867 266.289 208.174 266.446 208.491C266.929 209.47 267.405 210.453 267.881 211.436C268.197 212.081 268.515 212.727 268.832 213.372C269.453 214.634 270.071 215.897 270.687 217.161C271.473 218.771 272.272 220.375 273.076 221.976C274.028 223.87 274.949 225.775 275.839 227.698C277.061 230.311 278.369 232.869 279.736 235.409C282.281 240.152 282.281 240.152 281.938 242.123C281.365 242.991 281.089 243.355 280.208 243.853C278.756 244.117 277.318 244.089 275.846 244.077C275.181 244.082 275.181 244.082 274.504 244.086C273.291 244.094 272.079 244.091 270.866 244.086C269.596 244.081 268.326 244.085 267.056 244.088C264.923 244.091 262.791 244.087 260.658 244.079C258.194 244.069 255.73 244.072 253.265 244.082C251.148 244.09 249.031 244.091 246.914 244.086C245.65 244.084 244.386 244.083 243.122 244.089C241.713 244.095 240.304 244.087 238.895 244.077C238.268 244.082 238.268 244.082 237.628 244.088C234.482 244.048 234.482 244.048 233.417 243.026C232.754 242.05 232.457 241.572 232.457 240.393C233.107 238.66 233.906 237.287 235.009 235.787C235.158 235.582 235.308 235.377 235.462 235.165C235.787 234.72 236.113 234.275 236.439 233.831C237.157 232.851 237.867 231.865 238.577 230.88C239.148 230.087 239.72 229.296 240.292 228.504C241.43 226.931 242.566 225.358 243.703 223.784C244.077 223.265 244.452 222.746 244.827 222.227C245.013 221.97 245.198 221.713 245.389 221.449C245.952 220.67 246.514 219.891 247.076 219.113C247.262 218.856 247.448 218.599 247.639 218.334C248.013 217.816 248.386 217.299 248.76 216.782C249.716 215.459 250.67 214.136 251.623 212.812C252.559 211.511 253.498 210.212 254.439 208.915C254.767 208.464 255.093 208.012 255.419 207.56C255.837 206.983 256.257 206.409 256.678 205.834C257.021 205.365 257.021 205.365 257.37 204.886C258.831 203.146 259.888 202.31 262.215 202.677ZM257.37 215.134C256.47 218.416 256.474 222.12 256.332 225.514C256.314 225.944 256.295 226.373 256.276 226.816C256.266 227.214 256.256 227.612 256.246 228.023C256.237 228.374 256.228 228.726 256.219 229.088C256.352 230.171 256.595 230.636 257.37 231.397C258.581 231.627 258.581 231.627 259.793 231.397C260.802 230.37 261.024 229.429 261.235 228.028C261.294 227.639 261.353 227.25 261.414 226.849C261.472 226.437 261.529 226.025 261.588 225.601C261.647 225.181 261.706 224.762 261.767 224.33C262.46 219.738 262.46 219.738 262.215 215.134C261.417 214.105 261.087 213.792 259.793 213.577C258.499 213.792 258.182 214.119 257.37 215.134ZM256.051 235.073C255.208 235.988 254.948 236.386 254.948 237.625C255.343 238.415 255.706 239.075 256.332 239.701C258.13 239.873 258.13 239.873 259.771 239.312C260.308 238.365 260.463 237.679 260.485 236.587C259.821 235.392 259.372 234.955 258.084 234.489C256.99 234.426 256.99 234.426 256.051 235.073Z" fill="black"/>
<path d="M318.443 229.233C319.308 229.32 319.308 229.32 320 230.012C319.87 231.093 319.87 231.093 319.654 232.088C318.854 232.304 318.854 232.304 317.924 232.434C317.581 232.206 317.239 231.977 316.886 231.742C316.778 230.877 316.778 230.877 316.886 230.012C317.578 229.32 317.578 229.32 318.443 229.233Z" fill="black"/>
</svg>
