<svg width="306" height="220" viewBox="0 0 306 220" fill="none" xmlns="http://www.w3.org/2000/svg">
<g clip-path="url(#clip0_246_3164)">
<path d="M171.508 0.000383447C171.781 0.433658 172.052 0.86898 172.307 1.31308C172.887 2.0458 173.547 2.42522 174.342 2.90941C178.081 5.20288 180.706 8.13854 181.996 12.4122C181.996 12.7194 181.996 13.0266 181.996 13.3431C182.258 13.4187 182.519 13.4943 182.789 13.5722C183.951 14.0024 184.939 14.5823 185.967 15.2631C186.156 15.3874 186.344 15.5118 186.538 15.6399C190.381 18.2163 190.381 18.2163 191.038 20.0727C190.942 21.1005 190.942 21.1005 190.275 21.7744C188.721 22.7807 187.175 22.5623 185.389 22.3417C183.608 21.9391 181.875 21.3737 180.145 20.7902C178.97 22.9988 178.105 25.2269 177.311 27.5973C176.429 30.1435 175.461 32.582 174.207 34.9669C174.022 35.3199 174.022 35.3199 173.833 35.6801C172.762 37.6468 171.524 39.3644 169.657 40.6492C169.352 40.6492 169.046 40.6492 168.732 40.6492C168.732 40.854 168.732 41.0588 168.732 41.2698C168.972 41.2942 169.213 41.3186 169.461 41.3437C170.976 41.6629 172.312 42.2538 173.725 42.8794C174.034 43.0153 174.342 43.1511 174.66 43.2911C180.876 46.0792 186.84 49.4377 192.792 52.7507C193.066 52.9031 193.34 53.0555 193.622 53.2125C195.198 54.0903 196.772 54.9708 198.345 55.8537C198.356 55.6203 198.367 55.387 198.379 55.1465C198.551 52.3228 199.019 49.5981 199.598 46.8357C199.645 46.6078 199.692 46.38 199.741 46.1452C204.638 22.6238 204.638 22.6238 212.307 16.1734C214.135 14.9868 215.976 14.9974 218.087 15.2049C221.732 16.0697 225.481 19.021 227.515 22.155C228.844 24.5084 229.113 26.4594 228.883 29.1682C228.597 30.1376 228.311 30.5341 227.649 31.3403C227.337 31.4555 227.026 31.5707 226.705 31.6894C225.719 32.1827 225.719 32.1827 225.528 33.1681C225.387 33.8909 225.247 34.6141 225.11 35.3378C224.785 36.6626 224.448 37.1074 223.331 37.8565C222.559 38.1668 222.559 38.1668 221.788 38.1668C220.662 37.6541 219.966 37.0548 219.321 35.9947C219.321 35.7899 219.321 35.5851 219.321 35.3741C218.608 35.4765 217.895 35.5789 217.161 35.6844C217.263 35.9916 217.365 36.2988 217.47 36.6153C218.141 41.7176 218.152 46.915 218.164 52.0526C218.165 52.3278 218.167 52.603 218.169 52.8865C218.206 61.0786 218.206 61.0786 217.161 64.2317C217.474 64.1361 217.786 64.0406 218.108 63.9422C219.799 63.4573 221.528 63.2629 223.268 63.034C223.885 62.9523 224.502 62.8667 225.119 62.7808C229.623 62.1786 229.623 62.1786 231.659 62.3699C232.152 62.8651 232.016 63.3791 232.019 64.0637C232.002 65.684 231.773 67.1983 231.45 68.7819C231.396 69.054 231.343 69.3261 231.288 69.6065C231.119 70.4659 230.946 71.3244 230.772 72.183C230.659 72.7607 230.545 73.3385 230.431 73.9163C229.963 76.2879 229.482 78.6455 228.883 80.9877C229.066 80.9241 229.248 80.8605 229.436 80.795C229.68 80.7114 229.924 80.6278 230.175 80.5416C230.415 80.4588 230.654 80.376 230.901 80.2907C234.188 79.2762 238.355 79.2865 241.53 80.6774C245.238 82.7399 247.9 86.0052 250.148 89.5402C250.36 89.8674 250.573 90.1945 250.791 90.5316C251.409 91.4854 252.022 92.4422 252.635 93.3995C252.941 93.8721 253.248 94.3445 253.554 94.8165C254.239 95.8716 254.918 96.9306 255.593 97.9917C255.897 98.4687 256.202 98.9454 256.507 99.4217C261.171 106.707 265.61 114.127 269.909 121.636C270.104 121.977 270.3 122.318 270.501 122.669C273.377 127.697 276.209 132.748 278.99 137.83C279.304 138.4 279.623 138.967 279.948 139.53C280.09 139.779 280.232 140.028 280.379 140.285C280.504 140.499 280.629 140.714 280.758 140.936C281.014 141.495 281.014 141.495 280.937 142.349C280.189 143.316 279.303 144.005 278.238 144.598C278.034 144.598 277.831 144.598 277.621 144.598C277.883 145.019 277.883 145.019 278.15 145.448C278.379 145.818 278.607 146.187 278.836 146.557C278.951 146.742 279.066 146.926 279.184 147.117C279.684 147.927 280.096 148.655 280.397 149.563C280.592 149.533 280.787 149.502 280.987 149.471C283.024 149.153 285.061 148.836 287.098 148.52C287.857 148.402 288.616 148.283 289.375 148.165C290.469 147.994 291.563 147.824 292.658 147.654C292.994 147.601 293.331 147.549 293.677 147.494C296.199 147.104 298.682 146.722 301.238 146.751C301.557 146.754 301.875 146.757 302.203 146.76C302.556 146.765 304.149 146.557 305.383 147.494C306.237 150.107 306 152.278 302.915 154.528C299.368 157.476 295.983 159.602 292.482 161.645C290.404 162.866 288.428 164.224 286.453 165.605C285.499 166.269 284.535 166.92 283.573 167.572C282.224 168.49 280.882 169.418 279.546 170.355C278.78 170.89 278.012 171.421 277.242 171.952C276.883 172.201 276.524 172.453 276.168 172.707C275.679 173.055 275.185 173.395 274.691 173.735C274.414 173.929 274.137 174.123 273.852 174.323C272.722 174.816 272.015 174.682 270.835 174.387C268.207 171.826 267.075 167.139 266.246 163.662C265.527 160.776 264.141 158.236 262.506 155.769C262.283 155.974 262.061 156.179 261.831 156.39C260.87 157.078 260.564 157.189 259.421 157.01C258.878 156.45 258.878 156.45 258.394 155.675C258.13 155.259 258.13 155.259 257.86 154.835C257.682 154.541 257.504 154.248 257.32 153.946C257.136 153.655 256.951 153.364 256.761 153.065C255.411 150.907 255.411 150.907 255.411 150.184C253.884 150.184 252.357 150.184 250.784 150.184C250.829 150.729 250.874 151.273 250.92 151.835C251.446 158.246 251.97 164.658 252.491 171.069C252.589 172.266 252.686 173.462 252.784 174.658C253.061 178.059 253.337 181.46 253.611 184.86C253.733 186.365 253.854 187.869 253.977 189.373C254.093 190.799 254.208 192.224 254.323 193.65C254.365 194.175 254.408 194.701 254.451 195.226C254.51 195.949 254.568 196.672 254.626 197.395C254.658 197.8 254.691 198.206 254.725 198.623C254.801 199.954 254.794 201.29 254.794 202.624C266.195 202.624 277.596 202.624 289.343 202.624C289.445 203.033 289.546 203.443 289.651 203.865C289.034 204.486 289.034 204.486 288.339 204.563C287.901 204.563 287.901 204.563 287.454 204.562C287.119 204.564 286.784 204.565 286.439 204.566C285.886 204.564 285.886 204.564 285.321 204.561C284.934 204.562 284.547 204.562 284.148 204.563C283.084 204.564 282.02 204.562 280.957 204.559C279.845 204.556 278.733 204.557 277.622 204.557C275.755 204.556 273.888 204.554 272.021 204.549C269.86 204.545 267.7 204.543 265.539 204.543C263.463 204.543 261.387 204.542 259.311 204.539C258.427 204.538 257.542 204.538 256.658 204.537C255.423 204.537 254.189 204.534 252.955 204.531C252.586 204.531 252.217 204.531 251.837 204.531C251.502 204.53 251.168 204.528 250.823 204.527C250.531 204.527 250.238 204.526 249.938 204.525C249.242 204.486 249.242 204.486 248.625 204.175C248.625 204.38 248.625 204.585 248.625 204.796C248.839 204.827 249.054 204.858 249.275 204.89C250.327 205.145 251.153 205.567 252.11 206.078C252.384 206.225 252.384 206.225 252.664 206.374C253.05 206.582 253.436 206.79 253.821 206.999C254.401 207.313 254.983 207.622 255.566 207.93C259.09 209.819 263.279 212.256 264.665 216.277C264.877 218.644 264.877 218.644 264.357 219.69C261.76 220.384 258.888 219.881 256.25 219.64C255.759 219.597 255.268 219.554 254.777 219.511C249.614 219.049 244.47 218.429 239.327 217.783C238.352 217.662 237.377 217.542 236.402 217.423C233.601 217.079 230.8 216.725 228.001 216.362C227.342 216.277 226.684 216.193 226.026 216.109C224.808 215.953 223.592 215.79 222.376 215.626C221.835 215.557 221.835 215.557 221.283 215.487C220.79 215.418 220.79 215.418 220.288 215.348C220.002 215.31 219.717 215.272 219.423 215.233C218.608 215.009 218.284 214.778 217.778 214.105C217.279 210.946 218.201 207.522 218.704 204.486C186.333 204.486 153.962 204.486 120.611 204.486C120.611 204.486 118.084 204.486 118.143 204.486C117.807 204.486 117.807 204.486 117.463 204.486C104.182 204.5 90.9013 204.511 77.6202 204.517C76.027 204.518 74.4339 204.519 72.8407 204.52C72.5235 204.52 72.2063 204.52 71.8796 204.52C66.7376 204.523 61.5956 204.528 56.4537 204.533C51.1812 204.539 45.9087 204.543 40.6362 204.544C37.3803 204.545 34.1245 204.547 30.8687 204.553C28.6388 204.556 26.409 204.557 24.1791 204.556C22.8908 204.556 21.6026 204.556 20.3143 204.56C19.1365 204.563 17.9588 204.563 16.781 204.561C16.3534 204.56 15.9257 204.561 15.4981 204.563C14.9199 204.566 14.3416 204.564 13.7634 204.562C13.4412 204.562 13.1191 204.562 12.7873 204.563C12.0303 204.486 12.0302 204.486 11.4133 203.865C11.5151 203.455 11.6169 203.046 11.7218 202.624C16.0989 202.521 20.4761 202.419 24.9859 202.313C24.3751 201.085 23.7644 199.856 23.1351 198.59C22.7839 197.703 22.4527 196.835 22.1518 195.933C22.0754 195.707 21.999 195.481 21.9203 195.249C21.7048 194.605 21.4941 193.96 21.2843 193.315C21.1817 193.011 21.0791 192.707 20.9734 192.394C19.5183 187.676 19.6763 182.255 21.7132 177.747C23.0234 175.431 24.8504 173.303 27.4536 172.525C29.7756 171.944 31.5359 172.305 33.623 173.456C34.452 174.077 34.452 174.077 34.8569 174.697C34.8075 175.306 34.8075 175.306 34.5484 175.938C33.9869 176.358 33.9869 176.358 33.276 176.753C29.3959 179.231 28.0566 184.091 27.0777 188.37C26.7336 190.004 26.591 191.647 26.5282 193.315C26.8336 193.315 27.139 193.315 27.4536 193.315C27.4375 192.775 27.4375 192.775 27.4211 192.224C27.4225 190.91 27.641 189.695 27.9742 188.428C28.0575 188.106 28.0575 188.106 28.1425 187.777C29.1605 183.988 30.6647 180.146 33.911 177.75C34.9186 177.338 35.9363 177.288 37.0161 177.179C37.1175 170.666 37.1175 170.666 36.7462 164.166C36.722 163.91 36.6978 163.654 36.6729 163.39C36.5147 161.927 36.2243 160.586 35.7823 159.182C35.6582 159.442 35.6582 159.442 35.5316 159.706C33.7536 163.189 31.1859 165.277 27.5307 166.552C22.4579 168.177 17.2534 167.271 12.6088 164.865C9.40739 163.127 6.84915 160.871 4.32789 158.265C2.9817 156.879 1.57825 155.645 0 154.528C0.323605 152.417 2.48171 151.258 4.07033 150.063C10.913 145.166 19.9097 141.543 28.379 141.185C28.5969 141.173 28.8148 141.16 29.0393 141.148C32.4604 141.042 36.2384 141.478 38.8404 143.909C40.0742 145.3 40.5309 146.383 40.4924 148.305C40.349 149.405 39.9002 149.984 39.1754 150.804C37.1529 152.356 37.1529 152.356 35.7823 152.356C36.3787 154.334 36.9829 156.303 37.6716 158.251C39.1261 162.706 38.9103 167.136 38.7845 171.763C38.7622 172.635 38.7494 173.507 38.738 174.38C38.7281 174.647 38.7182 174.915 38.708 175.191C38.7021 175.888 38.7065 176.501 38.8669 177.179C39.5838 177.829 39.5838 177.829 40.4093 178.11C40.5111 178.213 40.6129 178.315 40.7177 178.421C40.7468 175.681 40.7738 172.987 40.4165 170.263C40.4091 169.397 40.6036 168.74 40.8599 167.92C41.2337 166.414 41.2886 164.837 41.4311 163.294C42.2038 155.745 44.217 149.327 49.0464 143.357C48.6169 143.021 48.6169 143.021 48.1788 142.678C47.094 141.75 46.3723 141.01 46.1726 139.532C46.0904 137.751 46.2738 136.654 47.504 135.29C50.0423 132.974 53.4045 132.381 56.7436 132.431C66.0709 133.081 74.0295 138.033 80.4149 144.705C83.4823 148.255 86.221 152.148 86.0625 157.01C85.9607 157.113 85.8589 157.215 85.754 157.321C83.6675 157.208 81.6943 156.733 79.675 156.222C79.353 156.142 79.353 156.142 79.0244 156.06C78.8353 156.012 78.6462 155.963 78.4513 155.913C76.1791 155.456 73.9878 155.429 71.679 155.461C70.9771 155.467 70.2752 155.472 69.5733 155.477C68.4797 155.487 67.3861 155.497 66.2925 155.512C54.1748 155.663 54.1748 155.663 50.2212 152.048C49.2668 150.986 48.53 149.868 47.8125 148.632C44.997 153.636 43.2683 159.6 43.494 165.388C44.5119 165.286 45.5298 165.183 46.5786 165.078C46.6359 164.656 46.6931 164.233 46.7521 163.798C47.0729 162.39 47.538 161.673 48.6921 160.822C51.9618 158.855 55.6832 158.655 59.3716 159.398C65.3559 161.247 69.6185 165.945 72.5249 171.352C75.1263 176.434 76.2462 181.776 76.2494 187.458C76.2531 187.82 76.2569 188.182 76.2608 188.555C76.2614 188.904 76.262 189.253 76.2626 189.613C76.2639 189.929 76.2652 190.245 76.2665 190.571C76.1882 191.493 75.9591 192.169 75.5746 193.005C74.3357 192.818 73.5603 192.173 72.567 191.434C66.9707 187.433 57.4805 183.075 50.5887 183.075C46.9594 189.477 45.5934 195.167 44.1109 202.624C57.3442 202.624 70.5774 202.624 84.2117 202.624C84.2117 201.6 84.2117 200.576 84.2117 199.521C84.2561 198.724 84.3105 197.927 84.3756 197.132C84.3933 196.912 84.4109 196.693 84.4291 196.467C84.4876 195.742 84.5478 195.018 84.6081 194.294C84.6508 193.77 84.6933 193.246 84.7358 192.723C84.8269 191.6 84.9189 190.478 85.0115 189.356C85.1579 187.582 85.3025 185.807 85.4468 184.032C85.6753 181.226 85.9049 178.42 86.1351 175.615C86.5476 170.586 86.9586 165.557 87.3684 160.528C87.5122 158.764 87.6567 157 87.8018 155.236C87.8918 154.14 87.9813 153.043 88.0707 151.947C88.1123 151.439 88.1541 150.931 88.1961 150.423C88.2534 149.729 88.3099 149.035 88.3663 148.342C88.3981 147.954 88.43 147.566 88.4628 147.166C88.4962 146.663 88.4962 146.663 88.5302 146.15C88.5515 145.865 88.5728 145.579 88.5947 145.286C88.5975 144.481 88.5975 144.481 87.6627 143.823C87.4937 143.693 87.3247 143.563 87.1506 143.429C85.6132 142.183 85.393 140.255 85.1371 138.392C85.1371 137.983 85.1371 137.573 85.1371 137.151C84.8254 137.183 84.5136 137.215 84.1924 137.248C82.0325 137.237 80.0397 136.345 78.0423 135.6C77.7803 135.505 77.5184 135.41 77.2484 135.313C76.4113 135.008 75.5782 134.695 74.7456 134.378C74.4799 134.281 74.2142 134.185 73.9404 134.085C72.3208 133.451 71.3977 132.916 70.6391 131.256C70.4969 130.281 70.4969 130.281 70.5234 129.316C70.5274 128.995 70.5314 128.673 70.5355 128.342C70.6391 127.532 70.6391 127.532 71.256 126.912C71.8923 126.837 71.8923 126.837 72.6853 126.841C72.9817 126.841 73.2781 126.841 73.5834 126.841C73.9041 126.844 74.2248 126.848 74.5552 126.851C74.883 126.852 75.2108 126.853 75.5485 126.854C76.5983 126.857 77.648 126.865 78.6978 126.873C79.4084 126.876 80.1189 126.879 80.8294 126.881C82.5738 126.888 84.3181 126.898 86.0625 126.912C86.005 126.502 86.005 126.502 85.9463 126.085C85.5236 123 85.2001 119.913 84.913 116.812C84.8655 116.306 84.818 115.8 84.7704 115.295C84.6719 114.245 84.5739 113.196 84.4765 112.147C84.3516 110.802 84.2254 109.457 84.0989 108.112C84.0012 107.072 83.9039 106.033 83.8068 104.993C83.7604 104.496 83.7139 104 83.6673 103.504C83.6027 102.814 83.5386 102.124 83.4747 101.435C83.4382 101.043 83.4017 100.651 83.3641 100.248C83.2863 99.2952 83.2863 99.2952 83.2863 98.3643C82.8877 98.3675 82.4891 98.3708 82.0785 98.3741C80.6034 98.3853 79.1283 98.3925 77.6531 98.3984C77.014 98.4015 76.3749 98.4057 75.7358 98.4111C74.8185 98.4186 73.9013 98.4221 72.984 98.4249C72.697 98.4281 72.41 98.4313 72.1144 98.4346C71.7161 98.4346 71.7161 98.4346 71.3098 98.4347C70.9584 98.4368 70.9584 98.4368 70.5999 98.4389C70.0222 98.3643 70.0222 98.3643 69.4052 97.7437C69.2835 97.0919 69.2835 97.0919 69.2209 96.2855C69.1966 95.9892 69.1723 95.6929 69.1472 95.3877C69.1242 95.0708 69.1012 94.7539 69.0775 94.4274C69.0521 94.1045 69.0267 93.7816 69.0005 93.4489C68.9269 92.5018 68.8573 91.5544 68.7883 90.6069C68.7527 90.1442 68.7169 89.6816 68.6811 89.219C68.3074 84.1 68.3074 84.1 68.4798 82.5392C69.0968 81.9186 69.0968 81.9186 70.3278 81.8481C70.8597 81.8482 71.3917 81.8517 71.9236 81.858C72.3434 81.8593 72.3434 81.8593 72.7716 81.8606C73.6674 81.8641 74.5631 81.8719 75.4589 81.8798C76.0654 81.8829 76.6719 81.8857 77.2784 81.8883C78.767 81.8951 80.2554 81.9058 81.744 81.9186C81.744 81.2018 81.744 80.485 81.744 79.7465C81.3886 79.7966 81.0333 79.8467 80.6672 79.8984C79.3612 80.0619 78.0775 80.1068 76.7627 80.1089C76.5348 80.1099 76.307 80.111 76.0723 80.112C75.5959 80.1136 75.1194 80.1143 74.643 80.1143C73.912 80.115 73.1811 80.1206 72.4502 80.1265C71.9854 80.1274 71.5207 80.128 71.056 80.1283C70.8375 80.1305 70.6191 80.1328 70.394 80.1351C68.8589 80.1278 68.8589 80.1278 68.1714 79.4362C68.052 78.6455 67.9684 77.8805 67.9087 77.0847C67.889 76.848 67.8694 76.6112 67.8491 76.3673C67.8079 75.8634 67.768 75.3595 67.7295 74.8554C67.6713 74.0992 67.6084 73.3436 67.5448 72.5879C67.4269 71.1481 67.3279 69.7079 67.246 68.2655C67.2335 68.0466 67.221 67.8277 67.2082 67.6021C67.178 66.9978 67.1598 66.3929 67.1423 65.788C67.1266 65.2782 67.1266 65.2782 67.1106 64.758C67.246 63.9214 67.246 63.9214 67.7043 63.412C68.8255 62.8026 69.9087 62.8542 71.1523 62.8563C71.4225 62.8532 71.6926 62.85 71.971 62.8468C72.8694 62.8374 73.7677 62.8345 74.6661 62.8317C75.3002 62.8265 75.9342 62.8208 76.5683 62.8148C78.2484 62.8001 79.9286 62.7909 81.6087 62.7827C83.2713 62.7737 84.9338 62.7591 86.5963 62.7451C94.3357 62.6828 102.075 62.6659 109.815 62.6802C109.834 62.4475 109.854 62.2147 109.875 61.9749C109.901 61.6688 109.928 61.3626 109.955 61.0471C109.982 60.744 110.008 60.4409 110.035 60.1285C110.679 53.8451 114.289 47.4605 119.069 43.4418C124.848 39.4665 132.24 37.7221 139.176 37.4699C139.518 37.4533 139.86 37.4368 140.213 37.4197C140.897 37.3883 141.582 37.3679 142.267 37.36C144.107 37.2721 144.107 37.2721 145.652 36.354C146.222 35.6405 146.69 34.9283 147.139 34.133C147.31 33.8359 147.31 33.8359 147.485 33.5329C149.774 29.3081 149.774 29.3081 150.436 24.7598C150.221 24.1479 150.221 24.1479 149.761 23.4277C148.815 21.8408 148.8 20.1164 148.99 18.3079C149.388 16.9081 149.783 15.818 151.002 14.9807C152.083 13.981 152.137 13.034 152.364 11.6171C153.05 8.04905 154.36 5.04724 157.319 2.79305C160.197 1.13605 162.931 0.518102 166.206 0.620976C166.722 0.636814 167.238 0.649865 167.755 0.659763C168.092 0.670563 168.092 0.670563 168.436 0.681581C169.699 0.554847 170.13 -0.270035 171.508 0.000383447ZM156.702 5.89601C155.392 7.67691 154.791 9.67272 154.234 11.7916C155.179 11.7471 156.123 11.7017 157.068 11.6559C157.329 11.6437 157.589 11.6315 157.858 11.6189C159.346 11.546 160.828 11.4474 162.313 11.3201C164.632 11.137 166.947 11.0971 169.272 11.0935C169.595 11.0924 169.595 11.0924 169.924 11.0913C173.205 11.0871 176.334 11.2889 179.528 12.1019C179.148 9.41008 177.109 7.25707 175.107 5.55178C169.748 1.73116 161.621 0.657436 156.702 5.89601ZM161.637 13.0328C162.403 14.5743 165.616 15.286 167.19 15.8255C169.194 16.4096 171.24 16.8178 173.282 17.2412C174.37 17.4743 175.458 17.7111 176.546 17.9491C176.939 18.0345 176.939 18.0345 177.339 18.1217C179.621 18.6245 181.864 19.2314 184.086 19.96C185.702 20.4716 187.086 20.5455 188.782 20.4799C187.294 17.2204 182.671 15.2867 179.528 13.9637C176.269 12.7882 173.013 12.6691 169.58 12.6837C169.241 12.6843 168.901 12.6849 168.552 12.6856C166.234 12.698 163.942 12.7746 161.637 13.0328ZM152.132 16.3103C151.092 17.4766 150.881 18.4742 150.744 20.0145C150.885 21.5998 151.347 22.5519 152.479 23.6605C153.354 24.2331 154.158 24.5429 155.159 24.8241C155.057 25.1313 154.956 25.4385 154.851 25.755C154.138 25.755 153.426 25.755 152.692 25.755C152.624 25.925 152.556 26.095 152.487 26.2701C152.274 26.8045 152.061 27.3386 151.847 27.8725C151.572 28.5691 151.303 29.2684 151.04 29.9694C149.717 33.4613 148.368 36.8218 145.288 39.0977C145.681 41.6916 147.485 43.3725 149.431 44.9994C151.838 46.7748 155.116 48.8845 158.244 48.4066C159.976 47.4423 160.54 45.7899 161.29 44.043C161.482 43.6192 161.482 43.6192 161.678 43.1867C162.452 41.6501 162.452 41.6501 162.254 40.0286C161.681 39.5268 161.681 39.5268 160.982 39.0395C157.59 36.4613 157.59 36.4613 157.106 34.5233C157.059 34.1765 157.059 34.1765 157.01 33.8227C157.621 33.6691 157.621 33.6691 158.244 33.5124C158.396 33.738 158.396 33.738 158.551 33.9681C160.092 36.1528 162.342 37.626 163.488 37.8565C169.281 39.0221 170.583 35.5293 169.098 38.6904C173.486 34.8691 175.362 27.7996 177.112 22.4687C177.379 21.6915 177.677 20.9309 177.986 20.1696C176.917 19.7068 175.912 19.4114 174.769 19.2036C174.449 19.1434 174.129 19.0833 173.8 19.0213C173.464 18.9587 173.127 18.896 172.78 18.8315C170.08 18.3149 167.532 17.6925 164.966 16.7006C164.06 16.4329 163.712 16.3431 162.871 16.7564C162.231 17.378 162.231 17.378 161.637 18.1333C160.303 19.7658 160.303 19.7658 159.169 20.1696C158.167 20.0533 158.167 20.0533 157.319 19.8593C157.266 19.6685 157.214 19.4777 157.159 19.2812C156.717 17.7523 156.717 17.7523 155.853 16.4461C154.49 15.8365 153.474 15.5603 152.132 16.3103ZM210.683 20.7902C210.068 21.7363 209.539 22.7134 209.025 23.7186C208.881 24.0003 208.737 24.2819 208.588 24.572C202.774 36.2622 200.719 49.4816 199.579 62.3699C199.171 62.2675 198.764 62.1651 198.345 62.0596C198.243 60.6261 198.141 59.1925 198.036 57.7155C196.713 57.1011 195.39 56.4867 194.026 55.8537C193.974 56.3077 193.921 56.7617 193.867 57.2294C193.417 60.9786 192.827 64.6139 191.867 68.2655C195.127 68.1059 198.309 67.6083 201.525 67.072C202.385 66.9288 203.246 66.7888 204.107 66.6492C207.763 66.0499 211.385 65.3427 215.002 64.542C217.031 57.5822 216.322 49.752 215.976 42.5947C215.945 41.9471 215.917 41.2994 215.892 40.6515C215.858 39.8349 215.809 39.021 215.754 38.2056C215.746 37.9699 215.739 37.7342 215.731 37.4913C215.692 36.7363 215.692 36.7363 215.31 35.6844C214.715 35.1989 214.109 34.8488 213.434 34.4854C212.621 34.0007 212.316 33.4605 211.937 32.6009C211.818 32.3333 211.7 32.0657 211.578 31.79C211.26 30.9202 211.064 30.0926 210.992 29.1682C211.501 29.1682 212.01 29.1682 212.534 29.1682C212.587 29.3518 212.639 29.5354 212.693 29.7246C213.145 31.2063 213.545 32.4229 214.694 33.5124C215.656 33.9306 215.656 33.9306 216.544 34.133C216.481 33.927 216.418 33.721 216.353 33.5087C216.27 33.2347 216.187 32.9607 216.101 32.6784C216.019 32.4085 215.936 32.1385 215.852 31.8603C215.484 30.5467 215.272 29.336 215.28 27.9695C215.282 27.557 215.282 27.557 215.283 27.1361C215.287 26.7117 215.287 26.7117 215.291 26.2786C215.293 25.9896 215.294 25.7006 215.295 25.4029C215.299 24.6927 215.304 23.9827 215.31 23.2726C215.718 23.2726 216.125 23.2726 216.544 23.2726C216.567 23.7952 216.567 23.7952 216.59 24.3283C216.685 29.0613 216.685 29.0613 218.704 33.2021C218.907 33.2021 219.111 33.2021 219.321 33.2021C219.653 31.5127 219.728 29.8367 219.803 28.121C219.823 27.6896 219.823 27.6896 219.843 27.2495C219.875 26.5445 219.907 25.8395 219.938 25.1344C220.345 25.032 220.752 24.9296 221.171 24.8241C221.518 27.4883 221.45 29.8582 220.99 32.4977C220.806 33.7348 220.76 34.4734 221.464 35.5402C221.673 35.7926 221.882 36.045 222.097 36.305C223.144 35.4912 223.4 34.4587 223.639 33.2021C223.753 31.9685 223.795 30.7359 223.832 29.4979C223.844 29.1673 223.856 28.8367 223.868 28.4961C223.897 27.6859 223.923 26.8756 223.948 26.0653C224.355 26.0653 224.762 26.0653 225.181 26.0653C225.487 28.062 225.487 28.062 225.798 30.0991C227.044 29.0574 227.044 29.0574 227.207 28.167C227.202 25.2906 226.166 23.2735 224.217 21.1975C221.96 19.0589 219.403 17.2519 216.255 16.9503C213.655 17.0398 212.175 18.8652 210.683 20.7902ZM118.143 47.1654C117.952 47.3482 117.761 47.531 117.564 47.7193C109.193 56.2901 110.129 73.261 109.815 84.4009C111.519 84.2743 113.2 84.1113 114.881 83.7997C120.932 82.6877 126.794 82.6282 132.95 82.5392C133.153 75.4737 133.357 68.4083 133.567 61.1287C134.076 61.0263 134.584 60.9239 135.109 60.8184C135.036 63.8474 134.961 66.8764 134.884 69.9053C134.848 71.3116 134.813 72.7179 134.779 74.1243C134.746 75.4803 134.712 76.8364 134.677 78.1924C134.664 78.7109 134.651 79.2294 134.639 79.7479C134.622 80.4717 134.603 81.1954 134.584 81.9191C134.579 82.1356 134.574 82.3521 134.569 82.5752C134.527 84.0553 134.527 84.0553 134.183 84.4009C133.267 84.5033 132.351 84.6057 131.407 84.7112C131.407 87.476 131.407 90.2407 131.407 93.0892C134.048 93.4149 136.69 93.7389 139.331 94.0602C140.558 94.2095 141.785 94.3595 143.012 94.511C144.198 94.6575 145.384 94.8022 146.57 94.9456C147.02 95.0004 147.471 95.0558 147.921 95.1119C152.529 95.7827 152.529 95.7827 157.061 95.0504C157.388 94.9412 157.714 94.832 158.051 94.7195C158.382 94.6039 158.713 94.4883 159.054 94.3692C164.969 92.3596 164.969 92.3596 168.269 92.4299C168.523 92.4327 168.777 92.4355 169.038 92.4383C169.656 92.4456 170.273 92.4567 170.891 92.4686C172.029 88.5273 172.794 84.5325 173.552 80.5028C173.734 79.535 173.917 78.5672 174.102 77.5997C174.216 77.0028 174.328 76.4057 174.44 75.8084C175.03 72.7114 175.03 72.7114 175.518 71.6788C176.282 71.3716 176.282 71.3716 177.06 71.0582C177.366 67.7815 177.671 64.5048 177.986 61.1287C178.393 61.2311 178.8 61.3335 179.22 61.439C179.118 64.4086 179.016 67.3781 178.911 70.4376C182.643 69.9049 182.643 69.9049 186.372 69.3516C186.625 69.3152 186.877 69.2788 187.137 69.2413C187.379 69.2041 187.621 69.1669 187.87 69.1286C188.083 69.0968 188.297 69.065 188.516 69.0322C189.188 68.8956 189.188 68.8956 190.016 68.2655C190.273 67.7204 190.273 67.7204 190.422 67.0789C190.518 66.7185 190.518 66.7185 190.615 66.3509C190.71 65.9643 190.71 65.9643 190.807 65.5698C190.873 65.3057 190.94 65.0416 191.009 64.7694C191.58 62.4309 191.955 60.1153 192.175 57.7155C192.236 57.2931 192.236 57.2931 192.297 56.8622C192.407 56.045 192.407 56.045 192.175 54.9228C191.739 54.5062 191.739 54.5062 191.148 54.1919C190.923 54.0605 190.698 53.9291 190.467 53.7937C190.216 53.6543 189.966 53.5149 189.708 53.3713C189.443 53.2223 189.178 53.0733 188.905 52.9198C188.013 52.424 187.116 51.9366 186.218 51.4514C185.891 51.2746 185.565 51.0979 185.228 50.9159C184.565 50.5574 183.901 50.1993 183.238 49.8417C182.412 49.3957 181.589 48.9457 180.767 48.4939C172.82 43.7911 172.82 43.7911 164.105 41.5801C164.019 41.7804 163.934 41.9807 163.846 42.187C163.455 43.0986 163.057 44.0071 162.659 44.9158C162.525 45.2309 162.39 45.5461 162.252 45.8709C160.966 48.7836 160.966 48.7836 159.478 49.6478C156.544 50.6314 153.627 49.2417 150.995 47.9217C147.548 45.9368 144.879 43.1409 143.438 39.408C134.66 39.0955 124.493 40.4921 118.143 47.1654ZM85.4456 79.7465C85.4456 80.4633 85.4456 81.1801 85.4456 81.9186C92.9783 81.8162 100.511 81.7138 108.272 81.6083C108.272 80.9939 108.272 80.3795 108.272 79.7465C100.739 79.7465 93.2066 79.7465 85.4456 79.7465ZM206.281 94.4872C205.089 95.1444 203.892 95.792 202.695 96.4404C199.667 98.0814 196.661 99.7542 193.671 101.464C191.401 102.761 189.12 104.036 186.835 105.307C184.339 106.695 181.858 108.104 179.393 109.547C178.072 110.319 176.745 111.081 175.419 111.844C174.73 112.247 174.054 112.663 173.381 113.091C170.889 114.564 168.866 114.592 166.058 114.57C162.361 114.651 159.219 116.288 155.958 117.915C155.116 118.24 154.51 118.285 153.617 118.223C153.617 117.916 153.617 117.609 153.617 117.292C155.246 116.576 156.874 115.859 158.552 115.12C157.438 114.373 156.796 114.38 155.468 114.306C155.086 114.283 154.704 114.259 154.311 114.235C153.874 114.219 153.437 114.204 153 114.189C152.738 114.175 152.477 114.161 152.207 114.147C150.037 114.076 148.288 114.468 146.252 115.198C145.938 115.307 145.624 115.416 145.3 115.528C141.586 116.845 137.963 118.393 134.338 119.938C132.666 120.646 130.986 121.336 129.306 122.024C128.751 122.252 128.196 122.48 127.642 122.708C127.252 122.868 126.862 123.028 126.472 123.188C126.987 127.332 129.191 131.134 131.716 134.359C131.931 134.636 132.147 134.913 132.369 135.199C137.073 140.841 144.372 143.473 151.458 144.288C152.969 144.376 154.475 144.392 155.988 144.385C156.395 144.383 156.802 144.382 157.221 144.38C160.322 144.341 163.256 144.122 166.264 143.357C166.508 143.296 166.751 143.234 167.002 143.17C178.891 140.058 188.702 132.305 198.489 125.143C201.622 122.852 204.808 120.645 208.019 118.466C208.778 117.95 209.535 117.431 210.292 116.911C220.342 110.038 220.342 110.038 224.987 108.877C225.226 108.815 225.465 108.753 225.71 108.689C226.183 108.57 226.659 108.461 227.137 108.364C227.889 108.201 227.889 108.201 228.883 107.673C229.289 106.823 229.376 106.142 229.5 105.191C229.805 105.191 230.111 105.191 230.425 105.191C230.527 106.01 230.629 106.829 230.734 107.673C231.159 107.752 231.159 107.752 231.592 107.833C234.624 108.435 236.991 108.984 239.063 111.397C239.204 111.558 239.346 111.718 239.491 111.884C242.15 115.135 244.148 119.82 243.946 124.053C243.765 129.188 245.777 132.441 248.618 136.556C249.308 137.557 249.964 138.575 250.615 139.602C251.008 140.223 251.407 140.839 251.807 141.454C253.346 143.828 254.837 146.233 256.337 148.632C258.062 147.57 259.742 146.475 261.349 145.238C265.803 141.827 270.476 138.692 275.153 135.6C274.971 134.399 274.616 133.516 274.022 132.462C273.85 132.155 273.679 131.849 273.502 131.533C273.315 131.205 273.129 130.876 272.936 130.538C272.742 130.193 272.547 129.847 272.347 129.492C270.331 125.924 268.279 122.379 266.208 118.844C265.972 118.441 265.737 118.038 265.502 117.636C262.879 113.15 260.26 108.672 257.404 104.332C256.663 103.192 255.939 102.042 255.213 100.893C253.304 97.8755 251.376 94.8709 249.415 91.8868C249.223 91.5904 249.03 91.294 248.831 90.9886C246.121 86.8864 243.199 82.6786 238.137 81.6083C227.314 80.5127 215.464 89.3994 206.281 94.4872ZM123.021 84.304C122.705 84.3315 122.389 84.3591 122.063 84.3875C116.561 84.727 116.561 84.727 111.357 86.2627C111.341 88.2772 111.33 90.2916 111.323 92.3061C111.32 92.9902 111.316 93.6742 111.31 94.3582C111.303 95.3465 111.299 96.3348 111.297 97.3231C111.293 97.6245 111.29 97.9259 111.287 98.2364C111.286 101.306 111.478 104.315 113.516 106.742C117.491 110.652 125.317 109.965 130.394 109.912C136.748 109.812 143.551 109.083 149.607 107.053C150.069 107.024 150.532 107.012 150.995 107.014C151.234 107.013 151.472 107.012 151.718 107.011C152.383 107.053 152.383 107.053 153.308 107.363C155.15 107.529 156.682 107.528 158.244 106.432C159.157 105.519 159.899 104.528 160.403 103.329C162.667 103.449 164.532 104.845 166.245 106.238C166.867 106.838 166.867 106.838 167.806 106.742C168.147 105.662 168.32 104.762 168.115 103.639C167.305 102.851 166.477 102.313 165.505 101.742C164.722 101.157 164.722 101.157 164.459 100.31C164.444 100.077 164.429 99.8449 164.413 99.6055C165.947 100.153 167.324 100.969 168.732 101.778C168.795 101.381 168.859 100.984 168.925 100.575C168.96 100.352 168.996 100.129 169.033 99.8988C169.035 99.6996 169.038 99.5004 169.04 99.2952C168.188 98.438 167.434 98.495 166.264 98.3643C166.366 97.9547 166.468 97.5451 166.573 97.1231C167.659 97.0982 168.615 97.1107 169.657 97.4334C170.025 96.2304 170.274 95.2873 170.274 94.0201C168.425 93.0902 165.987 93.8372 164.105 94.3692C163.726 94.4713 163.726 94.4713 163.34 94.5755C162.08 94.9251 160.848 95.3117 159.626 95.7789C159.403 95.8638 159.179 95.9488 158.949 96.0363C158.538 96.197 158.128 96.3641 157.723 96.5396C154.361 97.8684 150.345 97.0629 146.867 96.6128C146.438 96.5592 146.01 96.5057 145.581 96.4525C144.689 96.3412 143.796 96.2281 142.904 96.1136C141.781 95.9694 140.657 95.8282 139.532 95.6881C134.758 95.0926 129.99 94.4657 125.238 93.7098C125.238 93.3002 125.238 92.8906 125.238 92.4686C126.561 92.4686 127.885 92.4686 129.248 92.4686C129.51 91.4144 129.593 90.6783 129.587 89.6129C129.586 89.309 129.585 89.005 129.584 88.6918C129.581 88.3766 129.578 88.0614 129.576 87.7366C129.574 87.4166 129.573 87.0966 129.572 86.7669C129.568 85.9783 129.563 85.1896 129.556 84.4009C127.337 84.0986 125.249 84.1002 123.021 84.304ZM200.813 85.3318C200.058 86.4697 199.94 87.4227 200.196 88.7451C200.803 89.5912 200.803 89.5912 201.738 89.9863C202.697 90.0884 202.697 90.0884 203.589 89.676C204.418 88.7316 204.783 88.0951 204.958 86.8445C204.805 85.8343 204.639 85.4062 203.897 84.7112C202.573 84.1856 201.919 84.4896 200.813 85.3318ZM86.6794 98.3643C86.6794 100.155 86.7069 101.866 86.8728 103.638C86.8933 103.868 86.9139 104.099 86.9351 104.336C87.0025 105.088 87.0717 105.839 87.1409 106.591C87.1887 107.118 87.2364 107.645 87.284 108.172C87.3835 109.273 87.484 110.373 87.585 111.473C87.7143 112.881 87.8418 114.288 87.9688 115.696C88.0669 116.783 88.1658 117.87 88.2649 118.957C88.3122 119.475 88.3593 119.994 88.4062 120.513C88.4719 121.239 88.5386 121.964 88.6055 122.689C88.6246 122.902 88.6436 123.114 88.6633 123.333C88.776 124.543 88.9479 125.709 89.1472 126.912C101.159 126.912 113.171 126.912 125.546 126.912C125.241 125.99 124.936 125.068 124.621 124.119C123.906 123.896 123.186 123.69 122.462 123.498C120.114 120.192 119.812 115.037 119.377 111.086C119.212 111.034 119.048 110.981 118.878 110.926C113.399 109.134 113.399 109.134 111.974 107.363C111.757 107.107 111.541 106.851 111.318 106.587C109.966 104.049 109.787 101.189 109.506 98.3643C101.973 98.3643 94.4405 98.3643 86.6794 98.3643ZM161.02 105.191C160.899 105.421 160.778 105.652 160.654 105.889C160.046 106.816 159.44 107.331 158.552 107.983C158.145 108.291 157.738 108.598 157.319 108.914C160.474 108.914 163.63 108.914 166.881 108.914C166.372 108.505 165.863 108.095 165.339 107.673C165.106 107.48 164.874 107.287 164.635 107.088C164.409 106.903 164.183 106.719 163.951 106.529C163.725 106.342 163.499 106.155 163.266 105.963C162.505 105.463 161.915 105.31 161.02 105.191ZM149.298 108.604C149.298 108.706 149.298 108.809 149.298 108.914C150.52 108.914 151.741 108.914 153 108.914C151.533 108.177 150.84 108.269 149.298 108.604ZM212.226 117.292C212.017 117.433 211.807 117.575 211.592 117.72C210.369 118.549 209.156 119.392 207.948 120.243C207.235 120.744 206.521 121.244 205.807 121.743C203.323 123.483 200.852 125.238 198.403 127.028C184.726 137.006 184.726 137.006 178.911 139.944C178.911 140.046 178.911 140.149 178.911 140.254C181.725 140.307 184.45 140.198 187.24 139.828C187.821 139.752 187.821 139.752 188.415 139.674C194.318 138.871 200.17 137.689 206.022 136.576C206.513 136.482 206.513 136.482 207.014 136.387C207.469 136.299 207.469 136.299 207.932 136.21C208.197 136.16 208.461 136.109 208.733 136.057C209.389 135.923 210.036 135.769 210.683 135.6C210.643 135.416 210.602 135.233 210.559 135.043C210.447 134.537 210.335 134.03 210.224 133.523C210.112 133.012 209.994 132.502 209.874 131.993C209.687 130.803 209.521 129.561 210.067 128.463C210.474 128.463 210.881 128.463 211.3 128.463C211.308 128.718 211.316 128.973 211.325 129.236C211.443 131.589 211.819 133.478 212.843 135.6C213.643 134.392 214.292 133.121 214.963 131.837C215.097 131.584 215.231 131.33 215.37 131.069C216.243 129.401 217.04 127.713 217.778 125.981C218.185 125.981 218.593 125.981 219.012 125.981C218.252 128.881 216.957 131.452 215.584 134.101C213.57 138.02 213.347 141.314 213.882 145.626C214.035 146.864 214.176 148.103 214.319 149.342C214.349 149.608 214.38 149.874 214.412 150.148C214.784 153.404 215.092 156.667 215.4 159.93C215.459 160.56 215.519 161.19 215.579 161.821C215.73 163.417 215.88 165.014 216.029 166.611C216.272 169.192 216.515 171.773 216.759 174.354C216.843 175.238 216.925 176.122 217.008 177.005C217.345 180.583 217.705 184.157 218.087 187.73C220.567 187.615 223.048 187.499 225.528 187.382C226.68 187.327 227.832 187.273 228.985 187.22C230.099 187.168 231.213 187.116 232.327 187.063C232.749 187.043 233.172 187.023 233.595 187.004C235.94 186.896 238.272 186.759 240.605 186.488C240.919 184.588 241.012 182.702 241.09 180.778C241.105 180.426 241.12 180.074 241.136 179.711C241.185 178.541 241.233 177.371 241.281 176.201C241.306 175.584 241.332 174.967 241.358 174.35C241.477 171.472 241.591 168.595 241.704 165.718C241.713 165.493 241.721 165.267 241.731 165.035C242.39 148.482 242.39 148.482 242.646 131.919C242.648 131.242 242.654 130.566 242.66 129.89C242.74 123.571 242.74 123.571 240.913 117.603C240.828 117.418 240.742 117.233 240.654 117.043C239.221 113.976 237.528 111.527 234.422 110.06C226.685 107.31 218.341 113.158 212.226 117.292ZM143.129 110.156C142.827 110.195 142.827 110.195 142.518 110.236C141.578 110.359 140.638 110.48 139.697 110.602C139.38 110.643 139.064 110.685 138.737 110.728C134.499 111.271 130.313 111.441 126.048 111.416C125.577 111.415 125.106 111.413 124.635 111.412C123.5 111.408 122.364 111.403 121.228 111.397C121.367 113.719 121.556 115.963 122.115 118.223C122.164 118.444 122.214 118.664 122.265 118.891C122.568 120.158 122.964 121.18 123.696 122.257C125.029 122.076 126.153 121.748 127.391 121.222C127.746 121.072 128.102 120.923 128.468 120.768C128.85 120.605 129.232 120.442 129.614 120.279C130.211 120.027 130.809 119.775 131.406 119.523C131.816 119.351 132.226 119.178 132.636 119.005C134.791 118.095 136.954 117.207 139.119 116.323C139.468 116.18 139.817 116.037 140.177 115.889C141.571 115.319 142.965 114.75 144.363 114.189C144.275 113.749 144.185 113.31 144.093 112.871C144.043 112.626 143.993 112.381 143.941 112.129C143.748 111.405 143.471 110.818 143.129 110.156ZM48.9693 136.434C48.7911 136.671 48.613 136.907 48.4294 137.151C48.3276 137.254 48.2258 137.356 48.121 137.462C48.0322 138.37 47.9703 139.06 48.121 139.944C49.0832 141.026 50.1231 141.476 51.5141 141.806C52.47 141.561 52.47 141.561 53.3842 141.088C57.9358 138.937 62.4481 140.142 66.9962 141.732C68.3342 142.227 69.6429 142.779 70.9476 143.357C71.355 143.531 71.355 143.531 71.7706 143.708C72.4514 144.017 72.4514 144.017 73.4153 144.598C73.6298 145.255 73.6298 145.255 73.7238 145.84C72.3688 145.671 71.3883 145.336 70.1957 144.676C68.0469 143.556 65.8512 142.824 63.5444 142.116C63.3165 142.039 63.0887 141.962 62.8539 141.882C59.5732 140.872 56.1344 141.356 53.0565 142.737C51.6539 143.488 50.4837 144.295 49.9718 145.84C49.8168 147.742 49.9376 148.673 51.2056 150.184C54.3986 153.476 58.9117 153.798 63.2359 153.907C64.2421 153.91 65.2481 153.9 66.2543 153.888C66.5255 153.885 66.7967 153.882 67.0762 153.878C67.3523 153.875 67.6284 153.872 67.9129 153.869C68.481 153.862 69.0492 153.856 69.6173 153.849C69.8988 153.846 70.1803 153.842 70.4703 153.839C75.2289 153.791 79.5943 154.219 84.2117 155.459C83.5357 151.83 81.8349 149.204 79.3112 146.539C78.6593 145.84 78.6593 145.84 78.0544 145.058C73.5019 139.487 65.0925 135.175 57.9919 134.359C55.0268 134.127 51.2296 134.186 48.9693 136.434ZM243.998 137.151C243.985 137.668 243.985 138.186 243.998 138.703C244.333 139.11 244.333 139.11 245.146 139.043C245.486 139.04 245.826 139.036 246.177 139.032C246.517 139.03 246.858 139.027 247.209 139.024C247.473 139.02 247.736 139.017 248.008 139.013C247.673 138.005 247.673 138.005 247.083 137.151C246.563 137.129 246.042 137.125 245.521 137.132C245.238 137.135 244.954 137.137 244.662 137.14C244.443 137.144 244.224 137.148 243.998 137.151ZM273.862 138.392C273.561 138.596 273.561 138.596 273.255 138.804C268.444 142.082 263.691 145.444 258.998 148.891C258.529 149.229 258.05 149.552 257.571 149.873C258.055 151.725 259.036 153.234 260.038 154.838C261.664 154.331 262.885 153.298 264.222 152.278C266.321 150.7 268.435 149.152 270.584 147.643C270.965 147.375 270.965 147.375 271.354 147.101C272.591 146.231 273.836 145.376 275.097 144.541C275.328 144.387 275.559 144.232 275.797 144.073C276.231 143.784 276.667 143.499 277.105 143.218C277.75 142.801 277.75 142.801 278.546 142.116C278.546 140.685 278.22 140.151 277.505 138.935C277.312 138.601 277.119 138.267 276.92 137.922C276.744 137.668 276.568 137.413 276.387 137.151C275.383 137.151 274.668 137.84 273.862 138.392ZM129.432 137.163C129.078 137.166 128.724 137.168 128.36 137.171C127.775 137.175 127.775 137.175 127.178 137.18C126.764 137.183 126.351 137.186 125.938 137.189C124.813 137.197 123.689 137.206 122.565 137.214C121.391 137.223 120.217 137.231 119.043 137.24C116.818 137.257 114.594 137.273 112.37 137.289C109.838 137.308 107.306 137.327 104.774 137.346C99.5652 137.384 94.3562 137.423 89.1472 137.462C89.249 138.076 89.3508 138.69 89.4556 139.323C93.9284 139.28 98.4012 139.234 102.874 139.188C103.202 139.184 103.53 139.181 103.868 139.177C113.563 139.076 123.257 138.955 132.95 138.703C132.555 138.173 132.142 137.656 131.716 137.151C130.954 137.151 130.193 137.157 129.432 137.163ZM206.982 137.927C206.743 137.971 206.504 138.016 206.258 138.062C205.676 138.17 205.095 138.281 204.514 138.392C204.514 138.495 204.514 138.597 204.514 138.703C207.059 138.703 209.604 138.703 212.226 138.703C212.226 138.293 212.226 137.884 212.226 137.462C210.412 137.412 208.761 137.583 206.982 137.927ZM2.77621 153.597C2.66987 154.526 2.66987 154.526 3.22927 155.007C3.53943 155.259 3.53943 155.259 3.85585 155.517C4.75083 156.268 5.57911 157.033 6.38143 157.883C10.6226 162.174 15.8905 165.433 22.0362 165.505C25.7723 165.469 28.8421 164.688 31.6758 162.169C33.6976 159.86 34.7456 157.901 34.6858 154.742C34.4579 153.357 33.7611 152.598 32.6976 151.735C28.2712 148.732 21.2549 150.168 16.3488 151.115C15.124 151.394 13.921 151.728 12.7171 152.087C11.6688 152.37 10.6388 152.532 9.5625 152.666C9.5625 152.257 9.5625 151.847 9.5625 151.425C15.9402 149.4 25.2152 146.548 31.6746 149.65C31.9358 149.794 32.1971 149.938 32.4662 150.087C33.9725 150.907 34.7459 150.965 36.3992 150.494C37.7068 149.79 37.7068 149.79 38.5585 148.632C38.7108 147.304 38.6602 146.634 37.9801 145.471C36.0043 143.359 32.8696 143.06 30.1527 142.969C21.035 143.072 9.21582 146.86 2.77621 153.597ZM90.381 145.529C90.3542 145.873 90.3274 146.217 90.2998 146.572C87.9953 176.121 87.9953 176.121 86.8529 188.408C86.8239 188.722 86.8239 188.722 86.7942 189.041C86.1316 196.175 86.1316 196.175 85.8865 198.155C85.7426 199.638 85.754 201.134 85.754 202.624C96.4424 202.624 107.131 202.624 118.143 202.624C118.153 196.575 118.153 196.575 118.006 190.535C117.992 190.13 117.977 189.726 117.962 189.309C117.923 188.227 117.883 187.146 117.842 186.065C117.799 184.921 117.757 183.776 117.715 182.632C117.645 180.717 117.573 178.803 117.501 176.888C117.418 174.683 117.337 172.479 117.256 170.274C117.178 168.134 117.099 165.995 117.019 163.855C116.985 162.952 116.952 162.048 116.919 161.145C116.873 159.885 116.825 158.626 116.777 157.366C116.764 156.997 116.751 156.628 116.737 156.248C116.658 154.217 116.524 152.204 116.292 150.184C116.092 150.183 115.892 150.183 115.685 150.182C113.808 150.176 111.932 150.159 110.055 150.136C109.349 150.129 108.643 150.125 107.938 150.123C100.536 150.102 100.536 150.102 97.1673 148.322C96.6205 148.067 96.0735 147.813 95.5262 147.56C94.7743 147.192 94.0248 146.819 93.2753 146.446C93.032 146.327 92.7886 146.208 92.5379 146.086C92.3227 145.979 92.1076 145.871 91.8859 145.761C91.2671 145.472 91.2671 145.472 90.381 145.529ZM118.143 150.184C118.337 157.008 118.542 163.828 118.808 170.649C118.833 171.292 118.858 171.936 118.883 172.58C118.96 174.58 119.038 176.58 119.117 178.581C119.197 180.632 119.276 182.684 119.355 184.736C119.423 186.52 119.493 188.303 119.563 190.087C119.604 191.143 119.645 192.2 119.685 193.256C119.73 194.424 119.776 195.592 119.822 196.76C119.835 197.104 119.848 197.447 119.861 197.801C119.874 198.12 119.887 198.439 119.9 198.768C119.911 199.042 119.922 199.317 119.933 199.599C120.005 200.612 120.16 201.618 120.302 202.624C122.033 202.624 123.763 202.624 125.546 202.624C125.916 201.954 125.916 201.954 126.293 201.27C131.448 191.978 136.902 183.043 145.732 176.85C145.947 176.698 146.163 176.546 146.385 176.389C146.691 176.18 146.691 176.18 147.003 175.966C147.185 175.841 147.368 175.716 147.555 175.587C148.065 175.318 148.065 175.318 148.99 175.318C148.815 176.421 148.539 177.237 147.972 178.195C147.825 178.447 147.678 178.699 147.526 178.959C147.367 179.229 147.207 179.5 147.043 179.778C144.195 184.712 141.567 189.697 139.331 194.944C139.181 195.293 139.031 195.642 138.876 196.002C138.741 196.327 138.606 196.651 138.467 196.985C138.347 197.273 138.227 197.561 138.103 197.857C137.798 198.626 137.798 198.626 138.194 199.521C138.329 199.325 138.464 199.129 138.603 198.927C142.998 192.691 148.605 186.685 155.776 183.696C156.183 183.696 156.591 183.696 157.01 183.696C156.83 184.82 156.53 185.687 155.992 186.687C155.845 186.965 155.697 187.242 155.546 187.528C155.307 187.973 155.307 187.973 155.063 188.428C153.627 191.152 152.236 193.895 150.899 196.67C150.734 197.007 150.569 197.343 150.4 197.69C150.251 198.002 150.102 198.314 149.948 198.635C149.748 199.049 149.748 199.049 149.544 199.472C149.463 199.693 149.382 199.914 149.298 200.141C149.4 200.346 149.502 200.551 149.607 200.762C149.887 200.466 150.168 200.169 150.456 199.864C153.067 197.147 155.755 194.817 158.861 192.694C159.191 192.459 159.522 192.223 159.862 191.98C160.712 191.453 160.712 191.453 161.637 191.453C161.526 193.345 160.622 194.53 159.574 196.03C159.237 196.526 158.9 197.022 158.563 197.518C158.401 197.756 158.24 197.993 158.073 198.238C156.513 200.276 156.513 200.276 155.776 202.624C176.746 202.624 197.715 202.624 219.321 202.624C220.617 198.261 220.617 198.261 220.554 196.108C220.335 196.089 220.116 196.07 219.891 196.051C219.607 196.025 219.323 195.999 219.031 195.972C218.607 195.934 218.607 195.934 218.175 195.895C217.47 195.797 217.47 195.797 217.161 195.487C217.066 194.759 216.99 194.037 216.924 193.306C216.903 193.077 216.881 192.847 216.859 192.61C216.786 191.84 216.716 191.069 216.646 190.298C216.595 189.754 216.544 189.21 216.493 188.666C216.357 187.202 216.222 185.739 216.088 184.275C215.977 183.068 215.865 181.861 215.753 180.654C215.224 174.953 214.702 169.251 214.198 163.547C214.18 163.341 214.162 163.134 214.143 162.922C213.96 160.852 213.78 158.783 213.602 156.713C213.558 156.215 213.558 156.215 213.514 155.707C213.461 155.1 213.409 154.493 213.358 153.887C213.335 153.623 213.312 153.36 213.289 153.088C213.269 152.862 213.25 152.637 213.23 152.404C213.142 151.658 212.989 150.921 212.843 150.184C181.592 150.184 150.341 150.184 118.143 150.184ZM243.998 150.184C243.809 151.324 243.65 152.308 243.606 153.437C243.589 153.83 243.589 153.83 243.573 154.231C243.562 154.513 243.552 154.795 243.541 155.085C243.529 155.387 243.517 155.688 243.505 155.999C243.465 156.998 243.427 157.996 243.389 158.994C243.362 159.698 243.335 160.401 243.308 161.104C243.251 162.584 243.195 164.064 243.139 165.544C243.083 167.041 243.025 168.539 242.966 170.036C242.639 178.316 242.35 186.579 242.456 194.866C241.031 194.969 239.605 195.071 238.137 195.177C238.169 195.554 238.201 195.932 238.233 196.321C238.251 196.533 238.269 196.746 238.288 196.965C238.8 199.219 240.562 200.285 242.388 201.451C244.658 202.726 246.571 202.822 249.135 202.724C249.503 202.717 249.871 202.71 250.25 202.702C251.148 202.684 252.046 202.657 252.944 202.624C252.071 190.505 251.141 178.392 250.174 166.281C250.09 165.231 250.007 164.18 249.924 163.13C249.792 161.464 249.659 159.798 249.524 158.132C249.475 157.511 249.425 156.89 249.376 156.269C249.309 155.416 249.24 154.563 249.171 153.71C249.151 153.459 249.131 153.208 249.111 152.949C249.031 151.972 248.934 151.117 248.625 150.184C247.098 150.184 245.571 150.184 243.998 150.184ZM49.0464 162.906C48.4495 163.852 48.4294 164.208 48.4294 165.388C48.7062 165.471 48.9829 165.555 49.2681 165.64C54.4544 167.279 59.358 169.687 63.4287 173.359C63.5896 173.503 63.7506 173.647 63.9164 173.795C64.7284 174.555 65.2838 175.11 65.3952 176.249C64.1883 176.069 63.5474 175.489 62.6382 174.697C57.8803 170.708 51.948 166.646 45.4845 166.85C44.4451 166.973 43.7261 167.257 42.877 167.871C42.0757 169.207 42.014 170.383 42.2601 171.904C43.6144 175.986 46.5855 178.647 50.2012 180.71C51.7915 181.507 53.4271 181.975 55.1386 182.435C55.8723 182.644 56.6057 182.854 57.3389 183.065C57.7052 183.17 58.0715 183.274 58.4489 183.382C63.3028 184.786 67.8166 186.4 72.1815 188.971C72.5889 189.206 72.9966 189.44 73.4045 189.674C73.8679 189.94 73.8679 189.94 74.3407 190.212C76.107 184.029 73.2068 176.058 70.2921 170.663C67.7761 166.465 63.8099 162.486 59.027 161.122C55.6742 160.394 51.7255 160.461 49.0464 162.906ZM42.5685 176.559C42.5641 176.776 42.5596 176.992 42.5549 177.215C42.416 183.38 42.0717 189.52 41.6482 195.672C41.6277 195.972 41.6072 196.273 41.5861 196.582C41.5474 197.147 41.5081 197.711 41.4679 198.275C41.3678 199.729 41.3153 201.166 41.3347 202.624C41.9454 202.47 41.9454 202.47 42.5685 202.313C42.6139 201.941 42.6592 201.569 42.7059 201.185C43.5272 194.869 45.2577 189.389 48.1192 183.709C48.4687 182.995 48.7725 182.271 49.0464 181.524C48.8595 181.425 48.6726 181.327 48.48 181.225C46.5067 180.12 45.0234 178.821 43.4735 177.172C43.2766 176.97 43.0798 176.767 42.877 176.559C42.7752 176.559 42.6734 176.559 42.5685 176.559ZM144.671 179.662C137.53 185.609 131.594 193.485 127.706 202.003C127.706 202.208 127.706 202.413 127.706 202.624C130.047 202.624 132.388 202.624 134.8 202.624C135.018 202.034 135.235 201.444 135.458 200.836C137.062 196.522 138.757 192.281 140.758 188.137C140.931 187.777 141.104 187.417 141.283 187.046C142.299 184.971 143.399 182.979 144.61 181.012C144.732 180.771 144.854 180.531 144.98 180.282C144.827 179.975 144.827 179.975 144.671 179.662ZM151.342 188.137C151.15 188.275 150.958 188.414 150.76 188.557C148.797 190 147.031 191.611 145.288 193.315C145.119 193.478 144.949 193.64 144.775 193.808C143.393 195.156 142.206 196.6 141.047 198.144C140.786 198.483 140.786 198.483 140.52 198.829C139.569 200.086 138.912 201.178 138.194 202.624C140.84 202.624 143.487 202.624 146.214 202.624C148.27 198.787 150.158 194.919 151.937 190.945C152.566 189.544 153.231 188.168 153.925 186.799C152.892 186.799 152.155 187.549 151.342 188.137ZM233.306 188.554C232.875 188.575 232.443 188.596 232.011 188.616C230.884 188.671 229.757 188.726 228.629 188.782C227.475 188.838 226.322 188.894 225.168 188.95C222.91 189.06 220.653 189.17 218.395 189.281C217.916 190.245 218.215 191.063 218.376 192.112C218.436 192.51 218.496 192.908 218.558 193.317C218.606 193.624 218.654 193.93 218.704 194.246C223.175 194.332 227.619 194.188 232.083 193.955C232.478 193.935 232.478 193.935 232.881 193.914C233.646 193.874 234.411 193.833 235.175 193.791C235.515 193.773 235.515 193.773 235.861 193.755C237.451 193.665 239.024 193.502 240.605 193.315C240.605 191.677 240.605 190.038 240.605 188.35C238.167 188.322 235.741 188.433 233.306 188.554ZM38.8284 190.425C38.0897 191.281 37.664 191.793 37.5391 192.928C37.6049 193.579 37.6888 194.228 37.7861 194.875C38.0208 196.45 37.9746 198.029 37.9608 199.618C37.9594 199.913 37.958 200.208 37.9566 200.511C37.953 201.216 37.948 201.92 37.9415 202.624C38.4505 202.624 38.9595 202.624 39.4839 202.624C39.6178 201.272 39.7495 199.921 39.8792 198.569C39.9235 198.111 39.9684 197.652 40.0139 197.194C40.2757 194.553 40.4859 191.939 40.4093 189.281C39.758 189.281 39.2588 190.005 38.8284 190.425ZM35.7823 193.625C35.6457 193.755 35.5091 193.884 35.3684 194.018C34.7356 194.618 34.1022 195.217 33.4688 195.817C33.254 196.02 33.0393 196.224 32.8181 196.434C32.6034 196.637 32.3886 196.84 32.1674 197.049C31.8411 197.358 31.8411 197.358 31.5083 197.673C30.6811 198.432 29.8205 199.146 28.9472 199.851C28.1615 200.634 28.1615 200.634 27.1452 202.624C30.199 202.624 33.2528 202.624 36.3992 202.624C36.4119 201.312 36.4246 200 36.4378 198.648C36.4434 198.235 36.449 197.823 36.4548 197.397C36.4563 197.072 36.4579 196.747 36.4594 196.412C36.4627 196.079 36.4659 195.746 36.4692 195.402C36.4619 194.488 36.4619 194.488 35.7823 193.625ZM154.465 198.144C154.194 198.398 154.194 198.398 153.917 198.658C152.699 199.812 151.561 200.983 150.532 202.313C150.532 202.416 150.532 202.518 150.532 202.624C151.68 202.999 152.482 203.066 153.617 202.624C155.129 200.911 156.293 198.583 157.01 196.418C155.922 196.418 155.225 197.425 154.465 198.144Z" fill="black"/>
<path d="M168.119 20.7891C168.526 20.8915 168.934 20.9939 169.353 21.0994C169.251 22.0209 169.149 22.9425 169.045 23.892C168.637 23.892 168.23 23.892 167.811 23.892C167.453 22.634 167.553 21.9626 168.119 20.7891Z" fill="black"/>
<path d="M172.733 23.2725C173.14 23.4773 173.547 23.6821 173.967 23.8931C173.94 24.7339 173.907 25.5738 173.871 26.4142C173.86 26.7682 173.86 26.7682 173.85 27.1293C173.766 28.897 173.367 30.1601 172.309 31.6117C171.599 32.1062 171.109 32.0695 170.265 31.9608C170.062 31.756 169.858 31.5512 169.648 31.3402C169.687 30.7196 169.687 30.7196 169.957 30.099C170.159 30.0098 170.36 29.9206 170.568 29.8287C171.234 29.5376 171.234 29.5376 171.435 28.9051C171.476 28.6783 171.516 28.4515 171.557 28.2178C171.603 27.9706 171.649 27.7234 171.696 27.4687C171.839 26.4705 171.94 25.4724 172.01 24.4664C172.116 23.8931 172.116 23.8931 172.733 23.2725Z" fill="black"/>
<path d="M165.026 31.6504C166.406 31.809 167.056 32.3227 168.11 33.2019C168.72 33.526 169.336 33.8401 169.961 34.1328C169.859 34.5424 169.758 34.9519 169.653 35.3739C167.666 35.2141 166.59 34.5599 165.045 33.357C164.717 32.8916 164.717 32.8916 164.814 32.2128C164.884 32.0272 164.954 31.8416 165.026 31.6504Z" fill="black"/>
<path d="M56.7613 38.7871C57.5132 39.0198 57.5132 39.0198 58.3037 39.4077C58.6121 40.0089 58.6121 40.0089 58.6121 40.6489C58.2651 41.2113 58.2651 41.2113 57.6867 41.5798C56.8577 41.4828 56.8577 41.4828 56.1444 41.2695C55.9323 40.5519 55.9323 40.5519 55.8359 39.718C56.2794 39.1556 56.2794 39.1556 56.7613 38.7871Z" fill="black"/>
<path d="M246.385 42.7354C246.731 42.7324 247.078 42.7295 247.436 42.7264C247.808 42.7267 248.179 42.727 248.562 42.7273C248.947 42.7259 249.331 42.7246 249.727 42.7232C250.747 42.721 251.767 42.722 252.787 42.7237C253.411 42.7236 254.035 42.7205 254.659 42.7163C255.859 42.7087 257.06 42.7074 258.26 42.7079C258.632 42.705 259.004 42.7022 259.387 42.6992C259.734 42.7012 260.08 42.7031 260.438 42.7051C260.742 42.7049 261.046 42.7047 261.36 42.7045C262.355 42.8415 262.937 43.1612 263.745 43.7515C264.55 45.3722 264.15 47.9642 264.161 49.7692C264.166 50.3714 264.175 50.9736 264.187 51.5758C264.204 52.4445 264.21 53.3127 264.215 54.1816C264.222 54.4499 264.229 54.7182 264.236 54.9947C264.232 56.2232 264.132 56.9494 263.537 58.0405C261.866 59.0261 260.177 58.8541 258.277 58.8299C257.859 58.8294 257.442 58.8294 257.024 58.83C256.152 58.8295 255.279 58.8237 254.406 58.8139C253.288 58.8016 252.169 58.8002 251.051 58.8025C250.19 58.8035 249.329 58.7997 248.467 58.7944C247.855 58.7912 247.242 58.7911 246.629 58.791C246.257 58.786 245.885 58.7811 245.502 58.776C245.011 58.7721 245.011 58.7721 244.51 58.7681C243.694 58.6457 243.694 58.6457 243.138 58.2303C242.243 56.9793 242.411 55.5597 242.409 54.0894C242.408 53.8251 242.407 53.5608 242.406 53.2884C242.404 52.7294 242.403 52.1705 242.403 51.6115C242.403 50.7569 242.397 49.9024 242.391 49.0477C242.39 48.5045 242.39 47.9613 242.39 47.4181C242.387 47.1627 242.385 46.9073 242.383 46.6442C242.392 44.2771 242.392 44.2771 243.078 43.4412C244.212 42.8862 245.13 42.7413 246.385 42.7354ZM245.545 44.6824C245.545 44.8872 245.545 45.092 245.545 45.303C245.849 45.4706 246.154 45.6382 246.467 45.8108C247.33 46.3062 248.144 46.8407 248.952 47.4229C249.162 47.5743 249.372 47.7257 249.589 47.8817C250.022 48.1962 250.453 48.513 250.883 48.832C251.196 49.0561 251.196 49.0561 251.516 49.2847C251.702 49.4214 251.889 49.5581 252.081 49.699C252.629 50.0091 252.629 50.0091 253.237 49.9007C254.003 49.5958 254.635 49.2034 255.322 48.7453C255.594 48.5657 255.865 48.3861 256.145 48.2011C256.426 48.0127 256.708 47.8243 256.997 47.6302C257.557 47.2582 258.117 46.8865 258.677 46.5151C258.924 46.3497 259.172 46.1843 259.426 46.0139C260.043 45.6133 260.043 45.6133 260.66 45.303C260.508 44.9958 260.508 44.9958 260.352 44.6824C255.466 44.6824 250.579 44.6824 245.545 44.6824ZM259.947 47.4557C259.614 47.7107 259.281 47.9652 258.947 48.2193C258.773 48.3516 258.599 48.4839 258.421 48.6202C257.536 49.2902 256.645 49.9494 255.744 50.5974C255.423 50.8314 255.102 51.0654 254.772 51.3065C253.796 51.8634 253.422 52.0491 252.332 51.8192C251.605 51.3709 250.958 50.9245 250.288 50.4035C248.451 49.0058 246.578 47.7976 244.62 46.5442C244.62 49.9233 244.62 53.3024 244.62 56.7839C246.865 56.7904 249.11 56.7966 251.355 56.8C252.4 56.8016 253.445 56.8038 254.49 56.8073C255.689 56.8113 256.887 56.8129 258.085 56.8142C258.65 56.8166 258.65 56.8166 259.225 56.8191C259.571 56.8191 259.917 56.8191 260.273 56.8192C260.58 56.8198 260.886 56.8205 261.201 56.8212C261.885 56.8623 261.885 56.8623 262.203 56.4736C262.23 55.7139 262.238 54.963 262.233 54.2034C262.232 53.9765 262.232 53.7497 262.231 53.516C262.23 52.7888 262.226 52.0616 262.222 51.3344C262.22 50.8424 262.219 50.3505 262.218 49.8586C262.214 48.6504 262.209 47.4421 262.203 46.2339C261.222 46.2339 260.711 46.8603 259.947 47.4557Z" fill="black"/>
<path d="M80.2674 51.6261C80.4519 51.6901 80.6364 51.7541 80.8265 51.82C80.9283 52.4344 81.0301 53.0488 81.135 53.6818C80.2096 54.3024 80.2096 54.3024 79.5541 54.2054C78.9757 53.9921 78.9757 53.9921 78.6672 53.6818C78.5901 52.9255 78.5901 52.9255 78.6672 52.1303C79.5926 51.5097 79.5926 51.5097 80.2674 51.6261Z" fill="black"/>
<path d="M46.2723 71.6777C47.1013 71.9492 47.1013 71.9492 47.8146 72.2983C47.8532 73.0353 47.8532 73.0353 47.8146 73.8498C47.6111 74.0546 47.4075 74.2594 47.1977 74.4704C45.7925 74.298 45.7925 74.298 45.3469 73.8498C45.2698 73.0935 45.2698 73.0935 45.3469 72.2983C45.6523 72.0935 45.9577 71.8887 46.2723 71.6777Z" fill="black"/>
<path d="M279.954 93.3408C280.706 93.399 280.706 93.399 281.015 93.7093C281.072 94.4656 281.072 94.4656 281.015 95.2608C280.811 95.4656 280.607 95.6704 280.398 95.8814C279.588 95.765 279.588 95.765 278.855 95.5711C278.663 94.8341 278.663 94.8341 278.547 94.0196C279.164 93.399 279.164 93.399 279.954 93.3408Z" fill="black"/>
<path d="M26.9704 106.664C27.3617 106.702 27.3617 106.702 27.7608 106.742C28.3778 107.673 28.3778 107.673 28.3392 108.313C27.9895 109.091 27.6109 109.232 26.8354 109.534C26.4283 109.227 26.0211 108.92 25.6016 108.603C25.9284 106.772 25.9284 106.772 26.9704 106.664Z" fill="black"/>
<path d="M290.575 125.98C290.768 126.717 290.768 126.717 290.884 127.532C290.267 128.153 290.267 128.153 289.476 128.211C288.724 128.153 288.724 128.153 288.416 127.842C288.403 127.222 288.403 126.601 288.416 125.98C289.238 125.567 289.701 125.772 290.575 125.98Z" fill="black"/>
<path d="M197.733 164.146C197.926 164.882 197.926 164.882 198.042 165.697C197.425 166.318 197.425 166.318 196.615 166.356C196.373 166.344 196.132 166.331 195.883 166.318C195.555 165.755 195.555 165.755 195.266 165.076C195.367 164.769 195.469 164.462 195.574 164.146C196.397 163.732 196.859 163.937 197.733 164.146Z" fill="black"/>
<path d="M103.647 176.559C104.476 176.83 104.476 176.83 105.19 177.179C105.228 177.916 105.228 177.916 105.19 178.731C104.986 178.935 104.782 179.14 104.573 179.351C103.167 179.179 103.167 179.179 102.722 178.731C102.645 177.974 102.645 177.974 102.722 177.179C103.027 176.974 103.333 176.77 103.647 176.559Z" fill="black"/>
<path d="M272.685 184.897C273.61 184.936 273.61 184.936 273.919 185.247C273.976 186.003 273.976 186.003 273.919 186.798C273.715 187.003 273.511 187.208 273.302 187.419C271.896 187.246 271.896 187.246 271.451 186.798C271.412 186.022 271.412 186.022 271.451 185.247C271.759 184.936 271.759 184.936 272.685 184.897Z" fill="black"/>
</g>
<defs>
<clipPath id="clip0_246_3164">
<rect width="306" height="220" fill="white"/>
</clipPath>
</defs>
</svg>
