<svg width="360" height="238" viewBox="0 0 360 238" fill="none" xmlns="http://www.w3.org/2000/svg">
<g clip-path="url(#clip0_244_1141)">
<path d="M297.434 8.85736C297.676 9.07642 297.919 9.29548 298.17 9.52118C298.446 9.7627 298.723 10.0042 299.008 10.2531C303.343 14.2595 305.43 19.3997 305.64 25.2135C305.671 28.6105 305.125 31.907 304.522 35.2413C304.315 36.4676 304.169 37.6983 304.023 38.9332C304.348 39.098 304.672 39.2627 305.006 39.4325C306.846 40.6599 307.783 42.7111 308.212 44.8267C308.396 48.2844 306.921 51.6251 304.703 54.2165C303.105 55.8458 301.63 56.9172 299.267 57.0888C299.146 57.9276 299.026 58.7664 298.901 59.6306C298.298 59.6306 297.694 59.6306 297.072 59.6306C296.951 58.9116 296.831 58.1926 296.706 57.4519C296.223 57.4519 295.74 57.4519 295.243 57.4519C295.234 57.9226 295.224 58.3932 295.215 58.8782C295.18 60.6316 295.144 62.385 295.107 64.1383C295.091 64.8959 295.075 65.6534 295.061 66.411C295.04 67.5026 295.016 68.5941 294.993 69.6856C294.987 70.022 294.98 70.3583 294.974 70.7049C294.933 72.4917 294.81 74.2076 294.511 75.9706C294.896 76.0005 295.281 76.0305 295.677 76.0613C307.819 77.6359 319.937 85.8334 328.644 93.9375C329.454 94.6872 330.276 95.4106 331.119 96.1233C342.115 105.687 348.513 119.313 354.511 132.298C354.624 132.542 354.738 132.786 354.854 133.037C356.121 135.772 357.281 138.525 358.297 141.362C358.387 141.614 358.478 141.867 358.571 142.127C360.372 147.294 360.824 153.916 358.44 159.022C356.102 162.83 353.36 165.382 348.909 166.621C344.347 167.213 339.928 166.711 335.487 165.659C335.452 165.932 335.417 166.204 335.381 166.485C334.818 170.649 334.009 174.76 333.201 178.883C333.049 179.664 332.897 180.445 332.745 181.226C332.428 182.854 332.109 184.482 331.79 186.11C331.383 188.188 330.979 190.266 330.575 192.344C330.262 193.954 329.947 195.563 329.632 197.173C329.483 197.939 329.333 198.704 329.185 199.47C327.164 209.867 327.164 209.867 326.34 210.685C325.644 210.719 324.947 210.728 324.25 210.726C323.803 210.726 323.357 210.726 322.896 210.726C322.405 210.724 321.914 210.722 321.423 210.72C320.923 210.72 320.423 210.719 319.923 210.719C318.605 210.717 317.288 210.714 315.97 210.71C314.626 210.706 313.282 210.704 311.938 210.703C309.3 210.699 306.662 210.693 304.023 210.685C304.008 210.919 303.993 211.154 303.978 211.395C303.771 214.101 303.281 216.678 302.674 219.32C302.578 219.747 302.482 220.174 302.383 220.614C302.078 221.965 301.77 223.315 301.462 224.665C301.255 225.582 301.049 226.499 300.842 227.416C300.645 228.288 300.448 229.16 300.25 230.032C300.157 230.443 300.064 230.853 299.969 231.277C299.882 231.656 299.795 232.036 299.706 232.427C299.63 232.761 299.554 233.095 299.475 233.439C299.267 234.287 299.267 234.287 298.901 235.376C307.232 235.376 315.562 235.376 324.145 235.376C324.145 235.976 324.145 236.575 324.145 237.192C218.384 237.192 112.623 237.192 3.65734 237.192C3.53661 236.593 3.41587 235.994 3.29148 235.376C8.96587 235.376 14.6403 235.376 20.4866 235.376C20.0037 234.538 19.5208 233.699 19.0232 232.835C18.6744 231.124 18.785 229.418 19.572 227.842C22.1551 224.05 27.1911 222.82 31.3489 221.531C39.8152 218.897 46.5604 214.722 53.5921 209.468C53.8584 209.269 54.1247 209.071 54.399 208.866C55.0463 208.383 55.6934 207.9 56.3403 207.417C56.1259 207.415 55.9116 207.413 55.6908 207.41C53.4531 207.387 51.2156 207.357 48.9781 207.322C48.1439 207.31 47.3096 207.299 46.4753 207.291C45.2737 207.279 44.0724 207.26 42.8708 207.24C42.4999 207.237 42.129 207.235 41.7469 207.233C39.651 207.19 38.0098 207.098 36.2183 205.964C35.101 204.128 34.9575 202.486 34.975 200.404C34.9739 200.124 34.9729 199.843 34.9718 199.554C34.971 198.965 34.9731 198.375 34.9777 197.786C34.9835 196.889 34.9777 195.993 34.9707 195.097C34.9714 194.521 34.9728 193.945 34.975 193.369C34.9728 193.104 34.9705 192.839 34.9682 192.566C34.9933 190.729 35.2764 189.41 36.2183 187.809C37.9237 186.587 39.4891 186.572 41.5089 186.613C41.7656 186.614 42.0223 186.615 42.2868 186.617C43.2367 186.622 44.1862 186.637 45.136 186.651C46.2862 186.665 47.4365 186.676 48.5868 186.688C49.1582 186.694 49.7297 186.7 50.3012 186.706C50.7246 186.71 51.1479 186.715 51.5842 186.72C51.6068 186.409 51.6294 186.099 51.6526 185.78C52.445 175.059 53.4991 164.367 54.58 153.671C54.7638 151.848 54.9463 150.026 55.1288 148.203C55.3496 145.997 55.5712 143.792 55.7929 141.586C55.8543 140.974 55.8543 140.974 55.917 140.35C56.3954 135.59 56.8921 130.833 57.4378 126.08C53.2016 127.83 50.7447 130.051 47.7411 133.456C43.3563 138.361 36.5989 142.856 29.9531 143.596C28.0748 143.67 27.0834 143.298 25.6086 142.057C23.7935 140.23 22.5914 138.204 21.4241 135.929C21.2382 135.572 21.0524 135.214 20.8609 134.845C18.6124 130.453 16.6031 125.951 14.5707 121.457C13.3958 118.864 12.1887 116.287 10.9744 113.711C10.7653 113.267 10.5562 112.823 10.3471 112.378C9.348 110.257 8.34337 108.139 7.33124 106.023C-0.0542798 90.5867 -0.0542797 90.5867 -0.115529 85.298C-0.131445 84.8462 -0.131445 84.8462 -0.147684 84.3853C-0.175597 81.6852 0.569698 80.2088 2.42258 78.1946C4.29338 77.0255 5.9819 76.884 8.15477 77.1705C10.7312 77.8313 12.4282 79.5977 14.2671 81.4172C14.4649 81.6048 14.6627 81.7923 14.8664 81.9856C16.4779 83.5344 17.8295 85.1886 19.1604 86.9774C23.4402 92.6121 27.6687 96.3934 34.0518 99.565C37.2198 101.196 39.9906 103.188 42.072 106.109C44.7315 105.317 47.4646 104.433 49.7549 102.841C50.0284 101.576 50.0284 101.576 50.1208 100.299C52.1395 98.5082 54.8128 97.3365 57.2092 96.1233C57.969 95.7346 58.7288 95.346 59.4886 94.9573C59.8788 94.7585 60.269 94.5597 60.671 94.3549C61.7515 93.8022 62.8287 93.2437 63.9046 92.6822C72.5015 88.2068 81.21 83.9463 89.8988 79.6501C90.6641 79.2714 91.4291 78.8921 92.1939 78.5124C91.9957 78.1302 91.9957 78.1302 91.7934 77.7404C80.0942 55.0968 69.7978 28.5399 71.3403 2.62206C71.461 2.26258 71.5817 1.9031 71.7061 1.53273C73.4624 1.69645 74.4787 2.52007 75.7534 3.64331C76.0779 3.9253 76.0779 3.9253 76.4091 4.21298C81.1775 8.42713 85.7162 12.8832 89.5222 17.9786C90.21 18.8739 90.9412 19.7311 91.6696 20.594C96.7453 26.6348 101.039 33.2219 104.999 40.0225C105.341 40.6023 105.684 41.1819 106.026 41.7615C114.965 56.9845 114.965 56.9845 117.792 64.4631C118.076 65.3969 118.076 65.3969 118.535 65.8035C119.09 65.8877 119.647 65.9531 120.205 66.0077C120.507 66.0381 120.809 66.0686 121.121 66.0999C121.354 66.1219 121.588 66.1439 121.828 66.1666C121.82 65.6943 121.811 65.222 121.802 64.7354C121.583 46.8113 124.543 29.2478 129.511 12.063C129.668 11.5203 129.668 11.5203 129.828 10.9667C130.56 8.4797 130.56 8.4797 130.974 8.06873C131.584 8.05398 132.194 8.05322 132.804 8.06873C143.882 29.2704 148.12 51.9947 149.633 75.6075C149.732 75.38 149.831 75.1525 149.933 74.9182C156.232 60.4749 163.333 48.1199 173.376 35.956C174.065 35.1216 174.747 34.2831 175.417 33.4341C178.658 29.3706 181.79 26.1949 187.156 25.5662C188.072 25.491 188.072 25.491 188.779 25.4981C189.145 25.8612 189.145 25.8612 189.214 27.0583C189.184 29.1456 188.793 31.1661 188.413 33.2142C188.333 33.6528 188.252 34.0915 188.17 34.5434C185.621 48.116 182.058 61.3799 177.804 74.5181C177.989 74.4593 178.175 74.4005 178.366 74.3399C179.57 74.0929 180.752 74.1013 181.975 74.1016C182.249 74.1002 182.522 74.0989 182.804 74.0975C183.721 74.0935 184.639 74.0921 185.556 74.0907C186.213 74.0885 186.871 74.0861 187.528 74.0835C189.687 74.0759 191.846 74.0721 194.004 74.0685C194.747 74.067 195.49 74.0655 196.233 74.064C199.721 74.0571 203.21 74.0519 206.698 74.0489C210.728 74.0453 214.758 74.0358 218.787 74.0211C221.901 74.0102 225.014 74.0048 228.128 74.0036C229.988 74.0027 231.849 73.9995 233.709 73.9903C235.458 73.9819 237.207 73.9803 238.956 73.9841C239.598 73.9843 240.241 73.982 240.883 73.977C241.759 73.9706 242.635 73.9731 243.51 73.9779C243.766 73.9739 244.021 73.9699 244.284 73.9658C245.421 73.9809 246.131 74.0996 247.096 74.7108C247.682 75.6075 247.682 75.6075 248.048 78.5124C252.515 78.5124 256.982 78.5124 261.584 78.5124C261.596 75.461 261.596 75.461 260.498 74.5508C260.192 74.4127 259.887 74.2746 259.572 74.1323C253.448 70.9375 251.11 65.2255 249.031 58.9985C247.841 55.1218 247.625 51.2141 247.607 47.1826C247.605 46.8003 247.603 46.418 247.601 46.024C247.598 45.2184 247.595 44.4128 247.594 43.6072C247.59 42.3961 247.579 41.1853 247.567 39.9743C247.549 36.1301 247.6 32.4281 248.458 28.6634C248.836 26.91 248.675 25.721 248.048 24.0456C247.621 23.3629 247.621 23.3629 247.11 22.8655C245.676 21.2597 245.658 19.7477 245.685 17.6727C246.247 13.4672 249.237 9.65375 252.438 6.9794C264.495 -2.12829 285.88 -0.840733 297.434 8.85736ZM74.2671 5.89006C73.9023 19.2666 76.1451 32.3477 80.1208 45.1061C80.229 45.4579 80.3373 45.8097 80.4489 46.1722C83.0176 54.4292 86.4077 62.3605 90.1817 70.1381C90.2905 70.3628 90.3992 70.5875 90.5113 70.819C92.0646 74.0565 92.0646 74.0565 94.0232 77.0599C95.4793 77.5125 96.2818 77.5273 97.7232 77.0301C98.1094 76.8228 98.4957 76.6154 98.8936 76.4018C99.111 76.2877 99.3283 76.1737 99.5523 76.0562C100.795 75.398 102.019 74.7065 103.245 74.0174C103.784 73.7152 104.323 73.413 104.862 73.1111C105.132 72.9588 105.403 72.8066 105.682 72.6497C108.693 70.9818 111.833 69.6144 115 68.2657C115.607 68.0244 115.607 68.0244 115.974 67.619C116.023 63.2054 114.315 58.7796 112.316 54.9101C112.16 54.5998 112.16 54.5998 112 54.2832C107.924 46.2675 102.333 38.9261 97.0815 31.6392C96.5452 30.8903 96.0154 30.1372 95.4866 29.3831C90.1034 21.7181 84.1605 13.654 76.8281 7.70562C76.6125 7.5226 76.397 7.33959 76.175 7.15102C75.328 6.27911 75.328 6.27911 74.2671 5.89006ZM260.477 10.0332C258.569 12.6232 257.354 14.9753 257.56 18.2359C258.679 17.9925 258.679 17.9925 259.084 17.2097C259.216 16.9272 259.349 16.6447 259.485 16.3536C259.63 16.0468 259.775 15.74 259.924 15.4239C260.072 15.1011 260.22 14.7784 260.372 14.4459C260.524 14.1245 260.676 13.8032 260.833 13.4721C261.641 11.9214 261.641 11.9214 261.95 10.2474C262.267 10.2249 262.584 10.2025 262.91 10.1793C264.534 9.7913 265.162 9.23845 266.34 8.06873C266.686 7.28248 266.686 7.28248 266.706 6.61629C263.967 6.12841 262.121 8.09323 260.477 10.0332ZM269.744 14.6558C268.827 15.9537 268.535 16.6057 268.535 18.2359C268.898 18.3557 269.26 18.4755 269.633 18.599C269.788 18.3883 269.943 18.1777 270.103 17.9607C273.645 13.2792 278.075 11.1686 283.535 9.15807C283.535 8.67876 283.535 8.19945 283.535 7.70562C278.398 7.11275 272.881 10.9076 269.744 14.6558ZM131.706 12.4261C129.561 18.6422 127.848 24.8574 126.584 31.3079C126.513 31.6724 126.441 32.037 126.367 32.4126C124.609 41.6318 123.919 51.0509 123.932 60.4249C123.932 60.6963 123.932 60.9676 123.932 61.2473C123.689 63.9082 123.689 63.9082 124.389 66.1666C124.925 66.2528 125.465 66.319 126.005 66.3765C133.082 67.1868 139.029 69.1319 144.821 73.3494C145.839 74.2247 145.839 74.2247 146.706 74.155C147.098 57.2683 143.557 40.7051 138.063 24.7719C137.981 24.5338 137.899 24.2957 137.815 24.0504C137.266 22.4661 136.691 20.8932 136.096 19.3252C136.009 19.094 135.922 18.8628 135.832 18.6247C134.484 15.0012 134.484 15.0012 131.706 12.4261ZM251.615 24.1137C249.781 27.0383 250.259 30.1869 250.609 33.4865C250.883 33.5221 251.158 33.5577 251.44 33.5943C253.761 33.9309 255.794 34.4285 257.94 35.373C258.641 35.7112 258.641 35.7112 259.389 35.6652C259.268 36.504 259.148 37.3428 259.023 38.207C258.781 38.1941 258.539 38.1812 258.29 38.1679C257.201 38.1109 256.111 38.0568 255.022 38.0027C254.641 37.9824 254.26 37.962 253.868 37.941C253.506 37.9235 253.144 37.9059 252.771 37.8878C252.436 37.8707 252.1 37.8536 251.755 37.836C250.98 37.7535 250.98 37.7535 250.609 38.207C248.843 48.165 249.889 60.0717 255.548 68.663C257.46 71.1028 259.707 72.5634 262.682 73.4288C262.923 73.309 263.165 73.1891 263.413 73.0657C263.051 72.7062 262.689 72.3467 262.316 71.9763C262.603 72.0508 262.89 72.1252 263.186 72.2019C267.355 73.263 270.949 73.881 275.121 72.7026C275.669 72.5647 276.218 72.4284 276.767 72.2941C277.401 72.1368 277.401 72.1368 278.048 71.9763C278.168 72.4557 278.289 72.935 278.413 73.4288C278.157 73.5294 277.9 73.6301 277.636 73.7337C276.17 74.3207 274.721 74.944 273.269 75.5635C271.079 76.3927 268.883 76.443 266.567 76.5535C265.126 76.605 265.126 76.605 263.779 77.0599C263.263 79.1116 263.417 80.88 264.145 82.8697C265.435 84.925 267.002 85.7826 269.267 86.5008C270.646 86.697 271.992 86.7091 273.383 86.6824C273.755 86.6772 274.128 86.672 274.511 86.6667C281.152 86.4821 286.731 83.4156 291.57 79.0414C293.192 77.101 293.145 75.0262 293.106 72.6288C293.104 72.3101 293.102 71.9913 293.1 71.6629C293.094 70.6477 293.083 69.6327 293.07 68.6176C293.06 67.6076 293.051 66.5977 293.044 65.5878C293.04 64.9613 293.034 64.3348 293.025 63.7084C293.01 61.8614 293.121 60.0618 293.33 58.2264C293.425 57.3444 293.451 56.4776 293.436 55.5909C293.429 55.1266 293.421 54.6623 293.413 54.1839C293.896 54.1839 294.379 54.1839 294.877 54.1839C294.998 54.5434 295.118 54.9028 295.243 55.2732C295.98 55.5395 295.98 55.5395 296.706 55.6363C296.887 55.0971 296.887 55.0971 297.072 54.547C297.313 54.6668 297.555 54.7867 297.804 54.9101C299.112 55.1179 299.996 55.1459 301.132 54.4193C303.664 52.2872 305.283 50.0524 305.568 46.6876C305.636 44.5516 305.552 42.9361 304.389 41.1119C303.391 40.1616 302.455 39.671 301.058 39.6452C298.92 39.9833 297.418 41.0527 295.74 42.3615C294.821 42.9639 294.131 43.1514 293.048 43.2905C289.577 38.2182 287.052 33.2222 286.668 26.9732C286.541 25.2709 286.178 24.2571 284.999 22.9563C283.497 21.8326 282.201 21.7086 280.377 21.7203C280.102 21.7178 279.827 21.7153 279.544 21.7127C278.638 21.7061 277.732 21.7075 276.826 21.7095C276.194 21.7079 275.562 21.7059 274.93 21.7038C273.607 21.7005 272.283 21.7014 270.96 21.705C269.267 21.7092 267.574 21.7018 265.881 21.6912C264.576 21.6846 263.271 21.6847 261.966 21.6867C261.342 21.6868 260.718 21.6846 260.094 21.6801C259.22 21.6747 258.347 21.6786 257.473 21.6848C257.217 21.6813 256.961 21.6778 256.697 21.6742C254.454 21.7074 253.181 22.6026 251.615 24.1137ZM179.854 31.8071C178.856 32.8051 177.908 33.8229 177.009 34.9092C176.405 35.5916 175.779 36.2158 175.124 36.8496C173.813 38.142 172.674 39.5139 171.561 40.9757C171.359 41.2401 171.158 41.5044 170.95 41.7767C166.868 47.1886 163.267 52.8699 159.98 58.787C159.568 59.5278 159.15 60.2647 158.729 61.0007C153.292 70.0436 153.292 70.0436 151.462 79.9648C152.053 80.6124 152.647 81.1889 153.291 81.7804C153.776 82.2539 154.259 82.7293 154.741 83.2058C155.004 83.4654 155.267 83.7249 155.538 83.9924C155.808 84.2585 156.078 84.5246 156.356 84.7987C156.622 85.0606 156.889 85.3225 157.164 85.5923C158.878 87.2858 160.506 89.0293 162.072 90.8581C162.313 90.7383 162.555 90.6185 162.804 90.495C162.559 87.7707 161.984 85.2375 161.273 82.5995C160.564 79.8141 160.458 77.512 160.243 74.5181C165.193 74.5181 170.143 74.5181 175.243 74.5181C176.129 72.3178 176.983 70.1705 177.707 67.9225C177.794 67.6531 177.881 67.3836 177.972 67.106C178.253 66.2338 178.532 65.3607 178.81 64.4872C178.954 64.033 178.954 64.033 179.102 63.5697C184.605 46.8467 184.605 46.8467 186.607 29.515C186.604 29.2346 186.6 28.9542 186.597 28.6654C186.593 28.459 186.589 28.2525 186.584 28.0399C183.712 28.0399 181.808 29.9671 179.854 31.8071ZM105.692 74.2103C101.835 76.3097 97.8882 78.2163 93.9317 80.1237C87.14 83.4007 80.3697 86.7177 73.6152 90.0697C72.905 90.4221 72.1945 90.7741 71.484 91.1259C66.6478 93.5215 61.8226 95.9329 57.0516 98.4547C55.6075 99.2162 54.1469 99.9415 52.6817 100.662C52.8813 102.847 53.3669 104.701 54.1423 106.75C54.2528 107.049 54.3633 107.348 54.4772 107.657C54.8359 108.625 55.1992 109.591 55.5628 110.557C55.8112 111.223 56.0594 111.89 56.3075 112.557C58.3171 117.941 60.402 123.294 62.5598 128.622C68.0612 128.117 75.0419 125.778 79.0232 121.723C80.2458 120.11 80.5016 118.39 80.8982 116.457C82.2024 110.628 84.4778 105.051 88.1695 100.299C88.444 99.9346 88.444 99.9346 88.724 99.5629C91.2938 96.3607 94.5736 94.3463 98.5964 93.4907C106.85 92.9056 113.442 94.9904 119.724 100.276C121.566 101.862 123.224 103.496 124.755 105.383C125.15 105.836 125.15 105.836 125.552 106.299C133.856 115.909 140.472 127.067 147.152 137.811C148.533 140.028 149.943 142.225 151.377 144.409C152.762 146.52 154.126 148.644 155.487 150.772C156.138 151.788 156.79 152.804 157.442 153.821C157.823 154.416 158.204 155.011 158.585 155.606C162.55 161.797 166.697 167.825 171.467 173.437C171.865 173.91 172.252 174.391 172.636 174.874C178.847 182.503 188.425 185.93 197.929 186.986C201.404 187.294 204.899 187.221 208.384 187.202C209.262 187.201 210.14 187.2 211.018 187.2C212.844 187.198 214.67 187.193 216.495 187.185C218.821 187.174 221.147 187.171 223.473 187.169C225.715 187.167 227.956 187.162 230.198 187.156C230.617 187.156 231.037 187.155 231.469 187.154C235.912 187.145 240.327 187.105 244.755 186.72C244.87 175.956 237.264 166.322 230.048 158.967C227.758 156.671 225.359 154.591 222.804 152.587C222.022 151.949 221.247 151.304 220.471 150.658C219.787 150.089 219.101 149.522 218.413 148.956C218.092 148.674 217.77 148.391 217.439 148.101C217.016 147.805 217.016 147.805 216.584 147.504C216.222 147.623 215.86 147.743 215.487 147.867C216.13 149.382 217.176 150.571 218.208 151.838C219.357 153.252 220.443 154.627 221.34 156.218C219.56 156.022 218.58 154.696 217.519 153.388C216.942 152.641 216.373 151.889 215.807 151.135C212.781 147.161 209.556 143.418 206.147 139.765C205.427 138.988 204.724 138.204 204.031 137.404C202.164 135.269 200.193 133.225 198.245 131.162C188.885 121.253 188.885 121.253 186.721 118.75C185.458 117.297 184.082 115.966 182.707 114.618C181.961 113.868 181.259 113.106 180.57 112.304C179.523 111.087 178.402 109.956 177.255 108.832C175.9 107.503 174.603 106.148 173.363 104.712C170.989 101.99 168.508 99.3761 165.908 96.8665C165.184 96.1306 164.511 95.3867 163.837 94.6074C162.495 93.0796 161.077 91.6453 159.624 90.2213C159.235 89.8375 159.235 89.8375 158.839 89.446C158.019 88.6374 157.199 87.8299 156.378 87.0228C155.295 85.9567 154.212 84.8895 153.13 83.8214C152.885 83.5816 152.641 83.3417 152.388 83.0945C151.068 81.7904 149.814 80.4575 148.621 79.0371C147.623 77.8773 146.415 76.9492 145.243 75.9706C144.918 75.6851 144.594 75.3995 144.259 75.1053C138.267 69.9333 131.835 67.2385 123.81 67.5555C117.254 68.0262 111.329 71.108 105.692 74.2103ZM293.779 78.1492C293.411 78.753 293.046 79.3585 292.682 79.9648C287.221 85.0061 279.718 88.3884 272.194 88.3164C269.26 88.1278 266.798 87.2794 264.511 85.4115C263.542 84.2328 262.871 82.9701 262.296 81.5639C261.629 80.5463 261.629 80.5463 260.251 80.4849C259.699 80.4852 259.147 80.4954 258.596 80.5137C258.305 80.5163 258.014 80.5189 257.715 80.5215C256.786 80.5317 255.858 80.5545 254.93 80.5775C254.301 80.5867 253.671 80.5949 253.042 80.6024C251.499 80.6224 249.956 80.6537 248.413 80.691C249.717 87.7953 251.472 94.7496 253.314 101.73C253.9 103.951 254.481 106.172 255.062 108.393C255.271 109.191 255.481 109.989 255.691 110.787C256.291 113.072 256.877 115.357 257.403 117.66C257.485 118.021 257.568 118.383 257.653 118.755C257.799 119.406 257.941 120.058 258.078 120.711C258.236 121.42 258.442 122.118 258.657 122.812C259.697 123.291 259.697 123.291 260.442 122.878C260.825 122.642 260.825 122.642 261.215 122.401C261.501 122.228 261.787 122.056 262.081 121.879C262.385 121.692 262.689 121.506 263.002 121.314C265.761 119.678 268.379 118.31 271.462 117.365C271.809 117.251 272.156 117.136 272.514 117.018C280.787 114.676 288.624 116.874 296.314 119.94C296.676 120.081 297.037 120.222 297.409 120.368C297.894 120.562 297.894 120.562 298.388 120.761C299.604 121.087 299.604 121.087 300.731 120.633C301.227 119.544 301.227 119.544 301.555 118.187C301.624 117.941 301.692 117.695 301.762 117.441C301.981 116.653 302.191 115.864 302.4 115.073C302.611 114.287 302.824 113.501 303.041 112.717C303.238 112.002 303.429 111.286 303.62 110.569C303.991 109.471 304.357 108.786 305.121 107.924C304.326 111.786 303.487 115.619 302.463 119.428C302.224 120.497 302.172 121.364 302.194 122.449C305.223 123.828 308.27 125.157 311.34 126.443C311.691 126.591 312.041 126.74 312.403 126.893C314.35 127.695 316.189 128.386 318.292 128.622C319.799 127.976 320.561 126.957 321.584 125.717C327.061 121.523 334.231 120.922 340.883 120.769C341.392 120.756 341.901 120.741 342.409 120.727C343.638 120.693 344.867 120.662 346.096 120.633C342.623 113.392 338.424 107.013 332.941 101.109C332.252 100.362 331.594 99.5979 330.936 98.8239C322.695 89.5129 307.576 79.4502 294.968 77.9904C294.38 78.069 294.38 78.069 293.779 78.1492ZM4.02319 79.9648C4.02319 81.6297 4.559 82.5952 5.32512 84.0172C6.8033 86.8548 8.02728 89.7504 9.20215 92.722C15.7342 109.201 23.5714 124.882 33.6573 139.515C39.1888 137.827 44.9563 133.816 48.6573 129.348C48.7781 128.988 48.8988 128.629 49.0232 128.259C48.7803 128.122 48.5374 127.986 48.2872 127.846C43.6569 125.182 41.352 121.735 39.8769 116.639C39.6703 114.819 39.6692 113.022 39.6939 111.192C39.8909 108.208 39.8909 108.208 39.118 105.412C38.5919 104.856 38.5919 104.856 37.6817 104.293C37.4403 104.069 37.1988 103.844 36.95 103.612C36.222 103.128 36.222 103.128 35.2808 103.204C34.0712 103.696 33.8177 104.207 33.2915 105.383C33.0303 106.542 33.0303 106.542 32.9256 107.561C32.3823 107.382 32.3823 107.382 31.8281 107.198C32.01 105.392 32.3962 104.062 33.2915 102.478C32.775 102.12 32.2563 101.765 31.7366 101.411C31.3037 101.114 31.3037 101.114 30.862 100.811C30.0623 100.337 29.4444 100.099 28.5354 99.9359C28.2897 100.404 28.0462 100.873 27.8037 101.343C27.6679 101.604 27.532 101.865 27.3921 102.134C27.0219 102.822 27.0219 102.822 27.072 103.567C26.589 103.567 26.1061 103.567 25.6086 103.567C25.692 103.269 25.7755 102.972 25.8615 102.665C25.9667 102.274 26.0718 101.882 26.1802 101.479C26.2863 101.092 26.3924 100.704 26.5018 100.305C26.7645 98.978 26.7645 98.978 26.3403 97.7573C25.684 97.1049 25.0338 96.5131 24.3281 95.919C22.5272 94.3426 20.9834 92.6959 19.4934 90.8198C18.2258 89.2263 16.8969 87.686 15.569 86.1419C15.018 85.4982 14.4717 84.8502 13.937 84.1931C12.1831 82.0755 10.0262 79.9892 7.28015 79.3294C6.0222 79.2218 5.18403 79.4985 4.02319 79.9648ZM2.19392 82.8697C2.15293 83.55 2.12539 84.2311 2.10246 84.9122C2.08548 85.2913 2.0685 85.6705 2.05101 86.0611C2.24828 90.3327 4.32802 94.3846 6.12685 98.1884C6.3697 98.7093 6.61216 99.2303 6.85427 99.7515C7.36014 100.839 7.86785 101.927 8.37699 103.013C9.49883 105.409 10.6023 107.814 11.7073 110.218C12.0729 111.013 12.4392 111.807 12.8057 112.601C14.0267 115.248 15.2421 117.896 16.4465 120.55C20.6132 131.889 20.6132 131.889 27.8037 140.968C29.4018 141.508 30.6021 141.494 32.1939 140.968C32.0141 139.253 31.2053 138.168 30.1817 136.837C28.2225 134.199 26.5182 131.463 24.8769 128.622C24.7355 128.379 24.5942 128.136 24.4487 127.885C18.0085 116.757 12.6598 104.964 8.30831 92.8819C6.27439 87.1611 6.27439 87.1611 2.19392 82.8697ZM91.2564 98.8466C83.6008 107.016 80.7738 119.35 77.8096 129.755C77.2314 131.777 76.6195 133.789 76.0006 135.799C74.7467 139.88 73.5648 143.971 72.4618 148.094C71.0678 153.295 69.606 158.474 68.0833 163.639C67.9928 163.946 67.9023 164.254 67.809 164.57C67.1664 166.749 66.5211 168.928 65.8753 171.106C65.2194 173.319 64.5645 175.532 63.9118 177.745C63.6561 178.611 63.3989 179.475 63.1415 180.34C61.3289 185.977 61.3289 185.977 60.7305 191.803C64.5597 192.831 68.3991 193.806 72.2506 194.748C72.807 194.884 73.3634 195.02 73.9198 195.157C75.0722 195.439 76.2248 195.721 77.3775 196.002C78.856 196.364 80.3342 196.726 81.8123 197.089C82.9548 197.369 84.0976 197.649 85.2404 197.928C85.7862 198.062 86.3319 198.196 86.8775 198.33C87.6345 198.516 88.3917 198.7 89.1489 198.885C89.5792 198.99 90.0095 199.095 90.4528 199.204C91.4088 199.455 91.4088 199.455 92.1939 199.428C94.2119 194.487 96.1403 189.519 98.0019 184.518C98.2609 183.824 98.5201 183.129 98.7793 182.435C99.1641 181.404 99.5487 180.373 99.9329 179.342C100.604 177.542 101.279 175.744 101.961 173.948C104.045 168.445 105.99 162.898 107.919 157.341C109.451 152.931 111.036 148.555 112.75 144.213C116.332 135.083 118.121 126.149 114.877 116.639C115.36 116.759 115.843 116.879 116.34 117.002C117.331 120.153 117.611 123.15 117.581 126.433C117.575 127.193 117.581 127.951 117.588 128.71C117.592 131.631 117.273 134.201 116.34 136.973C115.997 138.074 115.935 138.68 115.974 139.878C116.881 141.32 118.045 142.413 119.402 143.437C120.381 144.249 121.098 145.075 121.879 146.073C123.654 148.267 125.592 150.256 127.599 152.238C127.97 152.607 128.341 152.976 128.712 153.345C129.484 154.112 130.257 154.878 131.031 155.643C132.012 156.613 132.99 157.585 133.967 158.559C134.731 159.32 135.496 160.079 136.263 160.838C136.623 161.195 136.984 161.553 137.343 161.912C139.457 164.018 141.624 165.985 143.971 167.834C144.88 168.566 145.737 169.336 146.592 170.13C156.913 179.408 169.869 186.547 183.97 187.142C185.157 187.208 185.157 187.208 185.852 186.356C185.65 186.24 185.447 186.123 185.239 186.003C175.947 180.621 175.947 180.621 172.459 176.196C171.687 175.229 170.89 174.302 170.069 173.376C163.22 165.63 157.73 156.914 152.194 148.23C149.354 143.779 146.492 139.345 143.584 134.939C142.161 132.78 140.766 130.605 139.389 128.417C134.606 120.85 129.494 113.286 123.657 106.472C123.204 105.943 123.204 105.943 122.741 105.402C117.513 99.4438 110.815 95.5112 102.781 94.9204C98.1608 94.677 94.7238 95.7144 91.2564 98.8466ZM205.243 104.656C204.425 106.279 204.792 108.019 205.311 109.672C206.046 110.954 206.441 111.365 207.804 111.919C209.867 112.45 211.073 112.233 212.926 111.192C214.048 110.164 214.355 109.639 214.549 108.129C214.306 106.165 213.673 105.081 212.354 103.612C211.089 102.648 209.88 102.585 208.32 102.659C206.879 102.956 206.236 103.595 205.243 104.656ZM46.6223 106.563C46.2764 106.706 45.9304 106.85 45.574 106.998C45.2404 107.141 44.9067 107.284 44.5629 107.431C44.2604 107.56 43.9578 107.689 43.6461 107.823C42.5126 108.448 41.5656 109.182 41.0744 110.398C40.4623 115.259 41.2052 119.022 44.2214 122.971C46.2251 125.364 46.2251 125.364 49.0168 126.557C51.2987 126.596 53.0069 126.033 55.0598 125.081C55.3559 124.955 55.6521 124.829 55.9573 124.698C57.4965 124.12 57.4965 124.12 58.4227 122.893C58.5635 121.884 58.3599 121.308 58.006 120.354C57.8814 120.013 57.7569 119.671 57.6286 119.319C57.4906 118.953 57.3527 118.588 57.2106 118.211C57.072 117.834 56.9335 117.457 56.7907 117.069C56.347 115.865 55.8978 114.664 55.4485 113.462C55.1468 112.646 54.8455 111.831 54.5446 111.015C53.8058 109.015 53.0626 107.017 52.3159 105.019C50.1442 104.976 48.5928 105.709 46.6223 106.563ZM261.218 124.264C260.856 124.504 260.494 124.744 260.121 124.991C260.241 125.949 260.362 126.908 260.487 127.896C260.814 127.71 260.814 127.71 261.148 127.521C267.207 124.161 273.55 120.967 280.609 120.633C280.609 120.993 280.609 121.352 280.609 121.723C279.907 121.745 279.907 121.745 279.191 121.768C274.065 122.293 269.248 124.58 264.877 127.169C264.496 127.392 264.116 127.614 263.724 127.843C262.375 128.664 262.375 128.664 261.218 129.711C261.101 130.85 261.066 131.586 261.584 132.616C264.656 132.499 267.119 130.764 269.747 129.32C273.563 127.276 277.441 126.08 281.706 125.354C281.706 125.713 281.706 126.073 281.706 126.443C281.351 126.488 280.997 126.533 280.631 126.579C276.973 127.11 274.021 128.197 270.807 129.989C269.909 130.487 269.004 130.969 268.098 131.451C267.458 131.801 266.819 132.151 266.18 132.502C265.874 132.666 265.569 132.83 265.254 132.999C263.579 133.887 263.579 133.887 262.669 135.46C262.673 135.72 262.677 135.979 262.682 136.247C267.295 136.535 270.495 135.181 274.525 133.077C277.224 131.783 279.804 132.1 282.576 132.983C283.568 133.354 284.503 133.79 285.456 134.25C288.682 135.751 292.173 136.342 295.72 136.427C298.3 136.906 300.246 138.444 302.148 140.151C302.597 140.542 303.045 140.933 303.494 141.324C303.71 141.512 303.926 141.701 304.149 141.896C305.529 143.089 306.974 144.203 308.413 145.325C308.799 145.629 309.185 145.933 309.571 146.237C310.887 147.272 312.209 148.298 313.535 149.319C313.767 149.497 313.998 149.675 314.236 149.859C319.688 154.037 325.392 157.709 331.462 160.939C331.689 161.06 331.916 161.182 332.15 161.308C332.81 161.659 333.473 162.004 334.138 162.346C334.513 162.539 334.889 162.733 335.277 162.933C339.674 164.774 345.837 165.903 350.441 164.114C353.266 162.573 355.859 160.22 357.049 157.194C359.75 147.89 355.768 138.941 351.926 130.57C351.7 130.077 351.475 129.583 351.253 129.088C350.935 128.384 350.609 127.683 350.281 126.983C349.997 126.369 349.997 126.369 349.708 125.741C348.731 124.152 347.565 123.172 345.866 122.342C344 121.954 342.167 121.963 340.266 121.972C339.652 121.975 339.652 121.975 339.027 121.978C332.734 122.066 325.971 123.467 321.218 127.896C320.971 129.013 320.971 129.013 320.852 130.074C324.941 131.615 329.05 133.088 333.177 134.522C334.006 134.811 334.836 135.099 335.665 135.388C336.173 135.566 336.682 135.743 337.192 135.919C337.844 136.147 338.495 136.378 339.145 136.61C339.487 136.72 339.83 136.829 340.182 136.942C341.132 137.415 341.346 137.815 341.706 138.789C326.893 133.919 312.337 128.5 298.092 122.165C294.035 120.37 290.049 118.788 285.731 117.728C285.448 117.656 285.165 117.584 284.873 117.51C276.029 116.193 268.222 119.026 261.218 124.264ZM73.9956 125.87C73.5749 126.063 73.1542 126.256 72.7208 126.454C71.8443 126.863 70.9693 127.274 70.0941 127.686C67.2571 128.984 64.5352 129.87 61.4622 130.437C61.2208 129.479 60.9793 128.52 60.7305 127.532C60.2476 127.532 59.7647 127.532 59.2671 127.532C56.8912 151.133 56.8912 151.133 54.5787 174.74C54.5037 175.518 54.4283 176.295 54.3523 177.073C54.2503 178.119 54.1502 179.165 54.0508 180.212C54.0224 180.5 53.994 180.787 53.9648 181.084C53.7892 182.969 53.7568 184.826 53.7793 186.72C54.5412 186.791 55.3035 186.858 56.0659 186.924C56.4903 186.962 56.9148 187 57.3521 187.039C58.3968 187.078 59.0406 187.091 59.9988 186.72C60.3731 186.133 60.3731 186.133 60.5604 185.368C60.6505 185.067 60.7405 184.767 60.8333 184.457C60.9748 183.948 60.9748 183.948 61.1192 183.429C61.2247 183.069 61.3301 182.709 61.4387 182.338C61.8215 181.017 62.1923 179.693 62.5598 178.368C62.6343 178.1 62.7088 177.831 62.7855 177.555C63.5529 174.788 64.3168 172.021 65.0765 169.252C66.0167 165.834 66.9933 162.434 68.0704 159.055C69.3317 155.094 70.426 151.099 71.4989 147.085C72.3846 143.774 73.3018 140.477 74.2971 137.197C74.3904 136.89 74.4837 136.582 74.5798 136.265C75.0311 134.781 75.4872 133.299 75.9489 131.818C76.1134 131.283 76.2778 130.747 76.4422 130.212C76.5186 129.972 76.595 129.732 76.6738 129.485C77.1057 128.068 77.2692 126.831 77.1939 125.354C75.7501 124.876 75.3529 125.232 73.9956 125.87ZM272.56 136.247C276.906 136.247 281.252 136.247 285.731 136.247C283.759 134.29 281.687 133.543 278.939 133.161C276.302 133.541 274.447 134.374 272.56 136.247ZM286.828 136.973C286.707 138.172 286.587 139.37 286.462 140.604C271.892 141.03 257.318 141.078 242.742 141.155C239.322 141.174 235.902 141.193 232.482 141.213C225.475 141.254 218.469 141.293 211.462 141.331C211.462 141.69 211.462 142.05 211.462 142.42C211.995 142.948 211.995 142.948 212.723 143.419C213.129 143.702 213.129 143.702 213.544 143.991C213.985 144.292 213.985 144.292 214.435 144.599C215.042 145.023 215.649 145.449 216.255 145.875C216.559 146.088 216.862 146.301 217.175 146.52C220.272 148.722 223.217 151.103 226.018 153.666C226.737 154.32 227.474 154.94 228.223 155.56C237.097 163.285 243.373 173.804 246.251 185.121C246.455 186.288 246.455 186.288 246.95 186.72C257.478 188.026 269.418 180.298 277.35 174.235C278.33 173.451 279.291 172.65 280.243 171.832C280.529 171.589 280.814 171.345 281.109 171.094C285.451 167.308 289.493 163.281 292.937 158.669C293.415 158.032 293.901 157.402 294.388 156.773C296.413 154.129 298.25 151.387 300.022 148.57C300.227 148.246 300.432 147.922 300.643 147.588C301.614 146.021 302.447 144.578 302.926 142.783C299.863 139.814 296.805 137.418 292.402 137.222C292.076 137.206 291.751 137.191 291.416 137.175C291.079 137.161 290.742 137.147 290.395 137.132C290.053 137.116 289.71 137.101 289.358 137.085C288.514 137.046 287.671 137.01 286.828 136.973ZM114.877 142.057C114.801 142.27 114.724 142.482 114.646 142.702C113.649 145.483 112.651 148.264 111.653 151.044C111.572 151.27 111.491 151.496 111.407 151.728C108.583 159.591 105.716 167.438 102.806 175.27C102.53 176.014 102.255 176.758 101.979 177.503C101.856 177.833 101.733 178.162 101.606 178.502C100.057 182.511 100.057 182.511 99.511 186.72C123.054 186.72 146.596 186.72 170.852 186.72C170.24 185.505 168.843 185.248 167.628 184.745C157.739 180.512 148.999 174.432 141.065 167.234C140.558 166.778 140.049 166.325 139.528 165.886C137.255 163.962 135.156 161.876 133.05 159.778C132.416 159.147 131.781 158.518 131.145 157.89C129.059 155.82 127.024 153.736 125.121 151.498C123.149 149.271 121.116 147.137 118.984 145.061C118.305 144.372 117.707 143.683 117.118 142.919C116.861 142.635 116.605 142.35 116.34 142.057C115.857 142.057 115.374 142.057 114.877 142.057ZM304.023 144.599C303.902 144.797 303.781 144.996 303.656 145.201C298.615 153.445 293.143 161.167 286.462 168.201C286.187 168.493 285.912 168.785 285.629 169.086C283.182 171.605 280.506 173.746 277.682 175.826C277.484 175.972 277.286 176.117 277.083 176.268C272.257 179.783 267.1 182.44 261.62 184.805C261.288 184.949 260.956 185.094 260.614 185.243C260.316 185.371 260.018 185.498 259.711 185.629C258.961 185.942 258.961 185.942 258.657 186.72C260.921 187.047 263.127 187.143 265.412 187.157C265.785 187.161 266.158 187.164 266.542 187.168C267.775 187.18 269.007 187.189 270.239 187.198C271.11 187.205 271.981 187.213 272.853 187.22C274.686 187.236 276.518 187.251 278.351 187.265C280.655 187.283 282.958 187.302 285.261 187.323C295.783 187.415 306.305 187.472 316.828 187.446C316.828 187.805 316.828 188.165 316.828 188.535C220.484 188.715 220.484 188.715 122.194 188.898C121.26 191.06 120.958 191.82 120.963 193.995C120.964 194.468 120.964 194.941 120.964 195.429C120.967 195.672 120.97 195.916 120.973 196.166C120.982 196.909 120.981 197.651 120.978 198.394C120.852 202.108 120.852 202.108 122.56 205.238C123.617 205.309 124.638 205.334 125.695 205.328C126.025 205.328 126.355 205.329 126.695 205.33C127.814 205.332 128.932 205.329 130.051 205.326C130.856 205.326 131.661 205.327 132.466 205.327C134.687 205.329 136.909 205.326 139.131 205.323C141.277 205.32 143.424 205.32 145.571 205.321C149.964 205.322 154.357 205.319 158.75 205.315C163.102 205.311 167.453 205.308 171.805 205.307C172.075 205.307 172.345 205.307 172.624 205.307C173.996 205.307 175.369 205.307 176.742 205.306C186.47 205.305 196.199 205.3 205.928 205.293C215.381 205.286 224.834 205.281 234.287 205.278C234.578 205.278 234.869 205.278 235.17 205.278C238.094 205.277 241.019 205.276 243.944 205.275C249.902 205.273 255.86 205.271 261.819 205.269C262.093 205.269 262.367 205.269 262.649 205.269C280.953 205.262 299.256 205.25 317.56 205.238C318.115 203.633 318.499 202.098 318.782 200.423C318.826 200.168 318.869 199.913 318.914 199.651C319.008 199.099 319.101 198.548 319.194 197.996C319.342 197.113 319.492 196.23 319.643 195.348C319.964 193.463 320.283 191.578 320.601 189.693C321.017 187.231 321.434 184.77 321.854 182.31C321.905 182.011 321.956 181.713 322.008 181.405C322.708 177.311 323.456 173.233 324.309 169.168C324.881 166.442 325.355 163.714 325.609 160.939C325.666 160.626 325.723 160.313 325.781 159.991C325.683 158.998 325.683 158.998 324.56 158.317C324.074 158.036 323.585 157.76 323.093 157.489C322.551 157.172 322.011 156.853 321.471 156.532C321.188 156.363 320.905 156.195 320.614 156.022C319.192 155.144 317.838 154.178 316.485 153.2C316.213 153.004 315.941 152.807 315.66 152.605C314.249 151.58 312.855 150.536 311.473 149.472C311.198 149.26 310.922 149.048 310.638 148.83C310.118 148.428 309.6 148.024 309.084 147.617C307.476 146.37 305.876 145.452 304.023 144.599ZM37.7482 189.551C37.0932 190.763 37.1593 191.972 37.1701 193.314C37.1691 193.599 37.168 193.885 37.1669 194.179C37.1662 194.781 37.1682 195.383 37.1728 195.985C37.1787 196.908 37.1728 197.829 37.1658 198.751C37.1665 199.337 37.1679 199.922 37.1701 200.508C37.1679 200.784 37.1656 201.059 37.1634 201.343C37.1752 202.823 37.1752 202.823 37.8052 204.127C38.9069 204.825 39.8604 204.922 41.1302 204.923C41.6374 204.924 41.6374 204.924 42.1549 204.925C42.7138 204.923 42.7138 204.923 43.2839 204.921C43.8671 204.919 43.8671 204.919 44.4621 204.918C50.4961 204.888 56.5287 204.69 62.5598 204.512C62.921 203.589 63.2793 202.664 63.6359 201.739C63.7377 201.48 63.8396 201.22 63.9445 200.953C64.8199 198.67 65.5582 196.374 64.7549 193.982C63.7623 193.662 62.82 193.409 61.8052 193.187C61.5277 193.123 61.2501 193.059 60.9642 192.992C60.2775 192.834 59.5895 192.681 58.9012 192.529C58.9012 191.331 58.9012 190.133 58.9012 188.898C56.249 188.865 53.5967 188.839 50.9443 188.823C49.7126 188.815 48.4811 188.805 47.2496 188.789C45.8338 188.771 44.4182 188.763 43.0023 188.756C42.5598 188.749 42.1174 188.741 41.6615 188.734C41.2514 188.734 40.8413 188.733 40.4188 188.733C40.0572 188.73 39.6957 188.727 39.3232 188.724C38.3703 188.82 38.3703 188.82 37.7482 189.551ZM97.4366 189.86C97.2761 190.262 97.1155 190.663 96.95 191.077C96.7844 191.441 96.6187 191.805 96.4481 192.179C96.3024 192.559 96.1568 192.938 96.0068 193.329C95.8465 193.745 95.6861 194.161 95.5209 194.589C95.3587 195.018 95.1964 195.446 95.0293 195.888C94.8614 196.322 94.6935 196.757 94.5205 197.204C93.657 199.171 93.657 199.171 93.2915 201.244C92.8876 201.159 92.8876 201.159 92.4755 201.072C92.1185 201.002 91.7614 200.931 91.3936 200.858C91.0413 200.787 90.689 200.715 90.3261 200.641C89.2539 200.516 88.4757 200.612 87.4378 200.881C87.2529 201.402 87.0704 201.924 86.889 202.447C86.7872 202.737 86.6853 203.028 86.5804 203.328C86.2893 204.181 86.2893 204.181 86.3403 205.238C90.6748 205.247 95.0093 205.253 99.3438 205.257C101.356 205.259 103.369 205.262 105.381 205.266C107.322 205.27 109.262 205.272 111.202 205.273C111.944 205.273 112.687 205.275 113.429 205.277C114.464 205.279 115.5 205.28 116.535 205.279C116.845 205.281 117.155 205.282 117.475 205.283C118.848 205.413 118.848 205.413 119.999 204.875C120.033 204.373 120.042 203.87 120.04 203.367C120.04 203.047 120.04 202.728 120.04 202.398C120.038 202.05 120.036 201.703 120.035 201.345C120.034 200.991 120.033 200.636 120.033 200.272C120.031 199.136 120.026 198 120.022 196.864C120.02 196.096 120.018 195.328 120.017 194.56C120.013 192.673 120.007 190.785 119.999 188.898C117.21 188.848 114.421 188.809 111.631 188.785C110.336 188.774 109.041 188.759 107.746 188.734C106.257 188.706 104.768 188.695 103.278 188.685C102.814 188.674 102.349 188.663 101.87 188.651C99.395 188.568 99.395 188.568 97.4366 189.86ZM67.3159 195.071C66.5009 197.221 65.7159 199.338 65.2122 201.584C65.1236 201.97 65.0349 202.355 64.9435 202.752C64.7114 203.849 64.7114 203.849 64.7549 205.238C65.5737 205.888 65.5737 205.888 66.6299 206.441C68.2434 207.394 69.3729 208.267 70.4571 209.784C72.1227 211.515 74.9565 211.339 77.1939 211.411C79.4795 211.392 81.3623 211.268 83.0476 209.596C83.6971 208.306 84.1123 206.985 84.511 205.601C84.6251 205.217 84.7393 204.832 84.8568 204.435C85.3697 202.578 85.6733 201.321 85.2427 199.428C79.3026 197.786 73.3574 196.299 67.3159 195.071ZM57.4378 209.959C57.6628 210.121 57.8877 210.284 58.1195 210.451C61.0498 212.626 61.0498 212.626 61.8281 214.316C62.0092 214.676 62.0092 214.676 62.1939 215.042C60.463 214.559 59.3781 213.52 58.0852 212.34C57.2575 211.617 56.7982 211.426 55.7 211.252C54.2046 211.452 53.7238 211.983 52.7189 213.042C52.2439 213.575 52.2439 213.575 52.3159 214.316C53.6439 215.035 54.972 215.754 56.3403 216.495C56.3403 216.854 56.3403 217.214 56.3403 217.584C55.1191 217.441 54.4844 217.203 53.4592 216.495C52.1193 215.644 51.3453 215.405 49.7549 215.405C48.7174 215.794 47.7759 216.288 46.8281 216.858C46.8281 217.337 46.8281 217.816 46.8281 218.31C47.0266 218.394 47.2252 218.478 47.4297 218.564C49.0913 219.316 50.078 219.849 50.8525 221.578C48.083 220.6 48.083 220.6 47.0567 219.876C45.3945 219.051 43.4255 219.123 41.6472 219.621C40.8664 219.937 40.11 220.284 39.3509 220.648C35.9926 222.166 32.5557 223.304 29.0257 224.366C26.6574 225.109 24.3922 225.881 22.6817 227.751C22.4274 228.352 22.1823 228.957 21.95 229.567C28.8455 229.575 35.7411 229.582 42.6366 229.586C45.8394 229.587 49.0422 229.59 52.245 229.594C55.0414 229.598 57.8378 229.6 60.6342 229.601C62.1105 229.601 63.5867 229.602 65.063 229.605C71.9216 229.617 78.7561 229.538 85.6086 229.204C87.1008 223.74 85.624 216.965 83.7793 211.774C83.0889 211.954 83.0889 211.954 82.3845 212.137C79.0642 212.782 74.4259 213.395 71.3174 211.797C69.7962 210.747 68.4437 209.454 67.1172 208.174C65.9234 207.168 64.7047 206.452 63.1543 206.169C60.5701 206.596 58.9444 207.903 57.4378 209.959ZM85.2427 210.322C85.2851 210.538 85.3275 210.753 85.3712 210.976C85.5657 211.968 85.7586 212.96 85.9515 213.953C86.0183 214.292 86.085 214.632 86.1538 214.981C86.8929 218.796 87.1292 222.366 87.1177 226.253C87.1191 226.729 87.1205 227.205 87.122 227.696C87.1215 228.163 87.121 228.629 87.1206 229.11C87.1201 229.529 87.1197 229.948 87.1193 230.379C87.0614 232.05 86.8737 233.713 86.7061 235.376C94.6744 235.376 102.643 235.376 110.852 235.376C111.573 233.231 112.126 231.475 112.499 229.303C112.565 228.92 112.565 228.92 112.633 228.53C112.774 227.711 112.911 226.891 113.048 226.072C113.144 225.505 113.24 224.939 113.336 224.372C113.89 221.072 114.409 217.769 114.854 214.452C114.901 214.106 114.948 213.761 114.996 213.405C115.096 212.621 115.172 211.835 115.243 211.048C114.471 210.282 112.771 210.59 111.703 210.57C111.208 210.559 111.208 210.559 110.704 210.547C109.618 210.523 108.532 210.502 107.445 210.481C106.894 210.469 106.894 210.469 106.331 210.457C99.3013 210.311 92.2739 210.279 85.2427 210.322ZM127.682 210.685C125.676 219.124 125.676 219.124 123.833 227.595C123.673 228.377 123.509 229.158 123.345 229.94C123.24 230.448 123.135 230.956 123.03 231.465C122.939 231.905 122.848 232.345 122.754 232.799C122.519 233.972 122.519 233.972 122.56 235.376C177.131 235.376 231.701 235.376 287.926 235.376C291.531 222.866 291.531 222.866 291.218 210.685C237.251 210.685 183.284 210.685 127.682 210.685ZM58.898 231.241C55.0478 231.415 51.1973 231.5 47.344 231.577C46.5932 231.592 45.8424 231.608 45.0916 231.624C43.1472 231.665 41.2028 231.704 39.2584 231.744C37.2615 231.785 35.2647 231.826 33.2679 231.868C29.3733 231.949 25.4788 232.029 21.5842 232.108C21.848 233.298 22.0811 233.869 23.0476 234.65C25.1351 235.936 27.5958 235.791 29.9673 235.779C30.2902 235.779 30.6131 235.779 30.9458 235.778C32.0207 235.777 33.0955 235.773 34.1704 235.769C34.9368 235.768 35.7032 235.766 36.4696 235.765C38.5243 235.76 40.5791 235.753 42.6338 235.745C43.8904 235.74 45.1471 235.735 46.4037 235.731C51.0582 235.714 55.7126 235.689 60.367 235.654C62.5419 235.638 64.7169 235.623 66.8919 235.614C69.0491 235.604 71.2061 235.59 73.3633 235.571C74.1732 235.565 74.9832 235.561 75.7932 235.559C76.9108 235.555 78.028 235.545 79.1455 235.533C79.6371 235.534 79.6371 235.534 80.1386 235.535C81.9821 235.507 83.2878 235.32 84.8769 234.287C85.5647 233.077 85.6086 232.436 85.6086 231.019C82.9395 231.011 80.2705 231.004 77.6014 231C76.361 230.998 75.1206 230.996 73.8802 230.992C72.4424 230.987 71.0046 230.985 69.5667 230.984C69.138 230.982 68.7093 230.98 68.2676 230.978C65.1382 230.978 62.0236 231.097 58.898 231.241Z" fill="black"/>
<path d="M279.143 34.4407C279.436 34.4313 279.729 34.4219 280.03 34.4122C282.037 34.4059 283.072 34.7673 284.631 36.0293C284.996 36.3925 284.996 36.3925 285.042 37.4818C284.996 38.5711 284.996 38.5711 284.631 38.9342C284.14 38.9716 283.648 38.9845 283.156 38.987C282.844 38.9893 282.531 38.9916 282.209 38.994C281.869 38.9944 281.529 38.9948 281.179 38.9952C280.832 38.9964 280.485 38.9976 280.128 38.9989C279.393 39.0007 278.657 39.0016 277.922 39.0015C276.794 39.0023 275.666 39.0089 274.537 39.0158C273.825 39.0169 273.112 39.0176 272.399 39.0179C271.89 39.0218 271.89 39.0218 271.371 39.0258C271.057 39.0247 270.743 39.0236 270.42 39.0224C270.143 39.023 269.867 39.0235 269.582 39.024C268.899 38.9342 268.899 38.9342 268.167 38.208C268.121 37.0733 268.121 37.0733 268.167 36.0293C271.727 34.7726 275.392 34.5048 279.143 34.4407Z" fill="black"/>
<path d="M262.053 41.8389C262.881 42.1659 262.63 42.0627 263.475 42.3963C263.368 45.7413 263.112 49.027 260.714 51.5838C260.54 51.7426 260.057 52.0808 259.877 52.2445C259.297 52.9746 259.04 53.4006 260.044 54.722C261.551 56.0433 264.683 55.376 267.073 55.713C266.852 56.3671 266.632 57.0211 266.404 57.695C260.21 57.9621 260.21 57.9621 257.701 55.7956C257.177 54.6321 257.051 53.6315 257.366 52.4096C257.857 51.7167 258.192 51.7167 258.81 51.0057C260.281 49.3087 260.642 47.6311 261.049 45.4726C261.645 42.5716 261.31 42.5716 262.053 41.8389Z" fill="black"/>
<path d="M212.561 41.1133C213.546 41.1773 214.511 41.3378 215.488 41.4764C215.247 42.3152 215.005 43.154 214.756 44.0182C214.032 44.0182 213.308 44.0182 212.561 44.0182C212.422 43.1735 212.3 42.3259 212.195 41.4764C212.316 41.3566 212.437 41.2367 212.561 41.1133Z" fill="black"/>
<path d="M256.827 41.8397C257.623 42.6553 257.898 43.248 257.972 44.3844C257.888 45.7476 257.773 46.3654 256.736 47.3091C255.586 47.6981 255.038 47.6832 253.9 47.2864C252.985 46.3784 253.05 46.0235 253.031 44.7673C253.021 44.4495 253.011 44.1317 253 43.8042C253.169 42.9291 253.169 42.9291 253.839 42.2809C254.927 41.6757 255.602 41.6327 256.827 41.8397Z" fill="black"/>
<path d="M274.372 41.7246C275.493 41.8381 275.493 41.8381 276.104 42.2877C276.72 43.0981 276.727 43.5558 276.705 44.5614C276.703 44.8423 276.702 45.1231 276.7 45.4125C276.59 46.1954 276.59 46.1954 275.859 47.2848C275.147 47.3911 275.147 47.3911 274.349 47.3528C273.882 47.3304 273.414 47.3079 272.932 47.2848C272.257 46.1568 272.125 45.45 272.291 44.1529C272.324 43.8711 272.356 43.5894 272.389 43.299C272.688 42.0561 273.121 41.8567 274.372 41.7246Z" fill="black"/>
<path d="M303.657 44.018C303.489 44.9816 303.358 45.696 302.925 46.5598C301.691 47.3087 301.691 47.3087 301.006 47.6335C299.942 48.2615 299.504 49.1373 298.901 50.1909C298.418 50.0711 297.935 49.9513 297.438 49.8278C297.484 47.5986 298.236 46.583 299.746 44.9627C300.973 43.8091 302.019 43.9879 303.657 44.018Z" fill="black"/>
<path d="M33.6587 45.7881C34.7563 45.8335 34.7563 45.8335 35.1221 46.1966C35.1371 46.9227 35.1377 47.6492 35.1221 48.3753C34.277 48.4951 33.4319 48.6149 32.5612 48.7384C32.4219 47.8937 32.3004 47.0461 32.1953 46.1966C32.5612 45.8335 32.5612 45.8335 33.6587 45.7881Z" fill="black"/>
<path d="M274.755 59.6318C274.755 60.6304 274.755 60.6304 274.389 61.8105C271.726 63.9145 267.884 64.1156 264.626 64.1026C264.327 64.1085 264.029 64.1143 263.722 64.1204C261.874 64.1219 260.641 63.8825 259.023 62.8998C259.023 62.4205 259.023 61.9412 259.023 61.4474C259.233 61.444 259.442 61.4406 259.658 61.4371C264.039 61.3486 268.141 61.0103 272.393 59.9368C273.658 59.6318 273.658 59.6318 274.755 59.6318Z" fill="black"/>
<path d="M333.107 73.3838C334.022 73.4292 334.022 73.4292 334.388 73.7923C334.439 74.762 334.403 75.7256 334.388 76.6972C333.534 76.7126 332.68 76.712 331.827 76.6972C331.706 76.5774 331.585 76.4575 331.461 76.3341C331.772 73.45 331.772 73.45 333.107 73.3838Z" fill="black"/>
<path d="M23.7833 158.761C24.5176 158.865 25.2498 158.985 25.9784 159.124C26.2071 160.349 26.2071 160.349 26.3442 161.666C26.1028 161.905 25.8613 162.145 25.6125 162.392C24.4693 162.256 24.4693 162.256 23.4174 162.029C23.3817 159.795 23.3817 159.795 23.4174 159.124C23.5382 159.004 23.6589 158.884 23.7833 158.761Z" fill="black"/>
<path d="M119.638 172.196C120.372 172.3 121.105 172.421 121.833 172.559C121.833 173.518 121.833 174.477 121.833 175.464C120.781 175.691 120.781 175.691 119.638 175.827C119.396 175.588 119.155 175.348 118.906 175.101C119.117 172.713 119.117 172.713 119.638 172.196Z" fill="black"/>
<path d="M350.855 196.161C350.976 197 351.097 197.839 351.221 198.703C350.134 198.703 349.048 198.703 347.928 198.703C347.677 197.863 347.677 197.863 347.562 196.887C348.391 195.437 349.387 195.805 350.855 196.161Z" fill="black"/>
</g>
<defs>
<clipPath id="clip0_244_1141">
<rect width="360" height="236.386" fill="white" transform="translate(0 0.807617)"/>
</clipPath>
</defs>
</svg>
