<svg width="280" height="184" viewBox="0 0 280 184" fill="none" xmlns="http://www.w3.org/2000/svg">
<g clip-path="url(#clip0_244_1238)">
<path d="M231.335 6.33318C231.524 6.50356 231.713 6.67394 231.908 6.84948C232.123 7.03733 232.339 7.22519 232.56 7.41873C235.932 10.5348 237.555 14.5328 237.718 19.0546C237.742 21.6967 237.318 24.2607 236.849 26.854C236.688 27.8078 236.574 28.765 236.461 29.7255C236.713 29.8536 236.965 29.9818 237.225 30.1138C238.656 31.0685 239.385 32.6638 239.719 34.3093C239.862 36.9987 238.715 39.597 236.99 41.6125C235.747 42.8798 234.599 43.713 232.762 43.8465C232.668 44.4989 232.574 45.1513 232.477 45.8234C232.007 45.8234 231.538 45.8234 231.054 45.8234C230.96 45.2643 230.866 44.7051 230.77 44.1289C230.394 44.1289 230.018 44.1289 229.631 44.1289C229.624 44.495 229.617 44.8611 229.61 45.2383C229.583 46.602 229.555 47.9658 229.526 49.3295C229.513 49.9187 229.501 50.5079 229.49 51.0971C229.473 51.9461 229.455 52.7951 229.437 53.644C229.432 53.9057 229.427 54.1673 229.423 54.4368C229.391 55.8265 229.295 57.1611 229.062 58.5323C229.362 58.5556 229.661 58.5789 229.969 58.6029C239.413 59.8276 248.838 66.2035 255.61 72.5066C256.241 73.0898 256.88 73.6523 257.535 74.2066C266.088 81.6449 271.064 92.2433 275.729 102.343C275.817 102.532 275.905 102.722 275.996 102.917C276.982 105.044 277.884 107.185 278.673 109.392C278.744 109.588 278.814 109.785 278.887 109.987C280.288 114.006 280.639 119.157 278.785 123.128C276.967 126.089 274.834 128.075 271.372 129.038C267.823 129.499 264.387 129.108 260.932 128.29C260.905 128.502 260.878 128.714 260.85 128.932C260.412 132.171 259.783 135.368 259.155 138.575C259.037 139.183 258.918 139.79 258.8 140.398C258.553 141.664 258.305 142.93 258.057 144.197C257.741 145.812 257.426 147.429 257.112 149.045C256.869 150.297 256.624 151.549 256.379 152.801C256.263 153.396 256.146 153.992 256.031 154.588C254.459 162.674 254.459 162.674 253.818 163.31C253.277 163.337 252.735 163.343 252.193 163.342C251.845 163.342 251.498 163.342 251.14 163.342C250.758 163.341 250.376 163.339 249.994 163.338C249.605 163.337 249.216 163.337 248.827 163.337C247.802 163.335 246.778 163.333 245.753 163.33C244.707 163.327 243.662 163.325 242.617 163.324C240.565 163.321 238.513 163.316 236.461 163.31C236.449 163.493 236.437 163.675 236.425 163.863C236.265 165.967 235.884 167.971 235.411 170.026C235.337 170.359 235.262 170.691 235.185 171.033C234.948 172.083 234.709 173.133 234.469 174.183C234.308 174.897 234.147 175.61 233.986 176.324C233.833 177.002 233.68 177.68 233.526 178.358C233.454 178.677 233.382 178.997 233.307 179.326C233.24 179.621 233.172 179.916 233.103 180.221C233.044 180.48 232.984 180.74 232.923 181.008C232.762 181.667 232.762 181.667 232.477 182.515C238.956 182.515 245.436 182.515 252.111 182.515C252.111 182.981 252.111 183.447 252.111 183.927C169.853 183.927 87.5941 183.927 2.84286 183.927C2.74896 183.461 2.65505 182.995 2.55831 182.515C6.97172 182.515 11.3851 182.515 15.9323 182.515C15.5567 181.862 15.1811 181.21 14.7941 180.538C14.5228 179.207 14.6088 177.88 15.2209 176.655C17.23 173.705 21.1469 172.749 24.3807 171.746C30.9657 169.697 36.2119 166.45 41.681 162.364C41.8881 162.209 42.0952 162.055 42.3086 161.896C42.8121 161.52 43.3153 161.144 43.8185 160.768C43.6518 160.767 43.4851 160.765 43.3133 160.763C41.5729 160.745 39.8326 160.721 38.0923 160.694C37.4435 160.685 36.7946 160.677 36.1458 160.671C35.2112 160.661 34.2768 160.646 33.3423 160.63C33.0538 160.629 32.7653 160.627 32.4681 160.625C30.8379 160.592 29.5614 160.52 28.1681 159.639C27.299 158.21 27.1874 156.933 27.201 155.314C27.2002 155.096 27.1994 154.878 27.1985 154.653C27.198 154.194 27.1995 153.736 27.2031 153.277C27.2077 152.58 27.2031 151.883 27.1977 151.186C27.1983 150.738 27.1994 150.29 27.201 149.842C27.1993 149.636 27.1976 149.43 27.1958 149.218C27.2153 147.789 27.4354 146.763 28.1681 145.518C29.4944 144.567 30.712 144.556 32.283 144.588C32.4826 144.589 32.6823 144.589 32.888 144.59C33.6268 144.595 34.3653 144.606 35.104 144.617C35.9987 144.628 36.8933 144.637 37.788 144.646C38.2324 144.651 38.6769 144.655 39.1214 144.66C39.4507 144.663 39.78 144.667 40.1193 144.67C40.1369 144.429 40.1544 144.188 40.1725 143.94C40.7888 135.601 41.6087 127.285 42.4494 118.966C42.5924 117.548 42.7343 116.131 42.8762 114.713C43.048 112.998 43.2203 111.282 43.3928 109.567C43.4405 109.091 43.4405 109.091 43.4893 108.605C43.8613 104.903 44.2477 101.203 44.6721 97.5063C41.3773 98.8677 39.4663 100.595 37.1302 103.244C33.7199 107.058 28.4641 110.554 23.2951 111.13C21.8343 111.187 21.0631 110.898 19.916 109.933C18.5043 108.512 17.5694 106.936 16.6615 105.167C16.5169 104.889 16.3723 104.61 16.2234 104.324C14.4746 100.907 12.9118 97.4056 11.331 93.9109C10.4172 91.8941 9.47837 89.8892 8.53392 87.8864C8.37128 87.5408 8.20864 87.1952 8.04602 86.8496C7.26893 85.1997 6.48755 83.5519 5.70034 81.9068C-0.0439538 69.9004 -0.0439537 69.9004 -0.0915917 65.787C-0.103971 65.4356 -0.103971 65.4356 -0.116601 65.0771C-0.138311 62.977 0.441362 61.8287 1.88249 60.2622C3.33756 59.3529 4.65086 59.2428 6.34086 59.4657C8.34476 59.9796 9.66462 61.3534 11.0949 62.7686C11.2487 62.9145 11.4026 63.0604 11.561 63.2107C12.8144 64.4153 13.8657 65.702 14.9008 67.0932C18.2296 71.4758 21.5183 74.4167 26.483 76.8836C28.947 78.1518 31.102 79.7014 32.7209 81.9732C34.7894 81.3573 36.9151 80.6699 38.6965 79.4314C38.9092 78.4479 38.9092 78.4479 38.9811 77.4545C40.5512 76.0616 42.6304 75.1503 44.4943 74.2066C45.0853 73.9044 45.6762 73.6021 46.2672 73.2998C46.5707 73.1452 46.8742 72.9905 47.1868 72.8312C48.0272 72.4014 48.865 71.967 49.7018 71.5303C56.3883 68.0494 63.1616 64.7357 69.9195 61.3942C70.5148 61.0997 71.1098 60.8046 71.7046 60.5093C71.5505 60.2121 71.5505 60.2121 71.3931 59.9089C62.2937 42.2972 54.2855 21.6418 55.4851 1.4835C55.579 1.2039 55.6729 0.924308 55.7697 0.63624C57.1357 0.763579 57.9262 1.40418 58.9176 2.27781C59.17 2.49713 59.17 2.49713 59.4275 2.72088C63.1363 5.99855 66.6664 9.46439 69.6266 13.4275C70.1616 14.1238 70.7303 14.7905 71.2969 15.4616C75.2446 20.1601 78.5845 25.2834 81.664 30.5728C81.9303 31.0237 82.1967 31.4745 82.4632 31.9253C89.4156 43.7654 89.4156 43.7654 91.6145 49.5821C91.8352 50.3084 91.8352 50.3084 92.1925 50.6246C92.6235 50.6901 93.0568 50.741 93.4907 50.7834C93.7259 50.8071 93.961 50.8308 94.2032 50.8552C94.3848 50.8723 94.5664 50.8894 94.7534 50.907C94.7468 50.5397 94.7402 50.1723 94.7334 49.7939C94.5632 35.8529 96.8648 22.1924 100.729 8.82642C100.851 8.40436 100.851 8.40436 100.975 7.97378C101.545 6.03944 101.545 6.03944 101.867 5.7198C102.341 5.70832 102.816 5.70773 103.29 5.7198C111.907 22.21 115.203 39.8844 116.379 58.2499C116.456 58.073 116.533 57.8961 116.613 57.7138C121.512 46.4801 127.035 36.8707 134.846 27.4099C135.382 26.7609 135.912 26.1087 136.434 25.4484C138.954 22.2879 141.39 19.818 145.564 19.3289C146.276 19.2704 146.276 19.2704 146.827 19.276C147.111 19.5584 147.111 19.5584 147.165 20.4895C147.141 22.1129 146.837 23.6844 146.542 25.2774C146.479 25.6186 146.417 25.9597 146.352 26.3112C144.37 36.8677 141.599 47.1841 138.29 57.4027C138.434 57.3569 138.579 57.3112 138.727 57.2641C139.664 57.0719 140.583 57.0784 141.534 57.0787C141.747 57.0776 141.96 57.0766 142.179 57.0755C142.893 57.0724 143.606 57.0713 144.32 57.0703C144.831 57.0685 145.342 57.0666 145.854 57.0646C147.533 57.0587 149.211 57.0558 150.89 57.0529C151.468 57.0518 152.046 57.0506 152.624 57.0495C155.337 57.0441 158.05 57.0401 160.763 57.0377C163.898 57.0349 167.032 57.0275 170.166 57.0161C172.588 57.0076 175.009 57.0034 177.431 57.0025C178.878 57.0018 180.325 56.9993 181.772 56.9922C183.132 56.9856 184.493 56.9844 185.853 56.9873C186.353 56.9874 186.852 56.9856 187.352 56.9818C188.033 56.9768 188.714 56.9788 189.395 56.9825C189.594 56.9794 189.792 56.9763 189.997 56.9731C190.882 56.9848 191.433 57.0771 192.184 57.5525C192.64 58.2499 192.64 58.2499 192.924 60.5093C196.399 60.5093 199.873 60.5093 203.453 60.5093C203.462 58.136 203.462 58.136 202.608 57.428C202.37 57.3206 202.132 57.2132 201.888 57.1026C197.125 54.6178 195.306 50.1751 193.689 45.3318C192.763 42.3166 192.595 39.2773 192.582 36.1417C192.58 35.8444 192.579 35.547 192.577 35.2406C192.574 34.614 192.572 33.9874 192.571 33.3608C192.569 32.4189 192.56 31.4771 192.551 30.5353C192.537 27.5453 192.576 24.666 193.243 21.7379C193.537 20.3741 193.412 19.4494 192.924 18.1463C192.593 17.6152 192.593 17.6152 192.195 17.2284C191.08 15.9794 191.065 14.8034 191.087 13.1896C191.523 9.9186 193.849 6.95259 196.339 4.87254C205.717 -2.21121 222.349 -1.20978 231.335 6.33318ZM57.7616 4.02528C57.4778 14.4293 59.2222 24.6034 62.3144 34.5266C62.3986 34.8003 62.4829 35.0739 62.5696 35.3558C64.5675 41.7779 67.2042 47.9468 70.1396 53.996C70.2242 54.1707 70.3088 54.3455 70.3959 54.5255C71.604 57.0436 71.604 57.0436 73.1274 59.3796C74.2599 59.7316 74.8841 59.7432 76.0052 59.3564C76.3056 59.1952 76.606 59.0339 76.9155 58.8677C77.0846 58.779 77.2536 58.6903 77.4278 58.5989C78.3946 58.087 79.3467 57.5492 80.3001 57.0132C80.7191 56.7781 81.1382 56.5431 81.5573 56.3083C81.7677 56.1899 81.9782 56.0715 82.195 55.9495C84.537 54.6522 86.9798 53.5886 89.4426 52.5397C89.9151 52.352 89.9151 52.352 90.2006 52.0367C90.2383 48.6039 88.9103 45.1616 87.3551 42.152C87.2336 41.9106 87.2336 41.9106 87.1097 41.6644C83.9394 35.43 79.5903 29.7199 75.5061 24.0524C75.089 23.4699 74.6769 22.8842 74.2656 22.2976C70.0787 16.336 65.4564 10.0639 59.7534 5.43738C59.5858 5.29503 59.4182 5.15269 59.2455 5.00603C58.5867 4.32787 58.5867 4.32787 57.7616 4.02528ZM202.591 7.24774C201.107 9.26218 200.163 11.0915 200.323 13.6276C201.193 13.4383 201.193 13.4383 201.508 12.8295C201.611 12.6097 201.714 12.39 201.82 12.1636C201.933 11.925 202.045 11.6863 202.162 11.4405C202.277 11.1894 202.392 10.9384 202.51 10.6798C202.628 10.4299 202.747 10.18 202.869 9.92245C203.497 8.71628 203.497 8.71628 203.737 7.41432C203.984 7.39685 204.23 7.37937 204.484 7.36137C205.747 7.05957 206.235 6.62958 207.152 5.7198C207.421 5.10827 207.421 5.10827 207.436 4.59012C205.306 4.21066 203.87 5.73885 202.591 7.24774ZM209.799 10.8431C209.086 11.8525 208.859 12.3596 208.859 13.6276C209.141 13.7208 209.423 13.814 209.713 13.91C209.833 13.7462 209.954 13.5823 210.078 13.4135C212.833 9.77238 216.279 8.13079 220.526 6.56706C220.526 6.19427 220.526 5.82147 220.526 5.43738C216.53 4.97626 212.239 7.92781 209.799 10.8431ZM102.436 9.10884C100.768 13.9436 99.4352 18.7776 98.4526 23.7947C98.3969 24.0782 98.3412 24.3618 98.2838 24.6539C96.9163 31.8244 96.3798 39.1504 96.3896 46.4412C96.3898 46.6523 96.39 46.8634 96.3902 47.0809C96.2008 49.1505 96.2008 49.1505 96.7453 50.907C97.1625 50.9741 97.5822 51.0256 98.0024 51.0703C103.507 51.7005 108.132 53.2134 112.637 56.4936C113.429 57.1744 113.429 57.1744 114.103 57.1202C114.408 43.9862 111.654 31.1036 107.38 18.7111C107.317 18.5259 107.253 18.3408 107.187 18.15C106.761 16.9177 106.313 15.6944 105.851 14.4748C105.783 14.295 105.715 14.1152 105.646 13.93C104.597 11.1117 104.597 11.1117 102.436 9.10884ZM195.699 18.1992C194.273 20.4739 194.644 22.9228 194.916 25.4892C195.13 25.5169 195.343 25.5445 195.563 25.573C197.368 25.8348 198.949 26.2219 200.618 26.9565C201.163 27.2195 201.163 27.2195 201.745 27.1837C201.651 27.8361 201.557 28.4885 201.461 29.1607C201.273 29.1506 201.084 29.1406 200.891 29.1303C200.043 29.0859 199.196 29.0438 198.348 29.0018C198.052 28.986 197.756 28.9701 197.451 28.9538C197.169 28.9402 196.888 28.9265 196.598 28.9124C196.337 28.8991 196.076 28.8858 195.808 28.8721C195.205 28.8079 195.205 28.8079 194.916 29.1607C193.543 36.9058 194.357 46.1665 198.757 52.8486C200.245 54.7463 201.993 55.8823 204.306 56.5554C204.494 56.4622 204.682 56.369 204.875 56.273C204.594 55.9934 204.312 55.7138 204.022 55.4257C204.245 55.4836 204.468 55.5415 204.699 55.6011C207.941 56.4265 210.736 56.9072 213.981 55.9906C214.408 55.8833 214.834 55.7773 215.262 55.6728C215.755 55.5505 215.755 55.5505 216.257 55.4257C216.351 55.7985 216.445 56.1713 216.542 56.5554C216.343 56.6337 216.143 56.7119 215.937 56.7926C214.797 57.2491 213.67 57.7339 212.541 58.2157C210.838 58.8607 209.129 58.8998 207.328 58.9858C206.207 59.0258 206.207 59.0258 205.16 59.3796C204.758 60.9753 204.878 62.3508 205.444 63.8983C206.447 65.4969 207.667 66.1639 209.428 66.7225C210.501 66.8752 211.548 66.8845 212.629 66.8637C212.919 66.8597 213.209 66.8557 213.507 66.8515C218.672 66.708 223.012 64.3229 226.775 60.9208C228.037 59.4116 228 57.7978 227.97 55.9332C227.968 55.6853 227.967 55.4374 227.965 55.1819C227.96 54.3924 227.951 53.6029 227.942 52.8133C227.934 52.0278 227.927 51.2424 227.922 50.4568C227.918 49.9696 227.913 49.4823 227.907 48.9951C227.895 47.5585 227.981 46.1589 228.144 44.7313C228.218 44.0453 228.238 43.3711 228.226 42.6815C228.221 42.3204 228.215 41.9592 228.209 41.5871C228.584 41.5871 228.96 41.5871 229.347 41.5871C229.441 41.8667 229.535 42.1463 229.631 42.4344C230.205 42.6415 230.205 42.6415 230.77 42.7168C230.911 42.2974 230.911 42.2974 231.054 41.8696C231.242 41.9628 231.43 42.056 231.623 42.152C232.641 42.3136 233.328 42.3353 234.212 41.7703C236.181 40.1119 237.44 38.3738 237.662 35.7567C237.715 34.0953 237.65 32.8389 236.745 31.42C235.969 30.6809 235.241 30.2993 234.154 30.2793C232.491 30.5422 231.323 31.374 230.018 32.3919C229.304 32.8605 228.767 33.0063 227.924 33.1145C225.225 29.1694 223.261 25.2836 222.962 20.4233C222.863 19.0992 222.581 18.3107 221.664 17.299C220.496 16.425 219.488 16.3286 218.069 16.3376C217.855 16.3357 217.641 16.3338 217.421 16.3318C216.716 16.3266 216.012 16.3277 215.307 16.3293C214.816 16.328 214.324 16.3265 213.833 16.3248C212.803 16.3223 211.774 16.323 210.745 16.3258C209.428 16.329 208.111 16.3233 206.794 16.3151C205.779 16.3099 204.765 16.31 203.75 16.3116C203.264 16.3116 202.779 16.3099 202.294 16.3064C201.614 16.3022 200.935 16.3052 200.255 16.3101C200.056 16.3073 199.856 16.3046 199.651 16.3018C197.907 16.3277 196.917 17.0239 195.699 18.1992ZM139.885 24.183C139.109 24.9592 138.371 25.7508 137.672 26.5957C137.202 27.1265 136.715 27.612 136.206 28.1049C135.186 29.1102 134.3 30.1771 133.435 31.3141C133.278 31.5197 133.121 31.7253 132.959 31.9371C129.785 36.1464 126.984 40.5651 124.427 45.1673C124.107 45.7435 123.782 46.3166 123.454 46.8891C119.226 53.9225 119.226 53.9225 117.802 61.639C118.261 62.1426 118.724 62.591 119.225 63.0511C119.602 63.4194 119.977 63.7891 120.352 64.1598C120.557 64.3617 120.761 64.5635 120.972 64.7715C121.182 64.9785 121.392 65.1854 121.608 65.3987C121.816 65.6024 122.023 65.8061 122.237 66.0159C123.57 67.3331 124.836 68.6891 126.054 70.1116C126.242 70.0184 126.43 69.9252 126.623 69.8291C126.433 67.7102 125.986 65.7399 125.433 63.6882C124.881 61.5218 124.799 59.7312 124.631 57.4027C128.481 57.4027 132.331 57.4027 136.298 57.4027C136.988 55.6913 137.652 54.0212 138.214 52.2728C138.282 52.0632 138.351 51.8536 138.421 51.6377C138.64 50.9593 138.857 50.2802 139.073 49.6008C139.185 49.2476 139.185 49.2476 139.3 48.8872C143.58 35.8804 143.58 35.8804 145.137 22.4002C145.135 22.1822 145.132 21.9641 145.129 21.7394C145.126 21.5789 145.123 21.4183 145.119 21.2529C142.886 21.2529 141.405 22.7518 139.885 24.183ZM82.2033 57.1633C79.2032 58.7961 76.1335 60.279 73.0563 61.7625C67.7738 64.3113 62.508 66.8912 57.2546 69.4984C56.7021 69.7724 56.1496 70.0462 55.5969 70.3199C51.8355 72.1831 48.0825 74.0586 44.3717 76.02C43.2486 76.6123 42.1125 77.1764 40.9729 77.7369C41.1282 79.4363 41.5058 80.8786 42.1089 82.4718C42.1949 82.7046 42.2809 82.9373 42.3694 83.1771C42.6484 83.9299 42.931 84.6814 43.2138 85.4328C43.407 85.9513 43.6 86.4698 43.793 86.9883C45.356 91.1759 46.9776 95.3397 48.6559 99.4832C52.9348 99.0909 58.3642 97.2717 61.4607 94.1173C62.4116 92.8628 62.6106 91.5253 62.9191 90.0222C63.9335 85.4878 65.7032 81.1507 68.5746 77.4545C68.788 77.1711 68.788 77.1711 69.0058 76.8819C71.0045 74.3914 73.5555 72.8245 76.6843 72.1591C83.1037 71.704 88.2308 73.3256 93.1173 77.4368C94.5494 78.6698 95.8394 79.941 97.0299 81.4084C97.3369 81.7611 97.3369 81.7611 97.6501 82.121C104.108 89.5956 109.254 98.2743 114.45 106.631C115.524 108.355 116.621 110.063 117.736 111.762C118.813 113.404 119.874 115.057 120.932 116.711C121.439 117.501 121.946 118.292 122.453 119.082C122.75 119.545 123.046 120.008 123.342 120.471C126.426 125.286 129.652 129.975 133.361 134.34C133.671 134.707 133.972 135.082 134.271 135.458C139.101 141.391 146.551 144.057 153.943 144.877C156.646 145.117 159.364 145.061 162.075 145.046C162.758 145.045 163.441 145.044 164.124 145.044C165.544 145.043 166.964 145.039 168.384 145.032C170.193 145.024 172.002 145.021 173.811 145.02C175.554 145.019 177.298 145.014 179.041 145.01C179.367 145.01 179.693 145.009 180.029 145.009C183.485 145.001 186.919 144.971 190.363 144.67C190.453 136.299 184.537 128.806 178.925 123.085C177.143 121.299 175.277 119.681 173.29 118.123C172.682 117.626 172.079 117.125 171.476 116.623C170.943 116.18 170.41 115.739 169.875 115.299C169.625 115.079 169.375 114.86 169.117 114.634C168.788 114.404 168.788 114.404 168.453 114.169C168.171 114.262 167.889 114.355 167.599 114.452C168.1 115.63 168.913 116.555 169.715 117.54C170.609 118.64 171.454 119.71 172.152 120.947C170.767 120.794 170.005 119.763 169.18 118.746C168.731 118.165 168.289 117.58 167.848 116.993C165.494 113.903 162.986 110.991 160.335 108.15C159.775 107.546 159.228 106.936 158.689 106.314C157.237 104.653 155.704 103.063 154.188 101.459C146.909 93.752 146.909 93.752 145.226 91.8049C144.243 90.675 143.173 89.6399 142.104 88.5913C141.523 88.0078 140.978 87.4154 140.442 86.792C139.627 85.8454 138.756 84.9654 137.863 84.0913C136.809 83.0578 135.801 82.0033 134.836 80.8865C132.99 78.7696 131.06 76.7366 129.038 74.7847C128.475 74.2124 127.951 73.6338 127.427 73.0277C126.383 71.8394 125.28 70.7238 124.15 69.6162C123.848 69.3178 123.848 69.3178 123.539 69.0133C122.902 68.3843 122.264 67.7563 121.626 67.1285C120.783 66.2994 119.941 65.4693 119.099 64.6386C118.909 64.452 118.719 64.2654 118.523 64.0732C117.495 63.0588 116.521 62.0222 115.592 60.9175C114.816 60.0154 113.877 59.2935 112.965 58.5323C112.712 58.3103 112.46 58.0882 112.2 57.8594C107.54 53.8367 102.537 51.7407 96.2947 51.9873C91.196 52.3534 86.5875 54.7503 82.2033 57.1633ZM228.493 60.2269C228.207 60.6965 227.923 61.1674 227.64 61.639C223.393 65.56 217.557 68.1906 211.705 68.1346C209.422 67.988 207.508 67.3281 205.729 65.8753C204.975 64.9585 204.454 63.9764 204.006 62.8827C203.487 62.0912 203.487 62.0912 202.415 62.0435C201.986 62.0437 201.557 62.0517 201.128 62.0659C200.902 62.0679 200.676 62.0699 200.443 62.072C199.721 62.0799 198.999 62.0976 198.277 62.1155C197.788 62.1226 197.298 62.1291 196.808 62.1349C195.608 62.1504 194.409 62.1748 193.209 62.2038C194.223 67.7294 195.588 73.1383 197.021 78.5677C197.476 80.2946 197.928 82.0223 198.38 83.75C198.542 84.3708 198.706 84.9914 198.869 85.612C199.336 87.3888 199.792 89.1661 200.2 90.9571C200.265 91.2384 200.329 91.5196 200.395 91.8093C200.509 92.3157 200.619 92.8229 200.726 93.3308C200.849 93.8821 201.009 94.425 201.176 94.9645C201.984 95.3368 201.984 95.3368 202.564 95.0162C202.862 94.8323 202.862 94.8323 203.166 94.6446C203.388 94.5106 203.61 94.3766 203.839 94.2386C204.076 94.0937 204.312 93.9488 204.555 93.7995C206.702 92.5274 208.737 91.4628 211.136 90.7282C211.406 90.639 211.675 90.5498 211.954 90.4579C218.388 88.6368 224.484 90.346 230.465 92.7305C230.746 92.8404 231.027 92.9504 231.317 93.0637C231.693 93.2149 231.693 93.2149 232.078 93.3691C233.024 93.6229 233.024 93.6229 233.9 93.27C234.286 92.4232 234.286 92.4232 234.541 91.367C234.594 91.1757 234.648 90.9845 234.702 90.7874C234.872 90.1746 235.036 89.5603 235.198 88.9454C235.362 88.3339 235.528 87.7229 235.697 87.1125C235.85 86.5567 235.999 85.9996 236.147 85.4424C236.436 84.588 236.72 84.0554 237.314 83.3853C236.696 86.3887 236.044 89.37 235.247 92.3323C235.062 93.1638 235.021 93.8386 235.038 94.6821C237.394 95.7547 239.764 96.7884 242.152 97.7887C242.424 97.9042 242.697 98.0196 242.978 98.1386C244.492 98.7627 245.923 99.3 247.558 99.4832C248.731 98.9812 249.324 98.1881 250.119 97.2239C254.379 93.9617 259.956 93.4946 265.129 93.3759C265.525 93.3651 265.921 93.3541 266.317 93.3428C267.272 93.3165 268.228 93.2922 269.184 93.27C266.483 87.6382 263.217 82.6767 258.953 78.0844C258.417 77.5037 257.904 76.9092 257.393 76.3071C250.983 69.0652 239.224 61.2388 229.418 60.1033C228.96 60.1645 228.96 60.1645 228.493 60.2269ZM3.12741 61.639C3.12741 62.9339 3.54415 63.6849 4.14002 64.7908C5.28972 66.9979 6.2417 69.25 7.15549 71.5612C12.236 84.378 18.3316 96.5744 26.1762 107.956C30.4784 106.643 34.9643 103.523 37.8429 100.048C37.9368 99.7685 38.0307 99.4889 38.1274 99.2008C37.9385 99.0949 37.7496 98.9889 37.555 98.8798C33.9536 96.8082 32.161 94.127 31.0136 90.1634C30.8529 88.7479 30.8521 87.3503 30.8713 85.9271C31.0245 83.606 31.0245 83.606 30.4234 81.4314C30.0142 80.9984 30.0142 80.9984 29.3063 80.5611C29.1185 80.3864 28.9307 80.2116 28.7372 80.0316C28.171 79.6547 28.171 79.6547 27.4389 79.7138C26.4981 80.0969 26.3009 80.4943 25.8916 81.4084C25.6885 82.3104 25.6885 82.3104 25.6071 83.1029C25.1845 82.9631 25.1845 82.9631 24.7534 82.8205C24.8949 81.416 25.1953 80.3809 25.8916 79.149C25.4899 78.8704 25.0865 78.5944 24.6823 78.3194C24.3456 78.0884 24.3456 78.0884 24.002 77.8527C23.3801 77.4838 22.8995 77.2992 22.1925 77.1721C22.0014 77.5361 21.812 77.9011 21.6233 78.2664C21.5177 78.4696 21.4121 78.6727 21.3032 78.882C21.0153 79.4169 21.0153 79.4169 21.0542 79.9963C20.6786 79.9963 20.303 79.9963 19.916 79.9963C19.981 79.7647 20.0459 79.5332 20.1128 79.2946C20.1946 78.9903 20.2764 78.6859 20.3606 78.3723C20.4432 78.0709 20.5257 77.7695 20.6107 77.4589C20.8151 76.427 20.8151 76.427 20.4851 75.4775C19.9747 74.9701 19.469 74.5099 18.9201 74.0478C17.5194 72.8217 16.3187 71.5409 15.1598 70.0818C14.1739 68.8424 13.1403 67.6444 12.1075 66.4434C11.6789 65.9427 11.254 65.4387 10.8381 64.9276C9.47398 63.2806 7.79639 61.658 5.6606 61.1447C4.68219 61.0611 4.03028 61.2763 3.12741 61.639ZM1.70465 63.8983C1.67277 64.4274 1.65134 64.9572 1.63351 65.4869C1.6203 65.7818 1.6071 66.0767 1.59349 66.3805C1.74692 69.7029 3.3645 72.8544 4.76359 75.8129C4.95247 76.218 5.14106 76.6233 5.32936 77.0286C5.72282 77.8748 6.1177 78.7203 6.5137 79.5653C7.38625 81.4292 8.24452 83.2994 9.10394 85.1693C9.38828 85.7874 9.67318 86.4052 9.95828 87.023C10.9079 89.0811 11.8533 91.141 12.79 93.2049C16.0308 102.025 16.0308 102.025 21.6233 109.086C22.8663 109.506 23.7999 109.495 25.038 109.086C24.8981 107.752 24.2691 106.908 23.4729 105.873C21.9491 103.821 20.6235 101.693 19.3469 99.4832C19.237 99.2942 19.1271 99.1051 19.0139 98.9103C14.0049 90.2555 9.84474 81.0827 6.46028 71.6856C4.87835 67.2361 4.87835 67.2361 1.70465 63.8983ZM70.9755 76.3248C65.0211 82.6785 62.8224 92.272 60.5169 100.365C60.0671 101.938 59.5912 103.502 59.1098 105.066C58.1345 108.24 57.2153 111.421 56.3575 114.628C55.2732 118.673 54.1363 122.702 52.9519 126.719C52.8815 126.958 52.8111 127.197 52.7386 127.443C52.2388 129.138 51.7369 130.832 51.2346 132.526C50.7245 134.247 50.2151 135.969 49.7074 137.69C49.5086 138.363 49.3085 139.036 49.1083 139.709C47.6985 144.093 47.6986 144.093 47.2331 148.624C50.2114 149.424 53.1976 150.182 56.1932 150.915C56.6259 151.021 57.0587 151.127 57.4914 151.233C58.3878 151.452 59.2842 151.671 60.1807 151.89C61.3307 152.171 62.4804 152.453 63.63 152.736C64.5187 152.954 65.4075 153.171 66.2964 153.388C66.7209 153.492 67.1453 153.596 67.5697 153.701C68.1584 153.845 68.7473 153.989 69.3363 154.132C69.671 154.214 70.0056 154.296 70.3504 154.38C71.094 154.576 71.094 154.576 71.7046 154.555C73.2742 150.712 74.7741 146.848 76.2219 142.958C76.4234 142.418 76.625 141.878 76.8266 141.338C77.1259 140.536 77.425 139.734 77.7239 138.933C78.2457 137.533 78.7705 136.134 79.3009 134.737C80.9221 130.457 82.4347 126.143 83.9356 121.82C85.1268 118.391 86.3594 114.987 87.693 111.61C90.4789 104.509 91.8703 97.5598 89.3469 90.1634C89.7225 90.2566 90.0981 90.3498 90.4851 90.4458C91.2557 92.8961 91.4736 95.2276 91.4501 97.7811C91.4455 98.3716 91.4501 98.9616 91.4555 99.5522C91.4589 101.824 91.2105 103.823 90.4851 105.979C90.218 106.835 90.1698 107.307 90.2006 108.238C90.9055 109.36 91.811 110.21 92.8668 111.006C93.6277 111.638 94.1852 112.28 94.793 113.056C96.1733 114.763 97.6807 116.31 99.2418 117.852C99.5306 118.139 99.8193 118.426 100.108 118.713C100.708 119.309 101.309 119.905 101.911 120.5C102.674 121.254 103.435 122.01 104.195 122.768C104.789 123.36 105.384 123.95 105.98 124.54C106.261 124.818 106.541 125.097 106.821 125.376C108.465 127.014 110.15 128.543 111.976 129.981C112.683 130.551 113.349 131.15 114.014 131.767C122.042 138.983 132.118 144.536 143.086 144.999C144.009 145.051 144.009 145.051 144.55 144.388C144.393 144.297 144.235 144.206 144.073 144.113C136.846 139.927 136.846 139.927 134.133 136.486C133.533 135.733 132.913 135.012 132.274 134.292C126.947 128.268 122.677 121.488 118.371 114.734C116.162 111.273 113.937 107.824 111.674 104.396C110.568 102.717 109.483 101.026 108.412 99.3244C104.692 93.4389 100.716 87.5556 96.1762 82.2556C95.8235 81.8439 95.8235 81.8439 95.4637 81.4238C91.3972 76.7893 86.1873 73.7306 79.9389 73.2711C76.3455 73.0818 73.6723 73.8887 70.9755 76.3248ZM159.631 80.8435C158.996 82.1058 159.281 83.4585 159.685 84.7444C160.256 85.7417 160.564 86.0616 161.623 86.4919C163.228 86.9048 164.166 86.7367 165.607 85.9271C166.48 85.1273 166.719 84.7186 166.87 83.5442C166.681 82.0172 166.188 81.1737 165.162 80.0316C164.179 79.2815 163.238 79.2321 162.025 79.2902C160.904 79.5209 160.404 80.0182 159.631 80.8435ZM36.26 82.3262C35.991 82.438 35.7219 82.5498 35.4447 82.6649C35.1852 82.7759 34.9257 82.887 34.6583 83.0014C34.423 83.102 34.1877 83.2025 33.9452 83.3061C33.0636 83.7927 32.3271 84.3634 31.9451 85.3093C31.4689 89.0899 32.0467 92.0168 34.3927 95.0881C35.9511 96.9497 35.9511 96.9497 38.1225 97.8777C39.8972 97.9077 41.2258 97.4695 42.8225 96.7296C43.0529 96.6313 43.2832 96.5331 43.5206 96.4318C44.7177 95.9821 44.7177 95.9821 45.4381 95.0277C45.5476 94.2432 45.3893 93.7948 45.114 93.0529C45.0172 92.7873 44.9203 92.5216 44.8205 92.2479C44.7132 91.9634 44.6059 91.6789 44.4954 91.3857C44.3876 91.0927 44.2799 90.7997 44.1688 90.4978C43.8237 89.5615 43.4743 88.6269 43.1249 87.6922C42.8902 87.058 42.6559 86.4236 42.4218 85.7892C41.8472 84.2336 41.2691 82.6793 40.6884 81.1259C38.9993 81.0919 37.7926 81.662 36.26 82.3262ZM203.168 96.0942C202.886 96.2806 202.605 96.467 202.314 96.659C202.408 97.4046 202.502 98.1502 202.599 98.9184C202.854 98.7742 202.854 98.7742 203.114 98.6272C207.826 96.0141 212.759 93.5295 218.249 93.27C218.249 93.5496 218.249 93.8292 218.249 94.1173C217.704 94.1347 217.704 94.1347 217.147 94.1526C213.16 94.5611 209.414 96.3397 206.014 98.3536C205.718 98.5265 205.422 98.6994 205.117 98.8776C204.068 99.5161 204.068 99.5161 203.168 100.33C203.077 101.216 203.049 101.789 203.453 102.59C205.842 102.499 207.757 101.149 209.802 100.027C212.769 98.4368 215.786 97.5063 219.103 96.9415C219.103 97.2211 219.103 97.5007 219.103 97.7887C218.827 97.8237 218.551 97.8586 218.267 97.8946C215.422 98.3076 213.126 99.1532 210.626 100.546C209.928 100.934 209.223 101.309 208.519 101.684C208.021 101.956 207.524 102.228 207.027 102.502C206.79 102.629 206.552 102.756 206.307 102.888C205.004 103.578 205.004 103.578 204.296 104.802C204.3 105.004 204.303 105.206 204.306 105.414C207.895 105.638 210.383 104.585 213.518 102.948C215.617 101.942 217.623 102.188 219.78 102.876C220.551 103.164 221.279 103.503 222.02 103.861C224.529 105.029 227.244 105.488 230.003 105.554C232.009 105.926 233.523 107.123 235.002 108.45C235.351 108.755 235.7 109.059 236.049 109.362C236.217 109.509 236.385 109.656 236.558 109.807C237.632 110.736 238.756 111.602 239.875 112.475C240.176 112.711 240.476 112.947 240.776 113.184C241.799 113.989 242.827 114.787 243.859 115.581C244.039 115.72 244.219 115.858 244.404 116.001C248.644 119.251 253.081 122.107 257.802 124.619C257.979 124.713 258.155 124.808 258.337 124.906C258.85 125.179 259.366 125.447 259.883 125.713C260.175 125.864 260.468 126.014 260.769 126.17C264.189 127.602 268.982 128.48 272.563 127.089C274.761 125.89 276.778 124.059 277.703 121.706C279.804 114.469 276.707 107.509 273.718 100.999C273.543 100.615 273.368 100.231 273.195 99.8459C272.947 99.2981 272.694 98.7534 272.439 98.209C272.218 97.7308 272.218 97.7308 271.993 97.243C271.233 96.0067 270.327 95.2444 269.005 94.5994C267.554 94.2972 266.128 94.3039 264.649 94.3114C264.172 94.3135 264.172 94.3135 263.686 94.3156C258.792 94.3842 253.531 95.4739 249.835 98.9184C249.643 99.7874 249.643 99.7874 249.55 100.613C252.73 101.811 255.926 102.957 259.136 104.073C259.781 104.297 260.426 104.521 261.071 104.746C261.466 104.884 261.862 105.022 262.258 105.159C262.766 105.336 263.272 105.516 263.778 105.696C264.044 105.782 264.31 105.867 264.585 105.954C265.323 106.322 265.49 106.634 265.77 107.391C254.248 103.603 242.927 99.3886 231.848 94.4615C228.692 93.0652 225.592 91.8345 222.233 91.0106C222.013 90.9546 221.793 90.8985 221.566 90.8407C214.688 89.8167 208.615 92.0203 203.168 96.0942ZM57.5504 97.343C57.2232 97.493 56.896 97.643 56.5589 97.7975C55.8772 98.1153 55.1966 98.4353 54.5159 98.7551C52.3093 99.7652 50.1923 100.454 47.8022 100.895C47.6144 100.15 47.4266 99.4042 47.2331 98.636C46.8575 98.636 46.4819 98.636 46.0949 98.636C44.247 116.992 44.247 116.992 42.4483 135.353C42.3901 135.958 42.3314 136.563 42.2723 137.167C42.1929 137.981 42.1151 138.795 42.0378 139.609C42.0157 139.833 41.9936 140.056 41.9709 140.287C41.8343 141.754 41.8091 143.197 41.8266 144.67C42.4192 144.726 43.0121 144.778 43.6051 144.829C43.9352 144.859 44.2653 144.888 44.6054 144.919C45.418 144.949 45.9188 144.96 46.664 144.67C46.9551 144.214 46.9551 144.214 47.1008 143.619C47.1709 143.385 47.2409 143.151 47.3131 142.91C47.4231 142.515 47.4231 142.515 47.5354 142.111C47.6174 141.831 47.6994 141.551 47.7839 141.262C48.0817 140.235 48.37 139.205 48.6559 138.175C48.7138 137.966 48.7718 137.757 48.8315 137.542C49.4283 135.391 50.0224 133.238 50.6133 131.085C51.3446 128.426 52.1041 125.782 52.9419 123.154C53.9229 120.073 54.7741 116.965 55.6085 113.843C56.2974 111.268 57.0108 108.704 57.7849 106.153C57.8574 105.914 57.93 105.675 58.0047 105.428C58.3558 104.274 58.7105 103.121 59.0696 101.97C59.1976 101.553 59.3255 101.136 59.4533 100.72C59.5127 100.533 59.5722 100.347 59.6334 100.154C59.9693 99.0527 60.0966 98.0908 60.038 96.9415C58.915 96.5699 58.6061 96.847 57.5504 97.343ZM211.989 105.414C215.37 105.414 218.75 105.414 222.233 105.414C220.7 103.892 219.088 103.311 216.951 103.013C214.899 103.31 213.457 103.958 211.989 105.414ZM223.087 105.979C222.993 106.911 222.899 107.843 222.802 108.803C211.469 109.134 200.134 109.171 188.797 109.232C186.138 109.246 183.478 109.261 180.818 109.277C175.368 109.308 169.918 109.339 164.469 109.368C164.469 109.648 164.469 109.927 164.469 110.215C164.883 110.626 164.883 110.626 165.449 110.992C165.765 111.212 165.765 111.212 166.088 111.437C166.431 111.671 166.431 111.671 166.781 111.91C167.253 112.24 167.725 112.571 168.197 112.903C168.433 113.068 168.669 113.234 168.912 113.404C171.321 115.117 173.612 116.969 175.79 118.962C176.349 119.471 176.922 119.953 177.505 120.435C184.407 126.443 189.288 134.625 191.527 143.427C191.685 144.335 191.685 144.335 192.071 144.67C200.259 145.686 209.545 139.676 215.715 134.96C216.477 134.35 217.224 133.727 217.965 133.091C218.187 132.902 218.409 132.713 218.638 132.518C222.015 129.573 225.159 126.44 227.838 122.854C228.21 122.358 228.588 121.868 228.967 121.379C230.542 119.322 231.97 117.189 233.348 114.999C233.508 114.747 233.667 114.494 233.832 114.235C234.587 113.016 235.235 111.894 235.607 110.498C233.225 108.189 230.846 106.324 227.422 106.172C227.169 106.16 226.916 106.148 226.655 106.136C226.393 106.125 226.131 106.114 225.861 106.102C225.595 106.09 225.329 106.078 225.054 106.066C224.398 106.036 223.743 106.007 223.087 105.979ZM89.3469 109.933C89.2876 110.098 89.2283 110.264 89.1673 110.434C88.3922 112.597 87.616 114.76 86.8393 116.923C86.7762 117.098 86.7131 117.274 86.6481 117.455C84.4517 123.571 82.222 129.674 79.9586 135.765C79.7441 136.344 79.5297 136.923 79.3153 137.502C79.2195 137.758 79.1237 138.015 79.025 138.279C77.82 141.397 77.82 141.397 77.3957 144.67C95.7067 144.67 114.018 144.67 132.884 144.67C132.407 143.725 131.321 143.526 130.376 143.135C122.684 139.843 115.886 135.113 109.716 129.515C109.321 129.16 108.925 128.808 108.52 128.466C106.752 126.97 105.12 125.348 103.481 123.716C102.989 123.225 102.494 122.736 102 122.247C100.377 120.638 98.7948 119.017 97.3144 117.276C95.7807 115.544 94.1995 113.884 92.5415 112.269C92.0129 111.734 91.5478 111.198 91.0898 110.604C90.8903 110.382 90.6907 110.161 90.4851 109.933C90.1095 109.933 89.7339 109.933 89.3469 109.933ZM236.461 111.91C236.367 112.064 236.272 112.219 236.175 112.378C232.254 118.79 227.998 124.797 222.802 130.267C222.588 130.494 222.375 130.721 222.154 130.955C220.251 132.915 218.17 134.58 215.973 136.198C215.819 136.311 215.665 136.424 215.507 136.541C211.753 139.275 207.743 141.342 203.48 143.181C203.222 143.294 202.964 143.406 202.698 143.522C202.466 143.621 202.234 143.72 201.995 143.823C201.412 144.065 201.412 144.065 201.176 144.67C202.937 144.925 204.652 145 206.43 145.011C206.72 145.014 207.01 145.016 207.309 145.019C208.267 145.028 209.226 145.035 210.184 145.042C210.862 145.048 211.539 145.054 212.217 145.06C213.643 145.072 215.068 145.084 216.494 145.095C218.285 145.108 220.076 145.124 221.868 145.139C230.052 145.211 238.235 145.256 246.42 145.235C246.42 145.515 246.42 145.794 246.42 146.083C171.486 146.222 171.486 146.222 95.038 146.365C94.3119 148.046 94.0767 148.638 94.081 150.329C94.0811 150.697 94.0813 151.065 94.0815 151.445C94.0839 151.634 94.0862 151.823 94.0887 152.018C94.0954 152.595 94.0945 153.173 94.0926 153.75C93.9946 156.639 93.9946 156.639 95.3225 159.074C96.1444 159.129 96.939 159.148 97.7612 159.143C98.0179 159.144 98.2747 159.145 98.5392 159.145C99.4091 159.147 100.279 159.144 101.149 159.142C101.775 159.142 102.401 159.143 103.027 159.143C104.755 159.145 106.483 159.142 108.211 159.139C109.881 159.137 111.55 159.138 113.22 159.138C116.637 159.139 120.054 159.137 123.471 159.134C126.855 159.13 130.24 159.128 133.624 159.127C133.834 159.127 134.045 159.127 134.261 159.127C135.329 159.127 136.396 159.127 137.464 159.127C145.031 159.126 152.598 159.122 160.164 159.116C167.517 159.111 174.869 159.107 182.221 159.105C182.448 159.105 182.675 159.105 182.908 159.105C185.183 159.104 187.457 159.103 189.732 159.102C194.367 159.101 199.001 159.099 203.635 159.098C203.848 159.098 204.061 159.098 204.281 159.098C218.517 159.092 232.753 159.083 246.989 159.074C247.421 157.825 247.72 156.632 247.94 155.329C247.974 155.13 248.008 154.932 248.043 154.728C248.116 154.299 248.188 153.87 248.26 153.441C248.375 152.754 248.492 152.068 248.609 151.381C248.859 149.915 249.107 148.449 249.355 146.983C249.678 145.068 250.003 143.154 250.329 141.241C250.369 141.008 250.409 140.776 250.449 140.537C250.993 137.353 251.575 134.181 252.238 131.019C252.683 128.899 253.052 126.778 253.249 124.619C253.294 124.375 253.338 124.132 253.384 123.882C253.307 123.109 253.307 123.109 252.433 122.58C252.056 122.361 251.676 122.146 251.293 121.936C250.872 121.689 250.451 121.441 250.031 121.191C249.811 121.06 249.591 120.929 249.365 120.795C248.258 120.112 247.206 119.361 246.153 118.6C245.942 118.447 245.73 118.294 245.512 118.137C244.414 117.339 243.33 116.527 242.255 115.7C242.041 115.536 241.826 115.371 241.605 115.201C241.201 114.888 240.798 114.574 240.397 114.258C239.146 113.287 237.902 112.574 236.461 111.91ZM29.358 146.872C28.8486 147.815 28.8999 148.756 28.9083 149.799C28.9075 150.021 28.9067 150.243 28.9059 150.472C28.9053 150.94 28.9069 151.409 28.9104 151.877C28.915 152.594 28.9105 153.311 28.905 154.028C28.9056 154.484 28.9067 154.939 28.9083 155.395C28.9066 155.609 28.9049 155.824 28.9031 156.045C28.9123 157.195 28.9123 157.195 29.4023 158.209C30.2592 158.752 31.0008 158.828 31.9884 158.829C32.3829 158.83 32.3829 158.83 32.7854 158.831C33.2201 158.829 33.2201 158.829 33.6635 158.827C34.1171 158.826 34.1171 158.826 34.5799 158.825C39.273 158.802 43.965 158.647 48.6559 158.509C48.9368 157.791 49.2155 157.072 49.4929 156.352C49.572 156.15 49.6512 155.949 49.7328 155.741C50.4138 153.966 50.9879 152.179 50.3632 150.319C49.5911 150.07 48.8582 149.873 48.069 149.701C47.8531 149.651 47.6372 149.601 47.4148 149.549C46.8808 149.426 46.3456 149.307 45.8103 149.189C45.8103 148.257 45.8103 147.325 45.8103 146.365C43.7475 146.339 41.6846 146.319 39.6216 146.306C38.6636 146.301 37.7058 146.293 36.7479 146.28C35.6468 146.266 34.5458 146.26 33.4445 146.255C33.1004 146.249 32.7562 146.243 32.4016 146.237C32.0827 146.237 31.7637 146.237 31.4351 146.237C31.1539 146.234 30.8727 146.232 30.583 146.229C29.8418 146.304 29.8418 146.304 29.358 146.872ZM75.7823 147.113C75.6574 147.425 75.5325 147.738 75.4038 148.059C75.275 148.342 75.1462 148.625 75.0134 148.917C74.9002 149.212 74.7869 149.507 74.6702 149.811C74.5455 150.135 74.4208 150.458 74.2923 150.791C74.1661 151.124 74.0399 151.458 73.9099 151.802C73.7794 152.139 73.6488 152.477 73.5142 152.825C72.8426 154.355 72.8426 154.355 72.5583 155.967C72.2441 155.901 72.2441 155.901 71.9236 155.834C71.6459 155.779 71.3683 155.724 71.0822 155.667C70.8082 155.611 70.5342 155.556 70.2519 155.498C69.4179 155.401 68.8127 155.475 68.0055 155.685C67.8616 156.09 67.7197 156.496 67.5786 156.903C67.4994 157.129 67.4202 157.355 67.3385 157.588C67.1122 158.251 67.1122 158.251 67.1518 159.074C70.5231 159.08 73.8944 159.085 77.2657 159.088C78.8309 159.09 80.3962 159.092 81.9614 159.095C83.4706 159.098 84.9798 159.1 86.489 159.101C87.0662 159.101 87.6434 159.102 88.2205 159.104C89.0259 159.106 89.8314 159.106 90.6368 159.106C90.8779 159.107 91.119 159.108 91.3674 159.109C92.4358 159.21 92.4358 159.21 93.3307 158.791C93.3571 158.401 93.3641 158.01 93.363 157.619C93.363 157.37 93.3629 157.121 93.3629 156.865C93.3614 156.594 93.36 156.324 93.3585 156.046C93.3581 155.77 93.3576 155.495 93.3572 155.211C93.3556 154.327 93.3521 153.444 93.3485 152.561C93.347 151.963 93.3457 151.366 93.3446 150.768C93.3414 149.301 93.3366 147.833 93.3307 146.365C91.1614 146.326 88.9923 146.296 86.8227 146.277C85.8153 146.268 84.8081 146.256 83.8008 146.237C82.6424 146.215 81.4843 146.207 80.3257 146.199C79.9644 146.191 79.603 146.182 79.2307 146.173C77.3055 146.108 77.3055 146.108 75.7823 147.113ZM52.3551 151.166C51.7212 152.838 51.1106 154.484 50.7189 156.232C50.6499 156.532 50.581 156.831 50.5099 157.14C50.3294 157.993 50.3294 157.993 50.3632 159.074C51 159.58 51 159.58 51.8215 160.009C53.0764 160.75 53.9549 161.43 54.7982 162.61C56.0937 163.956 58.2978 163.819 60.038 163.875C61.8157 163.86 63.28 163.764 64.5908 162.463C65.096 161.46 65.4189 160.432 65.729 159.356C65.8178 159.057 65.9066 158.758 65.998 158.449C66.3969 157.005 66.6331 156.027 66.2981 154.555C61.678 153.278 57.054 152.121 52.3551 151.166ZM44.6721 162.745C44.8471 162.872 45.0221 162.998 45.2023 163.128C47.4814 164.82 47.4814 164.82 48.0868 166.134C48.2276 166.414 48.2276 166.414 48.3713 166.699C47.025 166.323 46.1812 165.515 45.1757 164.598C44.5319 164.035 44.1746 163.886 43.3205 163.751C42.1574 163.907 41.7835 164.32 41.0018 165.144C40.6324 165.558 40.6324 165.558 40.6884 166.134C41.7213 166.694 42.7542 167.253 43.8185 167.829C43.8185 168.108 43.8185 168.388 43.8185 168.676C42.8687 168.565 42.375 168.379 41.5776 167.829C40.5355 167.167 39.9335 166.982 38.6965 166.982C37.8896 167.284 37.1573 167.668 36.4201 168.111C36.4201 168.484 36.4201 168.857 36.4201 169.241C36.5745 169.306 36.7289 169.371 36.8881 169.438C38.1804 170.023 38.9478 170.438 39.5502 171.783C37.3962 171.022 37.3962 171.022 36.5979 170.459C35.3051 169.817 33.7737 169.873 32.3905 170.261C31.7832 170.506 31.1949 170.776 30.6045 171.059C27.9925 172.24 25.3194 173.125 22.5738 173.951C20.7318 174.529 18.97 175.129 17.6396 176.584C17.4418 177.051 17.2512 177.522 17.0705 177.996C22.4337 178.003 27.7969 178.008 33.1601 178.011C35.6511 178.012 38.1422 178.014 40.6332 178.017C42.8082 178.02 44.9832 178.022 47.1582 178.023C48.3064 178.023 49.4546 178.024 50.6028 178.026C55.9373 178.035 61.253 177.974 66.5827 177.714C67.7434 173.464 66.5947 168.194 65.1599 164.157C64.6229 164.297 64.6229 164.297 64.0751 164.44C61.4927 164.941 57.8851 165.418 55.4674 164.175C54.2842 163.359 53.2323 162.353 52.2006 161.357C51.272 160.575 50.3242 160.018 49.1183 159.798C47.1084 160.13 45.8439 161.146 44.6721 162.745ZM66.2981 163.028C66.3311 163.196 66.3641 163.363 66.3981 163.536C66.5493 164.308 66.6994 165.08 66.8495 165.852C66.9014 166.116 66.9533 166.38 67.0067 166.652C67.5816 169.619 67.7654 172.396 67.7565 175.419C67.7576 175.789 67.7587 176.159 67.7598 176.541C67.7594 176.904 67.7591 177.267 67.7587 177.641C67.7584 177.967 67.7581 178.292 67.7577 178.628C67.7127 179.927 67.5667 181.221 67.4364 182.515C73.6339 182.515 79.8315 182.515 86.2168 182.515C86.7773 180.846 87.2077 179.48 87.4973 177.791C87.549 177.493 87.549 177.493 87.6017 177.189C87.7114 176.552 87.818 175.915 87.9242 175.278C87.9988 174.837 88.0735 174.396 88.1482 173.956C88.5796 171.389 88.983 168.82 89.3291 166.24C89.3656 165.971 89.4021 165.702 89.4397 165.425C89.517 164.816 89.5765 164.204 89.6315 163.593C89.0312 162.997 87.7089 163.237 86.8782 163.221C86.4936 163.212 86.4936 163.212 86.1013 163.203C85.2565 163.184 84.4118 163.168 83.5669 163.151C83.138 163.142 83.138 163.142 82.7004 163.133C77.2326 163.019 71.7669 162.994 66.2981 163.028ZM99.3063 163.31C97.746 169.874 97.746 169.874 96.3131 176.462C96.1883 177.071 96.0608 177.678 95.9333 178.286C95.8515 178.681 95.7698 179.077 95.6882 179.472C95.6175 179.815 95.5467 180.157 95.4738 180.51C95.2905 181.423 95.2905 181.423 95.3225 182.515C137.766 182.515 180.21 182.515 223.94 182.515C226.744 172.784 226.744 172.784 226.501 163.31C184.527 163.31 142.553 163.31 99.3063 163.31ZM45.8079 179.298C42.8132 179.434 39.8183 179.499 36.8214 179.559C36.2374 179.571 35.6534 179.584 35.0695 179.596C33.5572 179.628 32.0449 179.659 30.5325 179.689C28.9794 179.721 27.4264 179.754 25.8733 179.786C22.8442 179.849 19.8151 179.911 16.7859 179.973C16.9912 180.898 17.1724 181.342 17.9242 181.95C19.5478 182.95 21.4617 182.837 23.3061 182.828C23.5573 182.828 23.8085 182.828 24.0672 182.827C24.9032 182.826 25.7392 182.823 26.5752 182.82C27.1713 182.819 27.7674 182.818 28.3635 182.817C29.9616 182.813 31.5598 182.807 33.1579 182.801C34.1353 182.797 35.1127 182.794 36.0901 182.79C39.7102 182.777 43.3303 182.758 46.9504 182.731C48.642 182.718 50.3336 182.707 52.0253 182.699C53.7031 182.692 55.3808 182.681 57.0586 182.666C57.6886 182.662 58.3186 182.658 58.9486 182.657C59.8177 182.654 60.6867 182.646 61.5559 182.637C61.9382 182.637 61.9382 182.637 62.3283 182.638C63.7621 182.617 64.7776 182.471 66.0136 181.667C66.5486 180.726 66.5827 180.228 66.5827 179.126C64.5068 179.119 62.4308 179.114 60.3549 179.111C59.3902 179.11 58.4254 179.107 57.4607 179.104C56.3424 179.101 55.224 179.099 54.1057 179.098C53.7723 179.097 53.4388 179.095 53.0953 179.094C50.6613 179.094 48.2388 179.186 45.8079 179.298Z" fill="black"/>
<path d="M217.11 26.2322C217.338 26.2249 217.566 26.2176 217.801 26.21C219.361 26.2051 220.166 26.4862 221.378 27.4678C221.663 27.7502 221.663 27.7502 221.699 28.5975C221.663 29.4448 221.663 29.4448 221.378 29.7272C220.997 29.7563 220.614 29.7663 220.232 29.7682C219.989 29.77 219.746 29.7718 219.495 29.7737C219.231 29.774 218.966 29.7743 218.694 29.7746C218.424 29.7756 218.154 29.7765 217.876 29.7775C217.304 29.7789 216.732 29.7796 216.161 29.7795C215.283 29.7801 214.406 29.7852 213.528 29.7906C212.974 29.7914 212.419 29.792 211.865 29.7923C211.469 29.7953 211.469 29.7953 211.065 29.7984C210.821 29.7975 210.577 29.7967 210.326 29.7958C210.111 29.7962 209.895 29.7966 209.674 29.797C209.143 29.7272 209.143 29.7272 208.574 29.1623C208.538 28.2798 208.538 28.2798 208.574 27.4678C211.342 26.4903 214.193 26.282 217.11 26.2322Z" fill="black"/>
<path d="M203.817 31.9863C204.461 32.2407 204.266 32.1604 204.923 32.4199C204.84 35.0216 204.641 37.5771 202.776 39.5657C202.64 39.6892 202.265 39.9523 202.125 40.0796C201.674 40.6474 201.474 40.9788 202.255 42.0065C203.427 43.0342 205.863 42.5152 207.722 42.7773C207.55 43.286 207.378 43.7947 207.201 44.3189C202.384 44.5266 202.384 44.5266 200.432 42.8415C200.025 41.9366 199.927 41.1583 200.172 40.208C200.553 39.6691 200.814 39.6691 201.295 39.1161C202.439 37.7962 202.72 36.4914 203.036 34.8125C203.5 32.5562 203.239 32.5562 203.817 31.9863Z" fill="black"/>
<path d="M165.324 31.4219C166.089 31.4717 166.84 31.5965 167.6 31.7043C167.412 32.3567 167.224 33.0091 167.031 33.6812C166.468 33.6812 165.904 33.6812 165.324 33.6812C165.215 33.0243 165.121 32.365 165.039 31.7043C165.133 31.6111 165.227 31.5179 165.324 31.4219Z" fill="black"/>
<path d="M199.758 31.9867C200.377 32.621 200.591 33.082 200.648 33.9658C200.583 35.0261 200.494 35.5067 199.687 36.2406C198.793 36.5432 198.366 36.5316 197.482 36.223C196.77 35.5168 196.82 35.2407 196.806 34.2637C196.798 34.0165 196.79 33.7693 196.781 33.5146C196.912 32.8339 196.912 32.8339 197.434 32.3298C198.28 31.8591 198.805 31.8256 199.758 31.9867Z" fill="black"/>
<path d="M213.403 31.8975C214.275 31.9857 214.275 31.9857 214.75 32.3354C215.229 32.9658 215.234 33.3217 215.217 34.1039C215.216 34.3223 215.215 34.5407 215.214 34.7658C215.128 35.3748 215.128 35.3748 214.559 36.222C214.006 36.3048 214.006 36.3048 213.385 36.275C213.022 36.2575 212.658 36.24 212.283 36.222C211.758 35.3447 211.656 34.795 211.785 33.7861C211.81 33.567 211.835 33.3478 211.86 33.122C212.094 32.1553 212.43 32.0002 213.403 31.8975Z" fill="black"/>
<path d="M236.181 33.6808C236.05 34.4303 235.948 34.9859 235.612 35.6577C234.652 36.2402 234.652 36.2402 234.119 36.4929C233.292 36.9812 232.951 37.6624 232.482 38.4819C232.106 38.3887 231.731 38.2955 231.344 38.1995C231.38 36.4657 231.965 35.6758 233.139 34.4155C234.094 33.5183 234.907 33.6574 236.181 33.6808Z" fill="black"/>
<path d="M26.1773 35.0576C27.0309 35.0929 27.0309 35.0929 27.3155 35.3753C27.3271 35.9401 27.3276 36.5051 27.3155 37.0699C26.6582 37.1631 26.0009 37.2563 25.3236 37.3523C25.2153 36.6953 25.1208 36.036 25.0391 35.3753C25.3236 35.0929 25.3236 35.0929 26.1773 35.0576Z" fill="black"/>
<path d="M213.697 45.8252C213.697 46.6019 213.697 46.6019 213.412 47.5197C211.341 49.1562 208.352 49.3126 205.818 49.3025C205.586 49.307 205.354 49.3116 205.115 49.3163C203.678 49.3174 202.719 49.1313 201.461 48.367C201.461 47.9942 201.461 47.6214 201.461 47.2373C201.624 47.2347 201.787 47.232 201.954 47.2293C205.362 47.1604 208.552 46.8973 211.859 46.0624C212.843 45.8252 212.843 45.8252 213.697 45.8252Z" fill="black"/>
<path d="M259.085 56.5205C259.797 56.5558 259.797 56.5558 260.081 56.8382C260.121 57.5925 260.093 58.3419 260.081 59.0976C259.417 59.1096 258.753 59.1091 258.089 59.0976C257.995 59.0044 257.901 58.9112 257.805 58.8152C258.047 56.572 258.047 56.572 259.085 56.5205Z" fill="black"/>
<path d="M18.5007 122.925C19.0719 123.006 19.6414 123.1 20.208 123.207C20.3859 124.16 20.3859 124.16 20.4926 125.184C20.3048 125.371 20.117 125.557 19.9235 125.749C19.0342 125.643 19.0342 125.643 18.2162 125.467C18.1884 123.729 18.1884 123.729 18.2162 123.207C18.3101 123.114 18.404 123.021 18.5007 122.925Z" fill="black"/>
<path d="M93.0535 133.375C93.6246 133.456 94.1941 133.55 94.7608 133.657C94.7608 134.403 94.7608 135.149 94.7608 135.917C93.9427 136.093 93.9427 136.093 93.0535 136.199C92.8657 136.013 92.6779 135.826 92.4844 135.634C92.6485 133.777 92.6485 133.777 93.0535 133.375Z" fill="black"/>
<path d="M272.889 152.015C272.983 152.667 273.077 153.319 273.174 153.992C272.329 153.992 271.483 153.992 270.613 153.992C270.417 153.338 270.417 153.338 270.328 152.579C270.972 151.451 271.747 151.738 272.889 152.015Z" fill="black"/>
</g>
<defs>
<clipPath id="clip0_244_1238">
<rect width="280" height="183.855" fill="white" transform="translate(0 0.0722656)"/>
</clipPath>
</defs>
</svg>
