<svg width="252" height="180" viewBox="0 0 252 180" fill="none" xmlns="http://www.w3.org/2000/svg">
<g clip-path="url(#clip0_246_2949)">
<path d="M141.242 0.000313733C141.467 0.354811 141.69 0.710984 141.9 1.07434C142.378 1.67383 142.921 1.98427 143.576 2.38043C146.655 4.2569 148.817 6.65881 149.879 10.1555C149.879 10.4068 149.879 10.6581 149.879 10.9171C150.095 10.979 150.31 11.0408 150.532 11.1045C151.489 11.4565 152.303 11.9309 153.15 12.488C153.305 12.5897 153.46 12.6915 153.62 12.7963C156.784 14.9042 156.784 14.9042 157.325 16.4231C157.246 17.2641 157.246 17.2641 156.697 17.8155C155.417 18.6388 154.144 18.4601 152.673 18.2796C151.206 17.9501 149.779 17.4876 148.355 17.0102C147.387 18.8172 146.675 20.6402 146.021 22.5797C145.294 24.6629 144.498 26.658 143.465 28.6093C143.312 28.8981 143.312 28.8981 143.157 29.1928C142.274 30.8019 141.255 32.2073 139.718 33.2584C139.466 33.2584 139.215 33.2584 138.956 33.2584C138.956 33.426 138.956 33.5935 138.956 33.7662C139.154 33.7861 139.352 33.8061 139.556 33.8267C140.804 34.0879 141.904 34.5713 143.068 35.0832C143.322 35.1943 143.576 35.3055 143.837 35.42C148.957 37.7012 153.868 40.449 158.77 43.1597C158.996 43.2844 159.221 43.4091 159.454 43.5375C160.751 44.2557 162.047 44.9761 163.343 45.6985C163.352 45.5075 163.361 45.3166 163.371 45.1199C163.513 42.8096 163.898 40.5803 164.375 38.3201C164.414 38.1337 164.452 37.9472 164.493 37.7551C168.526 18.5104 168.526 18.5104 174.841 13.2327C176.347 12.2619 177.863 12.2706 179.601 12.4404C182.603 13.148 185.69 15.5626 187.366 18.1269C188.46 20.0523 188.682 21.6486 188.492 23.8649C188.257 24.658 188.021 24.9825 187.476 25.6421C187.219 25.7363 186.962 25.8306 186.698 25.9277C185.887 26.3313 185.887 26.3313 185.729 27.1376C185.613 27.7289 185.498 28.3206 185.385 28.9127C185.117 29.9966 184.839 30.3606 183.919 30.9735C183.284 31.2274 183.284 31.2274 182.649 31.2274C181.721 30.8079 181.149 30.3176 180.617 29.4502C180.617 29.2827 180.617 29.1151 180.617 28.9425C180.03 29.0263 179.443 29.11 178.839 29.1964C178.923 29.4477 179.006 29.699 179.093 29.958C179.646 34.1325 179.655 38.385 179.664 42.5885C179.666 42.8136 179.667 43.0388 179.668 43.2708C179.699 49.9734 179.699 49.9734 178.839 52.5532C179.096 52.475 179.353 52.3969 179.618 52.3163C181.011 51.9196 182.434 51.7606 183.868 51.5733C184.376 51.5064 184.884 51.4364 185.392 51.3661C189.101 50.8734 189.101 50.8734 190.778 51.0299C191.184 51.4351 191.072 51.8556 191.075 52.4157C191.061 53.7414 190.872 54.9804 190.606 56.2761C190.562 56.4987 190.518 56.7214 190.473 56.9507C190.333 57.6539 190.191 58.3564 190.048 59.0588C189.954 59.5315 189.86 60.0042 189.767 60.477C189.381 62.4173 188.986 64.3463 188.492 66.2627C188.642 66.2106 188.793 66.1586 188.947 66.105C189.148 66.0366 189.349 65.9682 189.556 65.8977C189.753 65.83 189.951 65.7622 190.154 65.6924C192.861 64.8623 196.292 64.8708 198.907 66.0088C201.961 67.6963 204.153 70.3679 206.004 73.2602C206.179 73.5278 206.354 73.7955 206.534 74.0713C207.043 74.8517 207.548 75.6345 208.052 76.4178C208.304 76.8045 208.557 77.1909 208.81 77.5771C209.373 78.4404 209.932 79.3068 210.489 80.175C210.739 80.5653 210.99 80.9553 211.241 81.345C215.082 87.3061 218.738 93.3768 222.278 99.5208C222.439 99.7995 222.6 100.078 222.765 100.365C225.134 104.479 227.466 108.612 229.756 112.77C230.015 113.236 230.278 113.7 230.545 114.161C230.662 114.365 230.78 114.569 230.9 114.778C231.003 114.954 231.106 115.13 231.213 115.311C231.423 115.769 231.423 115.769 231.36 116.467C230.744 117.259 230.014 117.822 229.137 118.308C228.969 118.308 228.802 118.308 228.629 118.308C228.845 118.652 228.845 118.652 229.065 119.003C229.253 119.305 229.441 119.608 229.629 119.91C229.724 120.061 229.819 120.212 229.917 120.368C230.328 121.031 230.667 121.627 230.915 122.37C231.076 122.345 231.236 122.32 231.401 122.294C233.079 122.034 234.756 121.775 236.434 121.516C237.059 121.419 237.684 121.323 238.309 121.226C239.21 121.086 240.111 120.947 241.012 120.808C241.289 120.765 241.566 120.722 241.852 120.677C243.928 120.358 245.973 120.045 248.078 120.069C248.341 120.071 248.603 120.074 248.873 120.076C249.164 120.08 250.476 119.91 251.492 120.677C252.195 122.815 252 124.591 249.46 126.432C246.538 128.844 243.751 130.583 240.868 132.255C239.157 133.254 237.529 134.365 235.903 135.495C235.117 136.038 234.323 136.571 233.531 137.105C232.42 137.856 231.315 138.614 230.214 139.381C229.584 139.819 228.951 140.254 228.317 140.688C228.021 140.892 227.726 141.098 227.432 141.306C227.03 141.591 226.623 141.869 226.216 142.147C225.988 142.305 225.76 142.464 225.525 142.628C224.594 143.031 224.013 142.922 223.04 142.68C220.877 140.585 219.944 136.75 219.262 133.905C218.669 131.544 217.528 129.466 216.181 127.447C215.998 127.615 215.815 127.783 215.626 127.955C214.834 128.518 214.582 128.609 213.641 128.463C213.194 128.005 213.194 128.005 212.795 127.37C212.577 127.03 212.577 127.03 212.356 126.683C212.209 126.443 212.062 126.203 211.911 125.956C211.759 125.718 211.607 125.48 211.451 125.235C210.339 123.47 210.339 123.47 210.339 122.878C209.081 122.878 207.824 122.878 206.528 122.878C206.565 123.323 206.602 123.769 206.64 124.228C207.073 129.474 207.505 134.72 207.934 139.966C208.014 140.945 208.094 141.923 208.175 142.902C208.403 145.685 208.63 148.467 208.856 151.249C208.956 152.48 209.056 153.711 209.158 154.942C209.253 156.108 209.348 157.274 209.442 158.441C209.477 158.871 209.512 159.301 209.548 159.73C209.597 160.322 209.644 160.914 209.692 161.505C209.719 161.837 209.746 162.168 209.773 162.51C209.837 163.599 209.831 164.692 209.831 165.783C219.22 165.783 228.609 165.783 238.282 165.783C238.366 166.118 238.45 166.453 238.536 166.799C238.028 167.306 238.028 167.306 237.455 167.37C237.095 167.369 237.095 167.369 236.726 167.369C236.451 167.37 236.175 167.371 235.891 167.372C235.435 167.37 235.435 167.37 234.97 167.368C234.652 167.369 234.333 167.369 234.004 167.37C233.128 167.371 232.252 167.369 231.376 167.366C230.461 167.364 229.545 167.364 228.63 167.365C227.092 167.364 225.555 167.362 224.017 167.359C222.238 167.355 220.458 167.353 218.679 167.353C216.97 167.354 215.26 167.352 213.551 167.35C212.822 167.349 212.094 167.349 211.365 167.349C210.349 167.348 209.332 167.346 208.316 167.343C208.012 167.343 207.708 167.343 207.395 167.344C207.12 167.343 206.844 167.341 206.56 167.34C206.319 167.34 206.079 167.339 205.831 167.339C205.258 167.306 205.258 167.306 204.75 167.053C204.75 167.22 204.75 167.388 204.75 167.56C204.927 167.586 205.103 167.611 205.285 167.637C206.152 167.846 206.832 168.192 207.62 168.609C207.846 168.729 207.846 168.729 208.076 168.852C208.394 169.021 208.712 169.192 209.029 169.363C209.507 169.62 209.986 169.872 210.466 170.125C213.369 171.67 216.818 173.664 217.96 176.954C218.134 178.89 218.134 178.89 217.706 179.746C215.567 180.314 213.202 179.903 211.029 179.706C210.625 179.671 210.221 179.635 209.816 179.6C205.564 179.222 201.328 178.714 197.093 178.186C196.29 178.087 195.487 177.989 194.684 177.891C192.377 177.61 190.071 177.321 187.765 177.024C187.223 176.954 186.681 176.885 186.139 176.816C185.136 176.689 184.135 176.556 183.133 176.421C182.688 176.365 182.688 176.365 182.233 176.307C181.827 176.251 181.827 176.251 181.413 176.194C181.178 176.163 180.943 176.132 180.701 176.1C180.03 175.917 179.763 175.728 179.347 175.177C178.935 172.593 179.695 169.79 180.109 167.306C153.451 167.306 126.793 167.306 99.3266 167.306C99.3266 167.306 97.2459 167.306 97.2944 167.306C97.0173 167.307 97.0173 167.307 96.7346 167.307C85.7973 167.318 74.8599 167.327 63.9225 167.332C62.6105 167.333 61.2985 167.334 59.9865 167.334C59.7253 167.334 59.4641 167.335 59.1949 167.335C54.9604 167.337 50.7258 167.341 46.4913 167.346C42.1492 167.35 37.8071 167.353 33.4651 167.354C30.7838 167.355 28.1025 167.357 25.4213 167.361C23.5849 167.364 21.7486 167.365 19.9122 167.364C18.8513 167.364 17.7904 167.364 16.7294 167.367C15.7595 167.369 14.7896 167.37 13.8196 167.368C13.4675 167.368 13.1153 167.368 12.7631 167.37C12.2869 167.372 11.8107 167.37 11.3345 167.369C11.0693 167.369 10.804 167.369 10.5307 167.369C9.90727 167.306 9.90726 167.306 9.39919 166.799C9.48303 166.464 9.56686 166.128 9.65323 165.783C13.2579 165.699 16.8627 165.616 20.5766 165.529C20.0736 164.524 19.5706 163.519 19.0524 162.483C18.7632 161.757 18.4904 161.047 18.2427 160.309C18.1798 160.124 18.1168 159.939 18.052 159.749C17.8745 159.223 17.7011 158.695 17.5282 158.167C17.4437 157.918 17.3593 157.669 17.2722 157.413C16.0739 153.553 16.204 149.117 17.8815 145.429C18.9604 143.534 20.465 141.794 22.6089 141.157C24.5211 140.681 25.9707 140.977 27.6895 141.919C28.3722 142.426 28.3722 142.426 28.7056 142.934C28.665 143.432 28.665 143.432 28.4516 143.95C27.9892 144.293 27.9892 144.293 27.4037 144.616C24.2084 146.644 23.1054 150.62 22.2993 154.121C22.0159 155.458 21.8985 156.802 21.8468 158.167C22.0983 158.167 22.3498 158.167 22.6089 158.167C22.5956 157.725 22.5956 157.725 22.5821 157.274C22.5833 156.199 22.7632 155.205 23.0376 154.168C23.1062 153.905 23.1062 153.905 23.1762 153.636C24.0145 150.536 25.2533 147.392 27.9267 145.432C28.7565 145.095 29.5946 145.054 30.4839 144.965C30.5674 139.636 30.5674 139.636 30.2616 134.318C30.2417 134.109 30.2217 133.899 30.2012 133.683C30.0709 132.486 29.8318 131.388 29.4677 130.24C29.3656 130.452 29.3656 130.452 29.2613 130.669C27.7971 133.518 25.6825 135.227 22.6724 136.27C18.4948 137.6 14.2087 136.858 10.3837 134.889C7.74727 133.468 5.64047 131.622 3.56414 129.49C2.45552 128.355 1.29974 127.346 0 126.432C0.266498 124.705 2.04376 123.757 3.35204 122.778C8.98715 118.772 16.3962 115.808 23.371 115.515C23.5504 115.505 23.7299 115.495 23.9148 115.484C26.7321 115.398 29.8434 115.755 31.9862 117.744C33.0023 118.882 33.3784 119.768 33.3467 121.34C33.2286 122.241 32.859 122.714 32.2621 123.385C30.5965 124.655 30.5965 124.655 29.4677 124.655C29.9589 126.274 30.4565 127.884 31.0237 129.478C32.2215 133.123 32.0438 136.747 31.9402 140.533C31.9218 141.247 31.9113 141.96 31.9019 142.674C31.8937 142.893 31.8856 143.112 31.8772 143.338C31.8723 143.908 31.876 144.41 32.0081 144.965C32.5984 145.497 32.5984 145.497 33.2782 145.727C33.3621 145.81 33.4459 145.894 33.5323 145.981C33.5562 143.739 33.5784 141.535 33.2842 139.306C33.2781 138.598 33.4383 138.06 33.6494 137.389C33.9571 136.157 34.0024 134.866 34.1197 133.604C34.7561 127.428 36.414 122.177 40.3911 117.292C40.0375 117.017 40.0375 117.017 39.6767 116.737C38.7833 115.977 38.189 115.372 38.0245 114.162C37.9568 112.705 38.1079 111.808 39.121 110.691C41.2113 108.797 43.9802 108.311 46.73 108.353C54.4113 108.884 60.9654 112.936 66.224 118.395C68.7502 121.3 71.0055 124.485 70.875 128.463C70.7912 128.547 70.7073 128.63 70.621 128.717C68.9026 128.625 67.2777 128.236 65.6148 127.818C65.3495 127.752 65.3495 127.752 65.0789 127.685C64.9232 127.646 64.7674 127.606 64.607 127.565C62.7358 127.192 60.9311 127.169 59.0298 127.196C58.4517 127.2 57.8737 127.204 57.2957 127.208C56.395 127.216 55.4944 127.225 54.5938 127.237C44.6146 127.361 44.6146 127.361 41.3586 124.403C40.5727 123.534 39.9659 122.619 39.375 121.608C37.0563 125.702 35.6327 130.582 35.8186 135.318C36.6569 135.234 37.4952 135.15 38.3589 135.064C38.406 134.718 38.4532 134.373 38.5018 134.017C38.7659 132.865 39.149 132.278 40.0994 131.582C42.7921 129.972 45.8567 129.809 48.8943 130.417C53.8225 131.929 57.3329 135.773 59.7264 140.197C61.8687 144.355 62.791 148.726 62.7936 153.375C62.7967 153.671 62.7998 153.967 62.803 154.272C62.8035 154.558 62.804 154.844 62.8045 155.138C62.8056 155.397 62.8066 155.655 62.8077 155.922C62.7432 156.676 62.5545 157.229 62.2379 157.913C61.2176 157.76 60.5791 157.232 59.7611 156.628C55.1523 153.354 47.3369 149.789 41.6613 149.789C38.6724 155.026 37.5475 159.682 36.3266 165.783C47.2246 165.783 58.1226 165.783 69.3508 165.783C69.3508 164.945 69.3508 164.108 69.3508 163.244C69.3874 162.592 69.4322 161.941 69.4858 161.29C69.5004 161.11 69.5149 160.931 69.5298 160.746C69.578 160.153 69.6276 159.56 69.6773 158.968C69.7124 158.539 69.7474 158.111 69.7824 157.682C69.8575 156.764 69.9332 155.846 70.0095 154.928C70.13 153.476 70.2491 152.024 70.368 150.572C70.5561 148.276 70.7453 145.98 70.9348 143.685C71.2745 139.57 71.613 135.456 71.9505 131.341C72.0689 129.898 72.1879 128.454 72.3074 127.011C72.3815 126.114 72.4552 125.217 72.5289 124.321C72.5631 123.905 72.5975 123.489 72.6321 123.073C72.6793 122.506 72.7258 121.938 72.7722 121.371C72.7985 121.053 72.8247 120.735 72.8517 120.408C72.8792 119.997 72.8792 119.997 72.9073 119.577C72.9248 119.344 72.9423 119.11 72.9604 118.87C72.9627 118.212 72.9627 118.212 72.1928 117.673C72.0536 117.567 71.9145 117.46 71.7711 117.351C70.505 116.331 70.3236 114.754 70.1129 113.23C70.1129 112.895 70.1129 112.56 70.1129 112.215C69.8562 112.241 69.5994 112.267 69.3349 112.294C67.5562 112.285 65.915 111.555 64.2702 110.945C64.0544 110.868 63.8387 110.79 63.6164 110.71C62.9269 110.461 62.2409 110.205 61.5552 109.946C61.3364 109.867 61.1175 109.788 60.8921 109.706C59.5583 109.187 58.7981 108.75 58.1734 107.391C58.0563 106.594 58.0563 106.594 58.0781 105.804C58.0814 105.541 58.0847 105.278 58.0881 105.007C58.1734 104.344 58.1734 104.344 58.6815 103.837C59.2055 103.776 59.2055 103.776 59.8585 103.779C60.1026 103.779 60.3466 103.779 60.5981 103.779C60.8622 103.782 61.1263 103.784 61.3984 103.787C61.6683 103.788 61.9383 103.789 62.2164 103.789C63.0809 103.792 63.9454 103.799 64.81 103.805C65.3951 103.808 65.9803 103.81 66.5654 103.812C68.002 103.818 69.4385 103.826 70.875 103.837C70.8276 103.502 70.8276 103.502 70.7793 103.16C70.4312 100.636 70.1648 98.1104 69.9283 95.5737C69.8893 95.1598 69.8501 94.7459 69.8109 94.3319C69.7298 93.4735 69.6491 92.6149 69.5689 91.7564C69.466 90.656 69.3621 89.5556 69.2579 88.4553C69.1775 87.6046 69.0974 86.7539 69.0174 85.9032C68.9792 85.4971 68.9409 85.091 68.9025 84.6849C68.8493 84.1207 68.7965 83.5564 68.7439 82.9921C68.7138 82.6715 68.6838 82.351 68.6528 82.0207C68.5887 81.2415 68.5887 81.2415 68.5887 80.4799C68.2605 80.4825 67.9322 80.4852 67.594 80.4879C66.3793 80.4971 65.1645 80.5029 63.9497 80.5078C63.4233 80.5103 62.897 80.5138 62.3706 80.5182C61.6152 80.5243 60.8599 80.5272 60.1044 80.5294C59.8681 80.5321 59.6318 80.5347 59.3883 80.5374C59.0603 80.5374 59.0603 80.5374 58.7257 80.5375C58.4364 80.5392 58.4364 80.5392 58.1411 80.5409C57.6653 80.4799 57.6653 80.4799 57.1573 79.9721C57.057 79.4389 57.057 79.4389 57.0054 78.7791C56.9854 78.5367 56.9654 78.2942 56.9448 78.0445C56.9258 77.7852 56.9069 77.5259 56.8874 77.2588C56.8664 76.9946 56.8455 76.7304 56.824 76.4582C56.7634 75.6833 56.706 74.9081 56.6492 74.1329C56.6198 73.7544 56.5904 73.3759 56.5609 72.9974C56.2532 68.8091 56.2532 68.8091 56.3952 67.532C56.9032 67.0243 56.9032 67.0243 57.917 66.9666C58.3551 66.9667 58.7932 66.9696 59.2312 66.9747C59.5769 66.9758 59.5769 66.9758 59.9296 66.9769C60.6673 66.9797 61.4049 66.9861 62.1426 66.9926C62.6421 66.9951 63.1416 66.9974 63.641 66.9995C64.8669 67.0051 66.0927 67.0139 67.3186 67.0243C67.3186 66.4378 67.3186 65.8514 67.3186 65.2471C67.0259 65.2881 66.7333 65.3292 66.4318 65.3714C65.3563 65.5052 64.2992 65.5419 63.2163 65.5437C63.0287 65.5445 62.8411 65.5454 62.6478 65.5462C62.2554 65.5475 61.8631 65.5481 61.4707 65.5481C60.8687 65.5486 60.2668 65.5533 59.6648 65.558C59.2821 65.5588 58.8994 65.5593 58.5167 65.5595C58.3368 65.5614 58.1569 65.5632 57.9715 65.5651C56.7073 65.5591 56.7073 65.5591 56.1411 64.9933C56.0429 64.3463 55.9739 63.7204 55.9248 63.0693C55.9086 62.8756 55.8924 62.6819 55.8757 62.4823C55.8418 62.0701 55.809 61.6577 55.7772 61.2453C55.7293 60.6266 55.6775 60.0084 55.6251 59.3901C55.528 58.2121 55.4465 57.0337 55.379 55.8536C55.3688 55.6745 55.3585 55.4954 55.3479 55.3109C55.3231 54.8164 55.3081 54.3215 55.2937 53.8266C55.2807 53.4094 55.2807 53.4094 55.2675 52.9839C55.379 52.2993 55.379 52.2993 55.7565 51.8826C56.6799 51.3839 57.5719 51.4261 58.596 51.4279C58.8185 51.4253 59.041 51.4227 59.2702 51.4201C60.0101 51.4124 60.7498 51.4101 61.4897 51.4078C62.0119 51.4035 62.5341 51.3989 63.0563 51.394C64.4399 51.3819 65.8235 51.3743 67.2072 51.3677C68.5764 51.3603 69.9455 51.3483 71.3146 51.3369C77.6882 51.2859 84.0617 51.2721 90.4355 51.2838C90.4518 51.0934 90.4681 50.903 90.4849 50.7068C90.5069 50.4563 90.5289 50.2058 90.5515 49.9477C90.5731 49.6996 90.5946 49.4516 90.6168 49.1961C91.1472 44.0551 94.1203 38.8314 98.0565 35.5433C102.816 32.2908 108.903 30.8636 114.615 30.6572C114.897 30.6436 115.179 30.6301 115.47 30.6161C116.033 30.5904 116.597 30.5738 117.161 30.5673C118.676 30.4954 118.676 30.4954 119.949 29.7442C120.418 29.1604 120.803 28.5777 121.173 27.927C121.315 27.6839 121.315 27.6839 121.459 27.436C123.344 23.9793 123.344 23.9793 123.888 20.258C123.711 19.7573 123.711 19.7573 123.333 19.1682C122.553 17.8698 122.542 16.4589 122.698 14.9792C123.026 13.8339 123.351 12.942 124.355 12.2569C125.245 11.439 125.289 10.6642 125.476 9.5049C126.041 6.58558 127.12 4.12956 129.556 2.28522C131.927 0.929495 134.179 0.423901 136.876 0.508071C137.301 0.52103 137.726 0.531707 138.151 0.539806C138.429 0.548642 138.429 0.548642 138.712 0.557657C139.752 0.453966 140.107 -0.220938 141.242 0.000313733ZM129.048 4.82401C127.97 6.28111 127.475 7.91404 127.016 9.6477C127.794 9.61127 128.572 9.57414 129.35 9.53663C129.565 9.52665 129.779 9.51667 130.001 9.50639C131.226 9.44674 132.447 9.36607 133.67 9.26193C135.579 9.11209 137.485 9.07943 139.4 9.07648C139.666 9.07559 139.666 9.07559 139.937 9.07468C142.639 9.07128 145.216 9.23636 147.847 9.90158C147.534 7.69916 145.855 5.93761 144.206 4.54236C139.792 1.4164 133.1 0.537903 129.048 4.82401ZM133.113 10.6632C133.744 11.9244 136.389 12.5068 137.685 12.9481C139.336 13.426 141.021 13.76 142.703 14.1064C143.599 14.2971 144.495 14.4909 145.391 14.6856C145.714 14.7555 145.714 14.7555 146.044 14.8268C147.923 15.2382 149.771 15.7348 151.6 16.3309C152.931 16.7495 154.071 16.81 155.468 16.7563C154.242 14.0894 150.435 12.5073 147.847 11.4249C145.163 10.4631 142.481 10.3656 139.654 10.3776C139.375 10.3781 139.095 10.3786 138.807 10.3791C136.898 10.3892 135.011 10.452 133.113 10.6632ZM125.286 13.3448C124.429 14.299 124.255 15.1152 124.142 16.3755C124.258 17.6726 124.639 18.4516 125.571 19.3586C126.291 19.8271 126.953 20.0805 127.778 20.3106C127.694 20.562 127.611 20.8133 127.524 21.0722C126.937 21.0722 126.351 21.0722 125.746 21.0722C125.69 21.2113 125.635 21.3504 125.577 21.4937C125.402 21.931 125.227 22.368 125.05 22.8048C124.824 23.3747 124.603 23.9468 124.386 24.5204C123.296 27.3774 122.185 30.1269 119.649 31.989C119.972 34.1113 121.458 35.4866 123.061 36.8177C125.043 38.2703 127.743 39.9964 130.319 39.6054C131.745 38.8164 132.209 37.4645 132.827 36.0352C132.985 35.6884 132.985 35.6884 133.147 35.3346C133.784 34.0774 133.784 34.0774 133.621 32.7507C133.149 32.3401 133.149 32.3401 132.573 31.9414C129.78 29.832 129.78 29.832 129.382 28.2463C129.343 27.9626 129.343 27.9626 129.302 27.6731C129.805 27.5474 129.805 27.5474 130.319 27.4192C130.444 27.6038 130.444 27.6038 130.572 27.7921C131.841 29.5796 133.694 30.7849 134.637 30.9735C139.408 31.9271 140.48 29.0694 139.257 31.6558C142.871 28.5293 144.416 22.7452 145.857 18.3835C146.077 17.7476 146.322 17.1253 146.577 16.5024C145.697 16.1237 144.869 15.882 143.927 15.712C143.664 15.6628 143.401 15.6136 143.13 15.5629C142.852 15.5116 142.575 15.4604 142.29 15.4076C140.066 14.9849 137.967 14.4757 135.855 13.6641C135.109 13.4451 134.822 13.3716 134.129 13.7098C133.602 14.2184 133.602 14.2184 133.113 14.8364C132.015 16.172 132.015 16.172 131.081 16.5024C130.255 16.4072 130.255 16.4072 129.556 16.2486C129.513 16.0924 129.47 15.9363 129.425 15.7755C129.061 14.5246 129.061 14.5246 128.35 13.4559C127.227 12.9572 126.391 12.7312 125.286 13.3448ZM173.504 17.0102C172.997 17.7843 172.562 18.5837 172.139 19.4062C172.02 19.6366 171.901 19.867 171.779 20.1044C166.991 29.6691 165.298 40.485 164.359 51.0299C164.024 50.9462 163.688 50.8624 163.343 50.7761C163.259 49.6031 163.175 48.4302 163.089 47.2218C161.999 46.7191 160.909 46.2164 159.786 45.6985C159.743 46.0699 159.7 46.4414 159.655 46.8241C159.285 49.8916 158.799 52.8659 158.008 55.8536C160.693 55.723 163.313 55.3159 165.961 54.8771C166.67 54.7599 167.379 54.6454 168.088 54.5312C171.099 54.0408 174.082 53.4622 177.061 52.8071C178.731 47.1127 178.148 40.7062 177.863 34.8502C177.837 34.3204 177.814 33.7904 177.793 33.2603C177.766 32.5922 177.725 31.9263 177.68 31.2591C177.674 31.0663 177.667 30.8734 177.661 30.6747C177.629 30.057 177.629 30.057 177.315 29.1964C176.825 28.7991 176.325 28.5127 175.769 28.2153C175.099 27.8187 174.848 27.3768 174.536 26.6734C174.438 26.4545 174.341 26.2356 174.24 26.01C173.979 25.2984 173.818 24.6212 173.758 23.8649C174.177 23.8649 174.596 23.8649 175.028 23.8649C175.071 24.0151 175.115 24.1653 175.159 24.3201C175.531 25.5324 175.861 26.5279 176.806 27.4192C177.599 27.7614 177.599 27.7614 178.331 27.927C178.279 27.7584 178.227 27.5899 178.173 27.4162C178.104 27.1921 178.036 26.9679 177.965 26.7369C177.898 26.516 177.83 26.2951 177.76 26.0675C177.457 24.9927 177.283 24.0022 177.29 22.8841C177.291 22.5466 177.291 22.5466 177.292 22.2023C177.295 21.855 177.295 21.855 177.299 21.5007C177.3 21.2642 177.301 21.0278 177.302 20.7842C177.305 20.2032 177.309 19.6222 177.315 19.0412C177.65 19.0412 177.985 19.0412 178.331 19.0412C178.349 19.4688 178.349 19.4688 178.368 19.905C178.446 23.7774 178.446 23.7774 180.109 27.1653C180.277 27.1653 180.444 27.1653 180.617 27.1653C180.89 25.7831 180.953 24.4118 181.014 23.0081C181.03 22.6551 181.03 22.6551 181.047 22.295C181.074 21.7182 181.1 21.1414 181.125 20.5645C181.46 20.4807 181.796 20.3969 182.141 20.3106C182.426 22.4905 182.37 24.4294 181.991 26.589C181.84 27.6012 181.802 28.2055 182.382 29.0784C182.554 29.2849 182.726 29.4914 182.903 29.7041C183.765 29.0383 183.977 28.1935 184.173 27.1653C184.267 26.1561 184.302 25.1476 184.332 24.1347C184.342 23.8642 184.352 23.5937 184.362 23.315C184.386 22.6521 184.408 21.9892 184.427 21.3261C184.763 21.3261 185.098 21.3261 185.444 21.3261C185.695 22.9598 185.695 22.9598 185.952 24.6265C186.977 23.7743 186.977 23.7743 187.112 23.0458C187.108 20.6923 186.254 19.0419 184.65 17.3434C182.79 15.5936 180.685 14.1152 178.093 13.8684C175.951 13.9417 174.732 15.4352 173.504 17.0102ZM97.2944 38.5899C97.1369 38.7394 96.9793 38.889 96.8171 39.0431C89.9237 46.0555 90.6948 59.9408 90.4355 69.0553C91.8389 68.9517 93.2235 68.8184 94.6082 68.5634C99.5915 67.6536 104.419 67.6049 109.488 67.532C109.656 61.7512 109.823 55.9704 109.996 50.0144C110.415 49.9306 110.834 49.8469 111.266 49.7605C111.206 52.2388 111.144 54.7171 111.081 57.1953C111.051 58.3459 111.022 59.4965 110.994 60.6471C110.967 61.7567 110.939 62.8661 110.91 63.9756C110.899 64.3998 110.889 64.8241 110.879 65.2483C110.865 65.8405 110.849 66.4326 110.834 67.0247C110.83 67.2019 110.826 67.379 110.822 67.5615C110.787 68.7725 110.787 68.7725 110.504 69.0553C109.75 69.1391 108.995 69.2229 108.218 69.3092C108.218 71.5713 108.218 73.8333 108.218 76.1639C110.393 76.4304 112.568 76.6955 114.744 76.9584C115.754 77.0805 116.764 77.2032 117.774 77.3272C118.751 77.4471 119.728 77.5654 120.705 77.6828C121.076 77.7276 121.446 77.7729 121.817 77.8188C125.612 78.3677 125.612 78.3677 129.344 77.7685C129.613 77.6792 129.882 77.5898 130.16 77.4978C130.432 77.4032 130.705 77.3086 130.985 77.2112C135.857 75.5669 135.857 75.5669 138.575 75.6244C138.784 75.6267 138.992 75.629 139.208 75.6314C139.716 75.6373 140.225 75.6464 140.734 75.6562C141.671 72.4315 142.301 69.1629 142.925 65.866C143.075 65.0741 143.226 64.2823 143.378 63.4907C143.472 63.0023 143.565 62.5138 143.656 62.025C144.142 59.4911 144.142 59.4911 144.544 58.6463C145.173 58.395 145.173 58.395 145.815 58.1385C146.066 55.4576 146.318 52.7766 146.577 50.0144C146.912 50.0982 147.247 50.182 147.593 50.2683C147.509 52.6979 147.425 55.1275 147.339 57.6308C150.412 57.1949 150.412 57.1949 153.483 56.7422C153.691 56.7124 153.899 56.6826 154.113 56.652C154.312 56.6215 154.511 56.5911 154.717 56.5597C154.892 56.5337 155.068 56.5077 155.249 56.4809C155.802 56.3691 155.802 56.3691 156.484 55.8536C156.696 55.4076 156.696 55.4076 156.818 54.8827C156.897 54.5879 156.897 54.5879 156.977 54.2871C157.055 53.9708 157.055 53.9708 157.135 53.6481C157.19 53.4319 157.245 53.2158 157.301 52.9932C157.772 51.0798 158.08 49.1852 158.262 47.2218C158.312 46.8762 158.312 46.8762 158.362 46.5236C158.453 45.855 158.453 45.855 158.262 44.9368C157.902 44.596 157.902 44.596 157.416 44.3388C157.231 44.2313 157.046 44.1238 156.855 44.0131C156.649 43.899 156.442 43.785 156.23 43.6675C156.012 43.5455 155.794 43.4236 155.569 43.298C154.834 42.8924 154.096 42.4936 153.356 42.0966C153.087 41.952 152.818 41.8074 152.541 41.6584C151.995 41.3651 151.448 41.0722 150.902 40.7796C150.222 40.4147 149.544 40.0464 148.867 39.6768C142.323 35.8291 142.323 35.8291 135.145 34.0201C135.075 34.1839 135.005 34.3478 134.932 34.5167C134.61 35.2625 134.282 36.0058 133.954 36.7493C133.844 37.0071 133.733 37.265 133.619 37.5307C132.561 39.9139 132.561 39.9139 131.335 40.6209C128.919 41.4257 126.516 40.2886 124.349 39.2087C121.51 37.5847 119.312 35.2971 118.125 32.2429C110.896 31.9873 102.524 33.1299 97.2944 38.5899ZM70.3669 65.2471C70.3669 65.8336 70.3669 66.4201 70.3669 67.0243C76.5704 66.9405 82.7739 66.8567 89.1653 66.7704C89.1653 66.2677 89.1653 65.7651 89.1653 65.2471C82.9619 65.2471 76.7584 65.2471 70.3669 65.2471ZM169.878 77.3077C168.897 77.8454 167.911 78.3753 166.925 78.9058C164.432 80.2484 161.956 81.6171 159.494 83.0157C157.625 84.0772 155.746 85.1208 153.864 86.1604C151.809 87.2962 149.766 88.449 147.736 89.6294C146.648 90.2611 145.555 90.8848 144.463 91.509C143.895 91.8387 143.339 92.179 142.784 92.5292C140.732 93.734 139.066 93.757 136.754 93.7394C133.709 93.8056 131.122 95.145 128.436 96.4758C127.743 96.7417 127.244 96.7784 126.508 96.7281C126.508 96.4768 126.508 96.2254 126.508 95.9665C127.849 95.38 129.191 94.7935 130.573 94.1893C129.655 93.5777 129.127 93.5834 128.032 93.5229C127.718 93.5039 127.404 93.4849 127.08 93.4654C126.72 93.4522 126.36 93.4397 126 93.4277C125.785 93.4162 125.569 93.4048 125.347 93.393C123.56 93.3346 122.12 93.6553 120.443 94.2528C120.184 94.342 119.925 94.4312 119.659 94.5231C116.6 95.6006 113.617 96.8672 110.631 98.1308C109.254 98.7105 107.871 99.2747 106.487 99.8381C106.03 100.025 105.574 100.211 105.117 100.397C104.796 100.528 104.474 100.659 104.153 100.79C104.578 104.18 106.392 107.291 108.472 109.93C108.649 110.157 108.827 110.383 109.01 110.617C112.884 115.234 118.894 117.387 124.73 118.054C125.975 118.126 127.214 118.139 128.461 118.133C128.796 118.132 129.131 118.13 129.476 118.129C132.03 118.097 134.446 117.918 136.923 117.292C137.124 117.242 137.325 117.191 137.531 117.139C147.322 114.593 155.402 108.249 163.462 102.39C166.042 100.515 168.665 98.7096 171.31 96.9268C171.935 96.5045 172.558 96.0796 173.182 95.6541C181.458 90.031 181.458 90.031 185.284 89.081C185.48 89.0304 185.677 88.9798 185.879 88.9277C186.269 88.8302 186.661 88.741 187.054 88.6611C187.673 88.5283 187.673 88.5283 188.492 88.0962C188.826 87.4008 188.898 86.8438 189 86.0652C189.252 86.0652 189.503 86.0652 189.762 86.0652C189.846 86.7354 189.93 87.4057 190.016 88.0962C190.366 88.161 190.366 88.161 190.723 88.2271C193.22 88.7199 195.169 89.1691 196.875 91.1428C196.992 91.2743 197.108 91.4059 197.228 91.5414C199.417 94.2014 201.063 98.0348 200.897 101.498C200.748 105.699 202.405 108.361 204.744 111.728C205.312 112.547 205.853 113.38 206.389 114.22C206.712 114.728 207.041 115.232 207.371 115.735C208.638 117.677 209.866 119.645 211.101 121.608C212.522 120.739 213.905 119.843 215.229 118.831C218.897 116.041 222.745 113.475 226.597 110.945C226.447 109.963 226.154 109.24 225.665 108.378C225.524 108.127 225.383 107.876 225.237 107.618C225.083 107.349 224.929 107.081 224.771 106.804C224.611 106.521 224.45 106.239 224.285 105.948C222.626 103.029 220.935 100.128 219.23 97.2359C219.036 96.9064 218.842 96.5769 218.648 96.2474C216.489 92.5773 214.332 88.9138 211.98 85.3623C211.369 84.4302 210.773 83.4887 210.175 82.5486C208.603 80.08 207.015 77.6216 205.401 75.1801C205.242 74.9376 205.083 74.6951 204.92 74.4452C202.688 71.0889 200.282 67.6461 196.113 66.7704C187.199 65.8741 177.441 73.145 169.878 77.3077ZM101.311 68.976C101.051 68.9985 100.791 69.0211 100.523 69.0443C95.9918 69.3221 95.9918 69.3221 91.7057 70.5786C91.6927 72.2268 91.6838 73.875 91.6777 75.5232C91.6752 76.0829 91.6717 76.6425 91.6673 77.2022C91.6611 78.0108 91.6583 78.8194 91.656 79.628C91.6534 79.8746 91.6508 80.1212 91.6481 80.3752C91.6477 82.8867 91.8054 85.3489 93.4839 87.3346C96.7577 90.5337 103.202 89.9711 107.383 89.9279C112.616 89.8466 118.219 89.2497 123.206 87.5885C123.586 87.565 123.968 87.5555 124.349 87.5567C124.545 87.5561 124.742 87.5554 124.944 87.5547C125.492 87.5885 125.492 87.5885 126.254 87.8423C127.77 87.978 129.032 87.9777 130.319 87.0807C131.07 86.3335 131.682 85.5226 132.097 84.5419C133.961 84.64 135.497 85.7825 136.908 86.922C137.42 87.4131 137.42 87.4131 138.194 87.3346C138.474 86.4509 138.617 85.7147 138.448 84.7958C137.78 84.1512 137.099 83.7106 136.298 83.2438C135.653 82.7648 135.653 82.7648 135.437 82.0716C135.424 81.8814 135.412 81.6913 135.399 81.4954C136.662 81.9433 137.796 82.6109 138.956 83.2725C139.008 82.9479 139.06 82.6232 139.114 82.2887C139.144 82.1061 139.173 81.9235 139.204 81.7354C139.206 81.5724 139.208 81.4094 139.21 81.2415C138.508 80.5402 137.887 80.5869 136.923 80.4799C137.007 80.1447 137.091 79.8096 137.177 79.4643C138.072 79.444 138.859 79.4542 139.718 79.7182C140.021 78.734 140.226 77.9623 140.226 76.9256C138.703 76.1647 136.695 76.7759 135.145 77.2112C134.833 77.2947 134.833 77.2947 134.515 77.38C133.478 77.666 132.463 77.9823 131.457 78.3645C131.273 78.434 131.089 78.5035 130.9 78.5752C130.561 78.7067 130.223 78.8434 129.889 78.987C127.121 80.0741 123.813 79.4151 120.949 79.0468C120.596 79.003 120.243 78.9592 119.89 78.9157C119.155 78.8246 118.421 78.7321 117.686 78.6384C116.761 78.5205 115.835 78.4049 114.909 78.2902C110.977 77.803 107.051 77.2902 103.137 76.6717C103.137 76.3366 103.137 76.0014 103.137 75.6562C104.227 75.6562 105.317 75.6562 106.44 75.6562C106.655 74.7936 106.723 74.1914 106.718 73.3197C106.718 73.071 106.717 72.8222 106.716 72.566C106.714 72.3081 106.712 72.0502 106.709 71.7845C106.708 71.5227 106.707 71.2609 106.706 70.9911C106.703 70.3459 106.699 69.7006 106.694 69.0553C104.866 68.808 103.146 68.8092 101.311 68.976ZM165.375 69.817C164.754 70.7479 164.656 71.5277 164.867 72.6096C165.368 73.3019 165.368 73.3019 166.137 73.6251C166.927 73.7087 166.927 73.7087 167.661 73.3713C168.345 72.5986 168.645 72.0778 168.789 71.0546C168.663 70.2281 168.526 69.8778 167.915 69.3092C166.825 68.8792 166.286 69.1279 165.375 69.817ZM71.3831 80.4799C71.3831 81.9451 71.4057 83.3453 71.5423 84.7945C71.5592 84.9831 71.5761 85.1716 71.5936 85.3659C71.6491 85.9809 71.7061 86.5958 71.7631 87.2106C71.8025 87.642 71.8417 88.0734 71.8809 88.5047C71.9629 89.4051 72.0456 90.3053 72.1289 91.2056C72.2353 92.357 72.3403 93.5086 72.4449 94.6602C72.5257 95.5495 72.6071 96.4388 72.6888 97.3281C72.7277 97.7527 72.7665 98.1773 72.8051 98.6019C72.8592 99.1954 72.9141 99.7888 72.9692 100.382C72.9849 100.556 73.0007 100.73 73.0168 100.909C73.1097 101.899 73.2512 102.852 73.4153 103.837C83.3073 103.837 93.1994 103.837 103.391 103.837C103.14 103.083 102.888 102.329 102.629 101.552C102.04 101.37 101.447 101.201 100.851 101.044C98.9174 98.3389 98.6683 94.1215 98.3105 90.8889C98.1749 90.8457 98.0394 90.8025 97.8997 90.758C93.3873 89.2912 93.3873 89.2912 92.2137 87.8423C92.0356 87.6329 91.8574 87.4234 91.6739 87.2076C90.5606 85.1307 90.4128 82.7914 90.1815 80.4799C83.978 80.4799 77.7745 80.4799 71.3831 80.4799ZM132.605 86.0652C132.505 86.2537 132.406 86.4422 132.303 86.6364C131.803 87.3953 131.303 87.8159 130.573 88.3501C130.237 88.6014 129.902 88.8528 129.556 89.1117C132.155 89.1117 134.754 89.1117 137.431 89.1117C137.012 88.7766 136.593 88.4415 136.161 88.0962C135.97 87.9382 135.779 87.7801 135.582 87.6172C135.396 87.4664 135.21 87.3155 135.018 87.16C134.832 87.0072 134.646 86.8544 134.455 86.6969C133.827 86.288 133.342 86.1624 132.605 86.0652ZM122.952 88.8579C122.952 88.9416 122.952 89.0254 122.952 89.1117C123.958 89.1117 124.964 89.1117 126 89.1117C124.792 88.5081 124.221 88.5835 122.952 88.8579ZM174.774 95.9665C174.602 96.0819 174.43 96.1974 174.252 96.3164C173.245 96.9946 172.246 97.6843 171.251 98.3803C170.664 98.7908 170.076 99.1994 169.488 99.608C167.442 101.032 165.407 102.468 163.39 103.932C152.127 112.096 152.127 112.096 147.339 114.5C147.339 114.583 147.339 114.667 147.339 114.753C149.656 114.796 151.9 114.708 154.198 114.404C154.676 114.342 154.676 114.342 155.165 114.279C160.027 113.621 164.846 112.655 169.665 111.744C170.07 111.667 170.07 111.667 170.483 111.589C170.857 111.518 170.857 111.518 171.238 111.445C171.456 111.403 171.674 111.362 171.898 111.319C172.438 111.209 172.971 111.084 173.504 110.945C173.47 110.795 173.437 110.645 173.402 110.49C173.309 110.076 173.217 109.661 173.126 109.247C173.033 108.828 172.937 108.411 172.837 107.994C172.683 107.02 172.547 106.004 172.996 105.106C173.331 105.106 173.667 105.106 174.012 105.106C174.019 105.315 174.025 105.524 174.032 105.739C174.13 107.664 174.439 109.209 175.282 110.945C175.941 109.957 176.476 108.917 177.029 107.867C177.139 107.66 177.249 107.452 177.363 107.238C178.083 105.874 178.739 104.493 179.347 103.075C179.682 103.075 180.017 103.075 180.363 103.075C179.737 105.448 178.671 107.551 177.539 109.719C175.882 112.926 175.698 115.621 176.138 119.148C176.264 120.161 176.38 121.175 176.498 122.189C176.523 122.407 176.548 122.624 176.574 122.848C176.881 125.513 177.135 128.182 177.388 130.852C177.437 131.368 177.486 131.883 177.535 132.399C177.66 133.705 177.783 135.011 177.906 136.318C178.106 138.43 178.307 140.541 178.508 142.653C178.576 143.376 178.644 144.099 178.713 144.823C178.99 147.75 179.287 150.674 179.601 153.597C181.644 153.503 183.686 153.408 185.729 153.312C186.678 153.268 187.627 153.223 188.576 153.18C189.493 153.138 190.41 153.095 191.328 153.051C191.676 153.035 192.024 153.019 192.372 153.003C194.304 152.915 196.224 152.803 198.145 152.581C198.404 151.027 198.48 149.483 198.545 147.91C198.557 147.621 198.569 147.333 198.582 147.036C198.623 146.079 198.663 145.122 198.702 144.165C198.723 143.66 198.744 143.155 198.765 142.65C198.863 140.296 198.957 137.942 199.05 135.587C199.057 135.403 199.065 135.219 199.072 135.029C199.615 121.485 199.615 121.485 199.826 107.933C199.828 107.38 199.833 106.827 199.838 106.274C199.904 101.103 199.904 101.103 198.399 96.2203C198.329 96.0691 198.258 95.9179 198.185 95.7621C197.006 93.253 195.612 91.2491 193.054 90.0489C186.682 87.7993 179.81 92.584 174.774 95.9665ZM117.871 90.1273C117.622 90.1599 117.622 90.1599 117.368 90.1931C116.594 90.2939 115.819 90.393 115.045 90.4922C114.784 90.5264 114.523 90.5606 114.254 90.5958C110.764 91.04 107.317 91.1791 103.804 91.1586C103.416 91.1574 103.029 91.1562 102.641 91.1552C101.706 91.1524 100.77 91.1481 99.8347 91.1428C99.9497 93.0429 100.105 94.8788 100.565 96.7281C100.606 96.9084 100.647 97.0887 100.689 97.2745C100.938 98.3114 101.264 99.1476 101.867 100.029C102.965 99.8806 103.891 99.6122 104.91 99.1816C105.203 99.0592 105.496 98.9367 105.797 98.8106C106.112 98.6771 106.426 98.5436 106.741 98.41C107.233 98.2036 107.725 97.9978 108.217 97.7919C108.555 97.6506 108.892 97.5091 109.23 97.3673C111.004 96.6228 112.786 95.8969 114.569 95.1731C114.856 95.0561 115.144 94.9392 115.44 94.8187C116.588 94.3521 117.736 93.8868 118.887 93.4277C118.815 93.0677 118.74 92.7081 118.665 92.3487C118.624 92.1484 118.582 91.9481 118.54 91.7418C118.381 91.1494 118.152 90.6697 117.871 90.1273ZM40.3276 111.628C40.1809 111.821 40.0342 112.015 39.8831 112.215C39.7992 112.298 39.7154 112.382 39.629 112.469C39.5559 113.212 39.5049 113.777 39.629 114.5C40.4215 115.385 41.2779 115.753 42.4234 116.023C43.2106 115.823 43.2106 115.823 43.9635 115.436C47.7118 113.676 51.4279 114.661 55.1734 115.962C56.2753 116.367 57.353 116.819 58.4274 117.292C58.7629 117.434 58.7629 117.434 59.1052 117.579C59.6658 117.832 59.6658 117.832 60.4597 118.308C60.6363 118.845 60.6363 118.845 60.7137 119.323C59.5978 119.186 58.7904 118.911 57.8082 118.371C56.0386 117.455 54.2304 116.856 52.3307 116.277C52.143 116.214 51.9554 116.15 51.7621 116.085C49.0603 115.259 46.2283 115.655 43.6936 116.785C42.5385 117.399 41.5748 118.059 41.1532 119.323C41.0256 120.879 41.1251 121.642 42.1694 122.878C44.7989 125.571 48.5155 125.835 52.0766 125.924C52.9053 125.926 53.7337 125.918 54.5624 125.908C54.7857 125.906 55.0091 125.903 55.2392 125.901C55.4666 125.898 55.694 125.895 55.9283 125.893C56.3962 125.887 56.864 125.882 57.3319 125.877C57.5637 125.874 57.7956 125.871 58.0344 125.868C61.9532 125.829 65.5482 126.18 69.3508 127.194C68.7941 124.225 67.3934 122.076 65.3151 119.896C64.7782 119.323 64.7782 119.323 64.2801 118.684C60.531 114.126 53.6056 110.598 47.7581 109.93C45.3162 109.74 42.1891 109.789 40.3276 111.628ZM200.94 112.215C200.929 112.638 200.929 113.061 200.94 113.484C201.215 113.817 201.215 113.817 201.885 113.763C202.165 113.76 202.445 113.757 202.734 113.754C203.014 113.752 203.295 113.749 203.584 113.747C203.801 113.744 204.018 113.741 204.242 113.738C203.966 112.913 203.966 112.913 203.48 112.215C203.052 112.196 202.622 112.193 202.194 112.199C201.96 112.201 201.727 112.203 201.486 112.206C201.306 112.209 201.125 112.212 200.94 112.215ZM225.533 113.23C225.286 113.397 225.286 113.397 225.033 113.567C221.071 116.249 217.157 118.999 213.293 121.82C212.907 122.096 212.512 122.36 212.117 122.624C212.516 124.139 213.324 125.373 214.149 126.686C215.488 126.271 216.494 125.426 217.595 124.591C219.323 123.3 221.064 122.033 222.834 120.799C223.148 120.579 223.148 120.579 223.468 120.355C224.487 119.644 225.512 118.944 226.55 118.261C226.741 118.135 226.931 118.008 227.127 117.878C227.484 117.642 227.843 117.408 228.205 117.178C228.735 116.838 228.735 116.838 229.391 116.277C229.391 115.106 229.123 114.669 228.534 113.675C228.375 113.401 228.215 113.127 228.052 112.845C227.907 112.637 227.762 112.429 227.613 112.215C226.786 112.215 226.197 112.778 225.533 113.23ZM106.591 112.224C106.3 112.226 106.008 112.229 105.708 112.231C105.226 112.234 105.226 112.234 104.735 112.238C104.394 112.241 104.054 112.243 103.713 112.246C102.787 112.252 101.862 112.259 100.936 112.266C99.9689 112.273 99.002 112.28 98.0351 112.287C96.2033 112.301 94.3716 112.314 92.5399 112.328C90.4548 112.343 88.3697 112.358 86.2847 112.374C81.9949 112.405 77.7051 112.437 73.4153 112.469C73.4992 112.971 73.583 113.474 73.6694 113.992C77.3528 113.956 81.0363 113.919 84.7198 113.881C84.9899 113.878 85.2601 113.875 85.5384 113.872C93.5228 113.789 101.506 113.691 109.488 113.484C109.163 113.051 108.823 112.628 108.472 112.215C107.845 112.215 107.218 112.22 106.591 112.224ZM170.456 112.849C170.259 112.886 170.062 112.922 169.859 112.959C169.38 113.048 168.902 113.139 168.423 113.23C168.423 113.314 168.423 113.398 168.423 113.484C170.519 113.484 172.615 113.484 174.774 113.484C174.774 113.149 174.774 112.814 174.774 112.469C173.281 112.428 171.92 112.568 170.456 112.849ZM2.28629 125.67C2.19872 126.43 2.19872 126.43 2.6594 126.824C2.91482 127.03 2.91482 127.03 3.1754 127.241C3.91245 127.856 4.59456 128.481 5.25529 129.177C8.74806 132.688 13.0863 135.354 18.1474 135.413C21.2242 135.384 23.7523 134.745 26.0859 132.684C27.751 130.795 28.614 129.192 28.5647 126.607C28.3771 125.474 27.8033 124.853 26.9274 124.147C23.2821 121.69 17.504 122.864 13.4637 123.639C12.455 123.868 11.4643 124.141 10.4729 124.435C9.60963 124.666 8.76135 124.799 7.875 124.909C7.875 124.574 7.875 124.238 7.875 123.893C13.1272 122.237 20.7655 119.903 26.0849 122.441C26.3001 122.559 26.5152 122.677 26.7369 122.798C27.9773 123.47 28.6143 123.517 29.9758 123.131C31.0526 122.555 31.0526 122.555 31.754 121.608C31.8795 120.522 31.8378 119.973 31.2777 119.022C29.6506 117.294 27.0691 117.049 24.8317 116.975C17.3229 117.059 7.5895 120.158 2.28629 125.67ZM74.4315 119.069C74.4094 119.351 74.3873 119.632 74.3646 119.922C72.4668 144.099 72.4668 144.099 71.526 154.152C71.502 154.409 71.502 154.409 71.4776 154.67C70.9319 160.507 70.9319 160.507 70.7301 162.127C70.6116 163.34 70.621 164.564 70.621 165.783C79.4232 165.783 88.2254 165.783 97.2944 165.783C97.3024 160.834 97.3024 160.834 97.1818 155.892C97.1698 155.561 97.1578 155.23 97.1455 154.889C97.1134 154.004 97.08 153.12 97.0462 152.235C97.0107 151.299 96.9764 150.362 96.9418 149.426C96.8839 147.859 96.8251 146.293 96.7656 144.727C96.6972 142.923 96.6302 141.119 96.5639 139.315C96.4996 137.564 96.4343 135.814 96.3686 134.063C96.3409 133.324 96.3135 132.585 96.2863 131.846C96.2483 130.815 96.2091 129.785 96.1696 128.754C96.1587 128.452 96.1477 128.151 96.1364 127.84C96.0716 126.177 95.9606 124.53 95.7702 122.878C95.6052 122.877 95.4402 122.877 95.2702 122.876C93.7245 122.872 92.179 122.857 90.6334 122.839C90.0523 122.833 89.4711 122.829 88.8899 122.828C82.7944 122.811 82.7944 122.811 80.0202 121.354C79.5699 121.146 79.1194 120.938 78.6686 120.731C78.0494 120.43 77.4322 120.125 76.815 119.82C76.6146 119.722 76.4142 119.625 76.2077 119.525C76.0305 119.437 75.8533 119.349 75.6707 119.259C75.1611 119.023 75.1611 119.023 74.4315 119.069ZM97.2944 122.878C97.454 128.461 97.6227 134.041 97.8421 139.622C97.8627 140.148 97.8832 140.675 97.9037 141.201C97.9674 142.838 98.0317 144.475 98.0963 146.112C98.1625 147.79 98.2277 149.469 98.2924 151.148C98.3487 152.607 98.4057 154.066 98.4633 155.526C98.4974 156.39 98.5312 157.254 98.5642 158.118C98.601 159.074 98.6389 160.03 98.6772 160.985C98.6877 161.267 98.6983 161.548 98.7092 161.837C98.7198 162.098 98.7305 162.359 98.7415 162.628C98.7503 162.853 98.7591 163.077 98.7682 163.309C98.8281 164.137 98.955 164.96 99.0726 165.783C100.498 165.783 101.923 165.783 103.391 165.783C103.696 165.235 103.696 165.235 104.006 164.675C108.251 157.073 112.743 149.763 120.014 144.695C120.192 144.571 120.369 144.447 120.552 144.318C120.804 144.147 120.804 144.147 121.061 143.972C121.211 143.87 121.362 143.767 121.516 143.662C121.935 143.442 121.935 143.442 122.698 143.442C122.553 144.345 122.326 145.012 121.859 145.796C121.738 146.002 121.617 146.209 121.492 146.421C121.361 146.642 121.229 146.863 121.094 147.091C118.749 151.128 116.585 155.207 114.743 159.5C114.62 159.785 114.496 160.071 114.369 160.366C114.257 160.631 114.146 160.896 114.032 161.17C113.933 161.405 113.834 161.64 113.732 161.883C113.481 162.512 113.481 162.512 113.806 163.244C113.918 163.084 114.029 162.924 114.144 162.758C117.763 157.656 122.381 152.742 128.286 150.297C128.622 150.297 128.957 150.297 129.302 150.297C129.154 151.216 128.907 151.926 128.464 152.744C128.343 152.971 128.221 153.198 128.096 153.432C127.9 153.796 127.9 153.796 127.699 154.168C126.516 156.397 125.371 158.641 124.269 160.912C124.134 161.187 123.998 161.463 123.859 161.747C123.736 162.002 123.613 162.257 123.486 162.519C123.322 162.858 123.322 162.858 123.154 163.204C123.087 163.385 123.021 163.566 122.952 163.752C123.035 163.92 123.119 164.087 123.206 164.26C123.437 164.017 123.667 163.775 123.905 163.525C126.055 161.302 128.269 159.396 130.827 157.659C131.099 157.466 131.371 157.273 131.651 157.075C132.351 156.643 132.351 156.643 133.113 156.643C133.022 158.191 132.277 159.161 131.414 160.388C131.136 160.794 130.859 161.2 130.582 161.606C130.448 161.8 130.315 161.994 130.178 162.195C128.893 163.862 128.893 163.862 128.286 165.783C145.555 165.783 162.825 165.783 180.617 165.783C181.684 162.214 181.684 162.214 181.633 160.452C181.453 160.436 181.272 160.421 181.086 160.405C180.853 160.384 180.619 160.363 180.379 160.341C180.03 160.31 180.03 160.31 179.673 160.278C179.093 160.198 179.093 160.198 178.839 159.944C178.76 159.348 178.697 158.758 178.643 158.16C178.626 157.972 178.608 157.784 178.589 157.59C178.53 156.96 178.472 156.329 178.414 155.698C178.372 155.253 178.331 154.808 178.289 154.363C178.176 153.166 178.066 151.968 177.955 150.771C177.864 149.783 177.771 148.796 177.679 147.808C177.243 143.143 176.813 138.478 176.399 133.811C176.384 133.642 176.369 133.474 176.353 133.3C176.203 131.607 176.054 129.913 175.907 128.22C175.872 127.812 175.872 127.812 175.835 127.396C175.792 126.9 175.749 126.404 175.707 125.907C175.688 125.692 175.669 125.476 175.649 125.254C175.634 125.069 175.618 124.884 175.601 124.694C175.529 124.084 175.403 123.48 175.282 122.878C149.546 122.878 123.81 122.878 97.2944 122.878ZM200.94 122.878C200.784 123.811 200.653 124.615 200.616 125.54C200.603 125.861 200.603 125.861 200.589 126.189C200.581 126.42 200.572 126.65 200.563 126.888C200.553 127.135 200.543 127.381 200.533 127.636C200.501 128.453 200.469 129.269 200.438 130.086C200.416 130.662 200.394 131.237 200.371 131.813C200.324 133.023 200.278 134.234 200.232 135.445C200.186 136.67 200.138 137.895 200.09 139.121C199.82 145.895 199.582 152.656 199.669 159.436C198.496 159.52 197.322 159.604 196.113 159.69C196.139 159.999 196.165 160.308 196.192 160.626C196.207 160.8 196.222 160.974 196.237 161.153C196.659 162.997 198.11 163.869 199.614 164.824C201.483 165.867 203.059 165.945 205.17 165.865C205.473 165.859 205.776 165.854 206.088 165.847C206.828 165.832 207.567 165.81 208.306 165.783C207.588 155.868 206.822 145.957 206.025 136.048C205.957 135.189 205.888 134.33 205.819 133.47C205.711 132.107 205.601 130.744 205.491 129.381C205.45 128.873 205.409 128.365 205.369 127.856C205.313 127.159 205.256 126.461 205.199 125.763C205.183 125.557 205.167 125.352 205.151 125.14C205.084 124.341 205.005 123.641 204.75 122.878C203.493 122.878 202.235 122.878 200.94 122.878ZM40.3911 133.287C39.8996 134.061 39.8831 134.352 39.8831 135.318C40.111 135.386 40.3389 135.454 40.5737 135.524C44.8448 136.864 48.8831 138.835 52.2354 141.839C52.3679 141.957 52.5005 142.075 52.637 142.196C53.3058 142.818 53.7632 143.272 53.8548 144.203C52.8609 144.057 52.3331 143.582 51.5844 142.934C47.6661 139.67 42.7807 136.346 37.4579 136.514C36.6019 136.614 36.0098 136.847 35.3105 137.349C34.6506 138.442 34.5997 139.404 34.8024 140.649C35.9178 143.989 38.3645 146.166 41.3421 147.854C42.6519 148.506 43.9988 148.889 45.4083 149.265C46.0125 149.436 46.6165 149.608 47.2202 149.781C47.5219 149.866 47.8236 149.952 48.1344 150.04C52.1317 151.188 55.849 152.509 59.4436 154.612C59.7791 154.805 60.1148 154.996 60.4508 155.188C60.8324 155.406 60.8324 155.406 61.2218 155.628C62.6763 150.569 60.288 144.048 57.8876 139.634C55.8156 136.199 52.5493 132.943 48.6105 131.827C45.8493 131.231 42.5975 131.286 40.3911 133.287ZM35.0565 144.457C35.0528 144.635 35.049 144.812 35.0452 144.994C34.9308 150.039 34.6473 155.062 34.2985 160.095C34.2816 160.341 34.2648 160.587 34.2474 160.84C34.2155 161.302 34.1831 161.764 34.15 162.225C34.0676 163.415 34.0243 164.591 34.0403 165.783C34.5433 165.657 34.5433 165.657 35.0565 165.529C35.0938 165.225 35.1311 164.92 35.1696 164.606C35.8459 159.438 37.2711 154.954 39.6275 150.307C39.9154 149.723 40.1656 149.13 40.3911 148.519C40.2372 148.439 40.0833 148.358 39.9247 148.275C38.2997 147.371 37.0781 146.308 35.8017 144.959C35.6396 144.794 35.4775 144.628 35.3105 144.457C35.2267 144.457 35.1428 144.457 35.0565 144.457ZM119.141 146.996C113.26 151.862 108.371 158.306 105.169 165.275C105.169 165.443 105.169 165.61 105.169 165.783C107.097 165.783 109.026 165.783 111.012 165.783C111.191 165.3 111.37 164.818 111.554 164.32C112.875 160.791 114.27 157.321 115.918 153.93C116.061 153.636 116.203 153.341 116.35 153.037C117.188 151.34 118.094 149.71 119.091 148.101C119.191 147.904 119.292 147.707 119.395 147.504C119.269 147.253 119.269 147.253 119.141 146.996ZM124.635 153.93C124.476 154.043 124.318 154.157 124.155 154.274C122.539 155.455 121.084 156.772 119.649 158.167C119.51 158.3 119.37 158.433 119.226 158.57C118.089 159.673 117.111 160.855 116.156 162.118C115.942 162.395 115.942 162.395 115.723 162.679C114.939 163.706 114.398 164.601 113.806 165.783C115.986 165.783 118.166 165.783 120.411 165.783C122.104 162.644 123.66 159.479 125.125 156.228C125.642 155.081 126.19 153.956 126.762 152.835C125.911 152.835 125.304 153.449 124.635 153.93ZM192.135 154.271C191.779 154.288 191.424 154.305 191.068 154.323C190.14 154.367 189.211 154.412 188.283 154.458C187.333 154.504 186.382 154.55 185.432 154.596C183.573 154.685 181.714 154.776 179.855 154.866C179.46 155.655 179.706 156.324 179.839 157.183C179.888 157.508 179.938 157.834 179.989 158.169C180.028 158.419 180.068 158.67 180.109 158.928C183.791 158.999 187.451 158.881 191.128 158.69C191.453 158.674 191.453 158.674 191.785 158.657C192.414 158.624 193.044 158.591 193.674 158.556C193.953 158.542 193.953 158.542 194.239 158.527C195.548 158.453 196.843 158.32 198.145 158.167C198.145 156.826 198.145 155.486 198.145 154.105C196.137 154.082 194.14 154.172 192.135 154.271ZM31.9763 155.803C31.368 156.502 31.0174 156.921 30.9145 157.85C30.9687 158.383 31.0378 158.914 31.118 159.443C31.3112 160.732 31.2732 162.024 31.2618 163.324C31.2607 163.565 31.2596 163.806 31.2584 164.055C31.2554 164.631 31.2513 165.207 31.246 165.783C31.6651 165.783 32.0843 165.783 32.5161 165.783C32.6264 164.677 32.7349 163.572 32.8417 162.466C32.8782 162.091 32.9152 161.716 32.9526 161.341C33.1682 159.179 33.3413 157.041 33.2782 154.866C32.7419 154.866 32.3308 155.459 31.9763 155.803ZM29.4677 158.421C29.3553 158.527 29.2428 158.633 29.1269 158.742C28.6058 159.233 28.0841 159.723 27.5625 160.214C27.3857 160.38 27.2088 160.547 27.0267 160.719C26.8498 160.885 26.673 161.051 26.4908 161.222C26.2221 161.475 26.2221 161.475 25.948 161.732C25.2668 162.353 24.5581 162.938 23.8388 163.515C23.1918 164.155 23.1918 164.155 22.3548 165.783C24.8698 165.783 27.3847 165.783 29.9758 165.783C29.9863 164.71 29.9968 163.636 30.0076 162.53C30.0122 162.193 30.0168 161.855 30.0216 161.507C30.0228 161.241 30.0241 160.975 30.0254 160.701C30.0281 160.428 30.0307 160.155 30.0335 159.875C30.0274 159.127 30.0274 159.127 29.4677 158.421ZM127.207 162.118C126.983 162.326 126.983 162.326 126.755 162.538C125.752 163.482 124.815 164.44 123.968 165.529C123.968 165.613 123.968 165.697 123.968 165.783C124.913 166.09 125.573 166.145 126.508 165.783C127.753 164.382 128.712 162.477 129.302 160.706C128.406 160.706 127.832 161.53 127.207 162.118Z" fill="white"/>
<path d="M138.449 17.0107C138.785 17.0945 139.12 17.1783 139.465 17.2646C139.381 18.0186 139.297 18.7727 139.211 19.5495C138.876 19.5495 138.541 19.5495 138.196 19.5495C137.901 18.5202 137.983 17.9709 138.449 17.0107Z" fill="white"/>
<path d="M142.259 19.041C142.594 19.2086 142.93 19.3761 143.275 19.5488C143.253 20.2367 143.226 20.9239 143.196 21.6115C143.187 21.9012 143.187 21.9012 143.178 22.1966C143.11 23.6429 142.781 24.6763 141.91 25.864C141.325 26.2686 140.921 26.2386 140.227 26.1496C140.059 25.9821 139.891 25.8145 139.719 25.6419C139.751 25.1341 139.751 25.1341 139.973 24.6263C140.139 24.5534 140.305 24.4804 140.476 24.4052C141.025 24.167 141.025 24.167 141.19 23.6495C141.223 23.4639 141.256 23.2784 141.291 23.0872C141.328 22.885 141.366 22.6827 141.405 22.4743C141.522 21.6576 141.606 20.8409 141.664 20.0179C141.751 19.5488 141.751 19.5488 142.259 19.041Z" fill="white"/>
<path d="M135.908 25.8955C137.045 26.0253 137.581 26.4456 138.448 27.1649C138.951 27.4301 139.458 27.6871 139.973 27.9265C139.889 28.2617 139.805 28.5968 139.719 28.9421C138.082 28.8112 137.196 28.276 135.924 27.2918C135.654 26.911 135.654 26.911 135.734 26.3557C135.791 26.2038 135.849 26.052 135.908 25.8955Z" fill="white"/>
<path d="M46.7387 31.7344C47.3579 31.9248 47.3579 31.9248 48.0088 32.2421C48.2629 32.734 48.2629 32.734 48.2629 33.2576C47.9771 33.7178 47.9771 33.7178 47.5008 34.0193C46.818 33.9399 46.818 33.9399 46.2306 33.7654C46.0559 33.1783 46.0559 33.1783 45.9766 32.496C46.3417 32.0359 46.3417 32.0359 46.7387 31.7344Z" fill="white"/>
<path d="M202.905 34.9651C203.191 34.9627 203.476 34.9603 203.771 34.9578C204.077 34.958 204.383 34.9583 204.699 34.9585C205.015 34.9574 205.332 34.9563 205.658 34.9552C206.498 34.9534 207.337 34.9542 208.177 34.9556C208.691 34.9555 209.205 34.953 209.719 34.9495C210.708 34.9433 211.696 34.9422 212.685 34.9426C212.991 34.9403 213.297 34.938 213.613 34.9355C213.898 34.9371 214.184 34.9387 214.478 34.9403C214.729 34.9402 214.979 34.94 215.238 34.9399C216.057 35.052 216.536 35.3135 217.202 35.7965C217.865 37.1225 217.535 39.2432 217.545 40.72C217.549 41.2128 217.556 41.7055 217.565 42.1982C217.579 42.9089 217.585 43.6193 217.589 44.3302C217.594 44.5497 217.6 44.7693 217.606 44.9955C217.603 46.0006 217.521 46.5948 217.03 47.4875C215.655 48.2939 214.263 48.1532 212.699 48.1334C212.355 48.133 212.011 48.133 211.667 48.1334C210.948 48.133 210.23 48.1283 209.511 48.1203C208.59 48.1102 207.669 48.1091 206.748 48.111C206.038 48.1118 205.329 48.1087 204.62 48.1044C204.115 48.1017 203.611 48.1016 203.106 48.1015C202.8 48.0975 202.494 48.0934 202.178 48.0893C201.774 48.0861 201.774 48.0861 201.361 48.0828C200.69 47.9827 200.69 47.9827 200.231 47.6428C199.494 46.6192 199.632 45.4578 199.631 44.2548C199.63 44.0385 199.629 43.8223 199.628 43.5994C199.627 43.1421 199.626 42.6848 199.626 42.2275C199.626 41.5282 199.621 40.829 199.616 40.1298C199.616 39.6853 199.615 39.2409 199.615 38.7964C199.613 38.5875 199.611 38.3785 199.609 38.1633C199.617 36.2266 199.617 36.2266 200.182 35.5426C201.116 35.0885 201.871 34.97 202.905 34.9651ZM202.214 36.5581C202.214 36.7257 202.214 36.8933 202.214 37.0659C202.464 37.203 202.715 37.3401 202.973 37.4814C203.684 37.8867 204.354 38.3241 205.019 38.8004C205.192 38.9243 205.365 39.0481 205.543 39.1758C205.9 39.4331 206.255 39.6923 206.609 39.9533C206.867 40.1366 206.867 40.1366 207.131 40.3237C207.284 40.4355 207.438 40.5474 207.596 40.6627C208.047 40.9163 208.047 40.9163 208.548 40.8276C209.179 40.5782 209.7 40.2571 210.265 39.8824C210.489 39.7354 210.713 39.5885 210.943 39.4371C211.175 39.2829 211.406 39.1288 211.645 38.97C212.106 38.6657 212.567 38.3615 213.028 38.0576C213.232 37.9223 213.435 37.787 213.645 37.6475C214.153 37.3198 214.153 37.3198 214.661 37.0659C214.536 36.8146 214.536 36.8146 214.407 36.5581C210.383 36.5581 206.36 36.5581 202.214 36.5581ZM214.074 38.8272C213.8 39.0358 213.525 39.2441 213.25 39.452C213.107 39.5602 212.964 39.6684 212.817 39.78C212.088 40.3282 211.354 40.8675 210.613 41.3977C210.348 41.5891 210.084 41.7806 209.812 41.9778C209.009 42.4335 208.701 42.5854 207.802 42.3973C207.204 42.0305 206.671 41.6654 206.12 41.239C204.607 40.0955 203.064 39.107 201.452 38.0814C201.452 40.8461 201.452 43.6109 201.452 46.4594C203.3 46.4647 205.149 46.4698 206.998 46.4725C207.859 46.4739 208.72 46.4757 209.58 46.4786C210.567 46.4818 211.554 46.4831 212.541 46.4842C213.006 46.4862 213.006 46.4862 213.48 46.4882C213.765 46.4882 214.049 46.4882 214.343 46.4882C214.595 46.4888 214.847 46.4894 215.107 46.4899C215.67 46.5235 215.67 46.5235 215.932 46.2055C215.954 45.584 215.961 44.9696 215.956 44.348C215.956 44.1624 215.956 43.9768 215.955 43.7856C215.954 43.1906 215.951 42.5956 215.947 42.0007C215.946 41.5982 215.945 41.1957 215.944 40.7932C215.941 39.8047 215.937 38.8161 215.932 37.8275C215.124 37.8275 214.703 38.34 214.074 38.8272Z" fill="white"/>
<path d="M66.092 42.2393C66.2439 42.2916 66.3959 42.344 66.5524 42.3979C66.6362 42.9006 66.7201 43.4033 66.8065 43.9212C66.0444 44.429 66.0444 44.429 65.5045 44.3496C65.0282 44.1751 65.0282 44.1751 64.7742 43.9212C64.7107 43.3024 64.7107 43.3024 64.7742 42.6518C65.5363 42.1441 65.5363 42.1441 66.092 42.2393Z" fill="white"/>
<path d="M38.0988 58.6455C38.7815 58.8677 38.7815 58.8677 39.369 59.1533C39.4007 59.7562 39.4007 59.7562 39.369 60.4227C39.2013 60.5902 39.0336 60.7578 38.8609 60.9304C37.7036 60.7894 37.7036 60.7894 37.3367 60.4227C37.2732 59.8038 37.2732 59.8038 37.3367 59.1533C37.5882 58.9857 37.8397 58.8181 38.0988 58.6455Z" fill="white"/>
<path d="M230.542 76.3691C231.161 76.4167 231.161 76.4167 231.415 76.6706C231.463 77.2895 231.463 77.2895 231.415 77.94C231.247 78.1076 231.08 78.2751 230.907 78.4478C230.24 78.3526 230.24 78.3526 229.637 78.1939C229.478 77.5909 229.478 77.5909 229.383 76.9245C229.891 76.4167 229.891 76.4167 230.542 76.3691Z" fill="white"/>
<path d="M22.2132 87.2705C22.5354 87.3019 22.5354 87.3019 22.8642 87.334C23.3722 88.0956 23.3722 88.0956 23.3405 88.6192C23.0525 89.2566 22.7407 89.3718 22.1021 89.6189C21.7667 89.3675 21.4314 89.1162 21.0859 88.8572C21.3551 87.3585 21.3551 87.3585 22.2132 87.2705Z" fill="white"/>
<path d="M239.294 103.074C239.453 103.677 239.453 103.677 239.548 104.343C239.04 104.851 239.04 104.851 238.389 104.898C237.77 104.851 237.77 104.851 237.516 104.597C237.505 104.089 237.505 103.581 237.516 103.074C238.193 102.735 238.574 102.903 239.294 103.074Z" fill="white"/>
<path d="M162.837 134.301C162.996 134.904 162.996 134.904 163.091 135.571C162.583 136.078 162.583 136.078 161.916 136.11C161.717 136.1 161.518 136.089 161.313 136.078C161.043 135.618 161.043 135.618 160.805 135.063C160.889 134.812 160.972 134.56 161.059 134.301C161.736 133.963 162.117 134.131 162.837 134.301Z" fill="white"/>
<path d="M85.3566 144.456C86.0393 144.678 86.0393 144.678 86.6268 144.964C86.6585 145.567 86.6585 145.567 86.6268 146.233C86.4591 146.401 86.2914 146.568 86.1187 146.741C84.9614 146.6 84.9614 146.6 84.5945 146.233C84.531 145.614 84.531 145.614 84.5945 144.964C84.846 144.796 85.0975 144.629 85.3566 144.456Z" fill="white"/>
<path d="M224.556 151.28C225.318 151.312 225.318 151.312 225.572 151.566C225.619 152.185 225.619 152.185 225.572 152.835C225.404 153.003 225.236 153.17 225.064 153.343C223.906 153.202 223.906 153.202 223.539 152.835C223.508 152.201 223.508 152.201 223.539 151.566C223.793 151.312 223.793 151.312 224.556 151.28Z" fill="white"/>
</g>
<defs>
<clipPath id="clip0_246_2949">
<rect width="252" height="180" fill="white"/>
</clipPath>
</defs>
</svg>
