<svg width="274" height="180" viewBox="0 0 274 180" fill="none" xmlns="http://www.w3.org/2000/svg">
<g clip-path="url(#clip0_244_981)">
<path d="M226.38 6.12977C226.565 6.29657 226.749 6.46338 226.94 6.63524C227.151 6.81915 227.361 7.00307 227.578 7.19256C230.877 10.2433 232.466 14.1574 232.625 18.5844C232.649 21.1711 232.234 23.6814 231.775 26.2203C231.617 27.1541 231.506 28.0912 231.395 29.0316C231.642 29.157 231.889 29.2825 232.143 29.4117C233.544 30.3464 234.256 31.9083 234.583 33.5192C234.723 36.1522 233.601 38.696 231.913 40.6693C230.697 41.91 229.574 42.7258 227.775 42.8564C227.683 43.4951 227.591 44.1339 227.497 44.7919C227.037 44.7919 226.578 44.7919 226.104 44.7919C226.013 44.2445 225.921 43.697 225.826 43.1329C225.458 43.1329 225.091 43.1329 224.712 43.1329C224.705 43.4913 224.698 43.8497 224.691 44.219C224.665 45.5542 224.637 46.8893 224.609 48.2244C224.596 48.8013 224.585 49.3781 224.574 49.955C224.558 50.7862 224.54 51.6174 224.522 52.4485C224.517 52.7047 224.513 52.9608 224.508 53.2247C224.477 54.5853 224.383 55.8918 224.155 57.2343C224.448 57.2571 224.741 57.2799 225.043 57.3034C234.284 58.5024 243.507 64.7446 250.134 70.9155C250.751 71.4865 251.376 72.0372 252.018 72.5799C260.387 79.8622 265.257 90.2384 269.822 100.126C269.908 100.312 269.994 100.497 270.083 100.688C271.048 102.771 271.93 104.867 272.703 107.028C272.772 107.22 272.841 107.412 272.912 107.61C274.283 111.545 274.627 116.588 272.812 120.476C271.033 123.375 268.946 125.318 265.558 126.262C262.086 126.713 258.723 126.33 255.342 125.529C255.316 125.737 255.289 125.944 255.262 126.158C254.833 129.329 254.218 132.459 253.603 135.599C253.487 136.193 253.371 136.788 253.256 137.383C253.014 138.623 252.772 139.862 252.529 141.102C252.219 142.684 251.911 144.266 251.604 145.849C251.366 147.075 251.126 148.3 250.886 149.526C250.773 150.109 250.659 150.692 250.546 151.276C249.008 159.192 249.008 159.192 248.381 159.815C247.851 159.841 247.32 159.847 246.79 159.846C246.45 159.846 246.11 159.846 245.76 159.846C245.386 159.845 245.012 159.843 244.638 159.842C244.258 159.841 243.877 159.841 243.497 159.841C242.494 159.84 241.491 159.837 240.488 159.834C239.465 159.831 238.442 159.83 237.419 159.828C235.411 159.825 233.403 159.821 231.395 159.815C231.384 159.994 231.372 160.172 231.361 160.356C231.203 162.416 230.83 164.378 230.368 166.39C230.295 166.716 230.222 167.041 230.147 167.376C229.915 168.404 229.68 169.432 229.446 170.46C229.288 171.159 229.131 171.857 228.974 172.555C228.824 173.219 228.674 173.883 228.524 174.547C228.453 174.86 228.382 175.173 228.309 175.495C228.243 175.784 228.177 176.073 228.109 176.371C228.051 176.625 227.993 176.879 227.934 177.141C227.775 177.787 227.775 177.787 227.497 178.617C233.837 178.617 240.178 178.617 246.71 178.617C246.71 179.073 246.71 179.529 246.71 179.999C166.214 179.999 85.7184 179.999 2.78334 179.999C2.69145 179.543 2.59956 179.087 2.50488 178.617C6.82372 178.617 11.1426 178.617 15.5923 178.617C15.2247 177.978 14.8572 177.339 14.4785 176.681C14.213 175.379 14.2971 174.08 14.8961 172.879C16.8622 169.992 20.6951 169.056 23.8597 168.074C30.3035 166.068 35.4373 162.889 40.7892 158.888C40.9919 158.737 41.1946 158.586 41.4034 158.43C41.896 158.062 42.3885 157.695 42.8809 157.326C42.7178 157.325 42.5547 157.323 42.3866 157.322C40.6835 157.304 38.9805 157.28 37.2775 157.254C36.6425 157.245 36.0076 157.237 35.3726 157.231C34.458 157.221 33.5437 157.207 32.6292 157.191C32.3469 157.19 32.0646 157.188 31.7737 157.186C30.1785 157.153 28.9294 157.084 27.5659 156.22C26.7155 154.822 26.6063 153.571 26.6195 151.987C26.6187 151.773 26.6179 151.559 26.6171 151.339C26.6165 150.89 26.6181 150.441 26.6216 149.993C26.6261 149.31 26.6216 148.628 26.6163 147.945C26.6168 147.506 26.6179 147.068 26.6195 146.629C26.6178 146.428 26.6162 146.226 26.6144 146.018C26.6335 144.619 26.8489 143.615 27.5659 142.396C28.8638 141.465 30.0553 141.454 31.5926 141.485C31.788 141.486 31.9833 141.487 32.1846 141.488C32.9076 141.492 33.6303 141.503 34.3532 141.514C35.2287 141.524 36.1041 141.533 36.9796 141.542C37.4146 141.547 37.8495 141.551 38.2845 141.556C38.6067 141.559 38.929 141.563 39.261 141.566C39.2782 141.33 39.2954 141.094 39.3131 140.851C39.9161 132.687 40.7184 124.545 41.5411 116.401C41.6811 115.013 41.8199 113.625 41.9588 112.237C42.1269 110.558 42.2956 108.878 42.4643 107.198C42.511 106.732 42.511 106.732 42.5587 106.257C42.9228 102.632 43.3009 99.0101 43.7163 95.391C40.492 96.7239 38.622 98.4148 36.336 101.008C32.9987 104.743 27.8555 108.166 22.7973 108.729C21.3678 108.785 20.6132 108.502 19.4907 107.557C18.1092 106.166 17.1943 104.623 16.3058 102.891C16.1643 102.619 16.0229 102.346 15.8771 102.065C14.1658 98.7208 12.6365 95.2924 11.0896 91.871C10.1954 89.8965 9.27665 87.9336 8.35244 85.9728C8.19329 85.6344 8.03414 85.2961 7.875 84.9577C7.11457 83.3425 6.34993 81.7292 5.57958 80.1186C-0.0416168 68.364 -0.0416167 68.364 -0.0882339 64.3369C-0.100348 63.9928 -0.100348 63.9928 -0.112708 63.6418C-0.133952 61.5858 0.4333 60.4616 1.84355 58.9279C3.26744 58.0376 4.55259 57.9298 6.20638 58.1481C8.16734 58.6512 9.45891 59.9962 10.8585 61.3818C11.0091 61.5246 11.1596 61.6674 11.3147 61.8146C12.5412 62.994 13.5699 64.2536 14.5829 65.6157C17.8403 69.9063 21.0586 72.7856 25.9169 75.2007C28.3281 76.4424 30.437 77.9594 32.0211 80.1836C34.0453 79.5806 36.1255 78.9077 37.8687 77.6951C38.0768 76.7322 38.0768 76.7322 38.1472 75.7597C39.6836 74.396 41.7183 73.5038 43.5422 72.5799C44.1205 72.284 44.6988 71.9881 45.2771 71.6921C45.5741 71.5407 45.8711 71.3893 46.1771 71.2334C46.9995 70.8125 47.8193 70.3872 48.6382 69.9597C55.1814 66.5518 61.8095 63.3076 68.4226 60.0362C69.0051 59.7478 69.5874 59.459 70.1695 59.1698C70.0186 58.8788 70.0186 58.8788 69.8647 58.582C60.9603 41.3396 53.1236 21.1174 54.2976 1.38178C54.3894 1.10805 54.4813 0.834318 54.576 0.552291C55.9128 0.67696 56.6863 1.30412 57.6564 2.15943C57.9035 2.37416 57.9035 2.37416 58.1555 2.59322C61.7847 5.80215 65.2393 9.19532 68.136 13.0753C68.6595 13.757 69.216 14.4098 69.7705 15.0668C73.6336 19.6667 76.9019 24.6826 79.9154 29.861C80.176 30.3025 80.4367 30.7439 80.6975 31.1852C87.5009 42.777 87.5009 42.777 89.6527 48.4717C89.8687 49.1828 89.8687 49.1828 90.2183 49.4924C90.6401 49.5565 91.0641 49.6063 91.4887 49.6479C91.7188 49.6711 91.9489 49.6942 92.186 49.7181C92.3636 49.7349 92.5413 49.7516 92.7244 49.7689C92.7179 49.4093 92.7115 49.0496 92.7048 48.6791C92.5382 35.0305 94.7905 21.6564 98.5719 8.57072C98.6912 8.15752 98.6912 8.15752 98.8129 7.73597C99.3706 5.84219 99.3706 5.84219 99.6858 5.52925C100.15 5.51801 100.614 5.51744 101.078 5.52925C109.51 21.6736 112.736 38.9774 113.887 56.9578C113.962 56.7846 114.038 56.6114 114.115 56.433C118.909 45.4348 124.314 36.0269 131.958 26.7645C132.482 26.1291 133.001 25.4906 133.512 24.8441C135.978 21.7499 138.362 19.3318 142.446 18.853C143.143 18.7957 143.143 18.7957 143.682 18.8011C143.96 19.0776 143.96 19.0776 144.012 19.9892C143.99 21.5786 143.692 23.1172 143.403 24.6767C143.342 25.0107 143.281 25.3447 143.218 25.6889C141.278 36.024 138.566 46.124 135.328 56.1283C135.469 56.0835 135.611 56.0388 135.756 55.9926C136.672 55.8045 137.572 55.8109 138.503 55.8111C138.711 55.8101 138.919 55.8091 139.134 55.8081C139.832 55.805 140.53 55.8039 141.228 55.8029C141.729 55.8012 142.229 55.7993 142.73 55.7974C144.372 55.7916 146.015 55.7887 147.658 55.7859C148.224 55.7848 148.789 55.7837 149.355 55.7825C152.01 55.7773 154.665 55.7733 157.32 55.771C160.387 55.7683 163.454 55.761 166.521 55.7499C168.891 55.7415 171.261 55.7374 173.63 55.7365C175.046 55.7359 176.462 55.7334 177.878 55.7264C179.209 55.72 180.541 55.7188 181.872 55.7217C182.361 55.7218 182.85 55.7201 183.339 55.7163C184.005 55.7114 184.672 55.7133 185.338 55.717C185.532 55.7139 185.727 55.7109 185.927 55.7078C186.793 55.7193 187.333 55.8096 188.067 56.275C188.513 56.9578 188.513 56.9578 188.791 59.1698C192.191 59.1698 195.591 59.1698 199.094 59.1698C199.103 56.8463 199.103 56.8463 198.268 56.1532C198.035 56.048 197.802 55.9429 197.563 55.8345C192.902 53.4018 191.123 49.0523 189.54 44.3106C188.634 41.3586 188.47 38.3831 188.456 35.3132C188.455 35.0221 188.453 34.731 188.452 34.431C188.449 33.8175 188.447 33.2041 188.446 32.5906C188.443 31.6685 188.435 30.7465 188.426 29.8243C188.412 26.897 188.451 24.0781 189.104 21.2114C189.392 19.8763 189.269 18.9709 188.791 17.6951C188.467 17.1752 188.467 17.1752 188.078 16.7965C186.986 15.5737 186.972 14.4224 186.993 12.8424C187.421 9.64 189.697 6.73619 192.133 4.69976C201.31 -2.23545 217.586 -1.25502 226.38 6.12977ZM56.5252 3.87026C56.2475 14.0561 57.9546 24.0169 60.9805 33.732C61.0629 33.9999 61.1453 34.2678 61.2303 34.5438C63.1853 40.8312 65.7655 46.8707 68.638 52.7931C68.7208 52.9642 68.8035 53.1353 68.8888 53.3115C70.071 55.7768 70.071 55.7768 71.5618 58.0638C72.67 58.4084 73.2808 58.4197 74.3779 58.0411C74.6719 57.8832 74.9658 57.7253 75.2687 57.5627C75.4342 57.4758 75.5996 57.389 75.77 57.2995C76.7161 56.7983 77.6478 56.2718 78.5808 55.7471C78.9908 55.5169 79.4009 55.2868 79.811 55.0569C80.017 54.941 80.2229 54.825 80.4351 54.7056C82.7269 53.4355 85.1174 52.3943 87.5273 51.3673C87.9897 51.1836 87.9897 51.1836 88.2691 50.8749C88.306 47.514 87.0065 44.144 85.4846 41.1975C85.3657 40.9611 85.3657 40.9611 85.2444 40.7201C82.1421 34.6164 77.8862 29.0261 73.8895 23.4774C73.4813 22.9072 73.0781 22.3337 72.6756 21.7594C68.5784 15.9228 64.0552 9.78228 58.4744 5.25275C58.3103 5.11339 58.1463 4.97403 57.9773 4.83044C57.3327 4.16651 57.3327 4.16651 56.5252 3.87026ZM198.251 7.02515C196.799 8.99735 195.875 10.7884 196.031 13.2712C196.883 13.0859 196.883 13.0859 197.192 12.4898C197.292 12.2747 197.393 12.0596 197.496 11.8379C197.607 11.6043 197.717 11.3707 197.831 11.1299C197.943 10.8842 198.056 10.6384 198.172 10.3852C198.288 10.1406 198.403 9.89587 198.523 9.64377C199.137 8.46289 199.137 8.46289 199.373 7.18824C199.614 7.17113 199.855 7.15402 200.104 7.13639C201.34 6.84093 201.817 6.41995 202.714 5.52925C202.977 4.93055 202.977 4.93055 202.993 4.42326C200.908 4.05175 199.503 5.5479 198.251 7.02515ZM205.305 10.5451C204.607 11.5334 204.385 12.0298 204.385 13.2712C204.661 13.3624 204.936 13.4537 205.22 13.5477C205.338 13.3873 205.456 13.2269 205.578 13.0617C208.274 9.49685 211.646 7.88968 215.802 6.35874C215.802 5.99377 215.802 5.62879 215.802 5.25275C211.892 4.8013 207.693 7.69096 205.305 10.5451ZM100.243 8.84722C98.6103 13.5806 97.3059 18.3133 96.3443 23.2251C96.2898 23.5027 96.2353 23.7803 96.1791 24.0663C94.8409 31.0864 94.3159 38.2588 94.3255 45.3968C94.3257 45.6034 94.3259 45.8101 94.3261 46.023C94.1407 48.0492 94.1407 48.0492 94.6736 49.7689C95.0818 49.8346 95.4926 49.885 95.9038 49.9287C101.29 50.5457 105.816 52.0269 110.225 55.2384C110.999 55.9049 110.999 55.9049 111.659 55.8518C111.958 42.9932 109.263 30.3808 105.081 18.2481C105.018 18.0668 104.956 17.8855 104.892 17.6988C104.474 16.4923 104.037 15.2947 103.584 14.1007C103.518 13.9246 103.451 13.7486 103.383 13.5673C102.357 10.8081 102.357 10.8081 100.243 8.84722ZM191.506 17.747C190.111 19.9739 190.474 22.3716 190.741 24.8841C190.95 24.9112 191.158 24.9383 191.374 24.9662C193.14 25.2225 194.687 25.6014 196.321 26.3206C196.854 26.5781 196.854 26.5781 197.424 26.5431C197.332 27.1818 197.24 27.8205 197.145 28.4786C196.961 28.4687 196.777 28.4589 196.587 28.4488C195.758 28.4054 194.929 28.3642 194.1 28.323C193.81 28.3075 193.52 28.292 193.221 28.276C192.946 28.2627 192.67 28.2493 192.386 28.2355C192.131 28.2225 191.876 28.2095 191.613 28.1961C191.023 28.1332 191.023 28.1332 190.741 28.4786C189.397 36.0613 190.193 45.1278 194.5 51.6698C195.955 53.5277 197.666 54.6399 199.93 55.2988C200.113 55.2076 200.297 55.1163 200.487 55.0223C200.211 54.7486 199.935 54.4749 199.651 54.1928C199.87 54.2495 200.088 54.3062 200.314 54.3646C203.487 55.1726 206.222 55.6432 209.397 54.7458C209.814 54.6408 210.232 54.5371 210.65 54.4348C211.133 54.315 211.133 54.315 211.625 54.1928C211.717 54.5578 211.809 54.9228 211.903 55.2988C211.708 55.3755 211.513 55.4521 211.312 55.531C210.196 55.978 209.093 56.4527 207.987 56.9243C206.321 57.5558 204.65 57.5941 202.887 57.6782C201.79 57.7174 201.79 57.7174 200.765 58.0638C200.372 59.6261 200.489 60.9727 201.043 62.4878C202.025 64.0529 203.218 64.7059 204.942 65.2528C205.991 65.4022 207.016 65.4113 208.074 65.391C208.358 65.3871 208.641 65.3831 208.933 65.3791C213.988 65.2385 218.234 62.9035 221.917 59.5727C223.152 58.0951 223.116 56.5152 223.086 54.6897C223.085 54.447 223.083 54.2042 223.082 53.9542C223.077 53.1811 223.068 52.4082 223.059 51.6352C223.051 50.8662 223.044 50.0972 223.039 49.3282C223.036 48.8511 223.031 48.3741 223.024 47.897C223.013 46.4906 223.097 45.1203 223.257 43.7227C223.329 43.0511 223.348 42.391 223.337 41.7159C223.332 41.3623 223.326 41.0087 223.32 40.6445C223.687 40.6445 224.055 40.6445 224.434 40.6445C224.526 40.9182 224.618 41.1919 224.712 41.474C225.273 41.6767 225.273 41.6767 225.826 41.7504C225.964 41.3398 225.964 41.3398 226.104 40.921C226.288 41.0122 226.472 41.1034 226.661 41.1975C227.657 41.3557 228.33 41.377 229.195 40.8237C231.121 39.2002 232.354 37.4985 232.571 34.9363C232.622 33.3098 232.559 32.0796 231.674 30.6905C230.914 29.9669 230.201 29.5933 229.138 29.5737C227.511 29.8312 226.368 30.6455 225.091 31.6421C224.391 32.1008 223.866 32.2436 223.041 32.3495C220.4 28.4871 218.478 24.6828 218.186 19.9244C218.089 18.6281 217.813 17.8562 216.915 16.8657C215.772 16.01 214.786 15.9156 213.398 15.9244C213.188 15.9225 212.979 15.9206 212.763 15.9187C212.074 15.9136 211.384 15.9147 210.695 15.9163C210.214 15.915 209.733 15.9135 209.252 15.9119C208.245 15.9094 207.238 15.9101 206.23 15.9128C204.942 15.916 203.653 15.9104 202.364 15.9023C201.371 15.8973 200.378 15.8974 199.385 15.8989C198.91 15.899 198.435 15.8973 197.96 15.8939C197.295 15.8897 196.63 15.8927 195.965 15.8974C195.77 15.8948 195.575 15.8921 195.374 15.8893C193.668 15.9147 192.698 16.5963 191.506 17.747ZM136.889 23.6053C136.129 24.3652 135.408 25.1402 134.723 25.9674C134.264 26.487 133.787 26.9623 133.289 27.4449C132.291 28.4291 131.424 29.4737 130.577 30.5869C130.423 30.7881 130.27 30.9894 130.111 31.1968C127.005 35.3178 124.264 39.6439 121.762 44.1496C121.449 44.7137 121.13 45.2748 120.81 45.8353C116.672 52.7211 116.672 52.7211 115.279 60.2758C115.729 60.7689 116.181 61.2079 116.672 61.6583C117.04 62.0189 117.408 62.3808 117.774 62.7438C117.975 62.9414 118.175 63.139 118.381 63.3426C118.587 63.5453 118.792 63.7479 119.004 63.9567C119.207 64.1561 119.41 64.3555 119.619 64.561C120.924 65.8505 122.162 67.1781 123.354 68.5707C123.538 68.4795 123.722 68.3882 123.911 68.2942C123.725 66.2197 123.287 64.2908 122.746 62.282C122.206 60.1611 122.126 58.408 121.962 56.1283C125.73 56.1283 129.497 56.1283 133.379 56.1283C134.054 54.4529 134.704 52.8178 135.254 51.106C135.321 50.9008 135.387 50.6956 135.456 50.4842C135.67 49.8201 135.882 49.1552 136.094 48.4901C136.204 48.1443 136.204 48.1443 136.316 47.7915C140.504 35.0574 140.504 35.0574 142.028 21.8599C142.026 21.6464 142.023 21.4329 142.021 21.2129C142.018 21.0557 142.014 20.8986 142.011 20.7366C139.825 20.7366 138.376 22.2041 136.889 23.6053ZM80.4432 55.894C77.5074 57.4926 74.5035 58.9444 71.4922 60.3968C66.3229 62.8921 61.17 65.4179 56.0291 67.9704C55.4885 68.2387 54.9477 68.5067 54.407 68.7746C50.7261 70.5988 47.0536 72.435 43.4223 74.3552C42.3232 74.9351 41.2115 75.4874 40.0963 76.0362C40.2483 77.6999 40.6178 79.1119 41.208 80.6718C41.2921 80.8997 41.3762 81.1275 41.4629 81.3622C41.7359 82.0993 42.0124 82.835 42.2892 83.5707C42.4782 84.0783 42.6671 84.5859 42.8559 85.0935C44.3855 89.1934 45.9723 93.2699 47.6146 97.3265C51.8018 96.9424 57.1149 95.1613 60.1451 92.073C61.0756 90.8449 61.2704 89.5354 61.5722 88.0638C62.5649 83.6245 64.2967 79.3784 67.1065 75.7597C67.3154 75.4822 67.3154 75.4822 67.5285 75.1991C69.4844 72.7608 71.9807 71.2268 75.0425 70.5753C81.3243 70.1298 86.3415 71.7173 91.1233 75.7424C92.5248 76.9495 93.7871 78.1941 94.952 79.6306C95.2525 79.976 95.2525 79.976 95.559 80.3284C101.879 87.6462 106.915 96.1429 111.999 104.324C113.05 106.012 114.123 107.685 115.214 109.348C116.268 110.956 117.307 112.573 118.342 114.193C118.838 114.967 119.334 115.741 119.83 116.515C120.121 116.968 120.411 117.421 120.7 117.874C123.718 122.588 126.875 127.179 130.505 131.452C130.808 131.812 131.103 132.178 131.395 132.546C136.122 138.355 143.412 140.965 150.646 141.769C153.29 142.003 155.951 141.948 158.603 141.933C159.271 141.932 159.94 141.932 160.608 141.932C161.998 141.931 163.387 141.927 164.777 141.92C166.547 141.913 168.317 141.91 170.087 141.908C171.794 141.907 173.5 141.903 175.206 141.899C175.525 141.898 175.844 141.898 176.173 141.897C179.555 141.89 182.915 141.86 186.285 141.566C186.373 133.37 180.584 126.034 175.092 120.433C173.349 118.685 171.523 117.101 169.578 115.575C168.983 115.089 168.393 114.598 167.803 114.106C167.282 113.673 166.76 113.241 166.237 112.81C165.992 112.595 165.747 112.381 165.495 112.159C165.173 111.934 165.173 111.934 164.844 111.704C164.569 111.796 164.293 111.887 164.009 111.981C164.499 113.135 165.294 114.04 166.08 115.005C166.955 116.081 167.781 117.129 168.464 118.34C167.109 118.191 166.364 117.181 165.556 116.185C165.117 115.617 164.684 115.044 164.253 114.469C161.95 111.443 159.495 108.593 156.901 105.812C156.353 105.22 155.817 104.623 155.29 104.014C153.869 102.388 152.369 100.831 150.886 99.261C143.762 91.7154 143.762 91.7154 142.115 89.8092C141.154 88.703 140.106 87.6895 139.06 86.663C138.492 86.0917 137.958 85.5117 137.434 84.9014C136.636 83.9746 135.784 83.113 134.91 82.2574C133.879 81.2454 132.892 80.2131 131.949 79.1198C130.142 77.0472 128.253 75.0569 126.274 73.1459C125.723 72.5855 125.211 72.0191 124.698 71.4257C123.676 70.2623 122.597 69.1701 121.491 68.0858C121.195 67.7936 121.195 67.7936 120.894 67.4955C120.27 66.8797 119.646 66.2648 119.021 65.6502C118.196 64.8385 117.372 64.0258 116.549 63.2125C116.362 63.0298 116.176 62.8472 115.984 62.659C114.979 61.6659 114.025 60.651 113.117 59.5694C112.357 58.6862 111.438 57.9795 110.546 57.2343C110.299 57.0169 110.052 56.7995 109.797 56.5755C105.237 52.6371 100.341 50.5851 94.2326 50.8265C89.2432 51.1849 84.7334 53.5316 80.4432 55.894ZM223.598 58.8933C223.318 59.3531 223.04 59.8141 222.763 60.2758C218.607 64.1146 212.896 66.6901 207.169 66.6352C204.936 66.4917 203.063 65.8456 201.322 64.4233C200.584 63.5257 200.074 62.5642 199.636 61.4934C199.128 60.7186 199.128 60.7186 198.079 60.6718C197.659 60.6721 197.24 60.6799 196.82 60.6938C196.599 60.6957 196.377 60.6977 196.149 60.6997C195.443 60.7074 194.736 60.7248 194.03 60.7424C193.551 60.7493 193.072 60.7556 192.592 60.7613C191.418 60.7765 190.244 60.8004 189.07 60.8288C190.062 66.2385 191.398 71.534 192.8 76.8496C193.246 78.5402 193.688 80.2317 194.13 81.9232C194.289 82.531 194.449 83.1386 194.609 83.7461C195.066 85.4856 195.512 87.2256 195.912 88.9792C195.975 89.2545 196.037 89.5298 196.102 89.8135C196.214 90.3093 196.322 90.8058 196.426 91.3031C196.546 91.8428 196.703 92.3743 196.867 92.9025C197.658 93.267 197.658 93.267 198.225 92.9531C198.516 92.773 198.516 92.773 198.814 92.5893C199.031 92.4581 199.249 92.327 199.473 92.1918C199.704 92.05 199.935 91.9081 200.173 91.762C202.274 90.5165 204.266 89.4742 206.613 88.7551C206.877 88.6677 207.141 88.5804 207.413 88.4904C213.71 86.7075 219.675 88.3808 225.528 90.7153C225.803 90.823 226.078 90.9306 226.361 91.0416C226.73 91.1896 226.73 91.1896 227.106 91.3405C228.032 91.589 228.032 91.589 228.889 91.2435C229.267 90.4144 229.267 90.4144 229.517 89.3804C229.569 89.1932 229.621 89.0059 229.674 88.813C229.841 88.213 230 87.6116 230.159 87.0097C230.32 86.411 230.482 85.8127 230.648 85.2152C230.797 84.671 230.943 84.1256 231.088 83.5801C231.371 82.7436 231.649 82.2221 232.23 81.5661C231.625 84.5066 230.987 87.4253 230.207 90.3255C230.026 91.1396 229.986 91.8002 230.003 92.626C232.308 93.6762 234.628 94.6881 236.964 95.6675C237.231 95.7805 237.498 95.8936 237.773 96.01C239.255 96.621 240.654 97.1471 242.255 97.3265C243.403 96.8349 243.983 96.0585 244.761 95.1145C248.93 91.9207 254.387 91.4635 259.449 91.3472C259.837 91.3366 260.224 91.3258 260.611 91.3148C261.547 91.289 262.482 91.2653 263.417 91.2435C260.774 85.7299 257.578 80.8723 253.405 76.3764C252.881 75.8078 252.379 75.2258 251.879 74.6364C245.606 67.5463 234.099 59.884 224.503 58.7723C224.055 58.8322 224.055 58.8322 223.598 58.8933ZM3.06179 60.2758C3.06179 61.5436 3.4696 62.2788 4.0527 63.3616C5.17776 65.5223 6.10934 67.7272 7.00355 69.99C11.9752 82.538 17.9401 94.4787 25.6167 105.621C29.8267 104.336 34.2164 101.282 37.0333 97.8795C37.1252 97.6057 37.2171 97.332 37.3118 97.05C37.1269 96.9463 36.9421 96.8425 36.7516 96.7357C33.2274 94.7076 31.4732 92.0826 30.3504 88.2021C30.1932 86.8162 30.1924 85.4479 30.2112 84.0546C30.3611 81.7822 30.3611 81.7822 29.7728 79.6532C29.3724 79.2293 29.3724 79.2293 28.6797 78.8011C28.4959 78.6301 28.3121 78.459 28.1228 78.2827C27.5687 77.9137 27.5687 77.9137 26.8523 77.9716C25.9317 78.3467 25.7387 78.7358 25.3382 79.6306C25.1394 80.5137 25.1394 80.5137 25.0598 81.2896C24.6463 81.1527 24.6463 81.1527 24.2244 81.0131C24.3629 79.6381 24.6568 78.6247 25.3382 77.4186C24.9451 77.1459 24.5503 76.8757 24.1548 76.6064C23.8253 76.3803 23.8253 76.3803 23.4891 76.1496C22.8805 75.7884 22.4101 75.6076 21.7183 75.4832C21.5313 75.8396 21.346 76.1969 21.1614 76.5546C21.058 76.7535 20.9546 76.9524 20.8481 77.1573C20.5664 77.6809 20.5664 77.6809 20.6045 78.2481C20.2369 78.2481 19.8694 78.2481 19.4907 78.2481C19.5542 78.0215 19.6177 77.7948 19.6832 77.5612C19.7632 77.2632 19.8433 76.9653 19.9257 76.6583C20.0065 76.3632 20.0873 76.068 20.1705 75.764C20.3704 74.7537 20.3704 74.7537 20.0476 73.8242C19.5481 73.3274 19.0532 72.8768 18.5161 72.4244C17.1454 71.224 15.9704 69.9701 14.8363 68.5416C13.8716 67.3281 12.8601 66.1553 11.8494 64.9795C11.43 64.4893 11.0143 63.9959 10.6073 63.4955C9.27236 61.883 7.63072 60.2944 5.5407 59.7919C4.58326 59.71 3.94532 59.9207 3.06179 60.2758ZM1.66951 62.4878C1.63832 63.0058 1.61735 63.5244 1.5999 64.0431C1.58698 64.3318 1.57406 64.6205 1.56074 64.9179C1.71089 68.1706 3.2938 71.256 4.66291 74.1525C4.84774 74.5491 5.03229 74.9459 5.21656 75.3428C5.60158 76.1712 5.988 76.999 6.37552 77.8262C7.22936 79.651 8.06925 81.4821 8.91025 83.3127C9.18849 83.9178 9.46729 84.5227 9.74628 85.1275C10.6756 87.1425 11.6007 89.1592 12.5173 91.1798C15.6886 99.8145 15.6886 99.8145 21.1614 106.727C22.3777 107.139 23.2913 107.128 24.5028 106.727C24.366 105.422 23.7504 104.596 22.9713 103.582C21.4801 101.574 20.183 99.49 18.9337 97.3265C18.8262 97.1414 18.7186 96.9562 18.6078 96.7655C13.7062 88.2922 9.63518 79.3118 6.32324 70.1118C4.7752 65.7555 4.7752 65.7555 1.66951 62.4878ZM69.456 74.6537C63.6292 80.8741 61.4776 90.2665 59.2215 98.1893C58.7813 99.7293 58.3156 101.261 57.8446 102.792C56.8902 105.899 55.9907 109.014 55.1512 112.154C54.0902 116.114 52.9776 120.058 51.8187 123.991C51.7498 124.225 51.6809 124.459 51.6099 124.7C51.1207 126.359 50.6296 128.018 50.1381 129.677C49.6389 131.362 49.1404 133.047 48.6436 134.732C48.4491 135.391 48.2533 136.05 48.0574 136.708C46.6778 141.001 46.6778 141.001 46.2224 145.437C49.1368 146.22 52.059 146.962 54.9904 147.679C55.4139 147.783 55.8374 147.887 56.2608 147.991C57.138 148.206 58.0152 148.42 58.8925 148.635C60.0178 148.91 61.1429 149.186 62.2679 149.462C63.1375 149.676 64.0073 149.889 64.8771 150.101C65.2925 150.203 65.7079 150.305 66.1231 150.407C66.6993 150.548 67.2756 150.689 67.8519 150.83C68.1794 150.91 68.5069 150.99 68.8443 151.073C69.5719 151.264 69.5719 151.264 70.1695 151.244C71.7054 147.481 73.1732 143.698 74.59 139.89C74.7872 139.361 74.9844 138.832 75.1817 138.304C75.4745 137.519 75.7673 136.734 76.0597 135.949C76.5704 134.578 77.084 133.209 77.603 131.841C79.1894 127.651 80.6696 123.427 82.1384 119.195C83.3041 115.837 84.5103 112.505 85.8152 109.199C88.5415 102.247 89.903 95.4434 87.4337 88.2021C87.8013 88.2933 88.1689 88.3845 88.5476 88.4786C89.3016 90.8775 89.5149 93.1601 89.4918 95.66C89.4873 96.2382 89.4918 96.8158 89.4971 97.394C89.5004 99.6178 89.2574 101.575 88.5476 103.686C88.2861 104.524 88.239 104.986 88.2691 105.898C88.9589 106.996 89.845 107.828 90.8782 108.608C91.6228 109.226 92.1684 109.855 92.7631 110.615C94.1138 112.285 95.5889 113.8 97.1166 115.31C97.3992 115.591 97.6817 115.872 97.9641 116.153C98.5515 116.737 99.1399 117.32 99.729 117.902C100.476 118.641 101.22 119.381 101.963 120.123C102.545 120.702 103.127 121.28 103.711 121.858C103.985 122.13 104.259 122.403 104.533 122.676C106.142 124.28 107.791 125.777 109.578 127.185C110.269 127.743 110.922 128.329 111.572 128.934C119.428 135.998 129.288 141.434 140.022 141.888C140.925 141.938 140.925 141.938 141.454 141.29C141.3 141.201 141.146 141.112 140.987 141.02C133.915 136.922 133.915 136.922 131.26 133.553C130.673 132.816 130.066 132.11 129.441 131.406C124.228 125.507 120.049 118.87 115.836 112.257C113.675 108.869 111.496 105.492 109.283 102.137C108.2 100.493 107.138 98.837 106.09 97.1709C102.45 91.4089 98.5593 85.649 94.1167 80.4601C93.7715 80.057 93.7715 80.057 93.4194 79.6457C89.4401 75.1085 84.3419 72.1139 78.2273 71.664C74.7109 71.4786 72.095 72.2686 69.456 74.6537ZM156.212 79.0776C155.59 80.3134 155.869 81.6378 156.264 82.8968C156.824 83.8731 157.124 84.1863 158.161 84.6076C159.732 85.0119 160.65 84.8472 162.06 84.0546C162.914 83.2716 163.148 82.8714 163.295 81.7216C163.11 80.2267 162.628 79.4009 161.625 78.2827C160.662 77.5483 159.741 77.5 158.554 77.5569C157.458 77.7827 156.968 78.2696 156.212 79.0776ZM35.4844 80.5292C35.2211 80.6387 34.9579 80.7481 34.6866 80.8608C34.4326 80.9695 34.1787 81.0782 33.917 81.1902C33.6867 81.2887 33.4565 81.3872 33.2192 81.4886C32.3565 81.9649 31.6358 82.5237 31.2619 83.4498C30.796 87.1511 31.3614 90.0167 33.6571 93.0235C35.1821 94.8461 35.1821 94.8461 37.307 95.7546C39.0437 95.784 40.3438 95.355 41.9063 94.6306C42.1317 94.5344 42.3571 94.4382 42.5894 94.339C43.7609 93.8988 43.7609 93.8988 44.4658 92.9644C44.573 92.1963 44.4181 91.7573 44.1487 91.031C44.0539 90.7709 43.9591 90.5108 43.8614 90.2429C43.7565 89.9643 43.6515 89.6858 43.5433 89.3988C43.4378 89.1119 43.3324 88.825 43.2237 88.5294C42.886 87.6128 42.5441 86.6978 42.2022 85.7827C41.9726 85.1618 41.7432 84.5407 41.5142 83.9196C40.9519 82.3966 40.3862 80.8749 39.8179 79.3541C38.165 79.3208 36.9842 79.8789 35.4844 80.5292ZM198.816 94.0085C198.54 94.191 198.264 94.3735 197.98 94.5615C198.072 95.2915 198.164 96.0214 198.259 96.7735C198.508 96.6323 198.508 96.6323 198.763 96.4883C203.374 93.9301 208.202 91.4976 213.574 91.2435C213.574 91.5173 213.574 91.791 213.574 92.073C213.04 92.0901 213.04 92.0901 212.495 92.1076C208.594 92.5075 204.928 94.2489 201.6 96.2205C201.311 96.3898 201.021 96.5591 200.723 96.7335C199.696 97.3587 199.696 97.3587 198.816 98.156C198.726 99.0229 198.7 99.584 199.094 100.368C201.433 100.279 203.307 98.9576 205.307 97.8584C208.211 96.302 211.163 95.391 214.409 94.838C214.409 95.1117 214.409 95.3855 214.409 95.6675C214.139 95.7017 213.869 95.7359 213.591 95.7712C210.807 96.1754 208.56 97.0034 206.114 98.3673C205.431 98.7468 204.742 99.1135 204.052 99.4812C203.565 99.7472 203.079 100.014 202.592 100.282C202.36 100.406 202.127 100.531 201.887 100.66C200.613 101.336 200.613 101.336 199.92 102.533C199.923 102.731 199.926 102.929 199.93 103.133C203.441 103.352 205.876 102.321 208.944 100.719C210.998 99.7337 212.961 99.9747 215.072 100.648C215.826 100.93 216.538 101.262 217.264 101.612C219.719 102.756 222.375 103.205 225.075 103.27C227.039 103.635 228.52 104.806 229.968 106.105C230.309 106.403 230.651 106.701 230.993 106.998C231.157 107.142 231.321 107.286 231.491 107.434C232.541 108.343 233.641 109.191 234.737 110.045C235.03 110.277 235.324 110.508 235.618 110.74C236.619 111.528 237.625 112.309 238.635 113.087C238.811 113.222 238.987 113.358 239.168 113.498C243.317 116.679 247.659 119.476 252.279 121.935C252.452 122.028 252.625 122.12 252.803 122.216C253.305 122.484 253.809 122.746 254.315 123.006C254.602 123.154 254.888 123.301 255.182 123.453C258.529 124.855 263.22 125.715 266.724 124.353C268.874 123.179 270.848 121.387 271.754 119.083C273.81 111.998 270.779 105.184 267.854 98.8102C267.682 98.4345 267.512 98.0583 267.342 97.6815C267.1 97.1452 266.852 96.6119 266.602 96.079C266.386 95.6108 266.386 95.6108 266.166 95.1332C265.423 93.9229 264.535 93.1765 263.242 92.545C261.822 92.2492 260.427 92.2557 258.98 92.2631C258.513 92.2652 258.513 92.2652 258.037 92.2672C253.248 92.3344 248.1 93.4012 244.483 96.7735C244.295 97.6243 244.295 97.6243 244.204 98.4325C247.316 99.6056 250.443 100.727 253.585 101.82C254.216 102.039 254.847 102.259 255.478 102.479C255.865 102.614 256.252 102.749 256.64 102.883C257.136 103.057 257.632 103.233 258.127 103.409C258.387 103.493 258.648 103.576 258.916 103.662C259.639 104.022 259.802 104.327 260.076 105.068C248.801 101.36 237.723 97.2338 226.881 92.41C223.793 91.043 220.759 89.8381 217.472 89.0315C217.257 88.9767 217.042 88.9218 216.82 88.8652C210.089 87.8627 204.146 90.02 198.816 94.0085ZM56.3185 95.2311C55.9984 95.378 55.6782 95.5248 55.3483 95.6761C54.6812 95.9873 54.0152 96.3005 53.3491 96.6136C51.1898 97.6025 49.1182 98.277 46.7793 98.709C46.5955 97.979 46.4117 97.2491 46.2224 96.497C45.8548 96.497 45.4872 96.497 45.1085 96.497C43.3002 114.468 43.3003 114.468 41.5401 132.444C41.4831 133.036 41.4257 133.628 41.3679 134.22C41.2902 135.017 41.214 135.814 41.1384 136.611C41.1168 136.83 41.0951 137.049 41.0729 137.275C40.9393 138.71 40.9146 140.124 40.9317 141.566C41.5116 141.62 42.0918 141.672 42.6721 141.722C42.9951 141.751 43.3182 141.779 43.651 141.809C44.4461 141.839 44.9362 141.849 45.6654 141.566C45.9503 141.119 45.9503 141.119 46.0929 140.537C46.1615 140.308 46.23 140.079 46.3006 139.843C46.4083 139.456 46.4083 139.456 46.5182 139.06C46.5985 138.786 46.6787 138.512 46.7614 138.23C47.0527 137.224 47.3349 136.216 47.6146 135.207C47.6713 135.002 47.728 134.798 47.7865 134.587C48.3705 132.481 48.9519 130.373 49.5301 128.265C50.2457 125.662 50.989 123.073 51.8089 120.5C52.7688 117.484 53.6017 114.442 54.4183 111.385C55.0924 108.865 55.7905 106.354 56.548 103.857C56.619 103.622 56.69 103.388 56.7632 103.147C57.1067 102.017 57.4538 100.888 57.8052 99.7606C57.9304 99.3528 58.0556 98.945 58.1807 98.5372C58.2389 98.3545 58.297 98.1718 58.3569 97.9835C58.6857 96.9049 58.8102 95.9632 58.7528 94.838C57.6539 94.4743 57.3516 94.7455 56.3185 95.2311ZM207.448 103.133C210.756 103.133 214.064 103.133 217.472 103.133C215.972 101.643 214.395 101.074 212.304 100.783C210.296 101.073 208.884 101.707 207.448 103.133ZM218.308 103.686C218.216 104.598 218.124 105.511 218.029 106.451C206.939 106.775 195.847 106.811 184.753 106.87C182.15 106.884 179.547 106.899 176.944 106.915C171.612 106.946 166.279 106.975 160.946 107.004C160.946 107.278 160.946 107.551 160.946 107.833C161.351 108.235 161.351 108.235 161.905 108.594C162.215 108.81 162.215 108.81 162.53 109.03C162.866 109.259 162.866 109.259 163.208 109.492C163.671 109.816 164.133 110.14 164.594 110.464C164.825 110.626 165.056 110.788 165.294 110.955C167.651 112.632 169.893 114.445 172.024 116.397C172.572 116.895 173.133 117.367 173.703 117.839C180.457 123.721 185.234 131.732 187.424 140.349C187.579 141.238 187.579 141.238 187.956 141.566C195.969 142.561 205.057 136.677 211.094 132.059C211.84 131.462 212.571 130.852 213.296 130.23C213.513 130.044 213.731 129.859 213.955 129.668C217.259 126.785 220.336 123.718 222.957 120.207C223.321 119.722 223.691 119.242 224.062 118.763C225.603 116.75 227.001 114.661 228.35 112.517C228.506 112.27 228.662 112.023 228.823 111.769C229.561 110.576 230.196 109.477 230.56 108.11C228.229 105.849 225.901 104.024 222.55 103.875C222.302 103.863 222.054 103.852 221.799 103.84C221.543 103.829 221.287 103.818 221.023 103.807C220.762 103.795 220.501 103.783 220.233 103.771C219.591 103.741 218.949 103.714 218.308 103.686ZM87.4337 107.557C87.3757 107.719 87.3177 107.881 87.2579 108.048C86.4995 110.166 85.74 112.283 84.9799 114.4C84.9181 114.572 84.8564 114.744 84.7928 114.921C82.6434 120.909 80.4615 126.884 78.2466 132.848C78.0367 133.414 77.8269 133.981 77.6171 134.548C77.5234 134.799 77.4296 135.05 77.333 135.309C76.1538 138.361 76.1538 138.361 75.7386 141.566C93.6572 141.566 111.576 141.566 130.037 141.566C129.572 140.641 128.508 140.446 127.584 140.063C120.057 136.84 113.404 132.21 107.366 126.728C106.98 126.381 106.593 126.036 106.196 125.702C104.466 124.237 102.869 122.649 101.265 121.051C100.783 120.571 100.3 120.092 99.8158 119.613C98.2279 118.037 96.6792 116.451 95.2305 114.746C93.7297 113.051 92.1823 111.426 90.5598 109.844C90.0426 109.32 89.5875 108.795 89.1393 108.214C88.944 107.997 88.7487 107.78 88.5476 107.557C88.18 107.557 87.8124 107.557 87.4337 107.557ZM231.395 109.492C231.303 109.644 231.211 109.795 231.116 109.951C227.279 116.229 223.114 122.109 218.029 127.465C217.82 127.687 217.611 127.91 217.395 128.139C215.533 130.057 213.496 131.687 211.346 133.271C211.196 133.382 211.045 133.493 210.89 133.607C207.217 136.284 203.293 138.307 199.122 140.108C198.869 140.218 198.616 140.328 198.356 140.442C198.129 140.539 197.902 140.636 197.668 140.736C197.098 140.974 197.098 140.974 196.867 141.566C198.589 141.815 200.268 141.889 202.008 141.899C202.292 141.902 202.576 141.905 202.868 141.908C203.806 141.916 204.744 141.923 205.682 141.93C206.345 141.936 207.008 141.942 207.671 141.948C209.066 141.96 210.461 141.971 211.856 141.982C213.609 141.995 215.362 142.01 217.115 142.025C225.124 142.096 233.132 142.139 241.141 142.119C241.141 142.393 241.141 142.667 241.141 142.949C167.813 143.085 167.813 143.085 93.0028 143.225C92.2923 144.871 92.0621 145.45 92.0663 147.106C92.0665 147.466 92.0667 147.827 92.0669 148.198C92.0692 148.383 92.0715 148.569 92.0739 148.759C92.0805 149.325 92.0796 149.89 92.0777 150.456C91.9818 153.284 91.9818 153.284 93.2813 155.667C94.0856 155.722 94.8631 155.74 95.6677 155.736C95.9189 155.736 96.1702 155.737 96.429 155.737C97.2803 155.739 98.1315 155.736 98.9827 155.734C99.5954 155.734 100.208 155.735 100.821 155.735C102.512 155.737 104.203 155.734 105.894 155.732C107.527 155.73 109.161 155.73 110.795 155.73C114.139 155.731 117.483 155.729 120.826 155.726C124.138 155.723 127.45 155.721 130.762 155.72C130.968 155.72 131.174 155.72 131.386 155.72C132.43 155.72 133.475 155.719 134.52 155.719C141.924 155.718 149.329 155.714 156.734 155.709C163.929 155.704 171.123 155.7 178.318 155.698C178.54 155.698 178.761 155.698 178.99 155.698C181.216 155.697 183.442 155.696 185.668 155.696C190.203 155.694 194.738 155.693 199.273 155.691C199.481 155.691 199.69 155.691 199.905 155.691C213.836 155.686 227.767 155.677 241.698 155.667C242.121 154.445 242.413 153.277 242.628 152.001C242.661 151.807 242.695 151.613 242.729 151.413C242.8 150.993 242.871 150.573 242.942 150.153C243.054 149.48 243.169 148.808 243.283 148.136C243.528 146.701 243.77 145.265 244.013 143.83C244.329 141.956 244.647 140.082 244.967 138.208C245.005 137.981 245.044 137.754 245.084 137.519C245.616 134.402 246.185 131.297 246.835 128.201C247.27 126.125 247.631 124.048 247.824 121.935C247.867 121.697 247.911 121.459 247.956 121.213C247.881 120.457 247.881 120.457 247.026 119.939C246.656 119.724 246.284 119.514 245.91 119.308C245.497 119.067 245.086 118.823 244.675 118.579C244.46 118.451 244.244 118.323 244.023 118.191C242.94 117.523 241.91 116.787 240.88 116.042C240.673 115.892 240.466 115.743 240.252 115.589C239.178 114.808 238.117 114.013 237.065 113.203C236.856 113.042 236.646 112.881 236.43 112.715C236.034 112.409 235.639 112.101 235.247 111.791C234.023 110.841 232.805 110.143 231.395 109.492ZM28.7303 143.722C28.2318 144.645 28.282 145.566 28.2903 146.587C28.2895 146.805 28.2887 147.022 28.2878 147.246C28.2873 147.705 28.2888 148.163 28.2923 148.622C28.2968 149.324 28.2923 150.026 28.287 150.728C28.2876 151.174 28.2886 151.62 28.2903 152.065C28.2886 152.275 28.2869 152.485 28.2851 152.702C28.2942 153.828 28.2942 153.828 28.7736 154.821C29.6122 155.352 30.3379 155.426 31.3043 155.428C31.6904 155.429 31.6904 155.429 32.0843 155.429C32.5096 155.427 32.5096 155.427 32.9435 155.426C33.3874 155.425 33.3874 155.425 33.8403 155.424C38.4328 155.401 43.0243 155.25 47.6146 155.114C47.8896 154.411 48.1622 153.707 48.4337 153.003C48.5112 152.805 48.5887 152.608 48.6685 152.404C49.3349 150.666 49.8967 148.917 49.2854 147.096C48.5299 146.853 47.8127 146.66 47.0403 146.491C46.8291 146.442 46.6178 146.393 46.4002 146.343C45.8776 146.222 45.3539 146.106 44.8301 145.99C44.8301 145.078 44.8301 144.165 44.8301 143.225C42.8114 143.199 40.7928 143.18 38.7739 143.168C37.8365 143.162 36.8992 143.154 35.9619 143.142C34.8843 143.128 33.8069 143.122 32.7292 143.117C32.3925 143.111 32.0557 143.106 31.7087 143.1C31.3966 143.1 31.0844 143.1 30.7629 143.1C30.4877 143.097 30.2125 143.095 29.929 143.092C29.2037 143.165 29.2037 143.165 28.7303 143.722ZM74.1598 143.958C74.0376 144.263 73.9154 144.569 73.7894 144.884C73.6634 145.161 73.5373 145.438 73.4074 145.724C73.2965 146.013 73.1857 146.302 73.0715 146.599C72.9495 146.916 72.8275 147.232 72.7017 147.558C72.5782 147.885 72.4548 148.211 72.3275 148.548C72.1998 148.878 72.072 149.209 71.9403 149.55C71.283 151.048 71.283 151.048 71.0049 152.626C70.6974 152.561 70.6974 152.561 70.3838 152.495C70.1121 152.442 69.8403 152.388 69.5604 152.332C69.2923 152.278 69.0241 152.223 68.7479 152.167C67.9318 152.072 67.3395 152.144 66.5496 152.35C66.4088 152.746 66.2699 153.144 66.1319 153.542C66.0544 153.763 65.9768 153.985 65.897 154.213C65.6754 154.862 65.6754 154.862 65.7142 155.667C69.0133 155.674 72.3123 155.679 75.6114 155.682C77.1431 155.683 78.6748 155.685 80.2065 155.688C81.6833 155.691 83.1602 155.693 84.6371 155.694C85.2019 155.694 85.7667 155.695 86.3315 155.697C87.1196 155.699 87.9078 155.699 88.696 155.699C88.9319 155.7 89.1679 155.701 89.4109 155.702C90.4564 155.801 90.4564 155.801 91.3321 155.391C91.3579 155.009 91.3648 154.626 91.3637 154.243C91.3637 153.999 91.3637 153.756 91.3637 153.505C91.3622 153.24 91.3608 152.975 91.3593 152.703C91.3589 152.433 91.3585 152.163 91.3581 151.886C91.3565 151.021 91.3531 150.156 91.3495 149.291C91.3481 148.706 91.3468 148.121 91.3457 147.536C91.3426 146.099 91.338 144.662 91.3321 143.225C89.2094 143.187 87.0867 143.157 84.9636 143.139C83.9778 143.13 82.9922 143.119 82.0064 143.1C80.8729 143.078 79.7396 143.07 78.6058 143.063C78.2522 143.055 77.8986 143.046 77.5343 143.037C75.6503 142.974 75.6503 142.974 74.1598 143.958ZM51.2346 147.926C50.6143 149.563 50.0168 151.174 49.6334 152.885C49.566 153.179 49.4985 153.472 49.4289 153.774C49.2523 154.61 49.2523 154.61 49.2854 155.667C49.9086 156.163 49.9086 156.163 50.7124 156.583C51.9405 157.309 52.8001 157.974 53.6254 159.129C54.893 160.447 57.0499 160.313 58.7528 160.368C60.4924 160.353 61.9254 160.259 63.2081 158.985C63.7024 158.004 64.0185 156.997 64.3219 155.944C64.4088 155.651 64.4957 155.358 64.5852 155.056C64.9755 153.642 65.2066 152.685 64.8789 151.244C60.3578 149.993 55.8328 148.861 51.2346 147.926ZM43.7163 159.262C43.8875 159.386 44.0587 159.509 44.2351 159.637C46.4654 161.293 46.4654 161.293 47.0577 162.58C47.1956 162.854 47.1956 162.854 47.3362 163.133C46.0187 162.765 45.193 161.974 44.209 161.075C43.579 160.524 43.2294 160.379 42.3936 160.247C41.2554 160.399 40.8895 160.804 40.1246 161.61C39.7631 162.015 39.7631 162.015 39.8179 162.58C40.8287 163.127 41.8395 163.675 42.8809 164.239C42.8809 164.513 42.8809 164.786 42.8809 165.068C41.9515 164.96 41.4684 164.778 40.6881 164.239C39.6682 163.591 39.0791 163.409 37.8687 163.409C37.079 163.706 36.3625 164.082 35.6411 164.515C35.6411 164.88 35.6411 165.245 35.6411 165.621C35.7922 165.685 35.9433 165.749 36.099 165.815C37.3636 166.387 38.1146 166.793 38.7041 168.11C36.5962 167.365 36.5962 167.365 35.8151 166.814C34.55 166.186 33.0513 166.24 31.6978 166.62C31.1035 166.86 30.5278 167.124 29.9501 167.401C27.3941 168.558 24.7782 169.424 22.0914 170.233C20.2889 170.798 18.5649 171.386 17.263 172.81C17.0694 173.268 16.8829 173.729 16.7061 174.193C21.9544 174.199 27.2026 174.204 32.4509 174.207C34.8885 174.209 37.3262 174.211 39.7639 174.214C41.8923 174.216 44.0207 174.218 46.1491 174.219C47.2727 174.219 48.3962 174.22 49.5198 174.222C54.74 174.231 59.9418 174.171 65.1573 173.916C66.2931 169.756 65.1691 164.597 63.765 160.644C63.2395 160.781 63.2395 160.781 62.7034 160.921C60.1764 161.412 56.6461 161.878 54.2802 160.662C53.1224 159.862 52.093 158.877 51.0834 157.903C50.1747 157.137 49.2472 156.592 48.0671 156.376C46.1003 156.702 44.8629 157.696 43.7163 159.262ZM64.8789 159.538C64.9111 159.703 64.9434 159.867 64.9767 160.036C65.1247 160.792 65.2715 161.548 65.4184 162.303C65.4692 162.562 65.5199 162.82 65.5723 163.086C66.1348 165.991 66.3147 168.71 66.3059 171.67C66.307 172.032 66.3081 172.395 66.3092 172.768C66.3088 173.124 66.3085 173.479 66.3081 173.845C66.3078 174.164 66.3075 174.483 66.3072 174.812C66.2631 176.084 66.1202 177.35 65.9927 178.617C72.0574 178.617 78.1222 178.617 84.3707 178.617C84.9191 176.983 85.3404 175.646 85.6238 173.992C85.6743 173.7 85.6743 173.7 85.7259 173.403C85.8333 172.78 85.9376 172.156 86.0415 171.532C86.1145 171.1 86.1876 170.669 86.2607 170.237C86.6828 167.725 87.0776 165.209 87.4163 162.684C87.452 162.42 87.4878 162.157 87.5246 161.886C87.6002 161.289 87.6584 160.69 87.7122 160.091C87.1247 159.508 85.8308 159.743 85.0179 159.727C84.6416 159.719 84.6416 159.719 84.2576 159.71C83.431 159.692 82.6043 159.675 81.7776 159.659C81.3579 159.651 81.3579 159.651 80.9296 159.642C75.579 159.53 70.2304 159.506 64.8789 159.538ZM97.1797 159.815C95.6528 166.241 95.6528 166.241 94.2507 172.691C94.1285 173.287 94.0038 173.882 93.879 174.477C93.7989 174.864 93.719 175.251 93.6392 175.638C93.5699 175.973 93.5006 176.308 93.4293 176.654C93.2499 177.548 93.2499 177.548 93.2813 178.617C134.816 178.617 176.35 178.617 219.143 178.617C221.887 169.09 221.887 169.09 221.649 159.815C180.574 159.815 139.499 159.815 97.1797 159.815ZM44.8276 175.468C41.8972 175.6 38.9665 175.665 36.0337 175.723C35.4623 175.735 34.8908 175.747 34.3194 175.759C32.8395 175.79 31.3596 175.821 29.8797 175.851C28.3599 175.882 26.8401 175.913 25.3203 175.945C22.3561 176.007 19.3919 176.068 16.4276 176.128C16.6285 177.034 16.8058 177.469 17.5415 178.064C19.1303 179.043 21.0032 178.932 22.8081 178.923C23.0539 178.923 23.2997 178.923 23.5529 178.923C24.371 178.922 25.1891 178.919 26.0072 178.916C26.5905 178.915 27.1738 178.914 27.7571 178.912C29.321 178.909 30.8849 178.903 32.4488 178.897C33.4052 178.893 34.3616 178.89 35.3181 178.887C38.8607 178.874 42.4032 178.855 45.9457 178.828C47.6011 178.816 49.2564 178.805 50.9118 178.798C52.5537 178.79 54.1955 178.779 55.8373 178.765C56.4538 178.761 57.0703 178.757 57.6868 178.756C58.5373 178.753 59.3877 178.745 60.2382 178.736C60.6123 178.737 60.6123 178.737 60.994 178.738C62.3972 178.717 63.3909 178.574 64.6004 177.787C65.1239 176.866 65.1573 176.378 65.1573 175.299C63.1259 175.292 61.0944 175.287 59.063 175.285C58.1189 175.283 57.1748 175.281 56.2308 175.278C55.1364 175.275 54.0421 175.273 52.9477 175.272C52.6214 175.27 52.2951 175.269 51.9589 175.268C49.5771 175.267 47.2065 175.358 44.8276 175.468Z" fill="black"/>
<path d="M212.462 25.6107C212.685 25.6035 212.908 25.5963 213.137 25.5889C214.665 25.5841 215.452 25.8594 216.639 26.8203C216.917 27.0968 216.917 27.0968 216.952 27.9263C216.917 28.7558 216.917 28.7558 216.639 29.0323C216.266 29.0608 215.891 29.0706 215.517 29.0725C215.279 29.0743 215.041 29.076 214.796 29.0778C214.537 29.0781 214.278 29.0784 214.012 29.0788C213.748 29.0797 213.484 29.0806 213.212 29.0816C212.652 29.083 212.092 29.0836 211.533 29.0836C210.674 29.0842 209.815 29.0892 208.957 29.0944C208.414 29.0952 207.871 29.0958 207.329 29.096C206.942 29.099 206.942 29.099 206.547 29.1021C206.308 29.1012 206.069 29.1004 205.823 29.0995C205.612 29.0999 205.402 29.1003 205.185 29.1007C204.665 29.0323 204.665 29.0323 204.108 28.4793C204.073 27.6153 204.073 27.6153 204.108 26.8203C206.817 25.8633 209.607 25.6594 212.462 25.6107Z" fill="black"/>
<path d="M199.451 31.2432C200.081 31.4922 199.89 31.4136 200.534 31.6676C200.452 34.2148 200.257 36.7167 198.432 38.6636C198.299 38.7846 197.932 39.0421 197.795 39.1667C197.354 39.7226 197.158 40.0471 197.922 41.0532C199.069 42.0594 201.453 41.5513 203.272 41.8079C203.104 42.3059 202.936 42.804 202.763 43.3171C198.048 43.5205 198.048 43.5205 196.139 41.8707C195.74 40.9848 195.644 40.2228 195.884 39.2925C196.257 38.7648 196.512 38.7648 196.983 38.2234C198.102 36.9312 198.378 35.6538 198.687 34.0101C199.141 31.8011 198.886 31.8011 199.451 31.2432Z" fill="black"/>
<path d="M161.782 30.6914C162.532 30.7402 163.266 30.8624 164.01 30.9679C163.826 31.6066 163.642 32.2453 163.453 32.9034C162.902 32.9034 162.35 32.9034 161.782 32.9034C161.676 32.2602 161.584 31.6148 161.504 30.9679C161.596 30.8767 161.688 30.7854 161.782 30.6914Z" fill="black"/>
<path d="M195.475 31.2436C196.081 31.8647 196.291 32.316 196.347 33.1813C196.283 34.2194 196.195 34.6898 195.406 35.4084C194.531 35.7046 194.114 35.6932 193.248 35.3911C192.551 34.6997 192.601 34.4294 192.586 33.4729C192.579 33.2309 192.571 32.9889 192.562 32.7395C192.691 32.0731 192.691 32.0731 193.201 31.5795C194.029 31.1187 194.543 31.086 195.475 31.2436Z" fill="black"/>
<path d="M208.825 31.1572C209.677 31.2436 209.677 31.2436 210.143 31.586C210.611 32.2031 210.616 32.5516 210.6 33.3174C210.599 33.5312 210.598 33.7451 210.596 33.9654C210.513 34.5616 210.513 34.5616 209.956 35.3911C209.414 35.4721 209.414 35.4721 208.807 35.4429C208.451 35.4258 208.095 35.4087 207.728 35.3911C207.215 34.5322 207.114 33.994 207.241 33.0063C207.265 32.7917 207.29 32.5772 207.315 32.3561C207.543 31.4096 207.872 31.2578 208.825 31.1572Z" fill="black"/>
<path d="M231.117 32.903C230.989 33.6367 230.889 34.1807 230.56 34.8385C229.62 35.4088 229.62 35.4088 229.099 35.6561C228.289 36.1342 227.956 36.8012 227.497 37.6035C227.129 37.5122 226.762 37.421 226.383 37.327C226.418 35.6295 226.99 34.8562 228.139 33.6223C229.074 32.7439 229.87 32.8801 231.117 32.903Z" fill="black"/>
<path d="M25.6177 34.251C26.4531 34.2855 26.4531 34.2855 26.7315 34.562C26.7429 35.1149 26.7434 35.6682 26.7315 36.221C26.0883 36.3123 25.4451 36.4035 24.7824 36.4975C24.6764 35.8544 24.5839 35.2089 24.5039 34.562C24.7824 34.2855 24.7824 34.2855 25.6177 34.251Z" fill="black"/>
<path d="M209.118 44.792C209.118 45.5524 209.118 45.5524 208.84 46.451C206.812 48.0531 203.888 48.2062 201.408 48.1964C201.181 48.2008 200.954 48.2053 200.72 48.2099C199.314 48.211 198.375 48.0288 197.145 47.2805C197.145 46.9155 197.145 46.5505 197.145 46.1745C197.304 46.1719 197.463 46.1693 197.627 46.1667C200.962 46.0992 204.084 45.8417 207.32 45.0242C208.283 44.792 208.283 44.792 209.118 44.792Z" fill="black"/>
<path d="M253.53 55.2646C254.227 55.2992 254.227 55.2992 254.505 55.5757C254.544 56.3141 254.517 57.0479 254.505 57.7877C253.855 57.7994 253.205 57.799 252.556 57.7877C252.464 57.6964 252.372 57.6052 252.277 57.5112C252.514 55.3151 252.514 55.3151 253.53 55.2646Z" fill="black"/>
<path d="M18.0996 120.275C18.6585 120.355 19.2158 120.446 19.7704 120.552C19.9444 121.485 19.9444 121.485 20.0488 122.487C19.865 122.67 19.6813 122.852 19.4919 123.04C18.6217 122.937 18.6217 122.937 17.8212 122.764C17.794 121.063 17.794 121.063 17.8212 120.552C17.9131 120.461 18.005 120.369 18.0996 120.275Z" fill="black"/>
<path d="M91.0569 130.507C91.6158 130.586 92.1731 130.678 92.7276 130.783C92.7276 131.513 92.7276 132.243 92.7276 132.995C91.9271 133.168 91.9271 133.168 91.0569 133.272C90.8731 133.089 90.6893 132.907 90.5 132.719C90.6606 130.9 90.6606 130.9 91.0569 130.507Z" fill="black"/>
<path d="M267.037 148.755C267.129 149.394 267.221 150.033 267.316 150.691C266.489 150.691 265.662 150.691 264.81 150.691C264.618 150.052 264.618 150.052 264.531 149.308C265.162 148.204 265.92 148.484 267.037 148.755Z" fill="black"/>
</g>
<defs>
<clipPath id="clip0_244_981">
<rect width="274" height="180" fill="white"/>
</clipPath>
</defs>
</svg>
