<svg width="588" height="420" viewBox="0 0 588 420" fill="none" xmlns="http://www.w3.org/2000/svg">
<g clip-path="url(#clip0_250_129)">
<path d="M329.565 0.00170861C330.089 0.82887 330.609 1.65994 331.1 2.50777C332.215 3.90659 333.482 4.63094 335.01 5.55531C342.194 9.93374 347.239 15.5382 349.718 23.6971C349.718 24.2835 349.718 24.87 349.718 25.4742C350.221 25.6185 350.723 25.7629 351.241 25.9116C353.475 26.7329 355.373 27.8399 357.349 29.1396C357.711 29.377 358.073 29.6144 358.446 29.8589C365.83 34.7775 365.83 34.7775 367.093 38.3215C366.907 40.2838 366.907 40.2838 365.627 41.5704C362.641 43.4915 359.669 43.0745 356.238 42.6533C352.815 41.8846 349.485 40.8053 346.161 39.6914C343.902 43.9078 342.242 48.1615 340.715 52.6868C339.02 57.5477 337.161 62.2029 334.751 66.7559C334.396 67.43 334.396 67.43 334.033 68.1176C331.973 71.8721 329.595 75.1513 326.008 77.604C325.421 77.604 324.834 77.604 324.23 77.604C324.23 77.9949 324.23 78.3859 324.23 78.7887C324.692 78.8353 325.154 78.8819 325.631 78.9299C328.542 79.5393 331.109 80.6674 333.825 81.8617C334.417 82.1211 335.01 82.3804 335.62 82.6476C347.566 87.9704 359.026 94.382 370.464 100.707C370.99 100.998 371.516 101.289 372.058 101.589C375.086 103.264 378.111 104.945 381.133 106.631C381.155 106.185 381.177 105.74 381.199 105.281C381.53 99.89 382.428 94.6883 383.541 89.4146C383.632 88.9796 383.722 88.5445 383.816 88.0963C393.227 43.1918 393.227 43.1918 407.962 30.8774C411.476 28.6122 415.013 28.6324 419.069 29.0285C426.074 30.6796 433.277 36.3138 437.187 42.297C439.74 46.7897 440.257 50.5144 439.815 55.6858C439.265 57.5363 438.716 58.2934 437.444 59.8325C436.845 60.0524 436.245 60.2723 435.628 60.4989C433.735 61.4407 433.735 61.4407 433.368 63.322C433.096 64.7018 432.828 66.0825 432.565 67.464C431.94 69.9931 431.292 70.8424 429.145 72.2725C427.663 72.8649 427.663 72.8649 426.181 72.8649C424.016 71.8861 422.681 70.742 421.44 68.7182C421.44 68.3272 421.44 67.9363 421.44 67.5334C420.07 67.7289 418.701 67.9244 417.29 68.1258C417.486 68.7123 417.682 69.2988 417.883 69.903C419.173 79.6436 419.194 89.5659 419.217 99.3741C419.22 99.8994 419.223 100.425 419.226 100.966C419.298 116.606 419.298 116.606 417.29 122.625C417.891 122.443 418.491 122.26 419.11 122.072C422.358 121.147 425.68 120.776 429.024 120.339C430.211 120.183 431.397 120.019 432.582 119.855C441.236 118.706 441.236 118.706 445.149 119.071C446.095 120.016 445.836 120.997 445.841 122.304C445.808 125.398 445.369 128.289 444.746 131.312C444.644 131.831 444.541 132.351 444.436 132.886C444.111 134.527 443.778 136.166 443.445 137.805C443.226 138.908 443.008 140.011 442.79 141.114C441.889 145.641 440.966 150.142 439.815 154.614C440.165 154.492 440.516 154.371 440.877 154.246C441.346 154.086 441.814 153.927 442.297 153.762C442.757 153.604 443.218 153.446 443.693 153.283C450.009 151.346 458.015 151.366 464.117 154.021C471.242 157.959 476.356 164.193 480.677 170.941C481.085 171.566 481.493 172.191 481.913 172.834C483.1 174.655 484.278 176.482 485.456 178.309C486.044 179.211 486.633 180.113 487.222 181.014C488.538 183.029 489.842 185.05 491.14 187.076C491.724 187.987 492.309 188.897 492.895 189.806C501.858 203.715 510.389 217.88 518.649 232.216C519.024 232.866 519.399 233.517 519.786 234.187C525.313 243.785 530.755 253.429 536.098 263.131C536.703 264.219 537.316 265.301 537.939 266.377C538.212 266.852 538.486 267.328 538.768 267.817C539.008 268.227 539.248 268.637 539.496 269.06C539.988 270.129 539.988 270.129 539.84 271.758C538.403 273.604 536.7 274.919 534.653 276.052C534.262 276.052 533.871 276.052 533.468 276.052C533.971 276.855 533.971 276.855 534.484 277.675C534.923 278.38 535.363 279.086 535.802 279.792C536.023 280.144 536.244 280.497 536.472 280.86C537.432 282.407 538.224 283.796 538.802 285.531C539.177 285.473 539.551 285.415 539.937 285.355C543.85 284.748 547.764 284.143 551.678 283.538C553.137 283.313 554.595 283.087 556.054 282.861C558.156 282.535 560.259 282.21 562.362 281.886C563.008 281.785 563.655 281.685 564.321 281.581C569.166 280.836 573.937 280.106 578.85 280.162C579.462 280.168 580.074 280.173 580.704 280.178C581.382 280.189 584.444 279.792 586.815 281.581C588.456 286.57 588 290.714 582.073 295.009C575.256 300.636 568.752 304.695 562.024 308.595C558.032 310.927 554.235 313.52 550.439 316.156C548.605 317.424 546.754 318.666 544.906 319.912C542.313 321.664 539.734 323.434 537.167 325.223C535.696 326.246 534.218 327.26 532.74 328.273C532.049 328.749 531.361 329.23 530.676 329.715C529.737 330.379 528.787 331.028 527.837 331.676C527.305 332.047 526.773 332.418 526.225 332.8C524.053 333.74 522.696 333.485 520.427 332.921C515.379 328.033 513.203 319.085 511.61 312.447C510.227 306.936 507.565 302.088 504.423 297.378C503.996 297.769 503.568 298.16 503.127 298.563C501.279 299.876 500.692 300.089 498.496 299.748C497.452 298.679 497.452 298.679 496.521 297.198C496.014 296.404 496.014 296.404 495.496 295.594C495.154 295.034 494.811 294.475 494.458 293.898C494.104 293.343 493.75 292.788 493.385 292.216C490.79 288.097 490.79 288.097 490.79 286.715C487.856 286.715 484.922 286.715 481.899 286.715C481.985 287.755 482.071 288.796 482.16 289.867C483.171 302.107 484.177 314.347 485.18 326.588C485.367 328.872 485.554 331.156 485.741 333.44C486.273 339.932 486.804 346.424 487.331 352.916C487.565 355.788 487.798 358.66 488.034 361.532C488.258 364.253 488.479 366.975 488.699 369.697C488.78 370.7 488.862 371.702 488.945 372.705C489.059 374.086 489.17 375.466 489.28 376.847C489.343 377.62 489.406 378.393 489.471 379.19C489.619 381.732 489.605 384.282 489.605 386.828C511.513 386.828 533.42 386.828 555.992 386.828C556.188 387.61 556.383 388.392 556.585 389.198C555.399 390.383 555.399 390.383 554.063 390.53C553.221 390.53 553.221 390.53 552.362 390.529C551.718 390.532 551.075 390.534 550.412 390.537C549.349 390.532 549.349 390.532 548.264 390.526C547.52 390.528 546.776 390.529 546.01 390.53C543.966 390.533 541.922 390.528 539.878 390.522C537.742 390.517 535.605 390.518 533.469 390.518C529.882 390.518 526.294 390.513 522.706 390.504C518.555 390.495 514.403 390.492 510.252 390.492C506.263 390.493 502.274 390.49 498.285 390.485C496.585 390.483 494.885 390.482 493.185 390.481C490.814 390.481 488.442 390.475 486.07 390.469C485.362 390.469 484.653 390.469 483.922 390.469C483.279 390.467 482.636 390.464 481.973 390.462C481.412 390.461 480.85 390.46 480.272 390.459C478.935 390.383 478.936 390.383 477.75 389.79C477.75 390.181 477.75 390.572 477.75 390.975C478.162 391.034 478.574 391.094 478.999 391.155C481.021 391.641 482.609 392.448 484.446 393.423C484.973 393.703 484.973 393.703 485.511 393.988C486.254 394.384 486.995 394.781 487.735 395.181C488.849 395.78 489.967 396.37 491.087 396.959C497.86 400.564 505.908 405.217 508.573 412.893C508.979 417.411 508.979 417.411 507.98 419.409C502.989 420.734 497.47 419.774 492.402 419.314C491.459 419.232 490.515 419.15 489.572 419.068C479.65 418.186 469.766 417.001 459.883 415.769C458.01 415.537 456.137 415.309 454.264 415.081C448.88 414.425 443.498 413.749 438.119 413.056C436.854 412.894 435.589 412.733 434.324 412.573C431.985 412.275 429.648 411.964 427.311 411.651C426.271 411.519 426.271 411.519 425.21 411.385C424.263 411.254 424.263 411.254 423.298 411.12C422.749 411.048 422.201 410.975 421.636 410.9C420.07 410.473 419.448 410.032 418.476 408.746C417.516 402.717 419.287 396.178 420.254 390.383C358.052 390.383 295.849 390.383 231.762 390.383C231.762 390.383 226.907 390.383 227.02 390.383C226.374 390.383 226.374 390.383 225.714 390.384C200.194 390.41 174.673 390.431 149.153 390.443C146.091 390.445 143.03 390.446 139.968 390.448C139.359 390.448 138.749 390.448 138.122 390.449C128.241 390.454 118.36 390.463 108.48 390.474C98.3481 390.485 88.2167 390.492 78.0852 390.494C71.8289 390.496 65.5726 390.501 59.3163 390.51C55.0315 390.517 50.7467 390.519 46.4618 390.517C43.9863 390.516 41.5109 390.517 39.0354 390.524C36.7722 390.53 34.509 390.53 32.2458 390.526C31.4241 390.525 30.6024 390.527 29.7807 390.53C28.6695 390.535 27.5584 390.532 26.4472 390.528C25.8283 390.529 25.2093 390.529 24.5716 390.53C23.117 390.383 23.1169 390.383 21.9315 389.198C22.1271 388.416 22.3227 387.634 22.5242 386.828C30.9352 386.633 39.3462 386.437 48.0121 386.236C46.8385 383.89 45.6648 381.544 44.4556 379.127C43.7808 377.433 43.1444 375.778 42.5663 374.055C42.4194 373.624 42.2726 373.193 42.1213 372.749C41.7072 371.52 41.3025 370.289 40.8992 369.057C40.7021 368.476 40.5049 367.896 40.3018 367.298C37.5057 358.291 37.8094 347.942 41.7235 339.336C44.241 334.914 47.7518 330.853 52.754 329.367C57.2159 328.258 60.5984 328.947 64.6089 331.144C66.2019 332.329 66.2019 332.329 66.9798 333.514C66.8849 334.675 66.8849 334.675 66.3871 335.883C65.3081 336.684 65.3081 336.684 63.942 337.438C56.4863 342.169 53.9126 351.447 52.0316 359.616C51.3704 362.736 51.0965 365.872 50.9758 369.057C51.5626 369.057 52.1494 369.057 52.754 369.057C52.7231 368.026 52.7231 368.026 52.6915 366.974C52.6943 364.466 53.1141 362.146 53.7543 359.727C53.9144 359.112 53.9144 359.112 54.0777 358.485C56.0339 351.251 58.9244 343.917 65.1623 339.343C67.0985 338.556 69.0541 338.461 71.129 338.253C71.3239 325.817 71.3239 325.817 70.6104 313.41C70.5639 312.921 70.5174 312.432 70.4694 311.928C70.1655 309.135 69.6075 306.573 68.7581 303.895C68.5197 304.389 68.5197 304.389 68.2765 304.894C64.8599 311.543 59.9258 315.531 52.9022 317.964C43.1544 321.067 33.1537 319.337 24.2286 314.743C18.077 311.425 13.1611 307.118 8.31633 302.143C5.72954 299.497 3.03272 297.142 0 295.009C0.621829 290.978 4.76878 288.767 7.82142 286.484C20.97 277.136 38.2578 270.219 54.5323 269.536C54.951 269.513 55.3697 269.489 55.8011 269.465C62.3749 269.264 69.6345 270.096 74.6345 274.736C77.0054 277.392 77.8829 279.459 77.809 283.129C77.5333 285.229 76.6709 286.334 75.2782 287.9C71.3918 290.862 71.3918 290.862 68.7581 290.862C69.9041 294.639 71.0651 298.398 72.3886 302.117C75.1835 310.622 74.7688 319.078 74.527 327.912C74.4842 329.577 74.4597 331.242 74.4377 332.907C74.4187 333.418 74.3997 333.929 74.3801 334.456C74.3687 335.787 74.3773 336.957 74.6855 338.253C76.063 339.493 76.063 339.493 77.6492 340.03C77.8448 340.225 78.0404 340.421 78.2419 340.622C78.2978 335.391 78.3496 330.248 77.6631 325.049C77.6488 323.396 78.0227 322.141 78.5152 320.576C79.2333 317.7 79.3389 314.689 79.6127 311.744C81.0976 297.333 84.9659 285.08 94.246 273.683C93.4208 273.042 93.4208 273.042 92.5789 272.387C90.4944 270.614 89.1076 269.203 88.7237 266.38C88.5659 262.98 88.9184 260.886 91.2823 258.281C96.1597 253.861 102.62 252.727 109.037 252.825C126.96 254.065 142.253 263.518 154.523 276.256C160.417 283.034 165.68 290.466 165.375 299.748C165.179 299.943 164.984 300.139 164.782 300.34C160.773 300.126 156.981 299.219 153.101 298.243C152.482 298.09 152.482 298.09 151.851 297.934C151.487 297.841 151.124 297.749 150.75 297.654C146.383 296.782 142.173 296.729 137.736 296.791C136.387 296.801 135.039 296.811 133.69 296.821C131.588 296.839 129.487 296.86 127.386 296.887C104.101 297.177 104.101 297.177 96.5035 290.274C94.6695 288.246 93.2537 286.113 91.875 283.753C86.4647 293.305 83.143 304.693 83.5766 315.742C85.5327 315.547 87.4887 315.351 89.504 315.15C89.6141 314.343 89.7241 313.537 89.8375 312.706C90.4538 310.019 91.3476 308.649 93.5652 307.025C99.8481 303.269 106.999 302.888 114.087 304.306C125.586 307.836 133.777 316.806 139.362 327.127C144.36 336.829 146.512 347.028 146.518 357.875C146.526 358.567 146.533 359.258 146.54 359.97C146.542 360.636 146.543 361.303 146.544 361.99C146.546 362.593 146.549 363.196 146.551 363.818C146.401 365.578 145.961 366.869 145.222 368.464C142.841 368.107 141.351 366.877 139.443 365.465C128.689 357.827 110.453 349.508 97.2097 349.508C90.2356 361.729 87.6109 372.593 84.7621 386.828C110.191 386.828 135.619 386.828 161.819 386.828C161.819 384.873 161.819 382.919 161.819 380.904C161.904 379.383 162.008 377.863 162.134 376.344C162.167 375.925 162.201 375.506 162.236 375.074C162.349 373.691 162.464 372.308 162.58 370.926C162.662 369.926 162.744 368.926 162.826 367.926C163.001 365.784 163.177 363.641 163.355 361.499C163.637 358.111 163.915 354.723 164.192 351.335C164.631 345.978 165.072 340.622 165.515 335.265C166.307 325.665 167.097 316.065 167.884 306.464C168.161 303.096 168.438 299.728 168.717 296.36C168.89 294.268 169.062 292.175 169.234 290.082C169.314 289.112 169.394 288.142 169.475 287.172C169.585 285.847 169.694 284.523 169.802 283.199C169.863 282.458 169.924 281.717 169.987 280.954C170.051 279.994 170.051 279.994 170.117 279.014C170.158 278.47 170.199 277.925 170.241 277.364C170.246 275.829 170.246 275.829 168.45 274.572C168.125 274.323 167.8 274.075 167.466 273.819C164.512 271.441 164.088 267.76 163.597 264.205C163.597 263.423 163.597 262.641 163.597 261.835C162.998 261.896 162.399 261.957 161.782 262.02C157.631 261.999 153.802 260.296 149.964 258.873C149.46 258.692 148.957 258.512 148.438 258.325C146.83 257.744 145.229 257.145 143.629 256.541C143.118 256.356 142.608 256.172 142.082 255.982C138.969 254.771 137.196 253.75 135.738 250.58C135.465 248.72 135.465 248.72 135.516 246.878C135.523 246.264 135.531 245.65 135.539 245.017C135.738 243.471 135.738 243.471 136.923 242.287C138.146 242.144 138.146 242.144 139.67 242.152C140.239 242.152 140.809 242.152 141.396 242.152C142.012 242.159 142.628 242.165 143.263 242.171C143.893 242.173 144.523 242.174 145.172 242.176C147.189 242.183 149.206 242.198 151.223 242.213C152.589 242.219 153.954 242.224 155.319 242.229C158.671 242.242 162.023 242.262 165.375 242.287C165.264 241.505 165.264 241.505 165.152 240.708C164.34 234.819 163.718 228.925 163.166 223.006C163.075 222.041 162.984 221.075 162.892 220.109C162.703 218.106 162.515 216.103 162.327 214.099C162.087 211.532 161.845 208.964 161.602 206.397C161.414 204.412 161.227 202.427 161.041 200.442C160.951 199.494 160.862 198.547 160.773 197.599C160.648 196.283 160.525 194.966 160.402 193.649C160.332 192.901 160.262 192.153 160.19 191.383C160.04 189.564 160.04 189.564 160.04 187.787C159.274 187.794 158.509 187.8 157.719 187.806C154.885 187.828 152.05 187.841 149.216 187.852C147.988 187.858 146.76 187.866 145.531 187.877C143.769 187.891 142.006 187.898 140.244 187.903C139.692 187.909 139.141 187.915 138.573 187.922C137.807 187.922 137.807 187.922 137.027 187.922C136.351 187.926 136.351 187.926 135.663 187.93C134.552 187.787 134.552 187.787 133.367 186.603C133.133 185.358 133.133 185.358 133.013 183.819C132.966 183.253 132.919 182.688 132.871 182.105C132.827 181.5 132.783 180.895 132.737 180.271C132.688 179.655 132.64 179.039 132.589 178.403C132.448 176.595 132.314 174.787 132.181 172.978C132.113 172.095 132.044 171.211 131.975 170.328C131.257 160.556 131.257 160.556 131.589 157.576C132.774 156.391 132.774 156.391 135.14 156.256C136.162 156.257 137.184 156.263 138.206 156.275C139.013 156.278 139.013 156.278 139.836 156.28C141.557 156.287 143.278 156.302 145 156.317C146.165 156.323 147.33 156.328 148.496 156.333C151.356 156.346 154.216 156.367 157.077 156.391C157.077 155.023 157.077 153.654 157.077 152.244C156.394 152.34 155.711 152.436 155.008 152.534C152.498 152.847 150.031 152.932 147.505 152.936C147.067 152.938 146.629 152.94 146.178 152.942C145.263 152.945 144.347 152.947 143.432 152.946C142.027 152.948 140.623 152.959 139.218 152.97C138.325 152.971 137.432 152.973 136.539 152.973C136.119 152.977 135.699 152.982 135.267 152.986C132.317 152.972 132.317 152.972 130.996 151.652C130.767 150.142 130.606 148.682 130.491 147.163C130.453 146.711 130.416 146.259 130.377 145.793C130.297 144.831 130.221 143.869 130.147 142.907C130.035 141.463 129.914 140.021 129.792 138.578C129.565 135.829 129.375 133.08 129.218 130.326C129.194 129.908 129.17 129.49 129.145 129.06C129.087 127.906 129.052 126.751 129.019 125.596C128.988 124.623 128.988 124.623 128.958 123.63C129.218 122.033 129.218 122.033 130.099 121.06C132.253 119.897 134.334 119.995 136.724 119.999C137.243 119.993 137.762 119.987 138.297 119.981C140.024 119.963 141.75 119.958 143.476 119.952C144.694 119.942 145.913 119.932 147.131 119.92C150.36 119.892 153.588 119.874 156.817 119.859C160.011 119.842 163.206 119.814 166.401 119.787C181.272 119.668 196.144 119.636 211.016 119.663C211.054 119.219 211.092 118.775 211.131 118.317C211.183 117.732 211.234 117.148 211.287 116.546C211.337 115.967 211.387 115.388 211.439 114.792C212.677 102.796 219.614 90.6075 228.798 82.9354C239.903 75.3462 254.108 72.016 267.435 71.5344C268.093 71.5028 268.751 71.4712 269.429 71.4386C270.744 71.3786 272.06 71.3398 273.377 71.3246C276.911 71.1569 276.911 71.1569 279.881 69.404C280.976 68.0419 281.875 66.6823 282.738 65.1639C283.067 64.5969 283.067 64.5969 283.403 64.0183C287.802 55.9528 287.802 55.9528 289.073 47.2698C288.66 46.1014 288.66 46.1014 287.776 44.7267C285.957 41.6971 285.93 38.405 286.294 34.9523C287.06 32.2801 287.818 30.1989 290.161 28.6004C292.238 26.6919 292.341 24.8842 292.777 22.1791C294.096 15.3673 296.612 9.63661 302.298 5.33316C307.83 2.1698 313.083 0.99008 319.377 1.18648C320.368 1.21671 321.36 1.24163 322.352 1.26052C323.001 1.28114 323.001 1.28114 323.662 1.30218C326.089 1.06023 326.917 -0.514545 329.565 0.00170861ZM301.113 11.257C298.596 14.6569 297.441 18.4671 296.371 22.5123C298.186 22.4273 300.002 22.3406 301.817 22.2531C302.318 22.2298 302.819 22.2065 303.335 22.1825C306.194 22.0434 309.043 21.8551 311.896 21.6121C316.351 21.2625 320.799 21.1863 325.267 21.1794C325.888 21.1773 325.888 21.1773 326.521 21.1752C332.825 21.1673 338.837 21.5525 344.976 23.1047C344.245 17.9657 340.327 13.8554 336.481 10.5998C326.182 3.30591 310.566 1.25608 301.113 11.257ZM310.597 24.8818C312.069 27.8247 318.242 29.1834 321.266 30.2133C325.117 31.3283 329.048 32.1076 332.973 32.916C335.065 33.3609 337.155 33.8131 339.245 34.2674C340 34.4305 340 34.4305 340.77 34.5969C345.154 35.5568 349.465 36.7155 353.733 38.1065C356.839 39.0832 359.498 39.2242 362.758 39.099C359.898 32.8762 351.014 29.1847 344.976 26.659C338.713 24.4149 332.456 24.1875 325.86 24.2154C325.208 24.2165 324.556 24.2177 323.884 24.2189C319.43 24.2426 315.027 24.3889 310.597 24.8818ZM292.333 31.1389C290.334 33.3654 289.928 35.2698 289.666 38.2105C289.936 41.237 290.823 43.0547 293 45.171C294.68 46.2642 296.224 46.8555 298.149 47.3924C297.954 47.9789 297.758 48.5653 297.556 49.1696C296.187 49.1696 294.818 49.1696 293.407 49.1696C293.277 49.4941 293.147 49.8186 293.014 50.153C292.605 51.1733 292.195 52.1929 291.784 53.2121C291.256 54.542 290.74 55.877 290.233 57.2153C287.691 63.8817 285.099 70.2971 279.181 74.6421C279.935 79.594 283.403 82.803 287.142 85.9089C291.767 89.2983 298.066 93.3259 304.077 92.4136C307.405 90.5726 308.488 87.4181 309.93 84.0832C310.299 83.2739 310.299 83.2739 310.676 82.4483C312.163 79.5149 312.163 79.5149 311.782 76.4192C310.682 75.4613 310.682 75.4613 309.337 74.531C302.819 69.6089 302.819 69.6089 301.891 65.909C301.799 65.247 301.799 65.247 301.706 64.5715C302.879 64.2783 302.879 64.2783 304.077 63.9791C304.369 64.4098 304.369 64.4098 304.667 64.8492C307.629 69.02 311.952 71.8324 314.153 72.2725C325.286 74.4976 327.786 67.8296 324.934 73.8645C333.366 66.5693 336.97 53.073 340.332 42.8957C340.846 41.412 341.418 39.96 342.012 38.5066C339.959 37.6231 338.028 37.0591 335.83 36.6624C335.216 36.5476 334.602 36.4327 333.969 36.3144C333.322 36.1948 332.676 36.0752 332.01 35.952C326.82 34.9658 321.924 33.7775 316.994 31.884C315.253 31.373 314.584 31.2014 312.968 31.9904C311.738 33.1772 311.738 33.1772 310.597 34.6191C308.034 37.7357 308.034 37.7357 305.855 38.5066C303.928 38.2845 303.928 38.2845 302.298 37.9143C302.198 37.55 302.097 37.1858 301.993 36.8105C301.143 33.8918 301.143 33.8918 299.483 31.398C296.863 30.2344 294.912 29.7071 292.333 31.1389ZM404.843 39.6914C403.66 41.4976 402.644 43.3629 401.657 45.282C401.38 45.8197 401.102 46.3573 400.817 46.9112C389.645 69.2288 385.696 94.466 383.504 119.071C382.722 118.875 381.939 118.68 381.133 118.478C380.937 115.742 380.742 113.005 380.54 110.185C377.997 109.012 375.455 107.839 372.835 106.631C372.734 107.497 372.633 108.364 372.529 109.257C371.664 116.415 370.53 123.355 368.686 130.326C374.95 130.021 381.064 129.071 387.243 128.048C388.897 127.774 390.551 127.507 392.205 127.24C399.23 126.096 406.19 124.746 413.141 123.218C417.039 109.931 415.678 94.9821 415.013 81.3182C414.953 80.0819 414.899 78.8452 414.851 77.6083C414.787 76.0493 414.692 74.4956 414.586 72.9389C414.572 72.4889 414.557 72.0389 414.542 71.5753C414.467 70.1339 414.467 70.1339 413.734 68.1258C412.591 67.199 411.425 66.5305 410.129 65.8367C408.565 64.9113 407.98 63.8801 407.251 62.239C407.023 61.7282 406.795 61.2173 406.561 60.691C405.951 59.0305 405.575 57.4505 405.436 55.6858C406.414 55.6858 407.392 55.6858 408.399 55.6858C408.5 56.0363 408.601 56.3868 408.705 56.7479C409.573 59.5767 410.341 61.8993 412.548 63.9791C414.399 64.7775 414.399 64.7775 416.105 65.1639C415.983 64.7706 415.862 64.3774 415.737 63.9722C415.577 63.4491 415.417 62.926 415.253 62.3871C415.095 61.8717 414.936 61.3562 414.774 60.8252C414.066 58.3173 413.659 56.0061 413.676 53.3972C413.679 52.6097 413.679 52.6097 413.682 51.8064C413.689 50.996 413.689 50.996 413.697 50.1692C413.7 49.6175 413.702 49.0658 413.705 48.4973C413.712 47.1417 413.722 45.7861 413.734 44.4305C414.516 44.4305 415.299 44.4305 416.105 44.4305C416.148 45.4282 416.148 45.4282 416.193 46.446C416.375 55.4816 416.375 55.4816 420.254 63.3868C420.645 63.3868 421.036 63.3868 421.44 63.3868C422.077 60.1615 422.223 56.9619 422.366 53.6865C422.404 52.8629 422.404 52.8629 422.443 52.0227C422.506 50.6768 422.566 49.3309 422.625 47.9848C423.407 47.7893 424.19 47.5938 424.996 47.3924C425.661 52.4787 425.531 57.0029 424.647 62.042C424.294 64.4038 424.205 65.8139 425.559 67.8505C425.96 68.3323 426.361 68.8142 426.774 69.3106C428.786 67.7569 429.279 65.7858 429.738 63.3868C429.956 61.0318 430.038 58.6787 430.108 56.3152C430.131 55.6841 430.154 55.0529 430.178 54.4027C430.233 52.8559 430.284 51.309 430.331 49.7619C431.113 49.7619 431.896 49.7619 432.702 49.7619C433.288 53.5739 433.288 53.5739 433.887 57.4629C436.281 55.4743 436.281 55.4743 436.594 53.7744C436.585 48.2831 434.593 44.4322 430.849 40.4689C426.511 36.3861 421.598 32.9364 415.549 32.3607C410.553 32.5315 407.708 36.0164 404.843 39.6914ZM227.02 90.044C226.653 90.393 226.285 90.742 225.906 91.1015C209.822 107.464 211.621 139.863 211.016 161.13C214.291 160.888 217.521 160.577 220.752 159.982C232.38 157.859 243.644 157.746 255.472 157.576C255.863 144.087 256.254 130.599 256.657 116.701C257.635 116.506 258.613 116.31 259.621 116.109C259.48 121.892 259.336 127.674 259.188 133.457C259.119 136.141 259.052 138.826 258.987 141.511C258.924 144.1 258.858 146.689 258.791 149.277C258.765 150.267 258.741 151.257 258.718 152.247C258.685 153.629 258.649 155.01 258.612 156.392C258.603 156.805 258.594 157.219 258.584 157.644C258.503 160.47 258.503 160.47 257.843 161.13C256.082 161.326 254.322 161.521 252.508 161.722C252.508 167.001 252.508 172.279 252.508 177.717C257.583 178.338 262.659 178.957 267.735 179.57C270.093 179.856 272.45 180.142 274.807 180.431C277.086 180.711 279.365 180.987 281.644 181.261C282.51 181.365 283.375 181.471 284.24 181.578C293.095 182.859 293.095 182.859 301.803 181.461C302.431 181.252 303.059 181.044 303.706 180.829C304.342 180.608 304.978 180.388 305.633 180.16C317 176.324 317 176.324 323.341 176.458C323.828 176.463 324.316 176.469 324.818 176.474C326.005 176.488 327.192 176.509 328.379 176.532C330.566 169.008 332.035 161.381 333.491 153.688C333.842 151.84 334.194 149.993 334.549 148.146C334.767 147.006 334.984 145.866 335.198 144.726C336.332 138.814 336.332 138.814 337.27 136.842C338.737 136.256 338.737 136.256 340.234 135.658C340.821 129.402 341.408 123.146 342.012 116.701C342.795 116.897 343.577 117.092 344.383 117.294C344.187 122.963 343.992 128.632 343.79 134.473C350.962 133.456 350.962 133.456 358.127 132.399C358.612 132.33 359.097 132.26 359.596 132.189C360.061 132.118 360.526 132.047 361.005 131.974C361.415 131.913 361.825 131.852 362.247 131.79C363.538 131.529 363.538 131.529 365.129 130.326C365.623 129.285 365.623 129.285 365.909 128.061C366.093 127.373 366.093 127.373 366.279 126.671C366.462 125.933 366.462 125.933 366.648 125.18C366.776 124.676 366.904 124.171 367.036 123.652C368.134 119.187 368.854 114.767 369.278 110.185C369.394 109.379 369.394 109.379 369.512 108.556C369.724 106.996 369.724 106.996 369.278 104.854C368.439 104.058 368.439 104.058 367.303 103.458C366.872 103.207 366.44 102.957 365.995 102.698C365.514 102.432 365.032 102.166 364.536 101.892C364.027 101.607 363.519 101.323 362.994 101.03C361.279 100.083 359.557 99.1526 357.831 98.2263C357.203 97.889 356.576 97.5516 355.929 97.204C354.654 96.5196 353.379 95.8361 352.104 95.1533C350.518 94.3019 348.936 93.4427 347.356 92.5802C332.086 83.6022 332.086 83.6022 315.339 79.3811C315.175 79.7635 315.011 80.1459 314.842 80.5399C314.09 82.2801 313.325 84.0146 312.56 85.7492C312.302 86.351 312.044 86.9527 311.779 87.5727C309.308 93.1334 309.308 93.1334 306.448 94.7831C300.81 96.661 295.204 94.0078 290.147 91.488C283.524 87.6986 278.394 82.3609 275.625 75.2344C258.758 74.6379 239.222 77.3042 227.02 90.044ZM164.19 152.244C164.19 153.613 164.19 154.981 164.19 156.391C178.664 156.196 193.139 156 208.052 155.799C208.052 154.626 208.052 153.453 208.052 152.244C193.578 152.244 179.103 152.244 164.19 152.244ZM396.383 180.386C394.092 181.64 391.792 182.877 389.492 184.114C383.675 187.247 377.897 190.441 372.153 193.704C367.791 196.181 363.407 198.616 359.016 201.042C354.221 203.692 349.453 206.382 344.717 209.136C342.178 210.61 339.629 212.065 337.08 213.522C335.756 214.291 334.457 215.085 333.163 215.902C328.375 218.714 324.488 218.767 319.092 218.726C311.987 218.881 305.951 222.006 299.684 225.111C298.066 225.732 296.902 225.817 295.185 225.7C295.185 225.113 295.185 224.527 295.185 223.923C298.315 222.554 301.445 221.186 304.669 219.776C302.527 218.349 301.295 218.362 298.742 218.221C298.008 218.177 297.275 218.132 296.519 218.087C295.68 218.056 294.84 218.027 294 217.999C293.497 217.972 292.994 217.945 292.476 217.918C288.307 217.782 284.946 218.53 281.034 219.924C280.43 220.132 279.826 220.34 279.204 220.555C272.067 223.069 265.105 226.024 258.14 228.973C254.927 230.326 251.699 231.642 248.47 232.957C247.404 233.392 246.338 233.827 245.272 234.262C244.523 234.567 243.774 234.873 243.024 235.178C244.015 243.089 248.249 250.348 253.101 256.504C253.515 257.033 253.929 257.562 254.356 258.107C263.396 268.88 277.42 273.904 291.036 275.46C293.941 275.628 296.833 275.658 299.742 275.645C300.524 275.642 301.305 275.639 302.111 275.635C308.07 275.561 313.708 275.142 319.488 273.683C319.956 273.565 320.424 273.448 320.907 273.326C343.751 267.385 362.605 252.583 381.41 238.911C387.431 234.537 393.552 230.323 399.723 226.164C401.182 225.178 402.636 224.187 404.09 223.194C423.402 210.073 423.402 210.073 432.329 207.857C432.787 207.739 433.246 207.62 433.718 207.499C434.627 207.272 435.541 207.063 436.46 206.877C437.904 206.567 437.904 206.567 439.815 205.559C440.594 203.936 440.761 202.637 441 200.82C441.587 200.82 442.174 200.82 442.778 200.82C442.974 202.384 443.169 203.948 443.371 205.559C444.187 205.71 444.187 205.71 445.02 205.864C450.846 207.014 455.395 208.062 459.375 212.667C459.647 212.974 459.919 213.281 460.199 213.598C465.307 219.804 469.146 228.749 468.759 236.83C468.411 246.632 472.278 252.843 477.737 260.699C479.062 262.61 480.323 264.554 481.573 266.515C482.329 267.699 483.095 268.875 483.865 270.05C486.822 274.582 489.687 279.173 492.569 283.753C495.884 281.725 499.111 279.635 502.201 277.274C510.758 270.762 519.739 264.776 528.726 258.873C528.375 256.581 527.693 254.895 526.552 252.882C526.222 252.297 525.893 251.712 525.553 251.11C525.194 250.483 524.835 249.856 524.466 249.21C524.092 248.551 523.718 247.891 523.333 247.212C519.46 240.402 515.516 233.633 511.536 226.885C511.084 226.116 510.632 225.347 510.179 224.578C505.14 216.015 500.107 207.467 494.62 199.18C493.195 197.005 491.805 194.808 490.409 192.614C486.74 186.854 483.036 181.118 479.269 175.421C478.898 174.855 478.527 174.29 478.146 173.707C472.938 165.875 467.324 157.842 457.597 155.799C436.799 153.707 414.03 170.673 396.383 180.386ZM236.393 160.945C235.786 160.998 235.179 161.05 234.553 161.104C223.981 161.753 223.981 161.753 213.98 164.684C213.95 168.53 213.929 172.376 213.915 176.222C213.909 177.528 213.901 178.834 213.89 180.139C213.876 182.026 213.869 183.913 213.864 185.8C213.858 186.375 213.852 186.95 213.846 187.543C213.845 193.403 214.213 199.148 218.129 203.782C225.768 211.246 240.805 209.934 250.561 209.833C262.772 209.643 275.844 208.25 287.48 204.374C288.368 204.319 289.258 204.297 290.147 204.3C290.606 204.298 291.064 204.297 291.536 204.295C292.815 204.374 292.815 204.374 294.593 204.966C298.131 205.283 301.075 205.282 304.077 203.189C305.831 201.446 307.257 199.554 308.226 197.265C312.575 197.494 316.16 200.16 319.451 202.819C320.647 203.965 320.647 203.965 322.452 203.782C323.107 201.72 323.439 200.002 323.044 197.858C321.488 196.354 319.897 195.326 318.029 194.236C316.524 193.119 316.524 193.119 316.019 191.501C315.99 191.058 315.961 190.614 315.931 190.157C318.879 191.202 321.524 192.76 324.23 194.304C324.352 193.546 324.474 192.789 324.6 192.008C324.669 191.582 324.738 191.156 324.809 190.717C324.813 190.337 324.818 189.956 324.823 189.564C323.185 187.928 321.736 188.037 319.488 187.787C319.684 187.005 319.879 186.223 320.081 185.418C322.168 185.37 324.005 185.394 326.008 186.01C326.715 183.714 327.194 181.913 327.194 179.494C323.641 177.719 318.955 179.145 315.339 180.16C314.611 180.355 314.611 180.355 313.869 180.554C311.448 181.222 309.081 181.96 306.732 182.852C306.303 183.014 305.874 183.176 305.432 183.343C304.641 183.65 303.855 183.969 303.075 184.304C296.615 186.841 288.897 185.303 282.215 184.444C281.391 184.341 280.568 184.239 279.744 184.138C278.029 183.925 276.315 183.709 274.6 183.491C272.441 183.215 270.281 182.946 268.121 182.678C258.947 181.541 249.785 180.345 240.653 178.902C240.653 178.12 240.653 177.338 240.653 176.532C243.196 176.532 245.739 176.532 248.359 176.532C248.862 174.519 249.021 173.114 249.01 171.08C249.008 170.5 249.006 169.92 249.004 169.322C248.999 168.72 248.994 168.118 248.989 167.498C248.986 166.887 248.983 166.276 248.981 165.647C248.974 164.141 248.964 162.636 248.952 161.13C244.686 160.553 240.674 160.556 236.393 160.945ZM385.875 162.907C384.426 165.079 384.198 166.899 384.69 169.423C385.858 171.039 385.858 171.039 387.653 171.793C389.496 171.988 389.496 171.988 391.21 171.201C392.804 169.398 393.506 168.182 393.84 165.795C393.546 163.867 393.228 163.049 391.802 161.722C389.259 160.719 388.001 161.299 385.875 162.907ZM166.56 187.787C166.56 191.206 166.613 194.473 166.932 197.855C166.971 198.295 167.011 198.735 167.052 199.188C167.181 200.623 167.314 202.058 167.447 203.492C167.539 204.499 167.631 205.505 167.722 206.512C167.913 208.613 168.106 210.713 168.301 212.814C168.549 215.501 168.794 218.188 169.038 220.875C169.227 222.95 169.417 225.025 169.607 227.1C169.698 228.091 169.788 229.081 169.879 230.072C170.005 231.457 170.133 232.842 170.262 234.226C170.298 234.632 170.335 235.037 170.373 235.455C170.589 237.765 170.919 239.99 171.302 242.287C194.384 242.287 217.465 242.287 241.246 242.287C240.659 240.527 240.072 238.768 239.468 236.955C238.093 236.531 236.71 236.136 235.319 235.77C230.807 229.458 230.226 219.618 229.391 212.075C229.075 211.974 228.758 211.873 228.433 211.77C217.904 208.347 217.904 208.347 215.165 204.966C214.75 204.478 214.334 203.989 213.906 203.485C211.308 198.639 210.963 193.181 210.423 187.787C195.949 187.787 181.474 187.787 166.56 187.787ZM309.411 200.82C309.179 201.26 308.947 201.699 308.707 202.153C307.54 203.923 306.374 204.905 304.669 206.151C303.887 206.738 303.105 207.324 302.298 207.928C308.362 207.928 314.426 207.928 320.673 207.928C319.695 207.146 318.717 206.364 317.71 205.559C317.263 205.19 316.817 204.821 316.358 204.441C315.924 204.089 315.49 203.737 315.042 203.374C314.608 203.018 314.174 202.661 313.727 202.294C312.264 201.34 311.131 201.047 309.411 200.82ZM286.887 207.336C286.887 207.531 286.887 207.727 286.887 207.928C289.234 207.928 291.582 207.928 294 207.928C291.181 206.52 289.849 206.696 286.887 207.336ZM407.806 223.923C407.404 224.192 407.002 224.462 406.588 224.739C404.238 226.322 401.908 227.931 399.587 229.555C398.217 230.513 396.845 231.466 395.472 232.42C390.699 235.741 385.95 239.092 381.244 242.509C354.963 261.558 354.963 261.558 343.79 267.167C343.79 267.362 343.79 267.558 343.79 267.759C349.197 267.859 354.434 267.652 359.794 266.945C360.912 266.8 360.912 266.8 362.051 266.652C373.395 265.118 384.641 262.863 395.884 260.736C396.829 260.558 396.829 260.558 397.792 260.375C398.665 260.209 398.665 260.209 399.556 260.039C400.064 259.942 400.572 259.846 401.095 259.746C402.355 259.489 403.598 259.196 404.843 258.873C404.764 258.523 404.685 258.172 404.604 257.811C404.388 256.844 404.174 255.877 403.961 254.909C403.744 253.933 403.519 252.959 403.287 251.987C402.928 249.715 402.609 247.344 403.657 245.249C404.44 245.249 405.222 245.249 406.028 245.249C406.044 245.736 406.059 246.223 406.075 246.725C406.303 251.217 407.025 254.823 408.992 258.873C410.53 256.567 411.777 254.142 413.067 251.691C413.325 251.207 413.582 250.722 413.847 250.224C415.526 247.04 417.057 243.818 418.476 240.509C419.258 240.509 420.041 240.509 420.847 240.509C419.386 246.047 416.898 250.954 414.259 256.011C410.39 263.495 409.962 269.782 410.989 278.014C411.283 280.377 411.554 282.743 411.828 285.109C411.887 285.617 411.946 286.124 412.007 286.647C412.723 292.864 413.314 299.092 413.905 305.322C414.02 306.525 414.135 307.728 414.249 308.931C414.539 311.979 414.827 315.028 415.115 318.076C415.581 323.004 416.049 327.931 416.518 332.859C416.678 334.546 416.837 336.233 416.996 337.92C417.642 344.75 418.336 351.573 419.069 358.394C423.835 358.174 428.602 357.953 433.368 357.729C435.582 357.626 437.796 357.522 440.01 357.421C442.15 357.322 444.291 357.222 446.432 357.121C447.244 357.083 448.057 357.045 448.869 357.008C453.376 356.803 457.856 356.54 462.339 356.024C462.943 352.396 463.121 348.795 463.271 345.123C463.3 344.451 463.329 343.778 463.359 343.085C463.454 340.852 463.546 338.619 463.638 336.385C463.687 335.207 463.736 334.029 463.785 332.85C464.014 327.358 464.234 321.865 464.45 316.372C464.467 315.942 464.484 315.512 464.502 315.069C465.769 283.467 465.769 283.467 466.261 251.846C466.266 250.555 466.276 249.264 466.288 247.973C466.442 235.909 466.442 235.909 462.931 224.515C462.767 224.162 462.602 223.809 462.432 223.446C459.68 217.591 456.427 212.916 450.458 210.115C435.592 204.866 419.557 216.03 407.806 223.923ZM275.032 210.298C274.451 210.374 274.451 210.374 273.858 210.452C272.052 210.687 270.245 210.918 268.438 211.149C267.829 211.229 267.22 211.309 266.593 211.391C258.449 212.428 250.406 212.752 242.209 212.704C241.305 212.701 240.4 212.699 239.496 212.696C237.313 212.69 235.13 212.68 232.948 212.667C233.216 217.101 233.578 221.385 234.652 225.7C234.747 226.121 234.843 226.541 234.941 226.975C235.523 229.394 236.284 231.345 237.69 233.401C240.252 233.056 242.412 232.429 244.791 231.425C245.474 231.139 246.156 230.853 246.86 230.559C247.594 230.247 248.328 229.936 249.063 229.624C250.21 229.143 251.358 228.662 252.506 228.182C253.294 227.852 254.082 227.522 254.869 227.191C259.009 225.454 263.167 223.761 267.327 222.072C267.998 221.799 268.669 221.526 269.36 221.245C272.038 220.156 274.718 219.07 277.403 217.999C277.234 217.159 277.061 216.32 276.885 215.481C276.788 215.014 276.692 214.547 276.593 214.065C276.222 212.683 275.689 211.564 275.032 210.298ZM94.0978 260.465C93.7555 260.917 93.4132 261.37 93.0605 261.835C92.8649 262.031 92.6693 262.226 92.4677 262.428C92.2971 264.161 92.1782 265.48 92.4677 267.167C94.3167 269.232 96.3151 270.092 98.9879 270.721C100.825 270.254 100.825 270.254 102.581 269.351C111.328 265.245 119.998 267.544 128.738 270.58C131.309 271.525 133.824 272.579 136.331 273.683C137.113 274.014 137.113 274.014 137.912 274.352C139.22 274.942 139.22 274.942 141.073 276.052C141.485 277.307 141.485 277.307 141.665 278.422C139.062 278.101 137.178 277.461 134.886 276.201C130.757 274.063 126.538 272.664 122.105 271.313C121.667 271.166 121.229 271.019 120.778 270.867C114.474 268.938 107.866 269.862 101.952 272.498C99.2565 273.933 97.0079 275.473 96.0242 278.422C95.7264 282.053 95.9586 283.832 98.3952 286.715C104.531 293.001 113.203 293.616 121.512 293.824C123.446 293.829 125.379 293.81 127.312 293.787C127.833 293.781 128.355 293.775 128.891 293.769C129.422 293.763 129.953 293.757 130.499 293.75C131.591 293.738 132.683 293.725 133.774 293.713C134.315 293.706 134.856 293.7 135.414 293.693C144.557 293.602 152.946 294.42 161.819 296.786C160.519 289.858 157.251 284.845 152.402 279.757C151.149 278.422 151.149 278.422 149.987 276.93C141.239 266.294 125.08 258.062 111.435 256.504C105.738 256.062 98.4412 256.175 94.0978 260.465ZM468.859 261.835C468.834 262.822 468.835 263.81 468.859 264.797C469.502 265.575 469.502 265.575 471.065 265.447C471.719 265.441 472.372 265.434 473.045 265.427C473.7 265.421 474.355 265.416 475.029 265.41C475.536 265.404 476.043 265.397 476.565 265.39C475.92 263.464 475.92 263.464 474.786 261.835C473.787 261.793 472.786 261.786 471.786 261.798C471.241 261.804 470.696 261.809 470.135 261.814C469.714 261.821 469.293 261.828 468.859 261.835ZM526.244 264.205C525.666 264.594 525.666 264.594 525.077 264.991C515.833 271.249 506.7 277.666 497.683 284.247C496.782 284.892 495.861 285.509 494.94 286.123C495.87 289.657 497.755 292.538 499.681 295.601C502.805 294.633 505.152 292.661 507.721 290.714C511.753 287.701 515.817 284.745 519.946 281.865C520.678 281.353 520.678 281.353 521.425 280.829C523.803 279.17 526.194 277.537 528.617 275.944C529.061 275.649 529.505 275.354 529.963 275.05C530.796 274.498 531.634 273.953 532.477 273.416C533.715 272.622 533.715 272.622 535.246 271.313C535.246 268.581 534.62 267.562 533.245 265.241C532.874 264.603 532.503 263.965 532.12 263.307C531.782 262.821 531.445 262.336 531.097 261.835C529.167 261.835 527.794 263.15 526.244 264.205ZM248.712 261.858C248.032 261.863 247.353 261.868 246.652 261.873C245.528 261.881 245.528 261.881 244.381 261.89C243.586 261.896 242.792 261.901 241.998 261.907C239.837 261.923 237.677 261.939 235.517 261.955C233.261 261.972 231.005 261.988 228.748 262.005C224.474 262.036 220.2 262.068 215.926 262.099C211.061 262.135 206.196 262.171 201.331 262.207C191.321 262.28 181.312 262.354 171.302 262.428C171.498 263.601 171.694 264.774 171.895 265.982C180.49 265.898 189.085 265.812 197.679 265.723C198.31 265.716 198.94 265.71 199.59 265.703C218.22 265.509 236.846 265.28 255.472 264.797C254.713 263.786 253.92 262.799 253.101 261.835C251.638 261.835 250.175 261.847 248.712 261.858ZM397.73 263.316C397.271 263.401 396.811 263.486 396.338 263.573C395.221 263.78 394.104 263.992 392.988 264.205C392.988 264.4 392.988 264.596 392.988 264.797C397.878 264.797 402.768 264.797 407.806 264.797C407.806 264.015 407.806 263.233 407.806 262.428C404.322 262.333 401.148 262.659 397.73 263.316ZM5.33468 293.232C5.13034 295.005 5.13034 295.005 6.20527 295.923C6.80125 296.405 6.80125 296.405 7.40927 296.897C9.12905 298.331 10.7206 299.791 12.2623 301.414C20.4121 309.606 30.5347 315.827 42.344 315.964C49.5232 315.896 55.422 314.405 60.8672 309.596C64.7523 305.189 66.766 301.449 66.6511 295.418C66.2133 292.774 64.8744 291.324 62.8306 289.677C54.325 283.944 40.8428 286.685 31.4153 288.493C29.0618 289.026 26.7501 289.663 24.4367 290.348C22.4225 290.889 20.4432 291.198 18.375 291.454C18.375 290.673 18.375 289.891 18.375 289.085C30.6301 285.22 48.4528 279.775 60.8649 285.697C61.3669 285.972 61.8689 286.247 62.3861 286.53C65.2805 288.097 66.7667 288.207 69.9436 287.308C72.4562 285.963 72.4562 285.963 74.0927 283.753C74.3855 281.218 74.2883 279.939 72.9814 277.719C69.1848 273.687 63.1613 273.116 57.9405 272.942C40.4201 273.139 17.7088 280.37 5.33468 293.232ZM173.673 277.83C173.622 278.486 173.57 279.143 173.517 279.819C169.089 336.231 169.089 336.231 166.894 359.69C166.838 360.288 166.838 360.288 166.781 360.898C165.508 374.518 165.508 374.518 165.037 378.297C164.76 381.129 164.782 383.983 164.782 386.828C185.321 386.828 205.859 386.828 227.02 386.828C227.039 375.28 227.039 375.28 226.758 363.75C226.73 362.977 226.702 362.205 226.673 361.409C226.598 359.344 226.52 357.28 226.441 355.216C226.358 353.031 226.278 350.846 226.198 348.662C226.062 345.006 225.925 341.351 225.786 337.696C225.627 333.487 225.47 329.278 225.316 325.069C225.166 320.984 225.013 316.9 224.86 312.815C224.795 311.091 224.731 309.366 224.668 307.641C224.579 305.237 224.488 302.832 224.396 300.427C224.37 299.723 224.345 299.019 224.318 298.293C224.167 294.415 223.908 290.572 223.464 286.715C223.079 286.714 222.694 286.713 222.297 286.712C218.69 286.701 215.084 286.668 211.478 286.625C210.122 286.611 208.766 286.603 207.41 286.6C193.187 286.559 193.187 286.559 186.714 283.161C185.663 282.675 184.612 282.19 183.56 281.706C182.115 281.003 180.675 280.292 179.235 279.58C178.767 279.353 178.3 279.126 177.818 278.892C177.404 278.687 176.991 278.483 176.565 278.272C175.376 277.72 175.376 277.72 173.673 277.83ZM227.02 286.715C227.393 299.743 227.786 312.763 228.298 325.785C228.346 327.014 228.394 328.242 228.442 329.471C228.591 333.29 228.741 337.109 228.891 340.928C229.046 344.845 229.198 348.762 229.349 352.679C229.48 356.084 229.613 359.489 229.748 362.895C229.827 364.911 229.906 366.928 229.983 368.944C230.069 371.174 230.157 373.404 230.247 375.634C230.271 376.29 230.296 376.946 230.321 377.622C230.346 378.23 230.371 378.839 230.397 379.466C230.417 379.99 230.438 380.514 230.459 381.054C230.599 382.988 230.895 384.909 231.169 386.828C234.495 386.828 237.82 386.828 241.246 386.828C241.957 385.549 241.957 385.549 242.682 384.244C252.587 366.504 263.067 349.447 280.034 337.623C280.448 337.333 280.862 337.043 281.289 336.744C281.877 336.344 281.877 336.344 282.476 335.936C282.827 335.697 283.177 335.458 283.538 335.212C284.516 334.698 284.516 334.698 286.294 334.698C285.958 336.805 285.428 338.362 284.338 340.192C284.055 340.673 283.773 341.154 283.482 341.65C283.175 342.166 282.869 342.682 282.553 343.214C277.08 352.632 272.032 362.15 267.734 372.167C267.446 372.834 267.157 373.5 266.86 374.187C266.601 374.806 266.341 375.426 266.074 376.064C265.843 376.613 265.612 377.162 265.374 377.728C264.789 379.195 264.789 379.195 265.548 380.904C265.808 380.53 266.068 380.156 266.336 379.771C274.781 367.865 285.555 356.399 299.335 350.693C300.117 350.693 300.9 350.693 301.706 350.693C301.36 352.839 300.783 354.495 299.749 356.404C299.466 356.934 299.183 357.463 298.892 358.009C298.432 358.859 298.432 358.859 297.964 359.727C295.204 364.928 292.532 370.164 289.962 375.462C289.646 376.105 289.33 376.747 289.004 377.41C288.717 378.005 288.43 378.6 288.135 379.213C287.751 380.004 287.751 380.004 287.36 380.811C287.204 381.233 287.048 381.655 286.887 382.089C287.083 382.48 287.278 382.871 287.48 383.274C288.019 382.708 288.557 382.142 289.112 381.559C294.129 376.372 299.295 371.924 305.262 367.872C305.897 367.422 306.532 366.972 307.186 366.509C308.819 365.502 308.819 365.502 310.597 365.502C310.384 369.113 308.646 371.377 306.633 374.24C305.984 375.187 305.337 376.134 304.69 377.082C304.379 377.535 304.068 377.988 303.748 378.455C300.75 382.346 300.75 382.346 299.335 386.828C339.629 386.828 379.924 386.828 421.44 386.828C423.93 378.499 423.93 378.499 423.811 374.388C423.389 374.352 422.968 374.316 422.535 374.279C421.99 374.23 421.445 374.18 420.884 374.129C420.069 374.057 420.069 374.057 419.238 373.983C417.883 373.796 417.883 373.796 417.29 373.203C417.108 371.814 416.961 370.435 416.835 369.04C416.793 368.602 416.752 368.163 416.709 367.712C416.57 366.24 416.434 364.769 416.299 363.297C416.202 362.259 416.105 361.22 416.007 360.181C415.745 357.387 415.486 354.593 415.228 351.799C415.015 349.495 414.8 347.191 414.584 344.887C413.567 334.002 412.564 323.116 411.597 312.227C411.562 311.833 411.527 311.439 411.491 311.033C411.14 307.083 410.792 303.132 410.45 299.181C410.367 298.229 410.367 298.229 410.282 297.259C410.181 296.101 410.081 294.943 409.983 293.785C409.938 293.282 409.894 292.778 409.849 292.26C409.812 291.829 409.775 291.398 409.737 290.954C409.567 289.53 409.273 288.122 408.992 286.715C348.941 286.715 288.891 286.715 227.02 286.715ZM468.859 286.715C468.496 288.893 468.19 290.77 468.105 292.927C468.074 293.677 468.074 293.677 468.042 294.442C468.022 294.98 468.002 295.518 467.981 296.073C467.958 296.649 467.935 297.224 467.911 297.818C467.835 299.724 467.762 301.63 467.69 303.536C467.637 304.878 467.585 306.221 467.533 307.564C467.423 310.389 467.315 313.214 467.208 316.039C467.1 318.898 466.989 321.757 466.876 324.616C466.247 340.423 465.692 356.198 465.895 372.019C463.157 372.214 460.418 372.41 457.597 372.611C457.658 373.332 457.719 374.053 457.782 374.795C457.816 375.201 457.851 375.606 457.886 376.024C458.871 380.328 462.256 382.363 465.765 384.59C470.127 387.024 473.804 387.206 478.729 387.02C479.437 387.006 480.144 386.993 480.872 386.978C482.599 386.942 484.323 386.892 486.048 386.828C484.372 363.693 482.585 340.568 480.726 317.446C480.565 315.441 480.405 313.437 480.245 311.432C479.992 308.25 479.736 305.07 479.478 301.889C479.383 300.704 479.288 299.518 479.193 298.333C479.064 296.704 478.931 295.076 478.798 293.448C478.761 292.968 478.723 292.489 478.685 291.994C478.53 290.13 478.344 288.498 477.75 286.715C474.816 286.715 471.882 286.715 468.859 286.715ZM94.246 311.003C93.0991 312.809 93.0605 313.489 93.0605 315.742C93.5923 315.901 94.1241 316.06 94.672 316.224C104.638 319.351 114.061 323.949 121.883 330.959C122.192 331.234 122.501 331.509 122.82 331.792C124.38 333.242 125.447 334.302 125.661 336.476C123.342 336.133 122.111 335.026 120.364 333.514C111.221 325.897 99.8216 318.143 87.4017 318.533C85.4044 318.768 84.0228 319.311 82.3911 320.481C80.8514 323.033 80.7327 325.277 81.2056 328.182C83.8081 335.974 89.5172 341.054 96.465 344.993C99.521 346.514 102.664 347.409 105.953 348.286C107.362 348.686 108.772 349.087 110.181 349.49C110.884 349.689 111.588 349.888 112.314 350.094C121.641 352.774 130.314 355.856 138.702 360.763C139.485 361.212 140.268 361.659 141.052 362.105C141.942 362.614 141.942 362.614 142.851 363.133C146.245 351.329 140.672 336.113 135.071 325.813C130.237 317.798 122.615 310.202 113.424 307.597C106.982 306.207 99.3941 306.335 94.246 311.003ZM81.7984 337.068C81.7897 337.482 81.7811 337.895 81.7722 338.321C81.5053 350.091 80.8436 361.813 80.0299 373.557C79.9905 374.13 79.9511 374.704 79.9105 375.295C79.8362 376.372 79.7606 377.449 79.6834 378.526C79.4911 381.302 79.3901 384.046 79.4274 386.828C80.6011 386.535 80.6011 386.535 81.7984 386.236C81.8855 385.525 81.9726 384.814 82.0623 384.082C83.6405 372.023 86.9658 361.561 92.4643 350.718C93.136 349.355 93.7197 347.972 94.246 346.546C93.8869 346.358 93.5277 346.17 93.1577 345.977C89.3659 343.866 86.5156 341.387 83.5373 338.239C83.159 337.853 82.7808 337.466 82.3911 337.068C82.1955 337.068 81.9999 337.068 81.7984 337.068ZM277.996 342.992C264.274 354.345 252.866 369.381 245.395 385.643C245.395 386.034 245.395 386.425 245.395 386.828C249.894 386.828 254.393 386.828 259.028 386.828C259.445 385.702 259.863 384.576 260.292 383.415C263.375 375.18 266.631 367.083 270.476 359.171C270.808 358.484 271.141 357.797 271.484 357.088C273.438 353.128 275.552 349.325 277.878 345.57C278.113 345.11 278.347 344.65 278.589 344.177C278.295 343.59 278.295 343.59 277.996 342.992ZM290.814 359.171C290.445 359.436 290.076 359.7 289.696 359.973C285.924 362.729 282.53 365.803 279.181 369.057C278.856 369.367 278.53 369.678 278.194 369.998C275.54 372.572 273.259 375.329 271.031 378.276C270.53 378.923 270.53 378.923 270.019 379.584C268.192 381.983 266.929 384.069 265.548 386.828C270.634 386.828 275.72 386.828 280.96 386.828C284.91 379.504 288.54 372.119 291.958 364.533C293.166 361.858 294.444 359.231 295.778 356.617C293.793 356.617 292.377 358.049 290.814 359.171ZM448.314 359.967C447.485 360.007 446.655 360.047 445.826 360.087C443.659 360.191 441.493 360.297 439.327 360.402C437.11 360.511 434.892 360.617 432.675 360.724C428.337 360.933 423.999 361.144 419.661 361.356C418.74 363.197 419.314 364.757 419.624 366.761C419.74 367.52 419.855 368.279 419.974 369.061C420.066 369.646 420.159 370.231 420.254 370.834C428.847 370.999 437.385 370.724 445.964 370.279C446.723 370.24 446.723 370.24 447.497 370.2C448.967 370.125 450.436 370.046 451.906 369.966C452.558 369.932 452.558 369.932 453.223 369.897C456.278 369.724 459.301 369.414 462.339 369.057C462.339 365.929 462.339 362.801 462.339 359.579C457.654 359.525 452.993 359.737 448.314 359.967ZM74.6114 363.54C73.192 365.173 72.3739 366.15 72.1339 368.319C72.2603 369.561 72.4216 370.8 72.6086 372.035C73.0595 375.042 72.9708 378.056 72.9443 381.09C72.9416 381.653 72.939 382.215 72.9362 382.796C72.9293 384.14 72.9197 385.484 72.9073 386.828C73.8853 386.828 74.8633 386.828 75.871 386.828C76.1283 384.248 76.3813 381.668 76.6307 379.087C76.7158 378.212 76.8021 377.337 76.8895 376.463C77.3925 371.42 77.7964 366.431 77.6492 361.356C76.3978 361.356 75.4385 362.738 74.6114 363.54ZM68.7581 369.649C68.4956 369.897 68.2331 370.144 67.9627 370.399C66.7468 371.544 65.5297 372.689 64.3125 373.833C63.8999 374.222 63.4873 374.611 63.0622 375.012C62.6496 375.399 62.237 375.787 61.8119 376.186C61.1849 376.775 61.1849 376.775 60.5454 377.376C58.9559 378.825 57.3022 380.189 55.624 381.535C54.1142 383.029 54.1142 383.029 52.1613 386.828C58.0294 386.828 63.8976 386.828 69.9436 386.828C69.968 384.324 69.9925 381.819 70.0176 379.238C70.0284 378.45 70.0392 377.663 70.0503 376.851C70.0533 376.23 70.0563 375.609 70.0593 374.969C70.0655 374.333 70.0717 373.697 70.0781 373.042C70.064 371.296 70.064 371.296 68.7581 369.649ZM296.816 378.276C296.294 378.761 296.294 378.761 295.763 379.256C293.422 381.459 291.235 383.695 289.258 386.236C289.258 386.431 289.258 386.627 289.258 386.828C291.463 387.545 293.004 387.672 295.185 386.828C298.091 383.559 300.327 379.114 301.706 374.981C299.614 374.981 298.276 376.904 296.816 378.276Z" fill="black"/>
<path d="M323.041 39.6914C323.824 39.8869 324.606 40.0824 325.412 40.2838C325.217 42.0432 325.021 43.8025 324.82 45.6152C324.037 45.6152 323.255 45.6152 322.449 45.6152C321.762 43.2135 321.953 41.9317 323.041 39.6914Z" fill="black"/>
<path d="M331.935 44.4277C332.718 44.8187 333.5 45.2097 334.306 45.6125C334.254 47.2177 334.191 48.8212 334.121 50.4256C334.101 51.1014 334.101 51.1014 334.08 51.7909C333.92 55.1655 333.154 57.5768 331.12 60.348C329.756 61.2921 328.813 61.2221 327.193 61.0145C326.802 60.6235 326.411 60.2325 326.008 59.8297C326.082 58.6449 326.082 58.6449 326.601 57.4602C326.988 57.2899 327.375 57.1196 327.774 56.9442C329.055 56.3885 329.055 56.3885 329.442 55.1809C329.519 54.7479 329.596 54.3149 329.675 53.8688C329.763 53.3969 329.851 52.925 329.942 52.4388C330.216 50.5331 330.41 48.6275 330.546 46.707C330.75 45.6125 330.75 45.6125 331.935 44.4277Z" fill="black"/>
<path d="M317.116 60.4219C319.768 60.7247 321.019 61.7054 323.044 63.3838C324.216 64.0025 325.399 64.6023 326.6 65.1609C326.405 65.9429 326.209 66.7248 326.008 67.5305C322.19 67.2252 320.121 65.9764 317.153 63.68C316.524 62.7914 316.524 62.7914 316.709 61.4956C316.843 61.1413 316.978 60.7869 317.116 60.4219Z" fill="black"/>
<path d="M109.063 74.0469C110.508 74.4912 110.508 74.4912 112.027 75.2316C112.62 76.3794 112.62 76.3794 112.62 77.6012C111.953 78.6749 111.953 78.6749 110.842 79.3783C109.249 79.1932 109.249 79.1932 107.878 78.7859C107.47 77.4161 107.47 77.4161 107.285 75.824C108.137 74.7503 108.137 74.7503 109.063 74.0469Z" fill="black"/>
<path d="M473.428 81.5886C474.095 81.5829 474.761 81.5773 475.448 81.5715C476.162 81.572 476.877 81.5725 477.613 81.5731C478.352 81.5705 479.09 81.568 479.851 81.5654C481.811 81.5611 483.77 81.563 485.73 81.5663C486.929 81.5661 488.128 81.5602 489.327 81.5521C491.634 81.5376 493.941 81.5351 496.247 81.5361C496.962 81.5306 497.676 81.5252 498.412 81.5195C499.079 81.5232 499.746 81.5269 500.432 81.5307C501.017 81.5303 501.602 81.53 502.204 81.5296C504.115 81.7913 505.235 82.4015 506.787 83.5284C508.335 86.6224 507.566 91.5708 507.587 95.0167C507.597 96.1664 507.613 97.3161 507.636 98.4657C507.668 100.124 507.681 101.782 507.69 103.44C507.703 103.953 507.717 104.465 507.731 104.993C507.722 107.338 507.532 108.724 506.387 110.807C503.177 112.689 499.931 112.361 496.28 112.315C495.478 112.314 494.675 112.314 493.873 112.315C492.196 112.314 490.519 112.303 488.842 112.284C486.693 112.26 484.544 112.258 482.394 112.262C480.74 112.264 479.085 112.257 477.43 112.247C476.253 112.241 475.075 112.24 473.897 112.24C473.183 112.231 472.469 112.221 471.733 112.212C470.789 112.204 470.789 112.204 469.825 112.196C468.259 111.963 468.259 111.963 467.19 111.17C465.469 108.781 465.792 106.071 465.788 103.265C465.786 102.76 465.784 102.255 465.782 101.735C465.779 100.668 465.778 99.6011 465.778 98.534C465.777 96.9024 465.766 95.271 465.755 93.6394C465.753 92.6024 465.752 91.5653 465.751 90.5283C465.747 90.0407 465.743 89.5532 465.738 89.0509C465.756 84.5319 465.756 84.5319 467.073 82.936C469.254 81.8765 471.017 81.5998 473.428 81.5886ZM471.815 85.3056C471.815 85.6965 471.815 86.0875 471.815 86.4903C472.4 86.8103 472.984 87.1302 473.586 87.4599C475.245 88.4056 476.809 89.426 478.361 90.5375C478.765 90.8265 479.168 91.1156 479.585 91.4134C480.417 92.0138 481.245 92.6186 482.071 93.2275C482.674 93.6554 482.674 93.6554 483.288 94.0918C483.647 94.3528 484.005 94.6138 484.374 94.8828C485.427 95.4747 485.427 95.4747 486.595 95.2678C488.067 94.6858 489.282 93.9366 490.602 93.0621C491.124 92.7192 491.646 92.3764 492.184 92.0231C492.724 91.6634 493.264 91.3038 493.821 90.9332C494.896 90.2231 495.972 89.5135 497.048 88.8043C497.524 88.4886 497.999 88.1728 498.489 87.8475C499.674 87.0827 499.674 87.0827 500.86 86.4903C500.566 85.9039 500.566 85.9039 500.267 85.3056C490.878 85.3056 481.489 85.3056 471.815 85.3056ZM499.489 90.6C498.849 91.0869 498.208 91.5728 497.567 92.0578C497.233 92.3104 496.9 92.5629 496.556 92.8232C494.856 94.1023 493.143 95.3607 491.413 96.5979C490.796 97.0446 490.18 97.4913 489.544 97.9516C487.67 99.0148 486.951 99.3693 484.856 98.9304C483.46 98.0745 482.216 97.2224 480.929 96.2276C477.399 93.5594 473.8 91.2528 470.037 88.8599C470.037 95.3109 470.037 101.762 470.037 108.409C474.351 108.421 478.664 108.433 482.978 108.439C484.987 108.442 486.995 108.447 489.004 108.453C491.307 108.461 493.609 108.464 495.912 108.466C496.996 108.471 496.996 108.471 498.103 108.476C498.767 108.476 499.432 108.476 500.116 108.476C500.705 108.477 501.293 108.478 501.899 108.48C503.213 108.558 503.213 108.558 503.823 107.816C503.876 106.366 503.892 104.932 503.881 103.482C503.88 103.049 503.879 102.616 503.879 102.17C503.875 100.781 503.868 99.3931 503.86 98.0048C503.857 97.0657 503.855 96.1266 503.852 95.1875C503.846 92.8808 503.835 90.5742 503.823 88.2675C501.938 88.2675 500.957 89.4634 499.489 90.6Z" fill="black"/>
<path d="M154.221 98.5554C154.576 98.6776 154.93 98.7997 155.295 98.9256C155.491 100.099 155.687 101.271 155.888 102.48C154.11 103.665 154.11 103.665 152.85 103.48C151.739 103.072 151.739 103.072 151.146 102.48C150.998 101.036 150.998 101.036 151.146 99.518C152.925 98.3332 152.925 98.3332 154.221 98.5554Z" fill="black"/>
<path d="M88.9089 136.84C90.5019 137.358 90.5019 137.358 91.8726 138.025C91.9467 139.432 91.9467 139.432 91.8726 140.987C91.4814 141.378 91.0902 141.768 90.6871 142.171C87.9869 141.842 87.9869 141.842 87.1307 140.987C86.9825 139.543 86.9825 139.543 87.1307 138.025C87.7175 137.634 88.3043 137.243 88.9089 136.84Z" fill="black"/>
<path d="M537.95 178.193C539.395 178.304 539.395 178.304 539.988 178.897C540.099 180.341 540.099 180.341 539.988 181.859C539.597 182.25 539.206 182.641 538.803 183.043C537.247 182.821 537.247 182.821 535.839 182.451C535.468 181.044 535.468 181.044 535.246 179.489C536.432 178.304 536.432 178.304 537.95 178.193Z" fill="black"/>
<path d="M51.8334 203.631C52.5853 203.704 52.5853 203.704 53.3523 203.779C54.5378 205.556 54.5378 205.556 54.4637 206.778C53.7917 208.265 53.0641 208.534 51.5741 209.11C50.7917 208.524 50.0093 207.937 49.2031 207.333C49.8312 203.836 49.8312 203.836 51.8334 203.631Z" fill="black"/>
<path d="M558.359 240.508C558.73 241.915 558.73 241.915 558.952 243.47C557.766 244.654 557.766 244.654 556.247 244.765C554.803 244.654 554.803 244.654 554.21 244.062C554.186 242.877 554.185 241.692 554.21 240.508C555.791 239.718 556.68 240.11 558.359 240.508Z" fill="black"/>
<path d="M379.945 313.371C380.316 314.778 380.316 314.778 380.538 316.333C379.352 317.518 379.352 317.518 377.796 317.592C377.332 317.567 376.867 317.543 376.389 317.518C375.759 316.444 375.759 316.444 375.203 315.148C375.399 314.562 375.594 313.975 375.796 313.371C377.376 312.581 378.266 312.973 379.945 313.371Z" fill="black"/>
<path d="M199.159 337.066C200.752 337.585 200.752 337.585 202.123 338.251C202.197 339.658 202.197 339.658 202.123 341.213C201.731 341.604 201.34 341.995 200.937 342.398C198.237 342.069 198.237 342.069 197.381 341.213C197.232 339.769 197.232 339.769 197.381 338.251C197.967 337.86 198.554 337.469 199.159 337.066Z" fill="black"/>
<path d="M523.985 352.986C525.763 353.06 525.763 353.06 526.356 353.653C526.467 355.097 526.467 355.097 526.356 356.615C525.965 357.006 525.574 357.397 525.171 357.799C522.47 357.47 522.47 357.47 521.614 356.615C521.54 355.134 521.54 355.134 521.614 353.653C522.207 353.06 522.207 353.06 523.985 352.986Z" fill="black"/>
</g>
<defs>
<clipPath id="clip0_250_129">
<rect width="588" height="420" fill="white"/>
</clipPath>
</defs>
</svg>
