<svg width="400" height="366" viewBox="0 0 400 366" fill="none" xmlns="http://www.w3.org/2000/svg">
<path d="M334.072 4.28695C338.465 7.59202 340.972 11.9789 341.854 17.4046C342.428 23.5605 341.093 29.7148 337.132 34.5788C334.731 37.1962 331.955 39.0769 328.998 41.0194C325.757 43.1908 323.667 45.1715 322.732 49.065C322.582 49.8264 322.443 50.5901 322.318 51.356C322.147 52.2228 322.147 52.2228 321.715 52.6553C320.95 52.6983 320.183 52.7119 319.417 52.7127C318.952 52.7133 318.487 52.7138 318.008 52.7144C317.518 52.7127 317.029 52.7111 316.524 52.7093C316.035 52.711 315.545 52.7127 315.041 52.7144C314.576 52.7139 314.111 52.7133 313.632 52.7127C313.202 52.7122 312.772 52.7117 312.329 52.7112C311.334 52.6553 311.334 52.6553 310.901 52.2228C310.272 47.3929 311.947 42.8521 314.762 38.9936C317.327 36.0083 320.215 33.6906 323.384 31.378C326.104 29.3526 328.673 27.1188 329.5 23.6762C329.863 20.4707 329.755 17.6663 327.77 15.0257C325.585 12.6261 323.249 11.9622 320.093 11.8088C317.352 11.87 315.249 12.4778 313.064 14.1607C312.011 15.3717 311.221 16.639 310.469 18.0534C310.322 18.3266 310.176 18.5998 310.025 18.8813C309.725 19.463 309.446 20.0546 309.171 20.6485C306.557 20.2033 303.953 19.7106 301.359 19.1617C300.89 19.0641 300.421 18.9666 299.938 18.866C298.791 18.4859 298.791 18.4859 297.926 17.1883C298.988 11.8698 302.401 7.09768 306.696 3.91525C314.957 -1.44005 325.991 -1.28774 334.072 4.28695Z" fill="black"/>
<path d="M196.713 38.8142C197.74 39.4629 197.74 39.4629 198.443 40.1117C198.3 40.5399 198.157 40.9681 198.01 41.4093C197.764 41.3993 197.518 41.3892 197.265 41.3789C195.015 41.3263 193.221 41.5489 191.09 42.2743C191.09 41.7034 191.09 41.1325 191.09 40.5443C192.791 38.9606 194.43 38.6278 196.713 38.8142Z" fill="black"/>
<path d="M216.612 39.6798C217.477 40.5448 217.477 40.5448 217.477 42.2749C214.908 41.9895 212.338 41.704 209.691 41.4099C209.834 40.839 209.977 40.268 210.124 39.6798C212.652 38.7319 214.047 38.8105 216.612 39.6798Z" fill="black"/>
<path d="M194.98 44.4375C197.089 44.816 197.089 44.816 197.575 45.3025C197.768 47.1299 197.868 48.6955 196.927 50.3036C196.713 50.5088 196.499 50.714 196.278 50.9254C194.602 50.5469 194.602 50.5469 194.115 50.0603C194.061 49.359 194.039 48.6551 194.034 47.9518C194.028 47.5693 194.022 47.1868 194.016 46.7927C194.115 45.7351 194.115 45.7351 194.98 44.4375Z" fill="black"/>
<path d="M211.854 44.8691C212.746 45.0584 212.746 45.0584 213.584 45.3017C213.941 46.9536 214.142 48.0016 213.53 49.5999C212.719 50.4919 212.719 50.4919 211.557 50.6271C211.227 50.5825 210.897 50.5379 210.557 50.4919C209.972 47.782 209.972 47.782 210.719 46.2208C211.422 45.3017 211.422 45.3017 211.854 44.8691Z" fill="black"/>
<path d="M204.498 46.166C205.36 46.2167 205.36 46.2167 206.228 46.5985C208.079 49.4168 209.144 53.2107 208.823 56.5466C208.152 57.6064 207.65 57.7997 206.471 58.2226C205.363 58.2767 205.363 58.2767 204.363 57.6549C204.122 57.4319 203.881 57.2089 203.633 56.9791C203.776 56.2654 203.918 55.5518 204.065 54.8165C204.636 54.8165 205.207 54.8165 205.795 54.8165C205.676 54.4719 205.556 54.1274 205.432 53.7724C205.276 53.314 205.119 52.8557 204.957 52.3835C204.724 51.7061 204.724 51.7061 204.486 51.015C204.08 49.6732 203.759 48.4281 203.633 47.0311C203.918 46.7456 204.204 46.4601 204.498 46.166Z" fill="black"/>
<path d="M318.686 60.4404C320.789 61.4528 321.94 62.7013 323.011 64.7656C323.566 66.6307 323.525 67.9431 322.984 69.8208C321.891 71.6899 320.65 72.8669 318.686 73.8486C316.556 74.0823 314.85 74.0841 312.901 73.1458C311.3 71.6971 310.193 70.5987 309.87 68.3897C309.79 66.4219 309.889 65.075 310.739 63.2788C313.151 60.6756 315.191 59.8826 318.686 60.4404Z" fill="black"/>
<path d="M204.958 62.4141C206.228 63.4684 206.228 63.4684 206.688 65.0363C206.661 66.4961 206.661 66.4961 205.796 67.3611C204.931 67.307 204.931 67.307 204.066 66.9286C203.525 66.0365 203.525 66.0365 203.201 65.1985C200.356 65.0383 200.356 65.0383 198.01 66.4961C197.037 66.3609 197.037 66.3609 196.28 66.0635C195.956 65.0903 195.956 65.0903 195.848 63.9009C197.987 61.1508 201.921 60.9427 204.958 62.4141Z" fill="black"/>
<path d="M291.086 86.9875C291.345 87.0767 291.604 87.1659 291.87 87.2578C292.141 88.5013 292.141 88.5013 292.303 89.853C291.438 90.718 291.438 90.718 290.357 90.8262C289.275 90.718 289.275 90.718 288.41 89.853C288.491 88.7717 288.491 88.7717 288.843 87.6904C290.14 86.8253 290.14 86.8253 291.086 86.9875Z" fill="black"/>
<path d="M194.174 10.4036C195.417 10.701 195.417 10.701 195.85 11.1335C196.763 11.1829 197.676 11.2292 198.59 11.2589C205.297 11.4785 210.614 12.8951 215.389 17.9322C217.264 20.2764 218.738 22.8554 219.206 25.8393C219.558 25.8505 219.91 25.8616 220.272 25.8731C225.64 26.1388 232.577 26.7174 236.809 30.3656C237.372 31.0296 237.372 31.0296 237.345 32.1109C236.858 33.4098 236.392 33.794 235.209 34.4898C234.038 34.8801 233.376 34.9736 232.177 34.9646C231.685 34.9625 231.685 34.9625 231.184 34.9603C230.674 34.9549 230.674 34.9549 230.154 34.9493C229.637 34.9464 229.637 34.9464 229.109 34.9434C228.259 34.9383 227.409 34.9306 226.559 34.9223C226.516 35.1732 226.474 35.4241 226.43 35.6826C225.96 38.142 225.345 40.0289 223.531 41.8427C223.483 42.6792 223.464 43.5173 223.455 44.3551C223.295 53.6509 222.954 63.7598 216.611 71.2543C215.762 71.9954 214.887 72.702 214.016 73.4169C214.425 73.4232 214.834 73.4295 215.256 73.436C216.81 73.4616 218.364 73.495 219.918 73.5304C220.584 73.5446 221.25 73.5568 221.916 73.5668C230.219 73.6943 238.275 74.6029 244.725 80.3373C244.976 80.543 245.227 80.7488 245.485 80.9608C254.205 88.7275 257.429 102.808 261.066 113.459C261.585 114.977 262.114 116.489 262.673 117.992C262.872 118.527 263.07 119.063 263.274 119.614C263.451 120.081 263.627 120.548 263.809 121.029C264.176 122.25 264.267 123.19 264.188 124.455C261.323 125.752 261.323 125.752 259.863 125.752C260.25 127.721 260.642 129.688 261.038 131.655C261.171 132.321 261.303 132.987 261.434 133.653C262.595 139.562 263.818 145.681 266.811 150.974C266.975 151.274 267.139 151.574 267.308 151.883C269.201 155.285 271.303 158.559 273.414 161.828C274.189 163.031 274.957 164.239 275.723 165.448C277.605 168.422 277.605 168.422 279.5 171.387C279.968 172.116 280.431 172.847 280.889 173.581C281.112 173.931 281.336 174.281 281.565 174.641C281.761 174.952 281.957 175.264 282.159 175.585C283.256 176.935 284.615 177.241 286.247 177.655C286.969 177.894 287.69 178.138 288.41 178.385C288.986 178.575 289.563 178.764 290.14 178.953C292.144 176.149 294.026 173.3 295.817 170.356C298.391 166.162 301.052 162.03 303.747 157.913C304.786 156.324 305.816 154.73 306.846 153.136C307.237 152.531 307.629 151.926 308.02 151.32C308.307 150.877 308.307 150.877 308.6 150.424C309.159 149.559 309.72 148.694 310.281 147.83C312.646 144.183 314.994 140.525 317.335 136.863C319.653 133.236 321.985 129.619 324.336 126.014C326.235 123.098 328.112 120.169 329.986 117.237C332.694 113.002 335.402 108.768 338.15 104.559C338.375 104.212 338.601 103.865 338.833 103.508C339.54 102.423 340.25 101.342 340.961 100.26C341.18 99.9245 341.398 99.5887 341.623 99.2426C341.829 98.9323 342.034 98.622 342.245 98.3023C342.426 98.0274 342.606 97.7526 342.792 97.4694C343.34 96.7732 343.34 96.7732 344.638 95.9082C345.888 95.7983 345.888 95.7983 347.432 95.7962C347.713 95.7947 347.994 95.7932 348.284 95.7916C349.214 95.7878 350.144 95.7904 351.073 95.7933C351.719 95.7927 352.365 95.7919 353.011 95.7908C354.364 95.7895 355.716 95.7913 357.069 95.7954C358.806 95.8003 360.542 95.7975 362.278 95.7923C363.611 95.7892 364.944 95.7902 366.277 95.7924C366.918 95.793 367.558 95.7923 368.198 95.7903C369.092 95.7881 369.985 95.7914 370.879 95.7962C371.388 95.7969 371.897 95.7976 372.421 95.7983C373.617 95.9082 373.617 95.9082 374.482 96.7732C374.57 97.8452 374.603 98.8693 374.599 99.942C374.602 100.272 374.604 100.603 374.606 100.943C374.612 102.056 374.613 103.169 374.613 104.282C374.616 105.078 374.62 105.874 374.624 106.669C374.632 108.385 374.637 110.101 374.64 111.817C374.645 114.528 374.656 117.239 374.668 119.95C374.686 124.237 374.7 128.523 374.712 132.81C374.734 140.49 374.761 148.169 374.793 155.849C374.803 158.546 374.812 161.244 374.818 163.941C374.823 165.617 374.829 167.292 374.835 168.967C374.838 169.747 374.84 170.526 374.841 171.305C374.843 172.366 374.847 173.426 374.852 174.486C374.852 174.798 374.851 175.11 374.851 175.431C374.84 177.029 374.84 177.029 375.347 178.52C375.79 178.531 376.233 178.542 376.69 178.553C378.329 178.594 379.968 178.637 381.606 178.681C382.316 178.7 383.027 178.718 383.737 178.735C384.756 178.76 385.775 178.788 386.794 178.816C387.113 178.823 387.432 178.83 387.762 178.838C390.003 178.903 390.004 178.903 390.485 179.385C390.528 180.02 390.541 180.657 390.541 181.294C390.543 181.902 390.543 181.902 390.545 182.523C390.545 182.964 390.544 183.405 390.543 183.859C390.543 184.309 390.544 184.758 390.544 185.222C390.544 186.174 390.543 187.127 390.542 188.079C390.539 189.543 390.542 191.007 390.544 192.471C390.544 193.394 390.544 194.317 390.543 195.24C390.544 195.681 390.544 196.122 390.545 196.577C390.544 196.982 390.543 197.388 390.541 197.806C390.541 198.344 390.541 198.344 390.54 198.893C390.485 199.714 390.485 199.714 390.053 200.146C388.932 200.216 387.821 200.259 386.699 200.283C386.196 200.297 386.196 200.297 385.683 200.31C384.607 200.339 383.532 200.364 382.457 200.39C381.729 200.408 381.002 200.427 380.275 200.446C378.488 200.493 376.701 200.536 374.914 200.579C374.916 200.889 374.918 201.2 374.92 201.52C374.938 204.447 374.951 207.374 374.959 210.302C374.964 211.807 374.97 213.312 374.98 214.817C374.991 216.547 374.995 218.278 374.999 220.009C375.003 220.548 375.008 221.088 375.012 221.644C375.013 222.398 375.013 222.398 375.013 223.166C375.015 223.608 375.016 224.05 375.018 224.505C374.913 225.683 374.654 226.39 374.049 227.395C370.739 227.406 367.428 227.414 364.118 227.419C362.991 227.421 361.864 227.424 360.737 227.428C359.12 227.433 357.504 227.436 355.887 227.438C355.38 227.44 354.874 227.442 354.352 227.444C353.885 227.444 353.417 227.444 352.935 227.444C352.316 227.446 352.316 227.446 351.684 227.447C350.693 227.395 350.693 227.395 349.828 226.963C349.378 225.612 349.328 224.634 349.307 223.215C349.298 222.706 349.289 222.197 349.28 221.672C349.273 221.137 349.266 220.602 349.259 220.051C349.251 219.559 349.243 219.067 349.234 218.56C349.205 216.721 349.179 214.881 349.152 213.041C349.09 208.929 349.027 204.816 348.963 200.579C332.406 200.579 315.849 200.579 298.79 200.579C300.218 202.863 301.645 205.146 303.115 207.499C304.665 211.63 304.665 211.63 303.981 213.555C303.034 214.798 303.034 214.798 301.818 215.717C300.385 215.852 300.385 215.852 299.223 215.717C299.107 216.056 298.991 216.395 298.871 216.744C298.358 217.88 298.358 217.88 297.06 218.745C294.596 218.947 293.174 218.749 291.005 217.447C290.791 217.661 290.577 217.876 290.356 218.096C288.786 219.038 287.563 219.12 285.815 218.745C277.407 215.415 271.399 207.71 267.649 199.714C266.587 197.144 265.6 194.489 265.349 191.71C264.962 189.729 264.14 188.741 262.891 187.171C262.787 187.512 262.683 187.853 262.576 188.204C258.686 200.814 253.552 211.767 244.292 221.34C243.958 221.692 243.623 222.044 243.279 222.406C242.962 222.732 242.645 223.058 242.319 223.395C242.029 223.693 241.74 223.991 241.442 224.298C240.4 225.233 240.4 225.233 239.267 225.826C237.813 226.639 237.027 227.314 236.074 228.693C235.341 231.842 235.836 235.252 236.049 238.442C236.1 239.452 236.149 240.463 236.195 241.474C236.301 243.656 236.42 245.836 236.549 248.017C236.755 251.479 236.93 254.942 237.099 258.406C237.158 259.602 237.217 260.797 237.276 261.992C237.291 262.292 237.305 262.592 237.321 262.9C237.428 265.065 237.539 267.23 237.653 269.395C238.329 282.366 238.827 295.342 239.301 308.322C239.42 311.57 239.542 314.818 239.667 318.066C239.762 320.523 239.856 322.98 239.947 325.437C240.001 326.861 240.055 328.285 240.111 329.709C240.171 331.256 240.228 332.803 240.284 334.349C240.303 334.805 240.321 335.26 240.34 335.729C240.355 336.142 240.369 336.556 240.384 336.982C240.398 337.341 240.411 337.699 240.425 338.068C240.4 338.987 240.4 338.987 239.967 340.284C238.927 340.804 238.259 340.76 237.102 340.744C236.748 340.74 236.395 340.736 236.03 340.732C235.624 340.724 235.624 340.724 235.209 340.717C237.43 344.772 241.807 346.493 245.833 348.394C246.3 348.617 246.766 348.84 247.246 349.069C250.957 350.821 254.72 352.425 258.541 353.92C265.171 356.571 265.171 356.571 266.38 358.912C267.487 360.018 268.386 359.952 269.903 359.963C270.27 359.957 270.638 359.95 271.016 359.944C271.404 359.944 271.793 359.945 272.193 359.945C273.478 359.944 274.762 359.93 276.047 359.917C276.938 359.913 277.828 359.911 278.718 359.909C281.063 359.903 283.407 359.886 285.751 359.866C288.143 359.849 290.535 359.841 292.927 359.832C297.621 359.814 302.314 359.784 307.008 359.748C307.154 359.305 307.3 358.862 307.45 358.405C307.644 357.817 307.839 357.229 308.034 356.64C308.129 356.349 308.225 356.058 308.323 355.758C309.073 353.496 309.924 351.325 310.955 349.178C311.117 348.837 311.28 348.496 311.447 348.144C313.073 344.84 315.085 341.852 317.26 338.888C318.18 337.632 319.08 336.362 319.984 335.094C320.698 335.237 321.411 335.379 322.147 335.526C322.257 341.793 322.045 347.903 321.281 354.125C321.512 353.696 321.743 353.266 321.981 352.824C325.178 346.959 328.744 341.649 333.392 336.824C333.599 336.606 333.806 336.388 334.019 336.163C337.675 332.323 341.512 328.96 345.935 326.011C347.098 326.173 347.098 326.173 348.098 326.443C347.876 328.871 346.933 330.599 345.773 332.688C344.035 335.901 342.395 339.148 340.826 342.447C340.634 342.849 340.443 343.251 340.245 343.666C338.94 346.418 337.673 349.186 336.42 351.962C336.599 351.776 336.777 351.59 336.961 351.398C341.828 346.418 347.358 342.645 353.721 339.852C354.117 339.676 354.514 339.5 354.922 339.319C356.114 338.907 356.849 339.077 358.046 339.419C357.874 341.585 356.731 342.737 355.316 344.258C352.085 347.862 348.973 351.942 346.8 356.287C347.28 356.016 347.759 355.746 348.253 355.466C348.886 355.109 349.519 354.752 350.152 354.395C350.468 354.217 350.784 354.038 351.109 353.855C351.415 353.682 351.722 353.509 352.038 353.331C352.319 353.172 352.6 353.014 352.889 352.85C354.589 351.919 355.634 351.42 357.613 351.53C358.046 353.26 358.046 353.26 354.586 360.18C365.862 360.18 377.138 360.18 388.755 360.18C388.898 360.894 389.041 361.608 389.188 362.343C388.755 362.775 388.755 362.775 387.925 362.829C387.557 362.829 387.189 362.829 386.811 362.829C386.388 362.829 385.965 362.83 385.53 362.831C384.825 362.829 384.825 362.829 384.105 362.827C383.611 362.828 383.116 362.828 382.606 362.828C381.226 362.829 379.846 362.828 378.466 362.826C376.981 362.824 375.495 362.824 374.009 362.825C371.433 362.825 368.857 362.823 366.281 362.821C362.556 362.818 358.832 362.816 355.107 362.816C349.065 362.815 343.023 362.812 336.98 362.808C331.109 362.804 325.238 362.801 319.367 362.799C319.006 362.799 318.644 362.799 318.271 362.799C316.457 362.798 314.643 362.798 312.829 362.797C297.769 362.793 282.709 362.785 267.649 362.775C267.649 363.346 267.649 363.917 267.649 364.505C265.84 365.38 264.219 365.496 262.245 365.489C261.926 365.491 261.606 365.494 261.276 365.496C260.216 365.502 259.155 365.502 258.094 365.501C257.341 365.502 256.589 365.504 255.836 365.506C254.248 365.509 252.66 365.509 251.073 365.507C249.479 365.505 247.886 365.508 246.293 365.516C234.424 365.575 222.299 365.599 210.555 363.64C210.413 363.498 210.27 363.355 210.123 363.208C208.912 363.162 207.713 363.144 206.502 363.145C206.122 363.144 205.742 363.142 205.351 363.141C204.088 363.136 202.825 363.136 201.562 363.135C200.686 363.134 199.811 363.132 198.935 363.131C197.096 363.128 195.256 363.127 193.417 363.128C191.061 363.128 188.705 363.122 186.35 363.114C184.539 363.11 182.729 363.109 180.918 363.109C180.05 363.108 179.182 363.107 178.314 363.103C177.097 363.099 175.881 363.1 174.664 363.103C174.127 363.099 174.127 363.099 173.579 363.095C171.597 363.106 170.04 363.343 168.168 364.073C166.493 364.378 164.804 364.554 163.113 364.749C162.678 364.803 162.243 364.857 161.794 364.913C155.091 365.707 148.363 365.877 141.619 365.859C140.532 365.857 139.445 365.859 138.358 365.862C129.515 365.867 129.515 365.867 126.646 365.37C126.36 365.085 126.075 364.8 125.781 364.505C125.781 363.934 125.781 363.364 125.781 362.775C86.8147 362.775 47.8486 362.775 7.70176 362.775C7.48766 361.705 7.48766 361.705 7.26924 360.613C8.11424 359.768 9.4033 360.128 10.5279 360.126C10.9348 360.128 11.3417 360.129 11.761 360.131C12.4002 360.131 12.4002 360.131 13.0524 360.131C14.4683 360.131 15.8842 360.135 17.3001 360.138C18.2789 360.139 19.2577 360.139 20.2365 360.14C22.8184 360.141 25.4002 360.146 27.9821 360.15C30.6145 360.155 33.2468 360.157 35.8792 360.159C41.0483 360.164 46.2175 360.171 51.3867 360.18C51.3855 359.812 51.3844 359.443 51.3832 359.064C51.3795 357.674 51.3768 356.284 51.3748 354.895C51.3737 354.298 51.3722 353.7 51.3703 353.103C51.3562 348.525 51.4728 343.983 51.8192 339.419C50.2481 340.266 48.6803 341.119 47.1149 341.977C46.5847 342.267 46.0538 342.555 45.522 342.841C41.1819 345.182 36.8182 347.686 33.464 351.368C32.3556 352.395 32.3556 352.395 31.2677 352.355C30.193 351.962 30.193 351.962 29.6176 351.182C29.4065 350.677 29.4065 350.677 29.1911 350.161C29.031 349.786 28.871 349.411 28.7061 349.024C28.4653 348.418 28.4653 348.418 28.2196 347.799C28.051 347.387 27.8824 346.975 27.7086 346.551C24.7876 339.257 23.1792 332.495 26.2986 324.972C28.1267 321.271 31.1933 318.56 35.091 317.196C38.0638 316.506 41.2882 316.505 44.1284 317.71C45.0769 318.344 45.6368 319.08 46.3315 319.983C47.5756 321.555 48.4656 321.973 50.4405 322.307C51.1884 322.389 51.9363 322.47 52.6842 322.551C52.9697 322.693 53.2552 322.836 53.5493 322.983C53.903 318.265 54.0485 313.549 54.0899 308.818C54.0991 308.302 54.1083 307.785 54.1178 307.253C54.1392 301.695 53.0745 296.786 50.5216 291.841C50.4318 292.145 50.3421 292.448 50.2496 292.761C48.7232 297.461 45.8581 300.829 41.4319 303.102C36.6303 305.014 31.3716 304.143 26.7328 302.222C23.2477 300.59 20.0392 298.662 16.8659 296.491C13.6928 294.352 11.075 292.738 7.14759 292.512C6.73368 292.488 6.31977 292.464 5.89331 292.44C4.04556 292.356 2.19821 292.304 0.348855 292.274C-0.167088 290.775 -0.0999852 290.154 0.47895 288.648C0.760062 288.104 1.05069 287.565 1.34907 287.03C1.50647 286.744 1.66387 286.459 1.82605 286.164C6.23292 278.476 14.024 273.523 22.4289 271.143C30.9962 268.856 40.792 268.678 48.8726 272.729C51.3596 274.236 53.1232 275.782 54.0088 278.595C53.9648 281.151 53.363 283.267 51.684 285.218C50.8083 286.176 50.8083 286.176 51.1163 287.408C51.7032 288.582 52.3155 289.556 53.0627 290.625C54.5474 292.757 55.3616 295.001 56.1444 297.464C56.6399 295.318 57.0902 293.174 57.4758 291.005C59.0389 282.258 60.7614 274.197 66.525 267.188C66.3427 266.895 66.1604 266.603 65.9725 266.302C65.7356 265.916 65.4986 265.531 65.2545 265.133C65.0186 264.752 64.7828 264.37 64.5398 263.977C63.467 262.016 63.3434 260.337 63.4973 258.105C64.3242 255.721 65.7181 254.233 67.8226 252.914C76.643 248.657 87.6417 249.097 96.8017 252.049C101.146 253.573 104.924 255.582 108.48 258.537C108.853 258.845 109.226 259.153 109.61 259.47C112.053 261.575 114.694 263.905 116.265 266.755C116.274 267.911 116.274 267.911 115.833 268.918C113.947 270.006 111.792 270.071 109.666 270.32C105.123 271.24 101.412 273.366 97.5045 275.784C90.0531 280.378 82.4697 284.789 73.4437 282.922C70.7647 282.002 68.8108 280.463 67.39 278.001C66.8037 276.292 66.4037 274.589 66.0925 272.81C60.4556 283.045 59.4966 295.965 58.307 307.412C58.4498 307.27 58.5925 307.127 58.7396 306.98C59.214 306.553 59.6921 306.13 60.1723 305.709C60.4293 305.482 60.6864 305.255 60.9512 305.022C62.6488 303.697 63.8261 303.414 65.9843 303.466C66.4103 303.473 66.8363 303.481 67.2752 303.489C67.7602 303.504 67.7602 303.504 68.2551 303.52C68.2908 303.02 68.3265 302.52 68.3632 302.006C68.7763 298.846 70.1023 296.505 72.6209 294.546C75.4612 292.678 78.3096 292.316 81.6633 292.706C89.19 294.273 94.7745 300.116 98.8933 306.309C104.44 315.204 107.257 324.93 107.263 335.391C107.269 335.873 107.274 336.355 107.279 336.852C107.28 337.317 107.281 337.782 107.282 338.262C107.284 338.681 107.285 339.101 107.287 339.533C107.173 340.82 106.923 341.739 106.317 342.879C105.02 343.312 105.02 343.312 104.095 342.923C103.731 342.712 103.367 342.502 102.992 342.285C102.361 341.926 102.361 341.926 101.717 341.56C101.236 341.281 100.756 341.003 100.262 340.717C92.1182 336.041 84.5649 332.889 75.2577 331.399C72.3121 330.914 69.6987 330.237 66.9575 329.038C62.2028 338.107 60.8273 348.395 60.1382 358.488C60.0371 359.315 60.0371 359.315 59.6046 360.18C68.0339 360.144 76.4631 360.103 84.8923 360.056C88.8061 360.034 92.7198 360.014 96.6335 359.998C100.044 359.983 103.455 359.966 106.866 359.945C108.672 359.934 110.479 359.925 112.285 359.919C113.985 359.914 115.685 359.904 117.384 359.892C118.009 359.888 118.633 359.885 119.257 359.884C120.109 359.883 120.96 359.876 121.812 359.868C122.289 359.866 122.766 359.863 123.257 359.861C124.818 359.717 125.775 359.354 126.843 358.206C127.037 357.953 127.23 357.7 127.43 357.44C128.731 355.866 130.086 354.881 131.836 353.855C132.271 353.591 132.271 353.591 132.714 353.321C134.549 352.213 136.402 351.134 138.251 350.048C138.894 349.67 138.894 349.67 139.55 349.285C140.397 348.787 141.247 348.293 142.098 347.801C142.683 347.46 142.683 347.46 143.279 347.112C143.627 346.91 143.975 346.709 144.333 346.502C146.006 345.409 146.691 344.49 147.272 342.582C147.38 342.232 147.489 341.883 147.601 341.523C147.68 341.257 147.758 340.991 147.839 340.717C147.433 340.732 147.433 340.732 147.018 340.747C146.488 340.759 146.488 340.759 145.947 340.771C145.596 340.781 145.245 340.791 144.883 340.801C143.947 340.717 143.947 340.717 143.082 339.852C143.058 338.509 143.096 337.216 143.174 335.878C143.196 335.443 143.219 335.008 143.242 334.56C143.606 327.781 144.085 321.007 144.549 314.233C144.689 312.19 144.827 310.147 144.966 308.104C145.2 304.661 145.434 301.218 145.669 297.775C145.966 293.438 146.26 289.101 146.555 284.764C148.489 256.262 148.489 256.262 149.258 245.62C149.279 245.328 149.3 245.036 149.321 244.735C149.53 241.839 149.741 238.943 149.956 236.047C150.021 235.16 150.085 234.272 150.15 233.385C150.18 232.997 150.209 232.61 150.239 232.211C150.771 228.354 150.771 228.354 149.86 224.848C149.586 224.654 149.312 224.459 149.029 224.26C135.014 213.255 128.407 195.65 126.087 178.448C125.724 175.348 125.7 172.247 125.701 169.129C125.7 168.227 125.692 167.325 125.684 166.422C125.669 162.747 125.96 159.216 126.646 155.596C126.235 155.588 125.825 155.579 125.402 155.569C122.003 155.074 119.046 152.232 116.951 149.656C113.371 144.542 111.78 138.374 110.845 132.278C110.79 131.924 110.735 131.569 110.678 131.204C110.117 127.474 109.76 123.733 109.436 119.976C109.371 119.248 109.306 118.52 109.241 117.792C109.106 116.282 108.974 114.771 108.842 113.261C108.676 111.346 108.506 109.431 108.335 107.517C108.169 105.66 108.005 103.802 107.841 101.945C107.811 101.602 107.78 101.26 107.749 100.907C107.661 99.9145 107.575 98.9224 107.489 97.9302C107.447 97.4601 107.447 97.4601 107.405 96.9804C107.27 95.3934 107.158 93.8085 107.08 92.2175C107.064 91.9019 107.048 91.5863 107.032 91.2611C106.99 90.3967 106.954 89.5321 106.919 88.6674C106.713 86.9541 106.3 86.0356 105.043 84.8754C103.504 83.7573 101.928 82.7042 100.328 81.6754C93.7649 77.3165 86.7741 70.952 84.691 63.0364C84.4688 61.1638 84.4806 60.3496 85.4749 58.7382C86.4211 57.8461 86.4211 57.8461 87.7187 57.8461C87.683 57.3911 87.6473 56.9362 87.6105 56.4674C87.7369 54.5397 88.0426 53.9509 89.4488 52.6558C90.3083 52.3514 91.1736 52.0627 92.0439 51.7907C92.3204 51.4964 92.597 51.202 92.8819 50.8987C93.774 50.0606 93.774 50.0606 95.1797 49.5741C98.2838 49.6775 99.9875 51.9239 102.048 54.0662C105.785 57.9426 110.024 60.8497 114.968 63.0364C115.253 63.0364 115.539 63.0364 115.833 63.0364C115.791 62.7804 115.75 62.5245 115.708 62.2609C115.207 58.6939 115.207 58.6939 116.265 56.981C117.049 56.17 117.049 56.17 117.995 55.6835C120.185 55.9014 120.983 56.7068 122.334 58.3513C126.874 64.882 129.344 71.4917 128.178 79.5398C128.032 80.304 127.875 81.0661 127.7 81.8241C127.188 84.8217 127.76 87.4429 128.484 90.3394C128.581 90.7379 128.678 91.1364 128.778 91.5469C129.54 94.6247 130.404 97.6561 131.404 100.666C131.525 100.425 131.647 100.184 131.772 99.9351C137.355 88.9091 143.358 78.3292 155.625 73.8495C162.806 71.742 170.08 72.4676 177.426 73.1849C177.89 73.2269 178.353 73.2689 178.831 73.3122C179.246 73.3529 179.66 73.3937 180.088 73.4357C181.257 73.51 181.257 73.51 182.441 72.5519C183.001 69.4087 182.355 66.5978 181.139 63.7054C180.734 62.6615 180.565 61.7602 180.414 60.6575C180.04 59.119 180.04 59.119 179.05 58.7804C178.373 58.6032 177.694 58.4299 177.015 58.26C174.487 57.274 172.962 54.7449 171.628 52.4936C170.853 49.6834 170.685 46.9339 171.953 44.2486C172.693 42.9699 173.492 41.9085 174.656 40.9777C174.941 40.9777 175.227 40.9777 175.521 40.9777C175.512 40.6818 175.503 40.386 175.494 40.0811C175.264 31.4318 175.524 24.3857 181.711 17.7025C183.872 15.6827 186.462 13.9367 189.362 13.2421C190.703 13.007 190.703 13.007 191.2 11.9986C191.361 11.5704 191.361 11.5704 191.524 11.1335C192.822 10.2685 192.822 10.2685 194.174 10.4036ZM182.441 21.0816C179.1 25.2112 178.027 30.6017 178.116 35.7874C178.545 35.5677 178.975 35.348 179.417 35.1217C191.382 29.0383 202.754 25.8428 216.178 25.4068C215.012 21.5644 212.555 18.6111 209.258 16.3238C200.609 12.0253 189.049 13.8581 182.441 21.0816ZM187.632 33.6247C187.632 33.7675 187.632 33.9102 187.632 34.0573C196.115 35.6382 205.385 34.4481 213.877 33.2936C214.734 33.1781 215.591 33.0633 216.449 32.9489C216.871 32.8925 217.294 32.8362 217.729 32.7781C222.958 32.1221 228.215 32.0055 233.479 31.8947C233.105 30.8997 233.105 30.8997 231.877 30.5971C231.118 30.383 231.118 30.383 230.343 30.1646C229.85 30.0218 229.358 29.8791 228.85 29.732C223.879 28.5017 218.946 28.2432 213.853 28.2452C213.512 28.2449 213.171 28.2446 212.819 28.2443C203.816 28.2662 195.956 30.2542 187.632 33.6247ZM215.43 35.2856C205.878 36.7111 196.415 37.0014 186.767 37.0849C186.662 37.5332 186.557 37.9815 186.449 38.4433C186.303 39.0359 186.156 39.6283 186.01 40.2207C185.908 40.6632 185.908 40.6632 185.804 41.1145C185.337 42.963 184.861 44.1594 183.306 45.3029C180.657 45.3529 179.239 44.2904 177.251 42.7077C175.334 44.125 174.223 45.0172 173.791 47.4655C173.845 50.8451 175.109 53.0422 177.413 55.4672C178.862 56.2952 179.933 56.147 181.576 56.116C182.554 57.5824 182.85 58.7888 183.279 60.4953C183.752 62.358 184.247 64.1839 184.928 65.9829C185.809 68.5478 185.871 71.0335 184.928 73.5791C184.171 74.7145 184.171 74.7145 183.198 75.5525C182.297 76.4285 182.297 76.4285 182.387 77.8503C183.353 81.0698 185.721 83.6701 188.497 85.5276C193.227 87.9821 197.983 89.0225 203.26 87.8119C206.459 86.5987 208.789 84.8885 210.229 81.7194C210.766 80.1554 211.091 78.5346 210.988 76.8771C210.702 76.5917 210.417 76.3062 210.123 76.0121C208.741 76.1425 207.417 76.3729 206.063 76.6744C204.874 76.8877 203.761 76.9497 202.554 76.9582C202.157 76.9644 201.76 76.9705 201.351 76.9768C200.09 76.87 199.157 76.5367 198.012 76.0121C198.012 75.4411 198.012 74.8702 198.012 74.282C198.545 74.3071 199.078 74.3322 199.627 74.358C204.883 74.5319 208.985 74.1308 213.286 70.7948C219.005 65.2893 220.417 56.9179 220.585 49.3291C220.597 48.2574 220.606 47.1856 220.612 46.1139C220.616 45.6037 220.62 45.0935 220.624 44.5678C220.612 41.2718 220.287 38.1538 219.638 34.9223C218.157 34.9223 216.885 35.0548 215.43 35.2856ZM94.639 52.6558C95.2835 54.7699 96.4932 56.0247 97.9911 57.5758C98.4605 58.0739 98.9297 58.5723 99.3985 59.071C99.6227 59.3077 99.8469 59.5445 100.078 59.7884C103.339 63.2417 103.339 63.2417 103.722 65.199C101.219 64.3073 99.8219 63.2219 98.0992 61.2252C97.8769 60.9758 97.6546 60.7265 97.4255 60.4696C96.78 59.7436 96.1415 59.0118 95.5041 58.2786C95.1718 57.9028 94.8395 57.527 94.4971 57.1398C93.8185 56.3702 93.1446 55.5971 92.4764 54.8184C91.9055 54.9611 91.3346 55.1039 90.7463 55.2509C90.4316 56.0374 90.4316 56.0374 90.3138 56.981C90.6893 57.7794 90.6893 57.7794 91.341 58.5219C91.5813 58.8207 91.8217 59.1196 92.0692 59.4275C92.3463 59.762 92.6234 60.0966 92.9089 60.4412C93.2173 60.8293 93.5256 61.2173 93.8433 61.6171C94.812 62.8268 95.8003 64.0162 96.8017 65.199C97.1454 65.6146 97.1454 65.6146 97.4961 66.0387C99.9173 68.7213 103.209 70.3547 106.317 72.1194C107.282 72.6674 108.246 73.2171 109.21 73.7684C109.613 73.9942 110.016 74.22 110.431 74.4526C111.549 75.174 112.397 75.8441 113.238 76.8771C113.238 77.4481 113.238 78.019 113.238 78.6072C111.791 78.1552 110.752 77.5182 109.588 76.5798C108.046 75.3772 106.461 74.5516 104.695 73.7143C99.0304 70.98 95.265 67.2228 91.4833 62.3077C90.3785 60.8078 90.3785 60.8078 88.6648 60.279C88.3526 60.3325 88.0403 60.3861 87.7187 60.4412C87.0609 62.3535 87.631 63.5037 88.4063 65.2987C91.8157 71.9947 97.6007 76.5788 103.636 80.7665C108.446 84.1519 108.446 84.1519 109.345 86.3926C109.499 87.5295 109.613 88.6365 109.694 89.7786C109.72 90.1187 109.747 90.4588 109.775 90.8091C109.833 91.5484 109.889 92.2878 109.944 93.0273C110.032 94.21 110.125 95.3924 110.218 96.5747C110.451 99.5206 110.676 102.467 110.901 105.413C111.374 130.315 111.374 130.315 122.321 151.271C125.736 153.542 129.4 153.905 133.389 153.25C139.041 151.794 143.32 147.486 146.217 142.594C146.514 142.102 146.514 142.102 146.816 141.599C151.192 135.073 151.192 135.073 153.462 127.915C151.138 126.742 148.814 125.572 146.488 124.404C145.696 124.006 144.905 123.607 144.114 123.208C142.979 122.635 141.843 122.065 140.706 121.495C140.351 121.315 139.996 121.135 139.63 120.95C139.137 120.703 139.137 120.703 138.633 120.451C138.343 120.305 138.053 120.159 137.754 120.009C137.026 119.64 137.026 119.64 136.161 119.697C136.341 120.44 136.341 120.44 136.525 121.199C136.683 121.861 136.841 122.522 136.999 123.184C137.118 123.672 137.118 123.672 137.238 124.17C137.706 126.135 138.071 128.074 138.324 130.078C137.61 130.078 136.897 130.078 136.161 130.078C136.076 129.694 135.991 129.311 135.904 128.916C134.53 122.852 132.871 116.865 131.23 110.869C127.695 97.939 127.695 97.939 126.239 92.4581C126.152 92.1371 126.066 91.8161 125.978 91.4853C124.919 87.4727 124.42 83.5864 125.348 79.4993C126.848 72.6077 124.674 67.1125 121.033 61.357C120.458 60.4715 119.878 59.5894 119.293 58.7111C119.007 58.7111 118.722 58.7111 118.428 58.7111C118.379 61.3391 118.561 63.886 118.86 66.4965C116.837 67.1661 115.491 66.3378 113.67 65.4423C113.343 65.2839 113.015 65.1255 112.678 64.9623C106.796 62.0512 101.994 58.146 97.6177 53.2759C96.5732 52.4822 95.9196 52.5346 94.639 52.6558ZM144.832 84.0661C140.8 88.7521 137.86 94.0558 135.029 99.528C134.627 100.293 134.208 101.05 133.774 101.797C132.437 104.148 132.437 104.148 132.39 106.775C132.55 107.339 132.726 107.898 132.917 108.451C133.039 108.863 133.039 108.863 133.164 109.283C133.331 109.839 133.509 110.391 133.698 110.94C133.999 111.912 133.999 111.912 134.188 112.944C134.537 114.606 134.846 115.841 136.149 116.986C137.269 117.648 138.401 118.203 139.586 118.741C140.007 118.946 140.427 119.151 140.861 119.362C142.198 120.011 143.545 120.638 144.893 121.265C145.804 121.702 146.715 122.141 147.626 122.581C149.852 123.654 152.086 124.71 154.327 125.752C157.248 122.987 157.384 119.571 157.571 115.76C157.607 115.087 157.643 114.413 157.679 113.74C157.734 112.687 157.788 111.634 157.842 110.582C157.894 109.56 157.949 108.537 158.004 107.515C158.019 107.201 158.034 106.887 158.05 106.564C158.128 105.128 158.225 103.773 158.653 102.396C159.223 102.539 159.794 102.681 160.383 102.829C160.118 110.306 159.772 117.775 159.355 125.245C159.299 126.273 159.242 127.301 159.186 128.329C159.039 131.002 158.891 133.674 158.743 136.347C158.505 140.627 158.269 144.908 158.034 149.189C157.952 150.662 157.871 152.135 157.789 153.608C157.465 159.46 157.177 165.312 156.922 171.167C157.57 171.327 158.217 171.487 158.864 171.647C159.225 171.736 159.585 171.825 159.957 171.917C179.01 176.596 213.521 181.579 231.749 172.465C231.762 172.159 231.775 171.853 231.788 171.539C232.105 164.072 232.423 156.605 232.742 149.138C232.896 145.527 233.05 141.916 233.203 138.305C233.336 135.154 233.471 132.004 233.605 128.854C233.677 127.188 233.747 125.523 233.818 123.857C233.884 122.284 233.952 120.711 234.019 119.137C234.055 118.297 234.09 117.456 234.126 116.615C234.293 112.737 234.523 108.865 234.777 104.991C235.348 104.848 235.919 104.706 236.507 104.559C236.581 113.219 236.368 121.856 236.074 130.51C238.89 129.672 241.706 128.833 244.522 127.994C245.478 127.709 246.435 127.425 247.391 127.14C248.772 126.729 250.153 126.317 251.534 125.906C251.956 125.78 252.378 125.655 252.813 125.525C253.619 125.285 254.424 125.044 255.229 124.802C256.035 124.564 256.843 124.332 257.652 124.106C258.045 123.995 258.438 123.884 258.843 123.769C259.195 123.672 259.548 123.575 259.911 123.474C260.813 123.229 260.813 123.229 261.161 122.292C260.813 121.062 260.433 119.87 260.015 118.663C259.891 118.296 259.766 117.929 259.638 117.551C259.23 116.355 258.817 115.16 258.403 113.966C258.264 113.561 258.125 113.157 257.981 112.74C255.92 106.759 253.823 100.811 251.213 95.0431C251.067 94.719 250.921 94.3948 250.771 94.0609C247.629 87.1727 243.349 81.0516 236.074 78.1747C230.747 76.3269 225.356 76.3822 219.774 76.4176C219.17 76.4197 218.567 76.4217 217.963 76.4235C216.503 76.4285 215.043 76.4356 213.583 76.4446C213.533 76.8232 213.484 77.2018 213.433 77.5919C213.363 78.0925 213.292 78.5932 213.22 79.109C213.152 79.6036 213.085 80.0982 213.015 80.6077C212.378 83.7335 210.828 86.0488 208.231 87.8794C203.935 90.4351 199.316 91.3847 194.392 90.4374C189.463 89.1743 184.822 86.9102 182.009 82.4999C181.803 81.9596 181.608 81.4151 181.421 80.8678C180.428 78.1512 180.428 78.1512 178.549 76.0121C175.25 74.8812 171.612 75.0885 168.168 75.147C167.409 75.1363 166.65 75.125 165.891 75.1132C157.879 75.1268 150.358 78.2417 144.832 84.0661ZM348.963 126.617C345.954 130.286 343.54 134.43 341.032 138.445C336.094 146.325 331.034 154.125 325.935 161.902C324.701 163.784 323.468 165.667 322.235 167.55C321.641 168.456 321.047 169.362 320.453 170.267C319.773 171.305 319.094 172.344 318.416 173.384C318.129 173.821 318.129 173.821 317.836 174.267C317.104 175.392 316.518 176.376 316.091 177.655C316.377 178.083 316.662 178.512 316.956 178.953C318.314 179.149 318.314 179.149 319.939 179.114C320.399 179.116 320.399 179.116 320.869 179.119C321.885 179.122 322.901 179.116 323.917 179.11C324.622 179.11 325.326 179.11 326.031 179.111C327.509 179.11 328.986 179.106 330.464 179.098C332.361 179.088 334.257 179.088 336.154 179.091C337.609 179.092 339.064 179.09 340.52 179.085C341.219 179.084 341.919 179.083 342.618 179.084C343.595 179.084 344.571 179.079 345.548 179.072C346.104 179.07 346.66 179.068 347.234 179.065C348.58 179.088 348.58 179.088 349.396 178.088C349.525 177.14 349.525 177.14 349.5 176.03C349.501 175.595 349.502 175.161 349.503 174.714C349.5 174.236 349.497 173.757 349.494 173.265C349.494 172.763 349.494 172.26 349.494 171.743C349.494 170.077 349.487 168.41 349.48 166.744C349.478 165.591 349.477 164.439 349.476 163.286C349.474 160.558 349.467 157.83 349.458 155.101C349.448 151.996 349.443 148.89 349.439 145.785C349.43 139.396 349.415 133.006 349.396 126.617C349.253 126.617 349.11 126.617 348.963 126.617ZM254.09 127.559C253.712 127.67 253.334 127.782 252.944 127.896C252.537 128.018 252.13 128.139 251.711 128.265C251.293 128.388 250.874 128.512 250.443 128.64C249.558 128.902 248.673 129.165 247.789 129.428C246.432 129.833 245.075 130.235 243.717 130.636C242.858 130.891 242 131.145 241.141 131.4C240.53 131.582 240.53 131.582 239.906 131.766C239.529 131.879 239.152 131.991 238.764 132.107C238.266 132.256 238.266 132.256 237.757 132.407C236.914 132.658 236.914 132.658 236.074 133.105C236.006 135.233 236.21 137.029 236.755 139.085C236.827 139.356 236.899 139.627 236.972 139.907C237.124 140.478 237.278 141.049 237.434 141.62C237.666 142.475 237.891 143.331 238.114 144.188C241.569 157.181 250.606 167.28 258.782 177.655C259.165 178.143 259.548 178.632 259.931 179.12C260.581 179.949 261.234 180.774 261.892 181.596C262.663 182.558 263.426 183.526 264.188 184.494C264.427 184.789 264.666 185.084 264.912 185.387C266.53 187.458 267.399 189.399 268.081 191.928C268.218 192.4 268.354 192.871 268.495 193.356C268.617 193.786 268.739 194.216 268.865 194.659C271.728 203.925 277.481 211.069 285.88 215.81C286.982 216.278 287.714 216.031 288.842 215.717C288.159 214.019 287.051 213.017 285.733 211.77C280.303 206.493 280.303 206.493 279.759 202.742C280.898 202.901 281.391 203.067 282.182 203.925C282.407 204.245 282.632 204.565 282.865 204.894C284.552 207.167 286.455 209.133 288.464 211.122C288.803 211.465 289.143 211.807 289.493 212.161C289.823 212.49 290.154 212.82 290.495 213.159C290.79 213.454 291.086 213.748 291.39 214.052C292.367 214.908 293.309 215.558 294.465 216.15C295.651 216.058 295.651 216.058 296.628 215.717C296.388 214.127 295.995 213.075 295.075 211.759C294.845 211.426 294.614 211.092 294.377 210.749C294.129 210.399 293.882 210.049 293.627 209.689C293.376 209.327 293.125 208.966 292.866 208.593C291.674 206.882 290.466 205.183 289.238 203.497C289.037 203.221 288.837 202.945 288.631 202.661C288.257 202.149 287.88 201.639 287.5 201.132C286.247 199.423 286.247 199.423 286.247 197.984C288.299 198.589 289.143 199.562 290.41 201.255C290.592 201.497 290.774 201.739 290.962 201.989C292.726 204.375 294.33 206.867 295.906 209.381C296.189 209.829 296.189 209.829 296.477 210.287C296.642 210.553 296.807 210.818 296.977 211.091C297.526 211.872 298.062 212.505 298.79 213.122C299.926 213.231 299.926 213.231 300.953 213.122C301.534 212.433 301.534 212.433 301.818 211.392C300.782 208.008 298.485 205.074 296.521 202.167C293.796 198.092 291.228 193.847 290.572 188.901C292.147 188.376 292.493 188.613 293.978 189.252C294.343 189.407 294.708 189.561 295.083 189.72C295.831 190.042 296.578 190.364 297.325 190.687C298.578 191.144 299.63 191.125 300.953 191.063C301.096 190.492 301.238 189.922 301.385 189.333C301.128 189.174 300.871 189.015 300.607 188.851C299.424 188.12 298.242 187.389 297.06 186.657C296.656 186.407 296.252 186.157 295.835 185.899C295.437 185.653 295.038 185.406 294.627 185.152C294.23 184.907 293.834 184.663 293.425 184.411C292.732 183.979 292.043 183.538 291.363 183.086C289.646 181.951 288.052 181.214 286.077 180.634C282.393 179.552 280.392 178.481 278.462 175.06C278.109 174.484 277.754 173.91 277.397 173.337C276.573 172.006 275.76 170.669 274.954 169.327C273.788 167.397 272.564 165.509 271.325 163.625C269.62 161.018 267.997 158.371 266.432 155.678C266.152 155.198 266.152 155.198 265.866 154.708C265.294 153.713 264.739 152.71 264.188 151.704C263.97 151.315 263.752 150.926 263.527 150.526C261.724 147.156 260.795 143.832 259.998 140.107C259.876 139.566 259.755 139.024 259.629 138.467C258.783 134.673 258.017 130.864 257.268 127.05C256.041 127.05 255.252 127.215 254.09 127.559ZM156.057 128.78C155.894 129.115 155.731 129.45 155.563 129.796C154.804 131.351 154.04 132.905 153.273 134.457C153.135 134.737 152.997 135.017 152.855 135.305C151.338 138.376 149.809 141.34 147.812 144.135C143.284 150.801 142.904 160.607 142.947 168.383C142.947 168.683 142.948 168.984 142.949 169.293C143.004 181.783 145.909 192.791 152.165 203.607C153.167 202.103 153.212 201.288 153.366 199.502C153.392 199.219 153.417 198.936 153.443 198.644C153.526 197.711 153.604 196.777 153.682 195.843C153.739 195.195 153.795 194.547 153.853 193.9C154.002 192.195 154.148 190.491 154.292 188.786C154.44 187.047 154.593 185.307 154.745 183.568C155.042 180.155 155.335 176.743 155.625 173.33C155.339 173.187 155.054 173.044 154.76 172.897C154.713 168.729 154.815 164.596 155.08 160.435C155.14 159.489 155.198 158.543 155.255 157.598C155.396 155.25 155.542 152.903 155.688 150.556C155.832 148.246 155.973 145.936 156.111 143.626C156.13 143.31 156.149 142.995 156.169 142.67C156.442 138.037 156.61 133.421 156.49 128.78C156.347 128.78 156.204 128.78 156.057 128.78ZM235.209 144.783C235.199 145.043 235.19 145.303 235.179 145.571C235.075 148.316 234.969 151.06 234.863 153.804C234.824 154.824 234.785 155.843 234.746 156.863C234.375 166.632 234.375 166.632 234.126 171.21C234.111 171.512 234.096 171.815 234.08 172.127C233.963 174.144 233.963 174.144 233.479 174.627C233.427 175.891 233.408 177.14 233.412 178.404C233.412 178.804 233.413 179.204 233.414 179.617C233.455 185.215 233.807 190.801 234.128 196.389C234.191 197.514 234.253 198.64 234.315 199.765C234.467 202.488 234.621 205.21 234.777 207.932C242.724 198.175 245.564 186.364 246.769 174.101C246.843 173.35 246.923 172.599 247.011 171.849C247.353 168.821 247.409 166.357 245.513 163.789C244.745 162.843 243.947 161.928 243.137 161.019C239.877 157.25 238.412 153.058 237.051 148.352C236.877 147.753 236.877 147.753 236.699 147.142C236.599 146.781 236.499 146.421 236.396 146.049C236.149 145.132 236.149 145.132 235.209 144.783ZM158.22 174.195C157.6 176.055 157.509 177.926 157.328 179.872C157.289 180.267 157.249 180.661 157.209 181.068C156.974 183.547 156.884 185.978 156.922 188.468C161.68 187.753 166.113 184.864 169.033 181.115C170.321 179.096 170.321 179.096 170.763 176.79C166.604 175.786 162.429 174.957 158.22 174.195ZM227.704 175.871C227.336 175.949 226.968 176.027 226.589 176.108C226.204 176.19 225.82 176.273 225.423 176.358C225.035 176.44 224.647 176.523 224.247 176.608C223.288 176.812 222.328 177.017 221.368 177.223C222.546 181.555 224.751 185.072 228.667 187.441C229.971 188.123 229.971 188.123 231.317 188.036C231.256 186.351 231.192 184.666 231.127 182.981C231.11 182.504 231.093 182.027 231.076 181.535C231.058 181.074 231.04 180.612 231.021 180.137C231.005 179.714 230.989 179.29 230.973 178.854C230.887 177.701 230.704 176.619 230.452 175.493C229.482 175.493 228.653 175.669 227.704 175.871ZM173.358 177.223C173.175 177.625 172.991 178.027 172.802 178.441C169.852 184.735 166.069 187.744 159.585 190.278C159.286 190.396 158.988 190.514 158.68 190.635C157.95 190.924 157.22 191.21 156.49 191.496C153.597 217.728 151.961 244.091 150.271 270.422C150.145 272.387 150.019 274.353 149.892 276.318C149.861 276.803 149.83 277.287 149.798 277.787C149.341 284.899 148.864 292.01 148.368 299.12C148.338 299.561 148.307 300.003 148.275 300.458C147.984 304.641 147.69 308.823 147.393 313.006C147.287 314.505 147.182 316.004 147.077 317.503C147.029 318.189 146.98 318.875 146.93 319.56C146.863 320.496 146.797 321.432 146.732 322.367C146.695 322.887 146.658 323.406 146.62 323.941C146.525 325.926 146.542 327.916 146.542 329.904C155.962 329.904 165.383 329.904 175.088 329.904C175.766 325.497 176.444 321.09 177.143 316.549C179.542 301.072 182.061 285.615 184.604 270.161C184.745 269.302 184.887 268.443 185.028 267.584C185.122 267.012 185.216 266.441 185.31 265.869C185.82 262.766 186.331 259.663 186.841 256.56C186.931 256.011 187.021 255.463 187.114 254.897C188.73 245.071 190.326 235.242 191.898 225.41C192.064 224.374 192.23 223.338 192.396 222.302C192.649 220.726 192.901 219.15 193.152 217.573C193.284 216.745 193.416 215.917 193.549 215.089C193.625 214.608 193.702 214.126 193.78 213.631C193.846 213.215 193.913 212.8 193.981 212.372C194.14 211.414 194.14 211.414 194.119 210.527C195.29 210.308 196.462 210.092 197.634 209.878C197.963 209.816 198.292 209.754 198.631 209.691C200.469 209.358 202.19 209.157 204.068 209.229C204.068 209.8 204.068 210.371 204.068 210.959C201.641 211.53 199.215 212.101 196.715 212.69C197.005 218.436 197.527 224.133 198.127 229.854C198.228 230.825 198.328 231.796 198.428 232.766C198.644 234.851 198.86 236.935 199.077 239.019C199.633 244.357 200.184 249.695 200.734 255.033C200.826 255.923 200.918 256.812 201.009 257.701C201.995 267.258 202.962 276.817 203.917 286.377C203.949 286.7 203.982 287.023 204.015 287.356C204.649 293.703 205.281 300.051 205.913 306.398C206.177 309.052 206.441 311.707 206.706 314.361C206.866 315.975 207.026 317.589 207.187 319.204C207.283 320.177 207.38 321.151 207.477 322.125C207.52 322.558 207.563 322.992 207.607 323.439C207.648 323.844 207.688 324.249 207.73 324.666C207.764 325.011 207.798 325.357 207.834 325.713C208.002 327.256 208.2 328.796 208.393 330.336C217.813 330.336 227.234 330.336 236.939 330.336C236.946 320.858 236.946 320.858 236.696 311.395C236.669 310.699 236.643 310.004 236.617 309.309C236.546 307.451 236.473 305.593 236.399 303.735C236.32 301.742 236.244 299.748 236.167 297.755C236.019 293.927 235.869 290.099 235.717 286.271C235.595 283.196 235.474 280.12 235.354 277.045C234.526 255.932 233.671 234.822 232.668 213.717C232.646 213.243 232.623 212.77 232.6 212.282C232.474 209.619 232.347 206.955 232.216 204.292C232.178 203.517 232.141 202.742 232.103 201.967C231.997 199.774 231.88 197.581 231.749 195.389C231.711 194.695 231.711 194.695 231.671 193.988C231.643 193.597 231.614 193.206 231.585 192.803C231.552 192.322 231.552 192.322 231.518 191.831C231.355 190.891 231.355 190.891 230.071 190.116C229.546 189.92 229.02 189.724 228.478 189.523C223.858 187.578 221.586 184.377 219.638 179.818C219.349 179.097 219.061 178.376 218.773 177.655C214.758 177.625 210.756 177.715 206.744 177.871C206.192 177.892 205.639 177.913 205.07 177.934C203.727 177.984 202.383 178.036 201.04 178.088C200.507 179.76 200.518 181.443 200.486 183.18C200.478 183.509 200.47 183.838 200.462 184.176C200.436 185.228 200.413 186.281 200.391 187.333C200.289 192.05 200.135 196.74 199.742 201.444C199.171 201.444 198.6 201.444 198.012 201.444C198.012 193.736 198.012 186.029 198.012 178.088C195.042 177.994 195.042 177.994 192.011 177.898C185.792 177.7 179.575 177.472 173.358 177.223ZM191.957 239.074C190.625 247.311 189.293 255.549 187.962 263.787C187.844 264.519 187.844 264.519 187.723 265.265C187.4 267.268 187.076 269.272 186.752 271.275C185.798 277.18 184.844 283.085 183.889 288.989C183.307 292.586 182.725 296.183 182.144 299.78C181.804 301.885 181.464 303.99 181.123 306.095C179.806 314.225 178.5 322.356 177.24 330.495C177.125 331.243 177.009 331.991 176.892 332.739C176.733 333.766 176.574 334.793 176.417 335.82C176.369 336.123 176.322 336.427 176.273 336.74C176.091 337.938 175.953 339.07 175.953 340.284C174.383 340.427 172.813 340.57 171.196 340.717C171.481 347.14 171.767 353.563 172.061 360.18C184.479 360.18 196.896 360.18 209.69 360.18C209.976 355.898 210.261 351.616 210.555 347.204C211.103 342.643 211.103 342.643 211.42 340.717C211.144 340.69 210.868 340.664 210.584 340.637C210.227 340.601 209.869 340.565 209.501 340.527C208.967 340.475 208.967 340.475 208.422 340.421C207.528 340.284 207.528 340.284 207.095 339.852C206.936 338.673 206.804 337.501 206.686 336.318C206.647 335.94 206.608 335.562 206.568 335.172C206.435 333.885 206.306 332.598 206.176 331.311C206.081 330.384 205.986 329.457 205.891 328.53C205.626 325.942 205.364 323.353 205.102 320.765C204.93 319.062 204.757 317.36 204.584 315.658C203.953 309.452 203.323 303.247 202.696 297.041C202.663 296.72 202.631 296.399 202.597 296.068C202.267 292.804 201.937 289.54 201.608 286.277C201.185 282.089 200.761 277.902 200.337 273.714C200.306 273.404 200.274 273.093 200.242 272.773C199.103 261.536 197.928 250.303 196.715 239.074C195.145 239.074 193.575 239.074 191.957 239.074ZM66.9575 256.807C66.0338 258.193 65.9797 258.412 66.1465 259.97C66.1744 260.289 66.2023 260.609 66.231 260.938C66.6271 262.365 67.3966 263.398 68.2551 264.592C68.6532 264.394 69.0513 264.195 69.4614 263.991C75.2499 261.163 80.9208 259.326 87.4213 259.321C87.7689 259.316 88.1166 259.31 88.4747 259.305C90.9222 259.299 93.1396 259.641 95.5041 260.267C95.7182 261.124 95.7182 261.124 95.9366 261.997C95.5959 261.966 95.2553 261.935 94.9043 261.903C86.9311 261.223 78.2959 261.1 71.4044 265.833C69.4161 267.691 69.0606 270.496 68.9579 273.135C69.0618 275.592 69.8754 277.038 71.6342 278.758C74.5379 280.807 77.3323 280.912 80.7983 280.596C87.2986 279.411 93.2294 275.454 98.748 271.999C103.33 269.147 107.426 267.838 112.805 267.188C108.591 260.042 100.863 255.968 93.1117 253.781C85.1096 251.898 73.7993 251.226 66.9575 256.807ZM7.26924 283.191C4.73582 286.13 4.73582 286.13 3.37652 289.679C3.81587 289.685 4.25522 289.691 4.70788 289.697C11.2718 289.88 15.5152 292.213 20.9191 295.814C25.9384 299.137 31.3314 302.09 37.5459 301.357C41.0945 300.497 43.9179 299.11 45.9953 296.055C47.3847 293.586 48.0637 291.206 47.4939 288.381C46.4657 286.031 44.9404 285.462 42.6493 284.537C35.2801 281.675 27.3848 281.517 19.7415 283.34C18.5149 283.623 18.5149 283.623 17.2173 283.623C17.2173 283.053 17.2173 282.482 17.2173 281.893C26.8697 278.627 36.7724 279.486 45.9852 283.602C46.9231 283.998 47.7985 284.277 48.7915 284.489C50.2406 282.798 51.4172 281.384 51.3596 279.082C50.3765 276.46 48.0766 275.285 45.6608 274.167C32.9374 268.93 16.5814 273.464 7.26924 283.191ZM72.8777 298.059C71.3431 300.007 70.8091 301.474 70.8502 303.952C71.342 304.157 71.8337 304.361 72.3404 304.572C81.7166 308.553 90.3378 314.235 95.9366 322.983C95.9366 323.411 95.9366 323.84 95.9366 324.281C94.6581 324.14 93.965 324.045 93.0526 323.106C92.8357 322.789 92.6188 322.472 92.3953 322.145C87.2442 315.14 78.2784 308.045 69.5527 306.115C67.2085 305.774 65.0264 305.554 62.8654 306.659C60.293 308.715 58.9483 311.335 58.5503 314.576C59.1166 319.025 61.4876 321.822 64.8828 324.639C68.8927 327.495 73.4267 328.414 78.2031 329.174C86.498 330.618 93.3778 333.607 100.694 337.689C101.423 338.093 102.152 338.498 102.881 338.902C103.45 339.218 104.018 339.535 104.587 339.852C104.977 325.329 101.781 312.431 91.5929 301.598C88.1397 298.052 84.3599 295.38 79.2844 295.166C76.5989 295.249 74.6831 296.057 72.8777 298.059ZM56.5769 318.658C56.5729 319.05 56.5689 319.442 56.5647 319.846C56.5455 321.326 56.5187 322.806 56.4872 324.286C56.4751 324.922 56.4659 325.558 56.4597 326.194C56.4282 329.273 56.3966 332.151 55.2794 335.067C54.0078 338.427 54.1217 341.819 54.0899 345.366C54.0777 346.034 54.0648 346.702 54.0511 347.37C53.9705 351.64 53.9687 355.91 53.9818 360.18C54.9809 360.18 55.9801 360.18 57.0095 360.18C57.0483 359.802 57.0871 359.424 57.1271 359.035C58.2904 347.979 60.2248 337.689 64.3624 327.308C64.0752 327.062 63.7881 326.817 63.4923 326.563C60.7959 324.205 58.4753 321.989 57.0095 318.658C56.8667 318.658 56.724 318.658 56.5769 318.658ZM146.109 332.931C145.967 334.644 145.824 336.357 145.677 338.121C154.954 338.121 164.232 338.121 173.791 338.121C173.934 336.409 174.076 334.696 174.223 332.931C162.574 332.583 162.574 332.583 150.921 332.445C150.475 332.443 150.029 332.441 149.57 332.439C149.169 332.44 148.769 332.44 148.356 332.441C147.841 332.442 147.841 332.442 147.316 332.443C146.532 332.415 146.532 332.415 146.109 332.931ZM340.258 333.641C339.991 333.887 339.723 334.134 339.447 334.387C339.162 334.656 338.876 334.925 338.582 335.202C338.29 335.478 337.997 335.753 337.695 336.038C330.643 342.776 325.118 351.227 321.281 360.18C324.136 360.18 326.991 360.18 329.932 360.18C330.149 359.622 330.366 359.063 330.589 358.487C333.286 351.718 336.464 345.247 339.772 338.759C339.95 338.408 340.128 338.058 340.311 337.697C340.65 337.031 340.991 336.366 341.333 335.702C342.179 334.178 342.179 334.178 342.475 332.499C341.327 332.499 341.094 332.871 340.258 333.641ZM208.825 332.931C208.968 334.644 209.111 336.357 209.258 338.121C218.535 338.121 227.813 338.121 237.372 338.121C237.372 336.409 237.372 334.696 237.372 332.931C227.952 332.931 218.531 332.931 208.825 332.931ZM319.119 340.717C312.796 349.775 312.796 349.775 310.036 360.18C312.605 360.18 315.174 360.18 317.821 360.18C318.667 353.691 319.339 347.259 319.551 340.717C319.409 340.717 319.266 340.717 319.119 340.717ZM337.744 354.449C334.875 357.006 334.875 357.006 333.392 360.18C335.975 360.585 338.64 360.992 341.178 360.18C343.067 358.654 344.029 356.319 345.051 354.168C345.707 352.849 346.504 351.687 347.341 350.475C347.615 350.068 347.89 349.66 348.172 349.24C348.433 348.854 348.694 348.468 348.963 348.07C349.468 347.313 349.973 346.556 350.477 345.799C350.837 345.258 351.198 344.717 351.558 344.177C347.24 344.177 340.707 351.532 337.744 354.449ZM353.288 355.422C352.286 356.051 351.287 356.682 350.288 357.315C350.002 357.493 349.717 357.672 349.423 357.855C347.862 358.772 347.862 358.772 346.8 360.18C348.306 360.421 349.631 360.52 351.126 360.18C352.279 359.025 353.008 357.748 353.721 356.287C353.578 356.002 353.435 355.717 353.288 355.422Z" fill="black"/>
<path d="M69.9561 95.8605C70.6677 95.8682 71.3793 95.874 72.0909 95.8777C73.9552 95.8934 75.8177 95.9379 77.6814 95.9884C79.5848 96.0342 81.4884 96.0502 83.3922 96.07C86.1639 96.1042 88.9353 96.1461 91.7063 96.2157C92.2635 96.2291 92.8207 96.2425 93.3948 96.2563C94.6386 96.3403 94.6386 96.3403 95.0712 96.7728C95.1178 97.8221 95.1363 98.8593 95.1367 99.9089C95.1394 100.407 95.1394 100.407 95.1422 100.915C95.1479 102.037 95.1505 103.158 95.1531 104.279C95.1565 105.08 95.1602 105.88 95.164 106.681C95.1718 108.409 95.1783 110.137 95.1838 111.864C95.1925 114.594 95.2045 117.323 95.2169 120.052C95.2452 126.338 95.2691 132.624 95.293 138.91C95.315 144.669 95.3379 150.429 95.3642 156.188C95.3765 158.904 95.3867 161.62 95.3953 164.336C95.4011 166.022 95.4086 167.708 95.4166 169.394C95.42 170.179 95.4226 170.965 95.4245 171.75C95.4271 172.817 95.4323 173.884 95.4382 174.951C95.4383 175.266 95.4384 175.581 95.4385 175.905C95.3256 177.335 95.3256 177.335 95.9362 178.52C96.8901 178.583 97.8459 178.618 98.8017 178.641C99.2312 178.653 99.2312 178.653 99.6695 178.666C100.588 178.691 101.506 178.714 102.424 178.736C103.632 178.765 104.839 178.797 106.046 178.831C106.585 178.844 107.124 178.857 107.679 178.87C108.912 178.952 108.912 178.952 109.344 179.385C109.387 180.02 109.4 180.657 109.4 181.293C109.402 181.699 109.403 182.104 109.405 182.522C109.403 183.184 109.403 183.184 109.402 183.859C109.402 184.308 109.403 184.758 109.403 185.221C109.403 186.174 109.403 187.126 109.401 188.079C109.399 189.543 109.401 191.007 109.404 192.47C109.403 193.393 109.403 194.316 109.402 195.24C109.403 195.681 109.404 196.122 109.405 196.576C109.402 197.184 109.402 197.184 109.4 197.805C109.4 198.164 109.4 198.523 109.399 198.893C109.344 199.713 109.344 199.713 108.912 200.146C107.884 200.184 106.87 200.196 105.842 200.188C105.382 200.187 105.382 200.187 104.913 200.186C103.93 200.184 102.947 200.179 101.965 200.173C101.3 200.171 100.635 200.169 99.97 200.167C98.337 200.162 96.7041 200.155 95.0712 200.146C95.0734 200.697 95.0757 201.248 95.078 201.816C95.086 203.897 95.0909 205.977 95.0949 208.058C95.0971 208.952 95.1 209.845 95.1038 210.739C95.1219 215.129 95.1276 219.512 94.8802 223.896C94.8634 224.204 94.8465 224.512 94.8291 224.829C94.6943 226.907 94.6943 226.907 94.2061 227.395C93.441 227.44 92.674 227.455 91.9076 227.458C91.1714 227.462 91.1714 227.462 90.4204 227.466C89.8861 227.467 89.3518 227.467 88.8013 227.468C88.2567 227.469 87.7121 227.471 87.1511 227.472C85.9966 227.474 84.8422 227.475 83.6877 227.475C82.2065 227.475 80.7254 227.481 79.2443 227.488C77.8344 227.494 76.4245 227.494 75.0146 227.495C74.4811 227.498 73.9477 227.501 73.398 227.504C72.6598 227.502 72.6598 227.502 71.9067 227.5C71.472 227.501 71.0372 227.501 70.5893 227.502C69.5523 227.395 69.5523 227.395 68.6872 226.53C68.5668 225.441 68.5668 225.441 68.5493 224.049C68.5364 223.27 68.5364 223.27 68.5233 222.475C68.5158 221.63 68.5158 221.63 68.5081 220.769C68.5 220.188 68.4916 219.607 68.4827 219.027C68.4605 217.498 68.4434 215.969 68.4273 214.44C68.41 212.881 68.3879 211.321 68.3662 209.761C68.3243 206.7 68.2878 203.639 68.2547 200.579C67.9568 200.577 67.6589 200.576 67.3519 200.574C60.111 200.539 52.87 200.499 45.6291 200.454C42.1274 200.432 38.6258 200.412 35.1242 200.396C32.0729 200.382 29.0217 200.365 25.9706 200.344C24.3542 200.333 22.7379 200.323 21.1216 200.318C19.3194 200.311 17.5173 200.298 15.7151 200.284C15.1762 200.283 14.6374 200.282 14.0822 200.281C13.5934 200.276 13.1045 200.271 12.6008 200.266C12.1742 200.264 11.7476 200.262 11.3081 200.259C10.2965 200.146 10.2965 200.146 9.43145 199.281C9.28377 198.459 9.28377 198.459 9.23029 197.442C9.20971 197.059 9.18914 196.677 9.16794 196.283C9.15175 195.866 9.13556 195.449 9.11888 195.02C9.10202 194.588 9.08515 194.157 9.06777 193.712C8.52676 176.854 8.52676 176.854 14.9328 169.346C16.6063 167.299 18.0046 165.071 19.4434 162.855C20.1061 161.841 20.7817 160.835 21.4581 159.83C23.129 157.346 24.7464 154.837 26.3124 152.286C28.1761 149.268 30.136 146.313 32.0849 143.35C35.0353 138.863 37.9433 134.353 40.7953 129.802C43.9519 124.78 47.1452 119.781 50.3782 114.807C51.5834 112.951 52.7764 111.088 53.9628 109.22C54.2651 108.745 54.5673 108.269 54.8788 107.78C55.4701 106.85 56.0603 105.919 56.649 104.987C56.9256 104.552 57.2022 104.117 57.4872 103.67C57.7287 103.288 57.9703 102.907 58.2191 102.514C58.5334 102.047 58.8478 101.58 59.1717 101.098C59.3757 100.701 59.5797 100.304 59.7899 99.8952C62.3426 95.5025 65.3729 95.7005 69.9561 95.8605ZM68.6872 126.617C65.9971 130.097 63.6867 133.912 61.2802 137.592C60.8727 138.215 60.4651 138.837 60.0575 139.459C58.8961 141.233 57.7362 143.008 56.5765 144.783C56.2937 145.216 56.0108 145.648 55.7193 146.094C53.5856 149.36 51.4633 152.633 49.3639 155.92C48.9455 156.576 48.9455 156.576 48.5187 157.244C47.9453 158.143 47.3729 159.042 46.8012 159.942C45.1498 162.533 43.4679 165.099 41.7508 167.648C41.1767 168.505 40.6031 169.362 40.0296 170.219C39.6551 170.776 39.2784 171.331 38.8992 171.884C38.3695 172.657 37.8479 173.435 37.3275 174.215C37.025 174.66 36.7225 175.106 36.4109 175.564C35.6102 176.898 35.6102 176.898 36.2479 178.952C46.9529 178.952 57.6579 178.952 68.6872 178.952C69.2167 177.893 69.173 177.213 69.1717 176.029C69.1723 175.595 69.1729 175.161 69.1735 174.713C69.172 174.235 69.1704 173.757 69.1688 173.264C69.1689 172.762 69.169 172.26 69.169 171.743C69.1687 170.076 69.1654 168.41 69.162 166.744C69.1612 165.591 69.1605 164.438 69.1601 163.285C69.1588 160.557 69.1552 157.829 69.1509 155.101C69.146 151.995 69.1437 148.89 69.1415 145.784C69.137 139.395 69.1294 133.006 69.1197 126.617C68.977 126.617 68.8343 126.617 68.6872 126.617Z" fill="black"/>
<path d="M300.275 107.938C301.383 108.019 301.383 108.019 302.248 108.884C302.194 109.965 302.194 109.965 301.816 111.046C300.924 111.614 300.924 111.614 300.086 111.911C299.515 111.483 298.944 111.055 298.355 110.614C298.816 108.05 298.816 108.05 300.275 107.938Z" fill="black"/>
<path d="M44.7376 221.88C45.7649 222.204 45.7649 222.204 46.1974 222.637C46.2785 223.691 46.2785 223.691 46.1974 224.8C45.9119 225.085 45.6265 225.371 45.3324 225.665C43.9807 225.502 43.9807 225.502 42.7372 225.232C42.4399 224.232 42.4399 224.232 42.3047 223.07C43.0223 221.874 43.3414 221.747 44.7376 221.88Z" fill="black"/>
<path d="M275.587 242.044C275.985 242.043 276.383 242.041 276.793 242.039C277.453 242.04 277.453 242.04 278.127 242.04C278.593 242.039 279.058 242.038 279.538 242.037C281.108 242.033 282.678 242.032 284.249 242.031C285.37 242.029 286.492 242.027 287.613 242.025C290.668 242.019 293.722 242.016 296.777 242.015C298.683 242.013 300.59 242.012 302.496 242.01C307.773 242.004 313.049 242 318.326 241.998C318.664 241.998 319.002 241.998 319.35 241.998C319.858 241.998 319.858 241.998 320.376 241.998C321.062 241.998 321.749 241.997 322.435 241.997C322.946 241.997 322.946 241.997 323.467 241.997C328.983 241.995 334.5 241.988 340.017 241.978C345.678 241.967 351.34 241.962 357.001 241.961C360.181 241.961 363.36 241.959 366.54 241.951C369.53 241.943 372.521 241.943 375.511 241.946C376.61 241.947 377.709 241.945 378.808 241.941C380.305 241.935 381.802 241.938 383.3 241.942C383.956 241.937 383.956 241.937 384.625 241.932C387.294 241.951 388.834 242.265 390.836 244.129C392.36 247.096 390.887 251.021 390.155 254.053C390.026 254.6 389.897 255.148 389.764 255.712C389.408 257.221 389.047 258.729 388.684 260.238C388.379 261.512 388.076 262.787 387.773 264.061C386.669 268.71 385.55 273.356 384.429 278.001C384.332 278.401 384.236 278.801 384.136 279.213C382.71 285.126 381.278 291.037 379.84 296.946C379.537 298.192 379.234 299.437 378.932 300.683C378.452 302.657 377.97 304.632 377.487 306.606C377.309 307.335 377.132 308.064 376.955 308.793C374.406 319.284 374.406 319.284 371.453 321.253C370.195 321.672 369.395 321.741 368.086 321.744C367.657 321.746 367.229 321.747 366.787 321.749C366.315 321.749 365.843 321.749 365.357 321.749C364.856 321.751 364.355 321.752 363.84 321.754C362.448 321.758 361.056 321.76 359.664 321.761C358.164 321.763 356.664 321.767 355.164 321.771C351.54 321.779 347.916 321.784 344.292 321.787C342.586 321.789 340.88 321.792 339.173 321.794C333.502 321.801 327.83 321.808 322.158 321.811C320.686 321.812 319.214 321.812 317.743 321.813C317.377 321.813 317.011 321.814 316.634 321.814C310.707 321.817 304.779 321.828 298.852 321.842C292.767 321.857 286.683 321.865 280.598 321.866C277.181 321.867 273.765 321.871 270.348 321.882C267.439 321.891 264.529 321.895 261.62 321.89C260.135 321.888 258.651 321.889 257.167 321.898C255.557 321.905 253.948 321.902 252.338 321.896C251.869 321.901 251.401 321.906 250.919 321.911C248.179 321.887 246.524 321.577 244.291 319.955C242.747 318.261 242.867 316.564 242.906 314.38C242.994 313.468 242.994 313.468 243.426 313.035C244.227 312.967 245.03 312.926 245.834 312.898C246.563 312.871 246.563 312.871 247.308 312.843C247.82 312.826 248.332 312.809 248.86 312.792C249.374 312.773 249.887 312.754 250.417 312.735C251.691 312.689 252.965 312.645 254.239 312.603C254.463 311.687 254.686 310.771 254.91 309.855C254.982 309.56 255.054 309.264 255.128 308.96C255.544 307.255 255.96 305.55 256.376 303.845C257.235 300.321 258.095 296.798 258.957 293.275C259.457 291.233 259.956 289.19 260.455 287.148C260.556 286.735 260.657 286.322 260.761 285.896C262.145 280.229 263.508 274.557 264.852 268.881C265.377 266.669 265.905 264.457 266.434 262.246C266.934 260.149 267.428 258.052 267.918 255.953C268.223 254.65 268.534 253.35 268.847 252.05C268.99 251.451 269.131 250.851 269.268 250.251C270.56 244.623 270.56 244.623 272.838 242.534C273.854 242.026 274.454 242.046 275.587 242.044ZM273.27 245.994C272.833 247.206 272.833 247.206 272.518 248.626C272.384 249.176 272.251 249.725 272.113 250.292C271.97 250.901 271.827 251.51 271.684 252.118C271.53 252.757 271.376 253.395 271.222 254.033C270.806 255.759 270.395 257.487 269.985 259.215C269.557 261.018 269.123 262.819 268.69 264.62C268.065 267.221 267.441 269.822 266.819 272.424C265.327 278.672 263.814 284.914 262.298 291.156C261.779 293.291 261.261 295.427 260.745 297.562C260.606 298.136 260.467 298.711 260.328 299.285C260.074 300.331 259.821 301.378 259.568 302.424C259.454 302.893 259.341 303.362 259.224 303.845C259.061 304.516 259.061 304.516 258.896 305.2C258.446 307.028 257.976 308.851 257.503 310.673C257.22 311.767 257.22 311.767 257.267 313.035C295.377 313.035 333.486 313.035 372.751 313.035C373.826 309.831 373.826 309.831 374.707 306.602C374.821 306.135 374.935 305.669 375.052 305.188C375.172 304.688 375.292 304.188 375.415 303.673C375.546 303.134 375.677 302.594 375.812 302.039C376.17 300.562 376.525 299.084 376.881 297.606C377.104 296.677 377.328 295.748 377.551 294.819C378.266 291.854 378.979 288.889 379.69 285.923C380.477 282.64 381.267 279.358 382.062 276.076C382.887 272.669 383.708 269.26 384.526 265.851C384.966 264.014 385.408 262.177 385.854 260.341C386.275 258.607 386.692 256.872 387.104 255.136C387.257 254.496 387.412 253.856 387.569 253.217C387.783 252.34 387.992 251.462 388.198 250.583C388.317 250.091 388.435 249.599 388.557 249.092C388.767 247.632 388.7 246.551 388.322 245.129C387.31 244.623 386.718 244.641 385.591 244.639C385.197 244.638 384.802 244.636 384.396 244.634C383.743 244.635 383.743 244.635 383.076 244.636C382.384 244.634 382.384 244.634 381.679 244.632C380.125 244.628 378.571 244.627 377.016 244.627C375.906 244.625 374.796 244.622 373.686 244.62C370.662 244.614 367.639 244.612 364.616 244.61C362.73 244.609 360.843 244.607 358.957 244.605C353.736 244.599 348.516 244.595 343.296 244.594C342.962 244.593 342.628 244.593 342.283 244.593C341.948 244.593 341.613 244.593 341.268 244.593C340.589 244.593 339.91 244.593 339.231 244.592C338.895 244.592 338.558 244.592 338.211 244.592C332.751 244.59 327.291 244.583 321.831 244.573C316.229 244.563 310.627 244.557 305.026 244.557C301.879 244.556 298.732 244.554 295.585 244.546C292.627 244.539 289.669 244.538 286.71 244.542C285.622 244.542 284.534 244.54 283.446 244.536C281.965 244.53 280.485 244.533 279.004 244.537C278.569 244.534 278.134 244.53 277.686 244.527C277.291 244.53 276.895 244.532 276.488 244.535C276.146 244.535 275.804 244.535 275.452 244.535C274.332 244.739 273.962 245.105 273.27 245.994Z" fill="black"/>
<path d="M121.536 245.724C121.794 245.813 122.053 245.902 122.32 245.994C122.59 247.238 122.59 247.238 122.752 248.589C121.887 249.454 121.887 249.454 120.806 249.562C119.724 249.454 119.724 249.454 118.859 248.589C118.94 247.508 118.94 247.508 119.292 246.427C120.589 245.562 120.589 245.562 121.536 245.724Z" fill="black"/>
<path d="M327.767 253.347C330.192 254.981 331.236 256.85 332.481 259.451C332.671 259.835 332.861 260.219 333.056 260.614C333.66 261.838 334.255 263.066 334.85 264.295C335.246 265.102 335.642 265.909 336.039 266.715C336.815 268.293 337.588 269.872 338.358 271.452C339.34 273.465 340.339 275.469 341.345 277.47C342.534 279.838 343.685 282.219 344.798 284.624C346.325 287.89 347.96 291.087 349.67 294.261C352.85 300.191 352.85 300.191 352.421 302.654C351.705 303.739 351.36 304.195 350.259 304.817C348.444 305.147 346.646 305.112 344.806 305.097C343.976 305.103 343.976 305.103 343.129 305.108C341.613 305.118 340.097 305.114 338.582 305.108C336.994 305.102 335.407 305.107 333.819 305.111C331.153 305.114 328.487 305.109 325.821 305.099C322.741 305.087 319.661 305.091 316.581 305.103C313.934 305.113 311.288 305.114 308.641 305.108C307.061 305.105 305.481 305.105 303.901 305.112C302.14 305.119 300.379 305.109 298.618 305.097C297.834 305.103 297.834 305.103 297.034 305.11C293.102 305.06 293.102 305.06 291.77 303.782C290.941 302.563 290.57 301.965 290.57 300.492C291.383 298.325 292.382 296.609 293.76 294.734C293.947 294.478 294.134 294.221 294.326 293.957C294.733 293.4 295.14 292.844 295.548 292.289C296.446 291.064 297.332 289.832 298.22 288.6C298.934 287.61 299.649 286.62 300.365 285.631C301.786 283.665 303.207 281.698 304.627 279.731C305.096 279.082 305.564 278.433 306.033 277.784C306.265 277.463 306.497 277.142 306.736 276.811C307.439 275.838 308.142 274.865 308.844 273.892C309.077 273.57 309.309 273.249 309.548 272.918C310.015 272.271 310.482 271.624 310.949 270.978C312.144 269.325 313.337 267.67 314.528 266.015C315.698 264.389 316.872 262.765 318.048 261.144C318.457 260.58 318.866 260.016 319.273 259.451C319.795 258.73 320.321 258.011 320.847 257.294C321.275 256.706 321.275 256.706 321.712 256.107C323.538 253.932 324.859 252.888 327.767 253.347ZM321.712 268.918C320.587 273.02 320.592 277.65 320.414 281.893C320.391 282.43 320.368 282.967 320.343 283.52C320.331 284.018 320.319 284.516 320.306 285.029C320.295 285.468 320.284 285.908 320.273 286.36C320.439 287.714 320.743 288.295 321.712 289.246C323.226 289.535 323.226 289.535 324.74 289.246C326.002 287.963 326.279 286.786 326.542 285.036C326.617 284.549 326.691 284.063 326.767 283.562C326.839 283.047 326.91 282.532 326.983 282.001C327.058 281.477 327.132 280.953 327.208 280.413C328.074 274.673 328.074 274.673 327.767 268.918C326.771 267.631 326.358 267.241 324.74 266.971C323.123 267.241 322.726 267.65 321.712 268.918ZM320.063 293.842C319.009 294.986 318.684 295.483 318.684 297.032C319.178 298.019 319.632 298.844 320.414 299.627C322.662 299.842 322.662 299.842 324.713 299.14C325.384 297.956 325.577 297.099 325.605 295.734C324.775 294.241 324.214 293.694 322.604 293.112C321.237 293.033 321.237 293.033 320.063 293.842Z" fill="black"/>
<path d="M398.056 286.541C399.137 286.649 399.137 286.649 400.002 287.514C399.84 288.866 399.84 288.866 399.569 290.109C398.569 290.38 398.569 290.38 397.407 290.542C396.979 290.256 396.55 289.971 396.109 289.677C395.974 288.596 395.974 288.596 396.109 287.514C396.974 286.649 396.974 286.649 398.056 286.541Z" fill="black"/>
</svg>
