<svg width="1336" height="668" viewBox="0 0 1336 668" fill="none" xmlns="http://www.w3.org/2000/svg">
<path d="M64.4345 604.32L2 667H165.154C315.877 667 460.427 607.134 567.015 500.567L639.127 428.47C699.541 368.067 781.473 334.135 866.903 334.135C952.372 334.135 1034.34 300.171 1094.76 239.72L1133.69 200.769H866.997C909.818 158.049 967.834 134.058 1028.32 134.058H1067.2C1152.47 134.058 1234.26 100.288 1294.69 40.1356L1334 1.00006L1142.32 1.00003C966.003 1.00001 796.879 70.8968 672.008 195.373L402.118 464.409C357.369 509.016 296.761 534.065 233.576 534.065C170.097 534.065 109.232 559.346 64.4345 604.32Z" stroke="black" stroke-opacity="0.01"/>
</svg>
