<svg width="16" height="16" viewBox="0 0 16 16" fill="none" xmlns="http://www.w3.org/2000/svg">
<path d="M8.67367 1.94666L12.607 3.69333C13.7403 4.19333 13.7403 5.01999 12.607 5.51999L8.67367 7.26666C8.227 7.46666 7.49367 7.46666 7.047 7.26666L3.11367 5.51999C1.98034 5.01999 1.98034 4.19333 3.11367 3.69333L7.047 1.94666C7.49367 1.74666 8.227 1.74666 8.67367 1.94666Z" stroke="#F5F5F5" stroke-width="0.914286" stroke-linecap="round" stroke-linejoin="round"/>
<path d="M2 7.33334C2 7.89334 2.42 8.54001 2.93333 8.76668L7.46 10.78C7.80667 10.9333 8.2 10.9333 8.54 10.78L13.0667 8.76668C13.58 8.54001 14 7.89334 14 7.33334" stroke="#F5F5F5" stroke-width="0.914286" stroke-linecap="round" stroke-linejoin="round"/>
<path d="M2 10.6667C2 11.2867 2.36667 11.8467 2.93333 12.1L7.46 14.1133C7.80667 14.2667 8.2 14.2667 8.54 14.1133L13.0667 12.1C13.6333 11.8467 14 11.2867 14 10.6667" stroke="#F5F5F5" stroke-width="0.914286" stroke-linecap="round" stroke-linejoin="round"/>
</svg>
