<svg width="32" height="32" viewBox="0 0 32 32" fill="none" xmlns="http://www.w3.org/2000/svg">
<path d="M5.55984 20.4001L11.5998 26.4401C14.0798 28.9201 18.1065 28.9201 20.5998 26.4401L26.4532 20.5867C28.9332 18.1067 28.9332 14.0801 26.4532 11.5867L20.3998 5.56007C19.1332 4.2934 17.3865 3.6134 15.5998 3.70673L8.93317 4.02673C6.2665 4.14673 4.1465 6.26673 4.01317 8.92007L3.69317 15.5867C3.61317 17.3867 4.29317 19.1334 5.55984 20.4001Z" stroke="#F5F5F5" stroke-width="1.82857" stroke-linecap="round" stroke-linejoin="round"/>
<path d="M12.6665 16.0001C14.5075 16.0001 15.9999 14.5077 15.9999 12.6667C15.9999 10.8258 14.5075 9.3334 12.6665 9.3334C10.8256 9.3334 9.33319 10.8258 9.33319 12.6667C9.33319 14.5077 10.8256 16.0001 12.6665 16.0001Z" stroke="#F5F5F5" stroke-width="1.82857" stroke-linecap="round"/>
</svg>
