<svg width="32" height="32" viewBox="0 0 32 32" fill="none" xmlns="http://www.w3.org/2000/svg">
<path d="M23.9733 14.3867V19.72C23.9733 20.0667 23.96 20.4 23.92 20.72C23.6133 24.32 21.4933 26.1066 17.5867 26.1066H17.0533C16.72 26.1066 16.4 26.2667 16.2 26.5333L14.6 28.6667C13.8933 29.6133 12.7467 29.6133 12.04 28.6667L10.44 26.5333C10.2666 26.3067 9.87999 26.1066 9.58666 26.1066H9.05333C4.8 26.1066 2.66666 25.0533 2.66666 19.72V14.3867C2.66666 10.48 4.46667 8.36001 8.05333 8.05334C8.37333 8.01334 8.70667 8 9.05333 8H17.5867C21.84 8 23.9733 10.1333 23.9733 14.3867Z" stroke="#F5F5F5" stroke-width="1.82857" stroke-miterlimit="10" stroke-linecap="round" stroke-linejoin="round"/>
<path d="M29.3067 9.05333V14.3867C29.3067 18.3067 27.5067 20.4133 23.92 20.72C23.96 20.4 23.9734 20.0667 23.9734 19.72V14.3867C23.9734 10.1333 21.84 7.99999 17.5867 7.99999H9.05338C8.70671 7.99999 8.37338 8.01333 8.05338 8.05333C8.36004 4.46667 10.48 2.66666 14.3867 2.66666H22.92C27.1734 2.66666 29.3067 4.8 29.3067 9.05333Z" stroke="#F5F5F5" stroke-width="1.82857" stroke-miterlimit="10" stroke-linecap="round" stroke-linejoin="round"/>
<path d="M17.994 17.6667H18.006" stroke="#F5F5F5" stroke-width="1.82857" stroke-linecap="round" stroke-linejoin="round"/>
<path d="M13.3273 17.6667H13.3393" stroke="#F5F5F5" stroke-width="1.82857" stroke-linecap="round" stroke-linejoin="round"/>
<path d="M8.66067 17.6667H8.67267" stroke="#F5F5F5" stroke-width="1.82857" stroke-linecap="round" stroke-linejoin="round"/>
</svg>
