<svg width="32" height="32" viewBox="0 0 32 32" fill="none" xmlns="http://www.w3.org/2000/svg">
<path d="M13.3334 5.99999V24C13.3334 25.44 12.7467 26.76 11.8133 27.72L11.76 27.7733C11.64 27.8933 11.5067 28.0133 11.3867 28.1067C10.9867 28.4533 10.5333 28.72 10.0667 28.9066C9.92 28.9733 9.77335 29.0267 9.62669 29.08C9.10669 29.2533 8.54669 29.3333 8.00002 29.3333C7.64002 29.3333 7.28004 29.2933 6.93337 29.2267C6.76004 29.1867 6.58668 29.1467 6.41335 29.0933C6.20002 29.0267 6.00003 28.96 5.80003 28.8666C5.80003 28.8533 5.80002 28.8533 5.78668 28.8666C5.41335 28.68 5.05336 28.4667 4.72003 28.2133L4.70669 28.2C4.53335 28.0666 4.37337 27.9333 4.2267 27.7733C4.08004 27.6133 3.93335 27.4533 3.78668 27.28C3.53335 26.9467 3.32003 26.5867 3.13336 26.2133C3.1467 26.2 3.1467 26.2 3.13336 26.2C3.13336 26.2 3.13335 26.1867 3.12002 26.1733C3.04002 25.9867 2.97334 25.7867 2.90668 25.5867C2.85334 25.4133 2.81334 25.24 2.77334 25.0667C2.70667 24.72 2.66669 24.36 2.66669 24V5.99999C2.66669 3.99999 4.00002 2.66666 6.00002 2.66666H10C12 2.66666 13.3334 3.99999 13.3334 5.99999Z" stroke="#F5F5F5" stroke-width="1.82857" stroke-linecap="round" stroke-linejoin="round"/>
<path d="M29.3333 22V26C29.3333 28 28 29.3333 26 29.3333H8C8.54667 29.3333 9.10667 29.2533 9.62667 29.08C9.77333 29.0267 9.91998 28.9733 10.0667 28.9066C10.5333 28.72 10.9867 28.4533 11.3867 28.1067C11.5067 28.0133 11.64 27.8933 11.76 27.7733L11.8133 27.72L20.88 18.6667H26C28 18.6667 29.3333 20 29.3333 22Z" stroke="#F5F5F5" stroke-width="1.82857" stroke-linecap="round" stroke-linejoin="round"/>
<path d="M6.41323 29.0933C5.61323 28.8533 4.85325 28.4133 4.22658 27.7733C3.58658 27.1467 3.14656 26.3867 2.90656 25.5867C3.42656 27.2533 4.74656 28.5733 6.41323 29.0933Z" stroke="#F5F5F5" stroke-width="1.82857" stroke-linecap="round" stroke-linejoin="round"/>
<path d="M24.4932 15.0533L20.8799 18.6667L11.8132 27.72C12.7465 26.76 13.3332 25.44 13.3332 24V11.12L16.9465 7.50669C18.3598 6.09335 20.2532 6.09335 21.6665 7.50669L24.4932 10.3333C25.9065 11.7467 25.9065 13.64 24.4932 15.0533Z" stroke="#F5F5F5" stroke-width="1.82857" stroke-linecap="round" stroke-linejoin="round"/>
<path d="M8.00002 25.3333C8.7364 25.3333 9.33335 24.7364 9.33335 24C9.33335 23.2636 8.7364 22.6667 8.00002 22.6667C7.26364 22.6667 6.66669 23.2636 6.66669 24C6.66669 24.7364 7.26364 25.3333 8.00002 25.3333Z" stroke="#F5F5F5" stroke-width="1.82857" stroke-linecap="round" stroke-linejoin="round"/>
</svg>
