<svg width="16" height="16" viewBox="0 0 16 16" fill="none" xmlns="http://www.w3.org/2000/svg">
<path d="M11.9867 7.19334V9.86001C11.9867 10.0333 11.98 10.2 11.96 10.36C11.8067 12.16 10.7467 13.0533 8.79338 13.0533H8.52671C8.36005 13.0533 8.20004 13.1333 8.10004 13.2667L7.30005 14.3333C6.94672 14.8067 6.37337 14.8067 6.02004 14.3333L5.22003 13.2667C5.13336 13.1533 4.94004 13.0533 4.79338 13.0533H4.52671C2.40005 13.0533 1.33337 12.5267 1.33337 9.86001V7.19334C1.33337 5.24001 2.23338 4.18001 4.02671 4.02667C4.18671 4.00667 4.35338 4 4.52671 4H8.79338C10.92 4 11.9867 5.06667 11.9867 7.19334Z" stroke="#F5F5F5" stroke-width="0.914286" stroke-miterlimit="10" stroke-linecap="round" stroke-linejoin="round"/>
<path d="M14.6534 4.52668V7.19335C14.6534 9.15335 13.7534 10.2067 11.9601 10.36C11.9801 10.2 11.9867 10.0333 11.9867 9.86001V7.19335C11.9867 5.06668 10.9201 4.00001 8.7934 4.00001H4.52673C4.3534 4.00001 4.18673 4.00668 4.02673 4.02668C4.18007 2.23335 5.24007 1.33334 7.1934 1.33334H11.4601C13.5867 1.33334 14.6534 2.40002 14.6534 4.52668Z" stroke="#F5F5F5" stroke-width="0.914286" stroke-miterlimit="10" stroke-linecap="round" stroke-linejoin="round"/>
<path d="M8.99734 8.83361H9.00334" stroke="#F5F5F5" stroke-width="0.914286" stroke-linecap="round" stroke-linejoin="round"/>
<path d="M6.66396 8.83361H6.66997" stroke="#F5F5F5" stroke-width="0.914286" stroke-linecap="round" stroke-linejoin="round"/>
<path d="M4.33071 8.83361H4.33672" stroke="#F5F5F5" stroke-width="0.914286" stroke-linecap="round" stroke-linejoin="round"/>
</svg>
