<svg width="24" height="24" viewBox="0 0 24 24" fill="none" xmlns="http://www.w3.org/2000/svg">
<path d="M2.99988 9C4.10445 9 4.99988 8.10457 4.99988 7C4.99988 5.89543 4.10445 5 2.99988 5C1.89531 5 0.999878 5.89543 0.999878 7C0.999878 8.10457 1.89531 9 2.99988 9Z" stroke="#F5F5F5" stroke-width="1.30909" stroke-miterlimit="10" stroke-linecap="round" stroke-linejoin="round"/>
<path d="M20.9999 9C22.1044 9 22.9999 8.10457 22.9999 7C22.9999 5.89543 22.1044 5 20.9999 5C19.8953 5 18.9999 5.89543 18.9999 7C18.9999 8.10457 19.8953 9 20.9999 9Z" stroke="#F5F5F5" stroke-width="1.30909" stroke-miterlimit="10" stroke-linecap="round" stroke-linejoin="round"/>
<path d="M18.9999 7H14.9999" stroke="#F5F5F5" stroke-width="1.30909" stroke-miterlimit="10" stroke-linecap="round" stroke-linejoin="round"/>
<path d="M8.99988 7H4.99988" stroke="#F5F5F5" stroke-width="1.30909" stroke-miterlimit="10" stroke-linecap="round" stroke-linejoin="round"/>
<path d="M7.49988 16.5V18.5C7.49988 19.11 7.12988 19.64 6.60988 19.86C6.41988 19.95 6.21988 20 5.99988 20H3.99988C3.16988 20 2.49988 19.33 2.49988 18.5V16.5C2.49988 15.67 3.16988 15 3.99988 15H5.99988C6.82988 15 7.49988 15.67 7.49988 16.5Z" stroke="#F5F5F5" stroke-width="1.30909" stroke-miterlimit="10" stroke-linecap="round" stroke-linejoin="round"/>
<path d="M21.4999 16.5V18.5C21.4999 19.33 20.8299 20 19.9999 20H17.9999C17.7799 20 17.5799 19.95 17.3899 19.86C16.8699 19.64 16.4999 19.11 16.4999 18.5V16.5C16.4999 15.67 17.1699 15 17.9999 15H19.9999C20.8299 15 21.4999 15.67 21.4999 16.5Z" stroke="#F5F5F5" stroke-width="1.30909" stroke-miterlimit="10" stroke-linecap="round" stroke-linejoin="round"/>
<path d="M14.9999 5.5V8.5C14.9999 9.32 14.3199 10 13.4999 10H10.4999C9.67988 10 8.99988 9.32 8.99988 8.5V5.5C8.99988 4.68 9.67988 4 10.4999 4H13.4999C14.3199 4 14.9999 4.68 14.9999 5.5Z" stroke="#F5F5F5" stroke-width="1.30909" stroke-miterlimit="10" stroke-linecap="round" stroke-linejoin="round"/>
<path d="M14.9999 7.72998C17.3699 8.92998 18.9999 11.51 18.9999 14.5C18.9999 14.67 18.9899 14.83 18.9699 15" stroke="#F5F5F5" stroke-width="1.30909" stroke-miterlimit="10" stroke-linecap="round" stroke-linejoin="round"/>
<path d="M5.02988 15C5.00988 14.83 4.99988 14.67 4.99988 14.5C4.99988 11.51 6.62988 8.92998 8.99988 7.72998" stroke="#F5F5F5" stroke-width="1.30909" stroke-miterlimit="10" stroke-linecap="round" stroke-linejoin="round"/>
</svg>
