<svg width="32" height="32" viewBox="0 0 32 32" fill="none" xmlns="http://www.w3.org/2000/svg">
<path d="M3.99986 12C5.47262 12 6.66652 10.8061 6.66652 9.33335C6.66652 7.86059 5.47262 6.66669 3.99986 6.66669C2.5271 6.66669 1.33319 7.86059 1.33319 9.33335C1.33319 10.8061 2.5271 12 3.99986 12Z" stroke="#F5F5F5" stroke-width="1.82857" stroke-miterlimit="10" stroke-linecap="round" stroke-linejoin="round"/>
<path d="M27.9999 12C29.4726 12 30.6665 10.8061 30.6665 9.33335C30.6665 7.86059 29.4726 6.66669 27.9999 6.66669C26.5271 6.66669 25.3332 7.86059 25.3332 9.33335C25.3332 10.8061 26.5271 12 27.9999 12Z" stroke="#F5F5F5" stroke-width="1.82857" stroke-miterlimit="10" stroke-linecap="round" stroke-linejoin="round"/>
<path d="M25.3332 9.33334H19.9999" stroke="#F5F5F5" stroke-width="1.82857" stroke-miterlimit="10" stroke-linecap="round" stroke-linejoin="round"/>
<path d="M11.9999 9.33334H6.66656" stroke="#F5F5F5" stroke-width="1.82857" stroke-miterlimit="10" stroke-linecap="round" stroke-linejoin="round"/>
<path d="M9.99986 22V24.6667C9.99986 25.48 9.50652 26.1867 8.81319 26.48C8.55986 26.6 8.29319 26.6667 7.99986 26.6667H5.33319C4.22652 26.6667 3.33319 25.7734 3.33319 24.6667V22C3.33319 20.8934 4.22652 20 5.33319 20H7.99986C9.10652 20 9.99986 20.8934 9.99986 22Z" stroke="#F5F5F5" stroke-width="1.82857" stroke-miterlimit="10" stroke-linecap="round" stroke-linejoin="round"/>
<path d="M28.6665 22V24.6667C28.6665 25.7734 27.7732 26.6667 26.6665 26.6667H23.9999C23.7065 26.6667 23.4399 26.6 23.1865 26.48C22.4932 26.1867 21.9999 25.48 21.9999 24.6667V22C21.9999 20.8934 22.8932 20 23.9999 20H26.6665C27.7732 20 28.6665 20.8934 28.6665 22Z" stroke="#F5F5F5" stroke-width="1.82857" stroke-miterlimit="10" stroke-linecap="round" stroke-linejoin="round"/>
<path d="M19.9999 7.33334V11.3333C19.9999 12.4267 19.0932 13.3333 17.9999 13.3333H13.9999C12.9065 13.3333 11.9999 12.4267 11.9999 11.3333V7.33334C11.9999 6.24001 12.9065 5.33334 13.9999 5.33334H17.9999C19.0932 5.33334 19.9999 6.24001 19.9999 7.33334Z" stroke="#F5F5F5" stroke-width="1.82857" stroke-miterlimit="10" stroke-linecap="round" stroke-linejoin="round"/>
<path d="M19.9999 10.3067C23.1599 11.9067 25.3332 15.3467 25.3332 19.3334C25.3332 19.56 25.3199 19.7734 25.2932 20" stroke="#F5F5F5" stroke-width="1.82857" stroke-miterlimit="10" stroke-linecap="round" stroke-linejoin="round"/>
<path d="M6.70657 20C6.6799 19.7734 6.66656 19.56 6.66656 19.3334C6.66656 15.3467 8.8399 11.9067 11.9999 10.3067" stroke="#F5F5F5" stroke-width="1.82857" stroke-miterlimit="10" stroke-linecap="round" stroke-linejoin="round"/>
</svg>
