<svg width="16" height="16" viewBox="0 0 16 16" fill="none" xmlns="http://www.w3.org/2000/svg">
<path d="M1.99984 5.99998C2.73622 5.99998 3.33317 5.40303 3.33317 4.66665C3.33317 3.93027 2.73622 3.33331 1.99984 3.33331C1.26346 3.33331 0.666504 3.93027 0.666504 4.66665C0.666504 5.40303 1.26346 5.99998 1.99984 5.99998Z" stroke="#F5F5F5" stroke-width="0.914286" stroke-miterlimit="10" stroke-linecap="round" stroke-linejoin="round"/>
<path d="M14.0001 5.99998C14.7365 5.99998 15.3334 5.40303 15.3334 4.66665C15.3334 3.93027 14.7365 3.33331 14.0001 3.33331C13.2637 3.33331 12.6667 3.93027 12.6667 4.66665C12.6667 5.40303 13.2637 5.99998 14.0001 5.99998Z" stroke="#F5F5F5" stroke-width="0.914286" stroke-miterlimit="10" stroke-linecap="round" stroke-linejoin="round"/>
<path d="M12.6667 4.66666H10" stroke="#F5F5F5" stroke-width="0.914286" stroke-miterlimit="10" stroke-linecap="round" stroke-linejoin="round"/>
<path d="M6.00016 4.66666H3.3335" stroke="#F5F5F5" stroke-width="0.914286" stroke-miterlimit="10" stroke-linecap="round" stroke-linejoin="round"/>
<path d="M5.00033 11V12.3333C5.00033 12.74 4.75366 13.0933 4.40699 13.24C4.28033 13.3 4.14699 13.3333 4.00033 13.3333H2.66699C2.11366 13.3333 1.66699 12.8867 1.66699 12.3333V11C1.66699 10.4467 2.11366 10 2.66699 10H4.00033C4.55366 10 5.00033 10.4467 5.00033 11Z" stroke="#F5F5F5" stroke-width="0.914286" stroke-miterlimit="10" stroke-linecap="round" stroke-linejoin="round"/>
<path d="M14.3333 11V12.3333C14.3333 12.8867 13.8867 13.3333 13.3333 13.3333H12C11.8533 13.3333 11.72 13.3 11.5933 13.24C11.2467 13.0933 11 12.74 11 12.3333V11C11 10.4467 11.4467 10 12 10H13.3333C13.8867 10 14.3333 10.4467 14.3333 11Z" stroke="#F5F5F5" stroke-width="0.914286" stroke-miterlimit="10" stroke-linecap="round" stroke-linejoin="round"/>
<path d="M10 3.66663V5.66663C10 6.21329 9.54667 6.66663 9 6.66663H7C6.45333 6.66663 6 6.21329 6 5.66663V3.66663C6 3.11996 6.45333 2.66663 7 2.66663H9C9.54667 2.66663 10 3.11996 10 3.66663Z" stroke="#F5F5F5" stroke-width="0.914286" stroke-miterlimit="10" stroke-linecap="round" stroke-linejoin="round"/>
<path d="M10 5.15329C11.58 5.95329 12.6667 7.6733 12.6667 9.66664C12.6667 9.77997 12.66 9.88664 12.6467 9.99997" stroke="#F5F5F5" stroke-width="0.914286" stroke-miterlimit="10" stroke-linecap="round" stroke-linejoin="round"/>
<path d="M3.3535 9.99997C3.34016 9.88664 3.3335 9.77997 3.3335 9.66664C3.3335 7.6733 4.42016 5.95329 6.00016 5.15329" stroke="#F5F5F5" stroke-width="0.914286" stroke-miterlimit="10" stroke-linecap="round" stroke-linejoin="round"/>
</svg>
