<svg width="16" height="16" viewBox="0 0 16 16" fill="none" xmlns="http://www.w3.org/2000/svg">
<path d="M12.3133 11.22L12.5733 13.3266C12.64 13.88 12.0466 14.2666 11.5733 13.98L8.77998 12.32C8.47331 12.32 8.17332 12.3 7.87998 12.26C8.37332 11.68 8.66665 10.9466 8.66665 10.1533C8.66665 8.25997 7.02665 6.72666 4.99998 6.72666C4.22665 6.72666 3.51332 6.94665 2.91998 7.33331C2.89998 7.16665 2.89331 6.99997 2.89331 6.82664C2.89331 3.79331 5.52664 1.33331 8.77998 1.33331C12.0333 1.33331 14.6666 3.79331 14.6666 6.82664C14.6666 8.62664 13.74 10.22 12.3133 11.22Z" stroke="#F5F5F5" stroke-width="0.914286" stroke-linecap="round" stroke-linejoin="round"/>
<path d="M8.66659 10.1533C8.66659 10.9466 8.37326 11.68 7.87992 12.26C7.21992 13.06 6.17325 13.5733 4.99992 13.5733L3.25992 14.6066C2.96658 14.7866 2.59325 14.54 2.63325 14.2L2.79992 12.8867C1.90658 12.2667 1.33325 11.2733 1.33325 10.1533C1.33325 8.97997 1.95992 7.94665 2.91992 7.33332C3.51326 6.94665 4.22659 6.72667 4.99992 6.72667C7.02659 6.72667 8.66659 8.25997 8.66659 10.1533Z" stroke="#F5F5F5" stroke-width="0.914286" stroke-linecap="round" stroke-linejoin="round"/>
</svg>
