<svg width="16" height="16" viewBox="0 0 16 16" fill="none" xmlns="http://www.w3.org/2000/svg">
<path d="M6.66683 3.00004V12C6.66683 12.72 6.37349 13.38 5.90682 13.86L5.88017 13.8867C5.82017 13.9467 5.7535 14.0067 5.6935 14.0534C5.4935 14.2267 5.26682 14.36 5.03349 14.4534C4.96015 14.4867 4.88683 14.5134 4.8135 14.54C4.5535 14.6267 4.2735 14.6667 4.00016 14.6667C3.82016 14.6667 3.64017 14.6467 3.46684 14.6134C3.38017 14.5934 3.29349 14.5734 3.20683 14.5467C3.10016 14.5134 3.00017 14.48 2.90017 14.4334C2.90017 14.4267 2.90016 14.4267 2.89349 14.4334C2.70683 14.34 2.52684 14.2334 2.36017 14.1067L2.3535 14.1C2.26683 14.0334 2.18684 13.9667 2.1135 13.8867C2.04017 13.8067 1.96683 13.7267 1.89349 13.64C1.76683 13.4734 1.66017 13.2934 1.56683 13.1067C1.5735 13.1 1.5735 13.1 1.56683 13.1C1.56683 13.1 1.56683 13.0934 1.56016 13.0867C1.52016 12.9934 1.48682 12.8934 1.45349 12.7934C1.42682 12.7067 1.40682 12.62 1.38682 12.5334C1.35349 12.36 1.3335 12.18 1.3335 12V3.00004C1.3335 2.00004 2.00016 1.33337 3.00016 1.33337H5.00016C6.00016 1.33337 6.66683 2.00004 6.66683 3.00004Z" stroke="#F5F5F5" stroke-width="0.914286" stroke-linecap="round" stroke-linejoin="round"/>
<path d="M14.6669 11V13C14.6669 14 14.0002 14.6667 13.0002 14.6667H4.00024C4.27358 14.6667 4.55358 14.6267 4.81358 14.54C4.88691 14.5133 4.96024 14.4867 5.03357 14.4533C5.2669 14.36 5.49358 14.2267 5.69358 14.0533C5.75358 14.0067 5.82025 13.9467 5.88025 13.8867L5.9069 13.86L10.4402 9.33334H13.0002C14.0002 9.33334 14.6669 10 14.6669 11Z" stroke="#F5F5F5" stroke-width="0.914286" stroke-linecap="round" stroke-linejoin="round"/>
<path d="M3.20671 14.5467C2.80671 14.4267 2.42672 14.2067 2.11338 13.8867C1.79338 13.5733 1.57337 13.1933 1.45337 12.7933C1.71337 13.6267 2.37337 14.2867 3.20671 14.5467Z" stroke="#F5F5F5" stroke-width="0.914286" stroke-linecap="round" stroke-linejoin="round"/>
<path d="M12.2467 7.52668L10.4401 9.33335L5.90674 13.86C6.3734 13.38 6.66675 12.72 6.66675 12V5.56002L8.47341 3.75336C9.18008 3.04669 10.1267 3.04669 10.8334 3.75336L12.2467 5.16669C12.9534 5.87335 12.9534 6.82002 12.2467 7.52668Z" stroke="#F5F5F5" stroke-width="0.914286" stroke-linecap="round" stroke-linejoin="round"/>
<path d="M4.00093 12.6677C4.3694 12.6677 4.66811 12.369 4.66811 12.0005C4.66811 11.6321 4.3694 11.3333 4.00093 11.3333C3.63245 11.3333 3.33374 11.6321 3.33374 12.0005C3.33374 12.369 3.63245 12.6677 4.00093 12.6677Z" stroke="#F5F5F5" stroke-width="0.914286" stroke-linecap="round" stroke-linejoin="round"/>
</svg>
