<svg width="60" height="60" viewBox="0 0 60 60" fill="none" xmlns="http://www.w3.org/2000/svg">
<path d="M22.5 6C17.8472 6 14 9.92901 14 14.6809C14 18.0335 15.9666 20.8979 18.7285 22.3404C15.9666 23.7829 14 26.6474 14 30C14 33.3526 15.9666 36.2171 18.7285 37.6596C15.9666 39.1021 14 41.9665 14 45.3191C14 50.071 17.8472 54 22.5 54C27.1528 54 31 50.071 31 45.3191V37.6596V34.2626C32.3374 36.8586 34.9191 38.6809 38 38.6809C42.4299 38.6809 46 35.0348 46 30.5106C46 26.7889 43.536 23.7876 40.2129 22.7952C43.5407 21.6143 46 18.4535 46 14.6809C46 9.92901 42.1528 6 37.5 6H30H22.5ZM22.5 8.04255H29V21.3191H22.5C18.9528 21.3191 16 18.3035 16 14.6809C16 11.0582 18.9528 8.04255 22.5 8.04255ZM31 8.04255H37.5C41.0472 8.04255 44 11.0582 44 14.6809C44 18.3035 41.0472 21.3191 37.5 21.3191H31V8.04255ZM22.5 23.3617H29V36.6383H22.5C18.9528 36.6383 16 33.6226 16 30C16 26.3774 18.9528 23.3617 22.5 23.3617ZM31 23.3617H34.3262C32.8973 24.1295 31.7518 25.2994 31 26.7586V23.3617ZM38 24.383C41.3701 24.383 44 27.0688 44 30.5106C44 33.9524 41.3701 36.6383 38 36.6383C34.6299 36.6383 32 33.9524 32 30.5106C32 27.0688 34.6299 24.383 38 24.383ZM22.5 38.6809H29V45.3191C29 48.9418 26.0472 51.9574 22.5 51.9574C18.9528 51.9574 16 48.9418 16 45.3191C16 41.6965 18.9528 38.6809 22.5 38.6809Z" fill="white"/>
</svg>
