<svg width="40" height="40" viewBox="0 0 40 40" fill="none" xmlns="http://www.w3.org/2000/svg">
<path d="M19.9994 8.11432C23.4605 4.73948 26.8646 3.18917 28.9955 4.41901L29.1547 4.51764C31.1438 5.8391 31.4541 9.49093 30.2924 14.0567C34.9462 15.3668 37.9906 17.5403 37.9906 20.001L37.9847 20.1876C37.8345 22.5708 34.8281 24.6668 30.2933 25.9434C31.4852 30.6281 31.1253 34.3499 28.9945 35.5801L28.8304 35.669C26.6913 36.7309 23.3726 35.175 19.9994 31.8858C16.5383 35.2604 13.1351 36.8104 11.0043 35.5801L10.8461 35.4815C8.85673 34.1599 8.54327 30.5078 9.70544 25.9415C5.0536 24.6315 2.00994 22.4608 2.00916 20.001L2.01501 19.8135C2.16488 17.4302 5.17157 15.3345 9.70642 14.0577C8.51429 9.37289 8.87379 5.65053 11.0043 4.41998L11.1693 4.33112C13.3083 3.26924 16.6262 4.82546 19.9994 8.11432ZM10.6078 26.1817C10.3945 27.021 10.233 27.8252 10.1254 28.585C9.88928 30.2526 9.91755 31.6569 10.1761 32.7256C10.434 33.7912 10.8963 34.4405 11.4711 34.7725C12.0459 35.1042 12.8393 35.1805 13.891 34.8712C14.9459 34.5607 16.1762 33.883 17.5023 32.8448C18.1068 32.3715 18.7216 31.8274 19.3422 31.2227C18.1855 30.0197 17.031 28.6201 15.9242 27.0587C14.0182 26.8808 12.2283 26.5821 10.6078 26.1817ZM29.39 26.1797C27.7697 26.58 25.9804 26.8799 24.0746 27.0577C22.9678 28.6192 21.8144 30.0196 20.6576 31.2227C21.2782 31.8275 21.8929 32.3714 22.4974 32.8448C23.8236 33.8831 25.0538 34.5607 26.1088 34.8712C27.1605 35.1806 27.9538 35.1042 28.5287 34.7725C29.1035 34.4406 29.5667 33.7914 29.8246 32.7256C30.0832 31.6569 30.1114 30.2525 29.8754 28.585C29.7677 27.8245 29.6036 27.0199 29.39 26.1797ZM22.8519 27.1553C22.2203 27.1959 21.5779 27.225 20.9261 27.2383L20.0004 27.2481C19.0293 27.2481 18.0762 27.215 17.1469 27.1553C18.0818 28.421 19.0412 29.5645 19.9994 30.5626C20.9576 29.5645 21.9169 28.421 22.8519 27.1553ZM20.0004 13.6866C18.7772 13.6866 17.5857 13.7352 16.4379 13.8301C15.7817 14.7768 15.1432 15.7845 14.5316 16.8438C13.9203 17.9027 13.3679 18.9589 12.8763 20.0001C13.368 21.0415 13.9211 22.0981 14.5326 23.1573C15.144 24.2162 15.7829 25.2227 16.4388 26.169C17.5864 26.2639 18.7776 26.3145 20.0004 26.3145C21.2228 26.3145 22.4136 26.2639 23.5609 26.169C24.217 25.2226 24.8567 24.2163 25.4681 23.1573C26.0795 22.0983 26.6308 21.0414 27.1224 20.0001C26.631 18.959 26.0794 17.9025 25.4681 16.8438C24.8564 15.7843 24.2172 14.7769 23.5609 13.8301C22.4137 13.7353 21.2228 13.6866 20.0004 13.6866ZM12.3763 21.1075C11.7478 22.55 11.2371 23.9525 10.8519 25.2813C12.1956 25.6122 13.6659 25.871 15.2299 26.0479C14.8788 25.521 14.5322 24.9789 14.1947 24.421L13.724 23.6241C13.2385 22.7832 12.7893 21.9421 12.3763 21.1075ZM27.6224 21.1065C27.2095 21.9411 26.7622 22.7832 26.2767 23.6241L25.8051 24.421C25.4674 24.9791 25.1201 25.5209 24.7689 26.0479C26.3329 25.871 27.8031 25.6122 29.1469 25.2813C28.7615 23.9522 28.2512 22.5493 27.6224 21.1065ZM9.95056 14.9581C9.11695 15.193 8.33919 15.4545 7.62732 15.7413C6.06506 16.3706 4.86305 17.0971 4.06677 17.8555C3.27291 18.6117 2.94275 19.3373 2.94275 20.001C2.94307 20.6646 3.27312 21.3896 4.06677 22.1456C4.86308 22.9039 6.06512 23.6305 7.62732 24.2598C8.33941 24.5467 9.11764 24.807 9.95154 25.0421C10.4151 23.4386 11.05 21.7386 11.849 19.9991C11.0503 18.2601 10.414 16.5612 9.95056 14.9581ZM30.0482 14.9571C29.5847 16.5605 28.9487 18.2597 28.1498 19.9991C28.9488 21.7386 29.5837 23.4385 30.0472 25.0421C30.8815 24.807 31.6601 24.5468 32.3724 24.2598C33.9346 23.6305 35.1367 22.9039 35.933 22.1456C36.7267 21.3896 37.0577 20.6646 37.058 20.001C37.058 19.3373 36.7269 18.6118 35.933 17.8555C35.1367 17.0972 33.9346 16.3706 32.3724 15.7413C31.6602 15.4544 30.8823 15.1921 30.0482 14.9571ZM19.9799 17.3135C21.5 17.3137 22.7318 18.5463 22.7318 20.0665C22.7318 21.5866 21.5 22.8192 19.9799 22.8194C18.4596 22.8194 17.2269 21.5867 17.2269 20.0665C17.227 18.5462 18.4596 17.3135 19.9799 17.3135ZM15.2289 13.9512C13.6653 14.1281 12.1953 14.3871 10.8519 14.7178C11.2372 16.0469 11.7476 17.4498 12.3763 18.8926C12.6571 18.3253 12.9545 17.7549 13.2689 17.1837L13.723 16.377C14.2085 15.5361 14.7126 14.7262 15.2289 13.9512ZM24.7699 13.9512C25.2863 14.7264 25.7911 15.5359 26.2767 16.377L26.7308 17.1837C27.0452 17.7547 27.3417 18.3254 27.6224 18.8926C28.2512 17.4498 28.7616 16.0469 29.1469 14.7178C27.8035 14.3871 26.3334 14.1281 24.7699 13.9512ZM28.5287 5.2276C27.9538 4.89588 27.1605 4.81953 26.1088 5.12897C25.0538 5.43941 23.8236 6.11707 22.4974 7.15534C21.893 7.62856 21.278 8.17181 20.6576 8.77643C21.8144 9.97949 22.9677 11.38 24.0746 12.9415C25.9803 13.1192 27.7697 13.4192 29.39 13.8194C29.6035 12.9795 29.7677 12.1754 29.8754 11.4151C30.1114 9.74764 30.0831 8.34325 29.8246 7.27448C29.5667 6.20881 29.1035 5.55956 28.5287 5.2276ZM13.891 5.12897C12.839 4.81947 12.046 4.89666 11.4711 5.22858C10.8965 5.56053 10.434 6.2083 10.1761 7.2735C9.9175 8.34225 9.88932 9.74657 10.1254 11.4141C10.233 12.1741 10.3954 12.9788 10.6088 13.8184C12.229 13.4182 14.0185 13.1193 15.9242 12.9415C17.0311 11.3798 18.1843 9.97864 19.3412 8.77545C18.7211 8.17122 18.1064 7.62831 17.5023 7.15534C16.1761 6.11699 14.946 5.43938 13.891 5.12897ZM19.9994 9.43659C19.0412 10.4346 18.0818 11.5782 17.1469 12.8438C18.0762 12.7841 19.0293 12.753 20.0004 12.753L20.9261 12.7628C21.5782 12.7761 22.221 12.8042 22.8529 12.8448C21.9176 11.5787 20.9579 10.4349 19.9994 9.43659Z" fill="#D9D9D9"/>
</svg>
