<svg width="24" height="16" viewBox="0 0 24 16" fill="none" xmlns="http://www.w3.org/2000/svg">
<path d="M9.66667 7.16872C10.9917 6.49522 11.6833 5.47611 11.6833 3.88985C11.6833 0.761627 9.49167 -0.000488281 6.9625 -0.000488281H0V15.7026H7.15833C9.84167 15.7026 12.3625 14.3335 12.3625 11.1432C12.3625 9.17149 11.4833 7.71372 9.66667 7.16872ZM3.24583 2.68021H6.29167C7.4625 2.68021 8.51667 3.03025 8.51667 4.47473C8.51667 5.80843 7.69583 6.34457 6.5375 6.34457H3.24583V2.68021ZM6.71667 13.0352H3.24583V8.71067H6.78333C8.2125 8.71067 9.11667 9.34429 9.11667 10.9527C9.11667 12.539 8.0375 13.0352 6.71667 13.0352ZM21.6542 2.37005H15.6667V0.82366H21.6542V2.37005ZM24 10.1817C24 6.81868 22.15 4.01391 18.7958 4.01391C15.5375 4.01391 13.325 6.61928 13.325 10.0311C13.325 13.5714 15.4208 15.9995 18.7958 15.9995C21.35 15.9995 23.0042 14.7766 23.8 12.1756H21.2083C20.9292 13.146 19.7792 13.66 18.8875 13.66C17.1667 13.66 16.2625 12.5877 16.2625 10.7666H23.975C23.9875 10.5805 24 10.3811 24 10.1817ZM16.2667 8.79929C16.3625 7.30608 17.2958 6.37115 18.7042 6.37115C20.1792 6.37115 20.9208 7.29278 21.0458 8.79929H16.2667Z" fill="#A2A2A2"/>
</svg>
