<svg width="24" height="24" viewBox="0 0 24 24" fill="none" xmlns="http://www.w3.org/2000/svg">
<path d="M18.0381 8.07422C20.4325 8.07422 21.7382 8.85198 22.4844 10.0371C23.2639 11.2753 23.5 13.0547 23.5 15.1973V23.499H19.5293V16.1992C19.5293 15.2918 19.5266 14.1304 19.1572 13.1973C18.9668 12.7164 18.6704 12.2702 18.209 11.9482C17.7463 11.6255 17.1595 11.457 16.4424 11.457C15.7308 11.4571 15.1331 11.5956 14.6426 11.8672C14.1492 12.1404 13.7937 12.5317 13.543 12.9863C13.0546 13.8721 12.959 15.0117 12.959 16.0654V23.499H8.98926V8.47656H12.7607V10.6621H13.6318L13.7725 10.3955C14.3543 9.29279 15.8117 8.0744 18.0381 8.07422ZM4.87207 8.47656V23.499H0.896484V8.47656H4.87207ZM2.88184 0.5C3.51327 0.500061 4.11887 0.750844 4.56543 1.19727C5.01207 1.6439 5.26367 2.25019 5.26367 2.88184L5.25098 3.12598C5.12846 4.3341 4.10843 5.2909 2.88184 5.29102C1.5731 5.29102 0.500124 4.20282 0.5 2.88184L0.511719 2.64648C0.565802 2.10118 0.806395 1.58814 1.19727 1.19727C1.58814 0.806395 2.10118 0.565802 2.64648 0.511719L2.88184 0.5Z" stroke="black" stroke-opacity="0.01"/>
</svg>
