<svg width="61" height="60" viewBox="0 0 61 60" fill="none" xmlns="http://www.w3.org/2000/svg">
<path fill-rule="evenodd" clip-rule="evenodd" d="M45.1455 42.8783C44.9842 41.7388 44.7429 40.5324 44.4232 39.2738C41.9924 39.8744 39.3073 40.3243 36.448 40.5911C34.7874 42.9338 33.0552 45.0342 31.3197 46.839C32.2499 47.7453 33.174 48.5574 34.0802 49.2669C36.0695 50.8244 37.9142 51.8413 39.4966 52.3069C41.0746 52.7712 42.2641 52.6562 43.1265 52.1583C43.9888 51.6605 44.6832 50.6878 45.0701 49.0891C45.4581 47.4858 45.4997 45.3799 45.1455 42.8783ZM43.8265 53.3708C47.0223 51.5257 47.5641 45.9425 45.7768 38.9164C52.7553 36.9512 57.3196 33.6903 57.3196 30C57.3196 26.3098 52.7553 23.0489 45.7768 21.0837C47.5641 14.0576 47.0223 8.47436 43.8265 6.62922C40.6306 4.78408 35.5245 7.10646 30.3333 12.1674C25.1422 7.10641 20.0361 4.78401 16.8402 6.62916C13.6443 8.47431 13.1025 14.0576 14.8898 21.0837C7.91135 23.0489 3.34705 26.3098 3.34705 30C3.34705 33.6903 7.91134 36.9511 14.8898 38.9164C13.1025 45.9425 13.6443 51.5257 16.8402 53.3708C20.0361 55.216 25.1422 52.8936 30.3333 47.8326C35.5245 52.8935 40.6306 55.2159 43.8265 53.3708ZM26.5865 10.7331C27.4927 11.4425 28.4168 12.2547 29.347 13.161C27.6114 14.9658 25.8793 17.0663 24.2186 19.409C21.3594 19.6758 18.6743 20.1257 16.2435 20.7263C15.9237 19.4676 15.6824 18.2612 15.5211 17.1216C15.1669 14.6201 15.2086 12.5141 15.5966 10.9109C15.9835 9.3121 16.6778 8.33948 17.5402 7.84159C18.4025 7.34371 19.592 7.22871 21.17 7.69302C22.7525 8.15863 24.5971 9.17555 26.5865 10.7331ZM11.7743 23.6115C12.8418 23.1814 14.0072 22.7872 15.2572 22.4347C15.9524 24.8402 16.9053 27.3905 18.1038 30C16.9053 32.6096 15.9524 35.1599 15.2571 37.5653C14.0072 37.2129 12.8418 36.8187 11.7743 36.3886C9.43075 35.4446 7.62777 34.3555 6.43331 33.2179C5.2422 32.0834 4.74705 30.9958 4.74705 30C4.74705 29.0043 5.2422 27.9167 6.43331 26.7822C7.62777 25.6446 9.43075 24.5555 11.7743 23.6115ZM16.6112 22.0776C17.1891 24.0712 17.9521 26.1768 18.8952 28.3411C19.5149 27.0885 20.1898 25.8265 20.9185 24.5644C21.6472 23.3023 22.4026 22.0868 23.1776 20.9238C20.8317 21.1892 18.6267 21.5812 16.6112 22.0776ZM16.6112 37.9225C17.1891 35.9288 17.9521 33.8232 18.8952 31.6589C19.5149 32.9115 20.1898 34.1735 20.9185 35.4356C21.6472 36.6978 22.4027 37.9132 23.1776 39.0763C20.8318 38.8109 18.6267 38.4189 16.6112 37.9225ZM22.1309 34.7356C23.0481 36.3242 24.0067 37.834 24.9908 39.2537C26.7122 39.3961 28.499 39.4714 30.3333 39.4714C32.1677 39.4714 33.9544 39.3961 35.6759 39.2537C36.66 37.8341 37.6185 36.3243 38.5357 34.7357C39.4529 33.1471 40.2811 31.5621 41.0185 30C40.2811 28.4379 39.4529 26.8529 38.5357 25.2643C37.6186 23.6758 36.66 22.166 35.676 20.7464C33.9545 20.604 32.1677 20.5287 30.3333 20.5287C28.499 20.5287 26.7122 20.604 24.9907 20.7464C24.0066 22.166 23.0481 23.6758 22.1309 25.2644C21.2138 26.853 20.3855 28.4379 19.6482 30C20.3855 31.562 21.2138 33.147 22.1309 34.7356ZM30.3333 40.8714C28.876 40.8714 27.4457 40.8248 26.0509 40.7352C27.4537 42.6341 28.8957 44.3477 30.3333 45.8449C31.771 44.3477 33.2129 42.6341 34.6157 40.7352C33.221 40.8248 31.7907 40.8714 30.3333 40.8714ZM29.347 46.839C27.6114 45.0342 25.8793 42.9338 24.2186 40.5911C21.3594 40.3243 18.6743 39.8744 16.2435 39.2737C15.9237 40.5325 15.6824 41.7389 15.5211 42.8784C15.1669 45.38 15.2086 47.4859 15.5966 49.0891C15.9835 50.6879 16.6778 51.6605 17.5402 52.1584C18.4025 52.6563 19.592 52.7713 21.17 52.307C22.7525 51.8414 24.5971 50.8245 26.5865 49.2669C27.4926 48.5575 28.4168 47.7453 29.347 46.839ZM45.4095 22.4347C44.7143 24.8402 43.7613 27.3905 42.5628 30C43.7613 32.6096 44.7143 35.1599 45.4095 37.5653C46.6595 37.2129 47.8249 36.8187 48.8924 36.3886C51.2359 35.4446 53.0389 34.3555 54.2334 33.2179C55.4245 32.0834 55.9196 30.9958 55.9196 30C55.9196 29.0043 55.4245 27.9167 54.2334 26.7822C53.0389 25.6446 51.2359 24.5555 48.8924 23.6115C47.8249 23.1814 46.6595 22.7872 45.4095 22.4347ZM44.0554 37.9225C43.4776 35.9289 42.7145 33.8232 41.7715 31.6589C41.1517 32.9116 40.4768 34.1736 39.7481 35.4357C39.0195 36.6978 38.264 37.9133 37.489 39.0763C39.8349 38.8109 42.04 38.4189 44.0554 37.9225ZM39.7481 24.5643C40.4768 25.8264 41.1517 27.0884 41.7715 28.3411C42.7145 26.1768 43.4776 24.0712 44.0554 22.0776C42.04 21.5812 39.8349 21.1892 37.4891 20.9238C38.264 22.0868 39.0195 23.3022 39.7481 24.5643ZM44.4231 20.7263C41.9924 20.1257 39.3073 19.6758 36.4481 19.409C34.7874 17.0663 33.0553 14.9658 31.3197 13.161C32.2499 12.2547 33.174 11.4426 34.0802 10.7331C36.0695 9.17561 37.9141 8.15869 39.4966 7.69308C41.0746 7.22878 42.2641 7.34377 43.1265 7.84165C43.9888 8.33954 44.6831 9.31216 45.0701 10.9109C45.4581 12.5142 45.4997 14.6201 45.1455 17.1217C44.9842 18.2612 44.7429 19.4676 44.4231 20.7263ZM30.3333 14.1551C31.771 15.6523 33.213 17.366 34.6158 19.2649C33.2211 19.1753 31.7907 19.1287 30.3333 19.1287C28.876 19.1287 27.4456 19.1753 26.0509 19.2649C27.4537 17.366 28.8957 15.6523 30.3333 14.1551ZM30.3026 34.2288C32.583 34.2288 34.4317 32.3801 34.4317 30.0997C34.4317 27.8193 32.583 25.9707 30.3026 25.9707C28.0222 25.9707 26.1736 27.8193 26.1736 30.0997C26.1736 32.3801 28.0222 34.2288 30.3026 34.2288Z" fill="#D9D9D9"/>
</svg>
