<svg width="24" height="24" viewBox="0 0 24 24" fill="none" xmlns="http://www.w3.org/2000/svg">
<path d="M12.0027 5.84621C8.59743 5.84621 5.85075 8.59351 5.85075 11.9995C5.85075 15.4055 8.59743 18.1528 12.0027 18.1528C15.4079 18.1528 18.1546 15.4055 18.1546 11.9995C18.1546 8.59351 15.4079 5.84621 12.0027 5.84621ZM12.0027 16C9.80212 16 8.00312 14.2059 8.00312 11.9995C8.00312 9.79311 9.79677 7.99907 12.0027 7.99907C14.2086 7.99907 16.0022 9.79311 16.0022 11.9995C16.0022 14.2059 14.2032 16 12.0027 16ZM19.8412 5.59451C19.8412 6.39246 19.1987 7.02975 18.4062 7.02975C17.6085 7.02975 16.9713 6.38711 16.9713 5.59451C16.9713 4.80192 17.6138 4.15928 18.4062 4.15928C19.1987 4.15928 19.8412 4.80192 19.8412 5.59451ZM23.9157 7.05117C23.8247 5.1286 23.3856 3.4256 21.9775 2.0225C20.5747 0.619393 18.8721 0.180255 16.9499 0.0838585C14.9689 -0.0286039 9.03112 -0.0286039 7.05008 0.0838585C5.1333 0.174899 3.43068 0.614038 2.02253 2.01714C0.614389 3.42024 0.180703 5.12324 0.0843279 7.04581C-0.0281093 9.02729 -0.0281093 14.9664 0.0843279 16.9479C0.175349 18.8704 0.614389 20.5734 2.02253 21.9765C3.43068 23.3796 5.12794 23.8188 7.05008 23.9152C9.03112 24.0276 14.9689 24.0276 16.9499 23.9152C18.8721 23.8241 20.5747 23.385 21.9775 21.9765C23.3803 20.5734 23.8193 18.8704 23.9157 16.9479C24.0281 14.9664 24.0281 9.03265 23.9157 7.05117ZM21.3564 19.0739C20.9388 20.1236 20.1303 20.9322 19.0755 21.3553C17.496 21.9819 13.7481 21.8373 12.0027 21.8373C10.2572 21.8373 6.50396 21.9765 4.92984 21.3553C3.88042 20.9376 3.07195 20.1289 2.64897 19.0739C2.02253 17.4941 2.16709 13.7454 2.16709 11.9995C2.16709 10.2537 2.02789 6.49957 2.64897 4.92509C3.06659 3.87545 3.87507 3.06679 4.92984 2.64372C6.50931 2.01714 10.2572 2.16173 12.0027 2.16173C13.7481 2.16173 17.5014 2.0225 19.0755 2.64372C20.1249 3.06143 20.9334 3.87009 21.3564 4.92509C21.9828 6.50492 21.8383 10.2537 21.8383 11.9995C21.8383 13.7454 21.9828 17.4995 21.3564 19.0739Z" fill="#A2A2A2"/>
</svg>
