<svg width="68" height="34" viewBox="0 0 68 34" fill="none" xmlns="http://www.w3.org/2000/svg">
<path d="M3.18734 30.8001L0 34H8.3292C16.0237 34 23.4032 30.9438 28.8446 25.5034L32.526 21.8228C35.6102 18.7392 39.7929 17.0069 44.1542 17.0069C48.5175 17.0069 52.702 15.273 55.7865 12.1869L57.774 10.1984H44.159C46.3451 8.01752 49.3069 6.79275 52.3947 6.79275H54.3798C58.7325 6.79275 62.9081 5.06875 65.993 1.99791L68 2.914e-06L58.2147 0C49.2135 0 40.5793 3.56836 34.2044 9.9231L20.4264 23.6575C18.142 25.9348 15.0478 27.2135 11.8222 27.2135C8.58154 27.2135 5.47432 28.5041 3.18734 30.8001Z" fill="black"/>
</svg>
