<svg width="64" height="32" viewBox="0 0 64 32" fill="none" xmlns="http://www.w3.org/2000/svg">
<path d="M2.99985 28.9883L0 32H7.83926C15.0812 32 22.0265 29.1235 27.1479 24.0032L30.6127 20.5391C33.5155 17.6369 37.4522 16.0065 41.5569 16.0065C45.6635 16.0065 49.6019 14.3746 52.505 11.47L54.3755 9.5985H41.5614C43.6189 7.5459 46.4065 6.39317 49.3127 6.39317H51.181C55.2777 6.39317 59.2076 4.77058 62.111 1.88039L64 2.74258e-06L54.7903 0C46.3186 0 38.1923 3.35846 32.1924 9.33939L19.2249 22.2659C17.0748 24.4092 14.1627 25.6127 11.1268 25.6127C8.07674 25.6127 5.1523 26.8274 2.99985 28.9883Z" fill="black"/>
</svg>
