<svg width="250" height="180" viewBox="0 0 250 180" fill="none" xmlns="http://www.w3.org/2000/svg">
<g clip-path="url(#clip0_246_3164)">
<path d="M140.121 0.000313728C140.344 0.354811 140.565 0.710984 140.774 1.07434C141.248 1.67383 141.786 1.98427 142.436 2.38043C145.491 4.2569 147.636 6.6588 148.69 10.1555C148.69 10.4068 148.69 10.6581 148.69 10.9171C148.903 10.979 149.117 11.0408 149.337 11.1045C150.287 11.4565 151.094 11.9309 151.934 12.488C152.088 12.5897 152.242 12.6914 152.401 12.7963C155.54 14.9042 155.54 14.9042 156.077 16.4231C155.998 17.2641 155.998 17.2641 155.454 17.8155C154.184 18.6388 152.92 18.4601 151.462 18.2796C150.006 17.9501 148.591 17.4876 147.177 17.0102C146.217 18.8172 145.511 20.6402 144.862 22.5796C144.141 24.6629 143.351 26.658 142.326 28.6093C142.175 28.8981 142.175 28.8981 142.021 29.1928C141.145 30.8019 140.134 32.2073 138.609 33.2584C138.359 33.2584 138.11 33.2584 137.853 33.2584C137.853 33.426 137.853 33.5935 137.853 33.7662C138.049 33.7861 138.246 33.8061 138.448 33.8267C139.686 34.0879 140.778 34.5713 141.932 35.0832C142.184 35.1943 142.436 35.3055 142.696 35.42C147.775 37.7012 152.647 40.449 157.51 43.1597C157.734 43.2844 157.957 43.4091 158.188 43.5375C159.475 44.2557 160.761 44.9761 162.046 45.6985C162.056 45.5075 162.065 45.3166 162.074 45.1199C162.215 42.8096 162.597 40.5803 163.07 38.3201C163.109 38.1337 163.147 37.9472 163.187 37.7551C167.188 18.5104 167.188 18.5104 173.453 13.2327C174.947 12.2619 176.451 12.2706 178.175 12.4404C181.154 13.148 184.216 15.5626 185.879 18.1269C186.964 20.0523 187.184 21.6486 186.996 23.8649C186.762 24.658 186.529 24.9825 185.988 25.6421C185.733 25.7363 185.479 25.8306 185.216 25.9277C184.411 26.3313 184.411 26.3313 184.255 27.1376C184.139 27.7289 184.026 28.3206 183.914 28.9127C183.648 29.9966 183.372 30.3606 182.46 30.9735C181.83 31.2274 181.83 31.2274 181.2 31.2274C180.279 30.8079 179.711 30.3176 179.183 29.4502C179.183 29.2827 179.183 29.1151 179.183 28.9425C178.601 29.0263 178.019 29.11 177.419 29.1964C177.503 29.4477 177.586 29.699 177.671 29.958C178.22 34.1325 178.229 38.385 178.238 42.5885C178.24 42.8136 178.241 43.0388 178.242 43.2708C178.273 49.9734 178.273 49.9734 177.419 52.5532C177.675 52.475 177.93 52.3969 178.193 52.3163C179.574 51.9196 180.987 51.7606 182.408 51.5733C182.913 51.5064 183.417 51.4364 183.921 51.3661C187.6 50.8734 187.6 50.8734 189.264 51.0299C189.666 51.4351 189.556 51.8556 189.558 52.4157C189.544 53.7414 189.357 54.9804 189.093 56.2761C189.049 56.4987 189.006 56.7214 188.961 56.9507C188.823 57.6539 188.681 58.3563 188.54 59.0588C188.446 59.5315 188.354 60.0042 188.261 60.477C187.878 62.4173 187.486 64.3463 186.996 66.2626C187.145 66.2106 187.294 66.1586 187.448 66.105C187.647 66.0366 187.846 65.9682 188.051 65.8977C188.247 65.83 188.443 65.7622 188.645 65.6924C191.33 64.8623 194.734 64.8708 197.329 66.0088C200.358 67.6963 202.532 70.3679 204.369 73.2602C204.543 73.5278 204.716 73.7955 204.895 74.0713C205.4 74.8517 205.901 75.6345 206.401 76.4178C206.651 76.8045 206.902 77.1909 207.152 77.5771C207.712 78.4404 208.266 79.3068 208.818 80.175C209.066 80.5653 209.315 80.9553 209.564 81.345C213.375 87.3061 217.002 93.3767 220.514 99.5208C220.674 99.7995 220.833 100.078 220.997 100.365C223.347 104.479 225.661 108.612 227.933 112.77C228.19 113.236 228.451 113.7 228.715 114.161C228.832 114.365 228.948 114.568 229.068 114.778C229.17 114.954 229.272 115.13 229.378 115.311C229.587 115.769 229.587 115.769 229.524 116.467C228.913 117.259 228.189 117.822 227.319 118.308C227.152 118.308 226.986 118.308 226.815 118.308C227.028 118.652 227.028 118.652 227.247 119.003C227.433 119.305 227.62 119.608 227.807 119.91C227.901 120.061 227.995 120.212 228.092 120.368C228.5 121.031 228.837 121.627 229.083 122.37C229.242 122.345 229.401 122.32 229.565 122.294C231.229 122.034 232.893 121.775 234.557 121.516C235.177 121.419 235.797 121.323 236.417 121.226C237.311 121.086 238.205 120.947 239.099 120.808C239.374 120.765 239.649 120.722 239.932 120.677C241.992 120.358 244.021 120.045 246.109 120.069C246.37 120.071 246.63 120.074 246.898 120.076C247.186 120.08 248.488 119.91 249.496 120.677C250.194 122.815 250 124.591 247.48 126.432C244.582 128.844 241.816 130.583 238.956 132.255C237.258 133.254 235.644 134.365 234.03 135.495C233.251 136.038 232.464 136.571 231.678 137.105C230.575 137.856 229.479 138.614 228.387 139.381C227.762 139.819 227.134 140.254 226.505 140.688C226.211 140.892 225.919 141.098 225.627 141.306C225.228 141.591 224.824 141.869 224.42 142.147C224.194 142.305 223.968 142.464 223.735 142.628C222.812 143.031 222.235 142.922 221.27 142.68C219.124 140.585 218.199 136.75 217.521 133.905C216.933 131.544 215.801 129.466 214.466 127.447C214.284 127.615 214.102 127.783 213.914 127.955C213.129 128.518 212.879 128.609 211.946 128.463C211.502 128.005 211.502 128.005 211.106 127.37C210.89 127.03 210.89 127.03 210.67 126.683C210.525 126.443 210.379 126.203 210.229 125.956C210.078 125.718 209.928 125.48 209.772 125.235C208.669 123.47 208.669 123.47 208.669 122.878C207.422 122.878 206.174 122.878 204.889 122.878C204.926 123.323 204.962 123.769 205 124.228C205.43 129.474 205.858 134.72 206.284 139.966C206.363 140.945 206.443 141.923 206.523 142.902C206.749 145.685 206.975 148.467 207.199 151.249C207.298 152.48 207.397 153.711 207.498 154.942C207.592 156.108 207.687 157.274 207.78 158.441C207.815 158.871 207.849 159.301 207.885 159.73C207.933 160.322 207.98 160.914 208.027 161.505C208.054 161.837 208.081 162.168 208.109 162.51C208.171 163.599 208.165 164.692 208.165 165.783C217.48 165.783 226.794 165.783 236.391 165.783C236.474 166.118 236.557 166.453 236.643 166.799C236.139 167.306 236.139 167.306 235.571 167.37C235.213 167.369 235.213 167.369 234.848 167.369C234.574 167.37 234.301 167.371 234.019 167.372C233.567 167.37 233.567 167.37 233.106 167.368C232.789 167.369 232.473 167.369 232.147 167.369C231.278 167.371 230.409 167.369 229.54 167.366C228.632 167.364 227.723 167.364 226.815 167.365C225.29 167.364 223.764 167.362 222.239 167.359C220.474 167.355 218.709 167.353 216.944 167.353C215.248 167.354 213.552 167.352 211.856 167.35C211.133 167.349 210.41 167.349 209.688 167.349C208.679 167.348 207.671 167.346 206.663 167.343C206.361 167.343 206.06 167.343 205.749 167.344C205.476 167.342 205.202 167.341 204.92 167.34C204.682 167.34 204.443 167.339 204.197 167.339C203.629 167.306 203.629 167.306 203.125 167.052C203.125 167.22 203.125 167.388 203.125 167.56C203.3 167.586 203.475 167.611 203.656 167.637C204.516 167.846 205.191 168.192 205.972 168.609C206.196 168.729 206.196 168.729 206.425 168.852C206.741 169.021 207.056 169.192 207.37 169.363C207.844 169.62 208.319 169.872 208.795 170.125C211.675 171.67 215.097 173.664 216.23 176.954C216.403 178.89 216.403 178.89 215.978 179.746C213.856 180.314 211.509 179.903 209.355 179.706C208.953 179.671 208.552 179.635 208.151 179.6C203.933 179.222 199.73 178.714 195.528 178.186C194.732 178.087 193.936 177.989 193.139 177.891C190.85 177.61 188.562 177.321 186.275 177.024C185.737 176.954 185.199 176.885 184.661 176.816C183.667 176.689 182.673 176.556 181.68 176.421C181.238 176.365 181.238 176.365 180.787 176.307C180.384 176.251 180.384 176.251 179.973 176.194C179.74 176.163 179.507 176.132 179.267 176.1C178.601 175.917 178.337 175.728 177.923 175.177C177.515 172.593 178.268 169.79 178.679 167.306C152.233 167.306 125.786 167.306 98.5383 167.306C98.5383 167.306 96.4741 167.306 96.5222 167.306C96.2473 167.307 96.2473 167.307 95.9669 167.307C85.1163 167.318 74.2657 167.327 63.4152 167.332C62.1136 167.333 60.812 167.334 59.5104 167.334C59.2512 167.334 58.9921 167.335 58.7251 167.335C54.5242 167.337 50.3232 167.341 46.1223 167.346C41.8147 167.35 37.5071 167.353 33.1995 167.354C30.5395 167.355 27.8795 167.357 25.2195 167.361C23.3977 167.364 21.576 167.365 19.7542 167.364C18.7017 167.364 17.6492 167.364 16.5967 167.367C15.6344 167.369 14.6722 167.369 13.71 167.368C13.3606 167.368 13.0112 167.368 12.6618 167.37C12.1894 167.372 11.717 167.37 11.2446 167.369C10.9814 167.369 10.7183 167.369 10.4471 167.369C9.82864 167.306 9.82863 167.306 9.3246 166.799C9.40776 166.463 9.49093 166.128 9.57661 165.783C13.1527 165.699 16.7288 165.616 20.4133 165.529C19.9143 164.524 19.4153 163.518 18.9012 162.483C18.6143 161.757 18.3437 161.047 18.0979 160.309C18.0355 160.124 17.973 159.939 17.9087 159.749C17.7327 159.223 17.5606 158.695 17.3891 158.167C17.3053 157.918 17.2215 157.669 17.1351 157.413C15.9463 153.553 16.0754 149.117 17.7396 145.429C18.8099 143.534 20.3026 141.794 22.4294 141.157C24.3265 140.681 25.7646 140.977 27.4698 141.918C28.1471 142.426 28.1471 142.426 28.4778 142.934C28.4375 143.432 28.4375 143.432 28.2258 143.95C27.7671 144.293 27.7671 144.293 27.1862 144.616C24.0163 146.643 22.922 150.62 22.1223 154.121C21.8412 155.458 21.7247 156.802 21.6734 158.167C21.9229 158.167 22.1724 158.167 22.4294 158.167C22.4163 157.725 22.4163 157.725 22.4029 157.274C22.404 156.199 22.5825 155.205 22.8547 154.168C22.9228 153.905 22.9228 153.905 22.9922 153.636C23.824 150.536 25.0529 147.392 27.705 145.432C28.5283 145.095 29.3597 145.054 30.2419 144.965C30.3248 139.636 30.3248 139.636 30.0214 134.318C30.0016 134.108 29.9819 133.899 29.9615 133.683C29.8322 132.486 29.595 131.388 29.2339 130.24C29.1325 130.452 29.1325 130.452 29.0291 130.668C27.5765 133.518 25.4787 135.227 22.4924 136.27C18.348 137.6 14.096 136.858 10.3013 134.889C7.68578 133.468 5.59571 131.622 3.53586 129.49C2.43603 128.355 1.28942 127.346 0 126.432C0.264383 124.705 2.02754 123.757 3.32543 122.778C8.91582 118.772 16.2661 115.808 23.1855 115.515C23.3635 115.505 23.5415 115.495 23.725 115.484C26.5199 115.398 29.6065 115.755 31.7324 117.743C32.7404 118.882 33.1135 119.768 33.082 121.34C32.9648 122.241 32.5982 122.714 32.006 123.385C30.3536 124.655 30.3536 124.655 29.2339 124.655C29.7211 126.274 30.2148 127.884 30.7775 129.478C31.9658 133.123 31.7895 136.747 31.6867 140.533C31.6685 141.247 31.658 141.96 31.6487 142.674C31.6406 142.893 31.6325 143.112 31.6242 143.338C31.6193 143.908 31.623 144.41 31.754 144.965C32.3397 145.497 32.3397 145.497 33.0141 145.727C33.0973 145.81 33.1804 145.894 33.2661 145.981C33.2899 143.739 33.3119 141.535 33.02 139.306C33.0139 138.598 33.1729 138.06 33.3823 137.389C33.6876 136.157 33.7325 134.866 33.8489 133.604C34.4803 127.428 36.125 122.177 40.0706 117.292C39.7197 117.017 39.7197 117.017 39.3618 116.737C38.4755 115.977 37.8859 115.372 37.7227 114.162C37.6556 112.705 37.8054 111.808 38.8105 110.691C40.8842 108.797 43.6312 108.311 46.3592 108.353C53.9795 108.884 60.4816 112.936 65.6984 118.395C68.2045 121.3 70.442 124.485 70.3125 128.463C70.2293 128.547 70.1462 128.63 70.0605 128.717C68.3558 128.625 66.7437 128.236 65.094 127.818C64.8309 127.752 64.8309 127.752 64.5624 127.685C64.4079 127.646 64.2534 127.606 64.0942 127.565C62.2378 127.192 60.4475 127.169 58.5613 127.196C57.9878 127.2 57.4144 127.204 56.841 127.208C55.9474 127.216 55.054 127.225 54.1605 127.237C44.2605 127.361 44.2605 127.361 41.0304 124.403C40.2506 123.534 39.6487 122.619 39.0625 121.608C36.7622 125.702 35.3499 130.582 35.5343 135.318C36.3659 135.234 37.1976 135.15 38.0544 135.064C38.1012 134.718 38.148 134.373 38.1962 134.017C38.4582 132.865 38.8383 132.278 39.7811 131.582C42.4524 129.972 45.4928 129.809 48.5062 130.417C53.3953 131.929 56.8779 135.773 59.2523 140.197C61.3777 144.355 62.2927 148.726 62.2952 153.375C62.2983 153.671 62.3014 153.967 62.3046 154.272C62.3051 154.558 62.3056 154.844 62.3061 155.138C62.3071 155.397 62.3081 155.655 62.3092 155.922C62.2452 156.676 62.0581 157.229 61.744 157.913C60.7317 157.76 60.0983 157.232 59.2868 156.628C54.7146 153.354 46.9612 149.789 41.3306 149.789C38.3655 155.026 37.2495 159.682 36.0383 165.783C46.8498 165.783 57.6613 165.783 68.8004 165.783C68.8004 164.945 68.8004 164.107 68.8004 163.244C68.8367 162.592 68.8811 161.941 68.9343 161.29C68.9488 161.11 68.9632 160.931 68.978 160.746C69.0258 160.153 69.075 159.56 69.1243 158.968C69.1591 158.539 69.1939 158.111 69.2286 157.682C69.3031 156.764 69.3782 155.846 69.4538 154.928C69.5734 153.476 69.6916 152.024 69.8095 150.572C69.9962 148.276 70.1838 145.98 70.3718 143.685C70.7088 139.57 71.0446 135.456 71.3794 131.341C71.4969 129.898 71.615 128.454 71.7335 127.011C71.807 126.114 71.8802 125.217 71.9532 124.321C71.9872 123.905 72.0213 123.489 72.0556 123.073C72.1025 122.506 72.1486 121.938 72.1947 121.371C72.2207 121.053 72.2467 120.735 72.2735 120.408C72.3008 119.997 72.3008 119.997 72.3286 119.577C72.346 119.344 72.3634 119.11 72.3813 118.87C72.3836 118.212 72.3836 118.212 71.6198 117.673C71.4818 117.567 71.3437 117.46 71.2014 117.351C69.9454 116.331 69.7655 114.754 69.5565 113.23C69.5565 112.895 69.5565 112.56 69.5565 112.215C69.3018 112.241 69.0471 112.267 68.7847 112.294C67.0201 112.285 65.3919 111.555 63.7601 110.945C63.546 110.868 63.332 110.79 63.1115 110.71C62.4275 110.461 61.7469 110.205 61.0667 109.946C60.8496 109.867 60.6325 109.788 60.4088 109.706C59.0856 109.187 58.3315 108.75 57.7117 107.391C57.5955 106.594 57.5955 106.594 57.6172 105.804C57.6204 105.541 57.6237 105.278 57.627 105.007C57.7117 104.344 57.7117 104.344 58.2157 103.837C58.7356 103.776 58.7356 103.776 59.3834 103.779C59.6255 103.779 59.8677 103.779 60.1172 103.779C60.3792 103.782 60.6412 103.784 60.9111 103.787C61.1789 103.788 61.4467 103.789 61.7226 103.789C62.5803 103.792 63.4379 103.799 64.2956 103.805C64.8761 103.808 65.4566 103.81 66.0371 103.812C67.4622 103.818 68.8874 103.826 70.3125 103.837C70.2655 103.502 70.2655 103.502 70.2175 103.16C69.8722 100.636 69.6079 98.1104 69.3733 95.5737C69.3346 95.1598 69.2957 94.7458 69.2569 94.3319C69.1764 93.4734 69.0964 92.6149 69.0167 91.7564C68.9147 90.6559 68.8116 89.5556 68.7083 88.4553C68.6284 87.6046 68.549 86.7539 68.4696 85.9032C68.4317 85.4971 68.3937 85.091 68.3557 84.6849C68.3028 84.1207 68.2505 83.5564 68.1983 82.9921C68.1685 82.6715 68.1387 82.351 68.1079 82.0207C68.0444 81.2415 68.0444 81.2415 68.0444 80.4799C67.7187 80.4825 67.3931 80.4852 67.0576 80.4879C65.8524 80.4971 64.6473 80.5029 63.4421 80.5077C62.9199 80.5103 62.3978 80.5138 61.8756 80.5182C61.1262 80.5243 60.3768 80.5272 59.6274 80.5294C59.393 80.5321 59.1585 80.5347 58.917 80.5374C58.5916 80.5374 58.5916 80.5374 58.2597 80.5375C57.9726 80.5392 57.9726 80.5392 57.6797 80.5409C57.2077 80.4799 57.2077 80.4799 56.7036 79.9721C56.6041 79.4389 56.6041 79.4389 56.553 78.7791C56.5332 78.5366 56.5133 78.2942 56.4928 78.0445C56.474 77.7852 56.4552 77.5259 56.4359 77.2588C56.4151 76.9946 56.3944 76.7304 56.373 76.4582C56.3129 75.6833 56.2559 74.9081 56.1996 74.1329C56.1705 73.7544 56.1413 73.3759 56.112 72.9974C55.8067 68.8091 55.8067 68.8091 55.9476 67.532C56.4516 67.0243 56.4516 67.0243 57.4573 66.9666C57.8919 66.9667 58.3265 66.9696 58.7611 66.9747C59.1041 66.9758 59.1041 66.9758 59.4539 66.9769C60.1858 66.9797 60.9176 66.9861 61.6494 66.9925C62.1449 66.9951 62.6404 66.9974 63.1359 66.9995C64.3521 67.0051 65.5682 67.0139 66.7843 67.0243C66.7843 66.4378 66.7843 65.8514 66.7843 65.2471C66.494 65.2881 66.2037 65.3292 65.9046 65.3714C64.8376 65.5052 63.7888 65.5419 62.7146 65.5437C62.5285 65.5445 62.3423 65.5453 62.1505 65.5462C61.7613 65.5475 61.3721 65.5481 60.9829 65.5481C60.3856 65.5486 59.7885 65.5533 59.1913 65.558C58.8116 65.5588 58.432 65.5593 58.0523 65.5595C57.8738 65.5613 57.6953 65.5632 57.5114 65.565C56.2573 65.5591 56.2573 65.5591 55.6956 64.9933C55.5981 64.3463 55.5297 63.7204 55.481 63.0693C55.4649 62.8756 55.4488 62.6819 55.4323 62.4823C55.3986 62.0701 55.366 61.6577 55.3345 61.2453C55.287 60.6266 55.2357 60.0084 55.1837 59.3901C55.0873 58.2121 55.0064 57.0337 54.9395 55.8536C54.9293 55.6745 54.9192 55.4954 54.9087 55.3108C54.884 54.8164 54.8691 54.3214 54.8549 53.8266C54.842 53.4094 54.842 53.4094 54.8289 52.9839C54.9395 52.2993 54.9395 52.2993 55.314 51.8826C56.23 51.3839 57.1149 51.4261 58.1309 51.4279C58.3517 51.4253 58.5724 51.4227 58.7998 51.4201C59.5338 51.4124 60.2677 51.4101 61.0017 51.4078C61.5197 51.4035 62.0378 51.3989 62.5558 51.394C63.9285 51.3819 65.3011 51.3743 66.6738 51.3677C68.0321 51.3603 69.3903 51.3483 70.7486 51.3369C77.0716 51.2859 83.3946 51.2721 89.7177 51.2838C89.7339 51.0934 89.7501 50.903 89.7667 50.7068C89.7886 50.4563 89.8104 50.2058 89.8329 49.9477C89.8542 49.6996 89.8756 49.4516 89.8976 49.1961C90.4238 44.0551 93.3733 38.8313 97.2782 35.5433C102 32.2908 108.039 30.8636 113.706 30.6572C113.985 30.6436 114.265 30.6301 114.553 30.6161C115.112 30.5904 115.672 30.5738 116.232 30.5673C117.734 30.4954 117.734 30.4954 118.997 29.7442C119.463 29.1604 119.845 28.5777 120.212 27.927C120.352 27.6839 120.352 27.6839 120.495 27.436C122.365 23.9793 122.365 23.9793 122.905 20.258C122.73 19.7573 122.73 19.7573 122.354 19.1682C121.581 17.8698 121.569 16.4589 121.724 14.9792C122.049 13.8339 122.372 12.942 123.368 12.2569C124.251 11.439 124.295 10.6642 124.48 9.5049C125.041 6.58558 126.111 4.12956 128.528 2.28522C130.88 0.929495 133.114 0.423901 135.789 0.508071C136.211 0.52103 136.633 0.531707 137.054 0.539806C137.33 0.548642 137.33 0.548642 137.611 0.557657C138.643 0.453966 138.995 -0.220938 140.121 0.000313728ZM128.024 4.82401C126.954 6.28111 126.463 7.91404 126.008 9.6477C126.78 9.61127 127.552 9.57413 128.323 9.53663C128.536 9.52665 128.749 9.51667 128.969 9.50638C130.185 9.44674 131.396 9.36607 132.609 9.26193C134.503 9.11209 136.394 9.07943 138.294 9.07648C138.558 9.07559 138.558 9.07559 138.827 9.07468C141.507 9.07127 144.063 9.23636 146.673 9.90158C146.363 7.69916 144.697 5.93761 143.061 4.54236C138.683 1.4164 132.043 0.537902 128.024 4.82401ZM132.056 10.6632C132.682 11.9244 135.307 12.5068 136.593 12.9481C138.23 13.426 139.902 13.76 141.57 14.1064C142.46 14.2971 143.348 14.4909 144.237 14.6856C144.558 14.7555 144.558 14.7555 144.885 14.8268C146.749 15.2382 148.582 15.7348 150.397 16.3309C151.717 16.7495 152.848 16.81 154.234 16.7563C153.018 14.0894 149.241 12.5073 146.673 11.4249C144.011 10.4631 141.35 10.3656 138.546 10.3776C138.269 10.3781 137.991 10.3786 137.706 10.3791C135.812 10.3892 133.94 10.452 132.056 10.6632ZM124.291 13.3448C123.441 14.299 123.269 15.1152 123.157 16.3755C123.272 17.6726 123.649 18.4516 124.575 19.3586C125.289 19.8271 125.946 20.0805 126.764 20.3106C126.681 20.5619 126.598 20.8133 126.512 21.0722C125.93 21.0722 125.348 21.0722 124.748 21.0722C124.693 21.2113 124.638 21.3504 124.581 21.4937C124.407 21.931 124.233 22.368 124.058 22.8048C123.833 23.3747 123.614 23.9468 123.398 24.5204C122.317 27.3774 121.216 30.1269 118.7 31.989C119.02 34.1113 120.494 35.4866 122.084 36.8177C124.051 38.2703 126.729 39.9964 129.284 39.6054C130.699 38.8164 131.16 37.4645 131.773 36.0352C131.93 35.6884 131.93 35.6884 132.09 35.3346C132.722 34.0774 132.722 34.0774 132.56 32.7507C132.093 32.3401 132.093 32.3401 131.521 31.9414C128.75 29.832 128.75 29.832 128.355 28.2463C128.316 27.9626 128.316 27.9626 128.276 27.6731C128.775 27.5474 128.775 27.5474 129.284 27.4192C129.409 27.6038 129.409 27.6038 129.535 27.7921C130.794 29.5796 132.632 30.7849 133.569 30.9735C138.302 31.9271 139.365 29.0694 138.152 31.6558C141.737 28.5293 143.269 22.7452 144.699 18.3835C144.918 17.7476 145.161 17.1253 145.413 16.5024C144.54 16.1237 143.719 15.882 142.785 15.712C142.524 15.6628 142.263 15.6136 141.994 15.5629C141.719 15.5116 141.444 15.4604 141.161 15.4076C138.954 14.9849 136.872 14.4757 134.776 13.6641C134.036 13.4451 133.752 13.3716 133.065 13.7098C132.542 14.2184 132.542 14.2184 132.056 14.8363C130.967 16.172 130.967 16.172 130.04 16.5024C129.221 16.4072 129.221 16.4072 128.528 16.2485C128.485 16.0924 128.442 15.9363 128.398 15.7755C128.037 14.5246 128.037 14.5246 127.331 13.4559C126.217 12.9572 125.388 12.7312 124.291 13.3448ZM172.127 17.0102C171.624 17.7843 171.192 18.5837 170.772 19.4062C170.655 19.6366 170.537 19.867 170.415 20.1044C165.665 29.6691 163.986 40.485 163.054 51.0299C162.722 50.9461 162.389 50.8624 162.046 50.7761C161.963 49.6031 161.88 48.4302 161.794 47.2217C160.713 46.7191 159.632 46.2164 158.518 45.6985C158.475 46.0699 158.432 46.4414 158.388 46.8241C158.02 49.8916 157.538 52.8659 156.754 55.8536C159.417 55.723 162.017 55.3158 164.644 54.8771C165.347 54.7599 166.051 54.6454 166.754 54.5312C169.741 54.0408 172.7 53.4622 175.655 52.8071C177.313 47.1127 176.734 40.7062 176.451 34.8502C176.426 34.3204 176.403 33.7904 176.382 33.2603C176.355 32.5921 176.315 31.9263 176.27 31.2591C176.263 31.0663 176.257 30.8734 176.251 30.6747C176.219 30.057 176.219 30.057 175.907 29.1964C175.421 28.7991 174.926 28.5127 174.374 28.2153C173.71 27.8187 173.461 27.3768 173.151 26.6734C173.054 26.4545 172.957 26.2356 172.857 26.01C172.598 25.2984 172.438 24.6212 172.379 23.8649C172.795 23.8649 173.211 23.8649 173.639 23.8649C173.682 24.0151 173.725 24.1653 173.769 24.3201C174.138 25.5324 174.465 26.5279 175.403 27.4192C176.19 27.7614 176.19 27.7614 176.915 27.927C176.864 27.7584 176.812 27.5899 176.759 27.4162C176.691 27.1921 176.623 26.9679 176.553 26.7369C176.486 26.516 176.419 26.2951 176.349 26.0675C176.049 24.9927 175.875 24.0022 175.883 22.8841C175.884 22.5466 175.884 22.5466 175.885 22.2023C175.888 21.855 175.888 21.855 175.892 21.5007C175.893 21.2642 175.894 21.0278 175.895 20.7842C175.898 20.2032 175.902 19.6222 175.907 19.0412C176.24 19.0412 176.573 19.0412 176.915 19.0412C176.934 19.4688 176.934 19.4688 176.953 19.905C177.03 23.7774 177.03 23.7774 178.679 27.1653C178.846 27.1653 179.012 27.1653 179.183 27.1653C179.455 25.7831 179.517 24.4118 179.577 23.0081C179.594 22.6551 179.594 22.6551 179.61 22.295C179.637 21.7182 179.663 21.1414 179.687 20.5645C180.02 20.4807 180.353 20.3969 180.696 20.3106C180.978 22.4904 180.923 24.4294 180.547 26.589C180.397 27.6012 180.359 28.2055 180.935 29.0783C181.105 29.2849 181.276 29.4914 181.452 29.7041C182.307 29.0383 182.517 28.1935 182.712 27.1653C182.804 26.1561 182.839 25.1476 182.869 24.1347C182.879 23.8642 182.889 23.5937 182.899 23.315C182.922 22.6521 182.944 21.9892 182.964 21.3261C183.296 21.3261 183.629 21.3261 183.972 21.3261C184.221 22.9598 184.221 22.9598 184.476 24.6265C185.494 23.7743 185.494 23.7743 185.627 23.0458C185.623 20.6923 184.776 19.0419 183.184 17.3434C181.339 15.5936 179.251 14.1152 176.679 13.8684C174.555 13.9417 173.345 15.4352 172.127 17.0102ZM96.5222 38.5899C96.3659 38.7394 96.2097 38.889 96.0487 39.0431C89.21 46.0555 89.975 59.9408 89.7177 69.0553C91.11 68.9517 92.4836 68.8184 93.8573 68.5634C98.801 67.6536 103.59 67.6049 108.619 67.532C108.785 61.7512 108.952 55.9704 109.123 50.0144C109.539 49.9306 109.955 49.8469 110.383 49.7605C110.323 52.2388 110.262 54.7171 110.199 57.1953C110.17 58.3459 110.141 59.4965 110.113 60.6471C110.087 61.7566 110.059 62.8661 110.03 63.9756C110.019 64.3998 110.009 64.824 109.999 65.2483C109.985 65.8405 109.97 66.4326 109.954 67.0247C109.95 67.2018 109.946 67.379 109.942 67.5615C109.908 68.7725 109.908 68.7725 109.627 69.0553C108.879 69.1391 108.13 69.2229 107.359 69.3092C107.359 71.5712 107.359 73.8333 107.359 76.1639C109.517 76.4303 111.675 76.6955 113.833 76.9584C114.835 77.0805 115.838 77.2032 116.84 77.3272C117.809 77.447 118.778 77.5654 119.747 77.6828C120.115 77.7276 120.483 77.7729 120.85 77.8188C124.615 78.3677 124.615 78.3677 128.318 77.7685C128.585 77.6792 128.852 77.5898 129.127 77.4978C129.397 77.4032 129.667 77.3086 129.946 77.2112C134.779 75.5669 134.779 75.5669 137.475 75.6244C137.682 75.6267 137.889 75.629 138.103 75.6314C138.608 75.6373 139.112 75.6464 139.617 75.6562C140.547 72.4315 141.171 69.1629 141.791 65.866C141.94 65.0741 142.089 64.2823 142.24 63.4907C142.333 63.0023 142.425 62.5138 142.516 62.025C142.998 59.4911 142.998 59.4911 143.397 58.6463C144.021 58.3949 144.021 58.3949 144.657 58.1385C144.907 55.4576 145.156 52.7766 145.413 50.0144C145.746 50.0982 146.079 50.182 146.421 50.2683C146.338 52.6979 146.255 55.1275 146.169 57.6308C149.218 57.1949 149.218 57.1949 152.265 56.7422C152.471 56.7124 152.677 56.6826 152.89 56.652C153.087 56.6215 153.285 56.5911 153.489 56.5597C153.663 56.5337 153.837 56.5077 154.016 56.4809C154.566 56.3691 154.566 56.3691 155.242 55.8536C155.452 55.4076 155.452 55.4076 155.574 54.8827C155.652 54.5879 155.652 54.5879 155.731 54.2871C155.809 53.9708 155.809 53.9708 155.888 53.6481C155.942 53.4319 155.997 53.2158 156.053 52.9932C156.52 51.0798 156.826 49.1852 157.006 47.2217C157.055 46.8762 157.055 46.8762 157.105 46.5236C157.195 45.855 157.195 45.855 157.006 44.9368C156.649 44.596 156.649 44.596 156.166 44.3388C155.983 44.2313 155.799 44.1238 155.61 44.0131C155.405 43.899 155.201 43.785 154.99 43.6674C154.774 43.5455 154.557 43.4236 154.334 43.298C153.605 42.8924 152.873 42.4935 152.139 42.0966C151.872 41.952 151.605 41.8074 151.33 41.6584C150.788 41.3651 150.246 41.0722 149.704 40.7796C149.03 40.4147 148.357 40.0464 147.685 39.6768C141.193 35.8291 141.193 35.8291 134.073 34.0201C134.003 34.1839 133.933 34.3478 133.861 34.5167C133.541 35.2625 133.216 36.0058 132.891 36.7493C132.782 37.0071 132.672 37.265 132.559 37.5307C131.508 39.9139 131.508 39.9139 130.292 40.6209C127.896 41.4257 125.512 40.2886 123.362 39.2087C120.546 37.5847 118.365 35.2971 117.187 32.2429C110.016 31.9873 101.71 33.1299 96.5222 38.5899ZM69.8085 65.2471C69.8085 65.8336 69.8085 66.4201 69.8085 67.0243C75.9627 66.9405 82.1169 66.8567 88.4577 66.7704C88.4577 66.2677 88.4577 65.765 88.4577 65.2471C82.3034 65.2471 76.1492 65.2471 69.8085 65.2471ZM168.53 77.3077C167.556 77.8454 166.578 78.3753 165.6 78.9058C163.127 80.2484 160.671 81.617 158.228 83.0157C156.374 84.0772 154.51 85.1207 152.643 86.1604C150.604 87.2962 148.577 88.449 146.563 89.6294C145.484 90.2611 144.4 90.8848 143.316 91.5089C142.753 91.8386 142.201 92.179 141.651 92.5292C139.615 93.734 137.963 93.757 135.668 93.7394C132.648 93.8056 130.081 95.145 127.417 96.4758C126.729 96.7417 126.234 96.7784 125.504 96.7281C125.504 96.4767 125.504 96.2254 125.504 95.9665C126.835 95.38 128.165 94.7935 129.536 94.1893C128.626 93.5776 128.102 93.5834 127.016 93.5229C126.704 93.5039 126.392 93.4849 126.071 93.4654C125.714 93.4522 125.357 93.4397 125 93.4277C124.786 93.4162 124.572 93.4048 124.352 93.393C122.579 93.3346 121.15 93.6553 119.487 94.2528C119.23 94.342 118.974 94.4312 118.709 94.5231C115.675 95.6006 112.715 96.8672 109.753 98.1307C108.387 98.7105 107.015 99.2747 105.642 99.8381C105.189 100.025 104.736 100.211 104.283 100.397C103.964 100.528 103.645 100.659 103.327 100.79C103.748 104.18 105.548 107.291 107.611 109.93C107.787 110.157 107.963 110.383 108.144 110.617C111.988 115.234 117.951 117.387 123.74 118.054C124.975 118.126 126.205 118.139 127.441 118.133C127.774 118.132 128.106 118.13 128.448 118.129C130.982 118.097 133.379 117.918 135.837 117.292C136.036 117.242 136.235 117.191 136.44 117.139C146.153 114.593 154.169 108.249 162.164 102.39C164.724 100.515 167.327 98.7095 169.95 96.9268C170.57 96.5045 171.189 96.0796 171.807 95.6541C180.018 90.031 180.018 90.031 183.813 89.081C184.008 89.0304 184.203 88.9798 184.404 88.9276C184.79 88.8302 185.179 88.741 185.57 88.6611C186.184 88.5283 186.184 88.5283 186.996 88.0962C187.328 87.4008 187.398 86.8438 187.5 86.0652C187.749 86.0652 187.999 86.0652 188.256 86.0652C188.339 86.7354 188.422 87.4057 188.508 88.0962C188.855 88.161 188.855 88.161 189.209 88.2271C191.686 88.7199 193.62 89.1691 195.312 91.1428C195.428 91.2743 195.544 91.4059 195.663 91.5414C197.835 94.2014 199.467 98.0348 199.302 101.498C199.154 105.699 200.798 108.361 203.119 111.728C203.683 112.547 204.219 113.38 204.751 114.22C205.072 114.728 205.398 115.232 205.725 115.735C206.982 117.677 208.2 119.645 209.425 121.608C210.835 120.739 212.207 119.843 213.521 118.831C217.159 116.041 220.977 113.475 224.798 110.945C224.649 109.963 224.359 109.24 223.874 108.378C223.734 108.127 223.594 107.876 223.45 107.618C223.297 107.349 223.144 107.081 222.987 106.804C222.828 106.521 222.669 106.239 222.505 105.948C220.859 103.029 219.182 100.128 217.49 97.2358C217.298 96.9064 217.105 96.5769 216.913 96.2474C214.771 92.5772 212.631 88.9138 210.298 85.3623C209.692 84.4302 209.101 83.4887 208.507 82.5486C206.947 80.0799 205.372 77.6216 203.771 75.1801C203.613 74.9376 203.456 74.6951 203.293 74.4452C201.079 71.0889 198.692 67.6461 194.556 66.7704C185.714 65.874 176.033 73.1449 168.53 77.3077ZM100.507 68.976C100.249 68.9985 99.9909 69.0211 99.7249 69.0443C95.2299 69.3221 95.2299 69.3221 90.9778 70.5786C90.9649 72.2268 90.9562 73.875 90.9501 75.5232C90.9476 76.0829 90.9442 76.6425 90.9398 77.2022C90.9336 78.0108 90.9308 78.8193 90.9286 79.628C90.926 79.8746 90.9234 80.1212 90.9207 80.3752C90.9203 82.8866 91.0768 85.3488 92.7419 87.3346C95.9897 90.5337 102.383 89.9711 106.531 89.9279C111.723 89.8466 117.281 89.2497 122.228 87.5885C122.605 87.565 122.984 87.5555 123.362 87.5567C123.557 87.5561 123.752 87.5554 123.953 87.5547C124.496 87.5885 124.496 87.5885 125.252 87.8423C126.756 87.978 128.008 87.9777 129.284 87.0807C130.03 86.3335 130.637 85.5225 131.048 84.5419C132.897 84.64 134.422 85.7825 135.821 86.922C136.329 87.4131 136.329 87.4131 137.097 87.3346C137.375 86.4509 137.517 85.7147 137.349 84.7958C136.687 84.1512 136.011 83.7106 135.216 83.2438C134.577 82.7648 134.577 82.7648 134.362 82.0716C134.35 81.8814 134.337 81.6913 134.325 81.4954C135.578 81.9433 136.702 82.6109 137.853 83.2725C137.905 82.9479 137.957 82.6232 138.01 82.2887C138.04 82.1061 138.069 81.9235 138.099 81.7354C138.101 81.5724 138.103 81.4094 138.105 81.2415C137.409 80.5402 136.793 80.5868 135.837 80.4799C135.92 80.1447 136.003 79.8096 136.089 79.4643C136.976 79.444 137.757 79.4542 138.609 79.7182C138.909 78.734 139.113 77.9623 139.113 76.9256C137.602 76.1647 135.61 76.7759 134.073 77.2112C133.763 77.2947 133.763 77.2947 133.448 77.3799C132.418 77.666 131.412 77.9823 130.413 78.3645C130.231 78.434 130.049 78.5035 129.861 78.5751C129.524 78.7066 129.19 78.8434 128.859 78.987C126.112 80.0741 122.831 79.4151 119.989 79.0468C119.639 79.0029 119.289 78.9592 118.939 78.9157C118.21 78.8246 117.481 78.7321 116.752 78.6384C115.834 78.5204 114.915 78.4049 113.997 78.2902C110.096 77.803 106.201 77.2902 102.319 76.6717C102.319 76.3366 102.319 76.0014 102.319 75.6562C103.4 75.6562 104.481 75.6562 105.595 75.6562C105.809 74.7936 105.876 74.1913 105.871 73.3197C105.871 73.071 105.87 72.8222 105.869 72.566C105.867 72.3081 105.865 72.0502 105.863 71.7845C105.861 71.5227 105.86 71.2609 105.859 70.9911C105.856 70.3458 105.852 69.7006 105.847 69.0553C104.033 68.808 102.327 68.8092 100.507 68.976ZM164.062 69.8169C163.446 70.7479 163.349 71.5277 163.558 72.6096C164.055 73.3019 164.055 73.3019 164.819 73.6251C165.602 73.7087 165.602 73.7087 166.331 73.3712C167.008 72.5986 167.307 72.0778 167.449 71.0546C167.324 70.2281 167.189 69.8778 166.583 69.3092C165.501 68.8792 164.966 69.1279 164.062 69.8169ZM70.8165 80.4799C70.8165 81.9451 70.839 83.3453 70.9745 84.7945C70.9913 84.983 71.0081 85.1716 71.0254 85.3659C71.0805 85.9809 71.137 86.5957 71.1936 87.2106C71.2326 87.642 71.2715 88.0733 71.3104 88.5047C71.3918 89.4051 71.4738 90.3053 71.5564 91.2055C71.662 92.357 71.7662 93.5086 71.8699 94.6602C71.9501 95.5495 72.0309 96.4388 72.1119 97.328C72.1505 97.7526 72.189 98.1772 72.2273 98.6019C72.281 99.1954 72.3354 99.7888 72.3901 100.382C72.4057 100.556 72.4213 100.73 72.4373 100.909C72.5294 101.899 72.6698 102.852 72.8327 103.837C82.6462 103.837 92.4597 103.837 102.571 103.837C102.321 103.083 102.072 102.329 101.815 101.552C101.23 101.37 100.642 101.201 100.05 101.044C98.1323 98.3389 97.8852 94.1215 97.5302 90.8889C97.3957 90.8457 97.2613 90.8025 97.1227 90.758C92.6461 89.2912 92.6461 89.2912 91.4819 87.8423C91.3051 87.6329 91.1284 87.4234 90.9463 87.2076C89.8418 85.1307 89.6952 82.7914 89.4657 80.4799C83.3115 80.4799 77.1573 80.4799 70.8165 80.4799ZM131.552 86.0652C131.454 86.2537 131.355 86.4422 131.253 86.6364C130.757 87.3953 130.261 87.8159 129.536 88.3501C129.204 88.6014 128.871 88.8528 128.528 89.1117C131.106 89.1117 133.684 89.1117 136.341 89.1117C135.925 88.7766 135.509 88.4415 135.081 88.0962C134.891 87.9381 134.701 87.7801 134.506 87.6172C134.321 87.4663 134.137 87.3155 133.947 87.16C133.762 87.0072 133.578 86.8544 133.387 86.6969C132.765 86.288 132.283 86.1624 131.552 86.0652ZM121.976 88.8578C121.976 88.9416 121.976 89.0254 121.976 89.1117C122.974 89.1117 123.972 89.1117 125 89.1117C123.802 88.5081 123.235 88.5835 121.976 88.8578ZM173.387 95.9665C173.216 96.0819 173.045 96.1974 172.869 96.3164C171.87 96.9946 170.879 97.6843 169.892 98.3803C169.31 98.7907 168.727 99.1994 168.143 99.608C166.114 101.032 164.094 102.468 162.094 103.932C150.92 112.096 150.92 112.096 146.169 114.5C146.169 114.583 146.169 114.667 146.169 114.753C148.468 114.796 150.695 114.708 152.974 114.404C153.449 114.342 153.449 114.342 153.933 114.279C158.756 113.621 163.538 112.655 168.318 111.744C168.72 111.667 168.72 111.667 169.129 111.589C169.501 111.518 169.501 111.518 169.879 111.445C170.095 111.403 170.311 111.362 170.534 111.319C171.069 111.209 171.598 111.084 172.127 110.945C172.094 110.795 172.06 110.645 172.026 110.49C171.934 110.076 171.842 109.661 171.752 109.246C171.66 108.828 171.564 108.411 171.465 107.994C171.313 107.02 171.177 106.004 171.623 105.106C171.956 105.106 172.288 105.106 172.631 105.106C172.638 105.315 172.644 105.524 172.651 105.739C172.748 107.664 173.055 109.209 173.891 110.945C174.545 109.957 175.075 108.917 175.624 107.867C175.733 107.66 175.843 107.452 175.955 107.238C176.669 105.874 177.32 104.493 177.923 103.075C178.256 103.075 178.589 103.075 178.931 103.075C178.31 105.448 177.252 107.551 176.13 109.719C174.486 112.926 174.303 115.621 174.74 119.148C174.865 120.161 174.981 121.175 175.097 122.189C175.122 122.407 175.147 122.624 175.173 122.848C175.477 125.513 175.729 128.182 175.98 130.852C176.029 131.368 176.078 131.883 176.126 132.399C176.25 133.705 176.372 135.011 176.494 136.318C176.692 138.43 176.892 140.541 177.091 142.653C177.159 143.376 177.227 144.099 177.294 144.823C177.569 147.75 177.864 150.674 178.175 153.597C180.202 153.503 182.229 153.408 184.255 153.312C185.196 153.268 186.138 153.223 187.079 153.18C187.989 153.138 188.899 153.095 189.809 153.051C190.155 153.035 190.5 153.019 190.846 153.003C192.762 152.915 194.667 152.803 196.573 152.581C196.83 151.027 196.905 149.483 196.969 147.909C196.981 147.621 196.994 147.333 197.006 147.036C197.047 146.079 197.086 145.122 197.125 144.165C197.146 143.66 197.167 143.155 197.188 142.65C197.285 140.296 197.378 137.942 197.47 135.587C197.478 135.403 197.485 135.219 197.492 135.029C198.031 121.485 198.031 121.485 198.24 107.933C198.242 107.38 198.247 106.827 198.252 106.274C198.317 101.103 198.317 101.103 196.825 96.2203C196.755 96.0691 196.685 95.9179 196.612 95.7621C195.442 93.253 194.059 91.2491 191.521 90.0489C185.201 87.7993 178.383 92.584 173.387 95.9665ZM116.935 90.1272C116.688 90.1599 116.688 90.1599 116.436 90.1931C115.668 90.2939 114.9 90.393 114.132 90.4922C113.873 90.5264 113.614 90.5606 113.347 90.5958C109.885 91.04 106.465 91.1791 102.98 91.1586C102.596 91.1573 102.211 91.1562 101.826 91.1552C100.898 91.1524 99.9703 91.148 99.0423 91.1428C99.1564 93.0429 99.3106 94.8788 99.7669 96.7281C99.8075 96.9084 99.8481 97.0887 99.8899 97.2745C100.137 98.3114 100.461 99.1476 101.058 100.029C102.148 99.8805 103.066 99.6122 104.078 99.1816C104.368 99.0591 104.658 98.9367 104.957 98.8106C105.27 98.6771 105.582 98.5435 105.894 98.41C106.382 98.2036 106.87 97.9978 107.358 97.7919C107.693 97.6506 108.028 97.5091 108.363 97.3673C110.123 96.6228 111.891 95.8969 113.659 95.1731C113.945 95.0561 114.23 94.9392 114.524 94.8187C115.663 94.3521 116.802 93.8868 117.944 93.4277C117.872 93.0677 117.798 92.7081 117.723 92.3487C117.682 92.1484 117.641 91.9481 117.599 91.7418C117.441 91.1494 117.215 90.6697 116.935 90.1272ZM40.0076 111.628C39.862 111.821 39.7165 112.015 39.5665 112.215C39.4834 112.298 39.4002 112.382 39.3145 112.469C39.242 113.211 39.1914 113.777 39.3145 114.5C40.1006 115.385 40.9503 115.753 42.0867 116.023C42.8676 115.822 42.8676 115.822 43.6145 115.436C47.3332 113.676 51.0197 114.661 54.7355 115.962C55.8286 116.367 56.8978 116.819 57.9637 117.292C58.2965 117.434 58.2965 117.434 58.6361 117.579C59.1923 117.832 59.1923 117.832 59.9798 118.308C60.1551 118.845 60.1551 118.845 60.2319 119.323C59.1248 119.186 58.3238 118.911 57.3494 118.371C55.5939 117.455 53.8 116.856 51.9153 116.277C51.7292 116.214 51.543 116.15 51.3512 116.085C48.6709 115.259 45.8614 115.655 43.3468 116.785C42.2009 117.399 41.2448 118.059 40.8266 119.323C40.7 120.879 40.7987 121.642 41.8347 122.878C44.4433 125.571 48.1305 125.835 51.6633 125.924C52.4854 125.926 53.3073 125.918 54.1293 125.908C54.3509 125.906 54.5725 125.903 54.8008 125.901C55.0264 125.898 55.252 125.895 55.4844 125.893C55.9486 125.887 56.4127 125.882 56.8769 125.877C57.1069 125.874 57.3369 125.871 57.5738 125.868C61.4615 125.829 65.028 126.18 68.8004 127.194C68.2481 124.225 66.8586 122.076 64.7967 119.896C64.2641 119.323 64.2641 119.323 63.7699 118.684C60.0506 114.126 53.1802 110.598 47.379 109.93C44.9566 109.74 41.8542 109.789 40.0076 111.628ZM199.345 112.215C199.334 112.638 199.335 113.061 199.345 113.484C199.618 113.817 199.618 113.817 200.283 113.763C200.561 113.76 200.838 113.757 201.125 113.754C201.403 113.752 201.681 113.749 201.968 113.747C202.184 113.744 202.399 113.741 202.621 113.738C202.347 112.913 202.347 112.913 201.865 112.215C201.44 112.196 201.014 112.193 200.589 112.199C200.357 112.201 200.126 112.203 199.887 112.206C199.708 112.209 199.529 112.212 199.345 112.215ZM223.743 113.23C223.498 113.397 223.498 113.397 223.247 113.567C219.317 116.249 215.434 118.999 211.6 121.82C211.217 122.096 210.825 122.36 210.433 122.624C210.829 124.138 211.631 125.373 212.45 126.686C213.777 126.271 214.776 125.426 215.868 124.591C217.582 123.3 219.31 122.033 221.065 120.799C221.377 120.579 221.377 120.579 221.694 120.355C222.705 119.644 223.722 118.944 224.752 118.261C224.941 118.135 225.13 118.008 225.324 117.878C225.679 117.642 226.035 117.408 226.393 117.178C226.92 116.838 226.92 116.838 227.571 116.277C227.571 115.106 227.304 114.669 226.72 113.674C226.562 113.401 226.404 113.127 226.242 112.845C226.098 112.637 225.954 112.429 225.806 112.215C224.986 112.215 224.402 112.778 223.743 113.23ZM105.745 112.224C105.456 112.226 105.167 112.229 104.869 112.231C104.391 112.234 104.391 112.234 103.903 112.238C103.566 112.24 103.228 112.243 102.89 112.246C101.972 112.252 101.053 112.259 100.135 112.266C99.1755 112.273 98.2163 112.28 97.257 112.287C95.4398 112.301 93.6226 112.314 91.8054 112.328C89.7369 112.343 87.6684 112.358 85.5999 112.374C81.3441 112.405 77.0884 112.437 72.8327 112.469C72.9158 112.971 72.999 113.474 73.0847 113.992C76.7389 113.956 80.3932 113.919 84.0474 113.881C84.3154 113.878 84.5834 113.875 84.8596 113.872C92.7806 113.789 100.7 113.691 108.619 113.484C108.296 113.051 107.959 112.628 107.611 112.215C106.989 112.215 106.367 112.22 105.745 112.224ZM169.103 112.849C168.908 112.886 168.712 112.922 168.511 112.959C168.036 113.048 167.561 113.139 167.087 113.23C167.087 113.314 167.087 113.398 167.087 113.484C169.166 113.484 171.245 113.484 173.387 113.484C173.387 113.149 173.387 112.814 173.387 112.469C171.906 112.428 170.556 112.568 169.103 112.849ZM2.26815 125.67C2.18127 126.43 2.18127 126.43 2.63829 126.824C2.89169 127.03 2.89169 127.03 3.1502 127.241C3.8814 127.856 4.5581 128.481 5.21358 129.177C8.67863 132.688 12.9825 135.354 18.0034 135.413C21.0558 135.384 23.5638 134.745 25.8789 132.684C27.5307 130.795 28.3869 129.192 28.338 126.607C28.1519 125.474 27.5826 124.853 26.7137 124.147C23.0974 121.69 17.3651 122.864 13.3569 123.639C12.3562 123.868 11.3734 124.141 10.3898 124.435C9.53337 124.666 8.69182 124.799 7.8125 124.909C7.8125 124.574 7.8125 124.238 7.8125 123.893C13.023 122.237 20.6007 119.903 25.8779 122.441C26.0914 122.559 26.3048 122.677 26.5247 122.798C27.7553 123.47 28.3872 123.517 29.7379 123.131C30.8062 122.555 30.8062 122.555 31.502 121.608C31.6265 120.522 31.5851 119.973 31.0295 119.022C29.4153 117.294 26.8543 117.049 24.6346 116.975C17.1854 117.059 7.52926 120.158 2.26815 125.67ZM73.8407 119.069C73.8188 119.351 73.7969 119.632 73.7744 119.922C71.8916 144.099 71.8916 144.099 70.9583 154.152C70.9345 154.409 70.9345 154.409 70.9103 154.67C70.3689 160.507 70.3689 160.507 70.1687 162.127C70.0512 163.34 70.0605 164.564 70.0605 165.783C78.7928 165.783 87.5252 165.783 96.5222 165.783C96.5301 160.834 96.5301 160.834 96.4105 155.892C96.3986 155.561 96.3867 155.23 96.3745 154.889C96.3427 154.004 96.3095 153.12 96.276 152.235C96.2408 151.299 96.2067 150.362 96.1725 149.426C96.115 147.859 96.0566 146.293 95.9977 144.727C95.9298 142.923 95.8633 141.119 95.7975 139.315C95.7337 137.564 95.6689 135.814 95.6038 134.063C95.5763 133.324 95.5491 132.585 95.5221 131.846C95.4845 130.815 95.4455 129.785 95.4064 128.754C95.3955 128.452 95.3846 128.151 95.3734 127.84C95.3091 126.177 95.199 124.53 95.0101 122.878C94.8464 122.877 94.6827 122.877 94.5141 122.876C92.9806 122.872 91.4474 122.857 89.9141 122.839C89.3375 122.833 88.761 122.829 88.1844 122.828C82.1373 122.811 82.1373 122.811 79.3851 121.354C78.9383 121.146 78.4914 120.938 78.0443 120.731C77.43 120.43 76.8177 120.125 76.2053 119.82C76.0065 119.722 75.8077 119.625 75.6029 119.525C75.4271 119.437 75.2513 119.349 75.0702 119.259C74.5646 119.023 74.5646 119.023 73.8407 119.069ZM96.5222 122.878C96.6805 128.461 96.8479 134.041 97.0656 139.622C97.086 140.148 97.1063 140.675 97.1267 141.201C97.1899 142.838 97.2537 144.475 97.3177 146.112C97.3834 147.79 97.4481 149.469 97.5123 151.148C97.5681 152.607 97.6247 154.066 97.6818 155.526C97.7156 156.39 97.7491 157.254 97.782 158.118C97.8184 159.074 97.8561 160.03 97.894 160.985C97.9045 161.267 97.915 161.548 97.9258 161.837C97.9363 162.098 97.9469 162.359 97.9578 162.628C97.9666 162.853 97.9753 163.077 97.9843 163.309C98.0437 164.137 98.1696 164.96 98.2863 165.783C99.7001 165.783 101.114 165.783 102.571 165.783C102.873 165.235 102.873 165.235 103.181 164.675C107.392 157.073 111.848 149.762 119.062 144.695C119.238 144.571 119.414 144.447 119.596 144.318C119.846 144.147 119.846 144.147 120.1 143.972C120.249 143.87 120.398 143.767 120.552 143.662C120.968 143.442 120.968 143.442 121.724 143.442C121.581 144.345 121.356 145.012 120.892 145.796C120.772 146.002 120.652 146.209 120.528 146.421C120.398 146.642 120.267 146.863 120.133 147.091C117.806 151.128 115.66 155.207 113.833 159.5C113.71 159.785 113.587 160.071 113.461 160.366C113.351 160.631 113.24 160.896 113.127 161.17C113.028 161.405 112.93 161.64 112.829 161.883C112.58 162.512 112.58 162.512 112.903 163.244C113.014 163.084 113.124 162.924 113.238 162.758C116.829 157.656 121.409 152.742 127.268 150.296C127.601 150.296 127.933 150.296 128.276 150.296C128.129 151.216 127.884 151.926 127.444 152.744C127.324 152.971 127.204 153.198 127.08 153.432C126.885 153.796 126.885 153.796 126.685 154.168C125.512 156.397 124.376 158.641 123.283 160.912C123.149 161.187 123.014 161.463 122.876 161.747C122.754 162.002 122.632 162.257 122.506 162.519C122.343 162.858 122.343 162.858 122.177 163.204C122.11 163.385 122.044 163.566 121.976 163.752C122.059 163.92 122.142 164.087 122.228 164.26C122.457 164.017 122.686 163.775 122.922 163.525C125.055 161.302 127.251 159.396 129.788 157.659C130.058 157.466 130.328 157.273 130.606 157.075C131.3 156.643 131.3 156.643 132.056 156.643C131.966 158.191 131.227 159.161 130.371 160.388C130.095 160.794 129.82 161.2 129.545 161.606C129.413 161.8 129.281 161.994 129.145 162.195C127.87 163.862 127.87 163.862 127.268 165.783C144.4 165.783 161.532 165.783 179.183 165.783C180.242 162.214 180.242 162.214 180.192 160.452C180.013 160.436 179.834 160.421 179.649 160.405C179.417 160.384 179.186 160.362 178.947 160.341C178.601 160.31 178.601 160.31 178.247 160.278C177.671 160.198 177.671 160.198 177.419 159.944C177.342 159.348 177.279 158.758 177.226 158.16C177.208 157.972 177.19 157.784 177.172 157.59C177.113 156.96 177.055 156.329 176.998 155.698C176.957 155.253 176.915 154.808 176.874 154.363C176.762 153.166 176.652 151.968 176.543 150.771C176.452 149.783 176.36 148.796 176.269 147.808C175.836 143.143 175.41 138.478 174.999 133.811C174.984 133.642 174.969 133.474 174.953 133.3C174.804 131.607 174.656 129.913 174.511 128.22C174.476 127.812 174.476 127.812 174.44 127.396C174.397 126.9 174.354 126.404 174.312 125.907C174.294 125.692 174.275 125.476 174.255 125.254C174.24 125.069 174.224 124.884 174.208 124.694C174.136 124.084 174.011 123.48 173.891 122.878C148.359 122.878 122.828 122.878 96.5222 122.878ZM199.345 122.878C199.19 123.811 199.06 124.615 199.024 125.54C199.011 125.861 199.011 125.861 198.997 126.189C198.989 126.42 198.98 126.65 198.972 126.888C198.962 127.135 198.952 127.381 198.942 127.636C198.909 128.453 198.878 129.269 198.848 130.086C198.825 130.662 198.803 131.237 198.781 131.813C198.734 133.023 198.688 134.234 198.643 135.445C198.597 136.67 198.55 137.895 198.502 139.121C198.234 145.895 197.998 152.656 198.085 159.436C196.92 159.52 195.756 159.604 194.556 159.69C194.582 159.999 194.608 160.308 194.635 160.626C194.65 160.8 194.664 160.974 194.68 161.153C195.098 162.997 196.538 163.869 198.029 164.824C199.884 165.867 201.447 165.945 203.541 165.865C203.842 165.859 204.143 165.854 204.452 165.847C205.186 165.832 205.92 165.81 206.653 165.783C205.94 155.868 205.181 145.957 204.39 136.048C204.322 135.189 204.254 134.329 204.186 133.47C204.078 132.107 203.969 130.744 203.86 129.381C203.819 128.873 203.779 128.365 203.739 127.856C203.684 127.159 203.627 126.461 203.571 125.763C203.555 125.557 203.539 125.352 203.522 125.14C203.456 124.341 203.378 123.641 203.125 122.878C201.878 122.878 200.63 122.878 199.345 122.878ZM40.0706 133.287C39.5829 134.061 39.5665 134.352 39.5665 135.318C39.7926 135.386 40.0187 135.454 40.2517 135.524C44.4889 136.864 48.4951 138.835 51.8208 141.839C51.9523 141.957 52.0838 142.075 52.2193 142.196C52.8827 142.818 53.3365 143.272 53.4274 144.203C52.4414 144.057 51.9178 143.582 51.175 142.934C47.2878 139.67 42.4412 136.346 37.1606 136.514C36.3114 136.614 35.724 136.847 35.0302 137.349C34.3756 138.442 34.3251 139.404 34.5262 140.649C35.6327 143.989 38.06 146.166 41.014 147.854C42.3134 148.506 43.6496 148.889 45.0479 149.265C45.6473 149.436 46.2465 149.608 46.8455 149.781C47.1447 149.866 47.444 149.952 47.7524 150.04C51.718 151.188 55.4058 152.509 58.9718 154.612C59.3046 154.805 59.6377 154.996 59.971 155.188C60.3496 155.406 60.3496 155.406 60.7359 155.628C62.1789 150.569 59.8095 144.048 57.4282 139.634C55.3727 136.199 52.1322 132.943 48.2247 131.827C45.4854 131.231 42.2594 131.286 40.0706 133.287ZM34.7782 144.457C34.7746 144.635 34.7709 144.812 34.7671 144.994C34.6536 150.038 34.3723 155.062 34.0263 160.095C34.0096 160.341 33.9928 160.587 33.9756 160.84C33.944 161.302 33.9118 161.764 33.879 162.225C33.7972 163.415 33.7543 164.591 33.7702 165.783C34.2692 165.657 34.2692 165.657 34.7782 165.529C34.8153 165.225 34.8523 164.92 34.8905 164.606C35.5614 159.438 36.9752 154.954 39.313 150.307C39.5986 149.723 39.8468 149.13 40.0706 148.519C39.9179 148.439 39.7652 148.358 39.6079 148.275C37.9957 147.371 36.7838 146.308 35.5175 144.959C35.3567 144.793 35.1959 144.628 35.0302 144.457C34.9471 144.457 34.8639 144.457 34.7782 144.457ZM118.196 146.996C112.361 151.862 107.511 158.306 104.335 165.275C104.335 165.443 104.335 165.61 104.335 165.783C106.247 165.783 108.16 165.783 110.131 165.783C110.308 165.3 110.486 164.818 110.669 164.32C111.979 160.791 113.363 157.321 114.998 153.93C115.14 153.636 115.281 153.341 115.427 153.037C116.258 151.34 117.156 149.71 118.146 148.101C118.245 147.904 118.345 147.707 118.448 147.504C118.323 147.252 118.323 147.252 118.196 146.996ZM123.645 153.93C123.488 154.043 123.332 154.157 123.17 154.274C121.566 155.455 120.123 156.772 118.7 158.167C118.561 158.3 118.423 158.433 118.28 158.57C117.151 159.673 116.182 160.855 115.234 162.118C115.021 162.395 115.021 162.395 114.804 162.679C114.027 163.706 113.49 164.6 112.903 165.783C115.066 165.783 117.228 165.783 119.456 165.783C121.135 162.644 122.678 159.479 124.132 156.228C124.645 155.081 125.189 153.956 125.756 152.835C124.912 152.835 124.31 153.449 123.645 153.93ZM190.61 154.271C190.257 154.288 189.904 154.305 189.552 154.323C188.631 154.367 187.71 154.412 186.789 154.458C185.846 154.504 184.903 154.55 183.96 154.596C182.116 154.685 180.272 154.776 178.427 154.866C178.036 155.655 178.28 156.324 178.412 157.183C178.461 157.508 178.51 157.834 178.56 158.169C178.6 158.419 178.639 158.67 178.679 158.928C182.333 158.999 185.963 158.881 189.611 158.69C189.933 158.674 189.933 158.674 190.263 158.657C190.887 158.624 191.512 158.591 192.137 158.556C192.414 158.542 192.414 158.542 192.697 158.527C193.996 158.453 195.281 158.32 196.573 158.167C196.573 156.826 196.573 155.486 196.573 154.105C194.581 154.082 192.599 154.172 190.61 154.271ZM31.7225 155.802C31.119 156.502 30.7712 156.921 30.6692 157.85C30.7229 158.383 30.7915 158.914 30.871 159.443C31.0627 160.732 31.025 162.024 31.0137 163.324C31.0126 163.565 31.0115 163.806 31.0103 164.055C31.0074 164.631 31.0033 165.207 30.998 165.783C31.4138 165.783 31.8296 165.783 32.2581 165.783C32.3675 164.677 32.4751 163.572 32.5811 162.465C32.6173 162.091 32.6539 161.716 32.6911 161.341C32.905 159.179 33.0767 157.041 33.0141 154.866C32.4821 154.866 32.0742 155.459 31.7225 155.802ZM29.2339 158.421C29.1223 158.527 29.0107 158.633 28.8957 158.742C28.3787 159.233 27.8612 159.723 27.3437 160.214C27.1683 160.38 26.9929 160.547 26.8122 160.719C26.6367 160.885 26.4613 161.051 26.2806 161.222C26.014 161.475 26.014 161.475 25.7421 161.732C25.0663 162.353 24.3632 162.938 23.6496 163.514C23.0077 164.155 23.0077 164.155 22.1774 165.783C24.6724 165.783 27.1673 165.783 29.7379 165.783C29.7483 164.71 29.7587 163.636 29.7694 162.53C29.774 162.193 29.7786 161.855 29.7833 161.507C29.7846 161.241 29.7858 160.975 29.7871 160.701C29.7898 160.428 29.7924 160.155 29.7951 159.875C29.7891 159.127 29.7891 159.127 29.2339 158.421ZM126.197 162.118C125.976 162.326 125.976 162.326 125.749 162.538C124.754 163.482 123.825 164.44 122.984 165.529C122.984 165.613 122.984 165.697 122.984 165.783C123.921 166.09 124.577 166.145 125.504 165.783C126.739 164.382 127.69 162.477 128.276 160.706C127.387 160.706 126.818 161.53 126.197 162.118Z" fill="black"/>
<path d="M137.353 17.0088C137.685 17.0926 138.018 17.1763 138.361 17.2627C138.277 18.0167 138.194 18.7707 138.109 19.5476C137.776 19.5476 137.443 19.5476 137.101 19.5476C136.809 18.5183 136.89 17.9689 137.353 17.0088Z" fill="black"/>
<path d="M141.122 19.041C141.454 19.2086 141.787 19.3761 142.13 19.5488C142.108 20.2367 142.081 20.9239 142.051 21.6115C142.043 21.9012 142.043 21.9012 142.034 22.1966C141.966 23.6429 141.64 24.6763 140.775 25.864C140.195 26.2686 139.794 26.2386 139.106 26.1496C138.939 25.9821 138.773 25.8145 138.602 25.6419C138.633 25.1341 138.633 25.1341 138.854 24.6263C139.018 24.5534 139.183 24.4804 139.353 24.4052C139.897 24.167 139.897 24.167 140.061 23.6495C140.094 23.4639 140.127 23.2784 140.161 23.0872C140.198 22.885 140.236 22.6827 140.274 22.4743C140.391 21.6576 140.473 20.8409 140.531 20.0179C140.618 19.5488 140.618 19.5488 141.122 19.041Z" fill="black"/>
<path d="M134.82 25.8955C135.948 26.0253 136.48 26.4456 137.341 27.1649C137.839 27.4301 138.342 27.6871 138.853 27.9265C138.77 28.2617 138.686 28.5968 138.601 28.9421C136.978 28.8112 136.098 28.276 134.836 27.2918C134.568 26.911 134.568 26.911 134.647 26.3557C134.704 26.2038 134.762 26.052 134.82 25.8955Z" fill="black"/>
<path d="M46.3732 31.7354C46.9875 31.9258 46.9875 31.9258 47.6333 32.2431C47.8853 32.735 47.8853 32.735 47.8853 33.2586C47.6018 33.7188 47.6018 33.7188 47.1293 34.0203C46.452 33.9409 46.452 33.9409 45.8692 33.7664C45.6959 33.1793 45.6959 33.1793 45.6172 32.497C45.9795 32.0368 45.9795 32.0368 46.3732 31.7354Z" fill="black"/>
<path d="M201.293 34.9651C201.576 34.9627 201.86 34.9603 202.152 34.9578C202.455 34.958 202.759 34.9583 203.072 34.9585C203.386 34.9574 203.7 34.9563 204.024 34.9552C204.857 34.9534 205.69 34.9542 206.523 34.9556C207.033 34.9555 207.543 34.953 208.053 34.9495C209.034 34.9433 210.014 34.9422 210.995 34.9426C211.299 34.9403 211.602 34.938 211.915 34.9355C212.199 34.9371 212.482 34.9387 212.774 34.9403C213.023 34.9402 213.272 34.94 213.528 34.9399C214.34 35.052 214.816 35.3135 215.476 35.7965C216.134 37.1225 215.807 39.2432 215.816 40.72C215.821 41.2128 215.827 41.7055 215.837 42.1982C215.851 42.9089 215.856 43.6193 215.86 44.3302C215.866 44.5497 215.871 44.7693 215.877 44.9955C215.874 46.0006 215.793 46.5948 215.306 47.4875C213.941 48.2939 212.561 48.1532 211.009 48.1334C210.668 48.133 210.327 48.133 209.986 48.1334C209.272 48.133 208.56 48.1283 207.846 48.1203C206.933 48.1102 206.019 48.1091 205.105 48.111C204.402 48.1118 203.698 48.1087 202.995 48.1044C202.494 48.1017 201.993 48.1016 201.492 48.1015C201.189 48.0975 200.885 48.0934 200.572 48.0893C200.171 48.0861 200.171 48.0861 199.761 48.0828C199.095 47.9827 199.095 47.9827 198.64 47.6428C197.909 46.6192 198.046 45.4578 198.045 44.2548C198.044 44.0385 198.043 43.8223 198.042 43.5994C198.041 43.1421 198.04 42.6848 198.04 42.2275C198.04 41.5282 198.035 40.829 198.03 40.1298C198.03 39.6853 198.029 39.2409 198.029 38.7964C198.027 38.5875 198.025 38.3785 198.023 38.1633C198.031 36.2266 198.031 36.2266 198.591 35.5426C199.518 35.0885 200.268 34.97 201.293 34.9651ZM200.607 36.5581C200.607 36.7257 200.607 36.8933 200.607 37.0659C200.856 37.203 201.104 37.3401 201.36 37.4814C202.065 37.8867 202.73 38.3241 203.39 38.8004C203.562 38.9243 203.734 39.0481 203.91 39.1758C204.264 39.4331 204.617 39.6923 204.968 39.9533C205.224 40.1366 205.224 40.1366 205.485 40.3237C205.637 40.4355 205.79 40.5474 205.947 40.6627C206.394 40.9163 206.394 40.9163 206.891 40.8276C207.517 40.5782 208.034 40.2571 208.595 39.8824C208.817 39.7354 209.039 39.5885 209.267 39.4371C209.497 39.2829 209.727 39.1288 209.963 38.97C210.421 38.6657 210.878 38.3615 211.336 38.0576C211.538 37.9223 211.74 37.787 211.948 37.6475C212.452 37.3198 212.452 37.3198 212.956 37.0659C212.831 36.8146 212.831 36.8146 212.704 36.5581C208.712 36.5581 204.72 36.5581 200.607 36.5581ZM212.373 38.8272C212.101 39.0358 211.829 39.2441 211.556 39.452C211.414 39.5602 211.272 39.6684 211.126 39.78C210.403 40.3282 209.675 40.8675 208.939 41.3977C208.677 41.5891 208.415 41.7806 208.145 41.9778C207.348 42.4335 207.043 42.5854 206.152 42.3973C205.558 42.0305 205.029 41.6654 204.482 41.239C202.981 40.0955 201.451 39.107 199.851 38.0814C199.851 40.8461 199.851 43.6109 199.851 46.4594C201.685 46.4647 203.519 46.4698 205.353 46.4725C206.207 46.4739 207.061 46.4757 207.915 46.4786C208.894 46.4818 209.873 46.4831 210.852 46.4842C211.313 46.4862 211.313 46.4862 211.784 46.4882C212.066 46.4882 212.349 46.4882 212.64 46.4882C212.89 46.4888 213.14 46.4894 213.398 46.4899C213.957 46.5235 213.957 46.5235 214.216 46.2055C214.238 45.584 214.245 44.9696 214.241 44.348C214.24 44.1624 214.24 43.9768 214.24 43.7856C214.238 43.1906 214.235 42.5956 214.232 42.0007C214.231 41.5982 214.229 41.1957 214.228 40.7932C214.226 39.8047 214.221 38.8161 214.216 37.8275C213.415 37.8275 212.997 38.34 212.373 38.8272Z" fill="black"/>
<path d="M65.5733 42.2393C65.7241 42.2916 65.8748 42.344 66.0301 42.3979C66.1133 42.9006 66.1964 43.4033 66.2821 43.9212C65.5261 44.429 65.5261 44.429 64.9905 44.3496C64.518 44.1751 64.518 44.1751 64.266 43.9212C64.203 43.3024 64.203 43.3024 64.266 42.6518C65.0221 42.1441 65.0221 42.1441 65.5733 42.2393Z" fill="black"/>
<path d="M37.8033 58.6455C38.4806 58.8677 38.4806 58.8677 39.0634 59.1533C39.0949 59.7562 39.0949 59.7562 39.0634 60.4227C38.8971 60.5902 38.7307 60.7578 38.5593 60.9304C37.4113 60.7894 37.4113 60.7894 37.0473 60.4227C36.9842 59.8038 36.9842 59.8038 37.0473 59.1533C37.2967 58.9857 37.5462 58.8181 37.8033 58.6455Z" fill="black"/>
<path d="M228.72 76.3701C229.334 76.4177 229.334 76.4177 229.586 76.6716C229.634 77.2904 229.634 77.2904 229.586 77.941C229.42 78.1086 229.254 78.2761 229.082 78.4487C228.421 78.3535 228.421 78.3535 227.822 78.1949C227.665 77.5919 227.665 77.5919 227.57 76.9255C228.074 76.4177 228.074 76.4177 228.72 76.3701Z" fill="black"/>
<path d="M22.0324 87.2705C22.3521 87.3019 22.3521 87.3019 22.6782 87.334C23.1822 88.0956 23.1822 88.0956 23.1507 88.6192C22.865 89.2566 22.5556 89.3718 21.9221 89.6189C21.5895 89.3675 21.2568 89.1162 20.9141 88.8572C21.1811 87.3585 21.1811 87.3585 22.0324 87.2705Z" fill="black"/>
<path d="M237.397 103.075C237.555 103.678 237.555 103.678 237.649 104.344C237.145 104.852 237.145 104.852 236.499 104.899C235.885 104.852 235.885 104.852 235.633 104.598C235.623 104.09 235.622 103.582 235.633 103.075C236.305 102.736 236.683 102.904 237.397 103.075Z" fill="black"/>
<path d="M161.547 134.301C161.705 134.904 161.705 134.904 161.799 135.571C161.295 136.078 161.295 136.078 160.634 136.11C160.436 136.1 160.239 136.089 160.035 136.078C159.768 135.618 159.768 135.618 159.531 135.063C159.614 134.812 159.698 134.56 159.783 134.301C160.455 133.963 160.833 134.131 161.547 134.301Z" fill="black"/>
<path d="M84.6783 144.457C85.3556 144.679 85.3556 144.679 85.9384 144.965C85.9699 145.568 85.9699 145.568 85.9384 146.234C85.7721 146.402 85.6057 146.569 85.4343 146.742C84.2863 146.601 84.2863 146.601 83.9223 146.234C83.8592 145.615 83.8592 145.615 83.9223 144.965C84.1717 144.797 84.4212 144.63 84.6783 144.457Z" fill="black"/>
<path d="M222.782 151.279C223.538 151.311 223.538 151.311 223.79 151.565C223.837 152.184 223.837 152.184 223.79 152.834C223.623 153.002 223.457 153.169 223.286 153.342C222.138 153.201 222.138 153.201 221.774 152.834C221.742 152.2 221.742 152.2 221.774 151.565C222.026 151.311 222.026 151.311 222.782 151.279Z" fill="black"/>
</g>
<defs>
<clipPath id="clip0_246_3164">
<rect width="250" height="180" fill="white"/>
</clipPath>
</defs>
</svg>
