<svg width="580" height="416" viewBox="0 0 580 416" fill="none" xmlns="http://www.w3.org/2000/svg">
<g clip-path="url(#clip0_250_94)">
<path d="M325.081 0.645873C325.598 1.46227 326.111 2.28253 326.595 3.11933C327.695 4.49996 328.944 5.21488 330.452 6.12722C337.538 10.4487 342.515 15.9802 344.96 24.033C344.96 24.6118 344.96 25.1906 344.96 25.787C345.456 25.9294 345.952 26.0719 346.463 26.2187C348.666 27.0293 350.538 28.1219 352.487 29.4047C352.844 29.639 353.201 29.8733 353.569 30.1147C360.853 34.9692 360.853 34.9692 362.098 38.4672C361.915 40.4039 361.915 40.4039 360.652 41.6738C357.707 43.5699 354.775 43.1584 351.391 42.7426C348.015 41.984 344.73 40.9187 341.452 39.8193C339.223 43.9808 337.585 48.1791 336.08 52.6456C334.408 57.4433 332.574 62.0379 330.197 66.5317C329.846 67.197 329.846 67.197 329.488 67.8756C327.457 71.5813 325.111 74.8178 321.573 77.2386C320.994 77.2386 320.415 77.2386 319.819 77.2386C319.819 77.6245 319.819 78.0104 319.819 78.408C320.275 78.4539 320.731 78.4999 321.2 78.5473C324.072 79.1488 326.604 80.2622 329.283 81.441C329.867 81.697 330.452 81.9529 331.054 82.2166C342.838 87.4701 354.142 93.7983 365.423 100.041C365.942 100.328 366.461 100.615 366.996 100.911C369.983 102.565 372.966 104.224 375.948 105.888C375.969 105.448 375.99 105.008 376.013 104.555C376.339 99.2347 377.225 94.1007 378.323 88.8956C378.412 88.4662 378.502 88.0369 378.594 87.5945C387.877 43.2741 387.877 43.2741 402.411 31.1199C405.878 28.8841 409.367 28.9041 413.367 29.2951C420.277 30.9246 427.382 36.4856 431.238 42.3909C433.757 46.8252 434.267 50.5014 433.831 55.6055C433.289 57.432 432.747 58.1793 431.492 59.6983C430.901 59.9154 430.31 60.1324 429.701 60.3561C427.834 61.2856 427.834 61.2856 427.472 63.1424C427.204 64.5042 426.939 65.867 426.68 67.2306C426.064 69.7268 425.424 70.565 423.306 71.9765C421.845 72.5612 421.845 72.5612 420.383 72.5612C418.248 71.5951 416.93 70.4659 415.706 68.4685C415.706 68.0826 415.706 67.6967 415.706 67.2991C414.355 67.492 413.004 67.685 411.613 67.8838C411.806 68.4626 411.999 69.0414 412.198 69.6378C413.47 79.2517 413.491 89.045 413.513 98.7255C413.516 99.244 413.519 99.7626 413.522 100.297C413.593 115.733 413.593 115.733 411.613 121.674C412.205 121.494 412.797 121.314 413.407 121.129C416.612 120.215 419.889 119.849 423.187 119.417C424.358 119.263 425.527 119.102 426.697 118.94C435.233 117.806 435.233 117.806 439.093 118.166C440.026 119.099 439.77 120.068 439.775 121.357C439.743 124.411 439.309 127.264 438.695 130.248C438.594 130.761 438.493 131.273 438.389 131.802C438.069 133.421 437.74 135.039 437.412 136.656C437.196 137.745 436.98 138.834 436.765 139.922C435.877 144.391 434.967 148.833 433.831 153.247C434.177 153.127 434.523 153.007 434.879 152.884C435.341 152.726 435.803 152.568 436.279 152.406C436.733 152.25 437.188 152.094 437.656 151.933C443.886 150.022 451.784 150.041 457.802 152.662C464.83 156.548 469.875 162.701 474.137 169.362C474.539 169.978 474.942 170.595 475.356 171.23C476.527 173.027 477.69 174.83 478.851 176.634C479.431 177.524 480.012 178.414 480.593 179.304C481.891 181.292 483.177 183.287 484.458 185.287C485.034 186.185 485.611 187.084 486.189 187.981C495.03 201.709 503.445 215.69 511.593 229.839C511.963 230.481 512.333 231.123 512.714 231.784C518.166 241.258 523.534 250.777 528.805 260.353C529.401 261.426 530.005 262.494 530.62 263.556C530.89 264.025 531.159 264.494 531.438 264.977C531.675 265.382 531.912 265.787 532.156 266.204C532.641 267.259 532.641 267.259 532.495 268.867C531.077 270.689 529.398 271.987 527.379 273.106C526.993 273.106 526.607 273.106 526.21 273.106C526.706 273.898 526.706 273.898 527.212 274.707C527.646 275.403 528.079 276.1 528.512 276.796C528.73 277.144 528.948 277.492 529.173 277.85C530.12 279.378 530.901 280.749 531.472 282.46C531.841 282.403 532.21 282.346 532.591 282.287C536.451 281.688 540.312 281.091 544.172 280.494C545.611 280.272 547.05 280.049 548.488 279.825C550.562 279.504 552.636 279.183 554.71 278.863C555.348 278.764 555.986 278.665 556.643 278.562C561.422 277.827 566.128 277.106 570.974 277.162C571.578 277.167 572.181 277.172 572.803 277.178C573.472 277.188 576.492 276.796 578.831 278.562C580.45 283.486 580 287.576 574.153 291.815C567.429 297.37 561.014 301.375 554.378 305.225C550.44 307.527 546.694 310.086 542.95 312.687C541.141 313.938 539.316 315.165 537.492 316.394C534.935 318.124 532.391 319.871 529.859 321.637C528.407 322.646 526.95 323.647 525.492 324.646C524.81 325.117 524.131 325.591 523.456 326.07C522.529 326.725 521.593 327.366 520.655 328.006C520.131 328.372 519.606 328.737 519.066 329.114C516.923 330.043 515.585 329.791 513.347 329.235C508.367 324.41 506.221 315.578 504.65 309.027C503.286 303.588 500.659 298.802 497.561 294.154C497.138 294.54 496.716 294.926 496.282 295.323C494.459 296.619 493.88 296.83 491.714 296.493C490.684 295.438 490.684 295.438 489.766 293.976C489.265 293.192 489.265 293.192 488.755 292.393C488.417 291.841 488.079 291.288 487.731 290.719C487.381 290.171 487.032 289.623 486.672 289.059C484.113 284.993 484.113 284.993 484.113 283.63C481.219 283.63 478.325 283.63 475.343 283.63C475.428 284.656 475.512 285.683 475.6 286.741C476.598 298.821 477.59 310.902 478.578 322.983C478.763 325.238 478.948 327.492 479.132 329.746C479.657 336.154 480.181 342.562 480.701 348.969C480.931 351.804 481.162 354.639 481.394 357.473C481.615 360.159 481.833 362.845 482.05 365.531C482.13 366.521 482.211 367.511 482.292 368.501C482.405 369.863 482.514 371.226 482.624 372.589C482.686 373.352 482.748 374.115 482.812 374.901C482.957 377.411 482.944 379.927 482.944 382.44C504.553 382.44 526.163 382.44 548.427 382.44C548.62 383.212 548.813 383.984 549.012 384.779C547.843 385.948 547.843 385.948 546.524 386.094C545.694 386.093 545.694 386.093 544.847 386.093C544.212 386.095 543.578 386.098 542.924 386.1C541.875 386.095 541.875 386.095 540.805 386.09C540.071 386.091 539.337 386.093 538.581 386.094C536.565 386.096 534.549 386.092 532.533 386.086C530.425 386.081 528.318 386.082 526.211 386.082C522.672 386.082 519.133 386.077 515.594 386.069C511.499 386.059 507.404 386.056 503.309 386.057C499.375 386.057 495.44 386.054 491.505 386.049C489.829 386.047 488.152 386.046 486.475 386.046C484.136 386.045 481.797 386.039 479.457 386.033C478.758 386.033 478.059 386.034 477.338 386.034C476.704 386.031 476.069 386.029 475.416 386.026C474.862 386.025 474.308 386.025 473.738 386.023C472.419 385.948 472.419 385.948 471.25 385.364C471.25 385.749 471.25 386.135 471.25 386.533C471.656 386.592 472.063 386.65 472.482 386.711C474.477 387.191 476.043 387.987 477.855 388.949C478.375 389.226 478.375 389.226 478.906 389.507C479.638 389.898 480.369 390.29 481.099 390.684C482.198 391.276 483.301 391.858 484.405 392.439C491.086 395.998 499.025 400.59 501.653 408.166C502.055 412.626 502.055 412.626 501.069 414.597C496.146 415.905 490.702 414.958 485.703 414.504C484.772 414.423 483.841 414.342 482.911 414.261C473.124 413.39 463.375 412.221 453.626 411.005C451.779 410.775 449.931 410.55 448.083 410.325C442.772 409.678 437.464 409.011 432.158 408.327C430.91 408.166 429.662 408.008 428.414 407.85C426.107 407.556 423.802 407.249 421.498 406.94C420.472 406.81 420.472 406.81 419.425 406.677C418.491 406.548 418.491 406.548 417.538 406.416C416.998 406.345 416.457 406.273 415.9 406.199C414.354 405.778 413.741 405.342 412.782 404.073C411.835 398.122 413.583 391.669 414.536 385.948C353.18 385.948 291.824 385.948 228.609 385.948C228.609 385.948 223.82 385.948 223.931 385.948C223.294 385.949 223.294 385.949 222.643 385.95C197.47 385.976 172.297 385.996 147.123 386.008C144.104 386.009 141.084 386.011 138.064 386.013C137.463 386.013 136.862 386.013 136.242 386.013C126.496 386.019 116.75 386.028 107.004 386.038C97.0101 386.049 87.0164 386.056 77.0228 386.058C70.8516 386.06 64.6804 386.065 58.5093 386.074C54.2827 386.081 50.0562 386.083 45.8297 386.081C43.3879 386.08 40.9461 386.081 38.5043 386.088C36.2719 386.093 34.0395 386.094 31.8071 386.09C30.9966 386.089 30.186 386.091 29.3755 386.094C28.2795 386.099 27.1834 386.096 26.0874 386.092C25.4769 386.093 24.8664 386.093 24.2373 386.094C22.8024 385.948 22.8024 385.948 21.6331 384.779C21.826 384.007 22.019 383.235 22.2177 382.44C30.5143 382.247 38.8109 382.054 47.3589 381.856C46.2012 379.54 45.0436 377.225 43.8508 374.839C43.1852 373.167 42.5574 371.534 41.9871 369.833C41.8423 369.408 41.6975 368.982 41.5482 368.544C41.1398 367.331 40.7405 366.116 40.3427 364.9C40.1483 364.327 39.9538 363.754 39.7535 363.164C36.9954 354.274 37.2949 344.059 41.1558 335.566C43.639 331.202 47.1021 327.193 52.0363 325.726C56.4374 324.632 59.7739 325.312 63.7298 327.481C65.3012 328.65 65.3012 328.65 66.0686 329.819C65.9749 330.966 65.9749 330.966 65.4839 332.158C64.4196 332.948 64.4196 332.948 63.0721 333.693C55.7178 338.362 53.1791 347.519 51.3237 355.582C50.6715 358.661 50.4013 361.757 50.2823 364.9C50.8611 364.9 51.4399 364.9 52.0363 364.9C52.0058 363.882 52.0058 363.882 51.9746 362.844C51.9773 360.369 52.3915 358.079 53.0229 355.691C53.1809 355.085 53.1809 355.085 53.342 354.466C55.2716 347.326 58.1227 340.087 64.2757 335.572C66.1856 334.796 68.1146 334.702 70.1613 334.497C70.3535 322.223 70.3535 322.223 69.6497 309.977C69.6038 309.494 69.5579 309.012 69.5107 308.515C69.2108 305.758 68.6605 303.229 67.8226 300.585C67.5874 301.074 67.5874 301.074 67.3475 301.572C63.9775 308.135 59.1105 312.07 52.1825 314.471C42.5673 317.534 32.7026 315.827 23.899 311.293C17.831 308.018 12.982 303.767 8.20318 298.857C5.65159 296.245 2.99146 293.92 0 291.815C0.613369 287.837 4.7039 285.654 7.715 283.401C20.6847 274.175 37.7372 267.348 53.7903 266.674C54.2033 266.651 54.6164 266.627 55.0419 266.603C61.5263 266.405 68.6871 267.226 73.6191 271.806C75.9577 274.427 76.8233 276.468 76.7503 280.09C76.4784 282.163 75.6277 283.254 74.254 284.799C70.4205 287.722 70.4205 287.722 67.8226 287.722C68.9531 291.451 70.0983 295.16 71.4037 298.831C74.1606 307.225 73.7515 315.572 73.5131 324.29C73.4708 325.934 73.4466 327.577 73.425 329.221C73.4062 329.725 73.3875 330.229 73.3681 330.749C73.3569 332.063 73.3653 333.218 73.6694 334.497C75.0281 335.721 75.0281 335.721 76.5927 336.251C76.7857 336.444 76.9786 336.637 77.1774 336.835C77.2325 331.672 77.2836 326.596 76.6065 321.465C76.5923 319.833 76.9611 318.594 77.4469 317.05C78.1553 314.211 78.2595 311.24 78.5295 308.332C79.9942 294.109 83.8099 282.016 92.9637 270.767C92.1497 270.134 92.1497 270.134 91.3193 269.488C89.2632 267.738 87.8952 266.345 87.5166 263.559C87.3609 260.203 87.7086 258.136 90.0403 255.565C94.8514 251.203 101.224 250.084 107.553 250.18C125.232 251.404 140.317 260.734 152.42 273.307C158.234 279.996 163.425 287.331 163.125 296.493C162.932 296.686 162.739 296.879 162.54 297.077C158.585 296.865 154.845 295.971 151.018 295.008C150.408 294.856 150.408 294.856 149.785 294.702C149.426 294.611 149.068 294.52 148.699 294.426C144.392 293.565 140.238 293.513 135.862 293.574C134.532 293.584 133.201 293.594 131.871 293.603C129.798 293.622 127.725 293.642 125.652 293.669C102.684 293.955 102.684 293.955 95.1905 287.142C93.3815 285.141 91.9849 283.035 90.625 280.706C85.2883 290.134 82.0118 301.373 82.4395 312.279C84.369 312.086 86.2984 311.893 88.2863 311.694C88.3948 310.898 88.5034 310.102 88.6152 309.282C89.2231 306.63 90.1048 305.278 92.2923 303.675C98.4896 299.968 105.543 299.592 112.534 300.992C123.877 304.475 131.957 313.329 137.465 323.516C142.396 333.091 144.519 343.158 144.525 353.864C144.532 354.546 144.539 355.228 144.547 355.931C144.548 356.589 144.549 357.247 144.55 357.925C144.552 358.52 144.555 359.116 144.557 359.729C144.409 361.466 143.975 362.741 143.246 364.315C140.898 363.963 139.428 362.748 137.545 361.355C126.938 353.816 108.95 345.606 95.8871 345.606C89.008 357.668 86.4189 368.39 83.6089 382.44C108.692 382.44 133.774 382.44 159.617 382.44C159.617 380.511 159.617 378.581 159.617 376.593C159.701 375.092 159.804 373.591 159.928 372.092C159.961 371.679 159.995 371.265 160.029 370.839C160.14 369.474 160.254 368.109 160.368 366.745C160.449 365.758 160.53 364.771 160.61 363.784C160.783 361.669 160.957 359.555 161.133 357.44C161.41 354.097 161.684 350.753 161.958 347.409C162.391 342.122 162.826 336.835 163.263 331.548C164.044 322.073 164.824 312.597 165.6 303.121C165.873 299.797 166.147 296.473 166.422 293.149C166.592 291.084 166.762 289.018 166.931 286.953C167.01 285.995 167.089 285.038 167.169 284.08C167.278 282.773 167.385 281.466 167.492 280.159C167.552 279.428 167.612 278.696 167.675 277.943C167.738 276.995 167.738 276.995 167.802 276.029C167.843 275.492 167.883 274.954 167.925 274.4C167.93 272.884 167.93 272.884 166.158 271.644C165.838 271.399 165.517 271.154 165.187 270.902C162.273 268.554 161.856 264.921 161.371 261.412C161.371 260.64 161.371 259.868 161.371 259.073C160.78 259.134 160.189 259.194 159.58 259.256C155.487 259.235 151.709 257.554 147.923 256.15C147.427 255.971 146.93 255.793 146.419 255.609C144.832 255.035 143.253 254.444 141.675 253.848C141.171 253.666 140.667 253.484 140.148 253.296C137.079 252.101 135.329 251.094 133.891 247.964C133.622 246.128 133.622 246.128 133.672 244.31C133.679 243.704 133.687 243.098 133.695 242.474C133.891 240.948 133.891 240.948 135.06 239.779C136.267 239.638 136.267 239.638 137.769 239.646C138.331 239.646 138.893 239.646 139.472 239.646C140.08 239.652 140.688 239.659 141.314 239.665C141.935 239.666 142.556 239.668 143.196 239.67C145.186 239.676 147.176 239.691 149.166 239.706C150.513 239.712 151.859 239.717 153.206 239.722C156.512 239.735 159.819 239.754 163.125 239.779C163.016 239.008 163.016 239.008 162.905 238.221C162.104 232.408 161.49 226.591 160.946 220.749C160.856 219.796 160.766 218.843 160.676 217.89C160.489 215.913 160.304 213.935 160.119 211.958C159.882 209.424 159.643 206.89 159.403 204.356C159.218 202.397 159.034 200.438 158.85 198.478C158.762 197.543 158.673 196.608 158.585 195.673C158.463 194.373 158.341 193.074 158.22 191.774C158.151 191.036 158.082 190.298 158.01 189.537C157.863 187.743 157.863 187.743 157.863 185.989C157.107 185.995 156.352 186.001 155.574 186.007C152.778 186.028 149.982 186.042 147.186 186.053C145.974 186.059 144.763 186.067 143.551 186.077C141.813 186.091 140.074 186.098 138.336 186.103C137.792 186.109 137.248 186.115 136.687 186.121C135.933 186.121 135.933 186.121 135.162 186.121C134.496 186.125 134.496 186.125 133.817 186.129C132.722 185.989 132.722 185.989 131.552 184.819C131.322 183.591 131.322 183.591 131.203 182.072C131.157 181.513 131.111 180.955 131.063 180.38C131.02 179.783 130.976 179.186 130.931 178.571C130.883 177.962 130.835 177.354 130.785 176.727C130.646 174.942 130.514 173.157 130.383 171.372C130.316 170.5 130.248 169.628 130.18 168.757C129.472 159.111 129.472 159.111 129.798 156.17C130.968 155.001 130.968 155.001 133.301 154.868C134.309 154.868 135.318 154.875 136.326 154.887C137.121 154.889 137.121 154.889 137.933 154.892C139.631 154.898 141.329 154.913 143.027 154.928C144.176 154.933 145.326 154.939 146.475 154.944C149.297 154.957 152.118 154.977 154.94 155.001C154.94 153.65 154.94 152.299 154.94 150.908C154.266 151.002 153.593 151.097 152.899 151.194C150.423 151.502 147.99 151.587 145.498 151.591C145.066 151.593 144.634 151.595 144.189 151.597C143.286 151.6 142.383 151.601 141.48 151.601C140.095 151.602 138.709 151.613 137.324 151.624C136.443 151.626 135.562 151.627 134.681 151.627C134.267 151.632 133.853 151.636 133.426 151.64C130.517 151.626 130.517 151.626 129.214 150.323C128.988 148.833 128.829 147.392 128.716 145.893C128.679 145.446 128.641 145 128.603 144.541C128.525 143.591 128.449 142.642 128.376 141.692C128.266 140.267 128.147 138.843 128.026 137.419C127.803 134.706 127.615 131.993 127.46 129.275C127.436 128.862 127.412 128.45 127.388 128.025C127.331 126.886 127.296 125.746 127.263 124.607C127.233 123.646 127.233 123.646 127.203 122.666C127.46 121.089 127.46 121.089 128.328 120.13C130.454 118.981 132.507 119.078 134.864 119.083C135.376 119.077 135.888 119.071 136.416 119.065C138.118 119.047 139.821 119.041 141.524 119.036C142.726 119.026 143.928 119.016 145.129 119.004C148.314 118.977 151.499 118.959 154.683 118.944C157.834 118.927 160.986 118.899 164.137 118.873C178.806 118.755 193.475 118.724 208.145 118.751C208.183 118.312 208.22 117.874 208.259 117.422C208.309 116.845 208.36 116.268 208.412 115.674C208.462 115.102 208.511 114.531 208.562 113.943C209.783 102.103 216.626 90.0729 225.685 82.5007C236.639 75.0102 250.651 71.7233 263.797 71.248C264.446 71.2168 265.095 71.1856 265.763 71.1535C267.061 71.0942 268.359 71.0559 269.657 71.041C273.143 70.8754 273.143 70.8754 276.073 69.1453C277.153 67.801 278.039 66.4591 278.891 64.9604C279.216 64.4007 279.216 64.4007 279.547 63.8297C283.886 55.8691 283.886 55.8691 285.14 47.299C284.732 46.1459 284.732 46.1459 283.861 44.789C282.067 41.7989 282.04 38.5496 282.399 35.1418C283.154 32.5043 283.902 30.4503 286.213 28.8725C288.262 26.9889 288.364 25.2046 288.794 22.5347C290.094 15.8116 292.577 10.1554 298.186 5.90797C303.641 2.78576 308.824 1.62139 315.032 1.81523C316.01 1.84507 316.988 1.86966 317.966 1.88831C318.606 1.90866 318.606 1.90866 319.259 1.92942C321.652 1.69062 322.469 0.136336 325.081 0.645873ZM297.016 11.7547C294.534 15.1104 293.394 18.871 292.339 22.8636C294.129 22.7797 295.92 22.6942 297.71 22.6078C298.204 22.5848 298.699 22.5618 299.208 22.5382C302.029 22.4008 304.838 22.215 307.652 21.9752C312.047 21.6301 316.435 21.5549 320.842 21.5481C321.454 21.546 321.454 21.546 322.078 21.544C328.296 21.5361 334.227 21.9163 340.282 23.4483C339.562 18.3762 335.697 14.3193 331.903 11.1061C321.744 3.90709 306.341 1.88393 297.016 11.7547ZM306.371 25.2023C307.823 28.1069 313.912 29.448 316.895 30.4644C320.694 31.5649 324.572 32.3341 328.443 33.132C330.506 33.5711 332.568 34.0174 334.63 34.4658C335.374 34.6268 335.374 34.6268 336.133 34.7911C340.458 35.7384 344.71 36.882 348.921 38.2549C351.984 39.219 354.607 39.3581 357.823 39.2346C355.002 33.0927 346.238 29.4492 340.282 26.9564C334.105 24.7414 327.932 24.517 321.426 24.5446C320.783 24.5457 320.14 24.5468 319.477 24.548C315.084 24.5714 310.741 24.7158 306.371 25.2023ZM288.356 31.378C286.383 33.5755 285.984 35.4552 285.725 38.3576C285.991 41.3447 286.867 43.1388 289.013 45.2275C290.671 46.3066 292.194 46.8902 294.093 47.4201C293.9 47.9989 293.707 48.5777 293.508 49.1741C292.157 49.1741 290.807 49.1741 289.415 49.1741C289.287 49.4944 289.159 49.8147 289.027 50.1448C288.624 51.1518 288.22 52.1581 287.814 53.1641C287.293 54.4766 286.784 55.7942 286.284 57.1152C283.777 63.6948 281.22 70.0268 275.383 74.3152C276.127 79.2027 279.547 82.37 283.235 85.4355C287.798 88.7809 294.011 92.756 299.94 91.8555C303.223 90.0385 304.291 86.925 305.713 83.6335C306.077 82.8348 306.077 82.8348 306.449 82.0199C307.916 79.1247 307.916 79.1247 307.54 76.0693C306.455 75.1238 306.455 75.1238 305.129 74.2056C298.699 69.3475 298.699 69.3475 297.784 65.6958C297.693 65.0424 297.693 65.0424 297.601 64.3757C298.758 64.0863 298.758 64.0863 299.94 63.791C300.228 64.2161 300.228 64.2161 300.522 64.6498C303.443 68.7663 307.707 71.5422 309.879 71.9765C320.86 74.1727 323.327 67.5914 320.513 73.5478C328.83 66.3475 332.385 53.0268 335.702 42.9819C336.209 41.5174 336.773 40.0843 337.359 38.6499C335.334 37.7778 333.429 37.2212 331.261 36.8296C330.655 36.7163 330.049 36.603 329.425 36.4862C328.787 36.3682 328.15 36.2501 327.492 36.1285C322.374 35.1551 317.544 33.9823 312.681 32.1134C310.964 31.609 310.304 31.4397 308.71 32.2185C307.497 33.3898 307.497 33.3898 306.371 34.813C303.843 37.889 303.843 37.889 301.694 38.6499C299.793 38.4306 299.793 38.4306 298.186 38.0652C298.086 37.7057 297.987 37.3462 297.884 36.9758C297.045 34.0951 297.045 34.0951 295.408 31.6338C292.824 30.4852 290.899 29.9648 288.356 31.378ZM399.335 39.8193C398.168 41.602 397.165 43.443 396.192 45.3372C395.919 45.8678 395.645 46.3984 395.363 46.9452C384.343 68.9724 380.448 93.8812 378.286 118.166C377.515 117.973 376.743 117.78 375.948 117.581C375.755 114.88 375.562 112.179 375.363 109.396C372.855 108.238 370.346 107.081 367.762 105.888C367.663 106.743 367.563 107.599 367.461 108.48C366.607 115.544 365.489 122.394 363.669 129.275C369.848 128.974 375.879 128.036 381.975 127.026C383.606 126.756 385.237 126.492 386.869 126.229C393.798 125.1 400.664 123.768 407.52 122.259C411.365 109.145 410.023 94.3907 409.366 80.9046C409.308 79.6843 409.254 78.4637 409.207 77.2429C409.143 75.7042 409.05 74.1707 408.945 72.6343C408.931 72.1901 408.917 71.746 408.902 71.2883C408.828 69.8657 408.828 69.8657 408.105 67.8838C406.977 66.969 405.828 66.3092 404.549 65.6244C403.006 64.7111 402.429 63.6933 401.71 62.0735C401.485 61.5693 401.261 61.0651 401.029 60.5456C400.428 58.9068 400.057 57.3473 399.919 55.6055C400.884 55.6055 401.849 55.6055 402.843 55.6055C402.942 55.9515 403.042 56.2974 403.144 56.6539C404.001 59.4458 404.758 61.7383 406.936 63.791C408.76 64.579 408.76 64.579 410.444 64.9604C410.324 64.5722 410.204 64.1841 410.08 63.7842C409.923 63.2679 409.765 62.7516 409.603 62.2197C409.447 61.711 409.291 61.2022 409.13 60.6781C408.433 58.2029 408.031 55.9217 408.048 53.3468C408.051 52.5695 408.051 52.5695 408.053 51.7766C408.061 50.9767 408.061 50.9767 408.068 50.1607C408.071 49.6162 408.074 49.0717 408.076 48.5106C408.083 47.1726 408.093 45.8347 408.105 44.4967C408.877 44.4967 409.648 44.4967 410.444 44.4967C410.487 45.4814 410.487 45.4814 410.53 46.486C410.71 55.404 410.71 55.404 414.536 63.2064C414.922 63.2064 415.308 63.2064 415.706 63.2064C416.335 60.0231 416.479 56.865 416.619 53.6323C416.657 52.8194 416.657 52.8194 416.696 51.9901C416.757 50.6617 416.817 49.3333 416.875 48.0047C417.647 47.8118 418.419 47.6189 419.214 47.4201C419.87 52.4402 419.741 56.9056 418.869 61.8791C418.522 64.2101 418.433 65.6019 419.769 67.612C420.164 68.0876 420.56 68.5631 420.968 69.0531C422.952 67.5197 423.439 65.5741 423.891 63.2064C424.106 60.882 424.187 58.5595 424.257 56.2268C424.279 55.6038 424.302 54.9809 424.325 54.3391C424.38 52.8124 424.43 51.2858 424.476 49.7588C425.248 49.7588 426.019 49.7588 426.815 49.7588C427.393 53.5212 427.393 53.5212 427.984 57.3596C430.345 55.3968 430.345 55.3968 430.654 53.7191C430.645 48.2992 428.68 44.4983 424.987 40.5866C420.708 36.5569 415.862 33.1522 409.895 32.5839C404.967 32.7525 402.161 36.1921 399.335 39.8193ZM223.931 89.5168C223.569 89.8613 223.206 90.2057 222.833 90.5606C206.967 106.71 208.742 138.688 208.145 159.678C211.375 159.439 214.562 159.132 217.749 158.545C229.218 156.45 240.329 156.338 251.996 156.17C252.382 142.857 252.768 129.544 253.165 115.827C254.13 115.634 255.095 115.441 256.089 115.243C255.95 120.95 255.808 126.657 255.662 132.365C255.594 135.014 255.527 137.664 255.463 140.314C255.401 142.869 255.336 145.425 255.27 147.98C255.245 148.957 255.221 149.934 255.198 150.911C255.165 152.274 255.13 153.638 255.093 155.002C255.084 155.41 255.075 155.818 255.066 156.238C254.986 159.027 254.986 159.027 254.335 159.678C252.598 159.871 250.862 160.064 249.073 160.263C249.073 165.472 249.073 170.682 249.073 176.049C254.079 176.663 259.085 177.273 264.092 177.879C266.418 178.16 268.743 178.443 271.068 178.728C273.316 179.004 275.564 179.277 277.812 179.547C278.666 179.65 279.52 179.755 280.373 179.86C289.108 181.124 289.108 181.124 297.697 179.744C298.316 179.539 298.936 179.333 299.574 179.121C300.201 178.903 300.828 178.685 301.474 178.461C312.687 174.674 312.687 174.674 318.942 174.807C319.422 174.812 319.903 174.817 320.399 174.823C321.57 174.836 322.74 174.857 323.911 174.88C326.068 167.453 327.518 159.926 328.954 152.333C329.3 150.509 329.647 148.686 329.997 146.863C330.213 145.738 330.426 144.613 330.637 143.488C331.756 137.652 331.756 137.652 332.681 135.706C334.129 135.128 334.129 135.128 335.605 134.537C336.184 128.363 336.763 122.189 337.359 115.827C338.131 116.02 338.902 116.213 339.698 116.412C339.505 122.007 339.312 127.603 339.113 133.368C346.187 132.364 346.187 132.364 353.255 131.321C353.733 131.253 354.211 131.184 354.704 131.113C355.163 131.043 355.621 130.973 356.094 130.901C356.498 130.841 356.902 130.781 357.318 130.719C358.592 130.462 358.592 130.462 360.161 129.275C360.649 128.248 360.649 128.248 360.931 127.039C361.112 126.36 361.112 126.36 361.296 125.667C361.476 124.939 361.476 124.939 361.66 124.196C361.786 123.698 361.912 123.2 362.043 122.687C363.125 118.281 363.836 113.918 364.254 109.396C364.368 108.6 364.368 108.6 364.485 107.788C364.693 106.248 364.693 106.248 364.254 104.134C363.426 103.349 363.426 103.349 362.306 102.757C361.88 102.509 361.454 102.261 361.015 102.006C360.541 101.744 360.066 101.481 359.577 101.21C359.075 100.93 358.573 100.649 358.056 100.36C356.364 99.4254 354.665 98.5069 352.962 97.5927C352.343 97.2597 351.724 96.9267 351.086 96.5836C349.829 95.9082 348.571 95.2335 347.313 94.5597C345.749 93.7193 344.189 92.8713 342.63 92.02C327.568 83.1588 327.568 83.1588 311.048 78.9926C310.887 79.3701 310.725 79.7475 310.558 80.1363C309.816 81.8539 309.062 83.5658 308.308 85.2779C308.053 85.8718 307.799 86.4657 307.537 87.0776C305.1 92.566 305.1 92.566 302.278 94.1943C296.718 96.0478 291.188 93.429 286.2 90.942C279.666 87.2019 274.606 81.9336 271.875 74.8999C255.237 74.3112 235.968 76.9427 223.931 89.5168ZM161.956 150.908C161.956 152.259 161.956 153.609 161.956 155.001C176.233 154.808 190.511 154.615 205.222 154.416C205.222 153.258 205.222 152.101 205.222 150.908C190.944 150.908 176.666 150.908 161.956 150.908ZM390.99 178.683C388.73 179.922 386.461 181.142 384.192 182.363C378.455 185.456 372.756 188.608 367.089 191.829C362.787 194.273 358.462 196.676 354.132 199.071C349.402 201.687 344.698 204.341 340.027 207.06C337.523 208.515 335.008 209.951 332.494 211.388C331.188 212.148 329.907 212.931 328.63 213.738C323.907 216.513 320.073 216.566 314.75 216.525C307.743 216.677 301.788 219.762 295.607 222.827C294.011 223.439 292.862 223.524 291.169 223.408C291.169 222.829 291.169 222.25 291.169 221.654C294.256 220.303 297.344 218.953 300.524 217.561C298.411 216.153 297.196 216.166 294.677 216.026C293.954 215.983 293.23 215.939 292.485 215.894C291.657 215.864 290.828 215.835 290 215.807C289.504 215.781 289.008 215.754 288.497 215.727C284.384 215.593 281.069 216.331 277.21 217.707C276.615 217.913 276.019 218.118 275.405 218.33C268.365 220.811 261.499 223.728 254.628 226.638C251.458 227.973 248.275 229.273 245.089 230.57C244.038 231 242.987 231.429 241.935 231.858C241.196 232.16 240.457 232.461 239.718 232.763C240.695 240.571 244.871 247.735 249.657 253.811C250.066 254.333 250.474 254.856 250.895 255.394C259.812 266.026 273.646 270.985 287.077 272.521C289.941 272.687 292.795 272.716 295.664 272.704C296.435 272.7 297.206 272.697 298 272.694C303.879 272.621 309.439 272.207 315.141 270.767C315.603 270.651 316.065 270.534 316.541 270.415C339.074 264.551 357.671 249.941 376.221 236.447C382.16 232.13 388.198 227.971 394.284 223.866C395.723 222.893 397.158 221.915 398.592 220.934C417.641 207.985 417.641 207.985 426.447 205.797C426.899 205.68 427.351 205.564 427.817 205.444C428.714 205.219 429.616 205.014 430.522 204.83C431.946 204.524 431.946 204.524 433.831 203.529C434.6 201.927 434.764 200.645 435 198.852C435.579 198.852 436.158 198.852 436.754 198.852C436.947 200.395 437.14 201.939 437.339 203.529C438.144 203.678 438.144 203.678 438.965 203.83C444.712 204.965 449.2 206 453.125 210.545C453.393 210.848 453.662 211.151 453.938 211.463C458.977 217.589 462.763 226.417 462.382 234.393C462.038 244.067 465.852 250.198 471.237 257.951C472.544 259.838 473.788 261.757 475.021 263.692C475.767 264.861 476.523 266.021 477.282 267.181C480.199 271.654 483.025 276.186 485.867 280.706C489.137 278.704 492.321 276.642 495.368 274.311C503.809 267.884 512.668 261.976 521.532 256.15C521.187 253.888 520.514 252.223 519.388 250.237C519.063 249.66 518.738 249.082 518.403 248.487C518.049 247.869 517.695 247.25 517.33 246.612C516.961 245.962 516.592 245.311 516.212 244.64C512.392 237.918 508.502 231.238 504.577 224.577C504.13 223.819 503.684 223.06 503.238 222.301C498.268 213.849 493.303 205.412 487.89 197.233C486.485 195.086 485.114 192.918 483.737 190.753C480.118 185.068 476.464 179.406 472.748 173.783C472.383 173.225 472.017 172.666 471.64 172.091C466.503 164.361 460.965 156.433 451.371 154.416C430.856 152.352 408.397 169.096 390.99 178.683ZM233.177 159.495C232.578 159.547 231.979 159.599 231.362 159.653C220.933 160.293 220.933 160.293 211.069 163.186C211.039 166.982 211.018 170.778 211.004 174.574C210.998 175.862 210.991 177.151 210.98 178.44C210.966 180.302 210.959 182.164 210.954 184.027C210.948 184.595 210.942 185.163 210.936 185.748C210.935 191.531 211.298 197.202 215.161 201.775C222.696 209.142 237.529 207.847 247.152 207.747C259.196 207.56 272.091 206.185 283.569 202.36C284.444 202.306 285.322 202.284 286.2 202.286C286.652 202.285 287.104 202.283 287.57 202.282C288.831 202.36 288.831 202.36 290.585 202.944C294.075 203.257 296.979 203.256 299.94 201.19C301.67 199.469 303.077 197.602 304.032 195.343C308.322 195.569 311.859 198.2 315.105 200.825C316.284 201.956 316.284 201.956 318.065 201.775C318.711 199.74 319.039 198.044 318.649 195.928C317.114 194.444 315.545 193.429 313.702 192.354C312.218 191.251 312.218 191.251 311.72 189.654C311.691 189.216 311.663 188.778 311.633 188.327C314.54 189.359 317.149 190.896 319.819 192.42C319.939 191.672 320.06 190.925 320.184 190.154C320.252 189.734 320.32 189.313 320.39 188.88C320.394 188.505 320.399 188.129 320.403 187.743C318.788 186.128 317.359 186.235 315.141 185.989C315.334 185.217 315.527 184.445 315.726 183.65C317.785 183.603 319.596 183.626 321.573 184.235C322.27 181.968 322.742 180.191 322.742 177.803C319.238 176.051 314.616 177.458 311.048 178.461C310.331 178.653 310.331 178.653 309.599 178.85C307.211 179.508 304.875 180.237 302.559 181.117C302.136 181.277 301.713 181.437 301.277 181.602C300.496 181.905 299.721 182.22 298.952 182.55C292.58 185.054 284.967 183.537 278.375 182.688C277.563 182.587 276.75 182.487 275.938 182.386C274.246 182.177 272.555 181.964 270.864 181.748C268.734 181.476 266.604 181.21 264.473 180.946C255.423 179.824 246.387 178.643 237.379 177.218C237.379 176.447 237.379 175.675 237.379 174.88C239.887 174.88 242.396 174.88 244.98 174.88C245.476 172.893 245.633 171.506 245.622 169.499C245.62 168.926 245.618 168.353 245.616 167.763C245.611 167.169 245.606 166.575 245.601 165.963C245.598 165.36 245.596 164.758 245.593 164.136C245.586 162.65 245.577 161.164 245.565 159.678C241.357 159.108 237.399 159.111 233.177 159.495ZM380.625 161.432C379.196 163.576 378.97 165.372 379.456 167.864C380.608 169.458 380.608 169.458 382.379 170.202C384.197 170.395 384.197 170.395 385.887 169.618C387.46 167.838 388.152 166.639 388.482 164.282C388.192 162.379 387.878 161.572 386.472 160.263C383.963 159.272 382.722 159.845 380.625 161.432ZM164.294 185.989C164.294 189.363 164.346 192.588 164.661 195.925C164.7 196.359 164.739 196.794 164.779 197.241C164.907 198.657 165.038 200.073 165.169 201.489C165.26 202.483 165.35 203.476 165.44 204.47C165.629 206.543 165.819 208.616 166.011 210.69C166.256 213.341 166.498 215.993 166.738 218.646C166.924 220.694 167.112 222.742 167.3 224.79C167.389 225.767 167.478 226.745 167.567 227.723C167.692 229.09 167.818 230.457 167.945 231.823C167.981 232.223 168.017 232.624 168.055 233.036C168.268 235.316 168.594 237.512 168.972 239.779C191.739 239.779 214.506 239.779 237.964 239.779C237.385 238.042 236.806 236.306 236.21 234.517C234.854 234.098 233.489 233.709 232.117 233.347C227.667 227.118 227.094 217.405 226.27 209.96C225.958 209.861 225.646 209.761 225.325 209.659C214.939 206.281 214.939 206.281 212.238 202.944C211.828 202.462 211.418 201.98 210.995 201.483C208.433 196.699 208.093 191.312 207.56 185.989C193.283 185.989 179.005 185.989 164.294 185.989ZM305.202 198.852C304.973 199.286 304.743 199.72 304.507 200.167C303.355 201.915 302.206 202.883 300.524 204.114C299.752 204.692 298.981 205.271 298.186 205.868C304.167 205.868 310.148 205.868 316.311 205.868C315.346 205.096 314.381 204.324 313.387 203.529C312.947 203.165 312.507 202.801 312.053 202.426C311.625 202.078 311.197 201.731 310.756 201.373C310.328 201.021 309.9 200.669 309.459 200.306C308.015 199.365 306.898 199.075 305.202 198.852ZM282.984 205.283C282.984 205.476 282.984 205.669 282.984 205.868C285.299 205.868 287.615 205.868 290 205.868C287.22 204.477 285.906 204.651 282.984 205.283ZM402.258 221.654C401.861 221.92 401.465 222.186 401.056 222.46C398.738 224.022 396.44 225.61 394.15 227.213C392.799 228.158 391.446 229.099 390.092 230.04C385.384 233.319 380.699 236.626 376.057 239.998C350.134 258.8 350.134 258.8 339.113 264.335C339.113 264.528 339.113 264.721 339.113 264.92C344.446 265.019 349.612 264.814 354.899 264.116C356.001 263.973 356.001 263.973 357.126 263.828C368.315 262.313 379.407 260.087 390.498 257.988C391.43 257.812 391.43 257.812 392.38 257.632C393.241 257.468 393.241 257.468 394.12 257.301C394.621 257.205 395.122 257.11 395.638 257.011C396.881 256.758 398.107 256.469 399.335 256.15C399.257 255.804 399.179 255.458 399.099 255.102C398.886 254.147 398.675 253.193 398.465 252.238C398.251 251.274 398.028 250.313 397.8 249.353C397.446 247.111 397.131 244.771 398.165 242.702C398.937 242.702 399.709 242.702 400.504 242.702C400.519 243.183 400.534 243.664 400.55 244.159C400.775 248.593 401.487 252.152 403.427 256.15C404.945 253.874 406.175 251.48 407.447 249.061C407.701 248.583 407.955 248.105 408.217 247.613C409.873 244.47 411.383 241.29 412.782 238.025C413.554 238.025 414.326 238.025 415.121 238.025C413.68 243.49 411.226 248.334 408.623 253.325C404.807 260.711 404.384 266.917 405.397 275.042C405.687 277.374 405.955 279.709 406.225 282.044C406.283 282.545 406.341 283.046 406.401 283.562C407.108 289.698 407.691 295.846 408.274 301.995C408.387 303.182 408.5 304.369 408.613 305.557C408.899 308.565 409.183 311.574 409.467 314.582C409.926 319.446 410.389 324.309 410.851 329.173C411.009 330.838 411.166 332.503 411.323 334.169C411.96 340.909 412.644 347.644 413.367 354.376C418.069 354.159 422.77 353.94 427.472 353.72C429.656 353.617 431.839 353.516 434.023 353.415C436.135 353.318 438.246 353.219 440.358 353.119C441.159 353.082 441.961 353.045 442.762 353.008C447.207 352.806 451.627 352.546 456.048 352.037C456.645 348.456 456.82 344.902 456.968 341.278C456.996 340.614 457.025 339.95 457.054 339.267C457.149 337.062 457.239 334.858 457.33 332.654C457.378 331.49 457.427 330.327 457.475 329.164C457.701 323.743 457.918 318.322 458.131 312.9C458.148 312.476 458.165 312.051 458.182 311.614C459.432 280.423 459.432 280.423 459.917 249.214C459.922 247.939 459.932 246.665 459.944 245.391C460.096 233.484 460.096 233.484 456.633 222.239C456.471 221.89 456.308 221.542 456.141 221.183C453.426 215.405 450.217 210.79 444.33 208.026C429.665 202.845 413.849 213.864 402.258 221.654ZM271.29 208.206C270.717 208.281 270.717 208.281 270.132 208.358C268.35 208.59 266.568 208.818 264.786 209.047C264.185 209.126 263.584 209.204 262.966 209.285C254.932 210.308 246.999 210.629 238.914 210.582C238.022 210.579 237.129 210.576 236.237 210.574C234.084 210.567 231.931 210.557 229.778 210.545C230.043 214.921 230.401 219.149 231.459 223.408C231.553 223.823 231.648 224.239 231.745 224.666C232.318 227.054 233.069 228.98 234.456 231.009C236.984 230.668 239.113 230.05 241.46 229.058C242.134 228.776 242.807 228.494 243.501 228.204C244.225 227.896 244.95 227.589 245.674 227.281C246.806 226.806 247.938 226.332 249.07 225.858C249.848 225.532 250.625 225.206 251.402 224.88C255.485 223.165 259.586 221.494 263.69 219.827C264.351 219.557 265.013 219.288 265.695 219.011C268.337 217.936 270.98 216.864 273.629 215.807C273.463 214.978 273.291 214.15 273.117 213.322C273.022 212.861 272.928 212.4 272.83 211.925C272.464 210.56 271.938 209.456 271.29 208.206ZM92.8175 257.721C92.4799 258.167 92.1422 258.614 91.7944 259.073C91.6014 259.266 91.4085 259.459 91.2097 259.658C91.0414 261.369 90.924 262.67 91.2097 264.335C93.0335 266.374 95.0047 267.222 97.6411 267.843C99.453 267.382 99.453 267.382 101.186 266.491C109.813 262.439 118.366 264.708 126.986 267.704C129.522 268.637 132.003 269.677 134.476 270.767C135.248 271.094 135.248 271.094 136.036 271.427C137.326 272.009 137.326 272.009 139.153 273.106C139.56 274.343 139.56 274.343 139.738 275.444C137.17 275.127 135.311 274.496 133.051 273.252C128.978 271.142 124.816 269.761 120.444 268.428C120.012 268.283 119.58 268.137 119.135 267.987C112.917 266.083 106.398 266.996 100.565 269.597C97.9061 271.014 95.688 272.533 94.7177 275.444C94.424 279.028 94.653 280.784 97.0565 283.63C103.109 289.833 111.663 290.441 119.859 290.646C121.766 290.65 123.673 290.632 125.58 290.609C126.094 290.603 126.608 290.598 127.138 290.592C127.661 290.586 128.185 290.579 128.724 290.573C129.801 290.561 130.878 290.548 131.954 290.536C132.488 290.53 133.022 290.523 133.571 290.516C142.591 290.426 150.865 291.234 159.617 293.569C158.336 286.732 155.112 281.783 150.328 276.762C149.093 275.444 149.093 275.444 147.946 273.971C139.317 263.474 123.378 255.349 109.919 253.811C104.299 253.375 97.1019 253.486 92.8175 257.721ZM462.48 259.073C462.455 260.047 462.456 261.022 462.48 261.997C463.115 262.764 463.115 262.764 464.656 262.638C465.301 262.632 465.945 262.625 466.609 262.618C467.255 262.613 467.901 262.607 468.566 262.602C469.066 262.595 469.566 262.588 470.081 262.581C469.445 260.681 469.445 260.681 468.327 259.073C467.341 259.031 466.353 259.024 465.367 259.037C464.829 259.042 464.292 259.047 463.738 259.053C463.323 259.06 462.908 259.066 462.48 259.073ZM519.084 261.412C518.515 261.796 518.515 261.796 517.934 262.188C508.815 268.364 499.806 274.698 490.912 281.194C490.023 281.83 489.115 282.439 488.206 283.045C489.124 286.534 490.983 289.377 492.883 292.4C495.964 291.444 498.279 289.498 500.813 287.576C504.791 284.603 508.799 281.685 512.872 278.843C513.594 278.337 513.594 278.337 514.331 277.82C516.676 276.183 519.035 274.57 521.425 272.998C521.863 272.707 522.301 272.416 522.753 272.116C523.575 271.571 524.401 271.034 525.233 270.504C526.453 269.72 526.453 269.72 527.964 268.428C527.964 265.732 527.346 264.726 525.99 262.435C525.624 261.805 525.258 261.175 524.88 260.526C524.547 260.046 524.214 259.567 523.871 259.073C521.967 259.073 520.613 260.371 519.084 261.412ZM245.329 259.095C244.658 259.1 243.987 259.105 243.296 259.11C242.187 259.119 242.187 259.119 241.056 259.127C240.272 259.133 239.489 259.138 238.705 259.144C236.574 259.16 234.444 259.176 232.313 259.191C230.087 259.208 227.862 259.224 225.636 259.24C221.42 259.272 217.204 259.303 212.989 259.334C208.19 259.369 203.391 259.404 198.592 259.44C188.718 259.512 178.845 259.585 168.972 259.658C169.165 260.816 169.358 261.973 169.556 263.166C178.034 263.083 186.512 262.998 194.99 262.91C195.612 262.904 196.234 262.897 196.874 262.891C215.251 262.699 233.624 262.473 251.996 261.997C251.247 260.998 250.465 260.024 249.657 259.073C248.214 259.073 246.772 259.085 245.329 259.095ZM392.319 260.535C391.866 260.619 391.413 260.702 390.946 260.788C389.844 260.993 388.742 261.202 387.641 261.412C387.641 261.605 387.641 261.798 387.641 261.997C392.465 261.997 397.288 261.997 402.258 261.997C402.258 261.225 402.258 260.453 402.258 259.658C398.821 259.564 395.69 259.886 392.319 260.535ZM5.2621 290.061C5.06054 291.811 5.06054 291.811 6.12084 292.717C6.70872 293.193 6.70872 293.193 7.30847 293.679C9.00485 295.094 10.5748 296.535 12.0955 298.137C20.1344 306.223 30.1193 312.362 41.7679 312.498C48.8495 312.431 54.668 310.959 60.0391 306.213C63.8713 301.863 65.8576 298.172 65.7442 292.219C65.3124 289.61 63.9917 288.178 61.9758 286.553C53.5859 280.895 40.2871 283.6 30.9879 285.384C28.6664 285.91 26.3862 286.539 24.1042 287.215C22.1174 287.749 20.165 288.054 18.125 288.307C18.125 287.535 18.125 286.764 18.125 285.968C30.2134 282.154 47.7936 276.779 60.0368 282.625C60.532 282.896 61.0271 283.167 61.5373 283.447C64.3923 284.993 65.8583 285.102 68.9919 284.214C71.4704 282.887 71.4704 282.887 73.0847 280.706C73.3734 278.204 73.2775 276.941 71.9884 274.75C68.2435 270.771 62.3019 270.207 57.1522 270.036C39.8702 270.23 17.4679 277.367 5.2621 290.061ZM171.31 274.86C171.26 275.508 171.209 276.156 171.157 276.823C166.789 332.502 166.789 332.502 164.623 355.655C164.568 356.245 164.568 356.245 164.512 356.848C163.256 370.29 163.256 370.29 162.791 374.02C162.519 376.815 162.54 379.632 162.54 382.44C182.799 382.44 203.058 382.44 223.931 382.44C223.95 371.042 223.95 371.042 223.672 359.662C223.645 358.9 223.617 358.137 223.589 357.351C223.515 355.314 223.438 353.277 223.36 351.239C223.279 349.083 223.2 346.926 223.12 344.77C222.987 341.162 222.851 337.555 222.715 333.947C222.557 329.793 222.403 325.639 222.25 321.484C222.102 317.453 221.952 313.421 221.801 309.39C221.737 307.688 221.674 305.986 221.611 304.284C221.524 301.91 221.434 299.537 221.343 297.163C221.318 296.468 221.292 295.773 221.266 295.057C221.117 291.229 220.862 287.436 220.423 283.63C220.044 283.629 219.664 283.628 219.273 283.627C215.715 283.616 212.158 283.583 208.601 283.541C207.263 283.527 205.925 283.519 204.588 283.515C190.559 283.476 190.559 283.476 184.173 280.122C183.137 279.642 182.1 279.163 181.063 278.685C179.638 277.992 178.217 277.29 176.796 276.587C176.335 276.363 175.874 276.139 175.399 275.908C174.991 275.706 174.583 275.504 174.163 275.296C172.99 274.752 172.99 274.752 171.31 274.86ZM223.931 283.63C224.299 296.488 224.687 309.339 225.192 322.191C225.239 323.404 225.287 324.616 225.334 325.829C225.481 329.599 225.628 333.368 225.777 337.137C225.93 341.003 226.08 344.869 226.228 348.735C226.358 352.096 226.489 355.457 226.622 358.818C226.7 360.808 226.778 362.798 226.854 364.789C226.939 366.99 227.026 369.19 227.114 371.391C227.138 372.039 227.163 372.686 227.188 373.353C227.212 373.954 227.237 374.555 227.262 375.174C227.282 375.691 227.303 376.208 227.324 376.741C227.461 378.65 227.754 380.546 228.024 382.44C231.304 382.44 234.584 382.44 237.964 382.44C238.665 381.177 238.665 381.177 239.38 379.889C249.15 362.381 259.488 345.545 276.224 333.875C276.632 333.589 277.041 333.303 277.462 333.007C278.042 332.613 278.042 332.613 278.633 332.21C278.979 331.975 279.324 331.739 279.68 331.495C280.645 330.989 280.645 330.989 282.399 330.989C282.067 333.068 281.545 334.604 280.469 336.411C280.191 336.886 279.912 337.36 279.625 337.85C279.323 338.359 279.02 338.869 278.708 339.393C273.311 348.689 268.331 358.083 264.091 367.969C263.807 368.628 263.522 369.286 263.229 369.964C262.973 370.575 262.718 371.186 262.454 371.816C262.226 372.358 261.998 372.9 261.763 373.458C261.187 374.907 261.187 374.907 261.936 376.593C262.192 376.224 262.448 375.855 262.712 375.474C271.042 363.724 281.67 352.407 295.262 346.775C296.034 346.775 296.806 346.775 297.601 346.775C297.259 348.893 296.69 350.528 295.671 352.412C295.392 352.934 295.113 353.457 294.825 353.996C294.372 354.835 294.372 354.835 293.91 355.691C291.188 360.825 288.552 365.993 286.017 371.222C285.705 371.856 285.393 372.491 285.072 373.144C284.789 373.731 284.506 374.319 284.215 374.924C283.836 375.705 283.836 375.705 283.45 376.502C283.296 376.918 283.142 377.334 282.984 377.763C283.177 378.149 283.37 378.535 283.569 378.932C284.1 378.374 284.631 377.815 285.179 377.24C290.127 372.12 295.223 367.73 301.109 363.731C301.735 363.287 302.362 362.843 303.007 362.385C304.617 361.392 304.617 361.392 306.371 361.392C306.161 364.956 304.446 367.19 302.461 370.016C301.821 370.95 301.183 371.885 300.545 372.82C300.238 373.268 299.931 373.715 299.616 374.176C296.658 378.016 296.658 378.016 295.262 382.44C335.008 382.44 374.755 382.44 415.706 382.44C418.163 374.22 418.163 374.22 418.044 370.162C417.629 370.127 417.214 370.091 416.786 370.055C416.249 370.006 415.711 369.957 415.158 369.906C414.354 369.835 414.354 369.835 413.534 369.762C412.198 369.577 412.198 369.577 411.613 368.993C411.433 367.621 411.288 366.261 411.164 364.884C411.123 364.451 411.081 364.018 411.039 363.572C410.902 362.12 410.769 360.668 410.635 359.215C410.539 358.19 410.443 357.165 410.347 356.14C410.088 353.382 409.833 350.624 409.579 347.867C409.368 345.592 409.156 343.318 408.944 341.044C407.94 330.301 406.951 319.557 405.997 308.81C405.962 308.421 405.928 308.032 405.892 307.631C405.546 303.732 405.203 299.833 404.866 295.933C404.784 294.994 404.784 294.994 404.7 294.036C404.6 292.893 404.502 291.75 404.405 290.607C404.361 290.11 404.318 289.614 404.273 289.102C404.236 288.677 404.2 288.251 404.162 287.813C403.995 286.407 403.705 285.018 403.427 283.63C344.194 283.63 284.96 283.63 223.931 283.63ZM462.48 283.63C462.122 285.779 461.82 287.632 461.736 289.76C461.705 290.501 461.705 290.501 461.674 291.256C461.654 291.787 461.634 292.318 461.614 292.865C461.591 293.434 461.568 294.002 461.545 294.588C461.47 296.469 461.398 298.35 461.327 300.231C461.275 301.557 461.223 302.882 461.172 304.207C461.064 306.995 460.957 309.783 460.852 312.572C460.745 315.394 460.636 318.215 460.524 321.037C459.904 336.638 459.356 352.208 459.556 367.823C456.855 368.016 454.154 368.209 451.371 368.408C451.431 369.119 451.492 369.831 451.554 370.564C451.588 370.964 451.622 371.364 451.656 371.777C452.628 376.025 455.967 378.033 459.428 380.231C463.731 382.634 467.358 382.813 472.216 382.63C472.914 382.616 473.611 382.602 474.33 382.588C476.033 382.553 477.734 382.503 479.436 382.44C477.782 359.606 476.019 336.781 474.186 313.961C474.027 311.982 473.869 310.003 473.712 308.024C473.461 304.885 473.209 301.745 472.955 298.606C472.86 297.436 472.767 296.266 472.674 295.096C472.546 293.489 472.415 291.882 472.284 290.275C472.247 289.801 472.21 289.328 472.172 288.84C472.019 287 471.836 285.389 471.25 283.63C468.356 283.63 465.462 283.63 462.48 283.63ZM92.9637 307.601C91.8324 309.384 91.7944 310.055 91.7944 312.279C92.3189 312.436 92.8435 312.592 93.384 312.754C103.214 315.841 112.509 320.379 120.224 327.298C120.529 327.569 120.834 327.84 121.149 328.12C122.688 329.551 123.741 330.597 123.952 332.743C121.664 332.405 120.449 331.312 118.726 329.819C109.708 322.302 98.4635 314.648 86.2125 315.033C84.2424 315.265 82.8796 315.801 81.2702 316.956C79.7514 319.475 79.6343 321.69 80.1008 324.557C82.6679 332.248 88.2992 337.262 95.1525 341.149C98.167 342.651 101.267 343.533 104.511 344.4C105.902 344.794 107.292 345.19 108.681 345.587C109.376 345.784 110.07 345.981 110.786 346.183C119.986 348.829 128.541 351.87 136.815 356.714C137.587 357.157 138.359 357.598 139.133 358.039C140.011 358.541 140.011 358.541 140.907 359.053C144.255 347.403 138.758 332.384 133.233 322.218C128.465 314.308 120.947 306.811 111.881 304.24C105.526 302.868 98.0418 302.994 92.9637 307.601ZM80.6855 333.327C80.677 333.736 80.6684 334.144 80.6597 334.564C80.3964 346.181 79.7437 357.75 78.941 369.341C78.9022 369.907 78.8633 370.473 78.8233 371.057C78.75 372.12 78.6754 373.183 78.5993 374.246C78.4096 376.986 78.31 379.694 78.3468 382.44C79.5044 382.151 79.5044 382.151 80.6855 381.856C80.7714 381.154 80.8573 380.452 80.9459 379.729C82.5026 367.827 85.7826 357.502 91.2063 346.8C91.8689 345.454 92.4446 344.09 92.9637 342.682C92.6095 342.497 92.2553 342.311 91.8903 342.12C88.15 340.037 85.3385 337.59 82.4007 334.483C82.0276 334.102 81.6545 333.72 81.2702 333.327C81.0772 333.327 80.8843 333.327 80.6855 333.327ZM274.214 339.174C260.678 350.38 249.426 365.22 242.056 381.271C242.056 381.657 242.056 382.043 242.056 382.44C246.494 382.44 250.932 382.44 255.504 382.44C255.916 381.329 256.327 380.217 256.751 379.071C259.791 370.943 263.003 362.952 266.796 355.143C267.124 354.465 267.452 353.786 267.791 353.087C269.718 349.178 271.803 345.424 274.098 341.719C274.329 341.265 274.56 340.811 274.798 340.343C274.509 339.765 274.509 339.765 274.214 339.174ZM286.857 355.143C286.493 355.404 286.129 355.665 285.754 355.934C282.034 358.654 278.686 361.689 275.383 364.9C275.062 365.206 274.74 365.513 274.409 365.828C271.791 368.37 269.541 371.09 267.344 373.999C266.85 374.638 266.85 374.638 266.346 375.29C264.543 377.658 263.297 379.717 261.936 382.44C266.952 382.44 271.969 382.44 277.137 382.44C281.034 375.211 284.614 367.922 287.986 360.435C289.177 357.795 290.438 355.202 291.754 352.622C289.796 352.622 288.399 354.035 286.857 355.143ZM442.215 355.929C441.397 355.968 440.578 356.007 439.76 356.047C437.623 356.149 435.486 356.254 433.35 356.358C431.163 356.465 428.975 356.57 426.788 356.676C422.509 356.882 418.23 357.09 413.952 357.299C413.043 359.116 413.609 360.656 413.915 362.634C414.029 363.383 414.143 364.133 414.26 364.904C414.351 365.482 414.442 366.059 414.536 366.654C423.012 366.817 431.434 366.545 439.897 366.106C440.645 366.068 440.645 366.068 441.409 366.029C442.859 365.954 444.308 365.876 445.757 365.797C446.401 365.764 446.401 365.764 447.057 365.729C450.07 365.559 453.052 365.253 456.048 364.9C456.048 361.813 456.048 358.726 456.048 355.545C451.427 355.492 446.83 355.701 442.215 355.929ZM73.5963 359.455C72.1961 361.067 71.3893 362.031 71.1525 364.171C71.2772 365.398 71.4362 366.621 71.6207 367.839C72.0655 370.807 71.978 373.782 71.9519 376.776C71.9492 377.332 71.9466 377.887 71.9439 378.46C71.9371 379.787 71.9276 381.113 71.9153 382.44C72.88 382.44 73.8448 382.44 74.8387 382.44C75.0925 379.894 75.3421 377.347 75.5881 374.8C75.6721 373.936 75.7571 373.073 75.8433 372.209C76.3395 367.232 76.7379 362.308 76.5927 357.299C75.3584 357.299 74.4122 358.663 73.5963 359.455ZM67.8226 365.485C67.5637 365.729 67.3048 365.973 67.0381 366.225C65.8387 367.355 64.6381 368.485 63.4375 369.614C63.0305 369.998 62.6235 370.382 62.2042 370.777C61.7972 371.16 61.3902 371.542 60.9709 371.937C60.3525 372.518 60.3525 372.518 59.7216 373.111C58.1537 374.541 56.5226 375.888 54.8672 377.216C53.378 378.691 53.378 378.691 51.4516 382.44C57.2399 382.44 63.0282 382.44 68.9919 382.44C69.0161 379.968 69.0402 377.496 69.065 374.949C69.0757 374.171 69.0863 373.394 69.0973 372.592C69.1002 371.98 69.1031 371.367 69.1061 370.735C69.1123 370.108 69.1184 369.48 69.1247 368.833C69.1107 367.11 69.1107 367.11 67.8226 365.485ZM292.777 373.999C292.263 374.478 292.263 374.478 291.739 374.967C289.43 377.141 287.273 379.348 285.323 381.856C285.323 382.048 285.323 382.241 285.323 382.44C287.497 383.148 289.018 383.273 291.169 382.44C294.036 379.213 296.241 374.827 297.601 370.747C295.538 370.747 294.217 372.645 292.777 373.999Z" fill="black"/>
<path d="M318.649 39.8193C319.421 40.0123 320.193 40.2052 320.988 40.404C320.795 42.1405 320.602 43.877 320.403 45.6661C319.631 45.6661 318.86 45.6661 318.064 45.6661C317.387 43.2956 317.575 42.0305 318.649 39.8193Z" fill="black"/>
<path d="M327.421 44.4971C328.193 44.883 328.965 45.2688 329.76 45.6664C329.709 47.2508 329.646 48.8333 329.577 50.4169C329.557 51.0839 329.557 51.0839 329.537 51.7644C329.379 55.0951 328.623 57.4751 326.617 60.2103C325.271 61.1421 324.342 61.0729 322.744 60.868C322.358 60.4822 321.972 60.0963 321.574 59.6987C321.647 58.5293 321.647 58.5293 322.159 57.36C322.541 57.1919 322.923 57.0238 323.317 56.8507C324.58 56.3022 324.58 56.3022 324.961 55.1103C325.037 54.683 325.113 54.2557 325.192 53.8154C325.279 53.3496 325.365 52.8838 325.455 52.4039C325.725 50.523 325.917 48.6422 326.051 46.7467C326.252 45.6664 326.252 45.6664 327.421 44.4971Z" fill="black"/>
<path d="M312.805 60.2822C315.42 60.5811 316.654 61.549 318.652 63.2056C319.807 63.8163 320.974 64.4083 322.16 64.9596C321.967 65.7314 321.774 66.5032 321.575 67.2984C317.809 66.9971 315.769 65.7645 312.841 63.498C312.22 62.6209 312.22 62.6209 312.403 61.342C312.535 60.9922 312.668 60.6425 312.805 60.2822Z" fill="black"/>
<path d="M107.582 73.7305C109.007 74.169 109.007 74.169 110.506 74.8998C111.09 76.0326 111.09 76.0326 111.09 77.2385C110.432 78.2983 110.432 78.2983 109.336 78.9926C107.765 78.8099 107.765 78.8099 106.413 78.4079C106.011 77.0558 106.011 77.0558 105.828 75.4845C106.669 74.4248 106.669 74.4248 107.582 73.7305Z" fill="black"/>
<path d="M466.991 81.1716C467.649 81.1661 468.306 81.1605 468.984 81.1548C469.689 81.1553 470.393 81.1558 471.119 81.1564C471.848 81.1539 472.577 81.1514 473.327 81.1488C475.26 81.1446 477.193 81.1464 479.126 81.1497C480.309 81.1495 481.492 81.1437 482.674 81.1357C484.95 81.1214 487.225 81.1189 489.5 81.1198C490.205 81.1144 490.91 81.1091 491.636 81.1035C492.293 81.1072 492.951 81.1108 493.628 81.1146C494.205 81.1142 494.782 81.1138 495.376 81.1134C497.261 81.3717 498.365 81.974 499.896 83.0863C501.423 86.1401 500.665 91.0241 500.686 94.4251C500.696 95.5599 500.711 96.6946 500.734 97.8292C500.766 99.4661 500.779 101.102 500.787 102.739C500.8 103.245 500.814 103.75 500.827 104.271C500.819 106.586 500.631 107.955 499.502 110.01C496.336 111.867 493.133 111.543 489.532 111.498C488.741 111.497 487.95 111.497 487.158 111.498C485.504 111.497 483.85 111.486 482.196 111.468C480.075 111.444 477.956 111.442 475.836 111.446C474.203 111.448 472.571 111.441 470.939 111.431C469.777 111.425 468.616 111.425 467.454 111.424C466.749 111.415 466.045 111.406 465.319 111.396C464.388 111.389 464.388 111.389 463.438 111.381C461.892 111.151 461.892 111.151 460.838 110.368C459.14 108.011 459.459 105.336 459.456 102.566C459.454 102.068 459.452 101.569 459.45 101.056C459.447 100.003 459.445 98.9498 459.445 97.8966C459.444 96.2862 459.433 94.6761 459.422 93.0658C459.421 92.0422 459.42 91.0186 459.419 89.9951C459.415 89.5139 459.411 89.0327 459.406 88.5369C459.424 84.0767 459.424 84.0767 460.723 82.5016C462.874 81.4558 464.613 81.1828 466.991 81.1716ZM465.401 84.8403C465.401 85.2262 465.401 85.6121 465.401 86.0097C465.977 86.3254 466.554 86.6412 467.148 86.9666C468.784 87.9001 470.326 88.9072 471.857 90.0042C472.255 90.2895 472.654 90.5747 473.064 90.8686C473.885 91.4613 474.702 92.0582 475.517 92.6592C476.111 93.0815 476.111 93.0815 476.717 93.5123C477.071 93.7699 477.424 94.0275 477.789 94.2929C478.827 94.8772 478.827 94.8772 479.979 94.6729C481.431 94.0985 482.63 93.359 483.932 92.4959C484.447 92.1575 484.962 91.8191 485.492 91.4705C486.025 91.1155 486.558 90.7605 487.107 90.3947C488.168 89.6939 489.229 88.9935 490.29 88.2936C490.759 87.9819 491.228 87.6703 491.711 87.3492C492.88 86.5943 492.88 86.5943 494.05 86.0097C493.76 85.4308 493.76 85.4308 493.465 84.8403C484.204 84.8403 474.942 84.8403 465.401 84.8403ZM492.698 90.0659C492.066 90.5464 491.435 91.026 490.802 91.5047C490.473 91.754 490.144 92.0033 489.805 92.2601C488.128 93.5226 486.439 94.7646 484.731 95.9857C484.123 96.4266 483.515 96.8675 482.888 97.3218C481.04 98.3712 480.331 98.7211 478.263 98.2879C476.887 97.4432 475.66 96.6021 474.39 95.6203C470.908 92.9868 467.358 90.7102 463.646 88.3484C463.646 94.7155 463.646 101.083 463.646 107.643C467.902 107.655 472.156 107.667 476.412 107.673C478.393 107.676 480.374 107.68 482.355 107.687C484.627 107.694 486.898 107.697 489.169 107.7C490.239 107.704 490.239 107.704 491.33 107.709C491.986 107.709 492.641 107.709 493.316 107.709C493.897 107.71 494.477 107.712 495.075 107.713C496.371 107.79 496.371 107.79 496.973 107.058C497.025 105.627 497.04 104.212 497.03 102.78C497.029 102.353 497.029 101.925 497.028 101.485C497.024 100.115 497.017 98.7446 497.01 97.3743C497.007 96.4474 497.004 95.5206 497.002 94.5937C496.995 92.317 496.985 90.0404 496.973 87.7637C495.114 87.7637 494.145 88.944 492.698 90.0659Z" fill="black"/>
<path d="M152.127 97.9211C152.477 98.0417 152.826 98.1623 153.187 98.2865C153.38 99.4442 153.573 100.602 153.771 101.795C152.017 102.964 152.017 102.964 150.775 102.781C149.679 102.379 149.679 102.379 149.094 101.795C148.948 100.369 148.948 100.369 149.094 98.8712C150.848 97.7018 150.848 97.7018 152.127 97.9211Z" fill="black"/>
<path d="M87.6996 135.706C89.2709 136.218 89.2709 136.218 90.623 136.875C90.6961 138.264 90.6961 138.264 90.623 139.799C90.2371 140.185 89.8512 140.571 89.4536 140.968C86.7901 140.643 86.7901 140.643 85.9456 139.799C85.7994 138.374 85.7994 138.374 85.9456 136.875C86.5244 136.49 87.1032 136.104 87.6996 135.706Z" fill="black"/>
<path d="M530.632 176.523C532.058 176.633 532.058 176.633 532.642 177.218C532.752 178.643 532.752 178.643 532.642 180.141C532.256 180.527 531.87 180.913 531.473 181.31C529.938 181.091 529.938 181.091 528.55 180.726C528.184 179.337 528.184 179.337 527.965 177.802C529.134 176.633 529.134 176.633 530.632 176.523Z" fill="black"/>
<path d="M51.1258 201.629C51.8674 201.701 51.8674 201.701 52.624 201.775C53.7933 203.529 53.7933 203.529 53.7203 204.735C53.0574 206.203 52.3397 206.468 50.87 207.037C50.0982 206.458 49.3264 205.88 48.5312 205.283C49.1508 201.831 49.1508 201.831 51.1258 201.629Z" fill="black"/>
<path d="M550.763 238.024C551.129 239.413 551.129 239.413 551.348 240.947C550.179 242.117 550.179 242.117 548.68 242.226C547.255 242.117 547.255 242.117 546.671 241.532C546.647 240.363 546.646 239.193 546.671 238.024C548.23 237.245 549.107 237.632 550.763 238.024Z" fill="black"/>
<path d="M374.775 309.94C375.14 311.329 375.14 311.329 375.36 312.864C374.19 314.033 374.19 314.033 372.656 314.106C372.197 314.082 371.739 314.058 371.267 314.033C370.646 312.973 370.646 312.973 370.098 311.694C370.291 311.115 370.484 310.536 370.682 309.94C372.241 309.161 373.119 309.548 374.775 309.94Z" fill="black"/>
<path d="M196.45 333.328C198.021 333.84 198.021 333.84 199.373 334.497C199.446 335.886 199.446 335.886 199.373 337.421C198.987 337.807 198.601 338.193 198.204 338.59C195.54 338.265 195.54 338.265 194.696 337.421C194.549 335.996 194.549 335.996 194.696 334.497C195.274 334.112 195.853 333.726 196.45 333.328Z" fill="black"/>
<path d="M516.854 349.041C518.608 349.114 518.608 349.114 519.193 349.699C519.303 351.124 519.303 351.124 519.193 352.622C518.807 353.008 518.421 353.394 518.024 353.792C515.36 353.467 515.36 353.467 514.516 352.622C514.443 351.16 514.443 351.16 514.516 349.699C515.1 349.114 515.1 349.114 516.854 349.041Z" fill="black"/>
</g>
<defs>
<clipPath id="clip0_250_94">
<rect width="580" height="414.536" fill="white" transform="translate(0 0.645508)"/>
</clipPath>
</defs>
</svg>
