<svg width="336" height="240" viewBox="0 0 336 240" fill="none" xmlns="http://www.w3.org/2000/svg">
<g clip-path="url(#clip0_250_94)">
<path d="M188.323 -0.000558248C188.623 0.472105 188.919 0.947002 189.2 1.43148C189.837 2.2308 190.561 2.64472 191.434 3.17293C195.54 5.67489 198.423 8.87743 199.839 13.5396C199.839 13.8748 199.839 14.2099 199.839 14.5552C200.126 14.6376 200.413 14.7201 200.709 14.8051C201.986 15.2744 203.07 15.907 204.2 16.6497C204.406 16.7853 204.613 16.921 204.826 17.0607C209.046 19.8713 209.046 19.8713 209.767 21.8965C209.661 23.0178 209.661 23.0178 208.93 23.753C207.223 24.8507 205.525 24.6125 203.565 24.3718C201.608 23.9325 199.706 23.3158 197.806 22.6793C196.516 25.0886 195.567 27.5193 194.695 30.1052C193.726 32.8829 192.664 35.543 191.286 38.1447C191.083 38.5299 191.083 38.5299 190.876 38.9228C189.699 41.0682 188.34 42.942 186.29 44.3436C185.955 44.3436 185.62 44.3436 185.274 44.3436C185.274 44.567 185.274 44.7904 185.274 45.0206C185.538 45.0472 185.803 45.0738 186.075 45.1013C187.738 45.4495 189.205 46.0941 190.757 46.7766C191.096 46.9248 191.434 47.073 191.783 47.2257C198.609 50.2672 205.158 53.931 211.694 57.5453C211.994 57.7115 212.295 57.8778 212.605 58.0491C214.335 59.0066 216.063 59.9672 217.79 60.9303C217.803 60.6758 217.815 60.4212 217.828 60.1589C218.017 57.0784 218.531 54.1061 219.166 51.0925C219.218 50.8439 219.27 50.5953 219.323 50.3392C224.701 24.6795 224.701 24.6795 233.121 17.6427C235.129 16.3483 237.151 16.3598 239.468 16.5862C243.471 17.5296 247.587 20.7492 249.821 24.1682C251.28 26.7354 251.576 28.8638 251.323 31.8189C251.009 32.8764 250.695 33.309 249.968 34.1884C249.625 34.3141 249.283 34.4398 248.93 34.5693C247.849 35.1075 247.849 35.1075 247.639 36.1824C247.483 36.9709 247.33 37.7599 247.18 38.5493C246.823 39.9945 246.452 40.4798 245.226 41.297C244.379 41.6356 244.379 41.6356 243.532 41.6356C242.295 41.0762 241.532 40.4225 240.823 39.266C240.823 39.0426 240.823 38.8192 240.823 38.589C240.04 38.7007 239.258 38.8124 238.452 38.9275C238.563 39.2626 238.675 39.5978 238.79 39.943C239.528 45.5091 239.539 51.179 239.552 56.7837C239.554 57.0839 239.556 57.3841 239.558 57.6934C239.599 66.6302 239.599 66.6302 238.452 70.07C238.795 69.9657 239.138 69.8615 239.491 69.7541C241.348 69.2251 243.246 69.0131 245.157 68.7634C245.835 68.6743 246.512 68.5809 247.19 68.4872C252.135 67.8302 252.135 67.8302 254.371 68.0389C254.912 68.5792 254.763 69.1398 254.766 69.8867C254.748 71.6543 254.496 73.3063 254.141 75.0338C254.082 75.3307 254.024 75.6275 253.963 75.9333C253.778 76.8709 253.587 77.8075 253.397 78.7442C253.272 79.3744 253.147 80.0047 253.023 80.635C252.508 83.2222 251.981 85.7941 251.323 88.3492C251.523 88.2799 251.723 88.2105 251.93 88.139C252.198 88.0478 252.465 87.9566 252.741 87.8626C253.004 87.7723 253.268 87.682 253.539 87.5889C257.148 86.4821 261.723 86.4934 265.21 88.0107C269.281 90.2607 272.203 93.8229 274.672 97.6793C274.906 98.0362 275.139 98.393 275.379 98.7607C276.057 99.8013 276.731 100.845 277.403 101.889C277.739 102.405 278.076 102.92 278.413 103.435C279.165 104.586 279.91 105.741 280.651 106.899C280.985 107.419 281.319 107.939 281.654 108.459C286.776 116.407 291.651 124.501 296.371 132.693C296.585 133.065 296.8 133.437 297.02 133.819C300.179 139.304 303.289 144.815 306.342 150.359C306.687 150.98 307.038 151.599 307.393 152.214C307.55 152.486 307.706 152.757 307.867 153.037C308.005 153.271 308.142 153.505 308.283 153.747C308.565 154.358 308.565 154.358 308.48 155.289C307.659 156.344 306.686 157.095 305.516 157.743C305.293 157.743 305.069 157.743 304.839 157.743C305.126 158.202 305.126 158.202 305.42 158.67C305.671 159.073 305.922 159.476 306.172 159.88C306.299 160.081 306.425 160.282 306.555 160.49C307.104 161.374 307.557 162.168 307.887 163.159C308.101 163.126 308.315 163.092 308.535 163.058C310.772 162.712 313.008 162.366 315.245 162.02C316.078 161.892 316.912 161.763 317.745 161.633C318.946 161.447 320.148 161.262 321.35 161.076C321.719 161.019 322.089 160.961 322.469 160.902C325.238 160.476 327.964 160.059 330.771 160.091C331.121 160.094 331.471 160.097 331.831 160.1C332.218 160.106 333.968 159.88 335.323 160.902C336.26 163.753 336 166.121 332.613 168.575C328.718 171.791 325.001 174.11 321.157 176.339C318.875 177.671 316.706 179.153 314.537 180.659C313.489 181.383 312.431 182.093 311.375 182.805C309.893 183.807 308.42 184.818 306.953 185.84C306.112 186.425 305.268 187.004 304.423 187.583C304.028 187.855 303.635 188.13 303.243 188.407C302.707 188.787 302.164 189.157 301.621 189.528C301.317 189.74 301.013 189.951 300.7 190.17C299.459 190.707 298.684 190.561 297.387 190.239C294.502 187.446 293.259 182.333 292.349 178.54C291.559 175.391 290.037 172.62 288.242 169.929C287.997 170.152 287.753 170.376 287.501 170.606C286.445 171.356 286.11 171.478 284.855 171.283C284.258 170.672 284.258 170.672 283.726 169.826C283.436 169.372 283.436 169.372 283.141 168.909C282.945 168.59 282.749 168.27 282.547 167.94C282.345 167.623 282.143 167.306 281.934 166.979C280.452 164.625 280.452 164.625 280.452 163.836C278.775 163.836 277.098 163.836 275.371 163.836C275.42 164.43 275.469 165.025 275.52 165.637C276.098 172.631 276.673 179.625 277.245 186.62C277.352 187.925 277.459 189.23 277.566 190.535C277.871 194.245 278.174 197.955 278.475 201.665C278.608 203.306 278.742 204.947 278.877 206.588C279.004 208.143 279.131 209.698 279.256 211.254C279.303 211.827 279.35 212.4 279.397 212.973C279.462 213.762 279.526 214.551 279.589 215.34C279.625 215.781 279.661 216.223 279.698 216.679C279.782 218.131 279.774 219.588 279.774 221.043C292.293 221.043 304.812 221.043 317.71 221.043C317.821 221.49 317.933 221.937 318.048 222.397C317.371 223.074 317.371 223.074 316.607 223.158C316.126 223.158 316.126 223.158 315.635 223.158C315.268 223.159 314.9 223.161 314.521 223.162C313.914 223.159 313.914 223.159 313.294 223.156C312.869 223.157 312.444 223.158 312.005 223.158C310.838 223.16 309.67 223.157 308.502 223.154C307.281 223.151 306.06 223.152 304.84 223.152C302.789 223.151 300.739 223.148 298.689 223.144C296.317 223.139 293.945 223.137 291.572 223.137C289.293 223.137 287.013 223.135 284.734 223.133C283.763 223.131 282.792 223.131 281.82 223.131C280.465 223.13 279.11 223.127 277.755 223.123C277.349 223.124 276.944 223.124 276.527 223.124C276.159 223.122 275.792 223.121 275.413 223.119C275.092 223.119 274.772 223.118 274.441 223.118C273.677 223.074 273.677 223.074 273 222.736C273 222.959 273 223.183 273 223.413C273.235 223.447 273.471 223.481 273.714 223.516C274.869 223.793 275.776 224.254 276.826 224.812C277.128 224.972 277.128 224.972 277.435 225.135C277.859 225.361 278.283 225.588 278.706 225.816C279.342 226.158 279.981 226.496 280.621 226.832C284.491 228.892 289.09 231.551 290.613 235.937C290.845 238.519 290.845 238.519 290.274 239.661C287.422 240.418 284.269 239.87 281.373 239.607C280.833 239.56 280.294 239.513 279.755 239.466C274.086 238.962 268.438 238.285 262.79 237.581C261.72 237.448 260.65 237.318 259.579 237.187C256.503 236.813 253.428 236.427 250.354 236.03C249.631 235.938 248.908 235.846 248.185 235.754C246.848 235.584 245.513 235.407 244.178 235.227C243.584 235.152 243.584 235.152 242.977 235.075C242.436 235.001 242.436 235.001 241.884 234.924C241.571 234.883 241.258 234.841 240.935 234.798C240.04 234.555 239.684 234.302 239.129 233.568C238.58 230.122 239.593 226.386 240.145 223.074C204.601 223.074 169.057 223.074 132.435 223.074C132.435 223.074 129.661 223.074 129.726 223.074C129.356 223.075 129.356 223.075 128.979 223.075C114.396 223.09 99.8132 223.102 85.23 223.109C83.4807 223.11 81.7313 223.111 79.982 223.111C79.6337 223.112 79.2854 223.112 78.9266 223.112C73.2805 223.115 67.6344 223.12 61.9884 223.126C56.1989 223.133 50.4095 223.137 44.6201 223.138C41.0451 223.139 37.4701 223.142 33.895 223.147C31.4466 223.151 28.9981 223.152 26.5496 223.151C25.135 223.151 23.7205 223.151 22.3059 223.155C21.0127 223.158 19.7194 223.158 18.4262 223.156C17.9566 223.156 17.4871 223.157 17.0175 223.159C16.3826 223.161 15.7476 223.16 15.1127 223.158C14.759 223.158 14.4053 223.158 14.0409 223.158C13.2097 223.074 13.2097 223.074 12.5323 222.397C12.644 221.95 12.7558 221.504 12.871 221.043C17.6773 220.931 22.4836 220.82 27.4355 220.705C26.7648 219.364 26.0942 218.024 25.4032 216.643C25.0176 215.675 24.6539 214.729 24.3236 213.744C24.2397 213.498 24.1558 213.252 24.0693 212.998C23.8327 212.296 23.6014 211.592 23.371 210.888C23.2583 210.556 23.1457 210.225 23.0296 209.883C21.4318 204.736 21.6053 198.822 23.842 193.905C25.2805 191.378 27.2867 189.057 30.1452 188.208C32.6948 187.574 34.6276 187.968 36.9194 189.224C37.8296 189.901 37.8296 189.901 38.2742 190.578C38.22 191.242 38.22 191.242 37.9355 191.932C37.3189 192.389 37.3189 192.389 36.5383 192.82C32.2779 195.524 30.8072 200.825 29.7324 205.493C29.3545 207.276 29.198 209.068 29.129 210.888C29.4644 210.888 29.7997 210.888 30.1452 210.888C30.1275 210.299 30.1275 210.299 30.1094 209.698C30.111 208.265 30.3509 206.939 30.7167 205.557C30.8082 205.205 30.8082 205.205 30.9016 204.847C32.0194 200.713 33.6711 196.522 37.2356 193.909C38.342 193.459 39.4595 193.405 40.6452 193.286C40.7565 186.18 40.7565 186.18 40.3488 179.09C40.3222 178.81 40.2956 178.531 40.2683 178.243C40.0945 176.647 39.7757 175.183 39.2903 173.652C39.1541 173.935 39.1541 173.935 39.0151 174.224C37.0628 178.023 34.2433 180.302 30.2298 181.692C24.6597 183.465 18.945 182.477 13.8449 179.852C10.3297 177.956 7.52063 175.494 4.75219 172.652C3.27402 171.14 1.73298 169.794 0 168.575C0.355331 166.272 2.72502 165.008 4.46938 163.704C11.9829 158.362 21.8616 154.409 31.1613 154.019C31.4006 154.006 31.6398 153.992 31.8863 153.978C35.6428 153.863 39.7911 154.339 42.6483 156.99C44.0031 158.508 44.5045 159.689 44.4623 161.786C44.3047 162.986 43.8119 163.618 43.0161 164.513C40.7953 166.205 40.7953 166.205 39.2903 166.205C39.9452 168.364 40.6087 170.512 41.3649 172.637C42.962 177.497 42.725 182.329 42.5869 187.377C42.5624 188.328 42.5484 189.28 42.5359 190.231C42.525 190.523 42.5141 190.815 42.5029 191.116C42.4964 191.877 42.5013 192.546 42.6774 193.286C43.4646 193.995 43.4646 193.995 44.371 194.301C44.4827 194.413 44.5945 194.525 44.7097 194.64C44.7416 191.651 44.7712 188.712 44.3789 185.741C44.3707 184.796 44.5844 184.079 44.8658 183.185C45.2762 181.541 45.3365 179.821 45.4929 178.138C46.3415 169.903 48.552 162.901 53.8548 156.389C53.3833 156.022 53.3833 156.022 52.9022 155.648C51.7111 154.635 50.9186 153.829 50.6993 152.216C50.6091 150.273 50.8105 149.076 52.1613 147.588C54.9484 145.062 58.6403 144.414 62.3067 144.47C72.5484 145.178 81.2872 150.58 88.2987 157.859C91.6669 161.732 94.674 165.979 94.5 171.283C94.3882 171.395 94.2765 171.506 94.1613 171.621C91.8702 171.499 89.7035 170.981 87.4863 170.423C87.1327 170.336 87.1327 170.336 86.7719 170.246C86.5642 170.193 86.3566 170.141 86.1427 170.086C83.6477 169.588 81.2415 169.558 78.7063 169.593C77.9357 169.599 77.165 169.605 76.3943 169.61C75.1934 169.621 73.9926 169.633 72.7917 169.648C59.4861 169.814 59.4861 169.814 55.1449 165.87C54.0969 164.711 53.2878 163.491 52.5 162.143C49.4084 167.602 47.5103 174.109 47.7581 180.423C48.8758 180.311 49.9936 180.199 51.1452 180.084C51.208 179.623 51.2709 179.163 51.3357 178.688C51.6879 177.152 52.1986 176.369 53.4659 175.442C57.0561 173.295 61.1423 173.077 65.1924 173.888C71.7633 175.905 76.4439 181.03 79.6352 186.928C82.4916 192.472 83.7214 198.3 83.7248 204.499C83.729 204.894 83.7331 205.289 83.7374 205.695C83.738 206.076 83.7387 206.457 83.7394 206.85C83.7408 207.195 83.7421 207.539 83.7436 207.895C83.6576 208.9 83.406 209.638 82.9839 210.55C81.6235 210.346 80.7721 209.642 79.6815 208.836C73.5364 204.471 63.1158 199.717 55.5484 199.717C51.5632 206.701 50.0634 212.909 48.4355 221.043C62.9661 221.043 77.4968 221.043 92.4678 221.043C92.4678 219.926 92.4678 218.809 92.4678 217.658C92.5165 216.789 92.5762 215.92 92.6478 215.052C92.6671 214.813 92.6865 214.573 92.7065 214.326C92.7707 213.536 92.8369 212.746 92.903 211.956C92.9499 211.385 92.9966 210.813 93.0432 210.242C93.1433 209.018 93.2443 207.793 93.3459 206.569C93.5067 204.633 93.6655 202.697 93.824 200.761C94.0749 197.7 94.327 194.639 94.5797 191.579C95.0326 186.093 95.484 180.607 95.934 175.121C96.0919 173.196 96.2505 171.272 96.4098 169.347C96.5087 168.151 96.607 166.956 96.7051 165.76C96.7508 165.205 96.7966 164.651 96.8428 164.096C96.9057 163.34 96.9678 162.583 97.0297 161.826C97.0646 161.403 97.0996 160.98 97.1356 160.543C97.1723 159.995 97.1723 159.995 97.2097 159.435C97.233 159.124 97.2564 158.813 97.2805 158.492C97.2836 157.615 97.2836 157.615 96.2571 156.896C96.0715 156.755 95.8859 156.613 95.6948 156.467C94.0067 155.108 93.7648 153.004 93.4839 150.973C93.4839 150.526 93.4839 150.079 93.4839 149.619C93.1416 149.654 92.7993 149.688 92.4466 149.724C90.075 149.712 87.8867 148.739 85.6936 147.926C85.4059 147.823 85.1182 147.719 84.8218 147.613C83.9026 147.281 82.9879 146.939 82.0736 146.593C81.7818 146.488 81.4901 146.382 81.1894 146.274C79.4111 145.582 78.3975 144.999 77.5645 143.187C77.4084 142.124 77.4084 142.124 77.4375 141.071C77.4419 140.721 77.4462 140.37 77.4507 140.008C77.5645 139.125 77.5645 139.125 78.2419 138.448C78.9406 138.367 78.9406 138.367 79.8113 138.371C80.1367 138.371 80.4622 138.371 80.7975 138.371C81.1496 138.375 81.5018 138.378 81.8645 138.382C82.2245 138.383 82.5844 138.384 82.9552 138.385C84.1079 138.389 85.2606 138.397 86.4133 138.406C87.1935 138.409 87.9737 138.412 88.7539 138.415C90.6693 138.422 92.5846 138.434 94.5 138.448C94.4368 138.002 94.4368 138.002 94.3724 137.546C93.9083 134.181 93.553 130.813 93.2378 127.431C93.1857 126.879 93.1335 126.327 93.0812 125.775C92.973 124.63 92.8655 123.486 92.7585 122.341C92.6213 120.874 92.4828 119.407 92.3439 117.939C92.2366 116.805 92.1298 115.671 92.0232 114.537C91.9722 113.995 91.9212 113.454 91.87 112.912C91.799 112.16 91.7287 111.408 91.6585 110.655C91.6184 110.228 91.5784 109.8 91.5371 109.36C91.4516 108.321 91.4516 108.321 91.4516 107.306C91.014 107.309 90.5763 107.313 90.1254 107.316C88.5057 107.328 86.886 107.336 85.2662 107.343C84.5644 107.346 83.8626 107.351 83.1608 107.357C82.1536 107.365 81.1465 107.369 80.1392 107.372C79.8242 107.375 79.5091 107.379 79.1844 107.382C78.7471 107.382 78.7471 107.382 78.301 107.382C77.9151 107.385 77.9151 107.385 77.5215 107.387C76.8871 107.306 76.8871 107.306 76.2097 106.629C76.076 105.918 76.076 105.918 76.0073 105.038C75.9806 104.715 75.9539 104.391 75.9264 104.058C75.9011 103.713 75.8758 103.367 75.8498 103.011C75.8219 102.658 75.794 102.306 75.7653 101.943C75.6845 100.91 75.608 99.8765 75.5323 98.8429C75.4931 98.3382 75.4539 97.8335 75.4145 97.3289C75.0042 91.7445 75.0042 91.7445 75.1936 90.0418C75.871 89.3647 75.871 89.3647 77.2227 89.2879C77.8068 89.288 78.3909 89.2918 78.9749 89.2986C79.4359 89.3001 79.4359 89.3001 79.9061 89.3015C80.8897 89.3053 81.8733 89.3138 82.8569 89.3224C83.5228 89.3258 84.1888 89.3289 84.8547 89.3317C86.4892 89.3392 88.1236 89.3509 89.7581 89.3647C89.7581 88.5828 89.7581 87.8009 89.7581 86.9952C89.3679 87.0499 88.9777 87.1046 88.5757 87.1609C87.1418 87.3393 85.7322 87.3883 84.2884 87.3906C84.0383 87.3917 83.7881 87.3928 83.5303 87.394C83.0072 87.3957 82.4841 87.3965 81.961 87.3964C81.1583 87.3972 80.3558 87.4034 79.5531 87.4098C79.0429 87.4107 78.5326 87.4114 78.0223 87.4117C77.7824 87.4142 77.5425 87.4166 77.2953 87.4191C75.6098 87.4112 75.6098 87.4112 74.8548 86.6567C74.7238 85.7941 74.6319 84.9595 74.5664 84.0915C74.5448 83.8332 74.5232 83.5749 74.501 83.3088C74.4557 82.7591 74.412 82.2094 74.3696 81.6595C74.3058 80.8346 74.2367 80.0102 74.1668 79.1858C74.0373 77.6151 73.9286 76.044 73.8387 74.4705C73.825 74.2317 73.8113 73.9929 73.7972 73.7468C73.7641 73.0875 73.7441 72.4276 73.7249 71.7678C73.7077 71.2116 73.7077 71.2116 73.69 70.6442C73.8387 69.7315 73.8387 69.7315 74.342 69.1758C75.5732 68.511 76.7625 68.5672 78.128 68.5696C78.4247 68.5661 78.7213 68.5627 79.027 68.5591C80.0134 68.5489 80.9998 68.5458 81.9863 68.5427C82.6825 68.537 83.3788 68.5309 84.075 68.5243C85.9199 68.5082 87.7647 68.4982 89.6096 68.4893C91.4351 68.4794 93.2606 68.4635 95.0861 68.4482C103.584 68.3802 112.082 68.3618 120.581 68.3774C120.602 68.1235 120.624 67.8696 120.647 67.6081C120.676 67.274 120.705 66.94 120.735 66.5959C120.764 66.2652 120.793 65.9345 120.822 65.5938C121.53 58.7391 125.494 51.7742 130.742 47.3901C137.088 43.0534 145.205 41.1505 152.82 40.8752C153.196 40.8572 153.572 40.8391 153.959 40.8205C154.711 40.7862 155.463 40.7641 156.215 40.7554C158.235 40.6596 158.235 40.6596 159.932 39.6579C160.558 38.8796 161.071 38.1027 161.565 37.235C161.753 36.911 161.753 36.911 161.945 36.5804C164.458 31.9715 164.458 31.9715 165.184 27.0098C164.948 26.3421 164.948 26.3421 164.444 25.5566C163.404 23.8254 163.389 21.9442 163.597 19.9712C164.034 18.4442 164.467 17.255 165.806 16.3416C166.993 15.251 167.052 14.218 167.301 12.6722C168.055 8.7798 169.493 5.5051 172.742 3.04599C175.903 1.23835 178.905 0.564225 182.501 0.676452C183.068 0.69373 183.634 0.707967 184.201 0.718765C184.572 0.730546 184.572 0.730546 184.95 0.742566C186.336 0.604311 186.81 -0.29556 188.323 -0.000558248ZM172.065 6.43104C170.626 8.37383 169.966 10.5511 169.355 12.8626C170.392 12.8141 171.429 12.7645 172.467 12.7145C172.753 12.7012 173.039 12.6879 173.334 12.6742C174.968 12.5947 176.596 12.4871 178.226 12.3483C180.772 12.1485 183.314 12.1049 185.867 12.101C186.221 12.0998 186.221 12.0998 186.583 12.0986C190.185 12.0941 193.621 12.3142 197.129 13.2011C196.712 10.2646 194.473 7.91583 192.275 6.05551C186.389 1.88756 177.466 0.716227 172.065 6.43104ZM177.484 14.2167C178.325 15.8983 181.852 16.6747 183.581 17.2632C185.781 17.9004 188.028 18.3457 190.27 18.8076C191.466 19.0619 192.66 19.3203 193.854 19.5798C194.286 19.6731 194.286 19.6731 194.725 19.7681C197.231 20.3166 199.694 20.9787 202.133 21.7736C203.908 22.3317 205.428 22.4123 207.29 22.3408C205.656 18.7849 200.579 16.6754 197.129 15.2322C193.551 13.9498 189.975 13.8199 186.206 13.8358C185.833 13.8365 185.46 13.8371 185.076 13.8378C182.531 13.8514 180.015 13.935 177.484 14.2167ZM167.047 17.7921C165.905 19.0644 165.673 20.1527 165.523 21.833C165.678 23.5624 166.185 24.6011 167.428 25.8104C168.388 26.4352 169.271 26.7731 170.371 27.0798C170.259 27.415 170.147 27.7501 170.032 28.0954C169.25 28.0954 168.467 28.0954 167.661 28.0954C167.587 28.2808 167.513 28.4663 167.436 28.6573C167.203 29.2403 166.969 29.823 166.734 30.4054C166.432 31.1653 166.137 31.9282 165.847 32.6929C164.395 36.5023 162.914 40.1682 159.532 42.6511C159.963 45.4807 161.944 47.3144 164.081 49.0893C166.724 51.0261 170.323 53.3276 173.758 52.8062C175.66 51.7542 176.279 49.9516 177.103 48.046C177.314 47.5836 177.314 47.5836 177.529 47.1118C178.379 45.4355 178.379 45.4355 178.161 43.6666C177.532 43.1192 177.532 43.1192 176.764 42.5876C173.039 39.775 173.039 39.775 172.509 37.6608C172.457 37.2824 172.457 37.2824 172.403 36.8965C173.074 36.7289 173.074 36.7289 173.758 36.558C173.925 36.8041 173.925 36.8041 174.095 37.0552C175.788 39.4385 178.258 41.0456 179.516 41.297C185.878 42.5685 187.306 38.7583 185.676 42.2068C190.495 38.038 192.554 30.3259 194.475 24.5103C194.769 23.6625 195.096 22.8327 195.436 22.0023C194.262 21.4974 193.159 21.1751 191.903 20.9484C191.552 20.8828 191.201 20.8172 190.839 20.7496C190.47 20.6812 190.1 20.6129 189.72 20.5425C186.755 19.9789 183.957 19.2999 181.14 18.2179C180.145 17.9259 179.762 17.8278 178.839 18.2787C178.136 18.9569 178.136 18.9569 177.484 19.7808C176.019 21.5617 176.019 21.5617 174.774 22.0023C173.673 21.8753 173.673 21.8753 172.742 21.6638C172.684 21.4556 172.627 21.2475 172.567 21.033C172.081 19.3652 172.081 19.3652 171.133 17.9402C169.636 17.2753 168.521 16.974 167.047 17.7921ZM231.339 22.6793C230.663 23.7114 230.082 24.7773 229.518 25.8739C229.36 26.1811 229.201 26.4884 229.038 26.8049C222.654 39.5578 220.398 53.979 219.145 68.0389C218.698 67.9272 218.251 67.8155 217.79 67.7004C217.679 66.1365 217.567 64.5726 217.452 62.9614C215.999 62.2911 214.546 61.6209 213.048 60.9303C212.991 61.4256 212.933 61.9209 212.874 62.4311C212.379 66.5211 211.731 70.4869 210.677 74.4705C214.257 74.2964 217.751 73.7535 221.282 73.1685C222.227 73.0123 223.172 72.8595 224.117 72.7073C228.131 72.0534 232.109 71.282 236.081 70.4085C238.308 62.816 237.53 54.274 237.15 46.466C237.116 45.7595 237.085 45.0529 237.058 44.3461C237.021 43.4552 236.967 42.5674 236.906 41.6779C236.898 41.4207 236.89 41.1636 236.881 40.8986C236.839 40.075 236.839 40.075 236.419 38.9275C235.766 38.3979 235.1 38.0159 234.359 37.6194C233.466 37.0906 233.131 36.5014 232.715 35.5636C232.585 35.2717 232.455 34.9798 232.32 34.679C231.972 33.7302 231.757 32.8273 231.677 31.8189C232.236 31.8189 232.795 31.8189 233.371 31.8189C233.429 32.0192 233.486 32.2195 233.546 32.4258C234.042 34.0423 234.481 35.3695 235.742 36.558C236.799 37.0142 236.799 37.0142 237.774 37.235C237.705 37.0103 237.635 36.7855 237.564 36.554C237.473 36.2551 237.381 35.9562 237.287 35.6482C237.197 35.3537 237.107 35.0592 237.013 34.7557C236.609 33.3227 236.377 32.002 236.386 30.5112C236.388 30.0612 236.388 30.0612 236.39 29.6021C236.394 29.139 236.394 29.139 236.398 28.6666C236.4 28.3513 236.401 28.036 236.403 27.7112C236.407 26.9366 236.412 26.162 236.419 25.3873C236.866 25.3873 237.314 25.3873 237.774 25.3873C237.799 25.9574 237.799 25.9574 237.824 26.539C237.929 31.7022 237.929 31.7022 240.145 36.2195C240.369 36.2195 240.592 36.2195 240.823 36.2195C241.187 34.3765 241.27 32.5481 241.352 30.6765C241.374 30.2058 241.374 30.2058 241.396 29.7257C241.432 28.9566 241.466 28.1875 241.5 27.4183C241.947 27.3066 242.394 27.1949 242.855 27.0798C243.235 29.9863 243.16 32.5716 242.655 35.4511C242.454 36.8006 242.403 37.6064 243.176 38.7702C243.406 39.0455 243.635 39.3208 243.871 39.6045C245.021 38.7167 245.302 37.5903 245.565 36.2195C245.689 34.8738 245.736 33.5291 245.776 32.1786C245.789 31.8179 245.802 31.4573 245.816 31.0857C245.848 30.2018 245.877 29.3179 245.903 28.4339C246.35 28.4339 246.797 28.4339 247.258 28.4339C247.593 30.6121 247.593 30.6121 247.936 32.8344C249.303 31.698 249.303 31.698 249.482 30.7267C249.477 27.5888 248.339 25.3883 246.2 23.1236C243.72 20.7905 240.913 18.8193 237.457 18.4903C234.602 18.5879 232.976 20.5793 231.339 22.6793ZM129.726 51.4522C129.516 51.6516 129.306 51.851 129.089 52.0565C119.898 61.4064 120.926 79.9201 120.581 92.0728C122.452 91.9346 124.298 91.7569 126.144 91.4169C132.789 90.2038 139.225 90.1389 145.984 90.0418C146.207 82.334 146.431 74.6262 146.661 66.6849C147.22 66.5732 147.779 66.4615 148.355 66.3464C148.274 69.6508 148.192 72.9551 148.107 76.2594C148.068 77.7935 148.03 79.3277 147.992 80.8619C147.957 82.3412 147.919 83.8205 147.88 85.2998C147.866 85.8654 147.852 86.4311 147.839 86.9968C147.82 87.7863 147.799 88.5758 147.778 89.3653C147.773 89.6015 147.768 89.8377 147.763 90.081C147.716 91.6957 147.716 91.6957 147.339 92.0728C146.333 92.1845 145.327 92.2962 144.29 92.4113C144.29 95.4274 144.29 98.4435 144.29 101.551C147.19 101.906 150.091 102.26 152.991 102.61C154.339 102.773 155.686 102.937 157.033 103.102C158.335 103.262 159.637 103.42 160.94 103.576C161.434 103.636 161.929 103.696 162.423 103.757C167.483 104.489 167.483 104.489 172.459 103.69C172.818 103.571 173.177 103.452 173.546 103.329C173.91 103.203 174.273 103.077 174.647 102.947C181.143 100.755 181.143 100.755 184.766 100.832C185.045 100.835 185.323 100.838 185.61 100.841C186.289 100.849 186.967 100.861 187.645 100.874C188.895 96.5743 189.734 92.2163 190.567 87.8203C190.767 86.7645 190.968 85.7087 191.171 84.6533C191.296 84.0021 191.419 83.3507 191.542 82.6991C192.189 79.3205 192.189 79.3205 192.726 78.1941C193.564 77.859 193.564 77.859 194.419 77.5171C194.755 73.9425 195.09 70.3679 195.436 66.6849C195.883 66.7966 196.33 66.9083 196.79 67.0234C196.679 70.2629 196.567 73.5024 196.452 76.8401C200.55 76.2589 200.55 76.2589 204.644 75.6553C204.921 75.6156 205.198 75.5759 205.484 75.535C205.749 75.4944 206.015 75.4538 206.289 75.412C206.523 75.3773 206.757 75.3426 206.998 75.3069C207.736 75.1578 207.736 75.1578 208.645 74.4705C208.928 73.8758 208.928 73.8758 209.091 73.176C209.196 72.7829 209.196 72.7829 209.303 72.3818C209.407 71.9601 209.407 71.9601 209.513 71.5298C209.586 71.2416 209.66 70.9535 209.735 70.6566C210.362 68.1054 210.774 65.5794 211.016 62.9614C211.082 62.5006 211.082 62.5006 211.15 62.0305C211.271 61.139 211.271 61.139 211.016 59.9148C210.537 59.4603 210.537 59.4603 209.888 59.1175C209.641 58.9741 209.394 58.8308 209.14 58.6831C208.865 58.531 208.59 58.379 208.306 58.2223C208.016 58.0598 207.725 57.8972 207.425 57.7297C206.445 57.1888 205.461 56.6571 204.475 56.1278C204.116 55.935 203.758 55.7422 203.388 55.5436C202.66 55.1525 201.931 54.7619 201.202 54.3718C200.296 53.8853 199.392 53.3943 198.489 52.9014C189.764 47.7712 189.764 47.7712 180.194 45.3591C180.1 45.5776 180.006 45.7961 179.91 46.0212C179.48 47.0156 179.043 48.0068 178.606 48.998C178.459 49.3419 178.311 49.6857 178.159 50.04C176.747 53.2175 176.747 53.2175 175.113 54.1602C171.892 55.2333 168.688 53.7172 165.798 52.2773C162.014 50.1119 159.082 47.0618 157.5 42.9896C147.862 42.6487 136.699 44.1723 129.726 51.4522ZM93.8226 86.9952C93.8226 87.7772 93.8226 88.5591 93.8226 89.3647C102.094 89.253 110.365 89.1413 118.887 89.0262C118.887 88.356 118.887 87.6858 118.887 86.9952C110.616 86.9952 102.345 86.9952 93.8226 86.9952ZM226.505 103.076C225.195 103.793 223.881 104.499 222.567 105.207C219.243 106.997 215.941 108.822 212.659 110.687C210.166 112.102 207.661 113.493 205.152 114.88C202.412 116.394 199.687 117.931 196.981 119.505C195.53 120.347 194.074 121.179 192.617 122.011C191.861 122.451 191.118 122.904 190.379 123.371C187.643 124.978 185.422 125.008 182.338 124.985C178.278 125.073 174.829 126.859 171.248 128.633C170.324 128.988 169.658 129.037 168.677 128.97C168.677 128.635 168.677 128.3 168.677 127.954C170.466 127.172 172.254 126.39 174.097 125.585C172.873 124.769 172.169 124.777 170.71 124.696C170.291 124.671 169.871 124.646 169.44 124.62C168.96 124.602 168.48 124.585 168 124.569C167.713 124.554 167.425 124.539 167.129 124.523C164.747 124.445 162.826 124.873 160.591 125.669C160.246 125.788 159.901 125.907 159.545 126.03C155.467 127.467 151.489 129.155 147.509 130.84C145.672 131.613 143.828 132.365 141.983 133.117C141.374 133.365 140.765 133.614 140.156 133.862C139.727 134.037 139.299 134.211 138.871 134.386C139.437 138.906 141.856 143.054 144.629 146.572C144.866 146.874 145.102 147.177 145.346 147.488C150.512 153.644 158.526 156.515 166.306 157.404C167.966 157.5 169.619 157.518 171.281 157.51C171.728 157.508 172.174 157.506 172.635 157.504C176.04 157.462 179.261 157.223 182.565 156.389C182.832 156.321 183.1 156.254 183.375 156.185C196.429 152.79 207.203 144.332 217.949 136.519C221.389 134.02 224.887 131.612 228.413 129.235C229.247 128.672 230.078 128.105 230.909 127.538C241.944 120.04 241.944 120.04 247.045 118.774C247.307 118.706 247.569 118.639 247.839 118.569C248.358 118.439 248.881 118.32 249.406 118.214C250.231 118.037 250.231 118.037 251.323 117.461C251.768 116.533 251.863 115.791 252 114.753C252.335 114.753 252.671 114.753 253.016 114.753C253.128 115.646 253.24 116.54 253.355 117.461C253.821 117.547 253.821 117.547 254.297 117.635C257.626 118.292 260.226 118.891 262.5 121.523C262.655 121.698 262.811 121.874 262.971 122.054C265.89 125.601 268.084 130.712 267.862 135.33C267.664 140.931 269.873 144.48 272.992 148.969C273.75 150.061 274.471 151.172 275.185 152.293C275.617 152.969 276.054 153.641 276.494 154.313C278.184 156.902 279.821 159.526 281.468 162.143C283.362 160.984 285.206 159.79 286.972 158.441C291.862 154.72 296.994 151.299 302.129 147.926C301.929 146.616 301.539 145.653 300.887 144.503C300.698 144.168 300.51 143.834 300.316 143.49C300.111 143.132 299.906 142.773 299.695 142.404C299.481 142.027 299.267 141.651 299.047 141.263C296.834 137.371 294.581 133.503 292.306 129.647C292.048 129.208 291.79 128.768 291.531 128.329C288.652 123.435 285.776 118.551 282.64 113.815C281.826 112.573 281.031 111.317 280.234 110.064C278.137 106.772 276.02 103.495 273.868 100.239C273.656 99.9159 273.444 99.5925 273.226 99.2593C270.25 94.7843 267.042 90.1939 261.484 89.0262C249.599 87.8311 236.588 97.5256 226.505 103.076ZM135.082 91.967C134.735 91.9971 134.388 92.0272 134.03 92.0582C127.989 92.4285 127.989 92.4285 122.274 94.1038C122.257 96.3014 122.245 98.499 122.237 100.697C122.234 101.443 122.229 102.189 122.223 102.935C122.215 104.013 122.211 105.092 122.208 106.17C122.205 106.498 122.201 106.827 122.197 107.166C122.197 110.515 122.407 113.798 124.645 116.445C129.01 120.711 137.603 119.961 143.178 119.903C150.155 119.794 157.625 118.999 164.274 116.784C164.782 116.752 165.29 116.74 165.798 116.741C166.06 116.74 166.322 116.74 166.592 116.739C167.323 116.784 167.323 116.784 168.339 117.122C170.36 117.303 172.043 117.303 173.758 116.107C174.761 115.11 175.576 114.029 176.129 112.722C178.614 112.852 180.663 114.376 182.543 115.895C183.227 116.55 183.227 116.55 184.258 116.445C184.633 115.267 184.822 114.285 184.597 113.06C183.707 112.201 182.798 111.613 181.731 110.991C180.871 110.352 180.871 110.352 180.583 109.428C180.566 109.174 180.549 108.921 180.532 108.66C182.216 109.257 183.728 110.147 185.274 111.029C185.344 110.596 185.414 110.163 185.486 109.717C185.525 109.474 185.564 109.23 185.605 108.98C185.608 108.762 185.61 108.545 185.613 108.321C184.677 107.386 183.849 107.448 182.565 107.306C182.676 106.859 182.788 106.412 182.903 105.951C184.096 105.924 185.145 105.938 186.29 106.29C186.694 104.978 186.968 103.949 186.968 102.566C184.938 101.552 182.26 102.367 180.194 102.947C179.778 103.059 179.778 103.059 179.354 103.172C177.97 103.554 176.617 103.975 175.276 104.485C175.03 104.578 174.785 104.67 174.533 104.766C174.081 104.941 173.631 105.124 173.186 105.315C169.494 106.765 165.084 105.886 161.266 105.395C160.795 105.336 160.324 105.278 159.854 105.22C158.874 105.098 157.894 104.975 156.915 104.85C155.681 104.693 154.446 104.539 153.212 104.386C147.969 103.736 142.735 103.053 137.516 102.228C137.516 101.781 137.516 101.334 137.516 100.874C138.969 100.874 140.422 100.874 141.919 100.874C142.207 99.7238 142.298 98.9208 142.291 97.7586C142.29 97.427 142.289 97.0954 142.288 96.7537C142.285 96.4098 142.282 96.066 142.279 95.7117C142.278 95.3626 142.276 95.0136 142.275 94.6539C142.271 93.7935 142.265 92.9332 142.258 92.0728C139.821 91.743 137.528 91.7447 135.082 91.967ZM220.5 93.0883C219.672 94.3296 219.541 95.3693 219.823 96.8119C220.49 97.7349 220.49 97.7349 221.516 98.1659C222.569 98.2773 222.569 98.2773 223.548 97.8274C224.459 96.7971 224.86 96.1028 225.051 94.7385C224.884 93.6365 224.702 93.1695 223.887 92.4113C222.434 91.8379 221.715 92.1695 220.5 93.0883ZM95.1774 107.306C95.1774 109.259 95.2076 111.126 95.3897 113.058C95.4123 113.31 95.4349 113.561 95.4581 113.82C95.5321 114.64 95.6081 115.46 95.6842 116.28C95.7366 116.855 95.789 117.43 95.8412 118.005C95.9506 119.206 96.0608 120.406 96.1718 121.606C96.3137 123.142 96.4538 124.677 96.5932 126.213C96.701 127.398 96.8095 128.584 96.9184 129.77C96.9703 130.336 97.022 130.902 97.0735 131.468C97.1457 132.26 97.2188 133.051 97.2923 133.842C97.3133 134.074 97.3342 134.305 97.3558 134.544C97.4796 135.864 97.6683 137.136 97.8871 138.448C111.076 138.448 124.266 138.448 137.855 138.448C137.52 137.443 137.184 136.437 136.839 135.401C136.053 135.159 135.263 134.933 134.468 134.724C131.89 131.118 131.558 125.494 131.081 121.184C130.9 121.127 130.719 121.069 130.533 121.01C124.516 119.054 124.516 119.054 122.952 117.122C122.714 116.843 122.477 116.564 122.232 116.276C120.747 113.507 120.55 110.388 120.242 107.306C111.971 107.306 103.699 107.306 95.1774 107.306ZM176.806 114.753C176.674 115.004 176.541 115.255 176.404 115.514C175.737 116.526 175.071 117.087 174.097 117.799C173.65 118.134 173.203 118.469 172.742 118.815C176.207 118.815 179.672 118.815 183.242 118.815C182.683 118.368 182.124 117.921 181.548 117.461C181.293 117.25 181.038 117.039 180.776 116.822C180.528 116.621 180.28 116.42 180.024 116.212C179.776 116.009 179.528 115.805 179.273 115.595C178.436 115.05 177.789 114.882 176.806 114.753ZM163.936 118.476C163.936 118.588 163.936 118.7 163.936 118.815C165.277 118.815 166.618 118.815 168 118.815C166.389 118.01 165.628 118.11 163.936 118.476ZM233.032 127.954C232.803 128.108 232.573 128.262 232.336 128.421C230.993 129.325 229.662 130.245 228.335 131.173C227.553 131.72 226.768 132.265 225.984 132.81C223.257 134.708 220.543 136.623 217.854 138.575C202.836 149.46 202.836 149.46 196.452 152.665C196.452 152.777 196.452 152.889 196.452 153.004C199.541 153.061 202.534 152.942 205.597 152.538C206.235 152.456 206.235 152.456 206.887 152.371C213.369 151.494 219.795 150.206 226.22 148.991C226.759 148.889 226.759 148.889 227.31 148.784C227.809 148.689 227.809 148.689 228.318 148.592C228.608 148.537 228.898 148.482 229.197 148.425C229.917 148.278 230.627 148.111 231.339 147.926C231.294 147.726 231.249 147.526 231.202 147.319C231.079 146.767 230.956 146.214 230.835 145.661C230.711 145.103 230.582 144.547 230.45 143.991C230.245 142.693 230.062 141.338 230.661 140.14C231.108 140.14 231.556 140.14 232.016 140.14C232.025 140.419 232.034 140.697 232.043 140.984C232.173 143.551 232.586 145.611 233.71 147.926C234.589 146.608 235.301 145.222 236.038 143.822C236.185 143.545 236.333 143.268 236.484 142.983C237.443 141.164 238.319 139.323 239.129 137.432C239.576 137.432 240.023 137.432 240.484 137.432C239.649 140.597 238.227 143.401 236.719 146.291C234.509 150.567 234.264 154.16 234.851 158.864C235.019 160.214 235.174 161.566 235.33 162.918C235.364 163.208 235.398 163.498 235.432 163.797C235.842 167.349 236.179 170.908 236.517 174.468C236.583 175.156 236.648 175.843 236.714 176.531C236.879 178.272 237.044 180.014 237.209 181.756C237.475 184.572 237.742 187.388 238.01 190.203C238.102 191.167 238.193 192.132 238.284 193.096C238.653 196.998 239.049 200.897 239.468 204.795C242.192 204.669 244.915 204.543 247.639 204.415C248.904 204.356 250.169 204.297 251.434 204.239C252.657 204.183 253.881 204.125 255.104 204.068C255.568 204.046 256.032 204.024 256.497 204.003C259.072 203.886 261.632 203.736 264.194 203.441C264.539 201.368 264.641 199.31 264.726 197.212C264.743 196.827 264.759 196.443 264.776 196.047C264.831 194.771 264.883 193.495 264.936 192.219C264.964 191.545 264.992 190.872 265.02 190.199C265.151 187.06 265.276 183.921 265.4 180.782C265.41 180.537 265.42 180.291 265.43 180.038C266.154 161.979 266.154 161.979 266.435 143.91C266.437 143.173 266.444 142.435 266.45 141.697C266.539 134.803 266.539 134.803 264.532 128.293C264.438 128.091 264.344 127.89 264.247 127.682C262.675 124.336 260.816 121.665 257.405 120.064C248.91 117.065 239.747 123.444 233.032 127.954ZM157.161 120.169C156.829 120.212 156.829 120.212 156.49 120.257C155.458 120.391 154.426 120.523 153.393 120.655C153.045 120.701 152.697 120.746 152.339 120.793C147.685 121.386 143.089 121.571 138.405 121.544C137.888 121.542 137.371 121.541 136.855 121.539C135.607 121.536 134.36 121.53 133.113 121.523C133.266 124.056 133.473 126.504 134.087 128.97C134.141 129.21 134.196 129.451 134.252 129.698C134.584 131.081 135.019 132.196 135.823 133.37C137.287 133.173 138.521 132.815 139.88 132.241C140.271 132.078 140.661 131.915 141.063 131.746C141.482 131.568 141.902 131.39 142.322 131.212C142.977 130.937 143.633 130.663 144.289 130.388C144.739 130.2 145.19 130.011 145.64 129.822C148.005 128.829 150.381 127.862 152.758 126.896C153.142 126.741 153.525 126.585 153.92 126.424C155.451 125.802 156.982 125.181 158.516 124.569C158.42 124.089 158.32 123.61 158.22 123.131C158.165 122.864 158.11 122.597 158.053 122.321C157.841 121.532 157.536 120.892 157.161 120.169ZM53.7702 148.836C53.5746 149.094 53.379 149.352 53.1774 149.619C53.0657 149.73 52.9539 149.842 52.8387 149.957C52.7412 150.948 52.6732 151.701 52.8387 152.665C53.8953 153.845 55.0372 154.337 56.5645 154.696C57.6141 154.429 57.6141 154.429 58.6179 153.913C63.6158 151.567 68.5705 152.881 73.5645 154.615C75.0337 155.155 76.4706 155.758 77.9032 156.389C78.3505 156.578 78.3505 156.578 78.8069 156.771C79.5544 157.108 79.5544 157.108 80.6129 157.743C80.8484 158.459 80.8484 158.459 80.9516 159.097C79.4638 158.913 78.3872 158.548 77.0776 157.827C74.7182 156.606 72.3072 155.807 69.7742 155.035C69.524 154.95 69.2738 154.866 69.0161 154.78C65.4137 153.677 61.6377 154.205 58.2581 155.712C56.718 156.532 55.4331 157.412 54.871 159.097C54.7008 161.172 54.8335 162.188 56.2258 163.836C59.7318 167.427 64.6874 167.779 69.4355 167.898C70.5404 167.901 71.645 167.89 72.7498 167.877C73.0476 167.873 73.3454 167.87 73.6523 167.866C73.9555 167.863 74.2587 167.859 74.571 167.856C75.1949 167.849 75.8187 167.842 76.4425 167.834C76.7516 167.831 77.0607 167.827 77.3792 167.823C82.6042 167.771 87.3976 168.238 92.4678 169.59C91.7254 165.632 89.8579 162.767 87.0868 159.86C86.371 159.097 86.371 159.097 85.7068 158.244C80.708 152.167 71.4742 147.463 63.6774 146.572C60.4216 146.32 56.2521 146.384 53.7702 148.836ZM267.919 149.619C267.905 150.183 267.906 150.747 267.919 151.311C268.287 151.755 268.287 151.755 269.18 151.683C269.554 151.679 269.927 151.675 270.312 151.671C270.686 151.668 271.06 151.665 271.445 151.662C271.735 151.658 272.024 151.654 272.323 151.65C271.954 150.55 271.954 150.55 271.306 149.619C270.735 149.594 270.163 149.59 269.592 149.597C269.28 149.601 268.969 149.604 268.648 149.607C268.408 149.611 268.167 149.615 267.919 149.619ZM300.711 150.973C300.381 151.195 300.381 151.195 300.044 151.422C294.762 154.998 289.543 158.665 284.39 162.425C283.876 162.794 283.349 163.146 282.823 163.497C283.354 165.517 284.432 167.163 285.532 168.913C287.317 168.36 288.658 167.233 290.126 166.121C292.43 164.399 294.752 162.71 297.112 161.064C297.53 160.771 297.53 160.771 297.957 160.472C299.316 159.524 300.682 158.591 302.067 157.681C302.321 157.512 302.575 157.343 302.836 157.17C303.312 156.855 303.791 156.543 304.273 156.236C304.98 155.782 304.98 155.782 305.855 155.035C305.855 153.474 305.497 152.891 304.712 151.565C304.5 151.2 304.287 150.835 304.069 150.46C303.876 150.182 303.683 149.905 303.484 149.619C302.381 149.619 301.597 150.37 300.711 150.973ZM142.121 149.631C141.733 149.634 141.344 149.637 140.944 149.64C140.302 149.645 140.302 149.645 139.646 149.65C139.192 149.653 138.738 149.656 138.284 149.66C137.05 149.669 135.816 149.678 134.581 149.687C133.292 149.696 132.003 149.706 130.713 149.715C128.271 149.733 125.829 149.751 123.387 149.769C120.606 149.79 117.826 149.81 115.046 149.831C109.327 149.873 103.607 149.915 97.8871 149.957C97.9989 150.627 98.1107 151.298 98.2258 151.988C103.137 151.94 108.048 151.891 112.96 151.84C113.32 151.836 113.68 151.833 114.051 151.829C124.697 151.718 135.341 151.587 145.984 151.311C145.55 150.733 145.097 150.169 144.629 149.619C143.793 149.619 142.957 149.625 142.121 149.631ZM227.274 150.465C227.012 150.513 226.749 150.562 226.479 150.612C225.84 150.73 225.202 150.851 224.565 150.973C224.565 151.084 224.565 151.196 224.565 151.311C227.359 151.311 230.153 151.311 233.032 151.311C233.032 150.864 233.032 150.418 233.032 149.957C231.041 149.903 229.227 150.089 227.274 150.465ZM3.04839 167.559C2.93162 168.573 2.93162 168.573 3.54587 169.097C3.88643 169.373 3.88643 169.373 4.23387 169.654C5.2166 170.473 6.12608 171.308 7.00706 172.235C11.6641 176.916 17.4484 180.471 24.1966 180.55C28.299 180.511 31.6697 179.659 34.7813 176.911C37.0013 174.392 38.152 172.255 38.0863 168.809C37.8362 167.298 37.0711 166.469 35.9032 165.528C31.0429 162.252 23.3387 163.818 17.9516 164.851C16.6067 165.156 15.2858 165.52 13.9638 165.912C12.8128 166.221 11.6818 166.397 10.5 166.544C10.5 166.097 10.5 165.65 10.5 165.19C17.5029 162.981 27.6873 159.87 34.7799 163.254C35.0668 163.411 35.3536 163.568 35.6492 163.73C37.3031 164.625 38.1524 164.688 39.9677 164.174C41.4035 163.406 41.4035 163.406 42.3387 162.143C42.506 160.695 42.4504 159.964 41.7036 158.695C39.5342 156.391 36.0922 156.065 33.1089 155.966C23.0972 156.078 10.1193 160.21 3.04839 167.559ZM99.2419 158.758C99.2125 159.133 99.1831 159.509 99.1528 159.895C96.6223 192.131 96.6223 192.131 95.368 205.535C95.336 205.877 95.336 205.877 95.3034 206.226C94.5758 214.009 94.5758 214.009 94.3068 216.168C94.1488 217.786 94.1613 219.418 94.1613 221.043C105.898 221.043 117.634 221.043 129.726 221.043C129.737 214.444 129.737 214.444 129.576 207.856C129.56 207.414 129.544 206.973 129.527 206.518C129.485 205.338 129.44 204.159 129.395 202.979C129.348 201.731 129.302 200.482 129.256 199.234C129.179 197.145 129.1 195.056 129.021 192.968C128.93 190.563 128.84 188.157 128.752 185.752C128.666 183.418 128.579 181.084 128.491 178.75C128.455 177.765 128.418 176.779 128.382 175.794C128.331 174.419 128.279 173.045 128.226 171.671C128.212 171.269 128.197 170.866 128.182 170.452C128.095 168.235 127.947 166.04 127.694 163.836C127.474 163.835 127.254 163.835 127.027 163.834C124.966 163.828 122.905 163.809 120.845 163.784C120.07 163.776 119.295 163.771 118.52 163.77C110.393 163.747 110.393 163.747 106.694 161.805C106.093 161.527 105.492 161.25 104.892 160.973C104.066 160.572 103.243 160.165 102.42 159.759C102.153 159.629 101.886 159.499 101.61 159.365C101.374 159.248 101.138 159.131 100.894 159.011C100.215 158.696 100.215 158.696 99.2419 158.758ZM129.726 163.836C129.939 171.28 130.164 178.72 130.456 186.161C130.484 186.863 130.511 187.566 130.538 188.268C130.623 190.45 130.709 192.632 130.795 194.815C130.883 197.053 130.97 199.291 131.057 201.529C131.132 203.475 131.208 205.421 131.284 207.367C131.33 208.519 131.375 209.671 131.419 210.824C131.468 212.098 131.519 213.372 131.57 214.646C131.584 215.021 131.598 215.396 131.612 215.782C131.626 216.13 131.641 216.478 131.655 216.836C131.667 217.136 131.679 217.435 131.691 217.744C131.771 218.849 131.94 219.946 132.097 221.043C133.997 221.043 135.897 221.043 137.855 221.043C138.261 220.312 138.261 220.312 138.675 219.566C144.335 209.429 150.324 199.682 160.019 192.926C160.256 192.76 160.493 192.594 160.737 192.424C161.072 192.195 161.072 192.195 161.415 191.962C161.615 191.826 161.815 191.689 162.022 191.548C162.581 191.255 162.581 191.255 163.597 191.255C163.405 192.459 163.102 193.348 162.479 194.394C162.317 194.669 162.156 194.944 161.99 195.227C161.815 195.522 161.639 195.817 161.459 196.121C158.332 201.503 155.447 206.942 152.991 212.665C152.826 213.046 152.661 213.427 152.491 213.82C152.343 214.174 152.195 214.527 152.042 214.892C151.91 215.206 151.778 215.52 151.642 215.843C151.308 216.682 151.308 216.682 151.742 217.658C151.89 217.444 152.039 217.231 152.192 217.01C157.018 210.207 163.174 203.655 171.048 200.394C171.496 200.394 171.943 200.394 172.403 200.394C172.205 201.621 171.876 202.567 171.285 203.658C171.124 203.961 170.962 204.263 170.795 204.575C170.533 205.061 170.533 205.061 170.265 205.557C168.688 208.529 167.161 211.521 165.693 214.548C165.512 214.915 165.331 215.283 165.145 215.661C164.981 216.001 164.817 216.341 164.649 216.692C164.429 217.144 164.429 217.144 164.206 217.605C164.117 217.846 164.027 218.087 163.936 218.335C164.047 218.559 164.159 218.782 164.274 219.012C164.582 218.689 164.89 218.365 165.207 218.032C168.074 215.068 171.026 212.526 174.436 210.211C174.798 209.954 175.161 209.697 175.535 209.432C176.468 208.857 176.468 208.857 177.484 208.857C177.362 210.92 176.369 212.214 175.219 213.85C174.848 214.391 174.478 214.932 174.109 215.474C173.931 215.733 173.753 215.992 173.57 216.258C171.857 218.482 171.857 218.482 171.048 221.043C194.074 221.043 217.099 221.043 240.823 221.043C242.246 216.284 242.246 216.284 242.177 213.935C241.937 213.914 241.696 213.894 241.448 213.872C241.137 213.844 240.826 213.816 240.505 213.786C240.039 213.745 240.039 213.745 239.564 213.703C238.79 213.596 238.79 213.596 238.452 213.258C238.347 212.464 238.263 211.676 238.191 210.879C238.168 210.628 238.144 210.378 238.119 210.119C238.04 209.279 237.963 208.438 237.885 207.597C237.83 207.003 237.774 206.41 237.718 205.816C237.569 204.22 237.421 202.623 237.273 201.026C237.151 199.71 237.028 198.393 236.905 197.077C236.324 190.857 235.751 184.636 235.198 178.414C235.178 178.189 235.158 177.964 235.138 177.732C234.937 175.474 234.738 173.217 234.543 170.959C234.495 170.415 234.495 170.415 234.447 169.861C234.389 169.199 234.332 168.537 234.276 167.876C234.251 167.588 234.225 167.3 234.199 167.004C234.178 166.758 234.157 166.512 234.135 166.258C234.038 165.444 233.871 164.64 233.71 163.836C199.395 163.836 165.08 163.836 129.726 163.836ZM267.919 163.836C267.712 165.08 267.537 166.153 267.489 167.385C267.471 167.814 267.471 167.814 267.453 168.251C267.441 168.559 267.43 168.866 267.418 169.183C267.405 169.512 267.391 169.841 267.378 170.18C267.334 171.269 267.293 172.358 267.251 173.448C267.221 174.215 267.191 174.982 267.162 175.749C267.099 177.363 267.037 178.978 266.976 180.592C266.914 182.226 266.851 183.86 266.786 185.493C266.427 194.526 266.11 203.54 266.226 212.581C264.661 212.692 263.096 212.804 261.484 212.919C261.519 213.331 261.554 213.743 261.59 214.167C261.609 214.399 261.629 214.631 261.649 214.869C262.212 217.329 264.146 218.492 266.151 219.764C268.644 221.155 270.745 221.259 273.56 221.153C273.964 221.145 274.368 221.137 274.784 221.129C275.771 221.108 276.756 221.08 277.742 221.043C276.784 207.823 275.763 194.608 274.701 181.396C274.609 180.251 274.517 179.105 274.426 177.959C274.281 176.142 274.135 174.324 273.988 172.506C273.933 171.829 273.879 171.152 273.825 170.474C273.751 169.544 273.675 168.613 273.599 167.683C273.578 167.409 273.556 167.135 273.534 166.852C273.446 165.787 273.34 164.854 273 163.836C271.323 163.836 269.647 163.836 267.919 163.836ZM53.8548 177.715C53.1995 178.747 53.1774 179.135 53.1774 180.423C53.4813 180.513 53.7852 180.604 54.0983 180.698C59.793 182.485 65.1775 185.112 69.6472 189.118C69.8239 189.275 70.0006 189.432 70.1827 189.594C71.0744 190.423 71.6842 191.028 71.8065 192.27C70.4812 192.075 69.7775 191.442 68.7792 190.578C63.5549 186.226 57.0409 181.794 49.9438 182.017C48.8025 182.152 48.013 182.462 47.0806 183.131C46.2008 184.589 46.133 185.871 46.4032 187.531C47.8904 191.984 51.1527 194.887 55.1229 197.137C56.8692 198.007 58.665 198.518 60.5444 199.019C61.35 199.247 62.1553 199.477 62.9603 199.707C63.3625 199.821 63.7648 199.935 64.1792 200.052C69.5089 201.583 74.4653 203.345 79.2581 206.149C79.7054 206.405 80.1531 206.661 80.601 206.916C81.1099 207.207 81.1099 207.207 81.629 207.503C83.5685 200.758 80.384 192.063 77.1835 186.177C74.4209 181.598 70.0658 177.257 64.814 175.768C61.1324 174.974 56.7966 175.047 53.8548 177.715ZM46.7419 192.609C46.737 192.845 46.7321 193.081 46.727 193.325C46.5744 200.05 46.1963 206.749 45.7314 213.459C45.7088 213.787 45.6863 214.115 45.6632 214.453C45.6207 215.068 45.5775 215.684 45.5334 216.299C45.4235 217.885 45.3658 219.453 45.3871 221.043C46.0577 220.876 46.0577 220.876 46.7419 220.705C46.7917 220.298 46.8415 219.892 46.8928 219.474C47.7946 212.583 49.6947 206.605 52.8367 200.409C53.2206 199.63 53.5541 198.84 53.8548 198.025C53.6496 197.918 53.4444 197.81 53.233 197.7C51.0662 196.494 49.4375 195.077 47.7356 193.278C47.5195 193.057 47.3033 192.836 47.0806 192.609C46.9689 192.609 46.8571 192.609 46.7419 192.609ZM158.855 195.994C151.014 202.482 144.495 211.073 140.226 220.366C140.226 220.59 140.226 220.813 140.226 221.043C142.797 221.043 145.367 221.043 148.016 221.043C148.255 220.4 148.493 219.756 148.739 219.093C150.5 214.387 152.36 209.76 154.557 205.239C154.748 204.846 154.938 204.454 155.134 204.049C156.25 201.786 157.458 199.613 158.788 197.467C158.922 197.204 159.056 196.942 159.194 196.671C159.026 196.336 159.026 196.336 158.855 195.994ZM166.179 205.239C165.969 205.39 165.758 205.541 165.54 205.697C163.385 207.272 161.446 209.029 159.532 210.888C159.346 211.065 159.16 211.243 158.968 211.426C157.452 212.897 156.148 214.472 154.875 216.156C154.589 216.526 154.589 216.526 154.297 216.904C153.253 218.274 152.531 219.466 151.742 221.043C154.648 221.043 157.554 221.043 160.548 221.043C162.806 216.858 164.88 212.638 166.833 208.303C167.523 206.774 168.254 205.273 169.016 203.779C167.882 203.779 167.073 204.598 166.179 205.239ZM256.18 205.694C255.706 205.717 255.232 205.74 254.757 205.762C253.52 205.822 252.282 205.882 251.044 205.943C249.777 206.004 248.51 206.065 247.243 206.126C244.764 206.246 242.285 206.366 239.806 206.487C239.28 207.539 239.608 208.431 239.785 209.576C239.851 210.01 239.917 210.444 239.985 210.891C240.038 211.225 240.091 211.559 240.145 211.904C245.055 211.998 249.934 211.841 254.837 211.586C255.27 211.564 255.27 211.564 255.713 211.542C256.553 211.498 257.392 211.453 258.232 211.408C258.605 211.388 258.605 211.388 258.985 211.368C260.73 211.269 262.458 211.092 264.194 210.888C264.194 209.101 264.194 207.313 264.194 205.472C261.516 205.441 258.853 205.562 256.18 205.694ZM42.6351 207.736C41.824 208.669 41.3565 209.227 41.2194 210.466C41.2916 211.176 41.3837 211.884 41.4906 212.59C41.7483 214.308 41.6976 216.031 41.6825 217.764C41.6809 218.086 41.6794 218.407 41.6778 218.739C41.6739 219.507 41.6684 220.275 41.6613 221.043C42.2202 221.043 42.779 221.043 43.3548 221.043C43.5019 219.569 43.6465 218.094 43.789 216.62C43.8376 216.12 43.8869 215.62 43.9368 215.12C44.2243 212.238 44.4551 209.388 44.371 206.487C43.6559 206.487 43.1077 207.277 42.6351 207.736ZM39.2903 211.227C39.1403 211.368 38.9904 211.509 38.8358 211.655C38.141 212.31 37.4455 212.963 36.75 213.617C36.5142 213.84 36.2785 214.062 36.0355 214.291C35.7998 214.512 35.564 214.734 35.3211 214.962C34.9628 215.299 34.9628 215.299 34.5973 215.642C33.6891 216.47 32.7441 217.25 31.7851 218.018C30.9224 218.872 30.9224 218.872 29.8065 221.043C33.1597 221.043 36.5129 221.043 39.9677 221.043C39.9817 219.612 39.9957 218.181 40.0101 216.706C40.0163 216.256 40.0224 215.806 40.0288 215.342C40.0305 214.987 40.0322 214.632 40.0339 214.266C40.0374 213.903 40.041 213.54 40.0447 213.165C40.0366 212.168 40.0366 212.168 39.2903 211.227ZM169.609 216.156C169.311 216.433 169.311 216.433 169.007 216.716C167.67 217.975 166.42 219.253 165.29 220.705C165.29 220.816 165.29 220.928 165.29 221.043C166.55 221.453 167.431 221.525 168.677 221.043C170.338 219.175 171.615 216.635 172.403 214.273C171.208 214.273 170.443 215.372 169.609 216.156Z" fill="black"/>
<path d="M184.596 22.6797C185.043 22.7914 185.49 22.9031 185.951 23.0182C185.839 24.0236 185.727 25.0289 185.612 26.0647C185.165 26.0647 184.718 26.0647 184.257 26.0647C183.865 24.6923 183.973 23.9599 184.596 22.6797Z" fill="black"/>
<path d="M189.68 25.3877C190.127 25.6111 190.574 25.8345 191.035 26.0647C191.005 26.982 190.969 27.8982 190.929 28.8151C190.918 29.2012 190.918 29.2012 190.906 29.5952C190.814 31.5236 190.376 32.9014 189.214 34.485C188.435 35.0245 187.896 34.9845 186.97 34.8658C186.747 34.6424 186.523 34.419 186.293 34.1888C186.335 33.5118 186.335 33.5118 186.632 32.8348C186.853 32.7375 187.074 32.6402 187.302 32.5399C188.034 32.2224 188.034 32.2224 188.255 31.5324C188.299 31.2849 188.343 31.0375 188.389 30.7826C188.439 30.513 188.489 30.2433 188.541 29.9654C188.698 28.8764 188.809 27.7876 188.886 26.6901C189.003 26.0647 189.003 26.0647 189.68 25.3877Z" fill="black"/>
<path d="M181.212 34.5264C182.727 34.6994 183.442 35.2598 184.599 36.2189C185.269 36.5725 185.945 36.9152 186.632 37.2344C186.52 37.6812 186.408 38.1281 186.293 38.5884C184.111 38.414 182.929 37.7004 181.233 36.3881C180.873 35.8804 180.873 35.8804 180.979 35.1399C181.056 34.9374 181.133 34.735 181.212 34.5264Z" fill="black"/>
<path d="M62.3208 42.3135C63.1464 42.5674 63.1464 42.5674 64.0144 42.9905C64.3531 43.6463 64.3531 43.6463 64.3531 44.3445C63.972 44.958 63.972 44.958 63.3369 45.36C62.4267 45.2542 62.4267 45.2542 61.6434 45.0215C61.4105 44.2387 61.4105 44.2387 61.3047 43.329C61.7916 42.7155 61.7916 42.7155 62.3208 42.3135Z" fill="black"/>
<path d="M270.535 46.6205C270.916 46.6173 271.297 46.614 271.689 46.6107C272.097 46.611 272.506 46.6113 272.926 46.6117C273.348 46.6102 273.77 46.6088 274.205 46.6073C275.325 46.6048 276.445 46.6059 277.564 46.6078C278.25 46.6077 278.935 46.6043 279.62 46.5997C280.938 46.5914 282.256 46.59 283.574 46.5905C283.983 46.5874 284.391 46.5843 284.811 46.5811C285.192 46.5832 285.573 46.5853 285.966 46.5874C286.3 46.5872 286.634 46.587 286.978 46.5868C288.07 46.7363 288.71 47.085 289.597 47.729C290.482 49.497 290.042 52.3247 290.054 54.2937C290.06 54.9507 290.069 55.6077 290.082 56.2646C290.101 57.2122 290.108 58.1594 290.113 59.1073C290.121 59.4 290.128 59.6927 290.136 59.9943C290.132 61.3345 290.023 62.1267 289.368 63.317C287.534 64.3921 285.679 64.2045 283.593 64.1782C283.134 64.1776 282.676 64.1777 282.218 64.1783C281.259 64.1777 280.301 64.1714 279.343 64.1607C278.115 64.1472 276.887 64.1458 275.658 64.1483C274.713 64.1494 273.767 64.1453 272.822 64.1395C272.149 64.1359 271.476 64.1358 270.803 64.1357C270.395 64.1303 269.987 64.1249 269.566 64.1194C269.027 64.1151 269.027 64.1151 268.476 64.1107C267.581 63.9772 267.581 63.9772 266.97 63.5241C265.987 62.1593 266.171 60.6107 266.169 59.0068C266.168 58.7184 266.167 58.43 266.166 58.1329C266.164 57.5231 266.163 56.9134 266.163 56.3036C266.163 55.3712 266.156 54.439 266.15 53.5067C266.149 52.9141 266.148 52.3215 266.148 51.7289C266.146 51.4503 266.143 51.1717 266.141 50.8847C266.151 48.3024 266.151 48.3024 266.903 47.3905C268.149 46.785 269.157 46.6269 270.535 46.6205ZM269.613 48.7445C269.613 48.9679 269.613 49.1913 269.613 49.4215C269.947 49.6043 270.281 49.7872 270.625 49.9756C271.573 50.516 272.467 51.0991 273.354 51.7342C273.584 51.8994 273.815 52.0645 274.053 52.2347C274.528 52.5778 275.002 52.9234 275.474 53.2713C275.818 53.5158 275.818 53.5158 276.169 53.7652C276.374 53.9144 276.579 54.0635 276.79 54.2172C277.391 54.5555 277.391 54.5555 278.059 54.4372C278.9 54.1046 279.594 53.6765 280.349 53.1768C280.647 52.9809 280.945 52.785 281.252 52.5831C281.561 52.3776 281.87 52.1721 282.188 51.9603C282.802 51.5545 283.417 51.149 284.032 50.7438C284.304 50.5634 284.575 50.3829 284.855 50.197C285.533 49.76 285.533 49.76 286.21 49.4215C286.042 49.0864 286.042 49.0864 285.871 48.7445C280.506 48.7445 275.141 48.7445 269.613 48.7445ZM285.427 51.7699C285.061 52.0481 284.695 52.3258 284.329 52.6029C284.138 52.7473 283.947 52.8916 283.751 53.0403C282.779 53.7712 281.801 54.4903 280.812 55.1973C280.459 55.4525 280.107 55.7078 279.744 55.9708C278.673 56.5784 278.262 56.7809 277.065 56.5301C276.267 56.0411 275.557 55.5541 274.821 54.9857C272.804 53.461 270.747 52.1429 268.597 50.7755C268.597 54.4619 268.597 58.1482 268.597 61.9462C271.062 61.9533 273.527 61.9601 275.992 61.9637C277.14 61.9655 278.288 61.9679 279.435 61.9717C280.751 61.9761 282.067 61.9778 283.383 61.9793C284.002 61.9819 284.002 61.9819 284.634 61.9845C285.014 61.9846 285.394 61.9846 285.785 61.9846C286.121 61.9854 286.458 61.9861 286.804 61.9869C287.555 62.0317 287.555 62.0317 287.903 61.6077C287.933 60.7789 287.943 59.9598 287.937 59.1311C287.936 58.8836 287.936 58.6361 287.935 58.3812C287.933 57.5878 287.929 56.7945 287.925 56.0012C287.923 55.4646 287.921 54.9279 287.92 54.3913C287.916 53.0732 287.91 51.7551 287.903 50.437C286.826 50.437 286.265 51.1204 285.427 51.7699Z" fill="black"/>
<path d="M88.1292 56.3181C88.3317 56.3879 88.5343 56.4577 88.7431 56.5296C88.8548 57.1999 88.9666 57.8701 89.0818 58.5606C88.0657 59.2377 88.0657 59.2377 87.3459 59.1319C86.7108 58.8992 86.7108 58.8992 86.3721 58.5606C86.2874 57.7355 86.2874 57.7355 86.3721 56.8681C87.3882 56.1911 87.3882 56.1911 88.1292 56.3181Z" fill="black"/>
<path d="M50.8023 78.1943C51.7126 78.4905 51.7126 78.4905 52.4958 78.8713C52.5382 79.6753 52.5382 79.6753 52.4958 80.5639C52.2723 80.7873 52.0487 81.0107 51.8184 81.2409C50.2754 81.0528 50.2754 81.0528 49.7862 80.5639C49.7015 79.7388 49.7015 79.7388 49.7862 78.8713C50.1215 78.6479 50.4568 78.4245 50.8023 78.1943Z" fill="black"/>
<path d="M307.401 101.827C308.226 101.891 308.226 101.891 308.565 102.229C308.629 103.054 308.629 103.054 308.565 103.922C308.342 104.145 308.118 104.368 307.888 104.599C306.999 104.472 306.999 104.472 306.194 104.26C305.982 103.456 305.982 103.456 305.855 102.568C306.533 101.891 306.533 101.891 307.401 101.827Z" fill="black"/>
<path d="M29.6163 116.361C30.0459 116.403 30.0459 116.403 30.4842 116.446C31.1617 117.461 31.1617 117.461 31.1193 118.16C30.7353 119.009 30.3196 119.163 29.4681 119.492C29.021 119.157 28.5739 118.822 28.1133 118.477C28.4722 116.479 28.4722 116.479 29.6163 116.361Z" fill="black"/>
<path d="M319.061 137.432C319.273 138.236 319.273 138.236 319.4 139.124C318.723 139.801 318.723 139.801 317.855 139.865C317.029 139.801 317.029 139.801 316.69 139.463C316.676 138.786 316.676 138.109 316.69 137.432C317.593 136.981 318.102 137.205 319.061 137.432Z" fill="black"/>
<path d="M217.108 179.069C217.32 179.873 217.32 179.873 217.447 180.761C216.769 181.438 216.769 181.438 215.88 181.481C215.615 181.467 215.349 181.453 215.076 181.438C214.716 180.825 214.716 180.825 214.398 180.084C214.51 179.749 214.622 179.414 214.737 179.069C215.64 178.617 216.148 178.842 217.108 179.069Z" fill="black"/>
<path d="M113.802 192.61C114.713 192.907 114.713 192.907 115.496 193.287C115.538 194.091 115.538 194.091 115.496 194.98C115.272 195.203 115.049 195.427 114.818 195.657C113.275 195.469 113.275 195.469 112.786 194.98C112.701 194.155 112.701 194.155 112.786 193.287C113.121 193.064 113.457 192.841 113.802 192.61Z" fill="black"/>
<path d="M299.422 201.706C300.438 201.748 300.438 201.748 300.777 202.087C300.84 202.912 300.84 202.912 300.777 203.779C300.553 204.003 300.329 204.226 300.099 204.456C298.556 204.268 298.556 204.268 298.067 203.779C298.025 202.933 298.025 202.933 298.067 202.087C298.406 201.748 298.406 201.748 299.422 201.706Z" fill="black"/>
</g>
<defs>
<clipPath id="clip0_250_94">
<rect width="336" height="240" fill="white"/>
</clipPath>
</defs>
</svg>
