<svg width="306" height="280" viewBox="0 0 306 280" fill="none" xmlns="http://www.w3.org/2000/svg">
<path d="M255.562 3.28087C258.922 5.81029 260.841 9.16766 261.515 13.32C261.954 18.0312 260.933 22.7412 257.903 26.4637C256.066 28.4669 253.942 29.9062 251.681 31.3927C249.201 33.0546 247.602 34.5704 246.887 37.5502C246.772 38.1329 246.666 38.7174 246.57 39.3035C246.439 39.9669 246.439 39.9669 246.109 40.2979C245.523 40.3308 244.937 40.3412 244.351 40.3418C243.995 40.3423 243.639 40.3427 243.273 40.3431C242.898 40.3419 242.524 40.3406 242.138 40.3393C241.764 40.3405 241.389 40.3418 241.003 40.3431C240.647 40.3427 240.292 40.3423 239.925 40.3418C239.596 40.3415 239.268 40.3411 238.929 40.3407C238.167 40.2979 238.167 40.2979 237.837 39.9669C237.355 36.2705 238.636 32.7953 240.79 29.8424C242.752 27.5577 244.962 25.784 247.386 24.014C249.466 22.464 251.432 20.7544 252.064 18.1197C252.342 15.6665 252.259 13.5203 250.741 11.4994C249.07 9.66291 247.282 9.15484 244.868 9.03746C242.771 9.0843 241.163 9.54949 239.491 10.8374C238.685 11.7642 238.081 12.7341 237.506 13.8165C237.394 14.0256 237.281 14.2347 237.166 14.4501C236.937 14.8953 236.723 15.3481 236.513 15.8026C234.513 15.4619 232.521 15.0848 230.537 14.6648C230.178 14.5901 229.819 14.5154 229.45 14.4385C228.572 14.1475 228.572 14.1475 227.91 13.1545C228.723 9.08415 231.334 5.43196 234.62 2.9964C240.939 -1.10209 249.38 -0.98553 255.562 3.28087Z" fill="black"/>
<path d="M150.489 29.7046C151.275 30.2011 151.275 30.2011 151.812 30.6976C151.703 31.0254 151.594 31.3531 151.482 31.6907C151.293 31.683 151.105 31.6753 150.912 31.6674C149.19 31.6272 147.818 31.7975 146.188 32.3527C146.188 31.9158 146.188 31.4788 146.188 31.0287C147.489 29.8167 148.743 29.562 150.489 29.7046Z" fill="black"/>
<path d="M165.704 30.3665C166.366 31.0285 166.366 31.0285 166.366 32.3526C164.401 32.1341 162.435 31.9156 160.41 31.6906C160.519 31.2536 160.629 30.8167 160.741 30.3665C162.675 29.6411 163.743 29.7012 165.704 30.3665Z" fill="black"/>
<path d="M149.16 34.0078C150.773 34.2975 150.773 34.2975 151.145 34.6698C151.293 36.0684 151.369 37.2665 150.649 38.4972C150.485 38.6543 150.321 38.8113 150.153 38.9731C148.87 38.6834 148.87 38.6834 148.498 38.311C148.457 37.7743 148.44 37.2356 148.436 36.6973C148.431 36.4046 148.427 36.1119 148.422 35.8103C148.498 35.0009 148.498 35.0009 149.16 34.0078Z" fill="black"/>
<path d="M162.064 34.3389C162.746 34.4837 162.746 34.4837 163.387 34.6699C163.66 35.9341 163.814 36.7362 163.346 37.9594C162.726 38.6421 162.726 38.6421 161.836 38.7455C161.584 38.7114 161.331 38.6773 161.071 38.6421C160.624 36.5681 160.624 36.5681 161.195 35.3733C161.733 34.6699 161.733 34.6699 162.064 34.3389Z" fill="black"/>
<path d="M156.439 35.332C157.098 35.3708 157.098 35.3708 157.763 35.663C159.178 37.8199 159.993 40.7235 159.748 43.2764C159.234 44.0875 158.85 44.2354 157.949 44.5591C157.101 44.6005 157.101 44.6005 156.336 44.1247C156.151 43.954 155.967 43.7833 155.777 43.6075C155.887 43.0613 155.996 42.5151 156.108 41.9524C156.545 41.9524 156.982 41.9524 157.432 41.9524C157.34 41.6887 157.248 41.425 157.154 41.1533C157.034 40.8025 156.914 40.4518 156.791 40.0904C156.612 39.572 156.612 39.572 156.43 39.043C156.119 38.0161 155.874 37.0632 155.777 35.9941C155.996 35.7756 156.214 35.5571 156.439 35.332Z" fill="black"/>
<path d="M243.793 46.2562C245.401 47.031 246.282 47.9866 247.102 49.5664C247.526 50.9938 247.495 51.9981 247.081 53.4352C246.244 54.8657 245.295 55.7664 243.793 56.5177C242.163 56.6966 240.858 56.6979 239.367 55.9798C238.142 54.8711 237.295 54.0305 237.048 52.3399C236.987 50.834 237.063 49.8032 237.713 48.4285C239.559 46.4362 241.119 45.8293 243.793 46.2562Z" fill="black"/>
<path d="M156.793 47.7663C157.765 48.5732 157.765 48.5732 158.117 49.7731C158.096 50.8903 158.096 50.8903 157.434 51.5523C156.773 51.511 156.773 51.511 156.111 51.2213C155.697 50.5386 155.697 50.5386 155.449 49.8972C153.273 49.7747 153.273 49.7747 151.479 50.8903C150.734 50.7869 150.734 50.7869 150.155 50.5593C149.907 49.8145 149.907 49.8145 149.824 48.9042C151.461 46.7995 154.47 46.6403 156.793 47.7663Z" fill="black"/>
<path d="M222.68 66.5725C222.878 66.6407 223.076 66.709 223.28 66.7794C223.487 67.731 223.487 67.731 223.611 68.7655C222.949 69.4275 222.949 69.4275 222.122 69.5102C221.295 69.4275 221.295 69.4275 220.633 68.7655C220.695 67.9379 220.695 67.9379 220.964 67.1104C221.956 66.4483 221.956 66.4483 222.68 66.5725Z" fill="black"/>
<path d="M148.543 7.96046C149.494 8.18804 149.494 8.18804 149.825 8.51906C150.523 8.55683 151.222 8.59232 151.921 8.61498C157.052 8.7831 161.119 9.86722 164.773 13.7222C166.207 15.5162 167.335 17.49 167.692 19.7736C167.962 19.7822 168.231 19.7907 168.508 19.7995C172.615 20.0028 177.922 20.4456 181.159 23.2377C181.589 23.7458 181.589 23.7458 181.569 24.5734C181.196 25.5674 180.84 25.8615 179.935 26.394C179.039 26.6927 178.533 26.7642 177.615 26.7573C177.239 26.7557 177.239 26.7557 176.856 26.7541C176.466 26.7499 176.466 26.7499 176.068 26.7457C175.672 26.7434 175.672 26.7434 175.269 26.7412C174.618 26.7373 173.968 26.7313 173.317 26.725C173.285 26.917 173.253 27.109 173.219 27.3069C172.859 29.1891 172.389 30.6332 171.001 32.0213C170.965 32.6614 170.95 33.3028 170.943 33.944C170.82 41.0582 170.56 48.7948 165.707 54.5304C165.058 55.0976 164.389 55.6383 163.722 56.1855C164.035 56.1903 164.348 56.1952 164.671 56.2001C165.86 56.2197 167.049 56.2452 168.238 56.2724C168.747 56.2832 169.257 56.2925 169.766 56.3002C176.118 56.3978 182.28 57.0931 187.214 61.4818C187.406 61.6392 187.598 61.7967 187.796 61.9589C194.467 67.9029 196.933 78.6791 199.715 86.8303C200.113 87.9918 200.517 89.149 200.945 90.2995C201.097 90.7092 201.249 91.1189 201.405 91.541C201.54 91.8983 201.675 92.2556 201.814 92.6238C202.095 93.5585 202.165 94.2774 202.104 95.2455C199.912 96.2385 199.912 96.2385 198.795 96.2385C199.091 97.7452 199.391 99.2509 199.694 100.756C199.796 101.266 199.897 101.775 199.997 102.285C200.885 106.807 201.82 111.49 204.11 115.541C204.236 115.77 204.361 116 204.49 116.236C205.939 118.84 207.547 121.346 209.162 123.848C209.755 124.769 210.342 125.693 210.928 126.618C212.368 128.894 212.368 128.894 213.817 131.164C214.175 131.721 214.529 132.281 214.88 132.843C215.051 133.111 215.222 133.378 215.397 133.654C215.547 133.892 215.697 134.13 215.852 134.376C216.691 135.409 217.731 135.643 218.979 135.961C219.532 136.144 220.083 136.33 220.633 136.519C221.074 136.664 221.516 136.809 221.957 136.954C223.49 134.808 224.93 132.628 226.3 130.375C228.269 127.164 230.305 124.002 232.367 120.851C233.161 119.636 233.949 118.416 234.737 117.196C235.037 116.733 235.336 116.269 235.635 115.806C235.855 115.467 235.855 115.467 236.079 115.12C236.507 114.458 236.936 113.796 237.365 113.135C239.174 110.344 240.97 107.545 242.761 104.742C244.534 101.966 246.319 99.1982 248.117 96.4388C249.569 94.2072 251.006 91.9655 252.439 89.7217C254.511 86.4804 256.583 83.2401 258.685 80.0187C258.857 79.7533 259.03 79.4879 259.208 79.2144C259.748 78.3846 260.291 77.5567 260.835 76.7292C261.003 76.4722 261.17 76.2151 261.342 75.9503C261.499 75.7128 261.656 75.4753 261.818 75.2306C261.956 75.0203 262.094 74.8099 262.236 74.5932C262.655 74.0604 262.655 74.0604 263.648 73.3984C264.604 73.3143 264.604 73.3143 265.785 73.3127C266 73.3116 266.216 73.3104 266.438 73.3092C267.149 73.3063 267.86 73.3082 268.571 73.3105C269.065 73.31 269.559 73.3094 270.053 73.3085C271.088 73.3076 272.123 73.309 273.158 73.3121C274.486 73.3158 275.814 73.3137 277.143 73.3097C278.162 73.3073 279.182 73.3081 280.202 73.3098C280.692 73.3102 281.182 73.3097 281.672 73.3081C282.355 73.3065 283.039 73.309 283.722 73.3127C284.112 73.3132 284.501 73.3138 284.902 73.3143C285.817 73.3984 285.817 73.3984 286.479 74.0604C286.546 74.8808 286.572 75.6646 286.569 76.4855C286.57 76.7384 286.572 76.9913 286.574 77.2518C286.579 78.1037 286.579 78.9554 286.579 79.8073C286.581 80.4162 286.584 81.025 286.587 81.6339C286.593 82.9472 286.597 84.2605 286.6 85.5738C286.604 87.6487 286.612 89.7235 286.621 91.7983C286.635 95.0788 286.646 98.3594 286.655 101.64C286.672 107.517 286.692 113.395 286.716 119.272C286.725 121.336 286.731 123.401 286.736 125.465C286.739 126.747 286.744 128.029 286.749 129.312C286.751 129.908 286.753 130.505 286.753 131.101C286.755 131.913 286.758 132.724 286.762 133.535C286.762 133.774 286.761 134.012 286.761 134.258C286.753 135.481 286.753 135.481 287.14 136.623C287.479 136.631 287.819 136.639 288.168 136.648C289.422 136.679 290.675 136.712 291.929 136.746C292.472 136.76 293.016 136.774 293.559 136.787C294.338 136.806 295.118 136.827 295.897 136.849C296.142 136.854 296.386 136.86 296.638 136.866C298.353 136.916 298.353 136.916 298.721 137.285C298.754 137.771 298.764 138.258 298.764 138.745C298.766 139.211 298.766 139.211 298.767 139.686C298.767 140.023 298.766 140.361 298.765 140.709C298.766 141.053 298.766 141.397 298.766 141.751C298.766 142.48 298.766 143.209 298.764 143.938C298.763 145.059 298.764 146.179 298.766 147.299C298.766 148.006 298.766 148.712 298.765 149.418C298.766 149.756 298.767 150.094 298.767 150.441C298.766 150.752 298.765 151.062 298.764 151.382C298.764 151.794 298.764 151.794 298.763 152.214C298.721 152.842 298.721 152.842 298.39 153.173C297.533 153.226 296.683 153.259 295.825 153.278C295.44 153.289 295.44 153.289 295.047 153.299C294.225 153.321 293.402 153.34 292.579 153.36C292.023 153.374 291.466 153.388 290.91 153.403C289.543 153.438 288.176 153.472 286.81 153.504C286.811 153.742 286.812 153.98 286.814 154.224C286.827 156.465 286.837 158.705 286.844 160.946C286.847 162.097 286.852 163.249 286.859 164.401C286.868 165.725 286.871 167.05 286.874 168.374C286.878 168.788 286.881 169.201 286.885 169.626C286.885 170.203 286.885 170.203 286.885 170.791C286.886 171.129 286.888 171.467 286.889 171.815C286.808 172.717 286.61 173.258 286.148 174.028C283.615 174.036 281.083 174.042 278.55 174.046C277.688 174.047 276.826 174.05 275.964 174.053C274.727 174.057 273.49 174.058 272.253 174.06C271.866 174.062 271.479 174.063 271.079 174.065C270.722 174.065 270.364 174.065 269.996 174.065C269.522 174.066 269.522 174.066 269.038 174.067C268.28 174.028 268.28 174.028 267.618 173.697C267.274 172.662 267.236 171.914 267.22 170.828C267.213 170.439 267.206 170.049 267.199 169.647C267.194 169.238 267.189 168.829 267.183 168.407C267.177 168.03 267.171 167.654 267.164 167.266C267.142 165.858 267.122 164.45 267.101 163.042C267.054 159.895 267.006 156.747 266.957 153.504C254.291 153.504 241.624 153.504 228.575 153.504C229.666 155.252 230.758 157 231.883 158.801C233.068 161.962 233.068 161.962 232.545 163.435C231.821 164.387 231.821 164.387 230.891 165.09C229.795 165.194 229.795 165.194 228.905 165.09C228.817 165.35 228.728 165.609 228.637 165.876C228.244 166.745 228.244 166.745 227.251 167.407C225.366 167.562 224.278 167.41 222.619 166.414C222.455 166.578 222.291 166.742 222.122 166.911C220.921 167.632 219.985 167.694 218.648 167.407C212.216 164.859 207.62 158.962 204.751 152.842C203.939 150.876 203.184 148.844 202.992 146.717C202.696 145.201 202.067 144.444 201.111 143.243C201.032 143.504 200.953 143.765 200.871 144.034C197.895 153.684 193.967 162.067 186.884 169.393C186.628 169.663 186.372 169.932 186.108 170.209C185.866 170.459 185.624 170.708 185.374 170.966C185.153 171.194 184.931 171.422 184.703 171.657C183.906 172.372 183.906 172.372 183.039 172.827C181.927 173.449 181.326 173.966 180.597 175.021C180.036 177.431 180.414 180.04 180.577 182.481C180.616 183.255 180.654 184.028 180.689 184.802C180.77 186.472 180.861 188.141 180.96 189.81C181.117 192.459 181.251 195.11 181.381 197.761C181.426 198.675 181.471 199.59 181.516 200.505C181.527 200.734 181.539 200.964 181.55 201.2C181.632 202.857 181.718 204.514 181.804 206.171C182.322 216.097 182.703 226.028 183.065 235.962C183.156 238.448 183.249 240.933 183.345 243.419C183.418 245.3 183.489 247.18 183.56 249.06C183.601 250.15 183.642 251.24 183.685 252.33C183.731 253.513 183.774 254.697 183.818 255.881C183.832 256.229 183.846 256.578 183.86 256.937C183.871 257.253 183.882 257.57 183.894 257.896C183.904 258.17 183.914 258.444 183.925 258.727C183.906 259.43 183.906 259.43 183.575 260.423C182.779 260.821 182.268 260.787 181.383 260.775C181.112 260.772 180.842 260.769 180.563 260.766C180.252 260.76 180.252 260.76 179.935 260.754C181.634 263.858 184.982 265.175 188.062 266.63C188.419 266.8 188.776 266.971 189.144 267.146C191.982 268.487 194.861 269.715 197.784 270.859C202.856 272.887 202.856 272.887 203.781 274.679C204.627 275.526 205.315 275.475 206.476 275.483C206.757 275.479 207.038 275.474 207.327 275.469C207.624 275.469 207.921 275.469 208.227 275.47C209.211 275.469 210.193 275.458 211.176 275.448C211.857 275.446 212.538 275.444 213.219 275.442C215.013 275.437 216.806 275.424 218.6 275.41C220.429 275.396 222.259 275.39 224.089 275.383C227.68 275.369 231.271 275.347 234.861 275.319C234.973 274.98 235.084 274.641 235.199 274.291C235.348 273.841 235.497 273.391 235.646 272.941C235.719 272.718 235.792 272.495 235.867 272.266C236.441 270.534 237.092 268.873 237.881 267.229C238.005 266.968 238.129 266.707 238.257 266.438C239.501 263.91 241.04 261.623 242.704 259.354C243.408 258.393 244.096 257.421 244.788 256.451C245.334 256.56 245.88 256.669 246.442 256.782C246.527 261.577 246.364 266.254 245.78 271.016C245.957 270.687 246.134 270.358 246.315 270.02C248.762 265.532 251.489 261.467 255.045 257.775C255.203 257.608 255.361 257.441 255.524 257.269C258.321 254.33 261.257 251.756 264.641 249.499C265.53 249.624 265.53 249.624 266.295 249.83C266.125 251.688 265.404 253.011 264.516 254.609C263.187 257.068 261.933 259.553 260.732 262.078C260.585 262.386 260.439 262.694 260.288 263.011C259.289 265.117 258.32 267.236 257.361 269.36C257.498 269.218 257.635 269.075 257.775 268.928C261.498 265.117 265.729 262.23 270.596 260.092C270.9 259.958 271.203 259.823 271.515 259.685C272.427 259.369 272.99 259.499 273.905 259.761C273.774 261.418 272.899 262.3 271.817 263.464C269.345 266.223 266.965 269.345 265.302 272.671C265.669 272.463 266.036 272.256 266.414 272.042C266.898 271.769 267.382 271.496 267.867 271.222C268.108 271.086 268.349 270.949 268.598 270.809C268.833 270.676 269.067 270.544 269.309 270.408C269.524 270.286 269.739 270.165 269.96 270.04C271.261 269.327 272.06 268.945 273.574 269.029C273.905 270.353 273.905 270.353 271.258 275.65C279.884 275.65 288.51 275.65 297.398 275.65C297.507 276.196 297.616 276.742 297.729 277.305C297.398 277.636 297.398 277.636 296.763 277.677C296.481 277.677 296.2 277.677 295.91 277.677C295.587 277.677 295.263 277.678 294.93 277.679C294.391 277.677 294.391 277.677 293.841 277.676C293.462 277.676 293.083 277.676 292.693 277.677C291.638 277.677 290.582 277.676 289.527 277.674C288.39 277.673 287.254 277.673 286.117 277.674C284.146 277.674 282.176 277.673 280.205 277.671C277.356 277.668 274.506 277.667 271.657 277.667C267.035 277.666 262.412 277.664 257.79 277.661C253.299 277.658 248.807 277.655 244.316 277.654C244.039 277.654 243.763 277.654 243.478 277.654C242.09 277.653 240.702 277.653 239.314 277.653C227.793 277.649 216.272 277.643 204.751 277.636C204.751 278.073 204.751 278.51 204.751 278.96C203.367 279.63 202.128 279.718 200.618 279.713C200.373 279.715 200.128 279.716 199.876 279.718C199.065 279.723 198.254 279.722 197.442 279.722C196.866 279.723 196.29 279.724 195.715 279.726C194.5 279.728 193.285 279.728 192.07 279.726C190.852 279.725 189.633 279.727 188.414 279.733C179.335 279.779 170.059 279.797 161.075 278.298C160.966 278.189 160.856 278.079 160.744 277.967C159.818 277.932 158.9 277.918 157.974 277.919C157.683 277.918 157.393 277.917 157.093 277.915C156.127 277.912 155.161 277.912 154.195 277.911C153.525 277.91 152.855 277.909 152.185 277.908C150.778 277.906 149.371 277.905 147.964 277.906C146.162 277.906 144.359 277.901 142.557 277.895C141.172 277.892 139.788 277.891 138.403 277.891C137.738 277.891 137.074 277.889 136.41 277.887C135.479 277.884 134.549 277.884 133.618 277.886C133.207 277.884 133.207 277.884 132.788 277.881C131.271 277.889 130.081 278.07 128.649 278.629C127.367 278.862 126.075 278.997 124.781 279.146C124.449 279.188 124.116 279.229 123.773 279.272C118.645 279.88 113.497 280.009 108.339 279.996C107.507 279.994 106.675 279.996 105.844 279.998C99.0789 280.002 99.0789 280.002 96.884 279.622C96.6656 279.403 96.4473 279.185 96.2223 278.96C96.2223 278.523 96.2223 278.086 96.2223 277.636C66.4132 277.636 36.6042 277.636 5.89185 277.636C5.72806 276.817 5.72806 276.817 5.56096 275.981C6.20739 275.334 7.19352 275.61 8.05382 275.609C8.36512 275.61 8.67643 275.611 8.99716 275.612C9.48617 275.612 9.48617 275.612 9.98505 275.612C11.0682 275.612 12.1514 275.615 13.2346 275.617C13.9833 275.618 14.7321 275.618 15.4809 275.619C17.4561 275.62 19.4312 275.623 21.4063 275.627C23.4201 275.63 25.4338 275.632 27.4476 275.634C31.402 275.637 35.3564 275.643 39.3108 275.65C39.3099 275.368 39.3091 275.086 39.3082 274.795C39.3053 273.732 39.3033 272.668 39.3017 271.605C39.3009 271.148 39.2998 270.691 39.2983 270.234C39.2875 266.73 39.3767 263.254 39.6417 259.761C38.4398 260.409 37.2404 261.062 36.0429 261.719C35.6373 261.94 35.2312 262.161 34.8244 262.38C31.5041 264.171 28.1659 266.088 25.5999 268.905C24.752 269.691 24.752 269.691 23.9198 269.661C23.0976 269.36 23.0976 269.36 22.6575 268.764C22.496 268.377 22.496 268.377 22.3312 267.982C22.2087 267.695 22.0863 267.408 21.9602 267.112C21.7759 266.648 21.7759 266.648 21.588 266.174C21.459 265.859 21.33 265.544 21.1971 265.219C18.9625 259.637 17.7321 254.462 20.1184 248.704C21.5169 245.872 23.8629 243.797 26.8446 242.754C29.1188 242.226 31.5855 242.225 33.7582 243.147C34.4838 243.632 34.9122 244.195 35.4436 244.886C36.3953 246.089 37.0762 246.409 38.587 246.665C39.1591 246.727 39.7312 246.79 40.3034 246.851C40.5218 246.96 40.7402 247.07 40.9652 247.182C41.2358 243.571 41.3471 239.962 41.3788 236.341C41.3858 235.946 41.3929 235.551 41.4001 235.144C41.4165 230.89 40.602 227.133 38.649 223.349C38.5804 223.581 38.5117 223.813 38.4409 224.052C37.2733 227.65 35.0815 230.227 31.6954 231.967C28.0222 233.43 23.9993 232.763 20.4506 231.293C17.7845 230.045 15.33 228.569 12.9024 226.907C10.475 225.27 8.47238 224.035 5.4679 223.862C5.15126 223.844 4.83462 223.826 4.50838 223.807C3.09486 223.743 1.68163 223.703 0.266874 223.68C-0.127822 222.533 -0.0764886 222.057 0.366397 220.905C0.581447 220.489 0.803776 220.076 1.03204 219.666C1.15245 219.448 1.27286 219.229 1.39693 219.004C4.76818 213.12 10.7283 209.329 17.1581 207.508C23.7121 205.758 31.2059 205.622 37.3875 208.722C39.2901 209.875 40.6393 211.059 41.3168 213.212C41.2831 215.167 40.8227 216.787 39.5383 218.28C38.8684 219.013 38.8684 219.013 39.104 219.956C39.5529 220.854 40.0213 221.6 40.593 222.418C41.7288 224.05 42.3516 225.767 42.9505 227.652C43.3295 226.01 43.674 224.369 43.969 222.709C45.1647 216.014 46.4825 209.845 50.8916 204.481C50.7521 204.258 50.6127 204.034 50.469 203.804C50.2877 203.508 50.1064 203.213 49.9197 202.909C49.7392 202.617 49.5588 202.325 49.3729 202.024C48.5523 200.523 48.4577 199.238 48.5755 197.53C49.208 195.706 50.2744 194.567 51.8843 193.558C58.6319 190.299 67.0459 190.636 74.0533 192.895C77.3768 194.062 80.2666 195.599 82.987 197.861C83.2724 198.096 83.5577 198.332 83.8517 198.575C85.7206 200.186 87.7409 201.969 88.9429 204.15C88.9494 205.035 88.9494 205.035 88.612 205.805C87.1698 206.638 85.5213 206.688 83.8944 206.878C80.4188 207.582 77.5798 209.209 74.5909 211.06C68.8906 214.576 63.0893 217.951 56.1844 216.523C54.135 215.819 52.6402 214.641 51.5534 212.757C51.1048 211.449 50.7988 210.145 50.5607 208.784C46.2486 216.617 45.5149 226.505 44.6049 235.266C44.7141 235.156 44.8233 235.047 44.9358 234.935C45.2987 234.608 45.6645 234.284 46.0318 233.962C46.2284 233.789 46.4251 233.615 46.6277 233.436C47.9263 232.422 48.827 232.206 50.478 232.245C50.8039 232.251 51.1297 232.257 51.4655 232.263C51.8366 232.275 51.8366 232.275 52.2151 232.287C52.2424 231.904 52.2697 231.522 52.2979 231.128C52.6139 228.71 53.6283 226.918 55.555 225.419C57.7278 223.989 59.9069 223.713 62.4724 224.011C68.2304 225.21 72.5025 229.682 75.6534 234.421C79.8969 241.229 82.0518 248.672 82.0564 256.678C82.0605 257.047 82.0645 257.416 82.0687 257.796C82.0694 258.152 82.07 258.508 82.0707 258.875C82.072 259.196 82.0734 259.518 82.0748 259.848C81.9874 260.833 81.7963 261.536 81.3326 262.409C80.34 262.74 80.34 262.74 79.633 262.443C79.3545 262.281 79.076 262.12 78.789 261.954C78.306 261.679 78.306 261.679 77.8132 261.399C77.4459 261.186 77.0787 260.973 76.7003 260.754C70.4704 257.176 64.6922 254.763 57.5722 253.623C55.3187 253.252 53.3195 252.734 51.2225 251.817C47.5851 258.757 46.5329 266.631 46.0057 274.354C45.9284 274.988 45.9284 274.988 45.5975 275.65C52.0459 275.622 58.4943 275.59 64.9426 275.555C67.9366 275.538 70.9306 275.523 73.9247 275.51C76.5339 275.499 79.1432 275.486 81.7524 275.47C83.1343 275.462 84.5161 275.454 85.898 275.45C87.1984 275.446 88.4987 275.438 89.799 275.429C90.2765 275.426 90.754 275.424 91.2316 275.423C91.8831 275.422 92.5347 275.417 93.1862 275.411C93.551 275.409 93.9158 275.407 94.2917 275.405C95.4857 275.295 96.2175 275.017 97.0353 274.139C97.1833 273.945 97.3313 273.752 97.4837 273.552C98.4792 272.348 99.5156 271.594 100.855 270.809C101.187 270.607 101.187 270.607 101.526 270.401C102.93 269.552 104.348 268.726 105.762 267.895C106.254 267.606 106.254 267.606 106.756 267.311C107.404 266.931 108.054 266.552 108.705 266.176C109.152 265.914 109.152 265.914 109.609 265.648C109.875 265.494 110.141 265.34 110.415 265.181C111.695 264.345 112.219 263.641 112.663 262.181C112.746 261.914 112.829 261.646 112.915 261.371C112.975 261.167 113.035 260.964 113.097 260.754C112.786 260.765 112.786 260.765 112.469 260.777C112.063 260.786 112.063 260.786 111.65 260.795C111.381 260.803 111.112 260.811 110.835 260.819C110.119 260.754 110.119 260.754 109.457 260.092C109.44 259.065 109.468 258.075 109.528 257.051C109.545 256.718 109.562 256.385 109.58 256.042C109.859 250.854 110.225 245.67 110.58 240.486C110.687 238.922 110.793 237.359 110.899 235.795C111.078 233.16 111.257 230.525 111.437 227.89C111.664 224.571 111.889 221.252 112.114 217.932C113.594 196.12 113.594 196.12 114.182 187.975C114.198 187.752 114.214 187.528 114.231 187.298C114.391 185.081 114.552 182.865 114.716 180.649C114.766 179.97 114.815 179.29 114.865 178.611C114.887 178.315 114.91 178.018 114.933 177.713C115.34 174.761 115.34 174.761 114.643 172.078C114.433 171.929 114.223 171.781 114.007 171.628C103.286 163.206 98.2313 149.732 96.4565 136.567C96.1792 134.195 96.1607 131.821 96.161 129.436C96.1602 128.745 96.1542 128.054 96.1479 127.364C96.1366 124.551 96.3595 121.849 96.884 119.079C96.5701 119.072 96.2562 119.065 95.9327 119.058C93.3322 118.679 91.07 116.504 89.4676 114.532C86.729 110.618 85.5116 105.898 84.7961 101.233C84.754 100.962 84.7119 100.69 84.6685 100.411C84.2394 97.5559 83.9664 94.693 83.7186 91.8177C83.6691 91.2604 83.6193 90.7032 83.5694 90.1461C83.4664 88.9905 83.3648 87.8347 83.2643 86.6789C83.1369 85.2133 83.0069 83.748 82.8761 82.2827C82.7493 80.8613 82.6239 79.4399 82.4985 78.0184C82.4752 77.7561 82.452 77.4939 82.428 77.2237C82.3609 76.4645 82.2946 75.7052 82.2288 74.9459C82.1973 74.5861 82.1973 74.5861 82.1651 74.219C82.0618 73.0044 81.9758 71.7915 81.9165 70.5739C81.9043 70.3323 81.892 70.0908 81.8793 69.8419C81.8474 69.1804 81.82 68.5187 81.7929 67.8569C81.6357 66.5457 81.3192 65.8427 80.3581 64.9549C79.1803 64.0991 77.9752 63.2932 76.7507 62.5059C71.7302 59.1699 66.3822 54.2991 64.7886 48.2411C64.6186 46.808 64.6277 46.1849 65.3883 44.9516C66.1121 44.2689 66.1121 44.2689 67.1048 44.2689C67.0775 43.9207 67.0502 43.5725 67.0221 43.2138C67.1188 41.7384 67.3526 41.2878 68.4283 40.2967C69.0858 40.0637 69.7478 39.8428 70.4136 39.6347C70.6251 39.4094 70.8367 39.1841 71.0547 38.9519C71.7371 38.3106 71.7371 38.3106 72.8125 37.9382C75.1871 38.0174 76.4905 39.7365 78.0666 41.3761C80.9256 44.3427 84.1683 46.5676 87.9502 48.2411C88.1686 48.2411 88.387 48.2411 88.612 48.2411C88.5804 48.0452 88.5489 47.8494 88.5164 47.6476C88.1335 44.9178 88.1335 44.9178 88.9429 43.6069C89.5426 42.9862 89.5426 42.9862 90.2664 42.6138C91.9417 42.7806 92.5519 43.397 93.5856 44.6555C97.0587 49.6536 98.9478 54.7121 98.0563 60.8715C97.9447 61.4562 97.8244 62.0395 97.6905 62.6196C97.299 64.9137 97.7367 66.9198 98.2903 69.1365C98.3646 69.4415 98.4389 69.7465 98.5154 70.0607C99.0982 72.4161 99.7591 74.7361 100.524 77.0396C100.617 76.855 100.71 76.6704 100.805 76.4802C105.077 68.0419 109.669 59.9449 119.053 56.5165C124.547 54.9036 130.111 55.459 135.731 56.0079C136.086 56.0401 136.44 56.0722 136.806 56.1053C137.123 56.1365 137.44 56.1677 137.767 56.1999C138.662 56.2567 138.662 56.2567 139.568 55.5235C139.996 53.118 139.502 50.9667 138.571 48.7531C138.261 47.9542 138.132 47.2644 138.017 46.4205C137.731 45.2431 137.731 45.2431 136.974 44.9839C136.455 44.8483 135.936 44.7157 135.416 44.5857C133.483 43.8311 132.316 41.8955 131.296 40.1726C130.703 38.0219 130.574 35.9177 131.544 33.8625C132.11 32.8839 132.722 32.0716 133.612 31.3592C133.83 31.3592 134.049 31.3592 134.274 31.3592C134.267 31.1328 134.26 30.9064 134.253 30.6731C134.077 24.0537 134.276 18.6612 139.009 13.5464C140.662 12.0006 142.644 10.6644 144.862 10.1328C145.888 9.95289 145.888 9.95289 146.268 9.18109C146.391 8.85338 146.391 8.85338 146.516 8.51906C147.509 7.85702 147.509 7.85702 148.543 7.96046ZM139.568 16.1324C137.012 19.2929 136.19 23.4183 136.259 27.387C136.587 27.2189 136.916 27.0508 137.254 26.8776C146.407 22.2218 155.107 19.7763 165.376 19.4426C164.484 16.502 162.605 14.2418 160.082 12.4913C153.466 9.20157 144.622 10.6042 139.568 16.1324ZM143.538 25.7319C143.538 25.8412 143.538 25.9504 143.538 26.063C150.028 27.2729 157.119 26.3621 163.616 25.4785C164.272 25.3901 164.927 25.3022 165.583 25.2147C165.906 25.1716 166.23 25.1284 166.563 25.084C170.563 24.582 174.584 24.4927 178.612 24.4079C178.325 23.6464 178.325 23.6464 177.386 23.4148C176.805 23.251 176.805 23.251 176.213 23.0838C175.836 22.9746 175.459 22.8653 175.07 22.7528C171.267 21.8112 167.494 21.6133 163.598 21.6149C163.337 21.6147 163.076 21.6144 162.807 21.6142C155.919 21.631 149.906 23.1524 143.538 25.7319ZM164.804 27.003C157.497 28.094 150.257 28.3162 142.876 28.3801C142.796 28.7231 142.716 29.0662 142.633 29.4197C142.522 29.8732 142.41 30.3266 142.297 30.7799C142.219 31.1185 142.219 31.1185 142.14 31.464C141.783 32.8786 141.419 33.7942 140.229 34.6694C138.202 34.7077 137.118 33.8945 135.597 32.6833C134.13 33.768 133.281 34.4508 132.95 36.3245C132.992 38.911 133.959 40.5924 135.721 42.4483C136.83 43.0819 137.649 42.9685 138.906 42.9448C139.654 44.0671 139.88 44.9904 140.209 46.2964C140.57 47.722 140.949 49.1193 141.47 50.4961C142.144 52.4591 142.191 54.3614 141.47 56.3096C140.891 57.1785 140.891 57.1785 140.147 57.8199C139.457 58.4903 139.457 58.4903 139.526 59.5784C140.265 62.0424 142.077 64.0324 144.2 65.454C147.818 67.3325 151.457 68.1287 155.494 67.2022C157.941 66.2737 159.724 64.9649 160.825 62.5395C161.236 61.3426 161.485 60.1022 161.406 58.8336C161.187 58.6152 160.969 58.3967 160.744 58.1716C159.687 58.2714 158.674 58.4478 157.638 58.6785C156.728 58.8417 155.877 58.8892 154.954 58.8957C154.65 58.9004 154.346 58.9051 154.033 58.9099C153.069 58.8281 152.355 58.5731 151.479 58.1716C151.479 57.7347 151.479 57.2977 151.479 56.8475C151.887 56.8667 152.295 56.8859 152.715 56.9057C156.736 57.0388 159.873 56.7318 163.164 54.1787C167.539 49.9653 168.619 43.5585 168.747 37.7507C168.756 36.9305 168.763 36.1103 168.768 35.2901C168.771 34.8996 168.774 34.5091 168.777 34.1068C168.768 31.5844 168.519 29.1981 168.023 26.725C166.89 26.725 165.917 26.8264 164.804 27.003ZM72.3989 40.2967C72.8919 41.9147 73.8173 42.875 74.9632 44.062C75.3223 44.4432 75.6812 44.8247 76.0398 45.2063C76.2114 45.3875 76.3829 45.5687 76.5596 45.7554C79.0543 48.3982 79.0543 48.3982 79.3474 49.8962C77.4326 49.2138 76.3637 48.3831 75.0459 46.855C74.8758 46.6641 74.7058 46.4733 74.5305 46.2767C74.0367 45.7211 73.5482 45.1611 73.0606 44.5999C72.8064 44.3123 72.5522 44.0247 72.2903 43.7284C71.7711 43.1394 71.2556 42.5477 70.7445 41.9518C70.3077 42.061 69.8709 42.1702 69.4209 42.2828C69.1801 42.8846 69.1801 42.8847 69.0901 43.6069C69.3773 44.2179 69.3773 44.2179 69.8759 44.7861C70.0597 45.0148 70.2436 45.2435 70.433 45.4792C70.6449 45.7352 70.8569 45.9912 71.0753 46.255C71.3112 46.552 71.5471 46.849 71.7901 47.1549C72.5312 48.0807 73.2872 48.991 74.0533 49.8962C74.3162 50.2143 74.3162 50.2143 74.5845 50.5388C76.4367 52.5919 78.9549 53.842 81.3326 55.1924C82.071 55.6119 82.8085 56.0325 83.5454 56.4544C83.8538 56.6273 84.1622 56.8001 84.4799 56.9781C85.3351 57.5302 85.984 58.043 86.6267 58.8336C86.6267 59.2706 86.6267 59.7075 86.6267 60.1577C85.5202 59.8118 84.7251 59.3242 83.8349 58.6061C82.655 57.6857 81.4429 57.0539 80.0918 56.4131C75.7582 54.3205 72.8777 51.445 69.9847 47.6835C69.1396 46.5356 69.1396 46.5356 67.8286 46.1309C67.5897 46.1718 67.3509 46.2128 67.1048 46.255C66.6016 47.7185 67.0377 48.5988 67.6308 49.9725C70.239 55.0971 74.6645 58.6053 79.2814 61.8102C82.961 64.4012 82.961 64.4012 83.6488 66.116C83.767 66.9861 83.854 67.8333 83.9155 68.7073C83.9361 68.9676 83.9567 69.2279 83.9779 69.496C84.0222 70.0618 84.0653 70.6276 84.1073 71.1936C84.1745 72.0988 84.2453 73.0037 84.317 73.9085C84.4949 76.163 84.6673 78.418 84.839 80.673C85.2009 99.7305 85.2009 99.7305 93.5752 115.769C96.1884 117.507 98.9913 117.785 102.042 117.283C106.366 116.169 109.64 112.872 111.856 109.128C112.083 108.751 112.083 108.751 112.314 108.367C115.662 103.372 115.662 103.372 117.399 97.8936C115.621 96.9963 113.842 96.1006 112.063 95.2065C111.457 94.902 110.852 94.5969 110.247 94.2914C109.379 93.8531 108.51 93.4164 107.64 92.9801C107.369 92.8425 107.097 92.705 106.817 92.5632C106.44 92.3743 106.44 92.3743 106.054 92.1817C105.833 92.0699 105.611 91.9582 105.382 91.8431C104.825 91.5608 104.825 91.5608 104.163 91.6043C104.301 92.1733 104.301 92.1733 104.441 92.7538C104.562 93.2602 104.683 93.7667 104.804 94.2731C104.895 94.6466 104.895 94.6466 104.987 95.0276C105.345 96.5311 105.624 98.0152 105.818 99.5487C105.272 99.5487 104.726 99.5487 104.163 99.5487C104.098 99.2553 104.033 98.9619 103.966 98.6596C102.915 94.0189 101.646 89.4371 100.391 84.8483C97.6867 74.9526 97.6867 74.9526 96.5725 70.758C96.5066 70.5123 96.4407 70.2666 96.3729 70.0135C95.5629 66.9426 95.1815 63.9683 95.8914 60.8404C97.0389 55.5662 95.3754 51.3606 92.5903 46.9558C92.1507 46.2782 91.707 45.6031 91.2591 44.9309C91.0407 44.9309 90.8223 44.9309 90.5973 44.9309C90.5601 46.9422 90.699 48.8914 90.9282 50.8892C89.3806 51.4017 88.351 50.7677 86.9576 50.0824C86.7072 49.9612 86.4568 49.84 86.1988 49.7151C81.6986 47.4872 78.0256 44.4984 74.6775 40.7712C73.8785 40.1638 73.3785 40.2039 72.3989 40.2967ZM110.797 64.3355C107.712 67.9217 105.463 71.9807 103.297 76.1687C102.99 76.7543 102.669 77.3333 102.337 77.9053C101.314 79.7045 101.314 79.7045 101.279 81.7152C101.401 82.1463 101.535 82.5742 101.682 82.9979C101.775 83.3128 101.775 83.3128 101.871 83.634C101.998 84.0595 102.134 84.4825 102.279 84.9024C102.509 85.646 102.509 85.646 102.654 86.4361C102.92 87.7084 103.157 88.6531 104.154 89.5294C105.011 90.0361 105.877 90.4609 106.783 90.8725C107.105 91.0294 107.427 91.1864 107.758 91.3481C108.782 91.8443 109.812 92.3243 110.843 92.8042C111.54 93.139 112.237 93.4747 112.934 93.8115C114.637 94.6326 116.346 95.4405 118.06 96.2385C120.295 94.122 120.399 91.5081 120.542 88.5915C120.57 88.076 120.597 87.5606 120.625 87.0451C120.666 86.2395 120.708 85.434 120.749 84.6284C120.789 83.846 120.831 83.0638 120.873 82.2815C120.885 82.0412 120.896 81.8008 120.908 81.5532C120.968 80.4548 121.042 79.4178 121.369 78.3636C121.806 78.4729 122.243 78.5821 122.693 78.6946C122.49 84.4172 122.226 90.1335 121.907 95.8506C121.864 96.6373 121.82 97.4239 121.777 98.2105C121.665 100.256 121.552 102.301 121.438 104.347C121.257 107.623 121.076 110.899 120.896 114.175C120.834 115.302 120.771 116.43 120.708 117.557C120.461 122.035 120.24 126.514 120.046 130.995C120.541 131.118 121.036 131.24 121.531 131.362C121.807 131.431 122.083 131.499 122.367 131.569C136.942 135.15 163.343 138.964 177.288 131.988C177.298 131.754 177.308 131.52 177.318 131.279C177.561 125.565 177.804 119.85 178.047 114.136C178.165 111.372 178.283 108.609 178.4 105.845C178.502 103.434 178.605 101.023 178.708 98.612C178.763 97.3374 178.817 96.0629 178.871 94.7884C178.922 93.5842 178.973 92.3801 179.025 91.176C179.052 90.5326 179.079 89.8893 179.106 89.2459C179.234 86.2778 179.41 83.3142 179.604 80.3497C180.041 80.2405 180.478 80.1313 180.928 80.0187C180.985 86.6463 180.821 93.2569 180.597 99.8797C182.751 99.238 184.905 98.5962 187.059 97.9543C187.791 97.7363 188.523 97.5183 189.254 97.3004C190.311 96.9857 191.367 96.671 192.423 96.3562C192.746 96.26 193.069 96.1637 193.402 96.0646C194.018 95.881 194.634 95.6967 195.25 95.5116C195.867 95.3289 196.485 95.1516 197.104 94.9789C197.405 94.8937 197.705 94.8086 198.015 94.7209C198.284 94.6465 198.554 94.572 198.832 94.4953C199.522 94.3078 199.522 94.3078 199.788 93.5904C199.522 92.6487 199.231 91.7366 198.912 90.813C198.816 90.5322 198.721 90.2514 198.623 89.9622C198.311 89.0465 197.995 88.1323 197.679 87.2183C197.572 86.9086 197.465 86.5989 197.356 86.2798C195.779 81.7025 194.175 77.1505 192.178 72.7363C192.066 72.4883 191.955 72.2402 191.84 71.9846C189.436 66.713 186.162 62.0285 180.597 59.8267C176.522 58.4126 172.398 58.4548 168.127 58.4819C167.665 58.4836 167.203 58.4851 166.742 58.4865C165.625 58.4903 164.508 58.4957 163.391 58.5026C163.353 58.7924 163.315 59.0821 163.276 59.3807C163.222 59.7638 163.169 60.147 163.113 60.5417C163.062 60.9202 163.01 61.2988 162.957 61.6887C162.47 64.0809 161.284 65.8529 159.296 67.2539C156.01 69.2097 152.477 69.9365 148.71 69.2115C144.939 68.2449 141.389 66.5121 139.237 63.1369C139.079 62.7233 138.93 62.3066 138.787 61.8878C138.028 59.8087 138.028 59.8087 136.59 58.1716C134.066 57.3061 131.283 57.4648 128.649 57.5096C128.068 57.5013 127.487 57.4927 126.906 57.4837C120.777 57.4941 115.024 59.878 110.797 64.3355ZM266.957 96.9006C264.655 99.7079 262.808 102.88 260.89 105.952C257.112 111.983 253.241 117.953 249.34 123.904C248.397 125.345 247.453 126.786 246.51 128.227C246.056 128.92 245.601 129.613 245.147 130.306C244.626 131.101 244.107 131.896 243.588 132.692C243.368 133.026 243.368 133.026 243.144 133.367C242.585 134.228 242.136 134.981 241.81 135.961C242.028 136.288 242.247 136.616 242.472 136.954C243.51 137.104 243.51 137.104 244.753 137.077C245.105 137.079 245.105 137.079 245.464 137.081C246.242 137.083 247.019 137.079 247.797 137.074C248.336 137.074 248.875 137.074 249.414 137.074C250.544 137.074 251.675 137.071 252.805 137.065C254.256 137.057 255.707 137.057 257.158 137.059C258.271 137.061 259.384 137.058 260.498 137.055C261.033 137.054 261.568 137.053 262.103 137.054C262.85 137.054 263.597 137.05 264.344 137.045C264.77 137.043 265.195 137.041 265.634 137.04C266.664 137.058 266.664 137.058 267.288 136.292C267.386 135.566 267.386 135.566 267.367 134.717C267.368 134.384 267.369 134.052 267.37 133.709C267.368 133.343 267.365 132.978 267.363 132.6C267.363 132.216 267.363 131.832 267.363 131.436C267.363 130.161 267.357 128.885 267.352 127.61C267.351 126.728 267.35 125.846 267.349 124.964C267.347 122.876 267.342 120.788 267.335 118.7C267.328 116.323 267.324 113.946 267.321 111.57C267.314 106.68 267.302 101.79 267.288 96.9006C267.178 96.9006 267.069 96.9006 266.957 96.9006ZM194.379 97.6214C194.089 97.7065 193.8 97.7915 193.502 97.8792C193.191 97.9723 192.88 98.0654 192.559 98.1613C192.239 98.256 191.919 98.3508 191.589 98.4484C190.912 98.6489 190.235 98.8501 189.559 99.052C188.521 99.3615 187.482 99.669 186.443 99.9761C185.787 100.171 185.13 100.366 184.473 100.561C184.005 100.7 184.005 100.7 183.528 100.841C183.24 100.927 182.951 101.013 182.654 101.102C182.273 101.216 182.273 101.216 181.884 101.332C181.239 101.524 181.239 101.524 180.597 101.866C180.545 103.494 180.701 104.869 181.118 106.442C181.173 106.65 181.227 106.857 181.284 107.071C181.4 107.509 181.518 107.946 181.637 108.382C181.815 109.036 181.986 109.692 182.158 110.347C184.8 120.291 191.713 128.02 197.968 135.961C198.261 136.334 198.554 136.708 198.847 137.082C199.344 137.716 199.844 138.348 200.348 138.977C200.937 139.713 201.521 140.454 202.104 141.195C202.287 141.42 202.47 141.646 202.658 141.878C203.896 143.463 204.56 144.948 205.082 146.884C205.187 147.245 205.291 147.605 205.399 147.977C205.492 148.306 205.585 148.635 205.682 148.974C207.872 156.065 212.273 161.533 218.699 165.161C219.541 165.519 220.102 165.33 220.964 165.09C220.442 163.79 219.594 163.023 218.586 162.07C214.432 158.031 214.432 158.031 214.016 155.16C214.887 155.281 215.264 155.409 215.869 156.065C216.041 156.31 216.214 156.555 216.391 156.807C217.682 158.546 219.138 160.051 220.675 161.573C220.935 161.835 221.194 162.098 221.462 162.368C221.715 162.62 221.968 162.873 222.228 163.132C222.454 163.358 222.681 163.583 222.914 163.816C223.66 164.471 224.381 164.968 225.266 165.421C226.173 165.35 226.173 165.35 226.92 165.09C226.736 163.873 226.436 163.068 225.732 162.06C225.556 161.806 225.38 161.551 225.198 161.288C225.009 161.02 224.82 160.752 224.625 160.477C224.433 160.2 224.241 159.923 224.043 159.638C223.131 158.328 222.206 157.028 221.267 155.738C221.114 155.527 220.96 155.315 220.803 155.098C220.517 154.706 220.228 154.316 219.937 153.927C218.979 152.62 218.979 152.62 218.979 151.518C220.549 151.982 221.194 152.726 222.164 154.022C222.303 154.207 222.442 154.392 222.586 154.583C223.935 156.41 225.163 158.317 226.368 160.241C226.585 160.584 226.585 160.584 226.805 160.934C226.931 161.137 227.058 161.341 227.188 161.55C227.607 162.147 228.018 162.632 228.575 163.104C229.443 163.187 229.443 163.187 230.229 163.104C230.673 162.577 230.673 162.577 230.891 161.78C230.098 159.19 228.341 156.945 226.839 154.72C224.754 151.601 222.789 148.352 222.288 144.567C223.492 144.165 223.757 144.347 224.893 144.836C225.172 144.954 225.451 145.072 225.739 145.194C226.311 145.44 226.882 145.687 227.454 145.934C228.412 146.284 229.217 146.269 230.229 146.222C230.338 145.785 230.447 145.348 230.56 144.898C230.363 144.776 230.167 144.655 229.964 144.529C229.06 143.97 228.155 143.41 227.251 142.85C226.942 142.658 226.633 142.467 226.314 142.27C226.009 142.081 225.704 141.892 225.39 141.698C225.086 141.511 224.783 141.324 224.47 141.131C223.94 140.8 223.413 140.463 222.893 140.117C221.579 139.248 220.36 138.684 218.849 138.241C216.031 137.412 214.5 136.593 213.023 133.974C212.753 133.534 212.482 133.094 212.209 132.656C211.578 131.637 210.956 130.614 210.34 129.587C209.448 128.11 208.512 126.665 207.564 125.223C206.259 123.228 205.018 121.202 203.821 119.141C203.606 118.773 203.606 118.773 203.388 118.399C202.95 117.637 202.525 116.87 202.104 116.1C201.937 115.802 201.77 115.505 201.598 115.198C200.219 112.619 199.508 110.075 198.899 107.224C198.805 106.81 198.712 106.396 198.616 105.969C197.969 103.066 197.383 100.15 196.81 97.2316C195.872 97.2316 195.268 97.3577 194.379 97.6214ZM119.384 98.5557C119.259 98.8122 119.134 99.0687 119.006 99.3329C118.425 100.524 117.84 101.712 117.254 102.9C117.148 103.114 117.043 103.329 116.934 103.549C115.774 105.9 114.604 108.168 113.077 110.307C109.612 115.409 109.321 122.913 109.354 128.864C109.355 129.094 109.355 129.324 109.356 129.561C109.398 139.12 111.62 147.544 116.406 155.822C117.173 154.671 117.207 154.047 117.325 152.68C117.345 152.463 117.364 152.247 117.384 152.024C117.448 151.31 117.507 150.595 117.567 149.88C117.61 149.384 117.654 148.888 117.697 148.393C117.812 147.088 117.923 145.784 118.033 144.479C118.147 143.148 118.263 141.817 118.38 140.486C118.607 137.874 118.831 135.262 119.053 132.65C118.835 132.541 118.616 132.432 118.391 132.319C118.355 129.129 118.434 125.966 118.636 122.781C118.682 122.058 118.726 121.334 118.77 120.61C118.878 118.814 118.989 117.018 119.101 115.222C119.211 113.454 119.32 111.686 119.425 109.918C119.44 109.676 119.454 109.434 119.469 109.186C119.678 105.64 119.807 102.108 119.715 98.5557C119.606 98.5557 119.496 98.5557 119.384 98.5557ZM179.935 110.803C179.928 111.002 179.92 111.201 179.912 111.406C179.832 113.507 179.752 115.607 179.671 117.707C179.64 118.487 179.611 119.268 179.581 120.048C179.297 127.524 179.297 127.524 179.107 131.028C179.095 131.259 179.083 131.491 179.071 131.73C178.982 133.273 178.982 133.273 178.612 133.643C178.572 134.61 178.557 135.566 178.56 136.533C178.56 136.84 178.561 137.146 178.562 137.462C178.593 141.746 178.863 146.021 179.108 150.298C179.156 151.159 179.204 152.02 179.251 152.882C179.367 154.965 179.485 157.049 179.604 159.132C185.684 151.665 187.856 142.625 188.778 133.24C188.835 132.666 188.896 132.091 188.963 131.517C189.225 129.199 189.268 127.314 187.817 125.348C187.23 124.625 186.62 123.925 186 123.229C183.506 120.344 182.385 117.136 181.344 113.534C181.211 113.076 181.211 113.076 181.075 112.608C180.998 112.332 180.922 112.056 180.843 111.772C180.654 111.07 180.654 111.07 179.935 110.803ZM121.038 133.312C120.564 134.736 120.494 136.168 120.356 137.657C120.326 137.959 120.296 138.261 120.265 138.573C120.085 140.47 120.016 142.33 120.046 144.236C123.686 143.688 127.076 141.477 129.31 138.609C130.296 137.064 130.296 137.064 130.634 135.299C127.452 134.53 124.259 133.896 121.038 133.312ZM174.194 134.595C173.912 134.655 173.631 134.715 173.341 134.776C173.046 134.839 172.752 134.902 172.449 134.968C172.152 135.031 171.855 135.094 171.549 135.159C170.815 135.315 170.081 135.472 169.347 135.63C170.248 138.946 171.935 141.636 174.931 143.45C175.928 143.972 175.928 143.972 176.957 143.905C176.911 142.615 176.862 141.326 176.812 140.036C176.799 139.671 176.786 139.306 176.773 138.93C176.759 138.577 176.745 138.224 176.731 137.86C176.719 137.536 176.707 137.212 176.694 136.878C176.629 135.995 176.489 135.168 176.295 134.305C175.554 134.305 174.919 134.44 174.194 134.595ZM132.619 135.63C132.479 135.937 132.338 136.245 132.194 136.562C129.937 141.379 127.043 143.682 122.083 145.621C121.854 145.711 121.626 145.802 121.39 145.895C120.832 146.115 120.274 146.334 119.715 146.553C117.501 166.629 116.25 186.805 114.957 206.956C114.861 208.46 114.764 209.965 114.668 211.469C114.644 211.84 114.62 212.211 114.595 212.593C114.246 218.036 113.881 223.478 113.502 228.919C113.478 229.257 113.455 229.595 113.43 229.943C113.208 233.144 112.983 236.345 112.756 239.546C112.675 240.694 112.594 241.841 112.514 242.989C112.477 243.513 112.44 244.038 112.402 244.563C112.35 245.279 112.3 245.995 112.25 246.711C112.222 247.108 112.193 247.506 112.164 247.915C112.092 249.435 112.105 250.957 112.105 252.479C119.311 252.479 126.518 252.479 133.943 252.479C134.461 249.106 134.98 245.733 135.514 242.258C137.35 230.413 139.277 218.584 141.222 206.757C141.33 206.099 141.438 205.442 141.546 204.785C141.618 204.347 141.69 203.91 141.762 203.472C142.153 201.097 142.543 198.723 142.933 196.348C143.002 195.928 143.071 195.508 143.143 195.075C144.378 187.555 145.599 180.033 146.802 172.508C146.929 171.715 147.056 170.922 147.183 170.129C147.376 168.923 147.569 167.717 147.761 166.511C147.862 165.877 147.964 165.243 148.065 164.609C148.123 164.241 148.182 163.873 148.242 163.493C148.293 163.175 148.343 162.858 148.395 162.53C148.517 161.797 148.517 161.797 148.501 161.118C149.397 160.95 150.293 160.785 151.19 160.621C151.441 160.574 151.693 160.527 151.952 160.478C153.359 160.223 154.675 160.07 156.112 160.125C156.112 160.562 156.112 160.999 156.112 161.449C154.255 161.886 152.399 162.323 150.487 162.773C150.709 167.17 151.108 171.531 151.567 175.909C151.644 176.652 151.721 177.395 151.798 178.138C151.963 179.733 152.128 181.328 152.294 182.923C152.72 187.008 153.141 191.094 153.562 195.179C153.632 195.86 153.702 196.54 153.772 197.221C154.526 204.535 155.266 211.851 155.997 219.167C156.021 219.415 156.046 219.662 156.071 219.917C156.557 224.774 157.04 229.632 157.523 234.49C157.725 236.521 157.928 238.552 158.13 240.583C158.253 241.819 158.375 243.054 158.498 244.29C158.572 245.035 158.646 245.78 158.72 246.525C158.753 246.857 158.786 247.189 158.82 247.532C158.85 247.841 158.881 248.151 158.913 248.47C158.939 248.735 158.966 248.999 158.993 249.272C159.121 250.453 159.273 251.631 159.42 252.81C166.627 252.81 173.834 252.81 181.259 252.81C181.263 245.556 181.263 245.556 181.072 238.313C181.052 237.781 181.032 237.249 181.012 236.717C180.958 235.295 180.902 233.873 180.845 232.452C180.785 230.926 180.727 229.4 180.668 227.875C180.555 224.945 180.439 222.016 180.323 219.086C180.23 216.732 180.138 214.379 180.045 212.025C179.412 195.867 178.758 179.711 177.991 163.559C177.974 163.197 177.957 162.834 177.939 162.461C177.843 160.423 177.745 158.385 177.645 156.346C177.616 155.753 177.588 155.16 177.559 154.567C177.478 152.888 177.388 151.21 177.288 149.532C177.259 149.002 177.259 149.002 177.229 148.46C177.207 148.161 177.185 147.862 177.163 147.554C177.137 147.185 177.137 147.185 177.112 146.809C176.987 146.09 176.987 146.09 176.005 145.497C175.602 145.347 175.2 145.197 174.786 145.043C171.251 143.555 169.513 141.105 168.023 137.616C167.802 137.064 167.581 136.513 167.362 135.961C164.29 135.937 161.228 136.007 158.159 136.126C157.737 136.142 157.314 136.158 156.879 136.174C155.851 136.212 154.823 136.252 153.796 136.292C153.388 137.571 153.397 138.859 153.372 140.189C153.365 140.44 153.359 140.692 153.353 140.951C153.334 141.757 153.316 142.562 153.299 143.367C153.221 146.977 153.104 150.566 152.803 154.167C152.366 154.167 151.929 154.167 151.479 154.167C151.479 148.268 151.479 142.369 151.479 136.292C149.207 136.22 149.207 136.22 146.888 136.147C142.131 135.995 137.375 135.82 132.619 135.63ZM146.847 182.965C145.828 189.269 144.809 195.574 143.791 201.879C143.701 202.438 143.701 202.438 143.608 203.01C143.361 204.543 143.113 206.076 142.866 207.609C142.136 212.128 141.406 216.647 140.675 221.166C140.23 223.919 139.785 226.672 139.34 229.425C139.08 231.036 138.82 232.647 138.559 234.257C137.552 240.479 136.552 246.702 135.589 252.931C135.5 253.504 135.412 254.076 135.322 254.649C135.2 255.435 135.079 256.22 134.959 257.006C134.923 257.239 134.886 257.471 134.849 257.71C134.709 258.627 134.604 259.494 134.604 260.423C133.403 260.532 132.202 260.641 130.965 260.754C131.183 265.67 131.401 270.585 131.626 275.65C141.126 275.65 150.626 275.65 160.413 275.65C160.631 272.373 160.85 269.096 161.075 265.719C161.494 262.228 161.494 262.228 161.737 260.754C161.526 260.734 161.314 260.714 161.097 260.693C160.823 260.665 160.55 260.638 160.268 260.609C159.86 260.569 159.86 260.569 159.442 260.528C158.759 260.423 158.759 260.423 158.428 260.092C158.306 259.19 158.205 258.293 158.115 257.388C158.085 257.098 158.055 256.809 158.024 256.511C157.923 255.526 157.824 254.541 157.725 253.556C157.652 252.846 157.58 252.137 157.507 251.427C157.304 249.446 157.103 247.465 156.903 245.484C156.771 244.182 156.639 242.879 156.507 241.576C156.024 236.827 155.542 232.078 155.062 227.328C155.037 227.083 155.012 226.837 154.987 226.584C154.734 224.086 154.482 221.588 154.23 219.09C153.906 215.885 153.582 212.681 153.258 209.476C153.234 209.238 153.21 209.001 153.185 208.756C152.314 200.156 151.415 191.559 150.487 182.965C149.286 182.965 148.085 182.965 146.847 182.965ZM51.2225 196.537C50.5159 197.597 50.4745 197.765 50.6021 198.957C50.6234 199.202 50.6448 199.446 50.6667 199.698C50.9698 200.791 51.5584 201.581 52.2151 202.495C52.5197 202.343 52.8242 202.191 53.138 202.035C57.5662 199.871 61.9044 198.465 66.8773 198.461C67.1432 198.457 67.4092 198.453 67.6832 198.448C69.5555 198.444 71.2518 198.706 73.0606 199.185C73.2244 199.84 73.2244 199.84 73.3915 200.509C73.1309 200.485 72.8703 200.461 72.6018 200.436C66.5023 199.917 59.8963 199.822 54.6244 203.444C53.1034 204.867 52.8314 207.013 52.7528 209.033C52.8322 210.913 53.4547 212.02 54.8001 213.336C57.0215 214.904 59.1592 214.985 61.8107 214.743C66.7834 213.836 71.3205 210.807 75.5422 208.164C79.0473 205.981 82.1809 204.978 86.2958 204.481C83.072 199.012 77.1605 195.894 71.2304 194.221C65.1088 192.779 56.4565 192.265 51.2225 196.537ZM5.56096 216.729C3.6229 218.978 3.6229 218.978 2.58304 221.694C2.91914 221.699 3.25524 221.703 3.60153 221.708C8.62296 221.848 11.8691 223.634 16.0031 226.389C19.8429 228.932 23.9686 231.193 28.7226 230.631C31.4373 229.973 33.5972 228.912 35.1864 226.574C36.2493 224.684 36.7688 222.863 36.3329 220.701C35.5462 218.903 34.3794 218.467 32.6267 217.759C26.9893 215.569 20.9493 215.448 15.1022 216.843C14.1639 217.06 14.1639 217.06 13.1712 217.06C13.1712 216.623 13.1712 216.186 13.1712 215.736C20.5553 213.236 28.1309 213.893 35.1787 217.043C35.8962 217.346 36.5658 217.56 37.3255 217.722C38.434 216.428 39.3341 215.346 39.2901 213.584C38.538 211.578 36.7786 210.678 34.9305 209.823C25.1971 205.815 12.6847 209.284 5.56096 216.729ZM55.7514 228.107C54.5775 229.598 54.1689 230.721 54.2004 232.618C54.5766 232.774 54.9528 232.931 55.3404 233.092C62.5132 236.138 69.1084 240.487 73.3915 247.182C73.3915 247.51 73.3915 247.838 73.3915 248.175C72.4134 248.067 71.8832 247.995 71.1852 247.277C71.0193 247.034 70.8534 246.791 70.6824 246.541C66.7418 241.18 59.883 235.75 53.2078 234.273C51.4145 234.012 49.7452 233.844 48.0921 234.689C46.1242 236.262 45.0955 238.268 44.791 240.748C45.2242 244.153 47.038 246.293 49.6353 248.449C52.7029 250.635 56.1714 251.339 59.8254 251.92C66.1709 253.025 71.434 255.313 77.0312 258.437C77.5887 258.746 78.1462 259.056 78.7037 259.365C79.1389 259.607 79.574 259.85 80.0091 260.092C80.3076 248.978 77.8621 239.107 70.0686 230.816C67.4269 228.102 64.5353 226.058 60.6526 225.894C58.5982 225.957 57.1326 226.576 55.7514 228.107ZM43.2814 243.872C43.2783 244.172 43.2752 244.472 43.272 244.781C43.2573 245.914 43.2368 247.047 43.2127 248.18C43.2035 248.666 43.1964 249.153 43.1917 249.639C43.1676 251.996 43.1434 254.198 42.2887 256.43C41.3159 259.002 41.4031 261.598 41.3788 264.312C41.3694 264.824 41.3595 265.335 41.3491 265.846C41.2874 269.114 41.286 272.382 41.2961 275.65C42.0604 275.65 42.8247 275.65 43.6122 275.65C43.6419 275.36 43.6716 275.071 43.7022 274.773C44.5921 266.312 46.072 258.437 49.2372 250.492C49.0176 250.304 48.7979 250.116 48.5716 249.922C46.5089 248.118 44.7336 246.422 43.6122 243.872C43.5031 243.872 43.3939 243.872 43.2814 243.872ZM111.774 254.796C111.664 256.106 111.555 257.417 111.443 258.768C118.54 258.768 125.638 258.768 132.95 258.768C133.059 257.457 133.168 256.146 133.281 254.796C124.369 254.529 124.369 254.529 115.455 254.423C115.114 254.422 114.772 254.42 114.421 254.419C114.115 254.419 113.808 254.42 113.493 254.421C113.099 254.421 113.099 254.421 112.697 254.422C112.097 254.4 112.097 254.4 111.774 254.796ZM260.298 255.339C260.093 255.527 259.888 255.716 259.677 255.91C259.459 256.116 259.24 256.322 259.016 256.534C258.792 256.745 258.568 256.956 258.337 257.173C252.942 262.33 248.716 268.798 245.78 275.65C247.964 275.65 250.148 275.65 252.398 275.65C252.564 275.222 252.73 274.795 252.901 274.354C254.964 269.174 257.395 264.221 259.925 259.256C260.062 258.988 260.198 258.719 260.338 258.443C260.597 257.933 260.858 257.425 261.12 256.917C261.767 255.75 261.767 255.75 261.993 254.465C261.115 254.465 260.937 254.75 260.298 255.339ZM159.751 254.796C159.861 256.106 159.97 257.417 160.082 258.768C167.18 258.768 174.277 258.768 181.589 258.768C181.589 257.457 181.589 256.146 181.589 254.796C174.383 254.796 167.176 254.796 159.751 254.796ZM244.126 260.754C239.289 267.686 239.289 267.686 237.177 275.65C239.143 275.65 241.108 275.65 243.133 275.65C243.78 270.684 244.295 265.761 244.457 260.754C244.348 260.754 244.238 260.754 244.126 260.754ZM258.374 271.264C256.18 273.22 256.18 273.22 255.045 275.65C257.021 275.96 259.059 276.271 261.001 275.65C262.447 274.482 263.182 272.694 263.964 271.048C264.466 270.039 265.076 269.15 265.716 268.223C265.926 267.911 266.136 267.599 266.352 267.277C266.551 266.982 266.751 266.686 266.957 266.381C267.343 265.802 267.729 265.223 268.115 264.643C268.391 264.23 268.666 263.816 268.942 263.402C265.639 263.402 260.641 269.031 258.374 271.264ZM270.266 272.009C269.499 272.489 268.734 272.972 267.97 273.457C267.752 273.593 267.534 273.73 267.309 273.871C266.115 274.572 266.115 274.572 265.302 275.65C266.454 275.834 267.468 275.91 268.611 275.65C269.493 274.766 270.051 273.788 270.596 272.671C270.487 272.452 270.378 272.234 270.266 272.009Z" fill="black"/>
<path d="M53.5184 73.3631C54.0627 73.3691 54.6071 73.3735 55.1515 73.3763C56.5777 73.3883 58.0026 73.4224 59.4282 73.461C60.8843 73.4961 62.3406 73.5083 63.797 73.5234C65.9174 73.5497 68.0375 73.5817 70.1573 73.635C70.5836 73.6452 71.0098 73.6555 71.449 73.666C72.4005 73.7303 72.4005 73.7303 72.7314 74.0613C72.7671 74.8644 72.7812 75.6581 72.7816 76.4615C72.7837 76.8427 72.7836 76.8427 72.7858 77.2317C72.7901 78.0899 72.7921 78.9481 72.7941 79.8063C72.7967 80.4189 72.7995 81.0315 72.8024 81.6442C72.8084 82.9665 72.8134 84.2888 72.8176 85.6112C72.8242 87.6998 72.8334 89.7884 72.8429 91.877C72.8646 96.6878 72.8829 101.499 72.9012 106.309C72.918 110.717 72.9355 115.125 72.9556 119.533C72.965 121.611 72.9728 123.69 72.9794 125.768C72.9838 127.059 72.9896 128.349 72.9957 129.64C72.9983 130.241 73.0003 130.841 73.0017 131.442C73.0037 132.259 73.0077 133.076 73.0122 133.892C73.0123 134.133 73.0124 134.374 73.0125 134.623C72.9261 135.717 72.9261 135.717 73.3932 136.624C74.1229 136.672 74.8541 136.699 75.5853 136.717C75.9139 136.726 75.9139 136.726 76.2491 136.735C76.9515 136.755 77.6539 136.772 78.3564 136.789C79.2802 136.811 80.2038 136.836 81.1275 136.861C81.5395 136.871 81.9516 136.882 82.3761 136.892C83.3196 136.955 83.3196 136.955 83.6505 137.286C83.683 137.772 83.6928 138.259 83.6933 138.746C83.6943 139.056 83.6954 139.367 83.6965 139.687C83.6955 140.193 83.6955 140.193 83.6944 140.71C83.6948 141.054 83.6951 141.398 83.6954 141.752C83.6956 142.481 83.695 143.21 83.6936 143.939C83.6919 145.06 83.6936 146.18 83.6957 147.3C83.6955 148.007 83.6951 148.713 83.6944 149.419C83.6951 149.757 83.6958 150.095 83.6965 150.442C83.6949 150.908 83.6949 150.908 83.6933 151.383C83.693 151.658 83.6928 151.932 83.6925 152.215C83.6505 152.843 83.6505 152.843 83.3196 153.174C82.5335 153.204 81.7572 153.213 80.9711 153.207C80.6193 153.206 80.6193 153.206 80.2604 153.205C79.5085 153.203 78.7567 153.199 78.0048 153.195C77.4962 153.193 76.9876 153.192 76.479 153.191C75.2298 153.187 73.9806 153.181 72.7314 153.174C72.7332 153.596 72.7349 154.018 72.7367 154.452C72.7427 156.045 72.7465 157.637 72.7496 159.229C72.7512 159.913 72.7535 160.597 72.7564 161.281C72.7702 164.641 72.7746 167.995 72.5854 171.351C72.5725 171.586 72.5596 171.822 72.5463 172.064C72.4431 173.655 72.4431 173.655 72.0697 174.028C71.4843 174.063 70.8976 174.074 70.3113 174.077C69.7481 174.08 69.7481 174.08 69.1736 174.083C68.7649 174.083 68.3561 174.084 67.9349 174.084C67.5184 174.085 67.1018 174.086 66.6726 174.087C65.7894 174.089 64.9063 174.09 64.0231 174.09C62.89 174.09 61.757 174.094 60.6239 174.1C59.5453 174.105 58.4667 174.104 57.3881 174.105C56.98 174.107 56.5719 174.11 56.1515 174.112C55.5868 174.11 55.5868 174.11 55.0107 174.109C54.6781 174.109 54.3455 174.11 54.0028 174.11C53.2095 174.028 53.2095 174.028 52.5477 173.366C52.4556 172.533 52.4556 172.533 52.4422 171.468C52.4323 170.872 52.4323 170.872 52.4223 170.263C52.4165 169.617 52.4165 169.617 52.4107 168.957C52.4045 168.513 52.398 168.069 52.3913 167.624C52.3743 166.454 52.3612 165.284 52.3489 164.114C52.3356 162.92 52.3187 161.727 52.3021 160.533C52.2701 158.191 52.2422 155.848 52.2168 153.505C51.9889 153.504 51.761 153.503 51.5262 153.502C45.9869 153.475 40.4475 153.445 34.9082 153.41C32.2295 153.394 29.5507 153.378 26.872 153.366C24.5378 153.355 22.2036 153.342 19.8695 153.326C18.633 153.317 17.3965 153.31 16.16 153.306C14.7813 153.301 13.4027 153.291 12.024 153.28C11.6118 153.279 11.1996 153.279 10.7749 153.278C10.4009 153.274 10.0269 153.27 9.64164 153.267C9.31528 153.265 8.98893 153.263 8.65268 153.261C7.87881 153.174 7.87881 153.174 7.21705 152.512C7.10407 151.883 7.10407 151.883 7.06316 151.105C7.04742 150.812 7.03168 150.519 7.01547 150.218C7.00308 149.899 6.9907 149.58 6.97794 149.251C6.96503 148.921 6.95213 148.591 6.93884 148.25C6.52497 135.348 6.52497 135.348 11.4256 129.603C12.7058 128.036 13.7755 126.331 14.8762 124.635C15.3832 123.859 15.9 123.089 16.4174 122.32C17.6957 120.419 18.933 118.499 20.131 116.546C21.5567 114.237 23.056 111.975 24.5469 109.708C26.804 106.273 29.0286 102.822 31.2104 99.3394C33.6252 95.4959 36.0681 91.6696 38.5413 87.8635C39.4633 86.443 40.376 85.0169 41.2835 83.5871C41.5148 83.2235 41.746 82.8599 41.9842 82.4852C42.4366 81.7733 42.8881 81.0609 43.3385 80.3477C43.5501 80.015 43.7617 79.6823 43.9797 79.3395C44.1645 79.0477 44.3492 78.7559 44.5396 78.4552C44.7801 78.0976 45.0206 77.74 45.2683 77.3715C45.4244 77.0677 45.5804 76.764 45.7412 76.451C47.6941 73.0892 50.0123 73.2407 53.5184 73.3631ZM52.5477 96.9015C50.4898 99.5652 48.7223 102.484 46.8814 105.301C46.5696 105.777 46.2578 106.254 45.946 106.73C45.0575 108.088 44.1702 109.446 43.283 110.804C43.0666 111.135 42.8502 111.467 42.6273 111.808C40.995 114.307 39.3714 116.812 37.7654 119.328C37.4453 119.829 37.4453 119.829 37.1188 120.341C36.6802 121.029 36.2422 121.717 35.8049 122.406C34.5416 124.389 33.2549 126.353 31.9413 128.303C31.5022 128.959 31.0634 129.615 30.6246 130.271C30.3382 130.697 30.05 131.122 29.7599 131.545C29.3547 132.137 28.9557 132.732 28.5576 133.329C28.3261 133.67 28.0947 134.011 27.8563 134.362C27.2438 135.382 27.2438 135.382 27.7317 136.955C35.9209 136.955 44.1102 136.955 52.5477 136.955C52.9527 136.144 52.9193 135.624 52.9184 134.717C52.9188 134.385 52.9193 134.053 52.9198 133.71C52.9186 133.344 52.9174 132.978 52.9161 132.601C52.9162 132.217 52.9162 131.833 52.9163 131.437C52.9161 130.162 52.9135 128.886 52.9109 127.611C52.9103 126.729 52.9098 125.847 52.9095 124.964C52.9085 122.877 52.9057 120.789 52.9024 118.701C52.8987 116.324 52.8969 113.947 52.8952 111.571C52.8918 106.681 52.886 101.791 52.8786 96.9015C52.7694 96.9015 52.6602 96.9015 52.5477 96.9015Z" fill="black"/>
<path d="M229.714 82.6064C230.562 82.6685 230.562 82.6685 231.224 83.3305C231.183 84.1581 231.183 84.1581 230.893 84.9856C230.211 85.4201 230.211 85.4201 229.57 85.6477C229.133 85.32 228.696 84.9923 228.246 84.6546C228.598 82.6923 228.598 82.6923 229.714 82.6064Z" fill="black"/>
<path d="M34.2245 169.808C35.0103 170.056 35.0103 170.056 35.3412 170.387C35.4032 171.194 35.4032 171.194 35.3412 172.042C35.1228 172.261 34.9044 172.479 34.6794 172.704C33.6454 172.58 33.6454 172.58 32.6942 172.373C32.4667 171.608 32.4667 171.608 32.3633 170.718C32.9122 169.803 33.1564 169.706 34.2245 169.808Z" fill="black"/>
<path d="M210.824 185.24C211.129 185.238 211.433 185.237 211.747 185.236C212.252 185.236 212.252 185.236 212.768 185.237C213.124 185.236 213.48 185.235 213.847 185.234C215.048 185.231 216.249 185.23 217.45 185.23C218.309 185.228 219.167 185.227 220.025 185.225C222.361 185.22 224.698 185.218 227.035 185.217C228.493 185.216 229.952 185.214 231.41 185.213C235.447 185.209 239.483 185.206 243.52 185.204C243.778 185.204 244.037 185.204 244.303 185.204C244.691 185.204 244.691 185.204 245.088 185.204C245.613 185.204 246.138 185.204 246.663 185.204C247.054 185.203 247.054 185.203 247.452 185.203C251.673 185.202 255.893 185.196 260.113 185.189C264.444 185.181 268.775 185.177 273.106 185.176C275.538 185.176 277.971 185.174 280.403 185.168C282.691 185.162 284.978 185.162 287.266 185.165C288.107 185.165 288.947 185.163 289.788 185.16C290.934 185.156 292.079 185.158 293.225 185.161C293.727 185.157 293.727 185.157 294.239 185.153C296.28 185.168 297.458 185.408 298.99 186.835C300.155 189.106 299.029 192.11 298.469 194.43C298.37 194.849 298.271 195.268 298.17 195.699C297.897 196.855 297.621 198.009 297.344 199.163C297.11 200.138 296.878 201.114 296.647 202.09C295.802 205.647 294.946 209.203 294.088 212.757C294.015 213.064 293.941 213.37 293.865 213.686C292.773 218.21 291.678 222.734 290.577 227.257C290.346 228.21 290.114 229.163 289.883 230.116C289.516 231.628 289.148 233.139 288.778 234.649C288.642 235.207 288.506 235.765 288.37 236.323C286.421 244.353 286.421 244.353 284.162 245.859C283.199 246.18 282.588 246.233 281.586 246.235C281.258 246.236 280.93 246.238 280.592 246.239C280.231 246.239 279.87 246.239 279.498 246.239C279.115 246.24 278.732 246.241 278.338 246.243C277.273 246.246 276.208 246.247 275.144 246.248C273.996 246.249 272.848 246.252 271.701 246.255C268.928 246.262 266.156 246.265 263.384 246.268C262.078 246.27 260.773 246.271 259.468 246.273C255.129 246.279 250.79 246.284 246.451 246.286C245.325 246.287 244.199 246.287 243.073 246.288C242.793 246.288 242.514 246.288 242.225 246.288C237.691 246.291 233.156 246.299 228.622 246.31C223.967 246.321 219.313 246.327 214.658 246.328C212.044 246.329 209.43 246.332 206.817 246.34C204.591 246.347 202.365 246.35 200.139 246.347C199.004 246.345 197.868 246.346 196.733 246.352C195.501 246.358 194.27 246.356 193.039 246.352C192.68 246.355 192.322 246.359 191.953 246.363C189.858 246.345 188.591 246.107 186.883 244.866C185.701 243.57 185.794 242.27 185.823 240.599C185.89 239.901 185.89 239.901 186.221 239.57C186.834 239.518 187.449 239.487 188.063 239.465C188.621 239.444 188.621 239.444 189.191 239.423C189.583 239.41 189.974 239.397 190.378 239.384C190.771 239.369 191.164 239.355 191.569 239.34C192.544 239.305 193.518 239.271 194.493 239.239C194.664 238.538 194.835 237.837 195.006 237.136C195.061 236.91 195.116 236.684 195.173 236.451C195.492 235.146 195.81 233.841 196.128 232.536C196.785 229.84 197.443 227.143 198.102 224.448C198.485 222.884 198.867 221.321 199.248 219.758C199.326 219.442 199.403 219.126 199.482 218.8C200.541 214.463 201.584 210.122 202.612 205.778C203.014 204.085 203.418 202.392 203.822 200.7C204.205 199.096 204.583 197.49 204.957 195.884C205.191 194.887 205.429 193.892 205.668 192.897C205.778 192.438 205.885 191.98 205.99 191.52C206.979 187.213 206.979 187.213 208.721 185.614C209.499 185.225 209.957 185.241 210.824 185.24ZM209.052 188.262C208.717 189.19 208.717 189.19 208.477 190.277C208.374 190.697 208.272 191.118 208.167 191.551C208.057 192.017 207.948 192.483 207.838 192.949C207.721 193.438 207.603 193.926 207.485 194.415C207.167 195.736 206.853 197.058 206.539 198.381C206.211 199.76 205.88 201.139 205.548 202.517C205.07 204.508 204.593 206.499 204.117 208.49C202.975 213.271 201.818 218.048 200.658 222.825C200.261 224.459 199.865 226.094 199.47 227.728C199.364 228.168 199.257 228.607 199.151 229.046C198.957 229.847 198.763 230.648 198.57 231.449C198.483 231.808 198.396 232.167 198.306 232.537C198.182 233.05 198.182 233.05 198.055 233.574C197.712 234.973 197.352 236.368 196.99 237.762C196.774 238.599 196.774 238.599 196.809 239.57C225.963 239.57 255.117 239.57 285.155 239.57C285.977 237.118 285.977 237.118 286.651 234.646C286.738 234.289 286.825 233.932 286.915 233.565C287.007 233.182 287.098 232.799 287.193 232.405C287.293 231.992 287.393 231.579 287.496 231.154C287.77 230.024 288.042 228.893 288.314 227.762C288.485 227.051 288.656 226.34 288.827 225.629C289.373 223.36 289.919 221.091 290.463 218.821C291.065 216.308 291.67 213.796 292.278 211.285C292.909 208.677 293.537 206.069 294.162 203.459C294.499 202.053 294.837 200.647 295.179 199.242C295.501 197.915 295.819 196.587 296.135 195.259C296.252 194.769 296.371 194.279 296.49 193.79C296.654 193.119 296.814 192.447 296.972 191.774C297.063 191.398 297.153 191.021 297.246 190.633C297.407 189.516 297.356 188.689 297.066 187.6C296.292 187.213 295.84 187.227 294.977 187.226C294.676 187.224 294.374 187.223 294.063 187.222C293.563 187.222 293.563 187.222 293.053 187.223C292.524 187.221 292.524 187.221 291.985 187.22C290.796 187.217 289.607 187.216 288.418 187.216C287.568 187.214 286.719 187.213 285.87 187.211C283.557 187.206 281.244 187.204 278.932 187.203C277.488 187.202 276.045 187.201 274.602 187.199C270.609 187.195 266.615 187.192 262.622 187.191C262.366 187.19 262.11 187.19 261.847 187.19C261.591 187.19 261.334 187.19 261.07 187.19C260.551 187.19 260.032 187.19 259.512 187.19C259.255 187.19 258.997 187.189 258.732 187.189C254.555 187.188 250.378 187.182 246.201 187.175C241.915 187.167 237.63 187.163 233.345 187.162C230.938 187.162 228.53 187.16 226.123 187.154C223.86 187.148 221.597 187.148 219.334 187.151C218.501 187.151 217.669 187.15 216.836 187.146C215.703 187.142 214.571 187.144 213.438 187.148C213.105 187.145 212.773 187.142 212.43 187.139C212.128 187.142 211.825 187.144 211.514 187.146C211.252 187.146 210.99 187.146 210.721 187.145C209.864 187.302 209.581 187.582 209.052 188.262Z" fill="black"/>
<path d="M92.977 188.055C93.1749 188.123 93.3728 188.191 93.5767 188.262C93.7835 189.213 93.7835 189.213 93.9076 190.248C93.2459 190.91 93.2459 190.91 92.4187 190.993C91.5914 190.91 91.5914 190.91 90.9297 190.248C90.9917 189.42 90.9917 189.42 91.2606 188.593C92.2532 187.931 92.2532 187.931 92.977 188.055Z" fill="black"/>
<path d="M250.741 193.89C252.596 195.141 253.395 196.571 254.347 198.562C254.492 198.856 254.637 199.149 254.787 199.452C255.249 200.389 255.704 201.329 256.159 202.269C256.462 202.887 256.765 203.504 257.069 204.121C257.662 205.328 258.253 206.537 258.842 207.746C259.594 209.287 260.358 210.821 261.127 212.352C262.037 214.164 262.918 215.987 263.769 217.827C264.938 220.326 266.188 222.774 267.496 225.203C269.929 229.74 269.929 229.74 269.601 231.626C269.053 232.456 268.79 232.805 267.947 233.281C266.559 233.534 265.183 233.507 263.776 233.495C263.14 233.5 263.14 233.5 262.492 233.504C261.333 233.512 260.173 233.509 259.014 233.503C257.799 233.499 256.585 233.503 255.37 233.506C253.331 233.509 251.292 233.505 249.252 233.497C246.896 233.488 244.54 233.491 242.183 233.5C240.158 233.507 238.134 233.508 236.109 233.504C234.901 233.502 233.692 233.501 232.483 233.507C231.136 233.512 229.789 233.504 228.441 233.495C227.842 233.5 227.842 233.5 227.23 233.505C224.222 233.467 224.222 233.467 223.203 232.489C222.569 231.556 222.285 231.099 222.285 229.971C222.907 228.313 223.671 226.999 224.725 225.564C224.868 225.368 225.011 225.172 225.159 224.97C225.469 224.544 225.781 224.118 226.093 223.693C226.78 222.756 227.458 221.813 228.137 220.87C228.683 220.112 229.23 219.355 229.778 218.597C230.865 217.093 231.952 215.588 233.039 214.082C233.397 213.586 233.756 213.089 234.114 212.593C234.292 212.347 234.469 212.101 234.652 211.848C235.19 211.103 235.727 210.358 236.265 209.613C236.442 209.367 236.62 209.122 236.803 208.868C237.16 208.373 237.518 207.878 237.875 207.383C238.789 206.118 239.702 204.852 240.613 203.585C241.508 202.341 242.406 201.098 243.306 199.857C243.619 199.426 243.931 198.994 244.243 198.562C244.642 198.01 245.044 197.46 245.447 196.911C245.774 196.461 245.774 196.461 246.109 196.003C247.505 194.338 248.516 193.539 250.741 193.89ZM246.109 205.807C245.248 208.947 245.252 212.49 245.116 215.737C245.098 216.148 245.08 216.559 245.062 216.982C245.052 217.363 245.043 217.744 245.033 218.137C245.025 218.473 245.016 218.81 245.007 219.156C245.135 220.192 245.367 220.637 246.109 221.365C247.267 221.585 247.267 221.585 248.425 221.365C249.391 220.382 249.602 219.482 249.804 218.142C249.861 217.77 249.917 217.398 249.976 217.014C250.03 216.62 250.085 216.226 250.141 215.82C250.198 215.419 250.255 215.018 250.313 214.604C250.975 210.212 250.975 210.212 250.741 205.807C249.978 204.822 249.663 204.524 248.425 204.317C247.188 204.523 246.884 204.836 246.109 205.807ZM244.847 224.882C244.041 225.757 243.792 226.138 243.792 227.323C244.17 228.079 244.517 228.71 245.116 229.309C246.835 229.473 246.835 229.473 248.404 228.937C248.917 228.03 249.066 227.374 249.086 226.33C248.452 225.187 248.023 224.769 246.791 224.323C245.745 224.263 245.745 224.263 244.847 224.882Z" fill="black"/>
<path d="M304.512 219.295C305.339 219.378 305.339 219.378 306.001 220.04C305.877 221.074 305.877 221.074 305.67 222.026C304.905 222.233 304.905 222.233 304.016 222.357C303.688 222.138 303.36 221.92 303.023 221.695C302.919 220.867 302.919 220.867 303.023 220.04C303.685 219.378 303.685 219.378 304.512 219.295Z" fill="black"/>
</svg>
