<svg width="288" height="208" viewBox="0 0 288 208" fill="none" xmlns="http://www.w3.org/2000/svg">
<path d="M161.419 0.999871C161.676 1.40557 161.931 1.81319 162.171 2.22903C162.718 2.91512 163.338 3.2704 164.087 3.72378C167.605 5.8713 170.076 8.62014 171.29 12.6219C171.29 12.9095 171.29 13.1972 171.29 13.4935C171.537 13.5643 171.783 13.6351 172.037 13.708C173.131 14.1109 174.06 14.6538 175.028 15.2913C175.206 15.4077 175.383 15.5242 175.565 15.6441C179.182 18.0566 179.182 18.0566 179.8 19.7948C179.71 20.7573 179.71 20.7573 179.083 21.3883C177.62 22.3306 176.164 22.1261 174.484 21.9195C172.807 21.5425 171.176 21.0131 169.548 20.4667C168.442 22.5347 167.629 24.6211 166.881 26.8407C166.051 29.2248 165.14 31.5081 163.96 33.7412C163.786 34.0718 163.786 34.0718 163.608 34.4091C162.599 36.2506 161.434 37.8589 159.677 39.0619C159.39 39.0619 159.103 39.0619 158.806 39.0619C158.806 39.2537 158.806 39.4455 158.806 39.643C159.033 39.6659 159.259 39.6887 159.493 39.7123C160.919 40.0112 162.176 40.5645 163.506 41.1503C163.796 41.2775 164.086 41.4047 164.385 41.5357C170.237 44.1464 175.85 47.2911 181.452 50.3934C181.709 50.5361 181.967 50.6788 182.233 50.8258C183.716 51.6477 185.197 52.4722 186.677 53.2989C186.688 53.0804 186.699 52.8618 186.71 52.6367C186.872 49.9927 187.312 47.4414 187.857 44.8548C187.901 44.6414 187.946 44.428 187.991 44.2082C192.601 22.1836 192.601 22.1836 199.818 16.1437C201.539 15.0326 203.272 15.0425 205.258 15.2368C208.689 16.0466 212.217 18.8101 214.132 21.7447C215.383 23.9483 215.636 25.7751 215.419 28.3116C215.15 29.2192 214.881 29.5906 214.258 30.3454C213.965 30.4533 213.671 30.5612 213.369 30.6723C212.442 31.1342 212.442 31.1342 212.262 32.057C212.129 32.7337 211.998 33.4109 211.869 34.0885C211.563 35.329 211.245 35.7455 210.194 36.447C209.468 36.7375 209.468 36.7375 208.742 36.7375C207.682 36.2574 207.027 35.6963 206.419 34.7037C206.419 34.5119 206.419 34.3202 206.419 34.1226C205.749 34.2185 205.078 34.3143 204.387 34.4131C204.483 34.7008 204.579 34.9884 204.677 35.2848C205.309 40.0623 205.32 44.929 205.331 49.7396C205.332 49.9973 205.334 50.255 205.335 50.5205C205.37 58.1913 205.371 58.1913 204.387 61.1437C204.681 61.0543 204.975 60.9648 205.278 60.8726C206.869 60.4186 208.497 60.2366 210.134 60.0223C210.716 59.9458 211.296 59.8656 211.877 59.7852C216.116 59.2213 216.116 59.2213 218.032 59.4004C218.496 59.8641 218.368 60.3454 218.371 60.9864C218.355 62.5036 218.14 63.9216 217.835 65.4044C217.785 65.6592 217.735 65.914 217.683 66.1765C217.524 66.9812 217.361 67.7851 217.198 68.5891C217.09 69.13 216.983 69.671 216.877 70.2121C216.435 72.4327 215.983 74.6403 215.419 76.8334C215.591 76.7739 215.763 76.7143 215.94 76.653C216.169 76.5747 216.399 76.4964 216.635 76.4158C216.861 76.3382 217.086 76.2607 217.319 76.1808C220.413 75.2309 224.334 75.2405 227.323 76.5429C230.812 78.4741 233.317 81.5317 235.433 84.8417C235.633 85.148 235.833 85.4544 236.039 85.77C236.621 86.6631 237.198 87.5591 237.774 88.4554C238.062 88.8979 238.351 89.3402 238.64 89.7822C239.284 90.7702 239.923 91.7618 240.558 92.7554C240.844 93.2021 241.131 93.6484 241.418 94.0944C245.808 100.916 249.986 107.864 254.032 114.895C254.216 115.214 254.4 115.533 254.589 115.862C257.296 120.57 259.962 125.3 262.579 130.059C262.875 130.592 263.175 131.123 263.48 131.651C263.614 131.884 263.748 132.117 263.886 132.357C264.004 132.558 264.122 132.759 264.243 132.966C264.484 133.491 264.484 133.491 264.411 134.29C263.707 135.196 262.873 135.84 261.871 136.396C261.679 136.396 261.488 136.396 261.29 136.396C261.537 136.79 261.537 136.79 261.788 137.192C262.003 137.538 262.218 137.884 262.433 138.23C262.542 138.403 262.65 138.576 262.762 138.754C263.232 139.513 263.62 140.194 263.903 141.045C264.087 141.017 264.27 140.988 264.459 140.959C266.376 140.661 268.293 140.364 270.21 140.068C270.924 139.957 271.639 139.847 272.353 139.736C273.383 139.576 274.413 139.417 275.442 139.257C275.759 139.208 276.076 139.159 276.402 139.108C278.775 138.742 281.112 138.384 283.518 138.412C283.818 138.415 284.118 138.417 284.427 138.42C284.758 138.425 286.258 138.23 287.419 139.108C288.223 141.555 288 143.587 285.097 145.694C281.758 148.454 278.572 150.445 275.277 152.358C273.322 153.502 271.462 154.773 269.603 156.066C268.705 156.688 267.798 157.297 266.893 157.908C265.623 158.768 264.36 159.636 263.102 160.513C262.382 161.015 261.658 161.512 260.934 162.009C260.595 162.243 260.258 162.478 259.923 162.716C259.463 163.042 258.998 163.36 258.532 163.678C258.272 163.86 258.011 164.042 257.743 164.229C256.679 164.691 256.014 164.565 254.903 164.289C252.43 161.891 251.365 157.502 250.585 154.247C249.907 151.544 248.603 149.166 247.065 146.856C246.855 147.048 246.645 147.24 246.429 147.437C245.524 148.081 245.237 148.186 244.161 148.018C243.65 147.494 243.65 147.494 243.194 146.767C242.946 146.378 242.946 146.378 242.692 145.981C242.524 145.706 242.356 145.432 242.183 145.149C242.01 144.877 241.837 144.604 241.658 144.324C240.387 142.304 240.387 142.304 240.387 141.626C238.95 141.626 237.513 141.626 236.032 141.626C236.074 142.136 236.117 142.646 236.16 143.172C236.655 149.175 237.148 155.179 237.639 161.183C237.731 162.303 237.822 163.423 237.914 164.543C238.175 167.727 238.435 170.912 238.693 174.096C238.807 175.505 238.922 176.913 239.037 178.322C239.147 179.657 239.255 180.991 239.363 182.326C239.402 182.818 239.443 183.31 239.483 183.802C239.539 184.479 239.593 185.156 239.648 185.833C239.678 186.213 239.709 186.592 239.741 186.983C239.813 188.23 239.806 189.48 239.806 190.729C250.537 190.729 261.267 190.729 272.323 190.729C272.418 191.113 272.514 191.496 272.613 191.891C272.032 192.472 272.032 192.472 271.378 192.545C270.965 192.544 270.965 192.544 270.545 192.544C270.229 192.545 269.914 192.547 269.59 192.548C269.069 192.545 269.069 192.545 268.538 192.543C268.173 192.544 267.809 192.544 267.433 192.545C266.432 192.546 265.431 192.544 264.43 192.541C263.384 192.538 262.337 192.539 261.291 192.539C259.534 192.539 257.777 192.536 256.019 192.532C253.986 192.528 251.953 192.526 249.919 192.526C247.965 192.526 246.012 192.525 244.058 192.523C243.225 192.522 242.393 192.521 241.56 192.521C240.399 192.521 239.237 192.518 238.075 192.515C237.728 192.515 237.381 192.515 237.023 192.515C236.708 192.514 236.393 192.513 236.068 192.511C235.793 192.511 235.519 192.51 235.235 192.51C234.581 192.472 234.581 192.472 234 192.182C234 192.374 234 192.565 234 192.763C234.202 192.792 234.404 192.821 234.612 192.851C235.602 193.09 236.38 193.485 237.28 193.964C237.538 194.101 237.538 194.101 237.802 194.241C238.165 194.435 238.528 194.63 238.891 194.826C239.436 195.12 239.984 195.409 240.532 195.698C243.85 197.466 247.792 199.748 249.097 203.513C249.296 205.729 249.296 205.729 248.806 206.709C246.362 207.359 243.659 206.888 241.176 206.663C240.714 206.622 240.252 206.582 239.79 206.542C234.931 206.109 230.089 205.528 225.249 204.924C224.331 204.81 223.414 204.698 222.496 204.586C219.859 204.265 217.224 203.933 214.589 203.593C213.969 203.513 213.35 203.435 212.73 203.356C211.584 203.21 210.44 203.058 209.295 202.904C208.786 202.839 208.786 202.839 208.266 202.773C207.802 202.709 207.802 202.709 207.329 202.644C207.061 202.608 206.792 202.572 206.516 202.536C205.748 202.326 205.444 202.11 204.968 201.479C204.498 198.522 205.365 195.315 205.839 192.472C175.372 192.472 144.906 192.472 113.516 192.472C113.516 192.472 111.138 192.472 111.194 192.472C110.877 192.473 110.877 192.473 110.554 192.473C98.054 192.486 85.5542 192.496 73.0543 192.502C71.5549 192.503 70.0554 192.504 68.556 192.504C68.2574 192.504 67.9589 192.505 67.6514 192.505C62.8119 192.507 57.9724 192.512 53.1329 192.517C48.1705 192.523 43.2082 192.526 38.2458 192.527C35.1815 192.528 32.1172 192.53 29.0529 192.535C26.9542 192.538 24.8555 192.539 22.7568 192.538C21.5443 192.538 20.3318 192.539 19.1194 192.542C18.0109 192.544 16.9024 192.545 15.7939 192.543C15.3914 192.542 14.9889 192.543 14.5865 192.545C14.0422 192.547 13.498 192.546 12.9538 192.544C12.6506 192.544 12.3474 192.544 12.0351 192.545C11.3226 192.472 11.3226 192.472 10.7419 191.891C10.8377 191.508 10.9335 191.124 11.0323 190.729C15.1519 190.633 19.2716 190.537 23.5161 190.439C22.9413 189.288 22.3665 188.137 21.7742 186.952C21.4437 186.121 21.1319 185.309 20.8488 184.464C20.7769 184.253 20.7049 184.041 20.6308 183.823C20.428 183.221 20.2298 182.617 20.0323 182.013C19.9357 181.728 19.8391 181.443 19.7397 181.15C18.3701 176.732 18.5189 171.656 20.436 167.435C21.669 165.267 23.3886 163.274 25.8387 162.546C28.0241 162.002 29.6808 162.34 31.6452 163.417C32.4254 163.998 32.4254 163.998 32.8065 164.58C32.76 165.149 32.76 165.149 32.5161 165.742C31.9877 166.134 31.9877 166.134 31.3186 166.504C27.6668 168.825 26.4062 173.375 25.4849 177.382C25.161 178.912 25.0269 180.451 24.9677 182.013C25.2552 182.013 25.5426 182.013 25.8387 182.013C25.8236 181.507 25.8236 181.507 25.8081 180.991C25.8094 179.761 26.0151 178.623 26.3286 177.436C26.407 177.135 26.407 177.135 26.487 176.827C27.4452 173.279 28.8609 169.682 31.9162 167.439C32.8646 167.053 33.8224 167.006 34.8387 166.904C34.9342 160.805 34.9342 160.805 34.5847 154.719C34.5619 154.479 34.5391 154.239 34.5156 153.992C34.3668 152.622 34.0935 151.366 33.6774 150.052C33.5607 150.295 33.5607 150.295 33.4415 150.542C31.7681 153.804 29.3514 155.759 25.9113 156.953C21.1369 158.475 16.2385 157.626 11.8671 155.373C8.85402 153.746 6.44626 151.633 4.07331 149.193C2.80631 147.895 1.48541 146.74 0 145.694C0.304569 143.717 2.33573 142.632 3.8309 141.513C10.271 136.928 18.7385 133.535 26.7097 133.2C26.9148 133.189 27.1199 133.177 27.3312 133.165C30.551 133.066 34.1067 133.475 36.5557 135.75C37.7169 137.053 38.1467 138.067 38.1105 139.867C37.9755 140.897 37.5531 141.439 36.871 142.207C34.9674 143.66 34.9674 143.66 33.6774 143.66C34.2388 145.513 34.8074 147.356 35.4556 149.18C36.8246 153.352 36.6215 157.499 36.503 161.832C36.4821 162.649 36.4701 163.465 36.4593 164.282C36.45 164.533 36.4407 164.783 36.4311 165.042C36.4255 165.695 36.4297 166.269 36.5806 166.904C37.2554 167.512 37.2554 167.512 38.0323 167.776C38.1281 167.871 38.2239 167.967 38.3226 168.066C38.3499 165.5 38.3753 162.978 38.0391 160.428C38.0321 159.617 38.2152 159.001 38.4564 158.234C38.8082 156.823 38.8599 155.347 38.994 153.902C39.7213 146.834 41.616 140.824 46.1613 135.234C45.7571 134.919 45.7571 134.919 45.3448 134.598C44.3238 133.729 43.6445 133.036 43.4565 131.652C43.3792 129.984 43.5519 128.957 44.7097 127.68C47.0986 125.512 50.2631 124.956 53.4057 125.003C62.1844 125.612 69.6748 130.248 75.6846 136.496C78.5716 139.82 81.1492 143.466 81 148.018C80.9042 148.114 80.8084 148.21 80.7097 148.309C78.7458 148.203 76.8888 147.759 74.9883 147.28C74.6851 147.205 74.6851 147.205 74.3759 147.128C74.1979 147.083 74.0199 147.038 73.8366 146.991C71.698 146.563 69.6356 146.538 67.4626 146.568C66.802 146.573 66.1414 146.578 65.4808 146.582C64.4515 146.591 63.4222 146.602 62.3929 146.615C50.9881 146.757 50.9881 146.757 47.267 143.372C46.3688 142.377 45.6753 141.33 45 140.173C42.3501 144.858 40.7231 150.444 40.9355 155.863C41.8936 155.767 42.8516 155.671 43.8387 155.573C43.8926 155.177 43.9465 154.781 44.002 154.374C44.3039 153.056 44.7417 152.384 45.8279 151.588C48.9052 149.745 52.4077 149.558 55.8792 150.254C61.5114 151.985 65.5233 156.385 68.2587 161.447C70.7071 166.206 71.7612 171.208 71.7641 176.528C71.7677 176.867 71.7712 177.206 71.7749 177.556C71.7755 177.883 71.776 178.21 71.7766 178.546C71.7778 178.842 71.779 179.138 71.7802 179.443C71.7065 180.306 71.4909 180.94 71.129 181.722C69.963 181.547 69.2333 180.943 68.2984 180.251C63.0312 176.505 54.0993 172.424 47.6129 172.424C44.1971 178.419 42.9115 183.747 41.5161 190.729C53.971 190.729 66.4258 190.729 79.2581 190.729C79.2581 189.77 79.2581 188.811 79.2581 187.824C79.2998 187.077 79.351 186.332 79.4124 185.587C79.429 185.381 79.4456 185.176 79.4627 184.964C79.5177 184.286 79.5744 183.607 79.6312 182.929C79.6713 182.439 79.7114 181.948 79.7513 181.458C79.8371 180.407 79.9237 179.356 80.0108 178.306C80.1486 176.644 80.2847 174.982 80.4206 173.321C80.6356 170.693 80.8517 168.066 81.0683 165.439C81.4565 160.73 81.8434 156.021 82.2291 151.312C82.3644 149.66 82.5005 148.008 82.637 146.357C82.7217 145.33 82.806 144.304 82.8901 143.277C82.9292 142.802 82.9686 142.326 83.0081 141.85C83.062 141.2 83.1152 140.551 83.1683 139.901C83.1983 139.538 83.2282 139.175 83.2591 138.8C83.2905 138.329 83.2905 138.329 83.3226 137.849C83.3426 137.582 83.3626 137.315 83.3833 137.04C83.3859 136.286 83.3859 136.286 82.5061 135.67C82.347 135.548 82.1879 135.426 82.0241 135.301C80.5772 134.134 80.3698 132.329 80.129 130.585C80.129 130.202 80.129 129.818 80.129 129.423C79.8356 129.453 79.5422 129.483 79.2399 129.514C77.2071 129.503 75.3315 128.668 73.4516 127.97C73.205 127.882 72.9585 127.793 72.7044 127.701C71.9165 127.416 71.1325 127.123 70.3488 126.826C70.0987 126.736 69.8486 126.645 69.591 126.552C68.0666 125.958 67.1979 125.458 66.4839 123.903C66.3501 122.99 66.3501 122.99 66.375 122.087C66.3787 121.785 66.3825 121.484 66.3863 121.174C66.4839 120.416 66.4839 120.416 67.0645 119.835C67.6634 119.765 67.6634 119.765 68.4097 119.769C68.6886 119.769 68.9676 119.769 69.255 119.769C69.5568 119.772 69.8586 119.775 70.1696 119.778C70.4781 119.779 70.7866 119.78 71.1044 119.781C72.0925 119.784 73.0805 119.791 74.0686 119.799C74.7373 119.801 75.406 119.804 76.0747 119.806C77.7165 119.813 79.3583 119.823 81 119.835C80.9459 119.452 80.9459 119.452 80.8906 119.061C80.4928 116.172 80.1883 113.281 79.9181 110.378C79.8734 109.905 79.8287 109.431 79.7839 108.957C79.6912 107.975 79.599 106.992 79.5073 106.01C79.3897 104.75 79.271 103.491 79.1519 102.232C79.06 101.258 78.9684 100.285 78.877 99.311C78.8333 98.8462 78.7896 98.3814 78.7457 97.9167C78.6849 97.271 78.6246 96.6252 78.5644 95.9794C78.5301 95.6125 78.4957 95.2456 78.4603 94.8676C78.3871 93.9759 78.3871 93.9759 78.3871 93.1042C78.012 93.1073 77.6368 93.1103 77.2503 93.1135C75.862 93.124 74.4737 93.1306 73.0853 93.1362C72.4838 93.1391 71.8822 93.1431 71.2807 93.1481C70.4174 93.1551 69.5541 93.1584 68.6908 93.161C68.4207 93.164 68.1506 93.167 67.8724 93.1701C67.4975 93.1701 67.4975 93.1701 67.1151 93.1702C66.7844 93.1721 66.7844 93.1721 66.447 93.1741C65.9032 93.1042 65.9032 93.1042 65.3226 92.5231C65.208 91.9129 65.208 91.9129 65.1491 91.1578C65.1262 90.8803 65.1033 90.6029 65.0798 90.3171C65.0581 90.0203 65.0364 89.7236 65.0141 89.4179C64.9902 89.1155 64.9663 88.8132 64.9417 88.5017C64.8724 87.6148 64.8069 86.7277 64.7419 85.8405C64.7084 85.4073 64.6748 84.9741 64.641 84.541C64.2894 79.7477 64.2894 79.7477 64.4516 78.2862C65.0323 77.7051 65.0323 77.7051 66.1909 77.6391C66.6915 77.6392 67.1922 77.6425 67.6928 77.6483C68.0879 77.6496 68.0879 77.6496 68.4909 77.6508C69.334 77.6541 70.1771 77.6614 71.0202 77.6688C71.591 77.6717 72.1618 77.6743 72.7326 77.6767C74.1336 77.6831 75.5345 77.6932 76.9355 77.7051C76.9355 77.0339 76.9355 76.3627 76.9355 75.6712C76.6011 75.7182 76.2666 75.7651 75.9221 75.8135C74.6929 75.9666 73.4847 76.0086 72.2472 76.0106C72.0328 76.0116 71.8184 76.0125 71.5974 76.0135C71.149 76.015 70.7007 76.0157 70.2523 76.0156C69.5642 76.0163 68.8764 76.0216 68.1884 76.027C67.751 76.0279 67.3136 76.0285 66.8763 76.0288C66.6706 76.0308 66.465 76.0329 66.2531 76.0351C64.8084 76.0283 64.8084 76.0283 64.1613 75.3807C64.049 74.6403 63.9702 73.9239 63.9141 73.1789C63.8956 72.9572 63.877 72.7355 63.858 72.5071C63.8192 72.0353 63.7817 71.5634 63.7454 71.0914C63.6907 70.3833 63.6315 69.6758 63.5716 68.9682C63.4606 67.62 63.3674 66.2714 63.2903 64.9209C63.2786 64.7159 63.2669 64.5109 63.2548 64.2997C63.2264 63.7338 63.2093 63.1674 63.1928 62.601C63.178 62.1236 63.178 62.1236 63.1629 61.6366C63.2903 60.8532 63.2903 60.8532 63.7217 60.3763C64.777 59.8056 65.7964 59.8539 66.9668 59.8559C67.2211 59.853 67.4754 59.85 67.7374 59.8469C68.583 59.8381 69.4284 59.8355 70.2739 59.8329C70.8707 59.828 71.4675 59.8227 72.0643 59.8171C73.6456 59.8032 75.2269 59.7946 76.8082 59.787C78.373 59.7785 79.9377 59.7648 81.5024 59.7517C88.7865 59.6934 96.0705 59.6776 103.355 59.691C103.373 59.4731 103.392 59.2551 103.411 59.0306C103.436 58.7439 103.462 58.4572 103.487 58.1618C103.512 57.878 103.537 57.5941 103.562 57.3017C104.168 51.4181 107.566 45.4398 112.065 41.6769C117.504 37.9545 124.461 36.3212 130.989 36.0849C131.311 36.0694 131.633 36.0539 131.965 36.038C132.609 36.0085 133.254 35.9895 133.899 35.9821C135.63 35.8998 135.63 35.8998 137.084 35.0401C137.621 34.372 138.061 33.7051 138.484 32.9604C138.645 32.6823 138.645 32.6823 138.81 32.3985C140.964 28.4425 140.964 28.4425 141.587 24.1837C141.384 23.6107 141.384 23.6107 140.952 22.9364C140.061 21.4505 140.047 19.8358 140.226 18.1423C140.601 16.8316 140.972 15.8109 142.12 15.0269C143.137 14.0908 143.188 13.2041 143.401 11.8773C144.047 8.53635 145.28 5.72556 148.065 3.61482C150.774 2.06327 153.347 1.48464 156.429 1.58097C156.915 1.5958 157.401 1.60802 157.887 1.61729C158.204 1.6274 158.204 1.6274 158.528 1.63772C159.717 1.51905 160.123 0.746661 161.419 0.999871ZM147.484 6.52032C146.251 8.18789 145.685 10.0567 145.161 12.0408C146.05 11.9991 146.94 11.9566 147.829 11.9137C148.074 11.9022 148.319 11.8908 148.572 11.879C149.973 11.8108 151.368 11.7185 152.765 11.5993C154.948 11.4278 157.126 11.3904 159.315 11.387C159.618 11.386 159.618 11.386 159.928 11.385C163.016 11.3811 165.961 11.57 168.968 12.3313C168.61 9.81077 166.691 7.79477 164.807 6.19799C159.762 2.6205 152.114 1.61511 147.484 6.52032ZM152.129 13.203C152.85 14.6464 155.873 15.3128 157.355 15.8179C159.241 16.3648 161.167 16.7471 163.089 17.1436C164.113 17.3618 165.137 17.5836 166.161 17.8064C166.53 17.8864 166.53 17.8864 166.908 17.968C169.055 18.4388 171.166 19.0071 173.257 19.6893C174.778 20.1684 176.081 20.2376 177.677 20.1762C176.277 17.124 171.925 15.3134 168.968 14.0746C165.9 12.9739 162.835 12.8624 159.605 12.8761C159.285 12.8767 158.966 12.8772 158.637 12.8778C156.455 12.8894 154.299 12.9612 152.129 13.203ZM143.183 16.2719C142.204 17.3639 142.006 18.298 141.877 19.7404C142.009 21.2248 142.444 22.1163 143.51 23.1543C144.333 23.6905 145.089 23.9806 146.032 24.2439C145.936 24.5315 145.841 24.8192 145.742 25.1155C145.071 25.1155 144.401 25.1155 143.71 25.1155C143.646 25.2747 143.582 25.4339 143.517 25.5979C143.317 26.0983 143.116 26.5984 142.915 27.0983C142.656 27.7506 142.403 28.4054 142.155 29.0618C140.91 32.3315 139.64 35.4781 136.742 37.6092C137.111 40.038 138.81 41.6119 140.641 43.1353C142.906 44.7977 145.991 46.7732 148.935 46.3257C150.566 45.4227 151.096 43.8755 151.802 42.2398C151.983 41.8429 151.983 41.8429 152.168 41.438C152.896 39.9992 152.896 39.9992 152.71 38.4808C152.171 38.011 152.171 38.011 151.512 37.5547C148.32 35.1405 148.32 35.1405 147.865 33.3258C147.82 33.0011 147.82 33.0011 147.774 32.6698C148.349 32.526 148.349 32.526 148.935 32.3793C149.079 32.5905 149.079 32.5905 149.225 32.806C150.675 34.8517 152.793 36.2311 153.871 36.447C159.324 37.5383 160.548 34.2679 159.151 37.2278C163.281 33.6497 165.046 27.0301 166.693 22.0384C166.945 21.3106 167.225 20.5985 167.516 19.8856C166.511 19.4522 165.565 19.1756 164.488 18.9811C164.187 18.9247 163.887 18.8684 163.577 18.8104C163.26 18.7517 162.943 18.6931 162.617 18.6326C160.075 18.1489 157.677 17.5661 155.262 16.6374C154.41 16.3867 154.082 16.3026 153.29 16.6896C152.688 17.2717 152.688 17.2717 152.129 17.9789C150.874 19.5075 150.874 19.5075 149.806 19.8856C148.863 19.7767 148.863 19.7767 148.065 19.5951C148.015 19.4164 147.966 19.2378 147.915 19.0537C147.498 17.6222 147.498 17.6222 146.685 16.399C145.402 15.8283 144.447 15.5697 143.183 16.2719ZM198.29 20.4667C197.711 21.3526 197.213 22.2675 196.73 23.2088C196.594 23.4725 196.458 23.7362 196.318 24.0079C190.846 34.9541 188.912 47.3323 187.839 59.4004C187.455 59.3046 187.072 59.2087 186.677 59.1099C186.582 57.7675 186.486 56.4252 186.387 55.0422C185.142 54.4669 183.896 53.8916 182.613 53.2989C182.564 53.724 182.514 54.1491 182.463 54.5871C182.04 58.0976 181.484 61.5016 180.581 64.9209C183.649 64.7714 186.644 64.3054 189.67 63.8033C190.48 63.6692 191.29 63.5381 192.101 63.4074C195.541 62.8462 198.95 62.184 202.355 61.4343C204.264 54.9174 203.598 47.5855 203.272 40.8837C203.242 40.2773 203.216 39.6707 203.193 39.0641C203.161 38.2994 203.114 37.5373 203.063 36.7738C203.055 36.5531 203.048 36.3324 203.041 36.105C203.004 35.398 203.004 35.398 202.645 34.4131C202.085 33.9585 201.514 33.6307 200.879 33.2904C200.114 32.8365 199.827 32.3307 199.47 31.5258C199.358 31.2752 199.247 31.0247 199.132 30.7665C198.833 29.9521 198.649 29.1771 198.581 28.3116C199.06 28.3116 199.539 28.3116 200.032 28.3116C200.082 28.4835 200.131 28.6554 200.182 28.8325C200.607 30.22 200.983 31.3592 202.065 32.3793C202.971 32.7709 202.971 32.7709 203.806 32.9604C203.747 32.7675 203.687 32.5746 203.626 32.3759C203.548 32.1193 203.47 31.8628 203.389 31.5984C203.312 31.3456 203.234 31.0928 203.154 30.8323C202.808 29.6023 202.609 28.4687 202.617 27.1891C202.618 26.8029 202.618 26.8029 202.62 26.4088C202.623 26.0113 202.623 26.0113 202.627 25.6058C202.628 25.3352 202.63 25.0646 202.631 24.7858C202.634 24.1209 202.639 23.456 202.645 22.7911C203.028 22.7911 203.412 22.7911 203.806 22.7911C203.828 23.2805 203.828 23.2805 203.85 23.7797C203.939 28.2114 203.939 28.2114 205.839 32.0887C206.03 32.0887 206.222 32.0887 206.419 32.0887C206.732 30.5068 206.803 28.9375 206.873 27.331C206.892 26.927 206.892 26.927 206.911 26.5149C206.942 25.8548 206.971 25.1946 207 24.5344C207.383 24.4385 207.766 24.3427 208.161 24.2439C208.487 26.7386 208.423 28.9576 207.99 31.4292C207.818 32.5875 207.774 33.2792 208.437 34.2781C208.633 34.5144 208.83 34.7507 209.032 34.9942C210.018 34.2322 210.259 33.2654 210.484 32.0887C210.591 30.9337 210.631 29.7795 210.665 28.6203C210.677 28.3107 210.688 28.0012 210.699 27.6822C210.727 26.9236 210.751 26.1649 210.774 25.4061C211.157 25.4061 211.541 25.4061 211.935 25.4061C212.223 27.2758 212.223 27.2758 212.516 29.1832C213.689 28.2078 213.689 28.2078 213.842 27.3741C213.837 24.6807 212.862 22.7919 211.028 20.8481C208.903 18.8455 206.497 17.1536 203.534 16.8712C201.087 16.955 199.694 18.6642 198.29 20.4667ZM111.194 45.1635C111.014 45.3346 110.834 45.5058 110.648 45.6822C102.77 53.7075 103.651 69.5984 103.355 80.0295C104.959 79.9109 106.541 79.7583 108.124 79.4665C113.819 78.4253 119.336 78.3696 125.129 78.2862C125.321 71.6704 125.512 65.0545 125.71 58.2382C126.189 58.1424 126.668 58.0465 127.161 57.9477C127.092 60.7839 127.022 63.6201 126.949 66.4563C126.916 67.7731 126.883 69.0899 126.851 70.4068C126.82 71.6766 126.788 72.9463 126.755 74.216C126.742 74.7015 126.73 75.187 126.719 75.6726C126.703 76.3503 126.685 77.0279 126.667 77.7056C126.663 77.9083 126.658 78.111 126.654 78.3199C126.614 79.7058 126.614 79.7058 126.29 80.0295C125.428 80.1254 124.566 80.2213 123.677 80.32C123.677 82.9088 123.677 85.4976 123.677 88.1649C126.163 88.4698 128.649 88.7732 131.136 89.0741C132.29 89.2139 133.445 89.3543 134.599 89.4962C135.715 89.6334 136.832 89.7688 137.948 89.9031C138.372 89.9544 138.796 90.0063 139.22 90.0588C143.557 90.687 143.557 90.687 147.822 90.0013C148.129 89.899 148.437 89.7968 148.754 89.6914C149.065 89.5832 149.377 89.4749 149.698 89.3634C155.265 87.4817 155.265 87.4817 158.371 87.5475C158.61 87.5501 158.849 87.5527 159.095 87.5554C159.676 87.5622 160.257 87.5726 160.839 87.5838C161.91 83.8933 162.629 80.1526 163.343 76.3795C163.515 75.4732 163.687 74.567 163.861 73.6611C163.968 73.1022 164.074 72.5431 164.179 71.9837C164.734 69.0838 164.734 69.0838 165.194 68.1169C165.912 67.8293 165.912 67.8293 166.645 67.5358C166.933 64.4676 167.22 61.3994 167.516 58.2382C167.899 58.3341 168.283 58.43 168.677 58.5288C168.582 61.3094 168.486 64.0899 168.387 66.9547C171.9 66.4559 171.9 66.4559 175.409 65.9378C175.647 65.9037 175.884 65.8696 176.129 65.8345C176.357 65.7997 176.584 65.7649 176.819 65.729C177.02 65.6992 177.22 65.6694 177.427 65.6388C178.06 65.5108 178.06 65.5108 178.839 64.9209C179.081 64.4104 179.081 64.4104 179.221 63.8098C179.311 63.4723 179.311 63.4723 179.402 63.1281C179.492 62.7661 179.492 62.7661 179.583 62.3967C179.645 62.1494 179.708 61.9021 179.773 61.6472C180.311 59.4575 180.663 57.2893 180.871 55.0422C180.928 54.6467 180.928 54.6467 180.986 54.2432C181.089 53.478 181.089 53.478 180.871 52.4272C180.46 52.0371 180.46 52.0371 179.904 51.7429C179.692 51.6198 179.481 51.4968 179.263 51.37C179.027 51.2395 178.791 51.109 178.548 50.9745C178.299 50.835 178.05 50.6955 177.793 50.5517C176.953 50.0874 176.109 49.631 175.264 49.1767C174.957 49.0112 174.649 48.8458 174.333 48.6753C173.708 48.3396 173.084 48.0043 172.459 47.6695C171.682 47.2519 170.908 46.8304 170.134 46.4074C162.655 42.0039 162.655 42.0039 154.452 39.9336C154.371 40.1211 154.291 40.3087 154.208 40.5019C153.84 41.3554 153.465 42.2062 153.091 43.057C152.964 43.3521 152.838 43.6473 152.708 43.9513C151.498 46.6787 151.498 46.6787 150.097 47.4879C147.336 48.409 144.59 47.1076 142.113 45.8717C138.869 44.0131 136.356 41.3951 135 37.8997C126.739 37.6072 117.17 38.9149 111.194 45.1635ZM80.4194 75.6712C80.4194 76.3424 80.4194 77.0136 80.4194 77.7051C87.509 77.6092 94.5987 77.5133 101.903 77.4145C101.903 76.8392 101.903 76.264 101.903 75.6712C94.8136 75.6712 87.7239 75.6712 80.4194 75.6712ZM194.147 89.4739C193.025 90.0893 191.898 90.6957 190.771 91.3028C187.922 92.8393 185.092 94.4057 182.279 96.0064C180.142 97.2212 177.995 98.4155 175.845 99.6053C173.496 100.905 171.161 102.224 168.841 103.575C167.597 104.298 166.349 105.012 165.1 105.726C164.452 106.104 163.816 106.493 163.182 106.894C160.837 108.273 158.933 108.299 156.29 108.279C152.81 108.355 149.853 109.888 146.784 111.411C145.992 111.715 145.421 111.757 144.581 111.699C144.581 111.412 144.581 111.124 144.581 110.828C146.114 110.157 147.646 109.485 149.226 108.794C148.177 108.094 147.573 108.1 146.323 108.031C145.963 108.01 145.604 107.988 145.234 107.965C144.823 107.95 144.411 107.936 144 107.922C143.754 107.909 143.507 107.896 143.254 107.883C141.211 107.816 139.565 108.183 137.649 108.867C137.353 108.969 137.058 109.071 136.753 109.176C133.257 110.409 129.848 111.859 126.436 113.305C124.862 113.968 123.281 114.614 121.7 115.259C121.178 115.472 120.655 115.685 120.133 115.899C119.766 116.049 119.399 116.198 119.032 116.348C119.518 120.228 121.591 123.789 123.968 126.808C124.171 127.068 124.373 127.327 124.582 127.595C129.01 132.878 135.879 135.343 142.548 136.106C143.971 136.188 145.388 136.203 146.813 136.196C147.195 136.195 147.578 136.193 147.973 136.191C150.892 136.155 153.653 135.95 156.484 135.234C156.713 135.176 156.943 135.119 157.179 135.059C168.368 132.145 177.602 124.885 186.813 118.179C189.762 116.034 192.76 113.967 195.782 111.927C196.497 111.444 197.21 110.957 197.922 110.47C207.381 104.035 207.381 104.035 211.753 102.948C211.977 102.89 212.202 102.832 212.433 102.772C212.879 102.661 213.326 102.559 213.776 102.467C214.484 102.315 214.484 102.315 215.419 101.821C215.801 101.025 215.883 100.387 216 99.4963C216.287 99.4963 216.575 99.4963 216.871 99.4963C216.967 100.263 217.063 101.03 217.161 101.821C217.561 101.895 217.561 101.895 217.969 101.971C220.822 102.535 223.051 103.049 225 105.307C225.133 105.458 225.266 105.608 225.404 105.764C227.906 108.808 229.786 113.195 229.596 117.159C229.426 121.966 231.32 125.012 233.993 128.865C234.643 129.803 235.26 130.756 235.873 131.718C236.243 132.299 236.618 132.876 236.995 133.452C238.444 135.675 239.847 137.927 241.258 140.173C242.882 139.178 244.463 138.154 245.976 136.995C250.167 133.801 254.566 130.865 258.968 127.97C258.796 126.846 258.462 126.019 257.903 125.032C257.741 124.745 257.58 124.458 257.414 124.162C257.238 123.855 257.062 123.547 256.881 123.231C256.698 122.907 256.515 122.584 256.326 122.251C254.429 118.91 252.498 115.591 250.548 112.281C250.327 111.903 250.105 111.526 249.884 111.149C247.416 106.949 244.951 102.756 242.263 98.6919C241.565 97.6252 240.884 96.5477 240.2 95.4718C238.403 92.6466 236.589 89.8332 234.744 87.039C234.562 86.7615 234.381 86.4839 234.194 86.1979C231.643 82.3568 228.893 78.4167 224.129 77.4145C213.942 76.3887 202.79 84.7099 194.147 89.4739ZM115.784 79.9387C115.487 79.9645 115.19 79.9903 114.883 80.0169C109.705 80.3348 109.705 80.3348 104.806 81.7728C104.792 83.6591 104.782 85.5453 104.775 87.4316C104.772 88.0721 104.768 88.7126 104.763 89.3531C104.756 90.2785 104.752 91.2039 104.75 92.1293C104.747 92.4115 104.744 92.6937 104.741 92.9845C104.74 95.8587 104.92 98.6765 106.839 100.949C110.58 104.61 117.946 103.966 122.724 103.917C128.704 103.824 135.107 103.141 140.806 101.24C141.241 101.213 141.677 101.202 142.113 101.203C142.337 101.203 142.562 101.202 142.793 101.201C143.419 101.24 143.419 101.24 144.29 101.53C146.023 101.685 147.465 101.685 148.935 100.659C149.795 99.8034 150.493 98.8753 150.968 97.753C153.098 97.8652 154.854 99.1728 156.466 100.477C157.051 101.039 157.051 101.039 157.935 100.949C158.256 99.9378 158.419 99.0952 158.226 98.0436C157.463 97.3059 156.684 96.8016 155.769 96.2674C155.032 95.7192 155.032 95.7192 154.785 94.9259C154.771 94.7082 154.757 94.4906 154.742 94.2664C156.185 94.7791 157.481 95.5431 158.806 96.3003C158.866 95.9288 158.926 95.5572 158.988 95.1744C159.022 94.9654 159.055 94.7564 159.09 94.5411C159.092 94.3546 159.094 94.1681 159.097 93.9759C158.295 93.1733 157.585 93.2267 156.484 93.1042C156.58 92.7207 156.675 92.3372 156.774 91.942C157.797 91.9188 158.696 91.9304 159.677 92.2326C160.024 91.1062 160.258 90.2231 160.258 89.0365C158.518 88.1658 156.223 88.8653 154.452 89.3634C154.095 89.459 154.095 89.459 153.732 89.5566C152.546 89.8839 151.386 90.2459 150.236 90.6834C150.026 90.7629 149.816 90.8425 149.599 90.9244C149.212 91.0749 148.827 91.2314 148.445 91.3957C145.281 92.6399 141.501 91.8857 138.228 91.4642C137.824 91.414 137.421 91.364 137.017 91.3141C136.178 91.2099 135.338 91.104 134.498 90.9968C133.441 90.8618 132.383 90.7296 131.325 90.5983C126.831 90.0407 122.344 89.4538 117.871 88.746C117.871 88.3625 117.871 87.9789 117.871 87.5838C119.116 87.5838 120.362 87.5838 121.645 87.5838C121.892 86.5966 121.97 85.9074 121.964 84.9098C121.963 84.6252 121.962 84.3405 121.961 84.0473C121.959 83.7521 121.956 83.457 121.954 83.1529C121.952 82.8533 121.951 82.5536 121.95 82.2449C121.946 81.5064 121.941 80.768 121.935 80.0295C119.846 79.7464 117.881 79.7479 115.784 79.9387ZM189 80.9011C188.29 81.9666 188.178 82.859 188.419 84.0972C188.992 84.8894 188.992 84.8894 189.871 85.2594C190.774 85.355 190.774 85.355 191.613 84.9688C192.394 84.0845 192.737 83.4885 192.901 82.3176C192.757 81.3717 192.602 80.9708 191.903 80.32C190.657 79.8279 190.041 80.1125 189 80.9011ZM81.5807 93.1042C81.5807 94.7811 81.6065 96.3836 81.7626 98.0421C81.782 98.2579 81.8013 98.4737 81.8213 98.696C81.8847 99.3999 81.9498 100.104 82.015 100.807C82.06 101.301 82.1048 101.795 82.1496 102.288C82.2433 103.319 82.3378 104.349 82.433 105.379C82.5546 106.697 82.6747 108.015 82.7941 109.333C82.8865 110.351 82.9796 111.368 83.0729 112.386C83.1174 112.872 83.1617 113.358 83.2058 113.844C83.2677 114.523 83.3304 115.202 83.3934 115.881C83.4114 116.08 83.4293 116.279 83.4478 116.484C83.5539 117.617 83.7156 118.708 83.9032 119.835C95.2084 119.835 106.514 119.835 118.161 119.835C117.874 118.972 117.586 118.109 117.29 117.22C116.617 117.012 115.939 116.818 115.258 116.639C113.048 113.543 112.764 108.716 112.355 105.017C112.2 104.967 112.045 104.918 111.885 104.867C106.728 103.188 106.728 103.188 105.387 101.53C105.184 101.29 104.98 101.051 104.77 100.804C103.498 98.4269 103.329 95.7497 103.065 93.1042C95.9748 93.1042 88.8852 93.1042 81.5807 93.1042ZM151.548 99.4963C151.435 99.7121 151.321 99.9278 151.204 100.15C150.632 101.019 150.061 101.5 149.226 102.111C148.843 102.399 148.459 102.687 148.065 102.983C151.035 102.983 154.005 102.983 157.065 102.983C156.585 102.599 156.106 102.216 155.613 101.821C155.394 101.64 155.176 101.459 154.951 101.273C154.738 101.1 154.525 100.927 154.306 100.749C154.094 100.574 153.881 100.4 153.662 100.219C152.945 99.7513 152.391 99.6076 151.548 99.4963ZM140.516 102.692C140.516 102.788 140.516 102.884 140.516 102.983C141.666 102.983 142.815 102.983 144 102.983C142.619 102.292 141.967 102.378 140.516 102.692ZM199.742 110.828C199.545 110.96 199.348 111.092 199.145 111.228C197.994 112.004 196.853 112.794 195.716 113.59C195.045 114.06 194.373 114.528 193.701 114.995C191.363 116.625 189.037 118.268 186.732 119.944C173.859 129.287 173.859 129.287 168.387 132.038C168.387 132.134 168.387 132.23 168.387 132.329C171.035 132.378 173.6 132.276 176.226 131.929C176.773 131.858 176.773 131.858 177.331 131.786C182.887 131.033 188.395 129.927 193.903 128.884C194.365 128.796 194.365 128.796 194.837 128.707C195.265 128.625 195.265 128.625 195.701 128.542C195.95 128.495 196.198 128.447 196.455 128.398C197.072 128.272 197.681 128.129 198.29 127.97C198.252 127.798 198.213 127.626 198.174 127.449C198.068 126.975 197.963 126.501 197.858 126.026C197.752 125.547 197.642 125.07 197.528 124.593C197.352 123.478 197.196 122.316 197.71 121.288C198.093 121.288 198.476 121.288 198.871 121.288C198.878 121.527 198.886 121.766 198.894 122.012C199.006 124.215 199.359 125.984 200.323 127.97C201.076 126.839 201.687 125.649 202.319 124.447C202.445 124.21 202.571 123.972 202.701 123.728C203.523 122.166 204.273 120.586 204.968 118.963C205.351 118.963 205.734 118.963 206.129 118.963C205.413 121.679 204.195 124.086 202.902 126.566C201.007 130.237 200.798 133.321 201.301 137.358C201.445 138.517 201.578 139.678 201.712 140.838C201.74 141.087 201.769 141.336 201.799 141.592C202.15 144.642 202.44 147.697 202.729 150.752C202.785 151.342 202.841 151.932 202.898 152.522C203.04 154.017 203.181 155.513 203.322 157.008C203.55 159.425 203.779 161.841 204.009 164.258C204.087 165.086 204.165 165.913 204.243 166.741C204.56 170.091 204.899 173.437 205.258 176.783C207.593 176.675 209.927 176.566 212.262 176.457C213.346 176.406 214.431 176.355 215.515 176.305C216.563 176.257 217.612 176.208 218.66 176.158C219.058 176.14 219.456 176.121 219.854 176.103C222.061 176.002 224.256 175.874 226.452 175.62C226.748 173.841 226.835 172.075 226.908 170.274C226.922 169.944 226.937 169.614 226.951 169.274C226.998 168.179 227.043 167.083 227.088 165.988C227.112 165.41 227.136 164.832 227.16 164.254C227.272 161.56 227.38 158.866 227.486 156.172C227.494 155.961 227.503 155.75 227.511 155.533C228.132 140.033 228.132 140.033 228.373 124.523C228.375 123.89 228.38 123.257 228.386 122.624C228.462 116.707 228.462 116.707 226.742 111.118C226.661 110.945 226.581 110.772 226.497 110.594C225.15 107.722 223.556 105.429 220.633 104.055C213.351 101.481 205.497 106.957 199.742 110.828ZM134.71 104.145C134.425 104.182 134.425 104.182 134.135 104.221C133.25 104.336 132.365 104.449 131.48 104.563C131.182 104.602 130.883 104.641 130.576 104.681C126.587 105.19 122.648 105.349 118.633 105.326C118.19 105.324 117.747 105.323 117.304 105.322C116.235 105.318 115.166 105.313 114.097 105.307C114.228 107.482 114.406 109.583 114.931 111.699C114.978 111.906 115.025 112.112 115.073 112.325C115.358 113.511 115.731 114.468 116.419 115.477C117.675 115.307 118.732 115 119.898 114.507C120.232 114.367 120.566 114.227 120.911 114.083C121.271 113.93 121.63 113.777 121.99 113.624C122.552 113.388 123.114 113.153 123.676 112.917C124.062 112.755 124.448 112.593 124.834 112.431C126.862 111.579 128.898 110.748 130.935 109.92C131.264 109.786 131.593 109.652 131.931 109.514C133.243 108.98 134.556 108.448 135.871 107.922C135.788 107.51 135.703 107.099 135.617 106.687C135.57 106.458 135.523 106.229 135.474 105.993C135.292 105.315 135.031 104.766 134.71 104.145ZM46.0887 128.751C45.9211 128.973 45.7534 129.195 45.5806 129.423C45.4848 129.519 45.389 129.615 45.2903 129.714C45.2068 130.564 45.1485 131.21 45.2903 132.038C46.1959 133.051 47.1747 133.473 48.4839 133.781C49.3835 133.552 49.3835 133.552 50.244 133.109C54.5278 131.095 58.7747 132.223 63.0553 133.712C64.3146 134.175 65.5462 134.692 66.7742 135.234C67.1576 135.396 67.1576 135.396 67.5488 135.562C68.1895 135.851 68.1895 135.851 69.0968 136.396C69.2986 137.011 69.2986 137.011 69.3871 137.558C68.1118 137.401 67.189 137.087 66.0665 136.469C64.0442 135.42 61.9776 134.734 59.8065 134.072C59.592 134 59.3776 133.927 59.1566 133.853C56.0689 132.907 52.8323 133.36 49.9355 134.653C48.6154 135.357 47.5141 136.112 47.0323 137.558C46.8864 139.339 47.0001 140.212 48.1936 141.626C51.1987 144.709 55.4463 145.011 59.5161 145.113C60.4632 145.115 61.41 145.106 62.357 145.095C62.6123 145.092 62.8675 145.089 63.1305 145.086C63.3904 145.083 63.6503 145.08 63.918 145.077C64.4528 145.07 64.9875 145.064 65.5222 145.058C65.7871 145.055 66.0521 145.052 66.325 145.048C70.8036 145.004 74.9123 145.405 79.2581 146.565C78.6218 143.168 77.0211 140.709 74.6458 138.213C74.0323 137.558 74.0323 137.558 73.463 136.826C69.1783 131.61 61.2636 127.572 54.5806 126.808C51.79 126.591 48.2161 126.647 46.0887 128.751ZM229.645 129.423C229.633 129.907 229.633 130.392 229.645 130.876C229.96 131.257 229.96 131.257 230.726 131.195C231.046 131.191 231.366 131.188 231.696 131.184C232.016 131.182 232.337 131.179 232.667 131.177C232.916 131.173 233.164 131.17 233.419 131.166C233.104 130.222 233.104 130.222 232.548 129.423C232.059 129.402 231.569 129.399 231.079 129.405C230.812 129.407 230.545 129.41 230.27 129.413C230.064 129.416 229.858 129.42 229.645 129.423ZM257.752 130.585C257.469 130.776 257.469 130.776 257.181 130.971C252.653 134.04 248.179 137.188 243.763 140.416C243.322 140.732 242.871 141.034 242.419 141.336C242.875 143.069 243.798 144.482 244.742 145.984C246.272 145.51 247.421 144.542 248.679 143.587C250.655 142.11 252.645 140.66 254.667 139.247C255.026 138.996 255.026 138.996 255.392 138.739C256.557 137.925 257.728 137.124 258.914 136.343C259.132 136.198 259.35 136.053 259.574 135.904C259.982 135.634 260.392 135.367 260.805 135.103C261.411 134.714 261.411 134.714 262.161 134.072C262.161 132.732 261.855 132.232 261.181 131.094C261 130.781 260.818 130.467 260.63 130.145C260.465 129.907 260.299 129.668 260.129 129.423C259.184 129.423 258.511 130.068 257.752 130.585ZM121.818 129.434C121.485 129.436 121.152 129.439 120.809 129.441C120.258 129.446 120.258 129.446 119.697 129.45C119.308 129.453 118.919 129.455 118.529 129.458C117.471 129.466 116.413 129.474 115.355 129.482C114.25 129.49 113.145 129.498 112.04 129.506C109.947 129.522 107.853 129.537 105.76 129.552C103.377 129.57 100.994 129.588 98.6111 129.605C93.7085 129.641 88.8058 129.677 83.9032 129.714C83.999 130.289 84.0948 130.864 84.1936 131.457C88.4032 131.416 92.6129 131.373 96.8226 131.33C97.1313 131.327 97.4401 131.323 97.7582 131.32C106.883 131.225 116.006 131.112 125.129 130.876C124.757 130.38 124.369 129.896 123.968 129.423C123.251 129.423 122.535 129.429 121.818 129.434ZM194.806 130.149C194.582 130.191 194.357 130.233 194.125 130.275C193.578 130.377 193.031 130.481 192.484 130.585C192.484 130.681 192.484 130.777 192.484 130.876C194.879 130.876 197.274 130.876 199.742 130.876C199.742 130.492 199.742 130.109 199.742 129.714C198.035 129.667 196.481 129.827 194.806 130.149ZM2.6129 144.822C2.51282 145.692 2.51282 145.692 3.03931 146.142C3.33123 146.379 3.33123 146.379 3.62903 146.62C4.47137 147.323 5.25093 148.039 6.00605 148.835C9.99779 152.854 14.9558 155.905 20.7399 155.972C24.2563 155.939 27.1455 155.207 29.8125 152.849C31.7154 150.687 32.7017 148.853 32.6454 145.895C32.431 144.598 31.7752 143.886 30.7742 143.079C26.6082 140.267 20.0046 141.611 15.3871 142.498C14.2343 142.759 13.1021 143.072 11.969 143.408C10.9824 143.673 10.013 143.825 9 143.951C9 143.567 9 143.183 9 142.788C15.0025 140.893 23.732 138.222 29.8114 141.127C30.0572 141.262 30.3031 141.396 30.5565 141.535C31.9741 142.304 32.7021 142.358 34.2581 141.917C35.4887 141.257 35.4887 141.257 36.2903 140.173C36.4337 138.93 36.3861 138.302 35.746 137.213C33.8864 135.236 30.9361 134.956 28.379 134.871C19.7976 134.967 8.67371 138.514 2.6129 144.822ZM85.0645 137.268C85.0393 137.59 85.0141 137.912 84.9881 138.244C82.8191 165.913 82.8191 165.913 81.744 177.418C81.7166 177.712 81.7166 177.712 81.6887 178.011C81.065 184.691 81.065 184.691 80.8344 186.545C80.699 187.934 80.7097 189.334 80.7097 190.729C90.7694 190.729 100.829 190.729 111.194 190.729C111.203 185.065 111.203 185.065 111.065 179.41C111.051 179.031 111.038 178.652 111.023 178.261C110.987 177.249 110.949 176.236 110.91 175.224C110.869 174.152 110.83 173.081 110.791 172.009C110.724 170.216 110.657 168.424 110.589 166.631C110.511 164.567 110.435 162.502 110.359 160.438C110.285 158.434 110.211 156.431 110.136 154.427C110.104 153.582 110.073 152.736 110.041 151.89C109.998 150.71 109.953 149.531 109.908 148.351C109.896 148.006 109.883 147.661 109.87 147.305C109.796 145.402 109.669 143.518 109.452 141.626C109.263 141.626 109.075 141.625 108.88 141.625C107.114 141.619 105.347 141.603 103.581 141.582C102.917 141.575 102.253 141.571 101.588 141.569C94.6222 141.55 94.6222 141.55 91.4516 139.883C90.937 139.644 90.4221 139.406 89.907 139.169C89.1993 138.824 88.494 138.476 87.7886 138.126C87.5595 138.015 87.3305 137.904 87.0945 137.789C86.892 137.688 86.6895 137.588 86.4808 137.485C85.8984 137.214 85.8984 137.214 85.0645 137.268ZM111.194 141.626C111.376 148.016 111.569 154.402 111.82 160.789C111.843 161.391 111.866 161.994 111.89 162.597C111.963 164.47 112.036 166.343 112.11 168.216C112.186 170.137 112.26 172.058 112.334 173.979C112.399 175.65 112.464 177.32 112.529 178.99C112.568 179.979 112.607 180.968 112.645 181.957C112.687 183.051 112.73 184.145 112.774 185.238C112.786 185.56 112.798 185.882 112.81 186.213C112.823 186.512 112.835 186.811 112.847 187.118C112.857 187.375 112.868 187.632 112.878 187.897C112.946 188.846 113.091 189.788 113.226 190.729C114.855 190.729 116.483 190.729 118.161 190.729C118.509 190.102 118.509 190.102 118.864 189.461C123.716 180.761 128.849 172.394 137.159 166.595C137.362 166.453 137.565 166.311 137.774 166.164C138.062 165.968 138.062 165.968 138.356 165.768C138.527 165.651 138.699 165.533 138.876 165.413C139.355 165.161 139.355 165.161 140.226 165.161C140.061 166.194 139.802 166.957 139.268 167.855C139.129 168.091 138.991 168.327 138.848 168.57C138.698 168.823 138.548 169.077 138.393 169.337C135.713 173.957 133.24 178.625 131.135 183.538C130.994 183.865 130.852 184.192 130.707 184.529C130.58 184.833 130.453 185.136 130.322 185.449C130.209 185.719 130.096 185.988 129.979 186.266C129.693 186.985 129.693 186.985 130.065 187.824C130.192 187.64 130.319 187.457 130.45 187.267C134.587 181.428 139.864 175.804 146.613 173.006C146.996 173.006 147.379 173.006 147.774 173.006C147.605 174.058 147.322 174.87 146.816 175.807C146.677 176.066 146.539 176.326 146.396 176.594C146.171 177.011 146.171 177.011 145.942 177.436C144.59 179.988 143.281 182.556 142.022 185.154C141.867 185.469 141.712 185.785 141.553 186.109C141.412 186.401 141.272 186.693 141.127 186.994C140.939 187.382 140.939 187.382 140.748 187.778C140.671 187.985 140.595 188.192 140.516 188.405C140.612 188.596 140.708 188.788 140.806 188.986C141.07 188.708 141.334 188.431 141.606 188.145C144.063 185.6 146.593 183.419 149.516 181.431C149.827 181.211 150.138 180.99 150.459 180.763C151.258 180.269 151.258 180.269 152.129 180.269C152.025 182.04 151.173 183.151 150.188 184.555C149.87 185.019 149.553 185.484 149.236 185.949C149.084 186.171 148.931 186.393 148.775 186.622C147.306 188.531 147.306 188.531 146.613 190.729C166.349 190.729 186.085 190.729 206.419 190.729C207.639 186.644 207.639 186.644 207.581 184.628C207.374 184.61 207.168 184.592 206.956 184.574C206.689 184.55 206.422 184.525 206.147 184.5C205.748 184.465 205.748 184.465 205.341 184.429C204.677 184.337 204.677 184.337 204.387 184.046C204.298 183.365 204.226 182.689 204.164 182.005C204.144 181.789 204.123 181.574 204.102 181.353C204.034 180.631 203.968 179.909 203.902 179.188C203.854 178.678 203.806 178.169 203.758 177.659C203.63 176.289 203.503 174.919 203.377 173.548C203.273 172.418 203.167 171.288 203.062 170.158C202.563 164.819 202.072 159.48 201.598 154.139C201.581 153.946 201.564 153.753 201.546 153.554C201.374 151.616 201.204 149.678 201.037 147.74C200.996 147.273 200.996 147.273 200.954 146.797C200.905 146.23 200.856 145.662 200.808 145.093C200.786 144.847 200.765 144.6 200.742 144.345C200.724 144.134 200.706 143.923 200.687 143.705C200.604 143.006 200.46 142.316 200.323 141.626C170.91 141.626 141.497 141.626 111.194 141.626ZM229.645 141.626C229.467 142.694 229.317 143.615 229.276 144.673C229.261 145.041 229.261 145.041 229.245 145.416C229.235 145.68 229.225 145.944 229.215 146.216C229.204 146.498 229.193 146.781 229.181 147.071C229.144 148.006 229.108 148.941 229.072 149.876C229.047 150.535 229.021 151.193 228.996 151.852C228.942 153.237 228.889 154.623 228.837 156.009C228.784 157.411 228.729 158.813 228.674 160.215C228.366 167.968 228.094 175.706 228.194 183.465C226.852 183.561 225.511 183.657 224.129 183.756C224.159 184.109 224.189 184.463 224.22 184.827C224.237 185.026 224.253 185.225 224.271 185.43C224.753 187.541 226.411 188.539 228.13 189.631C230.266 190.825 232.067 190.914 234.48 190.823C234.826 190.816 235.172 190.81 235.529 190.803C236.375 190.785 237.219 190.76 238.065 190.729C237.243 179.382 236.368 168.039 235.458 156.699C235.379 155.716 235.301 154.732 235.222 153.749C235.098 152.189 234.973 150.628 234.846 149.068C234.8 148.487 234.753 147.906 234.707 147.324C234.644 146.525 234.579 145.727 234.513 144.928C234.495 144.693 234.477 144.458 234.458 144.215C234.382 143.301 234.291 142.5 234 141.626C232.563 141.626 231.126 141.626 229.645 141.626ZM46.1613 153.539C45.5995 154.424 45.5806 154.758 45.5806 155.863C45.8411 155.941 46.1016 156.019 46.37 156.099C51.2512 157.633 55.8664 159.888 59.6976 163.327C59.8491 163.461 60.0005 163.596 60.1566 163.735C60.9209 164.446 61.4436 164.966 61.5484 166.032C60.4125 165.864 59.8093 165.321 58.9536 164.58C54.4756 160.844 48.8922 157.04 42.809 157.232C41.8307 157.347 41.154 157.613 40.3548 158.187C39.6007 159.439 39.5426 160.54 39.7742 161.965C41.0489 165.786 43.8451 168.278 47.2482 170.21C48.745 170.956 50.2843 171.395 51.8952 171.825C52.5857 172.021 53.2759 172.218 53.966 172.415C54.3108 172.513 54.6555 172.611 55.0107 172.712C59.5791 174.026 63.8274 175.538 67.9355 177.945C68.319 178.165 68.7026 178.384 69.0866 178.603C69.5228 178.853 69.5228 178.853 69.9677 179.107C71.6301 173.318 68.9005 165.854 66.1573 160.802C63.7893 156.872 60.0564 153.146 55.5548 151.868C52.3992 151.186 48.6828 151.249 46.1613 153.539ZM40.0645 166.323C40.0603 166.526 40.0561 166.729 40.0517 166.938C39.921 172.71 39.5969 178.46 39.1983 184.22C39.179 184.501 39.1597 184.782 39.1398 185.072C39.1035 185.601 39.0664 186.129 39.0286 186.657C38.9344 188.019 38.885 189.364 38.9032 190.729C39.4781 190.585 39.4781 190.585 40.0645 190.439C40.1072 190.09 40.1498 189.741 40.1938 189.382C40.9668 183.467 42.5955 178.336 45.2886 173.018C45.6176 172.349 45.9035 171.671 46.1613 170.972C45.9854 170.88 45.8095 170.787 45.6283 170.692C43.7711 169.657 42.375 168.441 40.9162 166.897C40.731 166.708 40.5457 166.518 40.3548 166.323C40.259 166.323 40.1632 166.323 40.0645 166.323ZM136.161 169.228C129.44 174.797 123.853 182.172 120.194 190.148C120.194 190.34 120.194 190.531 120.194 190.729C122.397 190.729 124.601 190.729 126.871 190.729C127.075 190.177 127.28 189.624 127.49 189.055C129 185.016 130.595 181.045 132.478 177.164C132.641 176.827 132.804 176.49 132.972 176.142C133.929 174.2 134.964 172.334 136.104 170.493C136.218 170.267 136.333 170.042 136.452 169.809C136.308 169.522 136.308 169.522 136.161 169.228ZM142.44 177.164C142.259 177.294 142.078 177.423 141.892 177.557C140.044 178.909 138.382 180.417 136.742 182.013C136.582 182.165 136.423 182.317 136.258 182.474C134.958 183.737 133.841 185.089 132.75 186.534C132.505 186.852 132.505 186.852 132.254 187.176C131.359 188.352 130.741 189.376 130.065 190.729C132.555 190.729 135.046 190.729 137.613 190.729C139.548 187.137 141.326 183.515 143 179.794C143.591 178.482 144.217 177.193 144.871 175.911C143.898 175.911 143.205 176.613 142.44 177.164ZM219.583 177.554C219.176 177.574 218.77 177.594 218.364 177.613C217.303 177.664 216.242 177.716 215.181 177.768C214.095 177.821 213.009 177.873 211.922 177.926C209.798 178.028 207.673 178.132 205.548 178.235C205.097 179.138 205.378 179.904 205.53 180.887C205.587 181.259 205.643 181.631 205.702 182.015C205.747 182.302 205.792 182.589 205.839 182.884C210.047 182.965 214.229 182.83 218.431 182.612C218.803 182.593 218.803 182.593 219.182 182.573C219.902 182.536 220.622 182.498 221.341 182.459C221.661 182.442 221.661 182.442 221.987 182.425C223.483 182.34 224.964 182.188 226.452 182.013C226.452 180.478 226.452 178.944 226.452 177.364C224.157 177.337 221.874 177.441 219.583 177.554ZM36.5444 179.307C35.8491 180.108 35.4485 180.587 35.3309 181.651C35.3928 182.26 35.4718 182.868 35.5634 183.473C35.7843 184.948 35.7408 186.427 35.7278 187.914C35.7265 188.19 35.7252 188.467 35.7239 188.751C35.7205 189.41 35.7158 190.07 35.7097 190.729C36.1887 190.729 36.6677 190.729 37.1613 190.729C37.2873 189.464 37.4113 188.198 37.5334 186.932C37.5751 186.503 37.6173 186.074 37.6601 185.645C37.9065 183.172 38.1043 180.725 38.0323 178.235C37.4193 178.235 36.9495 178.913 36.5444 179.307ZM33.6774 182.303C33.5489 182.424 33.4203 182.546 33.2879 182.671C32.6923 183.233 32.0962 183.794 31.5 184.355C31.2979 184.546 31.0958 184.737 30.8876 184.933C30.6855 185.123 30.4834 185.314 30.2752 185.509C29.9681 185.798 29.9681 185.798 29.6549 186.093C28.8763 186.804 28.0664 187.473 27.2444 188.133C26.5049 188.866 26.5049 188.866 25.5484 190.729C28.4226 190.729 31.2968 190.729 34.2581 190.729C34.27 189.501 34.282 188.272 34.2944 187.006C34.2996 186.62 34.3049 186.233 34.3104 185.835C34.3118 185.531 34.3133 185.226 34.3148 184.912C34.3178 184.6 34.3209 184.289 34.324 183.967C34.317 183.111 34.317 183.111 33.6774 182.303ZM145.379 186.534C145.124 186.772 145.124 186.772 144.863 187.015C143.717 188.096 142.646 189.192 141.677 190.439C141.677 190.534 141.677 190.63 141.677 190.729C142.757 191.081 143.512 191.143 144.581 190.729C146.004 189.125 147.099 186.946 147.774 184.918C146.75 184.918 146.094 185.861 145.379 186.534Z" fill="white"/>
<path d="M158.229 20.4668C158.613 20.5627 158.996 20.6586 159.391 20.7573C159.295 21.6203 159.199 22.4832 159.1 23.3723C158.717 23.3723 158.334 23.3723 157.939 23.3723C157.603 22.1943 157.696 21.5656 158.229 20.4668Z" fill="white"/>
<path d="M162.583 22.791C162.966 22.9828 163.349 23.1745 163.744 23.3721C163.719 24.1594 163.688 24.9459 163.653 25.7328C163.644 26.0643 163.644 26.0643 163.634 26.4025C163.555 28.0576 163.18 29.2403 162.184 30.5995C161.515 31.0626 161.054 31.0282 160.26 30.9264C160.069 30.7347 159.877 30.5429 159.68 30.3453C159.716 29.7642 159.716 29.7642 159.97 29.1831C160.16 29.0996 160.349 29.0161 160.545 28.93C161.172 28.6575 161.172 28.6575 161.362 28.0652C161.399 27.8528 161.437 27.6405 161.476 27.4217C161.519 27.1902 161.562 26.9587 161.606 26.7203C161.741 25.7855 161.836 24.8509 161.902 23.909C162.002 23.3721 162.002 23.3721 162.583 22.791Z" fill="white"/>
<path d="M155.322 30.6357C156.621 30.7843 157.234 31.2653 158.226 32.0885C158.8 32.392 159.379 32.6861 159.968 32.9601C159.872 33.3437 159.776 33.7272 159.677 34.1223C157.807 33.9726 156.794 33.3601 155.341 32.2338C155.032 31.7979 155.032 31.7979 155.123 31.1624C155.189 30.9886 155.255 30.8148 155.322 30.6357Z" fill="white"/>
<path d="M53.4178 37.3174C54.1255 37.5353 54.1255 37.5353 54.8695 37.8985C55.1598 38.4614 55.1598 38.4614 55.1598 39.0607C54.8332 39.5873 54.8332 39.5873 54.2888 39.9323C53.5086 39.8415 53.5086 39.8415 52.8372 39.6418C52.6376 38.9699 52.6376 38.9699 52.5469 38.189C52.9642 37.6624 52.9642 37.6624 53.4178 37.3174Z" fill="white"/>
<path d="M231.891 41.0153C232.218 41.0125 232.544 41.0098 232.881 41.0069C233.231 41.0072 233.581 41.0074 233.941 41.0077C234.303 41.0065 234.665 41.0052 235.038 41.0039C235.997 41.0018 236.957 41.0027 237.917 41.0044C238.504 41.0043 239.091 41.0014 239.679 40.9974C240.809 40.9903 241.938 40.9891 243.068 40.9896C243.418 40.9869 243.768 40.9842 244.129 40.9814C244.455 40.9833 244.782 40.9851 245.118 40.9869C245.404 40.9867 245.691 40.9866 245.986 40.9864C246.922 41.1147 247.47 41.414 248.23 41.9668C248.989 43.4843 248.612 45.9114 248.622 47.6015C248.627 48.1654 248.635 48.7293 248.646 49.2931C248.662 50.1066 248.669 50.9196 248.673 51.7331C248.679 51.9843 248.686 52.2356 248.693 52.4945C248.689 53.6448 248.595 54.3248 248.035 55.3465C246.463 56.2693 244.872 56.1083 243.084 56.0857C242.691 56.0852 242.298 56.0852 241.905 56.0857C241.084 56.0852 240.263 56.0798 239.441 56.0706C238.388 56.0591 237.336 56.0578 236.283 56.06C235.473 56.0609 234.662 56.0574 233.852 56.0524C233.275 56.0494 232.698 56.0493 232.121 56.0492C231.771 56.0446 231.421 56.0399 231.061 56.0352C230.599 56.0315 230.599 56.0315 230.127 56.0278C229.36 55.9132 229.36 55.9132 228.836 55.5242C227.993 54.3528 228.151 53.0235 228.149 51.6468C228.149 51.3993 228.148 51.1518 228.147 50.8968C228.145 50.3734 228.144 49.85 228.144 49.3266C228.144 48.5264 228.139 47.7262 228.133 46.926C228.132 46.4173 228.132 45.9087 228.131 45.4C228.129 45.1609 228.127 44.9218 228.125 44.6754C228.134 42.4589 228.134 42.4589 228.779 41.6762C229.847 41.1565 230.71 41.0208 231.891 41.0153ZM231.101 42.8384C231.101 43.0302 231.101 43.2219 231.101 43.4195C231.388 43.5764 231.674 43.7334 231.969 43.8951C232.781 44.3589 233.547 44.8594 234.307 45.4046C234.505 45.5463 234.703 45.6881 234.907 45.8341C235.314 46.1286 235.72 46.4253 236.125 46.7239C236.42 46.9338 236.42 46.9338 236.721 47.1479C236.896 47.2759 237.072 47.4039 237.253 47.5358C237.768 47.8261 237.768 47.8261 238.34 47.7246C239.061 47.4392 239.657 47.0717 240.303 46.6428C240.559 46.4746 240.815 46.3065 241.078 46.1332C241.342 45.9568 241.607 45.7804 241.88 45.5986C242.406 45.2503 242.933 44.9023 243.461 44.5545C243.693 44.3996 243.926 44.2447 244.166 44.0852C244.747 43.7101 244.747 43.7101 245.327 43.4195C245.184 43.1319 245.184 43.1319 245.037 42.8384C240.438 42.8384 235.84 42.8384 231.101 42.8384ZM244.656 45.4352C244.342 45.674 244.029 45.9123 243.715 46.1502C243.551 46.2741 243.388 46.398 243.219 46.5256C242.387 47.153 241.548 47.7702 240.7 48.377C240.398 48.5961 240.096 48.8152 239.785 49.041C238.867 49.5625 238.515 49.7363 237.489 49.5211C236.805 49.1013 236.196 48.6833 235.565 48.1954C233.836 46.8867 232.073 45.7554 230.23 44.5817C230.23 47.7458 230.23 50.9099 230.23 54.1699C232.343 54.1759 234.456 54.1818 236.569 54.1849C237.553 54.1864 238.537 54.1885 239.52 54.1918C240.648 54.1955 241.776 54.1969 242.904 54.1982C243.435 54.2005 243.435 54.2005 243.977 54.2028C244.302 54.2028 244.628 54.2028 244.963 54.2028C245.251 54.2035 245.54 54.2041 245.836 54.2048C246.48 54.2432 246.48 54.2432 246.779 53.8793C246.805 53.168 246.812 52.4649 246.807 51.7535C246.807 51.5411 246.806 51.3287 246.806 51.1099C246.804 50.4289 246.801 49.748 246.797 49.0671C246.796 48.6065 246.794 48.1459 246.793 47.6853C246.79 46.5539 246.785 45.4225 246.779 44.2912C245.856 44.2912 245.375 44.8777 244.656 45.4352Z" fill="white"/>
<path d="M75.537 49.3401C75.7107 49.4 75.8843 49.4599 76.0633 49.5217C76.1591 50.097 76.2549 50.6722 76.3536 51.265C75.4826 51.8461 75.4826 51.8461 74.8657 51.7553C74.3213 51.5555 74.3213 51.5555 74.031 51.265C73.9584 50.5568 73.9584 50.5568 74.031 49.8122C74.902 49.2311 74.902 49.2311 75.537 49.3401Z" fill="white"/>
<path d="M43.5426 68.1162C44.3228 68.3704 44.3228 68.3704 44.9942 68.6973C45.0305 69.3874 45.0305 69.3874 44.9942 70.1501C44.8026 70.3418 44.611 70.5336 44.4136 70.7312C43.091 70.5697 43.091 70.5697 42.6716 70.1501C42.599 69.4418 42.599 69.4418 42.6716 68.6973C42.959 68.5055 43.2465 68.3138 43.5426 68.1162Z" fill="white"/>
<path d="M263.481 88.4004C264.189 88.4549 264.189 88.4549 264.479 88.7454C264.533 89.4536 264.533 89.4536 264.479 90.1982C264.287 90.3899 264.096 90.5817 263.898 90.7793C263.136 90.6703 263.136 90.6703 262.447 90.4887C262.265 89.7987 262.265 89.7987 262.156 89.036C262.737 88.4549 262.737 88.4549 263.481 88.4004Z" fill="white"/>
<path d="M25.3899 100.876C25.7581 100.912 25.7581 100.912 26.1338 100.949C26.7145 101.82 26.7145 101.82 26.6782 102.42C26.349 103.149 25.9927 103.281 25.2629 103.564C24.8796 103.276 24.4964 102.988 24.1016 102.692C24.4092 100.977 24.4092 100.977 25.3899 100.876Z" fill="white"/>
<path d="M273.487 118.962C273.668 119.652 273.668 119.652 273.777 120.415C273.196 120.996 273.196 120.996 272.452 121.051C271.745 120.996 271.745 120.996 271.454 120.706C271.443 120.125 271.442 119.543 271.454 118.962C272.229 118.575 272.664 118.767 273.487 118.962Z" fill="white"/>
<path d="M186.104 154.701C186.285 155.391 186.285 155.391 186.394 156.153C185.814 156.734 185.814 156.734 185.051 156.771C184.824 156.759 184.596 156.747 184.362 156.734C184.053 156.208 184.053 156.208 183.781 155.572C183.877 155.285 183.973 154.997 184.072 154.701C184.846 154.313 185.281 154.506 186.104 154.701Z" fill="white"/>
<path d="M97.5504 166.322C98.3306 166.576 98.3306 166.576 99.002 166.903C99.0383 167.593 99.0383 167.593 99.002 168.356C98.8104 168.548 98.6188 168.74 98.4214 168.937C97.0988 168.776 97.0988 168.776 96.6794 168.356C96.6069 167.648 96.6069 167.648 96.6794 166.903C96.9669 166.712 97.2543 166.52 97.5504 166.322Z" fill="white"/>
<path d="M256.642 174.132C257.513 174.168 257.513 174.168 257.803 174.459C257.857 175.167 257.857 175.167 257.803 175.911C257.611 176.103 257.42 176.295 257.222 176.493C255.9 176.331 255.9 176.331 255.48 175.911C255.444 175.185 255.444 175.185 255.48 174.459C255.771 174.168 255.771 174.168 256.642 174.132Z" fill="white"/>
</svg>
