<svg width="880" height="629" viewBox="0 0 880 629" fill="none" xmlns="http://www.w3.org/2000/svg">
<g clip-path="url(#clip0_250_129)">
<path d="M493.226 0.000298098C494.011 1.23854 494.789 2.48264 495.523 3.75183C497.193 5.84583 499.088 6.93017 501.376 8.31393C512.127 14.8684 519.678 23.2581 523.387 35.4718C523.387 36.3497 523.387 37.2276 523.387 38.1322C524.14 38.3482 524.892 38.5643 525.667 38.7869C529.011 40.0164 531.851 41.6735 534.809 43.6192C535.35 43.9745 535.892 44.3299 536.45 44.696C547.501 52.059 547.501 52.059 549.39 57.3644C549.113 60.3019 549.113 60.3019 547.197 62.2278C542.728 65.1037 538.28 64.4795 533.145 63.849C528.022 62.6983 523.039 61.0825 518.065 59.4151C514.684 65.7269 512.198 72.0946 509.914 78.869C507.377 86.1456 504.595 93.1144 500.988 99.9302C500.456 100.939 500.456 100.939 499.913 101.969C496.831 107.589 493.271 112.498 487.903 116.169C487.025 116.169 486.147 116.169 485.242 116.169C485.242 116.755 485.242 117.34 485.242 117.943C485.934 118.013 486.626 118.083 487.338 118.154C491.696 119.067 495.537 120.755 499.602 122.543C500.489 122.931 501.375 123.32 502.289 123.72C520.167 131.688 537.318 141.286 554.436 150.754C555.223 151.19 556.01 151.625 556.822 152.074C561.353 154.583 565.88 157.099 570.403 159.622C570.436 158.955 570.468 158.288 570.502 157.601C570.997 149.531 572.342 141.744 574.007 133.85C574.143 133.199 574.279 132.547 574.418 131.876C588.502 64.6551 588.502 64.6551 610.555 46.2206C615.815 42.8296 621.109 42.8599 627.177 43.4529C637.662 45.9245 648.441 54.3588 654.293 63.3155C658.114 70.0411 658.888 75.6169 658.226 83.3583C657.404 86.1286 656.581 87.2619 654.677 89.5658C653.781 89.8951 652.884 90.2243 651.961 90.5635C649.128 91.9734 649.128 91.9734 648.579 94.7896C648.171 96.8551 647.77 98.922 647.376 100.99C646.441 104.776 645.471 106.048 642.258 108.188C640.04 109.075 640.04 109.075 637.823 109.075C634.582 107.61 632.583 105.897 630.726 102.868C630.726 102.282 630.726 101.697 630.726 101.094C628.677 101.387 626.627 101.679 624.516 101.981C624.809 102.859 625.102 103.737 625.403 104.641C627.334 119.223 627.365 134.076 627.399 148.759C627.404 149.545 627.408 150.332 627.413 151.142C627.521 174.554 627.521 174.554 624.516 183.565C625.415 183.292 626.313 183.019 627.239 182.738C632.101 181.352 637.073 180.797 642.077 180.142C643.853 179.909 645.628 179.664 647.402 179.419C660.354 177.698 660.354 177.698 666.21 178.245C667.626 179.66 667.237 181.129 667.245 183.085C667.196 187.716 666.538 192.044 665.607 196.569C665.453 197.347 665.3 198.125 665.142 198.926C664.656 201.382 664.158 203.835 663.659 206.289C663.332 207.94 663.005 209.591 662.679 211.243C661.33 218.02 659.949 224.758 658.226 231.452C658.751 231.27 659.276 231.088 659.816 230.901C660.517 230.662 661.218 230.423 661.941 230.177C662.63 229.94 663.32 229.704 664.03 229.46C673.483 226.561 685.465 226.59 694.597 230.565C705.26 236.459 712.914 245.791 719.38 255.894C719.991 256.829 720.601 257.764 721.23 258.727C723.007 261.453 724.771 264.187 726.532 266.923C727.412 268.274 728.294 269.624 729.176 270.973C731.145 273.988 733.097 277.015 735.039 280.047C735.913 281.41 736.789 282.773 737.666 284.134C751.08 304.956 763.847 326.16 776.21 347.621C776.771 348.595 777.332 349.568 777.91 350.571C786.183 364.94 794.327 379.377 802.324 393.901C803.228 395.528 804.146 397.148 805.078 398.76C805.488 399.471 805.897 400.182 806.319 400.915C806.679 401.529 807.039 402.143 807.409 402.775C808.145 404.375 808.145 404.375 807.923 406.814C805.773 409.579 803.224 411.546 800.161 413.243C799.576 413.243 798.99 413.243 798.387 413.243C799.14 414.445 799.14 414.445 799.908 415.672C800.566 416.728 801.223 417.785 801.88 418.841C802.211 419.369 802.542 419.896 802.883 420.44C804.32 422.756 805.505 424.836 806.371 427.432C806.931 427.345 807.491 427.258 808.069 427.169C813.926 426.26 819.783 425.354 825.641 424.45C827.824 424.112 830.007 423.774 832.189 423.436C835.336 422.947 838.483 422.462 841.63 421.976C842.598 421.825 843.565 421.675 844.562 421.52C851.813 420.404 858.954 419.311 866.306 419.395C867.222 419.403 868.137 419.411 869.081 419.42C870.095 419.435 874.678 418.841 878.226 421.52C880.682 428.988 880 435.191 871.129 441.621C860.928 450.045 851.193 456.12 841.125 461.959C835.15 465.45 829.467 469.331 823.787 473.277C821.042 475.175 818.272 477.035 815.505 478.9C811.625 481.523 807.766 484.173 803.924 486.851C801.722 488.383 799.511 489.9 797.298 491.416C796.264 492.129 795.234 492.849 794.208 493.575C792.803 494.569 791.382 495.541 789.96 496.511C789.164 497.066 788.368 497.621 787.548 498.193C784.298 499.601 782.267 499.218 778.871 498.375C771.315 491.057 768.059 477.662 765.675 467.725C763.606 459.476 759.621 452.217 754.919 445.168C754.279 445.753 753.639 446.338 752.979 446.941C750.214 448.907 749.335 449.226 746.048 448.715C744.486 447.115 744.486 447.115 743.093 444.897C742.334 443.709 742.334 443.709 741.559 442.497C741.046 441.659 740.534 440.821 740.005 439.958C739.475 439.127 738.945 438.296 738.399 437.439C734.516 431.274 734.516 431.274 734.516 429.205C730.125 429.205 725.734 429.205 721.21 429.205C721.338 430.762 721.467 432.319 721.6 433.924C723.114 452.246 724.619 470.57 726.119 488.894C726.399 492.313 726.679 495.732 726.959 499.151C727.756 508.869 728.551 518.588 729.339 528.307C729.688 532.606 730.039 536.905 730.391 541.204C730.726 545.278 731.057 549.352 731.386 553.427C731.507 554.928 731.63 556.43 731.754 557.931C731.925 559.997 732.091 562.064 732.256 564.131C732.351 565.288 732.445 566.446 732.542 567.638C732.762 571.444 732.742 575.261 732.742 579.073C765.529 579.073 798.316 579.073 832.097 579.073C832.39 580.243 832.682 581.414 832.984 582.62C831.21 584.393 831.21 584.393 829.209 584.614C827.949 584.613 827.949 584.613 826.664 584.613C825.701 584.616 824.738 584.62 823.747 584.624C822.155 584.616 822.155 584.616 820.532 584.609C819.418 584.61 818.305 584.612 817.157 584.614C814.098 584.618 811.039 584.611 807.98 584.602C804.783 584.595 801.586 584.596 798.389 584.596C793.02 584.596 787.651 584.588 782.281 584.576C776.068 584.562 769.855 584.557 763.642 584.558C757.672 584.558 751.702 584.554 745.732 584.546C743.188 584.543 740.644 584.542 738.101 584.541C734.551 584.54 731.002 584.532 727.452 584.522C726.391 584.523 725.331 584.523 724.238 584.523C723.275 584.52 722.312 584.516 721.32 584.512C720.48 584.51 719.64 584.509 718.775 584.507C716.774 584.393 716.774 584.393 715 583.507C715 584.092 715 584.677 715 585.28C715.617 585.369 716.233 585.458 716.869 585.55C719.896 586.277 722.272 587.485 725.022 588.945C725.811 589.364 725.811 589.364 726.616 589.791C727.727 590.383 728.836 590.978 729.944 591.576C731.611 592.473 733.285 593.356 734.96 594.238C745.097 599.635 757.141 606.601 761.129 618.091C761.738 624.855 761.738 624.855 760.242 627.846C752.773 629.829 744.513 628.392 736.928 627.704C735.516 627.581 734.104 627.458 732.693 627.335C717.844 626.015 703.051 624.241 688.26 622.397C685.457 622.049 682.654 621.707 679.85 621.366C671.793 620.385 663.739 619.373 655.688 618.335C653.795 618.092 651.902 617.852 650.008 617.612C646.508 617.167 643.011 616.7 639.514 616.231C637.957 616.034 637.957 616.034 636.369 615.833C634.952 615.637 634.952 615.637 633.507 615.438C632.686 615.329 631.866 615.22 631.02 615.108C628.676 614.469 627.745 613.808 626.29 611.884C624.854 602.858 627.505 593.07 628.952 584.393C535.86 584.393 442.768 584.393 346.855 584.393C346.855 584.393 339.589 584.393 339.758 584.393C338.791 584.394 338.791 584.394 337.803 584.395C299.609 584.435 261.415 584.465 223.221 584.484C218.64 584.486 214.058 584.488 209.477 584.491C208.564 584.491 207.652 584.492 206.712 584.492C191.925 584.5 177.138 584.514 162.35 584.53C147.188 584.547 132.025 584.557 116.862 584.56C107.499 584.563 98.1359 584.57 88.7727 584.585C82.36 584.594 75.9474 584.597 69.5347 584.595C65.8299 584.593 62.1251 584.595 58.4203 584.605C55.0332 584.613 51.6462 584.614 48.2591 584.608C47.0293 584.607 45.7995 584.609 44.5697 584.615C42.9068 584.622 41.2438 584.617 39.5809 584.612C38.6546 584.612 37.7283 584.613 36.7739 584.614C34.5968 584.393 34.5968 584.393 32.8226 582.62C33.1153 581.449 33.4081 580.279 33.7097 579.073C46.2976 578.78 58.8855 578.487 71.8548 578.186C70.0984 574.674 68.3419 571.162 66.5323 567.544C65.5223 565.008 64.5698 562.53 63.7046 559.951C63.4849 559.306 63.2651 558.661 63.0387 557.996C62.419 556.157 61.8132 554.314 61.2097 552.469C60.9147 551.6 60.6196 550.731 60.3157 549.836C56.131 536.353 56.5854 520.86 62.4433 507.977C66.211 501.359 71.4652 495.278 78.9516 493.054C85.6292 491.394 90.6915 492.425 96.6936 495.715C99.0776 497.488 99.0776 497.488 100.242 499.262C100.1 501.001 100.1 501.001 99.3549 502.809C97.7401 504.007 97.7401 504.007 95.6956 505.137C84.5373 512.219 80.6856 526.107 77.8705 538.336C76.8809 543.007 76.471 547.702 76.2903 552.469C77.1686 552.469 78.0468 552.469 78.9516 552.469C78.9053 550.926 78.9053 550.926 78.8581 549.351C78.8622 545.597 79.4905 542.123 80.4486 538.502C80.6882 537.582 80.6882 537.582 80.9326 536.643C83.8603 525.814 88.1862 514.835 97.5217 507.988C100.42 506.81 103.346 506.667 106.452 506.356C106.743 487.74 106.743 487.74 105.675 469.166C105.606 468.435 105.536 467.703 105.464 466.949C105.01 462.767 104.175 458.932 102.903 454.922C102.546 455.663 102.546 455.663 102.182 456.419C97.0693 466.373 89.6849 472.342 79.1734 475.984C64.5849 480.629 49.6178 478.039 36.2605 471.162C27.0539 466.196 19.6969 459.748 12.4462 452.301C8.57483 448.34 4.53877 444.813 0 441.621C0.930629 435.587 7.13695 432.276 11.7055 428.859C31.3837 414.866 57.2565 404.511 81.6129 403.489C82.2396 403.453 82.8662 403.418 83.5119 403.381C93.3502 403.081 104.215 404.326 111.698 411.272C115.246 415.248 116.56 418.343 116.449 423.836C116.036 426.98 114.746 428.635 112.661 430.979C106.845 435.413 106.845 435.413 102.903 435.413C104.618 441.068 106.356 446.694 108.337 452.262C112.52 464.993 111.899 477.652 111.537 490.876C111.473 493.369 111.436 495.861 111.403 498.354C111.375 499.119 111.346 499.884 111.317 500.672C111.3 502.665 111.313 504.417 111.774 506.356C113.836 508.213 113.836 508.213 116.21 509.016C116.502 509.309 116.795 509.602 117.097 509.903C117.18 502.072 117.258 494.373 116.23 486.59C116.209 484.115 116.769 482.237 117.506 479.895C118.581 475.588 118.739 471.082 119.148 466.672C121.371 445.1 127.16 426.758 141.048 409.696C139.813 408.736 139.813 408.736 138.553 407.756C135.434 405.102 133.358 402.989 132.784 398.764C132.548 393.674 133.075 390.539 136.613 386.64C143.913 380.023 153.582 378.326 163.184 378.472C190.008 380.328 212.895 394.479 231.259 413.548C240.08 423.694 247.956 434.82 247.5 448.715C247.207 449.007 246.915 449.3 246.613 449.602C240.612 449.28 234.938 447.924 229.131 446.463C228.205 446.233 228.205 446.233 227.26 445.999C226.716 445.861 226.172 445.722 225.612 445.58C219.077 444.274 212.775 444.196 206.136 444.288C204.117 444.303 202.099 444.318 200.08 444.333C196.935 444.36 193.79 444.392 190.645 444.433C155.797 444.866 155.797 444.866 144.427 434.533C141.682 431.497 139.563 428.303 137.5 424.772C129.403 439.07 124.432 456.117 125.081 472.658C128.008 472.365 130.935 472.073 133.952 471.771C134.116 470.564 134.281 469.357 134.451 468.113C135.373 464.09 136.711 462.04 140.03 459.609C149.433 453.986 160.135 453.416 170.742 455.539C187.952 460.822 200.21 474.25 208.568 489.701C216.05 504.224 219.27 519.493 219.279 535.731C219.29 536.765 219.301 537.8 219.312 538.866C219.314 539.864 219.316 540.862 219.317 541.89C219.321 542.793 219.325 543.696 219.328 544.627C219.103 547.261 218.444 549.194 217.339 551.582C213.776 551.048 211.546 549.205 208.69 547.093C192.595 535.658 165.303 523.205 145.484 523.205C135.047 541.5 131.118 557.762 126.855 579.073C164.911 579.073 202.968 579.073 242.177 579.073C242.177 576.146 242.177 573.22 242.177 570.205C242.305 567.927 242.462 565.651 242.649 563.378C242.7 562.75 242.75 562.123 242.803 561.477C242.971 559.406 243.144 557.337 243.318 555.267C243.44 553.77 243.563 552.273 243.685 550.776C243.947 547.569 244.211 544.362 244.477 541.155C244.898 536.084 245.314 531.012 245.73 525.94C246.387 517.921 247.047 509.902 247.709 501.884C248.895 487.512 250.077 473.141 251.256 458.769C251.669 453.727 252.085 448.685 252.502 443.644C252.761 440.511 253.018 437.378 253.275 434.246C253.395 432.793 253.515 431.341 253.636 429.888C253.801 427.906 253.963 425.924 254.125 423.941C254.217 422.832 254.308 421.723 254.403 420.58C254.499 419.143 254.499 419.143 254.597 417.677C254.658 416.862 254.719 416.047 254.782 415.207C254.79 412.908 254.79 412.908 252.102 411.026C251.616 410.655 251.13 410.283 250.629 409.901C246.208 406.34 245.575 400.829 244.839 395.508C244.839 394.337 244.839 393.166 244.839 391.96C243.942 392.052 243.046 392.143 242.122 392.238C235.911 392.205 230.179 389.657 224.436 387.526C223.682 387.256 222.929 386.985 222.152 386.706C219.745 385.836 217.349 384.939 214.955 384.035C214.191 383.759 213.426 383.483 212.639 383.198C207.981 381.386 205.327 379.857 203.145 375.111C202.736 372.326 202.736 372.326 202.813 369.569C202.824 368.65 202.835 367.731 202.847 366.784C203.145 364.47 203.145 364.47 204.919 362.696C206.749 362.483 206.749 362.483 209.03 362.495C209.882 362.495 210.734 362.495 211.612 362.495C212.535 362.505 213.457 362.514 214.407 362.523C215.35 362.526 216.292 362.528 217.264 362.531C220.283 362.541 223.302 362.563 226.321 362.586C228.364 362.594 230.407 362.603 232.451 362.61C237.467 362.629 242.484 362.659 247.5 362.696C247.335 361.527 247.335 361.527 247.166 360.334C245.95 351.517 245.02 342.695 244.194 333.834C244.058 332.388 243.921 330.942 243.784 329.497C243.501 326.498 243.219 323.499 242.939 320.5C242.58 316.657 242.217 312.813 241.853 308.97C241.572 305.999 241.292 303.027 241.013 300.056C240.88 298.637 240.746 297.218 240.612 295.8C240.426 293.829 240.242 291.858 240.058 289.887C239.953 288.767 239.848 287.648 239.74 286.494C239.516 283.772 239.516 283.772 239.516 281.112C238.37 281.121 237.224 281.131 236.043 281.14C231.801 281.172 227.558 281.193 223.316 281.209C221.478 281.218 219.64 281.23 217.802 281.246C215.164 281.267 212.527 281.277 209.889 281.285C209.063 281.294 208.238 281.303 207.388 281.313C206.242 281.313 206.242 281.313 205.074 281.313C204.063 281.319 204.063 281.319 203.032 281.325C201.371 281.112 201.371 281.112 199.597 279.338C199.247 277.476 199.247 277.476 199.067 275.171C198.997 274.324 198.927 273.478 198.855 272.605C198.789 271.7 198.722 270.794 198.654 269.861C198.581 268.938 198.508 268.015 198.433 267.065C198.221 264.358 198.021 261.65 197.823 258.942C197.72 257.62 197.617 256.298 197.514 254.976C196.44 240.347 196.44 240.347 196.936 235.886C198.71 234.112 198.71 234.112 202.25 233.911C203.78 233.911 205.309 233.921 206.839 233.939C208.046 233.943 208.046 233.943 209.278 233.947C211.854 233.957 214.43 233.979 217.006 234.001C218.75 234.01 220.494 234.018 222.239 234.026C226.519 234.045 230.8 234.076 235.081 234.112C235.081 232.064 235.081 230.015 235.081 227.905C234.059 228.048 233.037 228.191 231.984 228.339C228.228 228.806 224.537 228.934 220.755 228.94C220.1 228.943 219.445 228.946 218.77 228.949C217.4 228.954 216.03 228.956 214.66 228.956C212.557 228.958 210.456 228.974 208.353 228.991C207.017 228.993 205.681 228.995 204.344 228.996C203.716 229.002 203.088 229.009 202.44 229.015C198.026 228.994 198.026 228.994 196.048 227.018C195.705 224.758 195.465 222.572 195.293 220.298C195.236 219.621 195.18 218.944 195.122 218.247C195.003 216.807 194.888 215.367 194.778 213.927C194.61 211.766 194.43 209.606 194.246 207.446C193.907 203.331 193.623 199.216 193.387 195.094C193.351 194.468 193.315 193.842 193.279 193.198C193.192 191.471 193.139 189.742 193.089 188.013C193.044 186.556 193.044 186.556 192.998 185.07C193.387 182.679 193.387 182.679 194.705 181.223C197.93 179.481 201.045 179.629 204.621 179.635C205.398 179.626 206.175 179.617 206.975 179.607C209.559 179.581 212.142 179.572 214.726 179.564C216.549 179.549 218.373 179.533 220.196 179.516C225.028 179.474 229.86 179.448 234.692 179.424C239.473 179.399 244.254 179.357 249.035 179.317C271.292 179.139 293.549 179.09 315.806 179.131C315.863 178.466 315.92 177.801 315.979 177.116C316.056 176.241 316.133 175.366 316.212 174.464C316.287 173.598 316.362 172.732 316.44 171.839C318.292 153.882 328.674 135.635 342.419 124.151C359.039 112.79 380.298 107.804 400.244 107.083C401.228 107.036 402.213 106.989 403.227 106.94C405.195 106.85 407.165 106.792 409.135 106.769C414.424 106.518 414.424 106.518 418.869 103.894C420.508 101.855 421.853 99.82 423.145 97.5469C423.638 96.6981 423.638 96.6981 424.141 95.832C430.724 83.758 430.724 83.758 432.626 70.7597C432.008 69.0108 432.008 69.0108 430.686 66.9528C427.963 62.4175 427.923 57.4893 428.468 52.3208C429.613 48.3204 430.748 45.205 434.255 42.812C437.363 39.9551 437.517 37.2489 438.17 33.1994C440.143 23.0024 443.91 14.4236 452.419 7.98139C460.697 3.24589 468.56 1.47987 477.979 1.77387C479.463 1.81914 480.947 1.85643 482.432 1.88472C483.402 1.91559 483.402 1.91559 484.392 1.94707C488.024 1.58489 489.264 -0.772524 493.226 0.000298098ZM450.645 16.8493C446.879 21.9388 445.15 27.6426 443.548 33.6982C446.265 33.571 448.982 33.4413 451.699 33.3103C452.448 33.2754 453.198 33.2405 453.97 33.2046C458.25 32.9963 462.513 32.7145 466.783 32.3507C473.451 31.8274 480.108 31.7133 486.794 31.703C487.723 31.6998 487.723 31.6998 488.67 31.6967C498.105 31.6848 507.103 32.2614 516.29 34.585C515.197 26.892 509.334 20.739 503.576 15.8655C488.163 4.94663 464.793 1.87807 450.645 16.8493ZM464.839 37.2454C467.042 41.6507 476.28 43.6848 480.807 45.2265C486.57 46.8956 492.454 48.0623 498.327 49.2724C501.458 49.9385 504.586 50.6154 507.714 51.2954C508.843 51.5396 508.843 51.5396 509.995 51.7887C516.557 53.2256 523.008 54.9601 529.397 57.0424C534.045 58.5046 538.025 58.7157 542.903 58.5283C538.624 49.2129 525.327 43.6867 516.29 39.9057C506.918 36.5463 497.553 36.2059 487.682 36.2477C486.706 36.2495 485.73 36.2512 484.724 36.2529C478.058 36.2884 471.469 36.5075 464.839 37.2454ZM437.505 46.6121C434.513 49.9451 433.906 52.796 433.513 57.1981C433.918 61.7287 435.246 64.4498 438.503 67.6179C441.017 69.2545 443.329 70.1396 446.21 70.9433C445.917 71.8212 445.624 72.6991 445.323 73.6037C443.273 73.6037 441.224 73.6037 439.113 73.6037C438.919 74.0895 438.724 74.5753 438.524 75.0759C437.913 76.6032 437.299 78.1296 436.684 79.6553C435.893 81.6461 435.121 83.6445 434.362 85.648C430.558 95.6274 426.679 105.231 417.823 111.736C418.951 119.148 424.14 123.952 429.736 128.602C436.658 133.676 446.085 139.705 455.081 138.339C460.062 135.583 461.683 130.861 463.841 125.869C464.393 124.657 464.393 124.657 464.957 123.421C467.182 119.03 467.182 119.03 466.613 114.396C464.966 112.962 464.966 112.962 462.954 111.569C453.199 104.201 453.199 104.201 451.81 98.6623C451.672 97.6713 451.672 97.6713 451.532 96.6601C453.289 96.2212 453.289 96.2212 455.081 95.7734C455.518 96.4181 455.518 96.4181 455.964 97.0758C460.396 103.319 466.866 107.53 470.161 108.188C486.822 111.519 490.565 101.537 486.295 110.572C498.914 99.6507 504.309 79.4471 509.34 64.2119C510.11 61.9907 510.965 59.8171 511.855 57.6415C508.782 56.3188 505.892 55.4745 502.603 54.8807C501.684 54.7088 500.764 54.5369 499.817 54.3598C498.85 54.1807 497.882 54.0017 496.885 53.8172C489.119 52.3409 481.791 50.5621 474.413 47.7275C471.808 46.9625 470.806 46.7057 468.387 47.8868C466.547 49.6634 466.547 49.6634 464.839 51.8219C461.003 56.4874 461.003 56.4874 457.742 57.6415C454.859 57.3089 454.859 57.3089 452.419 56.7547C452.268 56.2094 452.118 55.6642 451.962 55.1024C450.69 50.7332 450.69 50.7332 448.206 47C444.285 45.2581 441.364 44.4687 437.505 46.6121ZM605.887 59.4151C604.117 62.1189 602.596 64.9112 601.119 67.7841C600.704 68.589 600.289 69.3938 599.862 70.223C583.142 103.632 577.232 141.412 573.952 178.245C572.781 177.952 571.61 177.659 570.403 177.358C570.111 173.261 569.818 169.164 569.516 164.943C565.711 163.187 561.905 161.431 557.984 159.622C557.833 160.92 557.682 162.217 557.527 163.554C556.232 174.268 554.535 184.658 551.774 195.094C561.149 194.637 570.3 193.215 579.548 191.683C582.022 191.273 584.498 190.873 586.974 190.474C597.487 188.761 607.904 186.74 618.307 184.452C624.14 164.562 622.104 142.184 621.108 121.73C621.018 119.879 620.937 118.028 620.866 116.176C620.769 113.842 620.628 111.516 620.469 109.186C620.447 108.512 620.426 107.839 620.403 107.145C620.291 104.987 620.291 104.987 619.194 101.981C617.483 100.593 615.739 99.5927 613.798 98.5541C611.458 97.1688 610.582 95.6251 609.491 93.1684C609.15 92.4037 608.809 91.6389 608.458 90.851C607.546 88.3654 606.983 86.0001 606.774 83.3583C608.238 83.3583 609.702 83.3583 611.21 83.3583C611.361 83.883 611.512 84.4077 611.667 84.9483C612.966 89.1829 614.116 92.6599 617.419 95.7734C620.188 96.9685 620.188 96.9685 622.742 97.5469C622.56 96.9582 622.378 96.3695 622.191 95.763C621.952 94.9799 621.713 94.1969 621.467 93.3901C621.23 92.6185 620.993 91.8469 620.75 91.0519C619.691 87.2977 619.082 83.8379 619.107 79.9324C619.111 78.7536 619.111 78.7536 619.116 77.5509C619.127 76.3378 619.127 76.3378 619.138 75.1001C619.142 74.2742 619.146 73.4483 619.15 72.5974C619.161 70.568 619.175 68.5387 619.194 66.5094C620.365 66.5094 621.536 66.5094 622.742 66.5094C622.807 68.0029 622.807 68.0029 622.874 69.5265C623.146 83.0527 623.146 83.0527 628.952 94.8866C629.537 94.8866 630.123 94.8866 630.726 94.8866C631.681 90.0584 631.899 85.2686 632.112 80.3654C632.169 79.1326 632.169 79.1326 632.228 77.8748C632.322 75.86 632.412 73.8451 632.5 71.8301C633.671 71.5375 634.842 71.2448 636.048 70.9433C637.044 78.5574 636.848 85.3301 635.526 92.8735C634.998 96.409 634.864 98.5199 636.891 101.569C637.491 102.29 638.091 103.011 638.71 103.754C641.721 101.429 642.458 98.4778 643.145 94.8866C643.472 91.3612 643.594 87.8386 643.7 84.3005C643.734 83.3558 643.768 82.411 643.804 81.4375C643.887 79.122 643.963 76.8064 644.032 74.4905C645.203 74.4905 646.374 74.4905 647.581 74.4905C648.459 80.1969 648.459 80.1969 649.355 86.0187C652.937 83.0417 652.937 83.0417 653.406 80.4971C653.392 72.2766 650.412 66.5119 644.809 60.579C638.315 54.4671 630.964 49.303 621.91 48.4411C614.433 48.6969 610.176 53.9137 605.887 59.4151ZM339.758 134.792C339.208 135.314 338.658 135.837 338.091 136.375C314.019 160.869 316.712 209.37 315.806 241.207C320.707 240.844 325.542 240.379 330.378 239.488C347.78 236.31 364.638 236.14 382.339 235.886C382.924 215.694 383.51 195.501 384.113 174.697C385.577 174.405 387.04 174.112 388.548 173.811C388.337 182.467 388.122 191.124 387.9 199.78C387.798 203.799 387.697 207.818 387.599 211.837C387.505 215.713 387.407 219.588 387.306 223.463C387.268 224.945 387.232 226.427 387.197 227.909C387.148 229.977 387.093 232.045 387.038 234.114C387.024 234.732 387.011 235.351 386.997 235.989C386.875 240.219 386.875 240.219 385.887 241.207C383.252 241.499 380.618 241.792 377.903 242.093C377.903 249.995 377.903 257.896 377.903 266.037C385.499 266.967 393.095 267.893 400.692 268.812C404.22 269.238 407.748 269.667 411.276 270.1C414.686 270.518 418.097 270.932 421.509 271.342C422.804 271.498 424.099 271.657 425.394 271.817C438.646 273.734 438.646 273.734 451.678 271.641C452.618 271.329 453.558 271.017 454.526 270.696C455.478 270.365 456.429 270.035 457.409 269.695C474.422 263.951 474.422 263.951 483.911 264.152C484.641 264.16 485.37 264.168 486.122 264.176C487.899 264.197 489.675 264.229 491.452 264.263C494.724 252.999 496.923 241.582 499.103 230.066C499.628 227.3 500.154 224.534 500.685 221.77C501.012 220.064 501.337 218.357 501.657 216.65C503.353 207.799 503.353 207.799 504.758 204.848C506.954 203.97 506.954 203.97 509.194 203.075C510.072 193.71 510.95 184.346 511.855 174.697C513.026 174.99 514.197 175.283 515.403 175.584C515.111 184.071 514.818 192.557 514.516 201.301C525.249 199.779 525.249 199.779 535.973 198.197C536.698 198.093 537.424 197.989 538.172 197.882C538.867 197.776 539.563 197.669 540.28 197.56C540.893 197.469 541.506 197.378 542.138 197.285C544.071 196.894 544.071 196.894 546.452 195.094C547.191 193.535 547.191 193.535 547.619 191.702C547.894 190.672 547.894 190.672 548.173 189.622C548.446 188.517 548.446 188.517 548.725 187.39C548.917 186.635 549.108 185.88 549.306 185.102C550.949 178.419 552.026 171.801 552.661 164.943C552.835 163.736 552.835 163.736 553.011 162.504C553.328 160.169 553.328 160.169 552.661 156.962C551.405 155.771 551.405 155.771 549.706 154.873C549.059 154.497 548.413 154.122 547.748 153.735C547.027 153.337 546.307 152.938 545.565 152.528C544.803 152.102 544.041 151.676 543.257 151.237C540.69 149.82 538.112 148.427 535.529 147.041C534.59 146.536 533.651 146.031 532.683 145.51C530.775 144.486 528.867 143.463 526.958 142.441C524.584 141.166 522.217 139.88 519.853 138.589C497 125.149 497 125.149 471.936 118.83C471.69 119.402 471.445 119.975 471.192 120.564C470.066 123.169 468.922 125.766 467.777 128.363C467.391 129.264 467.005 130.164 466.608 131.092C462.91 139.417 462.91 139.417 458.629 141.886C450.192 144.698 441.803 140.726 434.234 136.954C424.321 131.281 416.644 123.29 412.5 112.622C387.257 111.729 358.02 115.721 339.758 134.792ZM245.726 227.905C245.726 229.953 245.726 232.002 245.726 234.112C267.389 233.82 289.052 233.527 311.371 233.225C311.371 231.47 311.371 229.714 311.371 227.905C289.708 227.905 268.045 227.905 245.726 227.905ZM593.226 270.032C589.798 271.91 586.355 273.761 582.913 275.614C574.207 280.303 565.56 285.084 556.963 289.97C550.435 293.677 543.874 297.322 537.303 300.954C530.127 304.921 522.991 308.948 515.903 313.071C512.103 315.277 508.288 317.456 504.473 319.636C502.492 320.788 500.548 321.977 498.611 323.2C491.446 327.408 485.628 327.488 477.552 327.427C466.92 327.658 457.886 332.337 448.507 336.985C446.086 337.914 444.343 338.042 441.774 337.866C441.774 336.988 441.774 336.111 441.774 335.206C446.458 333.158 451.142 331.109 455.968 328.998C452.762 326.862 450.918 326.882 447.097 326.671C445.999 326.604 444.901 326.538 443.77 326.47C442.514 326.424 441.257 326.38 440 326.338C439.247 326.298 438.495 326.258 437.72 326.217C431.479 326.013 426.45 327.133 420.595 329.22C419.691 329.532 418.787 329.843 417.856 330.164C407.175 333.928 396.756 338.352 386.332 342.766C381.523 344.791 376.692 346.762 371.86 348.73C370.265 349.381 368.67 350.032 367.074 350.683C365.953 351.141 364.831 351.598 363.71 352.055C365.193 363.897 371.528 374.764 378.79 383.979C379.41 384.771 380.03 385.564 380.669 386.38C394.198 402.506 415.187 410.028 435.565 412.357C439.911 412.608 444.241 412.653 448.594 412.634C449.763 412.629 450.933 412.624 452.138 412.618C461.058 412.508 469.494 411.881 478.145 409.696C478.846 409.52 479.547 409.344 480.269 409.162C514.458 400.268 542.674 378.11 570.818 357.643C579.829 351.095 588.99 344.787 598.224 338.56C600.408 337.085 602.585 335.601 604.761 334.115C633.663 314.474 633.663 314.474 647.023 311.155C647.709 310.979 648.395 310.802 649.102 310.62C650.462 310.279 651.831 309.968 653.205 309.689C655.366 309.225 655.366 309.225 658.226 307.716C659.393 305.287 659.642 303.341 660 300.621C660.878 300.621 661.757 300.621 662.661 300.621C662.954 302.962 663.247 305.304 663.548 307.716C664.77 307.942 664.77 307.942 666.016 308.173C674.735 309.894 681.544 311.463 687.5 318.357C687.907 318.817 688.314 319.276 688.734 319.75C696.379 329.041 702.124 342.431 701.545 354.528C701.024 369.201 706.811 378.499 714.98 390.259C716.963 393.12 718.851 396.03 720.722 398.966C721.853 400.738 723 402.499 724.152 404.258C728.577 411.042 732.865 417.915 737.178 424.772C742.14 421.735 746.969 418.607 751.593 415.072C764.401 405.324 777.841 396.362 791.29 387.526C790.766 384.095 789.745 381.571 788.037 378.558C787.544 377.682 787.05 376.807 786.542 375.904C786.005 374.966 785.468 374.028 784.914 373.061C784.355 372.074 783.795 371.087 783.219 370.07C777.423 359.875 771.521 349.742 765.565 339.64C764.888 338.489 764.211 337.338 763.534 336.187C755.992 323.368 748.46 310.571 740.248 298.166C738.115 294.91 736.034 291.622 733.945 288.338C728.455 279.715 722.91 271.128 717.273 262.6C716.718 261.753 716.164 260.906 715.592 260.033C707.798 248.31 699.396 236.284 684.839 233.225C653.712 230.094 619.636 255.491 593.226 270.032ZM353.785 240.929C352.877 241.008 351.968 241.087 351.032 241.168C335.209 242.138 335.209 242.138 320.242 246.527C320.197 252.284 320.166 258.041 320.145 263.799C320.136 265.753 320.124 267.708 320.108 269.663C320.086 272.488 320.076 275.312 320.069 278.136C320.06 278.998 320.05 279.859 320.041 280.746C320.04 289.519 320.59 298.119 326.452 305.055C337.884 316.23 360.389 314.264 374.989 314.114C393.264 313.829 412.828 311.745 430.242 305.942C431.571 305.86 432.903 305.827 434.234 305.831C434.92 305.829 435.606 305.827 436.313 305.824C438.226 305.942 438.226 305.942 440.887 306.829C446.182 307.303 450.588 307.302 455.081 304.168C457.706 301.559 459.841 298.726 461.29 295.301C467.799 295.643 473.165 299.634 478.09 303.614C479.88 305.33 479.88 305.33 482.581 305.055C483.561 301.969 484.059 299.397 483.468 296.187C481.138 293.936 478.757 292.397 475.962 290.766C473.71 289.093 473.71 289.093 472.954 286.672C472.911 286.008 472.867 285.343 472.823 284.659C477.233 286.224 481.192 288.556 485.242 290.867C485.425 289.733 485.608 288.599 485.796 287.43C485.899 286.792 486.002 286.155 486.108 285.497C486.115 284.928 486.122 284.359 486.129 283.772C483.679 281.323 481.51 281.486 478.145 281.112C478.438 279.941 478.731 278.771 479.032 277.565C482.157 277.494 484.905 277.529 487.903 278.452C488.961 275.014 489.677 272.318 489.677 268.697C484.361 266.039 477.348 268.174 471.936 269.695C470.847 269.986 470.847 269.986 469.736 270.284C466.113 271.283 462.57 272.388 459.055 273.723C458.413 273.966 457.771 274.209 457.11 274.459C455.926 274.918 454.749 275.396 453.582 275.897C443.914 279.695 432.363 277.393 422.362 276.106C421.13 275.953 419.897 275.8 418.664 275.648C416.098 275.33 413.532 275.007 410.967 274.68C407.735 274.268 404.503 273.864 401.27 273.464C387.539 271.762 373.829 269.97 360.161 267.81C360.161 266.64 360.161 265.469 360.161 264.263C363.967 264.263 367.773 264.263 371.694 264.263C372.447 261.25 372.685 259.146 372.667 256.102C372.664 255.233 372.662 254.364 372.659 253.469C372.651 252.568 372.644 251.668 372.636 250.739C372.632 249.825 372.628 248.91 372.624 247.968C372.614 245.714 372.599 243.46 372.581 241.207C366.197 240.343 360.192 240.347 353.785 240.929ZM577.5 243.867C575.331 247.119 574.99 249.842 575.726 253.622C577.474 256.04 577.474 256.04 580.161 257.169C582.92 257.461 582.92 257.461 585.484 256.282C587.87 253.583 588.92 251.764 589.42 248.19C588.981 245.303 588.505 244.08 586.371 242.093C582.564 240.591 580.682 241.46 577.5 243.867ZM249.274 281.112C249.274 286.23 249.353 291.121 249.83 296.183C249.889 296.841 249.948 297.5 250.009 298.179C250.203 300.327 250.402 302.475 250.601 304.622C250.739 306.129 250.876 307.636 251.013 309.142C251.299 312.287 251.588 315.432 251.879 318.576C252.25 322.598 252.617 326.621 252.982 330.643C253.264 333.75 253.549 336.856 253.834 339.962C253.97 341.445 254.105 342.928 254.24 344.411C254.429 346.485 254.621 348.557 254.813 350.63C254.868 351.237 254.923 351.844 254.979 352.469C255.304 355.927 255.798 359.258 256.371 362.696C290.915 362.696 325.458 362.696 361.048 362.696C360.17 360.063 359.292 357.429 358.387 354.715C356.33 354.08 354.259 353.489 352.177 352.942C345.426 343.493 344.556 328.762 343.306 317.47C342.833 317.319 342.36 317.168 341.872 317.013C326.114 311.889 326.114 311.889 322.016 306.829C321.394 306.097 320.772 305.366 320.131 304.612C316.243 297.357 315.727 289.186 314.919 281.112C293.256 281.112 271.594 281.112 249.274 281.112ZM463.065 300.621C462.717 301.28 462.369 301.938 462.011 302.617C460.263 305.267 458.519 306.736 455.968 308.602C454.797 309.48 453.626 310.358 452.419 311.263C461.494 311.263 470.569 311.263 479.919 311.263C478.456 310.092 476.992 308.922 475.484 307.716C474.816 307.163 474.148 306.611 473.46 306.042C472.811 305.515 472.161 304.988 471.492 304.446C470.842 303.912 470.193 303.378 469.524 302.828C467.333 301.399 465.638 300.961 463.065 300.621ZM429.355 310.376C429.355 310.669 429.355 310.961 429.355 311.263C432.868 311.263 436.381 311.263 440 311.263C435.782 309.154 433.788 309.418 429.355 310.376ZM610.323 335.206C609.721 335.609 609.119 336.013 608.499 336.428C604.982 338.797 601.495 341.206 598.021 343.637C595.971 345.071 593.917 346.499 591.863 347.926C584.72 352.898 577.613 357.915 570.57 363.029C531.237 391.546 531.237 391.546 514.516 399.941C514.516 400.234 514.516 400.527 514.516 400.828C522.607 400.978 530.446 400.668 538.468 399.609C540.14 399.392 540.14 399.392 541.846 399.171C558.823 396.874 575.653 393.498 592.48 390.315C593.894 390.048 593.894 390.048 595.336 389.775C596.642 389.526 596.642 389.526 597.975 389.272C598.735 389.127 599.495 388.982 600.279 388.833C602.165 388.449 604.024 388.01 605.887 387.526C605.769 387.002 605.652 386.477 605.53 385.936C605.207 384.489 604.886 383.041 604.567 381.593C604.243 380.132 603.905 378.673 603.559 377.218C603.021 373.816 602.544 370.268 604.113 367.13C605.284 367.13 606.455 367.13 607.661 367.13C607.684 367.86 607.707 368.589 607.731 369.34C608.072 376.065 609.153 381.463 612.097 387.526C614.399 384.075 616.265 380.443 618.196 376.774C618.581 376.049 618.966 375.325 619.363 374.578C621.876 369.811 624.168 364.988 626.29 360.036C627.461 360.036 628.632 360.036 629.839 360.036C627.652 368.326 623.929 375.671 619.979 383.242C614.189 394.444 613.548 403.857 615.086 416.18C615.525 419.718 615.932 423.259 616.341 426.801C616.429 427.561 616.518 428.32 616.609 429.103C617.681 438.409 618.565 447.734 619.45 457.06C619.622 458.86 619.793 460.661 619.965 462.462C620.399 467.025 620.83 471.588 621.261 476.151C621.957 483.528 622.658 490.905 623.36 498.281C623.599 500.807 623.838 503.333 624.076 505.858C625.043 516.082 626.081 526.296 627.177 536.507C634.311 536.178 641.445 535.847 648.578 535.512C651.891 535.357 655.205 535.202 658.518 535.05C661.722 534.903 664.926 534.753 668.129 534.601C669.345 534.544 670.561 534.488 671.777 534.433C678.521 534.125 685.227 533.732 691.936 532.96C692.84 527.529 693.106 522.138 693.331 516.641C693.374 515.634 693.417 514.628 693.462 513.59C693.605 510.247 693.742 506.904 693.88 503.561C693.953 501.796 694.027 500.032 694.1 498.268C694.443 490.046 694.772 481.823 695.096 473.6C695.121 472.957 695.147 472.313 695.173 471.65C697.069 424.342 697.069 424.342 697.805 377.006C697.813 375.074 697.828 373.141 697.846 371.208C698.077 353.149 698.077 353.149 692.823 336.093C692.576 335.565 692.33 335.036 692.076 334.492C687.957 325.728 683.089 318.729 674.156 314.536C651.906 306.678 627.908 323.391 610.323 335.206ZM411.613 314.81C410.743 314.924 410.743 314.924 409.856 315.04C407.152 315.392 404.448 315.738 401.744 316.085C400.833 316.204 399.921 316.324 398.982 316.447C386.794 317.998 374.757 318.484 362.49 318.412C361.136 318.408 359.782 318.404 358.429 318.4C355.162 318.391 351.896 318.375 348.629 318.357C349.031 324.994 349.573 331.407 351.179 337.866C351.322 338.496 351.465 339.126 351.613 339.775C352.483 343.397 353.622 346.318 355.726 349.395C359.561 348.878 362.793 347.94 366.354 346.436C367.375 346.009 368.397 345.581 369.45 345.14C370.549 344.674 371.648 344.208 372.747 343.741C374.464 343.02 376.182 342.301 377.9 341.582C379.079 341.089 380.258 340.594 381.437 340.099C387.633 337.499 393.855 334.963 400.081 332.435C401.085 332.026 402.089 331.618 403.124 331.197C407.132 329.567 411.142 327.942 415.161 326.338C414.909 325.081 414.648 323.825 414.385 322.569C414.241 321.87 414.097 321.17 413.949 320.449C413.393 318.38 412.596 316.705 411.613 314.81ZM140.827 389.91C140.314 390.586 139.802 391.263 139.274 391.96C138.981 392.253 138.689 392.546 138.387 392.847C138.132 395.442 137.954 397.416 138.387 399.941C141.154 403.033 144.145 404.32 148.145 405.262C150.894 404.562 150.894 404.562 153.523 403.212C166.613 397.065 179.589 400.507 192.669 405.05C196.517 406.465 200.28 408.043 204.032 409.696C205.204 410.192 205.204 410.192 206.399 410.697C208.357 411.581 208.357 411.581 211.129 413.243C211.746 415.121 211.746 415.121 212.016 416.79C208.119 416.31 205.3 415.352 201.87 413.465C195.691 410.265 189.376 408.171 182.742 406.149C182.087 405.928 181.431 405.708 180.756 405.48C171.322 402.592 161.432 403.976 152.581 407.923C148.547 410.07 145.182 412.376 143.71 416.79C143.264 422.226 143.611 424.889 147.258 429.205C156.441 438.614 169.419 439.536 181.855 439.847C184.749 439.854 187.642 439.825 190.535 439.792C191.315 439.783 192.095 439.774 192.899 439.765C193.693 439.755 194.487 439.746 195.305 439.737C196.939 439.718 198.573 439.699 200.207 439.681C201.016 439.671 201.826 439.661 202.66 439.651C216.344 439.514 228.899 440.739 242.177 444.281C240.233 433.91 235.342 426.405 228.084 418.789C226.21 416.79 226.21 416.79 224.47 414.556C211.378 398.636 187.194 386.312 166.774 383.979C158.247 383.318 147.327 383.486 140.827 389.91ZM701.694 391.96C701.656 393.438 701.658 394.917 701.694 396.394C702.657 397.558 702.657 397.558 704.996 397.368C705.974 397.357 706.951 397.347 707.959 397.337C708.939 397.329 709.919 397.321 710.928 397.312C711.687 397.302 712.445 397.292 713.226 397.281C712.261 394.399 712.261 394.399 710.565 391.96C709.069 391.897 707.571 391.886 706.074 391.905C705.258 391.913 704.443 391.921 703.603 391.929C702.973 391.94 702.343 391.95 701.694 391.96ZM787.576 395.508C786.712 396.09 786.712 396.09 785.83 396.684C771.995 406.052 758.326 415.659 744.831 425.511C743.483 426.476 742.106 427.399 740.726 428.319C742.119 433.61 744.94 437.922 747.823 442.507C752.497 441.058 756.01 438.105 759.854 435.191C765.889 430.681 771.971 426.256 778.15 421.945C779.246 421.177 779.246 421.177 780.364 420.394C783.923 417.91 787.501 415.465 791.128 413.08C791.792 412.639 792.457 412.197 793.142 411.742C794.389 410.917 795.643 410.101 796.905 409.297C798.757 408.108 798.757 408.108 801.048 406.149C801.048 402.059 800.111 400.534 798.055 397.059C797.499 396.104 796.943 395.148 796.37 394.164C795.865 393.436 795.36 392.709 794.839 391.96C791.951 391.96 789.896 393.928 787.576 395.508ZM372.223 391.994C371.205 392.002 370.188 392.009 369.139 392.017C367.457 392.029 367.457 392.029 365.74 392.042C364.551 392.051 363.362 392.059 362.173 392.068C358.94 392.092 355.707 392.116 352.474 392.139C349.098 392.164 345.721 392.189 342.345 392.214C335.948 392.261 329.552 392.308 323.155 392.355C315.874 392.409 308.593 392.463 301.312 392.516C286.331 392.626 271.351 392.737 256.371 392.847C256.664 394.603 256.956 396.359 257.258 398.168C270.121 398.043 282.984 397.913 295.847 397.78C296.79 397.77 297.734 397.76 298.706 397.75C326.588 397.46 354.464 397.116 382.339 396.394C381.203 394.88 380.017 393.403 378.79 391.96C376.601 391.96 374.412 391.978 372.223 391.994ZM595.242 394.177C594.555 394.304 593.867 394.431 593.159 394.562C591.487 394.871 589.816 395.189 588.145 395.508C588.145 395.8 588.145 396.093 588.145 396.394C595.464 396.394 602.782 396.394 610.323 396.394C610.323 395.224 610.323 394.053 610.323 392.847C605.108 392.705 600.357 393.194 595.242 394.177ZM7.98387 438.96C7.67806 441.614 7.67806 441.614 9.2868 442.989C10.1787 443.711 10.1787 443.711 11.0887 444.447C13.6625 446.593 16.0445 448.779 18.3518 451.209C30.5488 463.473 45.6983 472.785 63.372 472.991C74.1164 472.889 82.9445 470.657 91.0938 463.458C96.9082 456.86 99.9219 451.261 99.7499 442.234C99.0947 438.275 97.0909 436.104 94.0323 433.639C81.3027 425.057 61.1252 429.16 47.0161 431.866C43.4938 432.664 40.0342 433.618 36.572 434.644C33.5575 435.454 30.5952 435.916 27.5 436.3C27.5 435.129 27.5 433.959 27.5 432.753C45.841 426.967 72.5144 418.816 91.0903 427.681C91.8416 428.093 92.5929 428.504 93.3669 428.928C97.6987 431.274 99.923 431.439 104.677 430.092C108.438 428.079 108.438 428.079 110.887 424.772C111.325 420.976 111.18 419.061 109.224 415.737C103.542 409.702 94.5271 408.847 86.7137 408.588C60.4927 408.882 26.503 419.707 7.98387 438.96ZM259.919 415.904C259.842 416.887 259.765 417.87 259.686 418.882C253.059 503.33 253.059 503.33 249.773 538.447C249.69 539.342 249.69 539.342 249.604 540.256C247.699 560.644 247.699 560.644 246.994 566.302C246.58 570.541 246.613 574.814 246.613 579.073C277.351 579.073 308.089 579.073 339.758 579.073C339.786 561.785 339.786 561.785 339.365 544.525C339.323 543.368 339.281 542.212 339.238 541.02C339.126 537.93 339.01 534.84 338.892 531.75C338.768 528.479 338.648 525.208 338.527 521.938C338.325 516.466 338.119 510.994 337.912 505.523C337.673 499.222 337.439 492.921 337.207 486.62C336.983 480.505 336.755 474.391 336.525 468.276C336.429 465.695 336.333 463.113 336.238 460.531C336.105 456.931 335.968 453.332 335.83 449.732C335.792 448.678 335.754 447.624 335.714 446.538C335.488 440.731 335.1 434.979 334.436 429.205C333.859 429.204 333.283 429.202 332.69 429.201C327.292 429.184 321.895 429.135 316.498 429.07C314.468 429.05 312.439 429.037 310.409 429.032C289.123 428.972 289.123 428.972 279.436 423.885C277.863 423.157 276.29 422.431 274.716 421.706C272.554 420.655 270.398 419.59 268.243 418.524C267.543 418.184 266.843 417.844 266.122 417.494C265.503 417.188 264.885 416.881 264.247 416.566C262.467 415.74 262.467 415.74 259.919 415.904ZM339.758 429.205C340.315 448.707 340.905 468.199 341.671 487.692C341.743 489.531 341.814 491.371 341.886 493.21C342.109 498.927 342.333 504.644 342.558 510.361C342.79 516.224 343.017 522.088 343.243 527.951C343.44 533.049 343.639 538.147 343.84 543.244C343.959 546.263 344.077 549.282 344.193 552.3C344.321 555.639 344.453 558.977 344.587 562.315C344.624 563.297 344.661 564.279 344.699 565.29C344.736 566.202 344.773 567.113 344.812 568.052C344.842 568.836 344.873 569.621 344.905 570.429C345.114 573.324 345.557 576.199 345.968 579.073C350.944 579.073 355.921 579.073 361.048 579.073C362.112 577.157 362.112 577.157 363.197 575.203C378.021 548.648 393.705 523.113 419.098 505.414C419.718 504.979 420.338 504.545 420.977 504.097C421.856 503.499 421.856 503.499 422.754 502.889C423.278 502.531 423.802 502.173 424.342 501.804C425.807 501.035 425.807 501.035 428.468 501.035C427.964 504.189 427.172 506.519 425.54 509.259C425.117 509.979 424.694 510.7 424.259 511.442C423.8 512.214 423.341 512.987 422.868 513.783C414.678 527.882 407.122 542.13 400.691 557.125C400.259 558.123 399.827 559.121 399.382 560.149C398.994 561.076 398.606 562.003 398.206 562.958C397.86 563.78 397.515 564.602 397.158 565.449C396.283 567.646 396.283 567.646 397.419 570.205C397.808 569.645 398.197 569.084 398.598 568.507C411.237 550.685 427.361 533.52 447.984 524.979C449.155 524.979 450.326 524.979 451.532 524.979C451.014 528.191 450.151 530.671 448.604 533.528C448.181 534.321 447.757 535.114 447.321 535.931C446.634 537.204 446.634 537.204 445.933 538.502C441.802 546.289 437.803 554.126 433.957 562.057C433.484 563.02 433.01 563.982 432.523 564.973C432.094 565.864 431.665 566.755 431.223 567.673C430.648 568.857 430.648 568.857 430.062 570.065C429.829 570.697 429.595 571.328 429.355 571.978C429.648 572.564 429.94 573.149 430.242 573.752C431.048 572.905 431.854 572.058 432.685 571.185C440.193 563.419 447.924 556.761 456.855 550.695C457.805 550.022 458.755 549.349 459.734 548.655C462.177 547.148 462.177 547.148 464.839 547.148C464.52 552.554 461.919 555.942 458.906 560.228C457.936 561.645 456.967 563.063 455.999 564.482C455.534 565.161 455.068 565.839 454.589 566.538C450.102 572.362 450.102 572.362 447.984 579.073C508.289 579.073 568.594 579.073 630.726 579.073C634.454 566.605 634.454 566.605 634.274 560.45C633.644 560.396 633.014 560.343 632.365 560.287C631.55 560.213 630.734 560.139 629.894 560.062C628.675 559.954 628.675 559.954 627.43 559.844C625.403 559.563 625.403 559.563 624.516 558.676C624.243 556.596 624.023 554.533 623.834 552.444C623.772 551.788 623.71 551.132 623.646 550.455C623.438 548.253 623.235 546.05 623.033 543.847C622.888 542.292 622.742 540.737 622.595 539.183C622.203 535 621.816 530.817 621.43 526.634C621.111 523.185 620.789 519.736 620.466 516.287C618.944 499.993 617.443 483.697 615.995 467.396C615.943 466.806 615.89 466.217 615.836 465.609C615.311 459.695 614.791 453.781 614.279 447.866C614.155 446.442 614.155 446.442 614.028 444.989C613.876 443.256 613.727 441.522 613.579 439.788C613.513 439.035 613.447 438.281 613.379 437.505C613.324 436.86 613.268 436.215 613.211 435.551C612.958 433.418 612.518 431.311 612.097 429.205C522.225 429.205 432.353 429.205 339.758 429.205ZM701.694 429.205C701.15 432.465 700.692 435.275 700.565 438.504C700.519 439.627 700.519 439.627 700.471 440.772C700.441 441.578 700.411 442.383 700.38 443.213C700.345 444.075 700.311 444.937 700.275 445.825C700.161 448.679 700.052 451.532 699.944 454.385C699.866 456.395 699.787 458.405 699.709 460.415C699.545 464.644 699.383 468.873 699.224 473.102C699.062 477.382 698.896 481.662 698.725 485.941C697.785 509.604 696.954 533.22 697.258 556.903C693.16 557.196 689.061 557.488 684.839 557.79C684.93 558.869 685.022 559.948 685.116 561.06C685.167 561.667 685.219 562.274 685.272 562.899C686.746 569.342 691.812 572.388 697.063 575.721C703.592 579.366 709.094 579.638 716.466 579.36C717.524 579.339 718.582 579.319 719.673 579.297C722.256 579.244 724.837 579.168 727.419 579.073C724.91 544.44 722.236 509.821 719.454 475.209C719.213 472.208 718.974 469.206 718.735 466.205C718.355 461.443 717.972 456.681 717.587 451.92C717.443 450.146 717.301 448.371 717.16 446.596C716.966 444.159 716.768 441.721 716.569 439.284C716.513 438.566 716.457 437.848 716.399 437.108C716.167 434.317 715.89 431.874 715 429.205C710.609 429.205 706.218 429.205 701.694 429.205ZM141.048 465.564C139.332 468.267 139.274 469.285 139.274 472.658C140.07 472.896 140.866 473.134 141.686 473.379C156.601 478.061 170.703 484.943 182.409 495.437C182.872 495.849 183.335 496.26 183.812 496.684C186.147 498.855 187.744 500.442 188.065 503.696C184.594 503.183 182.751 501.526 180.136 499.262C166.453 487.86 149.393 476.252 130.805 476.836C127.816 477.188 125.748 478 123.306 479.752C121.002 483.573 120.825 486.932 121.532 491.281C125.427 502.945 133.971 510.55 144.369 516.446C148.943 518.723 153.646 520.062 158.569 521.376C160.678 521.974 162.788 522.574 164.896 523.177C165.95 523.476 167.003 523.774 168.088 524.081C182.047 528.094 195.028 532.707 207.581 540.054C208.752 540.725 209.925 541.395 211.098 542.063C212.431 542.824 212.431 542.824 213.79 543.601C218.87 525.931 210.529 503.152 202.147 487.733C194.912 475.736 183.506 464.364 169.751 460.465C160.109 458.384 148.753 458.576 141.048 465.564ZM122.419 504.582C122.406 505.202 122.393 505.821 122.38 506.459C121.981 524.077 120.99 541.625 119.773 559.205C119.714 560.064 119.655 560.922 119.594 561.807C119.483 563.42 119.37 565.032 119.254 566.645C118.966 570.8 118.815 574.907 118.871 579.073C120.627 578.634 120.627 578.634 122.419 578.186C122.55 577.122 122.68 576.057 122.814 574.961C125.176 556.909 130.153 541.249 138.382 525.017C139.387 522.975 140.261 520.906 141.048 518.771C140.511 518.49 139.973 518.209 139.42 517.919C133.745 514.76 129.479 511.048 125.022 506.335C124.456 505.757 123.89 505.178 123.306 504.582C123.014 504.582 122.721 504.582 122.419 504.582ZM416.048 513.45C395.512 530.446 378.439 552.954 367.258 577.299C367.258 577.884 367.258 578.47 367.258 579.073C373.991 579.073 380.724 579.073 387.661 579.073C388.286 577.386 388.91 575.7 389.553 573.963C394.166 561.635 399.039 549.515 404.793 537.671C405.292 536.642 405.79 535.613 406.303 534.552C409.227 528.624 412.391 522.93 415.872 517.31C416.223 516.621 416.574 515.933 416.936 515.224C416.496 514.346 416.496 514.346 416.048 513.45ZM435.232 537.671C434.68 538.067 434.127 538.462 433.558 538.87C427.914 542.996 422.834 547.599 417.823 552.469C417.335 552.934 416.847 553.398 416.345 553.877C412.373 557.732 408.959 561.858 405.625 566.27C404.875 567.239 404.875 567.239 404.111 568.228C401.376 571.819 399.486 574.942 397.419 579.073C405.031 579.073 412.642 579.073 420.484 579.073C426.396 568.108 431.828 557.053 436.944 545.697C438.751 541.692 440.664 537.76 442.661 533.846C439.69 533.846 437.571 535.99 435.232 537.671ZM670.947 538.862C669.705 538.922 668.464 538.982 667.222 539.041C663.98 539.197 660.738 539.355 657.496 539.514C654.178 539.675 650.859 539.835 647.541 539.995C641.049 540.308 634.557 540.624 628.065 540.941C626.686 543.696 627.545 546.033 628.009 549.033C628.182 550.169 628.354 551.305 628.532 552.476C628.671 553.352 628.809 554.227 628.952 555.129C641.811 555.376 654.59 554.964 667.43 554.298C668.565 554.24 668.565 554.24 669.724 554.181C671.923 554.067 674.122 553.95 676.321 553.83C677.298 553.779 677.298 553.779 678.294 553.727C682.864 553.468 687.389 553.004 691.936 552.469C691.936 547.787 691.936 543.104 691.936 538.28C684.924 538.2 677.948 538.517 670.947 538.862ZM111.663 544.211C109.539 546.656 108.315 548.118 107.956 551.364C108.145 553.224 108.386 555.079 108.666 556.927C109.341 561.429 109.208 565.941 109.168 570.482C109.164 571.325 109.16 572.167 109.156 573.036C109.146 575.048 109.131 577.06 109.113 579.073C110.577 579.073 112.04 579.073 113.548 579.073C113.933 575.21 114.312 571.348 114.685 567.484C114.813 566.175 114.942 564.865 115.073 563.555C115.826 556.006 116.43 548.538 116.21 540.941C114.337 540.941 112.901 543.01 111.663 544.211ZM102.903 553.356C102.51 553.726 102.118 554.097 101.713 554.478C99.8932 556.193 98.0716 557.906 96.25 559.619C95.6325 560.201 95.015 560.784 94.3788 561.384C93.7613 561.964 93.1438 562.544 92.5076 563.142C91.5693 564.023 91.5693 564.023 90.6121 564.923C88.2333 567.092 85.7584 569.134 83.2468 571.148C80.9873 573.385 80.9873 573.385 78.0645 579.073C86.8468 579.073 95.629 579.073 104.677 579.073C104.714 575.323 104.751 571.574 104.788 567.711C104.804 566.531 104.821 565.352 104.837 564.136C104.842 563.207 104.846 562.277 104.851 561.32C104.86 560.368 104.869 559.415 104.879 558.435C104.858 555.822 104.858 555.822 102.903 553.356ZM444.214 566.27C443.434 566.996 443.434 566.996 442.638 567.738C439.135 571.035 435.862 574.383 432.903 578.186C432.903 578.478 432.903 578.771 432.903 579.073C436.203 580.146 438.51 580.335 441.774 579.073C446.123 574.178 449.469 567.525 451.532 561.337C448.402 561.337 446.399 564.216 444.214 566.27Z" fill="black"/>
<path d="M483.469 59.416C484.64 59.7087 485.811 60.0013 487.017 60.3028C486.725 62.9366 486.432 65.5703 486.13 68.2839C484.959 68.2839 483.788 68.2839 482.582 68.2839C481.554 64.6886 481.839 62.7697 483.469 59.416Z" fill="black"/>
<path d="M496.777 66.5098C497.948 67.095 499.119 67.6803 500.326 68.2833C500.248 70.6864 500.153 73.0866 500.048 75.4885C500.018 76.5002 500.018 76.5002 499.988 77.5323C499.748 82.584 498.601 86.1937 495.557 90.3422C493.515 91.7554 492.105 91.6506 489.68 91.3398C489.095 90.7545 488.509 90.1693 487.906 89.5662C488.017 87.7927 488.017 87.7927 488.793 86.0191C489.373 85.7642 489.953 85.5093 490.55 85.2466C492.466 84.4148 492.466 84.4148 493.045 82.607C493.161 81.9589 493.276 81.3107 493.395 80.6429C493.527 79.9365 493.658 79.23 493.794 78.5022C494.205 75.6493 494.495 72.7968 494.698 69.9218C495.003 68.2833 495.003 68.2833 496.777 66.5098Z" fill="black"/>
<path d="M474.599 90.4521C478.567 90.9055 480.439 92.3735 483.47 94.8861C485.224 95.8123 486.994 96.7102 488.792 97.5464C488.499 98.717 488.207 99.8876 487.905 101.094C482.192 100.637 479.096 98.7672 474.654 95.3295C473.712 93.9993 473.712 93.9993 473.989 92.0595C474.19 91.529 474.391 90.9986 474.599 90.4521Z" fill="black"/>
<path d="M163.228 110.849C165.39 111.514 165.39 111.514 167.663 112.622C168.55 114.34 168.55 114.34 168.55 116.169C167.552 117.777 167.552 117.777 165.889 118.83C163.505 118.553 163.505 118.553 161.454 117.943C160.844 115.892 160.844 115.892 160.566 113.509C161.842 111.902 161.842 111.902 163.228 110.849Z" fill="black"/>
<path d="M708.536 122.135C709.533 122.126 710.531 122.118 711.559 122.109C712.628 122.11 713.697 122.111 714.799 122.111C715.905 122.108 717.01 122.104 718.149 122.1C721.082 122.094 724.014 122.096 726.947 122.101C728.741 122.101 730.536 122.092 732.331 122.08C735.783 122.058 739.235 122.055 742.687 122.056C743.756 122.048 744.826 122.04 745.927 122.031C746.925 122.037 747.923 122.042 748.95 122.048C749.826 122.047 750.701 122.047 751.602 122.046C754.462 122.438 756.138 123.352 758.461 125.039C760.777 129.67 759.626 137.078 759.658 142.236C759.673 143.957 759.697 145.678 759.731 147.399C759.78 149.882 759.799 152.363 759.812 154.846C759.832 155.613 759.852 156.38 759.873 157.17C759.861 160.681 759.575 162.757 757.862 165.875C753.059 168.691 748.2 168.2 742.736 168.131C741.535 168.129 740.335 168.129 739.134 168.131C736.624 168.129 734.114 168.113 731.604 168.085C728.388 168.05 725.172 168.046 721.955 168.053C719.478 168.055 717.002 168.045 714.526 168.029C712.763 168.02 711 168.02 709.238 168.019C708.169 168.005 707.1 167.991 705.999 167.977C704.586 167.966 704.586 167.966 703.144 167.954C700.799 167.604 700.799 167.604 699.199 166.417C696.624 162.842 697.108 158.785 697.102 154.583C697.099 153.828 697.096 153.072 697.093 152.294C697.089 150.696 697.087 149.099 697.087 147.502C697.085 145.059 697.069 142.617 697.052 140.175C697.049 138.622 697.047 137.07 697.047 135.517C697.04 134.787 697.034 134.057 697.027 133.306C697.054 126.541 697.054 126.541 699.025 124.152C702.288 122.566 704.927 122.151 708.536 122.135ZM706.122 127.699C706.122 128.284 706.122 128.869 706.122 129.472C706.997 129.951 707.872 130.43 708.773 130.924C711.255 132.34 713.596 133.867 715.918 135.531C716.523 135.964 717.127 136.396 717.75 136.842C718.995 137.741 720.235 138.646 721.471 139.558C722.373 140.198 722.373 140.198 723.292 140.852C723.829 141.242 724.365 141.633 724.918 142.036C726.493 142.922 726.493 142.922 728.241 142.612C730.444 141.741 732.263 140.619 734.239 139.31C735.02 138.797 735.801 138.284 736.606 137.755C737.414 137.216 738.223 136.678 739.056 136.123C740.665 135.06 742.275 133.998 743.886 132.936C744.597 132.464 745.309 131.991 746.042 131.504C747.816 130.359 747.816 130.359 749.59 129.472C749.151 128.595 749.151 128.595 748.703 127.699C734.651 127.699 720.599 127.699 706.122 127.699ZM747.538 135.625C746.581 136.353 745.622 137.081 744.662 137.807C744.163 138.185 743.663 138.563 743.149 138.953C740.605 140.867 738.042 142.751 735.452 144.603C734.529 145.272 733.606 145.941 732.655 146.63C729.851 148.221 728.775 148.752 725.638 148.095C723.549 146.814 721.688 145.538 719.761 144.049C714.479 140.055 709.092 136.602 703.461 133.02C703.461 142.677 703.461 152.334 703.461 162.284C709.917 162.302 716.373 162.32 722.828 162.329C725.835 162.334 728.841 162.34 731.847 162.35C735.293 162.362 738.739 162.366 742.185 162.37C743.808 162.377 743.808 162.377 745.464 162.384C746.458 162.384 747.453 162.384 748.477 162.384C749.358 162.386 750.238 162.388 751.146 162.39C753.112 162.508 753.112 162.508 754.025 161.397C754.104 159.226 754.128 157.08 754.112 154.909C754.111 154.26 754.109 153.612 754.108 152.944C754.103 150.866 754.092 148.788 754.081 146.709C754.076 145.304 754.072 143.898 754.069 142.492C754.059 139.039 754.043 135.586 754.025 132.133C751.204 132.133 749.735 133.923 747.538 135.625Z" fill="black"/>
<path d="M230.811 147.539C231.342 147.722 231.872 147.905 232.419 148.093C232.712 149.849 233.004 151.605 233.306 153.414C230.645 155.187 230.645 155.187 228.76 154.91C227.096 154.301 227.096 154.301 226.209 153.414C225.988 151.252 225.988 151.252 226.209 148.98C228.871 147.206 228.871 147.206 230.811 147.539Z" fill="black"/>
<path d="M133.062 204.849C135.446 205.625 135.446 205.625 137.497 206.622C137.608 208.728 137.608 208.728 137.497 211.056C136.912 211.641 136.327 212.227 135.723 212.83C131.682 212.337 131.682 212.337 130.401 211.056C130.179 208.895 130.179 208.895 130.401 206.622C131.279 206.037 132.157 205.452 133.062 204.849Z" fill="black"/>
<path d="M805.098 266.756C807.26 266.922 807.26 266.922 808.148 267.809C808.314 269.97 808.314 269.97 808.148 272.243C807.562 272.828 806.977 273.413 806.373 274.016C804.045 273.684 804.045 273.684 801.938 273.13C801.383 271.024 801.383 271.024 801.051 268.696C802.825 266.922 802.825 266.922 805.098 266.756Z" fill="black"/>
<path d="M77.5732 304.834C78.6984 304.944 78.6984 304.944 79.8464 305.056C81.6206 307.716 81.6206 307.716 81.5097 309.545C80.504 311.771 79.4151 312.174 77.1851 313.037C76.0141 312.159 74.8432 311.281 73.6367 310.376C74.5767 305.141 74.5767 305.141 77.5732 304.834Z" fill="black"/>
<path d="M835.64 360.034C836.194 362.141 836.194 362.141 836.527 364.468C834.753 366.242 834.753 366.242 832.479 366.408C830.317 366.242 830.317 366.242 829.43 365.355C829.394 363.582 829.392 361.808 829.43 360.034C831.796 358.852 833.126 359.439 835.64 360.034Z" fill="black"/>
<path d="M568.624 469.112C569.179 471.218 569.179 471.218 569.511 473.546C567.737 475.319 567.737 475.319 565.408 475.43C564.713 475.393 564.018 475.357 563.302 475.319C562.359 473.712 562.359 473.712 561.527 471.772C561.82 470.894 562.113 470.016 562.414 469.112C564.78 467.929 566.111 468.517 568.624 469.112Z" fill="black"/>
<path d="M298.062 504.584C300.446 505.36 300.446 505.36 302.497 506.358C302.608 508.464 302.608 508.464 302.497 510.791C301.912 511.377 301.327 511.962 300.723 512.565C296.682 512.072 296.682 512.072 295.401 510.791C295.179 508.63 295.179 508.63 295.401 506.358C296.279 505.772 297.157 505.187 298.062 504.584Z" fill="black"/>
<path d="M784.194 528.416C786.855 528.527 786.855 528.527 787.742 529.414C787.909 531.575 787.909 531.575 787.742 533.848C787.157 534.433 786.571 535.018 785.968 535.621C781.927 535.129 781.927 535.129 780.646 533.848C780.535 531.631 780.535 531.631 780.646 529.414C781.533 528.527 781.533 528.527 784.194 528.416Z" fill="black"/>
</g>
<defs>
<clipPath id="clip0_250_129">
<rect width="880" height="628.732" fill="white"/>
</clipPath>
</defs>
</svg>
