<svg width="448" height="320" viewBox="0 0 448 320" fill="none" xmlns="http://www.w3.org/2000/svg">
<g clip-path="url(#clip0_250_94)">
<path d="M251.097 -0.000418812C251.497 0.629799 251.893 1.26299 252.266 1.90896C253.116 2.97473 254.081 3.52662 255.246 4.23089C260.719 7.56685 264.563 11.8369 266.452 18.0532C266.452 18.5 266.452 18.9468 266.452 19.4072C266.835 19.5172 267.218 19.6271 267.612 19.7404C269.314 20.3662 270.76 21.2096 272.266 22.1999C272.542 22.3807 272.818 22.5616 273.102 22.748C278.728 26.4954 278.728 26.4954 279.69 29.1956C279.548 30.6907 279.548 30.6907 278.573 31.671C276.298 33.1346 274.033 32.817 271.419 32.4961C268.811 31.9104 266.274 31.088 263.742 30.2394C262.021 33.4518 260.756 36.6927 259.593 40.1406C258.301 43.8442 256.885 47.391 255.048 50.86C254.778 51.3735 254.778 51.3735 254.501 51.8974C252.932 54.758 251.12 57.2564 248.387 59.1251C247.94 59.1251 247.493 59.1251 247.032 59.1251C247.032 59.423 247.032 59.7209 247.032 60.0278C247.384 60.0633 247.737 60.0988 248.1 60.1353C250.318 60.5997 252.273 61.4591 254.343 62.3691C254.794 62.5667 255.246 62.7643 255.711 62.9679C264.813 67.0233 273.544 71.9084 282.258 76.7274C282.659 76.949 283.06 77.1707 283.473 77.3991C285.78 78.6758 288.084 79.9566 290.387 81.2408C290.404 80.9013 290.42 80.5619 290.437 80.2121C290.69 76.1049 291.374 72.1418 292.222 68.1237C292.291 67.7922 292.36 67.4608 292.431 67.1193C299.601 32.9063 299.601 32.9063 310.828 23.5239C313.506 21.798 316.201 21.8134 319.29 22.1152C324.628 23.3732 330.116 27.6659 333.095 32.2245C335.04 35.6476 335.434 38.4854 335.097 42.4255C334.678 43.8355 334.26 44.4123 333.29 45.5849C332.834 45.7525 332.378 45.92 331.907 46.0927C330.465 46.8103 330.465 46.8103 330.186 48.2436C329.978 49.2949 329.774 50.3468 329.573 51.3994C329.097 53.3264 328.603 53.9734 326.968 55.0631C325.839 55.5144 325.839 55.5144 324.71 55.5144C323.06 54.7686 322.042 53.897 321.097 52.355C321.097 52.0571 321.097 51.7592 321.097 51.4523C320.054 51.6013 319.01 51.7502 317.936 51.9037C318.085 52.3505 318.234 52.7973 318.387 53.2577C319.37 60.6791 319.386 68.239 319.403 75.7119C319.406 76.1121 319.408 76.5124 319.41 76.9249C319.465 88.8406 319.465 88.8406 317.936 93.427C318.393 93.288 318.85 93.149 319.322 93.0058C321.797 92.3005 324.328 92.0178 326.876 91.6848C327.78 91.566 328.683 91.4416 329.587 91.3166C336.18 90.4406 336.18 90.4406 339.161 90.7189C339.882 91.4392 339.684 92.1868 339.689 93.1825C339.663 95.5394 339.329 97.742 338.854 100.045C338.776 100.441 338.698 100.837 338.618 101.245C338.37 102.495 338.117 103.744 337.863 104.993C337.696 105.833 337.53 106.673 337.364 107.514C336.677 110.963 335.974 114.393 335.097 117.799C335.364 117.707 335.631 117.614 335.907 117.519C336.263 117.397 336.62 117.276 336.988 117.151C337.339 117.03 337.69 116.91 338.052 116.786C342.864 115.31 348.964 115.325 353.613 117.348C359.041 120.348 362.938 125.098 366.23 130.239C366.541 130.715 366.851 131.191 367.172 131.681C368.076 133.069 368.974 134.46 369.871 135.853C370.319 136.54 370.768 137.227 371.217 137.914C372.22 139.449 373.213 140.989 374.202 142.532C374.647 143.226 375.093 143.92 375.539 144.612C382.368 155.21 388.868 166.002 395.161 176.925C395.447 177.42 395.733 177.916 396.027 178.426C400.238 185.739 404.385 193.087 408.456 200.479C408.916 201.308 409.383 202.132 409.858 202.952C410.066 203.314 410.275 203.676 410.49 204.049C410.673 204.362 410.856 204.674 411.045 204.996C411.419 205.811 411.419 205.811 411.306 207.052C410.211 208.459 408.914 209.46 407.355 210.324C407.057 210.324 406.759 210.324 406.452 210.324C406.835 210.936 406.835 210.936 407.226 211.56C407.561 212.098 407.895 212.635 408.23 213.173C408.398 213.442 408.567 213.71 408.741 213.987C409.472 215.166 410.075 216.224 410.516 217.545C410.801 217.501 411.087 217.457 411.38 217.411C414.362 216.949 417.344 216.488 420.326 216.028C421.438 215.856 422.549 215.684 423.66 215.511C425.262 215.263 426.864 215.016 428.466 214.769C428.959 214.692 429.451 214.615 429.959 214.536C433.65 213.969 437.285 213.412 441.028 213.455C441.495 213.459 441.961 213.463 442.441 213.468C442.957 213.475 445.29 213.173 447.097 214.536C448.347 218.337 448 221.495 443.484 224.767C438.29 229.055 433.335 232.147 428.209 235.119C425.167 236.895 422.274 238.871 419.382 240.879C417.985 241.845 416.575 242.791 415.166 243.741C413.191 245.076 411.226 246.425 409.27 247.788C408.149 248.567 407.024 249.339 405.897 250.111C405.371 250.474 404.846 250.84 404.324 251.209C403.609 251.716 402.885 252.21 402.161 252.704C401.756 252.987 401.351 253.269 400.934 253.56C399.279 254.277 398.245 254.082 396.516 253.653C392.67 249.928 391.012 243.11 389.798 238.053C388.745 233.854 386.716 230.16 384.323 226.572C383.997 226.87 383.671 227.168 383.335 227.475C381.927 228.475 381.48 228.638 379.806 228.378C379.011 227.563 379.011 227.563 378.302 226.435C377.915 225.83 377.915 225.83 377.521 225.213C377.26 224.786 376.999 224.36 376.73 223.921C376.46 223.498 376.19 223.075 375.912 222.639C373.936 219.501 373.936 219.501 373.936 218.448C371.7 218.448 369.465 218.448 367.161 218.448C367.227 219.241 367.292 220.033 367.36 220.849C368.131 230.175 368.897 239.501 369.661 248.827C369.803 250.567 369.946 252.307 370.088 254.048C370.494 258.994 370.898 263.94 371.3 268.887C371.478 271.075 371.656 273.263 371.836 275.451C372.006 277.525 372.174 279.598 372.342 281.672C372.404 282.436 372.466 283.2 372.529 283.964C372.616 285.016 372.701 286.068 372.785 287.12C372.833 287.709 372.881 288.298 372.931 288.905C373.043 290.842 373.032 292.784 373.032 294.725C389.724 294.725 406.416 294.725 423.613 294.725C423.762 295.32 423.911 295.916 424.065 296.53C423.161 297.433 423.161 297.433 422.143 297.545C421.501 297.545 421.501 297.545 420.847 297.544C420.357 297.546 419.867 297.548 419.362 297.55C418.552 297.546 418.552 297.546 417.725 297.542C417.158 297.543 416.591 297.544 416.007 297.545C414.45 297.547 412.893 297.544 411.335 297.539C409.708 297.535 408.08 297.536 406.453 297.536C403.719 297.536 400.986 297.532 398.252 297.526C395.089 297.518 391.926 297.516 388.763 297.516C385.724 297.517 382.685 297.514 379.645 297.511C378.35 297.509 377.055 297.508 375.76 297.508C373.953 297.507 372.146 297.503 370.339 297.498C369.799 297.498 369.259 297.499 368.703 297.499C368.213 297.497 367.722 297.495 367.217 297.493C366.79 297.492 366.362 297.491 365.922 297.491C364.903 297.433 364.903 297.433 364 296.981C364 297.279 364 297.577 364 297.884C364.314 297.929 364.628 297.975 364.951 298.021C366.492 298.392 367.702 299.006 369.102 299.749C369.504 299.962 369.504 299.962 369.913 300.18C370.479 300.481 371.044 300.784 371.608 301.088C372.456 301.545 373.309 301.994 374.161 302.443C379.322 305.19 385.454 308.735 387.484 314.584C387.794 318.026 387.794 318.026 387.032 319.548C383.23 320.557 379.025 319.826 375.163 319.476C374.445 319.413 373.726 319.351 373.007 319.288C365.448 318.616 357.917 317.714 350.387 316.775C348.96 316.598 347.533 316.424 346.106 316.25C342.003 315.751 337.903 315.236 333.805 314.708C332.841 314.584 331.877 314.462 330.913 314.339C329.131 314.113 327.351 313.876 325.571 313.637C324.778 313.537 324.778 313.537 323.97 313.434C323.248 313.335 323.248 313.335 322.513 313.233C322.095 313.177 321.677 313.122 321.247 313.065C320.053 312.74 319.579 312.404 318.839 311.424C318.107 306.83 319.457 301.849 320.194 297.433C272.801 297.433 225.409 297.433 176.581 297.433C176.581 297.433 172.882 297.433 172.968 297.433C172.475 297.433 172.475 297.433 171.973 297.434C152.528 297.454 133.084 297.469 113.64 297.479C111.308 297.48 108.975 297.481 106.643 297.482C106.178 297.482 105.714 297.483 105.235 297.483C97.7073 297.487 90.1792 297.494 82.6512 297.502C74.9319 297.511 67.2127 297.516 59.4935 297.518C54.7267 297.519 49.9601 297.523 45.1934 297.53C41.9287 297.535 38.6641 297.536 35.3995 297.535C33.5134 297.534 31.6273 297.535 29.7412 297.54C28.0169 297.545 26.2926 297.545 24.5683 297.542C23.9422 297.541 23.3161 297.543 22.69 297.545C21.8435 297.549 20.9969 297.546 20.1503 297.544C19.6787 297.544 19.2071 297.544 18.7212 297.545C17.6129 297.433 17.6129 297.433 16.7097 296.53C16.8587 295.934 17.0077 295.338 17.1613 294.725C23.5697 294.576 29.9781 294.427 36.5807 294.273C35.6865 292.486 34.7923 290.699 33.871 288.857C33.3568 287.566 32.8719 286.305 32.4315 284.993C32.3196 284.664 32.2077 284.336 32.0924 283.997C31.7769 283.061 31.4685 282.123 31.1613 281.184C31.0111 280.742 30.8609 280.3 30.7062 279.844C28.5758 272.982 28.8071 265.097 31.7893 258.54C33.7074 255.171 36.3823 252.077 40.1936 250.945C43.5931 250.099 46.1702 250.624 49.2258 252.299C50.4395 253.201 50.4395 253.201 51.0323 254.104C50.9599 254.989 50.9599 254.989 50.5807 255.909C49.7586 256.519 49.7586 256.519 48.7177 257.094C43.0372 260.699 41.0763 267.767 39.6432 273.991C39.1394 276.369 38.9307 278.758 38.8387 281.184C39.2858 281.184 39.7329 281.184 40.1936 281.184C40.17 280.399 40.17 280.399 40.1459 279.598C40.148 277.687 40.4679 275.919 40.9557 274.076C41.0776 273.607 41.0776 273.607 41.2021 273.13C42.6925 267.618 44.8948 262.03 49.6474 258.545C51.1227 257.946 52.6126 257.873 54.1936 257.715C54.342 248.24 54.342 248.24 53.7984 238.787C53.763 238.414 53.7275 238.042 53.691 237.658C53.4594 235.53 53.0343 233.578 52.3871 231.537C52.2055 231.914 52.2055 231.914 52.0202 232.299C49.4171 237.365 45.6578 240.403 40.3065 242.256C32.8796 244.62 25.26 243.303 18.4599 239.802C13.7729 237.275 10.0275 233.993 6.33625 230.203C4.36537 228.187 2.31064 226.392 0 224.767C0.473775 221.696 3.63336 220.011 5.95917 218.272C15.9771 211.15 29.1488 205.879 41.5484 205.359C41.8674 205.341 42.1864 205.323 42.5151 205.305C47.5237 205.152 53.0549 205.786 56.8644 209.321C58.6708 211.344 59.3394 212.919 59.283 215.715C59.073 217.316 58.4159 218.158 57.3548 219.351C54.3937 221.607 54.3937 221.607 52.3871 221.607C53.2603 224.485 54.1449 227.349 55.1532 230.183C57.2827 236.663 56.9667 243.106 56.7825 249.836C56.7499 251.105 56.7312 252.373 56.7145 253.642C56.7 254.031 56.6855 254.421 56.6706 254.822C56.6619 255.836 56.6684 256.728 56.9032 257.715C57.9528 258.66 57.9528 258.66 59.1613 259.069C59.3103 259.218 59.4594 259.367 59.6129 259.52C59.6554 255.534 59.6949 251.616 59.1719 247.655C59.161 246.395 59.4458 245.439 59.8211 244.247C60.3683 242.055 60.4487 239.761 60.6573 237.517C61.7886 226.538 64.736 217.202 71.8065 208.519C71.1777 208.03 71.1777 208.03 70.5363 207.531C68.9481 206.181 67.8915 205.105 67.5991 202.954C67.4788 200.364 67.7473 198.768 69.5484 196.784C73.2645 193.416 78.187 192.553 83.0756 192.627C96.7313 193.571 108.383 200.774 117.732 210.479C122.223 215.643 126.232 221.306 126 228.378C125.851 228.527 125.702 228.675 125.548 228.829C122.494 228.665 119.605 227.975 116.648 227.231C116.177 227.115 116.177 227.115 115.696 226.995C115.419 226.925 115.142 226.855 114.857 226.782C111.53 226.118 108.322 226.077 104.942 226.124C103.914 226.132 102.887 226.14 101.859 226.147C100.258 226.161 98.6568 226.177 97.0557 226.198C79.3148 226.419 79.3148 226.419 73.5265 221.16C72.1292 219.615 71.0504 217.989 70 216.191C65.8779 223.469 63.3471 232.145 63.6774 240.564C65.1677 240.415 66.6581 240.266 68.1936 240.112C68.2774 239.498 68.3612 238.884 68.4476 238.251C68.9172 236.203 69.5982 235.16 71.2878 233.922C76.0748 231.061 81.5231 230.77 86.9231 231.851C95.6844 234.54 101.925 241.374 106.18 249.238C109.989 256.63 111.628 264.401 111.633 272.665C111.639 273.192 111.644 273.718 111.65 274.261C111.651 274.769 111.652 275.277 111.652 275.8C111.654 276.26 111.656 276.719 111.658 277.193C111.543 278.534 111.208 279.518 110.645 280.733C108.831 280.461 107.696 279.523 106.242 278.448C98.0486 272.628 84.1544 266.29 74.0645 266.29C68.751 275.601 66.7512 283.878 64.5807 294.725C83.9548 294.725 103.329 294.725 123.29 294.725C123.29 293.235 123.29 291.746 123.29 290.211C123.355 289.052 123.435 287.894 123.53 286.736C123.556 286.417 123.582 286.098 123.609 285.769C123.694 284.715 123.782 283.662 123.871 282.608C123.933 281.847 123.995 281.085 124.058 280.323C124.191 278.691 124.326 277.058 124.461 275.426C124.676 272.845 124.887 270.264 125.099 267.682C125.433 263.601 125.769 259.52 126.106 255.438C126.71 248.124 127.312 240.809 127.912 233.495C128.122 230.928 128.334 228.362 128.546 225.797C128.678 224.202 128.809 222.608 128.94 221.013C129.001 220.274 129.062 219.535 129.124 218.796C129.208 217.787 129.29 216.778 129.373 215.769C129.42 215.204 129.466 214.64 129.514 214.058C129.563 213.327 129.563 213.327 129.613 212.581C129.644 212.166 129.675 211.751 129.707 211.324C129.711 210.153 129.711 210.153 128.343 209.196C128.095 209.007 127.848 208.817 127.593 208.623C125.342 206.81 125.02 204.006 124.645 201.297C124.645 200.701 124.645 200.106 124.645 199.492C124.189 199.538 123.732 199.585 123.262 199.633C120.1 199.616 117.182 198.319 114.258 197.235C113.875 197.097 113.491 196.96 113.096 196.818C111.87 196.375 110.65 195.918 109.431 195.458C109.042 195.317 108.653 195.177 108.253 195.032C105.881 194.11 104.53 193.332 103.419 190.916C103.211 189.499 103.211 189.499 103.25 188.096C103.256 187.628 103.262 187.16 103.268 186.678C103.419 185.5 103.419 185.5 104.323 184.598C105.254 184.489 105.254 184.489 106.415 184.495C106.849 184.495 107.283 184.495 107.73 184.495C108.199 184.5 108.669 184.505 109.153 184.509C109.633 184.511 110.112 184.512 110.607 184.513C112.144 184.518 113.681 184.53 115.218 184.541C116.258 184.546 117.298 184.55 118.338 184.554C120.892 184.564 123.446 184.579 126 184.598C125.916 184.002 125.916 184.002 125.83 183.395C125.211 178.908 124.737 174.418 124.317 169.908C124.248 169.172 124.178 168.436 124.108 167.7C123.964 166.174 123.821 164.648 123.678 163.122C123.495 161.165 123.31 159.209 123.125 157.253C122.982 155.741 122.84 154.228 122.698 152.716C122.63 151.994 122.562 151.272 122.493 150.55C122.399 149.547 122.305 148.544 122.211 147.541C122.158 146.971 122.104 146.401 122.049 145.814C121.935 144.428 121.935 144.428 121.935 143.074C121.352 143.079 120.768 143.084 120.167 143.089C118.008 143.105 115.848 143.115 113.688 143.124C112.753 143.128 111.817 143.135 110.881 143.142C109.538 143.153 108.195 143.159 106.852 143.162C106.432 143.167 106.012 143.172 105.579 143.177C104.996 143.177 104.996 143.177 104.401 143.177C103.887 143.18 103.887 143.18 103.362 143.183C102.516 143.074 102.516 143.074 101.613 142.172C101.435 141.224 101.435 141.224 101.343 140.051C101.307 139.62 101.272 139.189 101.235 138.745C101.201 138.284 101.168 137.823 101.133 137.348C101.096 136.878 101.059 136.409 101.02 135.925C100.913 134.547 100.811 133.169 100.71 131.791C100.658 131.118 100.605 130.445 100.553 129.772C100.006 122.326 100.006 122.326 100.258 120.056C101.161 119.153 101.161 119.153 102.964 119.051C103.742 119.051 104.521 119.056 105.3 119.065C105.914 119.067 105.914 119.067 106.541 119.069C107.853 119.074 109.164 119.085 110.476 119.097C111.364 119.101 112.252 119.106 113.14 119.109C115.319 119.119 117.498 119.135 119.677 119.153C119.677 118.111 119.677 117.068 119.677 115.994C119.157 116.067 118.637 116.14 118.101 116.215C116.189 116.453 114.31 116.518 112.385 116.521C112.051 116.523 111.717 116.524 111.374 116.526C110.676 116.528 109.979 116.529 109.281 116.529C108.211 116.53 107.141 116.538 106.071 116.547C105.39 116.548 104.71 116.549 104.03 116.549C103.71 116.553 103.39 116.556 103.06 116.559C100.813 116.549 100.813 116.549 99.8065 115.543C99.6317 114.392 99.5092 113.28 99.4219 112.122C99.3931 111.778 99.3643 111.434 99.3346 111.079C99.2743 110.346 99.216 109.613 99.1595 108.88C99.0743 107.78 98.9823 106.681 98.8891 105.581C98.7165 103.487 98.5715 101.392 98.4516 99.2944C98.4334 98.9759 98.4151 98.6575 98.3963 98.3294C98.3521 97.4504 98.3255 96.5705 98.2999 95.6907C98.2769 94.9491 98.2769 94.9491 98.2534 94.1926C98.4516 92.9756 98.4516 92.9756 99.1227 92.2347C100.764 91.3483 102.35 91.4233 104.171 91.4264C104.566 91.4218 104.962 91.4172 105.369 91.4125C106.685 91.3988 108 91.3947 109.315 91.3906C110.243 91.383 111.172 91.3748 112.1 91.3661C114.56 91.3446 117.02 91.3312 119.479 91.3194C121.914 91.3062 124.348 91.285 126.782 91.2646C138.112 91.174 149.443 91.1494 160.774 91.1702C160.803 90.8317 160.832 90.4932 160.862 90.1444C160.901 89.6991 160.94 89.2537 160.98 88.7949C161.019 88.354 161.057 87.913 161.097 87.4587C162.039 78.3192 167.325 69.0325 174.323 63.1872C182.783 57.4049 193.606 54.8676 203.76 54.5006C204.262 54.4766 204.763 54.4525 205.279 54.4277C206.281 54.382 207.284 54.3524 208.287 54.3409C210.98 54.2131 210.98 54.2131 213.242 52.8775C214.077 51.8397 214.762 50.8039 215.419 49.647C215.67 49.2149 215.67 49.2149 215.926 48.7742C219.278 42.629 219.278 42.629 220.246 36.0133C219.931 35.1232 219.931 35.1232 219.258 34.0757C217.872 31.7675 217.852 29.2592 218.129 26.6286C218.712 24.5926 219.29 23.007 221.075 21.7891C222.657 20.335 222.736 18.9576 223.069 16.8966C224.073 11.7067 225.99 7.34046 230.323 4.06164C234.537 1.65146 238.54 0.752626 243.335 0.902261C244.09 0.925299 244.846 0.944281 245.602 0.958679C246.096 0.974387 246.096 0.974387 246.6 0.990413C248.449 0.806074 249.08 -0.393755 251.097 -0.000418812ZM229.419 8.57504C227.502 11.1654 226.622 14.0684 225.806 17.1505C227.19 17.0857 228.573 17.0197 229.956 16.953C230.337 16.9353 230.719 16.9175 231.112 16.8993C233.291 16.7932 235.461 16.6498 237.635 16.4647C241.03 16.1983 244.418 16.1402 247.823 16.135C248.295 16.1334 248.295 16.1334 248.778 16.1318C253.581 16.1257 258.162 16.4192 262.839 17.6018C262.282 13.6864 259.297 10.5548 256.366 8.07434C248.519 2.51707 236.622 0.955295 229.419 8.57504ZM236.645 18.9559C237.767 21.198 242.47 22.2333 244.774 23.0179C247.708 23.8675 250.704 24.4612 253.694 25.0772C255.287 25.4161 256.88 25.7607 258.473 26.1068C259.047 26.2311 259.047 26.2311 259.634 26.3579C262.975 27.0892 266.259 27.972 269.511 29.0318C271.877 29.776 273.903 29.8834 276.387 29.788C274.208 25.0468 267.439 22.2343 262.839 20.3099C258.067 18.6001 253.3 18.4268 248.274 18.4481C247.777 18.449 247.281 18.4498 246.769 18.4507C243.375 18.4688 240.02 18.5803 236.645 18.9559ZM222.73 23.7231C221.207 25.4195 220.898 26.8705 220.698 29.111C220.904 31.4169 221.58 32.8018 223.238 34.4143C224.518 35.2472 225.695 35.6977 227.161 36.1068C227.012 36.5536 226.863 37.0004 226.71 37.4608C225.666 37.4608 224.623 37.4608 223.548 37.4608C223.449 37.7081 223.35 37.9553 223.249 38.2101C222.937 38.9875 222.625 39.7643 222.312 40.5408C221.909 41.5541 221.516 42.5712 221.13 43.5909C219.193 48.67 217.218 53.558 212.71 56.8684C213.284 60.6413 215.926 63.0863 218.775 65.4527C222.299 68.0351 227.098 71.1037 231.677 70.4086C234.213 69.006 235.038 66.6025 236.137 64.0616C236.418 63.4451 236.418 63.4451 236.705 62.8161C237.838 60.581 237.838 60.581 237.548 58.2224C236.71 57.4926 236.71 57.4926 235.686 56.7838C230.719 53.0336 230.719 53.0336 230.012 50.2147C229.942 49.7103 229.942 49.7103 229.871 49.1956C230.765 48.9722 230.765 48.9722 231.677 48.7443C231.9 49.0724 231.9 49.0724 232.127 49.4072C234.384 52.5849 237.677 54.7278 239.355 55.063C247.837 56.7584 249.742 51.678 247.569 56.276C253.993 50.7177 256.739 40.4349 259.301 32.6807C259.692 31.5503 260.128 30.444 260.581 29.3367C259.016 28.6635 257.545 28.2338 255.87 27.9315C255.403 27.844 254.935 27.7566 254.452 27.6664C253.96 27.5753 253.467 27.4842 252.96 27.3903C249.006 26.6389 245.275 25.7336 241.519 24.2908C240.193 23.9015 239.683 23.7708 238.452 24.3719C237.515 25.2761 237.515 25.2761 236.645 26.3748C234.693 28.7493 234.693 28.7493 233.032 29.3367C231.565 29.1674 231.565 29.1674 230.323 28.8853C230.246 28.6078 230.169 28.3303 230.09 28.0444C229.442 25.8206 229.442 25.8206 228.177 23.9206C226.181 23.034 224.695 22.6323 222.73 23.7231ZM308.452 30.2394C307.551 31.6155 306.776 33.0367 306.024 34.4989C305.813 34.9085 305.602 35.3181 305.384 35.7402C296.872 52.7441 293.864 71.9723 292.194 90.7189C291.597 90.57 291.001 90.421 290.387 90.2676C290.238 88.1824 290.089 86.0972 289.936 83.9488C287.998 83.0552 286.061 82.1615 284.065 81.2408C283.988 81.9011 283.911 82.5615 283.832 83.2418C283.173 88.6951 282.309 93.9829 280.903 99.2944C285.676 99.0621 290.334 98.3383 295.043 97.5583C296.302 97.35 297.563 97.1464 298.823 96.9434C304.175 96.0716 309.478 95.043 314.774 93.8783C317.744 83.7549 316.707 72.3656 316.2 61.955C316.155 61.013 316.113 60.0708 316.077 59.1284C316.028 57.9406 315.956 56.7568 315.875 55.5708C315.864 55.2279 315.853 54.8851 315.842 54.5318C315.785 53.4336 315.785 53.4336 315.226 51.9037C314.355 51.1975 313.467 50.6882 312.479 50.1596C311.288 49.4545 310.842 48.6688 310.286 47.4185C310.113 47.0293 309.939 46.64 309.761 46.239C309.296 44.9739 309.009 43.7701 308.903 42.4255C309.648 42.4255 310.394 42.4255 311.161 42.4255C311.238 42.6926 311.315 42.9596 311.394 43.2348C312.056 45.39 312.641 47.1597 314.323 48.7443C315.732 49.3526 315.732 49.3526 317.032 49.647C316.94 49.3473 316.847 49.0477 316.752 48.739C316.63 48.3405 316.508 47.9419 316.383 47.5313C316.263 47.1386 316.142 46.7459 316.018 46.3413C315.479 44.4305 315.169 42.6696 315.182 40.6819C315.184 40.0819 315.184 40.0819 315.186 39.4698C315.192 38.8523 315.192 38.8523 315.198 38.2224C315.2 37.8021 315.202 37.3817 315.204 36.9486C315.209 35.9158 315.216 34.8829 315.226 33.8501C315.822 33.8501 316.418 33.8501 317.032 33.8501C317.065 34.6102 317.065 34.6102 317.099 35.3857C317.238 42.27 317.238 42.27 320.194 48.293C320.492 48.293 320.79 48.293 321.097 48.293C321.583 45.8356 321.694 43.3978 321.802 40.9023C321.832 40.2748 321.832 40.2748 321.862 39.6346C321.909 38.6092 321.955 37.5837 322 36.5581C322.596 36.4092 323.192 36.2602 323.806 36.1068C324.313 39.9821 324.214 43.4291 323.54 47.2684C323.272 49.0678 323.204 50.1422 324.235 51.6939C324.541 52.061 324.846 52.4281 325.161 52.8064C326.694 51.6226 327.07 50.1208 327.419 48.293C327.586 46.4987 327.648 44.7058 327.702 42.9051C327.719 42.4242 327.737 41.9434 327.755 41.4479C327.797 40.2694 327.836 39.0909 327.871 37.9121C328.467 37.9121 329.063 37.9121 329.677 37.9121C330.125 40.8165 330.125 40.8165 330.581 43.7796C332.404 42.2644 332.404 42.2644 332.643 40.9693C332.636 36.7854 331.119 33.8514 328.266 30.8317C324.96 27.721 321.218 25.0927 316.609 24.654C312.802 24.7842 310.635 27.4394 308.452 30.2394ZM172.968 68.6033C172.688 68.8691 172.408 69.135 172.119 69.409C159.864 81.8755 161.235 106.56 160.774 122.764C163.269 122.58 165.731 122.343 168.192 121.89C177.051 120.272 185.634 120.186 194.645 120.056C194.943 109.779 195.241 99.502 195.548 88.9136C196.294 88.7646 197.039 88.6157 197.806 88.4622C197.699 92.868 197.589 97.2738 197.477 101.679C197.424 103.725 197.373 105.771 197.323 107.816C197.275 109.789 197.225 111.761 197.174 113.733C197.155 114.488 197.136 115.242 197.118 115.996C197.093 117.049 197.066 118.101 197.037 119.154C197.031 119.469 197.024 119.784 197.017 120.108C196.955 122.261 196.955 122.261 196.452 122.764C195.11 122.913 193.769 123.062 192.387 123.215C192.387 127.237 192.387 131.258 192.387 135.402C196.254 135.875 200.121 136.347 203.989 136.814C205.785 137.031 207.581 137.249 209.377 137.47C211.113 137.683 212.849 137.893 214.586 138.102C215.246 138.181 215.905 138.262 216.564 138.344C223.311 139.319 223.311 139.319 229.945 138.254C230.424 138.095 230.902 137.937 231.395 137.773C231.88 137.605 232.364 137.437 232.863 137.263C241.524 134.34 241.524 134.34 246.355 134.442C246.726 134.447 247.098 134.451 247.48 134.455C248.385 134.465 249.289 134.482 250.194 134.499C251.86 128.766 252.979 122.955 254.089 117.094C254.356 115.686 254.624 114.279 254.894 112.871C255.061 112.003 255.226 111.135 255.389 110.266C256.253 105.761 256.253 105.761 256.968 104.259C258.086 103.812 258.086 103.812 259.226 103.356C259.673 98.5903 260.12 93.8241 260.581 88.9136C261.177 89.0625 261.773 89.2114 262.387 89.3649C262.238 93.6842 262.089 98.0035 261.936 102.454C267.399 101.679 267.399 101.679 272.859 100.874C273.228 100.821 273.598 100.768 273.978 100.714C274.332 100.66 274.687 100.605 275.052 100.55C275.364 100.503 275.676 100.457 275.998 100.41C276.982 100.211 276.982 100.211 278.194 99.2944C278.57 98.5014 278.57 98.5014 278.788 97.5684C278.928 97.0442 278.928 97.0442 279.07 96.5094C279.209 95.9471 279.209 95.9471 279.351 95.3734C279.448 94.9891 279.546 94.6049 279.647 94.2091C280.483 90.8076 281.032 87.4395 281.355 83.9488C281.443 83.3344 281.443 83.3344 281.533 82.7076C281.694 81.519 281.694 81.519 281.355 79.8868C280.715 79.2808 280.715 79.2808 279.85 78.8236C279.521 78.6325 279.192 78.4414 278.853 78.2445C278.487 78.0417 278.12 77.839 277.742 77.6301C277.354 77.4133 276.967 77.1966 276.567 76.9733C275.261 76.2521 273.948 75.5431 272.633 74.8374C272.155 74.5803 271.677 74.3233 271.184 74.0584C270.213 73.5371 269.241 73.0163 268.27 72.4961C267.061 71.8474 265.856 71.1927 264.652 70.5356C253.018 63.6952 253.018 63.6952 240.258 60.4791C240.133 60.7705 240.008 61.0618 239.879 61.362C239.306 62.6878 238.724 64.0094 238.141 65.331C237.945 65.7895 237.748 66.248 237.546 66.7203C235.663 70.957 235.663 70.957 233.484 72.214C229.189 73.6448 224.918 71.6233 221.065 69.7034C216.018 66.8162 212.11 62.7494 210 57.3198C197.149 56.8653 182.265 58.8967 172.968 68.6033ZM125.097 115.994C125.097 117.037 125.097 118.079 125.097 119.153C136.125 119.004 147.154 118.855 158.516 118.702C158.516 117.808 158.516 116.915 158.516 115.994C147.488 115.994 136.459 115.994 125.097 115.994ZM302.006 137.435C300.261 138.391 298.508 139.333 296.756 140.276C292.324 142.663 287.922 145.096 283.545 147.583C280.221 149.47 276.881 151.325 273.536 153.173C269.883 155.192 266.25 157.242 262.641 159.34C260.707 160.463 258.765 161.572 256.823 162.682C255.814 163.268 254.824 163.873 253.838 164.495C250.19 166.637 247.229 166.678 243.118 166.647C237.705 166.765 233.105 169.146 228.331 171.512C227.098 171.984 226.211 172.05 224.903 171.96C224.903 171.513 224.903 171.066 224.903 170.606C227.288 169.563 229.672 168.521 232.129 167.447C230.497 166.359 229.558 166.37 227.613 166.262C227.054 166.228 226.495 166.194 225.919 166.16C225.28 166.136 224.64 166.114 224 166.093C223.617 166.072 223.234 166.052 222.839 166.031C219.662 165.927 217.102 166.497 214.121 167.56C213.661 167.718 213.201 167.877 212.727 168.04C207.289 169.956 201.985 172.207 196.678 174.454C194.23 175.484 191.771 176.487 189.311 177.489C188.498 177.82 187.686 178.152 186.874 178.483C186.303 178.716 185.732 178.949 185.161 179.182C185.916 185.209 189.142 190.739 192.839 195.43C193.154 195.833 193.47 196.236 193.795 196.652C200.683 204.859 211.368 208.687 221.742 209.873C223.955 210.001 226.159 210.024 228.375 210.014C228.971 210.011 229.566 210.009 230.179 210.006C234.72 209.95 239.015 209.63 243.419 208.519C243.776 208.429 244.133 208.339 244.5 208.247C261.906 203.72 276.27 192.443 290.598 182.025C295.186 178.693 299.849 175.483 304.551 172.313C305.662 171.563 306.771 170.807 307.878 170.051C322.592 160.054 322.592 160.054 329.393 158.365C329.743 158.275 330.092 158.185 330.452 158.093C331.144 157.919 331.841 157.761 332.541 157.619C333.641 157.383 333.641 157.383 335.097 156.615C335.691 155.378 335.818 154.388 336 153.004C336.447 153.004 336.894 153.004 337.355 153.004C337.504 154.195 337.653 155.387 337.806 156.615C338.428 156.73 338.428 156.73 339.063 156.847C343.502 157.723 346.968 158.522 350 162.031C350.207 162.265 350.415 162.498 350.628 162.739C354.52 167.468 357.445 174.283 357.15 180.44C356.885 187.908 359.831 192.64 363.99 198.626C364.999 200.082 365.961 201.563 366.913 203.057C367.489 203.959 368.073 204.855 368.659 205.751C370.912 209.203 373.095 212.702 375.29 216.191C377.817 214.646 380.275 213.054 382.629 211.255C389.149 206.293 395.992 201.732 402.839 197.235C402.572 195.489 402.052 194.204 401.182 192.671C400.931 192.225 400.68 191.779 400.422 191.32C400.148 190.842 399.875 190.365 399.593 189.873C399.308 189.37 399.023 188.868 398.73 188.35C395.779 183.161 392.774 178.005 389.742 172.863C389.397 172.277 389.053 171.691 388.708 171.105C384.869 164.581 381.034 158.068 376.853 151.754C375.768 150.097 374.708 148.423 373.645 146.752C370.85 142.363 368.027 137.993 365.157 133.653C364.875 133.221 364.592 132.79 364.301 132.346C360.333 126.379 356.056 120.259 348.645 118.702C332.799 117.108 315.451 130.035 302.006 137.435ZM180.109 122.623C179.646 122.663 179.184 122.703 178.707 122.745C170.652 123.238 170.652 123.238 163.032 125.472C163.009 128.402 162.993 131.332 162.983 134.263C162.978 135.257 162.972 136.252 162.964 137.247C162.953 138.685 162.948 140.122 162.944 141.56C162.939 141.998 162.935 142.437 162.93 142.888C162.929 147.353 163.21 151.73 166.194 155.261C172.014 160.948 183.471 159.948 190.904 159.871C200.207 159.726 210.167 158.665 219.032 155.712C219.709 155.67 220.387 155.653 221.065 155.655C221.414 155.654 221.763 155.653 222.123 155.652C223.097 155.712 223.097 155.712 224.452 156.163C227.147 156.404 229.39 156.404 231.677 154.809C233.014 153.481 234.101 152.039 234.839 150.296C238.152 150.47 240.884 152.501 243.391 154.527C244.302 155.4 244.302 155.4 245.677 155.261C246.177 153.69 246.43 152.381 246.129 150.747C244.943 149.601 243.731 148.818 242.308 147.988C241.161 147.136 241.161 147.136 240.777 145.904C240.755 145.566 240.732 145.228 240.71 144.88C242.955 145.676 244.97 146.863 247.032 148.039C247.125 147.462 247.219 146.885 247.315 146.29C247.367 145.965 247.419 145.641 247.473 145.306C247.477 145.017 247.48 144.727 247.484 144.428C246.236 143.182 245.132 143.265 243.419 143.074C243.568 142.479 243.717 141.883 243.871 141.269C245.462 141.233 246.861 141.251 248.387 141.72C248.926 139.971 249.29 138.599 249.29 136.756C246.584 135.403 243.014 136.49 240.258 137.263C239.704 137.412 239.704 137.412 239.138 137.563C237.294 138.072 235.49 138.634 233.701 139.314C233.374 139.437 233.047 139.561 232.71 139.688C232.108 139.922 231.508 140.165 230.914 140.42C225.993 142.353 220.112 141.182 215.021 140.527C214.393 140.449 213.766 140.371 213.138 140.294C211.832 140.132 210.525 139.967 209.219 139.801C207.574 139.591 205.929 139.386 204.283 139.182C197.293 138.315 190.313 137.404 183.355 136.304C183.355 135.708 183.355 135.113 183.355 134.499C185.292 134.499 187.23 134.499 189.226 134.499C189.609 132.965 189.731 131.895 189.722 130.345C189.72 129.903 189.719 129.461 189.717 129.005C189.713 128.547 189.71 128.088 189.706 127.616C189.704 127.151 189.702 126.685 189.699 126.206C189.694 125.058 189.687 123.911 189.677 122.764C186.428 122.324 183.371 122.327 180.109 122.623ZM294 124.118C292.896 125.773 292.722 127.159 293.097 129.083C293.987 130.313 293.987 130.313 295.355 130.888C296.759 131.037 296.759 131.037 298.065 130.437C299.279 129.063 299.814 128.137 300.069 126.318C299.845 124.849 299.603 124.226 298.516 123.215C296.578 122.451 295.62 122.893 294 124.118ZM126.903 143.074C126.903 145.679 126.943 148.168 127.186 150.745C127.216 151.08 127.246 151.415 127.278 151.761C127.376 152.854 127.477 153.947 127.579 155.04C127.649 155.807 127.719 156.574 127.788 157.341C127.934 158.941 128.081 160.542 128.229 162.142C128.418 164.189 128.605 166.237 128.791 168.284C128.935 169.865 129.079 171.446 129.224 173.027C129.294 173.782 129.363 174.536 129.431 175.291C129.528 176.346 129.625 177.401 129.723 178.456C129.751 178.765 129.779 179.074 129.808 179.392C129.973 181.152 130.224 182.848 130.516 184.598C148.102 184.598 165.688 184.598 183.806 184.598C183.359 183.257 182.912 181.917 182.452 180.536C181.405 180.212 180.35 179.912 179.29 179.633C175.853 174.824 175.41 167.326 174.774 161.579C174.533 161.502 174.292 161.426 174.044 161.347C166.022 158.739 166.022 158.739 163.936 156.163C163.619 155.791 163.302 155.418 162.976 155.035C160.997 151.343 160.734 147.184 160.323 143.074C149.294 143.074 138.266 143.074 126.903 143.074ZM235.742 153.004C235.565 153.339 235.388 153.674 235.206 154.019C234.316 155.368 233.428 156.116 232.129 157.066C231.533 157.513 230.937 157.96 230.323 158.42C234.943 158.42 239.563 158.42 244.323 158.42C243.577 157.824 242.832 157.228 242.065 156.615C241.725 156.334 241.385 156.053 241.034 155.763C240.704 155.495 240.373 155.227 240.032 154.95C239.702 154.679 239.371 154.407 239.03 154.127C237.915 153.4 237.052 153.177 235.742 153.004ZM218.581 157.969C218.581 158.118 218.581 158.266 218.581 158.42C220.369 158.42 222.157 158.42 224 158.42C221.853 157.347 220.838 157.481 218.581 157.969ZM310.71 170.606C310.403 170.811 310.097 171.017 309.781 171.228C307.991 172.434 306.216 173.66 304.447 174.897C303.404 175.627 302.358 176.354 301.312 177.08C297.676 179.611 294.057 182.164 290.472 184.767C270.448 199.281 270.448 199.281 261.936 203.554C261.936 203.703 261.936 203.852 261.936 204.005C266.055 204.082 270.045 203.924 274.129 203.385C274.98 203.274 274.98 203.274 275.849 203.162C284.492 201.993 293.059 200.275 301.626 198.654C302.346 198.518 302.346 198.518 303.08 198.38C303.745 198.253 303.745 198.253 304.424 198.123C304.811 198.05 305.198 197.976 305.596 197.9C306.557 197.705 307.503 197.481 308.452 197.235C308.392 196.968 308.332 196.701 308.27 196.426C308.105 195.689 307.942 194.952 307.78 194.215C307.615 193.471 307.443 192.729 307.266 191.988C306.993 190.257 306.75 188.451 307.548 186.854C308.145 186.854 308.741 186.854 309.355 186.854C309.367 187.226 309.378 187.597 309.39 187.979C309.564 191.402 310.114 194.149 311.613 197.235C312.785 195.478 313.735 193.63 314.718 191.763C314.914 191.394 315.11 191.025 315.312 190.645C316.591 188.219 317.758 185.764 318.839 183.244C319.435 183.244 320.031 183.244 320.645 183.244C319.532 187.463 317.637 191.201 315.626 195.054C312.678 200.756 312.352 205.547 313.135 211.819C313.358 213.619 313.565 215.422 313.774 217.224C313.819 217.611 313.863 217.998 313.91 218.396C314.456 223.133 314.906 227.878 315.356 232.625C315.444 233.541 315.531 234.458 315.618 235.375C315.839 237.697 316.059 240.019 316.278 242.342C316.633 246.096 316.99 249.85 317.347 253.605C317.469 254.89 317.59 256.176 317.711 257.461C318.204 262.665 318.732 267.864 319.29 273.06C322.922 272.893 326.554 272.724 330.185 272.554C331.872 272.475 333.559 272.396 335.245 272.319C336.876 272.244 338.508 272.168 340.139 272.091C340.757 272.061 341.376 272.033 341.995 272.005C345.429 271.848 348.843 271.648 352.258 271.255C352.719 268.491 352.854 265.747 352.968 262.949C352.99 262.437 353.012 261.925 353.035 261.397C353.108 259.695 353.178 257.994 353.248 256.292C353.285 255.394 353.323 254.496 353.36 253.598C353.534 249.414 353.702 245.229 353.867 241.043C353.88 240.716 353.893 240.388 353.906 240.051C354.872 215.973 354.872 215.973 355.246 191.881C355.25 190.897 355.258 189.914 355.267 188.93C355.385 179.738 355.385 179.738 352.71 171.057C352.584 170.789 352.459 170.52 352.329 170.243C350.233 165.782 347.754 162.22 343.206 160.086C331.879 156.087 319.662 164.593 310.71 170.606ZM209.548 160.225C209.106 160.283 209.106 160.283 208.654 160.342C207.277 160.521 205.901 160.698 204.524 160.874C204.06 160.935 203.596 160.996 203.118 161.058C196.913 161.848 190.785 162.095 184.54 162.059C183.851 162.057 183.162 162.055 182.473 162.053C180.81 162.048 179.147 162.04 177.484 162.031C177.688 165.409 177.965 168.672 178.782 171.96C178.855 172.281 178.928 172.601 179.003 172.932C179.446 174.775 180.026 176.261 181.097 177.828C183.049 177.564 184.695 177.087 186.507 176.322C187.027 176.104 187.548 175.887 188.084 175.662C188.643 175.425 189.203 175.188 189.762 174.95C190.636 174.583 191.511 174.217 192.385 173.851C192.986 173.6 193.586 173.348 194.186 173.097C197.34 171.773 200.508 170.482 203.677 169.196C204.189 168.988 204.7 168.78 205.227 168.566C207.267 167.736 209.309 166.909 211.355 166.093C211.226 165.453 211.094 164.813 210.96 164.174C210.886 163.818 210.813 163.462 210.737 163.096C210.455 162.042 210.049 161.19 209.548 160.225ZM71.6936 198.448C71.4327 198.793 71.1719 199.137 70.9032 199.492C70.7542 199.641 70.6052 199.79 70.4516 199.943C70.3216 201.264 70.231 202.269 70.4516 203.554C71.8604 205.127 73.3829 205.782 75.4194 206.262C76.8188 205.906 76.8188 205.906 78.1573 205.218C84.821 202.09 91.4274 203.842 98.086 206.154C100.045 206.874 101.961 207.677 103.871 208.519C104.467 208.771 104.467 208.771 105.076 209.028C106.073 209.478 106.073 209.478 107.484 210.324C107.798 211.28 107.798 211.28 107.935 212.129C105.952 211.885 104.516 211.397 102.77 210.437C99.6243 208.808 96.4096 207.743 93.0323 206.713C92.6987 206.601 92.3651 206.489 92.0214 206.373C87.2183 204.903 82.1836 205.608 77.6774 207.616C75.624 208.709 73.9108 209.882 73.1613 212.129C72.9344 214.896 73.1113 216.251 74.9678 218.448C79.6425 223.237 86.2498 223.706 92.5807 223.864C94.0539 223.868 95.5266 223.853 96.9998 223.836C97.3968 223.831 97.7939 223.827 98.203 223.822C98.6073 223.818 99.0116 223.813 99.4281 223.808C100.26 223.799 101.092 223.789 101.923 223.78C102.336 223.775 102.748 223.77 103.172 223.764C110.139 223.695 116.53 224.318 123.29 226.121C122.301 220.843 119.811 217.023 116.116 213.147C115.161 212.129 115.161 212.129 114.276 210.992C107.611 202.889 95.2989 196.617 84.9032 195.43C80.5622 195.093 75.0028 195.179 71.6936 198.448ZM357.226 199.492C357.207 200.244 357.207 200.997 357.226 201.749C357.716 202.341 357.716 202.341 358.907 202.244C359.405 202.239 359.903 202.233 360.415 202.228C360.914 202.224 361.413 202.22 361.927 202.216C362.313 202.211 362.699 202.205 363.097 202.2C362.606 200.733 362.606 200.733 361.742 199.492C360.98 199.459 360.218 199.454 359.456 199.464C359.041 199.468 358.626 199.472 358.198 199.476C357.877 199.481 357.556 199.486 357.226 199.492ZM400.948 201.297C400.508 201.594 400.508 201.594 400.059 201.896C393.015 206.664 386.057 211.554 379.187 216.568C378.501 217.059 377.799 217.529 377.097 217.997C377.806 220.69 379.242 222.884 380.71 225.218C383.089 224.481 384.878 222.978 386.835 221.495C389.907 219.199 393.003 216.947 396.149 214.753C396.707 214.362 396.707 214.362 397.276 213.964C399.088 212.699 400.91 211.455 402.756 210.241C403.094 210.016 403.433 209.792 403.781 209.56C404.416 209.14 405.055 208.725 405.697 208.316C406.64 207.71 406.64 207.71 407.806 206.713C407.806 204.632 407.329 203.855 406.282 202.087C405.999 201.601 405.716 201.114 405.425 200.613C405.168 200.243 404.91 199.873 404.645 199.492C403.175 199.492 402.129 200.493 400.948 201.297ZM189.495 199.509C188.977 199.513 188.459 199.517 187.925 199.52C187.069 199.527 187.069 199.527 186.195 199.533C185.59 199.538 184.984 199.542 184.379 199.547C182.733 199.559 181.087 199.571 179.442 199.583C177.723 199.596 176.004 199.608 174.285 199.621C171.028 199.645 167.772 199.669 164.515 199.693C160.809 199.72 157.102 199.747 153.395 199.775C145.769 199.831 138.142 199.887 130.516 199.943C130.665 200.837 130.814 201.73 130.968 202.651C137.516 202.587 144.065 202.522 150.613 202.454C151.093 202.449 151.574 202.444 152.068 202.439C166.263 202.291 180.454 202.116 194.645 201.749C194.067 200.978 193.463 200.226 192.839 199.492C191.724 199.492 190.61 199.501 189.495 199.509ZM303.032 200.62C302.682 200.685 302.333 200.749 301.972 200.816C301.121 200.973 300.27 201.135 299.419 201.297C299.419 201.446 299.419 201.595 299.419 201.749C303.145 201.749 306.871 201.749 310.71 201.749C310.71 201.153 310.71 200.557 310.71 199.943C308.055 199.871 305.636 200.12 303.032 200.62ZM4.06452 223.413C3.90883 224.764 3.90883 224.764 4.72782 225.463C5.18191 225.831 5.18191 225.831 5.64516 226.206C6.95547 227.298 8.16811 228.41 9.34274 229.647C15.5521 235.889 23.2646 240.628 32.2621 240.733C37.732 240.681 42.2263 239.545 46.375 235.881C49.3351 232.523 50.8693 229.674 50.7818 225.079C50.4482 223.064 49.4281 221.959 47.871 220.705C41.3905 216.337 31.1183 218.425 23.9355 219.802C22.1423 220.208 20.3811 220.694 18.6185 221.216C17.0838 221.628 15.5757 221.863 14 222.059C14 221.463 14 220.867 14 220.253C23.3372 217.309 36.9164 213.16 46.3732 217.672C46.7557 217.882 47.1382 218.091 47.5323 218.307C49.7375 219.501 50.8699 219.585 53.2903 218.899C55.2047 217.875 55.2047 217.875 56.4516 216.191C56.6746 214.26 56.6006 213.285 55.6048 211.593C52.7122 208.522 48.1229 208.087 44.1452 207.954C30.7963 208.104 13.4924 213.614 4.06452 223.413ZM132.323 211.678C132.283 212.178 132.244 212.679 132.204 213.194C128.83 256.175 128.83 256.175 127.157 274.048C127.115 274.503 127.115 274.503 127.071 274.969C126.101 285.345 126.101 285.345 125.742 288.225C125.532 290.382 125.548 292.557 125.548 294.725C141.197 294.725 156.845 294.725 172.968 294.725C172.982 285.926 172.982 285.926 172.768 277.141C172.746 276.552 172.725 275.964 172.703 275.357C172.646 273.784 172.587 272.212 172.527 270.639C172.463 268.974 172.402 267.31 172.341 265.645C172.238 262.86 172.133 260.076 172.028 257.291C171.906 254.084 171.787 250.877 171.669 247.67C171.555 244.558 171.439 241.446 171.322 238.334C171.273 237.02 171.224 235.706 171.176 234.392C171.108 232.56 171.038 230.727 170.968 228.895C170.949 228.359 170.929 227.822 170.909 227.27C170.794 224.314 170.597 221.387 170.258 218.448C169.965 218.447 169.671 218.446 169.369 218.446C166.621 218.437 163.874 218.412 161.126 218.379C160.093 218.369 159.06 218.362 158.026 218.36C147.19 218.329 147.19 218.329 142.258 215.74C141.458 215.37 140.657 215 139.855 214.631C138.755 214.096 137.657 213.554 136.56 213.012C136.204 212.839 135.847 212.666 135.48 212.487C135.165 212.331 134.85 212.176 134.526 212.015C133.62 211.595 133.62 211.595 132.323 211.678ZM172.968 218.448C173.252 228.374 173.551 238.294 173.942 248.215C173.978 249.152 174.015 250.088 174.051 251.024C174.164 253.934 174.279 256.843 174.393 259.753C174.511 262.737 174.627 265.721 174.742 268.706C174.842 271.3 174.943 273.895 175.046 276.489C175.106 278.026 175.166 279.562 175.225 281.099C175.291 282.798 175.358 284.496 175.426 286.195C175.445 286.695 175.464 287.195 175.483 287.71C175.502 288.174 175.521 288.638 175.54 289.115C175.556 289.515 175.572 289.914 175.588 290.325C175.694 291.799 175.92 293.262 176.129 294.725C178.663 294.725 181.196 294.725 183.806 294.725C184.348 293.75 184.348 293.75 184.9 292.755C192.447 279.24 200.432 266.243 213.359 257.235C213.675 257.014 213.99 256.793 214.315 256.565C214.763 256.261 214.763 256.261 215.22 255.95C215.487 255.768 215.754 255.586 216.029 255.398C216.774 255.007 216.774 255.007 218.129 255.007C217.873 256.612 217.469 257.798 216.638 259.192C216.423 259.559 216.208 259.925 215.986 260.303C215.753 260.696 215.519 261.09 215.278 261.495C211.109 268.671 207.262 275.922 203.988 283.554C203.768 284.062 203.548 284.57 203.322 285.093C203.124 285.565 202.927 286.037 202.723 286.523C202.547 286.941 202.371 287.36 202.19 287.791C201.744 288.909 201.744 288.909 202.323 290.211C202.521 289.926 202.718 289.641 202.922 289.347C209.357 280.277 217.566 271.54 228.065 267.193C228.661 267.193 229.257 267.193 229.871 267.193C229.607 268.828 229.168 270.09 228.38 271.544C228.165 271.948 227.949 272.351 227.727 272.767C227.377 273.415 227.377 273.415 227.02 274.076C224.917 278.039 222.882 282.028 220.923 286.064C220.683 286.554 220.442 287.044 220.193 287.549C219.975 288.002 219.757 288.455 219.532 288.922C219.239 289.525 219.239 289.525 218.941 290.14C218.822 290.462 218.703 290.783 218.581 291.114C218.73 291.412 218.879 291.71 219.032 292.017C219.443 291.585 219.853 291.154 220.276 290.71C224.098 286.758 228.034 283.369 232.581 280.282C233.064 279.939 233.548 279.596 234.047 279.243C235.29 278.476 235.29 278.476 236.645 278.476C236.483 281.228 235.159 282.952 233.625 285.134C233.131 285.855 232.638 286.576 232.145 287.299C231.908 287.644 231.671 287.989 231.427 288.345C229.143 291.309 229.143 291.309 228.065 294.725C258.765 294.725 289.466 294.725 321.097 294.725C322.995 288.379 322.995 288.379 322.903 285.246C322.582 285.219 322.262 285.192 321.931 285.164C321.516 285.126 321.101 285.088 320.673 285.049C320.053 284.994 320.053 284.994 319.419 284.938C318.387 284.795 318.387 284.795 317.936 284.344C317.796 283.285 317.684 282.235 317.588 281.172C317.557 280.838 317.525 280.504 317.492 280.159C317.386 279.039 317.283 277.917 317.18 276.796C317.106 276.005 317.032 275.213 316.958 274.422C316.758 272.293 316.561 270.165 316.364 268.036C316.202 266.28 316.038 264.525 315.874 262.769C315.099 254.476 314.335 246.182 313.598 237.886C313.571 237.586 313.544 237.285 313.517 236.976C313.249 233.966 312.984 230.956 312.724 227.946C312.66 227.221 312.661 227.221 312.596 226.481C312.519 225.599 312.443 224.717 312.368 223.834C312.334 223.451 312.3 223.067 312.266 222.672C312.238 222.344 312.209 222.016 312.18 221.678C312.051 220.592 311.827 219.52 311.613 218.448C265.86 218.448 220.107 218.448 172.968 218.448ZM357.226 218.448C356.949 220.107 356.716 221.537 356.651 223.181C356.628 223.752 356.628 223.752 356.603 224.335C356.588 224.745 356.573 225.155 356.557 225.578C356.539 226.016 356.522 226.455 356.504 226.907C356.446 228.359 356.39 229.811 356.335 231.264C356.295 232.287 356.255 233.31 356.215 234.333C356.132 236.485 356.05 238.637 355.968 240.79C355.886 242.968 355.801 245.146 355.715 247.325C355.236 259.368 354.813 271.387 354.968 283.441C352.881 283.59 350.795 283.739 348.645 283.892C348.692 284.442 348.738 284.991 348.786 285.557C348.813 285.866 348.839 286.175 348.866 286.493C349.616 289.772 352.195 291.322 354.869 293.019C358.192 294.874 360.993 295.012 364.746 294.871C365.285 294.86 365.824 294.85 366.379 294.839C367.694 294.812 369.008 294.773 370.323 294.725C369.045 277.098 367.684 259.478 366.267 241.862C366.145 240.335 366.023 238.807 365.901 237.279C365.708 234.856 365.513 232.432 365.317 230.009C365.244 229.106 365.172 228.203 365.1 227.299C365.001 226.059 364.9 224.818 364.799 223.578C364.77 223.212 364.742 222.847 364.712 222.47C364.594 221.05 364.453 219.806 364 218.448C361.765 218.448 359.529 218.448 357.226 218.448ZM71.8065 236.953C70.9326 238.329 70.9032 238.847 70.9032 240.564C71.3084 240.685 71.7136 240.806 72.1311 240.93C79.724 243.314 86.9033 246.816 92.8629 252.158C93.0985 252.367 93.3342 252.576 93.5769 252.792C94.7658 253.897 95.579 254.705 95.7419 256.361C93.975 256.1 93.0367 255.256 91.7057 254.104C84.7398 248.301 76.0546 242.393 66.5917 242.69C65.07 242.869 64.0174 243.283 62.7742 244.174C61.6011 246.119 61.5107 247.828 61.871 250.042C63.8538 255.979 68.2035 259.849 73.4971 262.85C75.8255 264.009 78.22 264.69 80.7258 265.359C81.7999 265.664 82.8737 265.969 83.9471 266.276C84.4834 266.428 85.0197 266.58 85.5723 266.736C92.6786 268.778 99.2871 271.126 105.677 274.866C106.274 275.207 106.871 275.548 107.468 275.888C108.147 276.276 108.147 276.276 108.839 276.671C111.425 267.677 107.179 256.084 102.911 248.237C99.2278 242.13 93.421 236.343 86.4186 234.358C81.5099 233.299 75.7288 233.397 71.8065 236.953ZM62.3226 256.812C62.316 257.127 62.3094 257.442 62.3026 257.767C62.0993 266.734 61.5951 275.665 60.9751 284.613C60.9451 285.05 60.9151 285.487 60.8842 285.937C60.8276 286.758 60.77 287.579 60.7112 288.399C60.5647 290.514 60.4877 292.605 60.5161 294.725C61.4103 294.501 61.4103 294.501 62.3226 294.273C62.389 293.732 62.4553 293.19 62.5237 292.632C63.7261 283.444 66.2596 275.474 70.449 267.212C70.9608 266.173 71.4055 265.12 71.8065 264.033C71.5328 263.89 71.2592 263.747 70.9773 263.6C68.0883 261.992 65.9166 260.103 63.6474 257.704C63.3593 257.41 63.0711 257.115 62.7742 256.812C62.6252 256.812 62.4761 256.812 62.3226 256.812ZM211.806 261.325C201.351 269.976 192.66 281.431 186.968 293.822C186.968 294.12 186.968 294.418 186.968 294.725C190.396 294.725 193.823 294.725 197.355 294.725C197.673 293.866 197.991 293.008 198.318 292.124C200.666 285.85 203.147 279.681 206.077 273.653C206.33 273.129 206.584 272.605 206.845 272.066C208.334 269.048 209.944 266.15 211.717 263.29C211.895 262.939 212.074 262.589 212.258 262.228C212.035 261.781 212.035 261.781 211.806 261.325ZM221.573 273.653C221.291 273.854 221.01 274.056 220.72 274.263C217.847 276.363 215.261 278.706 212.71 281.184C212.461 281.421 212.213 281.657 211.958 281.901C209.935 283.863 208.197 285.963 206.5 288.208C206.118 288.702 206.118 288.702 205.729 289.205C204.337 291.033 203.374 292.622 202.323 294.725C206.197 294.725 210.072 294.725 214.065 294.725C217.075 289.144 219.84 283.518 222.444 277.738C223.364 275.699 224.338 273.698 225.355 271.706C223.842 271.706 222.763 272.797 221.573 273.653ZM341.573 274.259C340.941 274.29 340.309 274.32 339.677 274.35C338.026 274.429 336.376 274.51 334.725 274.591C333.036 274.673 331.347 274.754 329.657 274.836C326.352 274.995 323.047 275.156 319.742 275.317C319.04 276.719 319.478 277.909 319.714 279.435C319.802 280.014 319.89 280.592 319.98 281.188C320.051 281.634 320.121 282.079 320.194 282.538C326.74 282.664 333.246 282.454 339.782 282.115C340.361 282.086 340.361 282.086 340.95 282.056C342.07 281.998 343.19 281.938 344.309 281.877C344.806 281.851 344.806 281.851 345.313 281.824C347.64 281.693 349.943 281.457 352.258 281.184C352.258 278.801 352.258 276.418 352.258 273.963C348.689 273.922 345.137 274.083 341.573 274.259ZM56.8468 276.981C55.7653 278.226 55.1421 278.97 54.9592 280.622C55.0555 281.569 55.1783 282.513 55.3208 283.453C55.6644 285.745 55.5968 288.041 55.5766 290.352C55.5746 290.781 55.5725 291.21 55.5704 291.652C55.5652 292.676 55.5578 293.7 55.5484 294.725C56.2936 294.725 57.0387 294.725 57.8065 294.725C58.0025 292.759 58.1953 290.793 58.3853 288.827C58.4502 288.16 58.5159 287.493 58.5824 286.827C58.9657 282.985 59.2734 279.184 59.1613 275.317C58.2078 275.317 57.477 276.37 56.8468 276.981ZM52.3871 281.636C52.1871 281.824 51.9872 282.013 51.7811 282.207C50.8547 283.08 49.9274 283.952 49 284.823C48.6856 285.12 48.3713 285.416 48.0474 285.722C47.733 286.017 47.4187 286.312 47.0948 286.616C46.6171 287.065 46.6171 287.065 46.1298 287.523C44.9188 288.627 43.6588 289.666 42.3802 290.691C41.2299 291.83 41.2299 291.83 39.7419 294.725C44.2129 294.725 48.6839 294.725 53.2903 294.725C53.309 292.816 53.3276 290.908 53.3468 288.942C53.355 288.341 53.3632 287.741 53.3717 287.123C53.374 286.65 53.3762 286.176 53.3785 285.689C53.3833 285.204 53.388 284.72 53.3929 284.221C53.3821 282.891 53.3821 282.891 52.3871 281.636ZM226.145 288.208C225.748 288.578 225.748 288.578 225.343 288.956C223.56 290.634 221.894 292.338 220.387 294.273C220.387 294.422 220.387 294.571 220.387 294.725C222.067 295.271 223.241 295.367 224.903 294.725C227.117 292.233 228.821 288.847 229.871 285.698C228.277 285.698 227.258 287.163 226.145 288.208Z" fill="black"/>
<path d="M246.129 30.2402C246.725 30.3892 247.321 30.5381 247.935 30.6916C247.786 32.0321 247.637 33.3725 247.484 34.7536C246.888 34.7536 246.291 34.7536 245.677 34.7536C245.154 32.9238 245.299 31.9471 246.129 30.2402Z" fill="black"/>
<path d="M252.903 33.8506C253.499 34.1485 254.095 34.4464 254.709 34.7533C254.67 35.9763 254.621 37.198 254.568 38.4204C254.553 38.9353 254.553 38.9353 254.537 39.4606C254.415 42.0317 253.831 43.8689 252.282 45.9803C251.242 46.6996 250.524 46.6463 249.29 46.4881C248.992 46.1902 248.694 45.8923 248.387 45.5854C248.443 44.6827 248.443 44.6827 248.838 43.7801C249.133 43.6503 249.429 43.5206 249.733 43.3869C250.708 42.9635 250.708 42.9635 251.003 42.0435C251.062 41.7136 251.12 41.3837 251.181 41.0438C251.248 40.6843 251.315 40.3247 251.384 39.9543C251.593 38.5023 251.741 37.0504 251.844 35.5872C252 34.7533 252 34.7533 252.903 33.8506Z" fill="black"/>
<path d="M241.615 46.0361C243.635 46.2669 244.588 47.014 246.131 48.2928C247.024 48.7643 247.925 49.2212 248.841 49.6469C248.692 50.2426 248.543 50.8384 248.389 51.4522C245.48 51.2197 243.905 50.2682 241.643 48.5185C241.163 47.8415 241.163 47.8415 241.304 46.8542C241.407 46.5842 241.509 46.3143 241.615 46.0361Z" fill="black"/>
<path d="M83.097 56.418C84.1978 56.7565 84.1978 56.7565 85.3551 57.3206C85.8067 58.1951 85.8067 58.1951 85.8067 59.126C85.2986 59.9441 85.2986 59.9441 84.4519 60.48C83.2382 60.339 83.2382 60.339 82.1938 60.0287C81.8833 58.985 81.8833 58.985 81.7422 57.772C82.3914 56.9539 82.3914 56.9539 83.097 56.418Z" fill="black"/>
<path d="M360.71 62.161C361.218 62.1567 361.726 62.1524 362.249 62.148C362.794 62.1484 363.338 62.1488 363.899 62.1492C364.462 62.1473 365.025 62.1453 365.604 62.1433C367.097 62.1401 368.59 62.1415 370.083 62.1441C370.997 62.1439 371.911 62.1394 372.824 62.1332C374.582 62.1222 376.339 62.1203 378.097 62.121C378.641 62.1168 379.185 62.1127 379.746 62.1084C380.254 62.1112 380.762 62.114 381.285 62.1169C381.731 62.1166 382.176 62.1163 382.635 62.1161C384.091 62.3154 384.944 62.7804 386.127 63.639C387.306 65.9963 386.72 69.7665 386.736 72.392C386.744 73.2679 386.756 74.1439 386.774 75.0198C386.798 76.2833 386.808 77.5462 386.815 78.81C386.825 79.2003 386.835 79.5906 386.846 79.9927C386.84 81.7797 386.694 82.836 385.822 84.423C383.377 85.8565 380.903 85.6064 378.121 85.5713C377.51 85.5705 376.899 85.5705 376.288 85.5713C375.01 85.5706 373.732 85.5622 372.454 85.5479C370.817 85.53 369.18 85.528 367.542 85.5314C366.281 85.5328 365.02 85.5273 363.76 85.5196C362.862 85.5149 361.965 85.5147 361.068 85.5146C360.524 85.5074 359.979 85.5002 359.419 85.4928C358.699 85.4871 358.699 85.4871 357.966 85.4813C356.772 85.3033 356.772 85.3033 355.957 84.6991C354.646 82.8794 354.893 80.8146 354.89 78.676C354.888 78.2915 354.887 77.907 354.885 77.5108C354.883 76.6978 354.882 75.8848 354.882 75.0718C354.881 73.8287 354.873 72.5857 354.864 71.3426C354.863 70.5525 354.862 69.7623 354.861 68.9722C354.858 68.6007 354.855 68.2293 354.852 67.8466C354.865 64.4035 354.865 64.4035 355.869 63.1876C357.53 62.3804 358.873 62.1696 360.71 62.161ZM359.482 64.993C359.482 65.2909 359.482 65.5888 359.482 65.8957C359.927 66.1395 360.372 66.3832 360.831 66.6344C362.095 67.355 363.286 68.1324 364.469 68.9792C364.776 69.1995 365.084 69.4197 365.401 69.6466C366.035 70.104 366.667 70.5649 367.296 71.0288C367.755 71.3547 367.755 71.3547 368.223 71.6873C368.496 71.8862 368.769 72.085 369.05 72.2899C369.852 72.7409 369.852 72.7409 370.742 72.5832C371.864 72.1398 372.79 71.569 373.796 70.9027C374.193 70.6415 374.591 70.3803 375.001 70.1111C375.412 69.8371 375.824 69.5631 376.248 69.2807C377.067 68.7397 377.887 68.199 378.707 67.6587C379.069 67.4181 379.431 67.1776 379.804 66.9297C380.707 66.347 380.707 66.347 381.611 65.8957C381.387 65.4489 381.387 65.4489 381.159 64.993C374.005 64.993 366.852 64.993 359.482 64.993ZM380.566 69.0268C380.079 69.3978 379.591 69.768 379.102 70.1376C378.848 70.33 378.594 70.5224 378.332 70.7207C377.036 71.6953 375.732 72.6541 374.413 73.5967C373.943 73.937 373.473 74.2774 372.989 74.628C371.562 75.4381 371.014 75.7082 369.417 75.3738C368.354 74.7217 367.406 74.0725 366.425 73.3146C363.736 71.2817 360.994 69.5242 358.127 67.701C358.127 72.6161 358.127 77.5312 358.127 82.5953C361.413 82.6047 364.7 82.6138 367.987 82.6186C369.517 82.621 371.047 82.6242 372.578 82.6293C374.332 82.6351 376.086 82.6373 377.841 82.6393C378.667 82.6428 378.667 82.6428 379.51 82.6464C380.016 82.6464 380.523 82.6465 381.044 82.6465C381.493 82.6475 381.941 82.6485 382.403 82.6495C383.404 82.7092 383.404 82.7092 383.869 82.1439C383.909 81.0389 383.921 79.9467 383.913 78.8417C383.912 78.5118 383.912 78.1818 383.911 77.8419C383.908 76.7841 383.903 75.7264 383.897 74.6686C383.895 73.9531 383.893 73.2376 383.891 72.5221C383.886 70.7646 383.878 69.0072 383.869 67.2497C382.433 67.2497 381.685 68.1608 380.566 69.0268Z" fill="black"/>
<path d="M117.506 75.0907C117.776 75.1838 118.046 75.2769 118.324 75.3728C118.473 76.2665 118.622 77.1601 118.776 78.0809C117.421 78.9835 117.421 78.9835 116.461 78.8425C115.614 78.5322 115.614 78.5322 115.163 78.0809C115.05 76.9807 115.05 76.9807 115.163 75.8242C116.518 74.9215 116.518 74.9215 117.506 75.0907Z" fill="black"/>
<path d="M67.7403 104.259C68.954 104.654 68.954 104.654 69.9984 105.161C70.0548 106.233 70.0548 106.233 69.9984 107.418C69.7003 107.716 69.4022 108.014 69.0951 108.321C67.0378 108.07 67.0378 108.07 66.3855 107.418C66.2726 106.318 66.2726 106.318 66.3855 105.161C66.8326 104.864 67.2797 104.566 67.7403 104.259Z" fill="black"/>
<path d="M409.869 135.769C410.97 135.853 410.97 135.853 411.421 136.305C411.506 137.405 411.506 137.405 411.421 138.561C411.123 138.859 410.825 139.157 410.518 139.464C409.333 139.295 409.333 139.295 408.26 139.013C407.978 137.941 407.978 137.941 407.809 136.756C408.712 135.853 408.712 135.853 409.869 135.769Z" fill="black"/>
<path d="M39.4923 155.148C40.0652 155.204 40.0652 155.204 40.6496 155.261C41.5528 156.615 41.5528 156.615 41.4963 157.546C40.9844 158.679 40.43 158.884 39.2947 159.323C38.6986 158.877 38.1025 158.43 37.4883 157.969C37.9668 155.305 37.9668 155.305 39.4923 155.148Z" fill="black"/>
<path d="M425.418 183.244C425.7 184.315 425.7 184.315 425.869 185.5C424.966 186.403 424.966 186.403 423.809 186.488C422.708 186.403 422.708 186.403 422.256 185.952C422.238 185.049 422.237 184.146 422.256 183.244C423.461 182.642 424.138 182.941 425.418 183.244Z" fill="black"/>
<path d="M289.48 238.758C289.762 239.83 289.762 239.83 289.932 241.015C289.028 241.918 289.028 241.918 287.843 241.974C287.489 241.955 287.135 241.937 286.77 241.918C286.291 241.1 286.291 241.1 285.867 240.112C286.016 239.665 286.165 239.219 286.319 238.758C287.523 238.156 288.201 238.455 289.48 238.758Z" fill="black"/>
<path d="M151.74 256.813C152.954 257.208 152.954 257.208 153.998 257.716C154.055 258.788 154.055 258.788 153.998 259.973C153.7 260.271 153.402 260.569 153.095 260.876C151.038 260.625 151.038 260.625 150.385 259.973C150.273 258.873 150.273 258.873 150.385 257.716C150.833 257.418 151.28 257.12 151.74 256.813Z" fill="black"/>
<path d="M399.228 268.942C400.583 268.999 400.583 268.999 401.034 269.45C401.119 270.55 401.119 270.55 401.034 271.707C400.736 272.005 400.438 272.303 400.131 272.61C398.074 272.359 398.074 272.359 397.421 271.707C397.365 270.578 397.365 270.578 397.421 269.45C397.873 268.999 397.873 268.999 399.228 268.942Z" fill="black"/>
</g>
<defs>
<clipPath id="clip0_250_94">
<rect width="448" height="320" fill="white"/>
</clipPath>
</defs>
</svg>
