<svg width="392" height="280" viewBox="0 0 392 280" fill="none" xmlns="http://www.w3.org/2000/svg">
<g clip-path="url(#clip0_284_17)">
<path d="M219.71 -0.00146509C220.06 0.549976 220.406 1.10402 220.733 1.66924C221.477 2.60179 222.321 3.08469 223.34 3.70093C228.129 6.61989 231.493 10.3562 233.145 15.7954C233.145 16.1864 233.145 16.5774 233.145 16.9802C233.48 17.0764 233.816 17.1726 234.161 17.2718C235.65 17.8193 236.915 18.5573 238.233 19.4238C238.474 19.582 238.715 19.7403 238.964 19.9034C243.887 23.1824 243.887 23.1824 244.728 25.5451C244.605 26.8533 244.605 26.8533 243.751 27.711C241.761 28.9917 239.779 28.7137 237.492 28.433C235.21 27.9205 232.99 27.2009 230.774 26.4583C229.268 29.2692 228.161 32.105 227.144 35.122C226.013 38.3625 224.774 41.466 223.167 44.5014C222.93 44.9507 222.93 44.9507 222.689 45.4091C221.316 47.9121 219.73 50.0982 217.339 51.7334C216.948 51.7334 216.556 51.7334 216.153 51.7334C216.153 51.994 216.153 52.2547 216.153 52.5232C216.461 52.5543 216.77 52.5853 217.087 52.6173C219.028 53.0236 220.739 53.7756 222.55 54.5719C222.945 54.7448 223.34 54.9177 223.747 55.0958C231.711 58.6443 239.351 62.9187 246.976 67.1354C247.327 67.3293 247.677 67.5233 248.039 67.7231C250.057 68.8403 252.074 69.9609 254.089 71.0846C254.103 70.7876 254.118 70.4905 254.133 70.1845C254.353 66.5907 254.952 63.123 255.694 59.6071C255.755 59.3171 255.815 59.0271 255.877 58.7283C262.151 28.792 262.151 28.7919 271.974 20.5823C274.317 19.0722 276.676 19.0856 279.379 19.3497C284.049 20.4504 288.851 24.2066 291.458 28.1954C293.16 31.1905 293.505 33.6737 293.21 37.1212C292.844 38.3549 292.477 38.8597 291.629 39.8857C291.23 40.0323 290.83 40.1789 290.419 40.33C289.157 40.9579 289.157 40.9579 288.912 42.212C288.731 43.1319 288.552 44.0524 288.377 44.9734C287.96 46.6595 287.528 47.2257 286.097 48.1791C285.109 48.574 285.109 48.574 284.121 48.574C282.678 47.9214 281.787 47.1587 280.96 45.8095C280.96 45.5489 280.96 45.2882 280.96 45.0197C280.047 45.15 279.134 45.2803 278.194 45.4146C278.324 45.8056 278.454 46.1966 278.589 46.5994C279.449 53.0931 279.463 59.708 279.478 66.2468C279.48 66.597 279.482 66.9473 279.484 67.3081C279.532 77.7344 279.532 77.7344 278.194 81.7475C278.594 81.6259 278.994 81.5043 279.406 81.379C281.572 80.7619 283.787 80.5145 286.016 80.2231C286.807 80.1192 287.598 80.0103 288.388 79.9009C294.158 79.1344 294.158 79.1344 296.766 79.378C297.397 80.0082 297.224 80.6623 297.228 81.5336C297.205 83.5958 296.912 85.5232 296.498 87.5387C296.429 87.885 296.361 88.2313 296.291 88.5881C296.074 89.6819 295.852 90.7746 295.63 91.8674C295.484 92.6026 295.339 93.338 295.193 94.0734C294.593 97.0917 293.977 100.092 293.21 103.073C293.444 102.992 293.677 102.911 293.918 102.828C294.23 102.722 294.543 102.615 294.864 102.506C295.172 102.4 295.479 102.295 295.795 102.186C300.006 100.895 305.344 100.908 309.411 102.678C314.161 105.303 317.571 109.459 320.451 113.958C320.723 114.375 320.995 114.791 321.275 115.22C322.067 116.434 322.852 117.652 323.637 118.87C324.029 119.472 324.422 120.073 324.815 120.674C325.692 122.016 326.561 123.364 327.427 124.715C327.816 125.322 328.206 125.929 328.597 126.535C334.572 135.808 340.259 145.251 345.766 154.808C346.016 155.242 346.266 155.675 346.524 156.122C350.209 162.521 353.837 168.95 357.399 175.418C357.802 176.143 358.21 176.865 358.626 177.582C358.808 177.899 358.991 178.216 359.178 178.542C359.339 178.815 359.499 179.089 359.664 179.371C359.992 180.083 359.992 180.083 359.893 181.169C358.935 182.4 357.8 183.277 356.436 184.032C356.175 184.032 355.914 184.032 355.645 184.032C355.981 184.568 355.981 184.568 356.323 185.114C356.616 185.584 356.908 186.055 357.201 186.525C357.349 186.76 357.496 186.995 357.648 187.237C358.288 188.269 358.816 189.195 359.202 190.351C359.451 190.312 359.701 190.274 359.958 190.234C362.567 189.829 365.176 189.426 367.786 189.023C368.758 188.873 369.73 188.722 370.703 188.571C372.104 188.354 373.506 188.138 374.908 187.921C375.339 187.854 375.77 187.787 376.214 187.718C379.444 187.222 382.625 186.735 385.9 186.772C386.308 186.776 386.716 186.779 387.136 186.783C387.588 186.79 389.629 186.525 391.21 187.718C392.304 191.044 392 193.807 388.048 196.67C383.504 200.422 379.168 203.127 374.683 205.728C372.021 207.282 369.49 209.011 366.959 210.768C365.737 211.613 364.503 212.441 363.271 213.272C361.542 214.44 359.823 215.62 358.111 216.813C357.131 217.495 356.146 218.171 355.16 218.846C354.699 219.163 354.24 219.484 353.784 219.807C353.158 220.25 352.525 220.683 351.891 221.115C351.537 221.362 351.182 221.609 350.817 221.864C349.369 222.491 348.464 222.32 346.952 221.945C343.586 218.686 342.135 212.72 341.074 208.295C340.152 204.622 338.377 201.389 336.282 198.25C335.997 198.51 335.712 198.771 335.418 199.039C334.186 199.915 333.795 200.057 332.331 199.829C331.635 199.117 331.635 199.117 331.014 198.129C330.676 197.6 330.676 197.6 330.331 197.06C330.102 196.687 329.874 196.314 329.639 195.929C329.403 195.559 329.166 195.189 328.923 194.808C327.194 192.062 327.194 192.062 327.194 191.141C325.238 191.141 323.281 191.141 321.266 191.141C321.323 191.834 321.381 192.528 321.44 193.242C322.114 201.402 322.785 209.562 323.453 217.723C323.578 219.245 323.703 220.768 323.827 222.291C324.182 226.619 324.536 230.947 324.888 235.275C325.043 237.19 325.199 239.104 325.356 241.019C325.505 242.833 325.653 244.647 325.799 246.462C325.853 247.13 325.908 247.799 325.963 248.468C326.039 249.388 326.113 250.308 326.187 251.229C326.229 251.744 326.271 252.26 326.314 252.791C326.412 254.486 326.403 256.185 326.403 257.883C341.008 257.883 355.614 257.883 370.661 257.883C370.792 258.404 370.922 258.925 371.056 259.463C370.266 260.252 370.266 260.252 369.375 260.351C368.814 260.35 368.814 260.35 368.241 260.35C367.812 260.352 367.383 260.353 366.942 260.355C366.233 260.352 366.233 260.352 365.51 260.348C365.014 260.349 364.517 260.35 364.006 260.351C362.644 260.353 361.281 260.35 359.919 260.346C358.494 260.342 357.07 260.343 355.646 260.343C353.254 260.343 350.863 260.339 348.471 260.334C345.703 260.328 342.935 260.325 340.168 260.326C337.508 260.326 334.849 260.324 332.19 260.321C331.057 260.319 329.923 260.319 328.79 260.318C327.209 260.318 325.628 260.314 324.047 260.31C323.574 260.31 323.102 260.31 322.615 260.31C322.186 260.309 321.757 260.307 321.315 260.305C320.941 260.305 320.567 260.304 320.181 260.303C319.29 260.252 319.29 260.252 318.5 259.858C318.5 260.118 318.5 260.379 318.5 260.647C318.775 260.687 319.049 260.727 319.332 260.767C320.681 261.092 321.739 261.629 322.964 262.279C323.316 262.466 323.316 262.466 323.674 262.656C324.169 262.92 324.663 263.185 325.157 263.451C325.899 263.851 326.645 264.244 327.391 264.637C331.907 267.04 337.272 270.142 339.048 275.259C339.32 278.272 339.32 278.272 338.653 279.604C335.326 280.487 331.647 279.847 328.268 279.54C327.639 279.486 327.01 279.431 326.381 279.376C319.767 278.788 313.177 277.998 306.589 277.177C305.34 277.022 304.091 276.87 302.842 276.718C299.253 276.281 295.665 275.83 292.079 275.368C291.236 275.26 290.393 275.153 289.549 275.046C287.99 274.848 286.432 274.64 284.874 274.431C284.181 274.343 284.181 274.343 283.473 274.254C282.842 274.167 282.842 274.167 282.198 274.078C281.833 274.029 281.467 273.981 281.091 273.931C280.046 273.646 279.632 273.352 278.984 272.495C278.344 268.475 279.525 264.116 280.169 260.252C238.701 260.252 197.233 260.252 154.508 260.252C154.508 260.252 151.271 260.253 151.347 260.252C150.916 260.253 150.916 260.253 150.476 260.253C133.462 260.271 116.449 260.285 99.435 260.293C97.3941 260.294 95.3532 260.295 93.3123 260.296C92.906 260.296 92.4996 260.296 92.081 260.296C85.4939 260.3 78.9068 260.306 72.3198 260.313C65.5654 260.321 58.8111 260.325 52.0568 260.327C47.8859 260.328 43.7151 260.331 39.5442 260.338C36.6877 260.342 33.8311 260.343 30.9746 260.342C29.3242 260.342 27.6739 260.342 26.0236 260.347C24.5148 260.35 23.006 260.351 21.4972 260.348C20.9494 260.348 20.4016 260.349 19.8538 260.351C19.113 260.354 18.3723 260.352 17.6315 260.35C17.2189 260.35 16.8062 260.35 16.3811 260.351C15.4113 260.252 15.4113 260.252 14.621 259.463C14.7514 258.941 14.8818 258.42 15.0161 257.883C20.6235 257.753 26.2308 257.622 32.0081 257.488C31.2256 255.924 30.4432 254.36 29.6371 252.749C29.1872 251.619 28.7629 250.516 28.3775 249.367C28.2796 249.08 28.1817 248.793 28.0809 248.497C27.8048 247.678 27.535 246.857 27.2661 246.035C27.1347 245.648 27.0033 245.261 26.8679 244.863C25.0038 238.858 25.2062 231.958 27.8157 226.221C29.494 223.274 31.8345 220.566 35.1694 219.575C38.1439 218.836 40.3989 219.295 43.0726 220.76C44.1346 221.55 44.1346 221.55 44.6532 222.34C44.5899 223.114 44.5899 223.114 44.2581 223.92C43.5388 224.453 43.5388 224.453 42.628 224.956C37.6575 228.11 35.9418 234.295 34.6878 239.741C34.247 241.821 34.0643 243.912 33.9839 246.035C34.3751 246.035 34.7663 246.035 35.1694 246.035C35.1487 245.348 35.1487 245.348 35.1277 244.647C35.1295 242.975 35.4094 241.428 35.8362 239.815C35.9429 239.405 35.9429 239.405 36.0518 238.987C37.356 234.165 39.2829 229.275 43.4415 226.226C44.7323 225.702 46.0361 225.638 47.4194 225.499C47.5493 217.209 47.5493 217.209 47.0736 208.937C47.0426 208.611 47.0116 208.285 46.9796 207.95C46.777 206.087 46.405 204.38 45.8387 202.594C45.6798 202.924 45.6798 202.924 45.5176 203.26C43.24 207.693 39.9505 210.351 35.2681 211.973C28.7696 214.042 22.1025 212.889 16.1524 209.826C12.0513 207.614 8.77407 204.743 5.54422 201.426C3.81969 199.662 2.02181 198.092 0 196.67C0.414553 193.983 3.17919 192.508 5.21428 190.987C13.98 184.755 25.5052 180.143 36.3548 179.688C36.634 179.672 36.9131 179.657 37.2007 179.64C41.5833 179.507 46.423 180.061 49.7564 183.155C51.3369 184.925 51.922 186.303 51.8726 188.75C51.6889 190.15 51.1139 190.887 50.1855 191.931C47.5945 193.905 47.5945 193.905 45.8387 193.905C46.6028 196.424 47.3768 198.929 48.2591 201.409C50.1224 207.079 49.8459 212.716 49.6847 218.605C49.6561 219.715 49.6398 220.825 49.6252 221.936C49.6125 222.276 49.5998 222.617 49.5867 222.968C49.5791 223.855 49.5848 224.636 49.7903 225.499C50.7087 226.326 50.7087 226.326 51.7661 226.684C51.8965 226.814 52.0269 226.945 52.1613 227.079C52.1985 223.591 52.2331 220.163 51.7754 216.697C51.7659 215.595 52.0151 214.758 52.3434 213.715C52.8222 211.797 52.8926 209.79 53.0751 207.826C54.0651 198.219 56.644 190.051 62.8307 182.453C62.2805 182.025 62.2805 182.025 61.7193 181.589C60.3296 180.407 59.4051 179.466 59.1492 177.584C59.0439 175.317 59.2789 173.921 60.8548 172.185C64.1065 169.238 68.4137 168.482 72.6912 168.547C84.6399 169.374 94.8351 175.676 103.015 184.168C106.945 188.687 110.453 193.641 110.25 199.829C110.12 199.96 109.989 200.09 109.855 200.224C107.182 200.081 104.654 199.477 102.067 198.826C101.655 198.724 101.655 198.724 101.234 198.62C100.992 198.558 100.749 198.497 100.5 198.433C97.5889 197.852 94.7817 197.817 91.8241 197.858C90.9249 197.865 90.0258 197.871 89.1266 197.878C87.7256 197.89 86.3247 197.904 84.9237 197.922C69.4004 198.115 69.4004 198.115 64.3357 193.514C63.113 192.162 62.1691 190.739 61.25 189.166C57.6432 195.534 55.4287 203.126 55.7177 210.492C57.0218 210.362 58.3258 210.232 59.6694 210.097C59.7427 209.56 59.8161 209.022 59.8916 208.468C60.3025 206.677 60.8984 205.764 62.3768 204.681C66.5654 202.177 71.3327 201.923 76.0578 202.868C83.7239 205.221 89.1845 211.201 92.9077 218.082C96.2402 224.55 97.6749 231.35 97.6789 238.581C97.6838 239.042 97.6886 239.502 97.6936 239.977C97.6944 240.422 97.6951 240.866 97.6959 241.324C97.6975 241.726 97.6992 242.128 97.7008 242.543C97.6006 243.716 97.307 244.577 96.8145 245.64C95.2274 245.402 94.2342 244.582 92.9617 243.641C85.7925 238.549 73.6351 233.003 64.8065 233.003C60.1571 241.15 58.4073 248.393 56.5081 257.883C73.4605 257.883 90.4129 257.883 107.879 257.883C107.879 256.58 107.879 255.276 107.879 253.934C107.936 252.919 108.006 251.906 108.089 250.893C108.112 250.614 108.134 250.335 108.158 250.047C108.232 249.125 108.31 248.203 108.387 247.281C108.442 246.615 108.496 245.948 108.55 245.281C108.667 243.853 108.785 242.425 108.904 240.997C109.091 238.738 109.276 236.48 109.461 234.221C109.754 230.65 110.048 227.079 110.343 223.508C110.871 217.107 111.398 210.707 111.923 204.307C112.107 202.061 112.292 199.816 112.478 197.571C112.593 196.176 112.708 194.781 112.823 193.386C112.876 192.739 112.929 192.092 112.983 191.445C113.057 190.562 113.129 189.68 113.201 188.797C113.242 188.303 113.283 187.809 113.325 187.3C113.368 186.66 113.368 186.66 113.411 186.007C113.439 185.644 113.466 185.281 113.494 184.907C113.498 183.883 113.498 183.883 112.3 183.045C112.083 182.88 111.867 182.714 111.644 182.544C109.674 180.958 109.392 178.504 109.065 176.134C109.065 175.613 109.065 175.091 109.065 174.554C108.665 174.595 108.266 174.636 107.854 174.678C105.087 174.663 102.534 173.528 99.9758 172.58C99.6402 172.459 99.3046 172.338 98.9588 172.214C97.8864 171.827 96.8192 171.428 95.7525 171.025C95.4121 170.902 95.0717 170.779 94.721 170.652C92.6462 169.845 91.4638 169.164 90.4919 167.051C90.3098 165.81 90.3098 165.81 90.3438 164.582C90.3489 164.173 90.3539 163.764 90.3592 163.342C90.4919 162.312 90.4919 162.312 91.2823 161.522C92.0974 161.427 92.0974 161.427 93.1132 161.432C93.4929 161.432 93.8725 161.432 94.2637 161.432C94.6746 161.436 95.0854 161.44 95.5086 161.445C95.9285 161.446 96.3484 161.447 96.781 161.448C98.1259 161.453 99.4707 161.462 100.816 161.472C101.726 161.476 102.636 161.48 103.546 161.483C105.781 161.492 108.015 161.505 110.25 161.522C110.176 161.001 110.176 161.001 110.101 160.47C109.56 156.543 109.145 152.614 108.777 148.668C108.717 148.024 108.656 147.38 108.595 146.737C108.469 145.401 108.343 144.066 108.218 142.73C108.058 141.018 107.897 139.307 107.735 137.595C107.609 136.272 107.485 134.949 107.36 133.625C107.301 132.994 107.241 132.362 107.182 131.73C107.099 130.852 107.017 129.975 106.935 129.097C106.888 128.598 106.841 128.1 106.793 127.586C106.694 126.374 106.694 126.374 106.694 125.189C106.183 125.193 105.672 125.197 105.146 125.201C103.257 125.216 101.367 125.225 99.4772 125.232C98.6585 125.236 97.8397 125.242 97.021 125.249C95.8459 125.258 94.6709 125.263 93.4958 125.266C93.1282 125.27 92.7606 125.274 92.3819 125.278C91.8717 125.279 91.8717 125.279 91.3512 125.279C90.901 125.281 90.901 125.281 90.4417 125.284C89.7016 125.189 89.7016 125.189 88.9113 124.399C88.7553 123.57 88.7553 123.57 88.6751 122.543C88.644 122.166 88.6129 121.789 88.5808 121.401C88.5513 120.997 88.5218 120.594 88.4914 120.178C88.4589 119.767 88.4264 119.356 88.3928 118.933C88.2986 117.728 88.2093 116.522 88.121 115.316C88.0753 114.727 88.0295 114.138 87.9836 113.55C87.505 107.034 87.505 107.034 87.7258 105.048C88.5161 104.258 88.5161 104.258 90.0931 104.168C90.7746 104.169 91.456 104.173 92.1374 104.181C92.6752 104.183 92.6752 104.183 93.2238 104.184C94.3713 104.189 95.5188 104.199 96.6663 104.209C97.4433 104.213 98.2202 104.216 98.9972 104.219C100.904 104.228 102.811 104.242 104.718 104.258C104.718 103.346 104.718 102.434 104.718 101.494C104.263 101.557 103.807 101.621 103.338 101.687C101.665 101.895 100.021 101.952 98.3365 101.955C98.0446 101.956 97.7528 101.957 97.4521 101.959C96.8418 101.961 96.2314 101.962 95.6211 101.962C94.6847 101.963 93.7484 101.97 92.812 101.977C92.2167 101.978 91.6213 101.979 91.026 101.98C90.7461 101.982 90.4663 101.985 90.1779 101.988C88.2114 101.979 88.2114 101.979 87.3307 101.099C87.1778 100.092 87.0706 99.1186 86.9941 98.1059C86.969 97.8046 86.9438 97.5032 86.9178 97.1928C86.865 96.5515 86.814 95.9101 86.7645 95.2686C86.6901 94.3062 86.6095 93.3444 86.528 92.3826C86.3769 90.5501 86.2501 88.7172 86.1452 86.8815C86.1292 86.6029 86.1132 86.3242 86.0968 86.0372C86.0581 85.268 86.0348 84.4981 86.0124 83.7283C85.9923 83.0794 85.9923 83.0794 85.9717 82.4174C86.1452 81.3526 86.1452 81.3526 86.7324 80.7043C88.1687 79.9286 89.5562 79.9943 91.1493 79.997C91.4954 79.993 91.8416 79.989 92.1982 79.9848C93.349 79.9729 94.4997 79.9693 95.6507 79.9657C96.4629 79.959 97.2752 79.9519 98.0875 79.9442C100.24 79.9254 102.392 79.9137 104.545 79.9034C106.674 79.8918 108.804 79.8732 110.934 79.8554C120.848 79.7761 130.763 79.7546 140.677 79.7729C140.703 79.4767 140.728 79.1804 140.754 78.8753C140.788 78.4856 140.823 78.0959 140.858 77.6944C140.891 77.3086 140.925 76.9228 140.959 76.5253C141.784 68.5282 146.409 60.4024 152.532 55.2877C159.935 50.2282 169.405 48.008 178.29 47.687C178.729 47.6659 179.167 47.6448 179.619 47.6231C180.496 47.5831 181.374 47.5572 182.251 47.5472C184.607 47.4353 184.607 47.4353 186.587 46.2667C187.317 45.3587 187.916 44.4523 188.492 43.44C188.711 43.062 188.711 43.062 188.935 42.6763C191.868 37.2992 191.868 37.2992 192.715 31.5106C192.44 30.7317 192.44 30.7317 191.851 29.8152C190.638 27.7955 190.62 25.6007 190.863 23.299C191.373 21.5174 191.879 20.13 193.441 19.0643C194.825 17.792 194.894 16.5868 195.185 14.7834C196.064 10.2423 197.742 6.4218 201.532 3.55284C205.22 1.44393 208.722 0.657449 212.918 0.78838C213.579 0.808538 214.24 0.825147 214.901 0.837745C215.334 0.85149 215.334 0.85149 215.775 0.865513C217.393 0.704216 217.945 -0.345634 219.71 -0.00146509ZM200.742 7.50206C199.064 9.76866 198.294 12.3088 197.581 15.0056C198.791 14.9489 200.001 14.8911 201.211 14.8328C201.545 14.8173 201.879 14.8018 202.223 14.7858C204.13 14.693 206.028 14.5675 207.93 14.4055C210.901 14.1724 213.866 14.1216 216.845 14.117C217.258 14.1156 217.258 14.1156 217.68 14.1142C221.883 14.1089 225.892 14.3657 229.984 15.4005C229.497 11.9745 226.885 9.23433 224.32 7.06394C217.454 2.20134 207.044 0.834784 200.742 7.50206ZM207.065 16.5853C208.046 18.5472 212.161 19.453 214.177 20.1396C216.745 20.8829 219.366 21.4025 221.982 21.9414C223.377 22.238 224.77 22.5395 226.163 22.8423C226.667 22.9511 226.667 22.9511 227.18 23.062C230.103 23.7019 232.976 24.4744 235.822 25.4017C237.893 26.0529 239.665 26.1469 241.839 26.0634C239.932 21.9149 234.009 19.4539 229.984 17.77C225.809 16.274 221.637 16.1224 217.24 16.141C216.805 16.1418 216.37 16.1425 215.923 16.1433C212.953 16.1591 210.018 16.2567 207.065 16.5853ZM194.889 20.7566C193.556 22.241 193.286 23.5106 193.11 25.471C193.291 27.4887 193.882 28.7005 195.333 30.1114C196.453 30.8402 197.483 31.2344 198.766 31.5923C198.636 31.9833 198.505 32.3743 198.371 32.7771C197.458 32.7771 196.545 32.7771 195.605 32.7771C195.518 32.9935 195.432 33.2098 195.342 33.4327C195.07 34.1129 194.797 34.7927 194.523 35.4721C194.17 36.3587 193.826 37.2487 193.489 38.1409C191.794 42.5852 190.066 46.8621 186.121 49.7588C186.624 53.06 188.935 55.1994 191.428 57.27C194.511 59.5296 198.711 62.2147 202.718 61.6064C204.937 60.3791 205.659 58.2761 206.62 56.0528C206.866 55.5133 206.866 55.5133 207.117 54.9629C208.109 53.0073 208.109 53.0073 207.855 50.9435C207.121 50.3049 207.121 50.3049 206.225 49.6847C201.879 46.4033 201.879 46.4033 201.261 43.9367C201.199 43.4954 201.199 43.4954 201.137 43.0451C201.92 42.8496 201.92 42.8496 202.718 42.6502C202.913 42.9373 202.913 42.9373 203.111 43.2302C205.086 46.0107 207.968 47.8857 209.436 48.1791C216.857 49.6625 218.524 45.2172 216.623 49.2404C222.244 44.3769 224.647 35.3794 226.888 28.5945C227.231 27.6054 227.612 26.6374 228.008 25.6685C226.639 25.0794 225.352 24.7034 223.887 24.439C223.477 24.3624 223.068 24.2859 222.646 24.207C222.215 24.1273 221.784 24.0475 221.34 23.9654C217.88 23.3079 214.616 22.5158 211.33 21.2534C210.169 20.9127 209.723 20.7983 208.645 21.3243C207.826 22.1155 207.826 22.1155 207.065 23.0768C205.356 25.1545 205.356 25.1545 203.903 25.6685C202.619 25.5204 202.619 25.5204 201.532 25.2736C201.465 25.0307 201.398 24.7879 201.329 24.5377C200.762 22.5919 200.762 22.5919 199.655 20.9294C197.909 20.1536 196.608 19.8021 194.889 20.7566ZM269.895 26.4583C269.107 27.6625 268.429 28.906 267.771 30.1854C267.586 30.5438 267.402 30.9023 267.211 31.2716C259.763 46.1499 257.131 62.9747 255.669 79.378C255.148 79.2476 254.626 79.1173 254.089 78.983C253.958 77.1585 253.828 75.3339 253.694 73.4541C251.998 72.6722 250.303 71.8902 248.556 71.0846C248.489 71.6624 248.422 72.2402 248.353 72.8355C247.776 77.6071 247.02 82.2339 245.79 86.8815C249.966 86.6783 254.043 86.0449 258.162 85.3624C259.264 85.1802 260.367 85.002 261.47 84.8243C266.153 84.0615 270.794 83.1615 275.427 82.1424C278.026 73.2845 277.119 63.3188 276.675 54.2095C276.635 53.3853 276.599 52.5609 276.568 51.7363C276.524 50.697 276.461 49.6611 276.391 48.6234C276.381 48.3234 276.371 48.0233 276.362 47.7143C276.312 46.7533 276.312 46.7533 275.823 45.4146C275.06 44.7967 274.284 44.3511 273.419 43.8885C272.377 43.2716 271.986 42.5841 271.501 41.4901C271.349 41.1495 271.197 40.8089 271.041 40.458C270.634 39.3511 270.383 38.2978 270.29 37.1212C270.942 37.1212 271.594 37.1212 272.266 37.1212C272.333 37.3549 272.401 37.5886 272.47 37.8293C273.049 39.7152 273.561 41.2636 275.032 42.6502C276.266 43.1824 276.266 43.1824 277.403 43.44C277.322 43.1778 277.241 42.9157 277.158 42.6455C277.051 42.2968 276.945 41.9481 276.835 41.5888C276.73 41.2452 276.624 40.9015 276.516 40.5475C276.044 38.8756 275.773 37.3348 275.784 35.5956C275.786 35.0706 275.786 35.0706 275.788 34.535C275.793 33.9947 275.793 33.9947 275.798 33.4435C275.8 33.0757 275.801 32.7079 275.803 32.329C275.808 31.4252 275.814 30.5215 275.823 29.6177C276.344 29.6177 276.866 29.6177 277.403 29.6177C277.432 30.2828 277.432 30.2828 277.462 30.9614C277.583 36.9851 277.583 36.9851 280.169 42.2552C280.43 42.2552 280.691 42.2552 280.96 42.2552C281.385 40.1051 281.482 37.972 281.577 35.7884C281.603 35.2393 281.603 35.2393 281.629 34.6792C281.671 33.7819 281.711 32.8846 281.75 31.9873C282.272 31.8569 282.793 31.7266 283.331 31.5923C283.774 34.9832 283.687 37.9994 283.098 41.3588C282.863 42.9332 282.803 43.8733 283.706 45.231C283.973 45.5523 284.241 45.8735 284.516 46.2045C285.857 45.1687 286.186 43.8546 286.492 42.2552C286.637 40.6853 286.692 39.1165 286.739 37.5409C286.754 37.1201 286.77 36.6993 286.785 36.2658C286.822 35.2346 286.856 34.2034 286.887 33.172C287.409 33.172 287.93 33.172 288.468 33.172C288.859 35.7133 288.859 35.7133 289.258 38.306C290.854 36.9802 290.854 36.9802 291.063 35.847C291.057 32.1861 289.729 29.6188 287.233 26.9767C284.34 24.2548 281.066 21.955 277.033 21.5712C273.702 21.6851 271.805 24.0084 269.895 26.4583ZM151.347 60.0267C151.102 60.2594 150.857 60.492 150.604 60.7317C139.881 71.64 141.081 93.2393 140.677 107.417C142.86 107.256 145.014 107.049 147.168 106.652C154.92 105.237 162.43 105.161 170.315 105.048C170.575 96.0555 170.836 87.0631 171.105 77.7983C171.757 77.6679 172.409 77.5376 173.081 77.4033C172.987 81.2584 172.891 85.1135 172.792 88.9685C172.746 90.7583 172.701 92.5482 172.658 94.338C172.616 96.064 172.572 97.7898 172.527 99.5156C172.51 100.176 172.494 100.835 172.478 101.495C172.457 102.417 172.433 103.338 172.408 104.259C172.402 104.534 172.396 104.81 172.39 105.094C172.335 106.977 172.335 106.977 171.895 107.417C170.722 107.548 169.548 107.678 168.339 107.812C168.339 111.331 168.339 114.85 168.339 118.475C171.722 118.89 175.106 119.302 178.49 119.711C180.062 119.901 181.633 120.092 183.205 120.285C184.724 120.471 186.243 120.655 187.763 120.838C188.34 120.908 188.917 120.978 189.494 121.05C195.397 121.903 195.397 121.903 201.202 120.971C201.621 120.832 202.039 120.693 202.471 120.55C202.895 120.403 203.318 120.256 203.755 120.104C211.333 117.547 211.333 117.547 215.561 117.636C215.885 117.64 216.21 117.643 216.545 117.647C217.337 117.656 218.128 117.67 218.919 117.685C220.377 112.669 221.357 107.585 222.328 102.456C222.561 101.224 222.796 99.9927 223.032 98.7614C223.178 98.0017 223.323 97.2417 223.465 96.4814C224.221 92.5398 224.221 92.5398 224.847 91.2256C225.825 90.8347 225.825 90.8347 226.823 90.4358C227.214 86.2654 227.605 82.095 228.008 77.7983C228.53 77.9286 229.051 78.0589 229.589 78.1932C229.458 81.9726 229.328 85.752 229.194 89.6459C233.974 88.968 233.974 88.968 238.752 88.2637C239.075 88.2174 239.398 88.1711 239.731 88.1233C240.041 88.076 240.351 88.0286 240.67 87.9799C240.943 87.9394 241.216 87.8989 241.498 87.8572C242.359 87.6833 242.359 87.6833 243.419 86.8815C243.749 86.1876 243.749 86.1876 243.94 85.3712C244.062 84.9126 244.062 84.9126 244.186 84.4446C244.308 83.9526 244.308 83.9526 244.432 83.4506C244.517 83.1144 244.603 82.7782 244.691 82.4319C245.423 79.4555 245.903 76.5084 246.186 73.4541C246.263 72.9165 246.263 72.9165 246.341 72.3681C246.482 71.328 246.482 71.328 246.186 69.8998C245.626 69.3696 245.626 69.3696 244.869 68.9696C244.581 68.8024 244.293 68.6351 243.997 68.4628C243.676 68.2854 243.355 68.108 243.024 67.9252C242.685 67.7356 242.346 67.5459 241.996 67.3506C240.853 66.7195 239.705 66.0991 238.554 65.4816C238.136 65.2567 237.717 65.0318 237.286 64.8C236.436 64.3438 235.586 63.8881 234.736 63.433C233.678 62.8653 232.624 62.2925 231.571 61.7175C221.391 55.7322 221.391 55.7322 210.226 52.9181C210.116 53.1731 210.007 53.428 209.894 53.6906C209.393 54.8508 208.883 56.0071 208.374 57.1636C208.202 57.5647 208.03 57.9659 207.853 58.3792C206.205 62.0863 206.205 62.0863 204.298 63.1861C200.54 64.4381 196.803 62.6693 193.431 60.9894C189.016 58.4631 185.596 54.9047 183.75 50.1537C172.505 49.756 159.482 51.5335 151.347 60.0267ZM109.46 101.494C109.46 102.406 109.46 103.318 109.46 104.258C119.11 104.128 128.759 103.997 138.702 103.863C138.702 103.081 138.702 102.299 138.702 101.494C129.052 101.494 119.402 101.494 109.46 101.494ZM264.255 120.255C262.728 121.091 261.194 121.915 259.661 122.74C255.783 124.829 251.931 126.958 248.102 129.134C245.194 130.785 242.271 132.408 239.344 134.025C236.147 135.792 232.969 137.585 229.811 139.422C228.119 140.404 226.419 141.374 224.72 142.345C223.837 142.858 222.971 143.388 222.108 143.932C218.917 145.806 216.325 145.842 212.728 145.815C207.992 145.918 203.967 148.001 199.789 150.071C198.711 150.485 197.934 150.542 196.79 150.464C196.79 150.073 196.79 149.682 196.79 149.279C198.877 148.367 200.963 147.455 203.113 146.515C201.685 145.563 200.863 145.572 199.161 145.478C198.672 145.449 198.183 145.419 197.679 145.389C197.12 145.368 196.56 145.349 196 145.33C195.665 145.312 195.33 145.294 194.984 145.276C192.204 145.185 189.964 145.684 187.356 146.613C186.953 146.752 186.551 146.891 186.136 147.034C181.378 148.71 176.737 150.68 172.093 152.646C169.951 153.548 167.799 154.425 165.647 155.302C164.936 155.592 164.226 155.882 163.515 156.172C163.015 156.376 162.516 156.579 162.016 156.783C162.677 162.057 165.499 166.896 168.734 171C169.01 171.353 169.286 171.706 169.571 172.069C175.597 179.251 184.947 182.6 194.024 183.637C195.96 183.75 197.889 183.77 199.828 183.761C200.349 183.759 200.87 183.756 201.407 183.754C205.38 183.705 209.138 183.426 212.992 182.453C213.304 182.374 213.616 182.296 213.938 182.215C229.167 178.254 241.737 168.386 254.274 159.271C258.287 156.355 262.368 153.546 266.482 150.773C267.454 150.116 268.424 149.455 269.394 148.793C282.268 140.046 282.268 140.046 288.219 138.568C288.525 138.49 288.83 138.411 289.145 138.33C289.751 138.178 290.361 138.04 290.973 137.915C291.936 137.709 291.936 137.709 293.21 137.037C293.73 135.955 293.841 135.088 294 133.877C294.391 133.877 294.782 133.877 295.186 133.877C295.316 134.92 295.446 135.962 295.581 137.037C296.125 137.137 296.125 137.137 296.68 137.24C300.564 138.007 303.597 138.706 306.25 141.776C306.431 141.98 306.613 142.185 306.8 142.396C310.205 146.534 312.764 152.497 312.506 157.884C312.274 164.419 314.852 168.559 318.491 173.796C319.375 175.071 320.216 176.367 321.049 177.674C321.553 178.463 322.064 179.247 322.577 180.031C324.548 183.052 326.458 186.113 328.379 189.166C330.589 187.814 332.741 186.421 334.8 184.847C340.506 180.506 346.493 176.515 352.484 172.58C352.25 171.052 351.795 169.928 351.034 168.586C350.815 168.196 350.595 167.806 350.369 167.404C350.13 166.986 349.89 166.568 349.644 166.137C349.394 165.698 349.145 165.258 348.888 164.805C346.307 160.265 343.677 155.753 341.024 151.254C340.723 150.741 340.421 150.229 340.12 149.716C336.76 144.007 333.405 138.308 329.747 132.784C328.797 131.334 327.87 129.869 326.939 128.407C324.493 124.567 322.024 120.743 319.513 116.945C319.265 116.568 319.018 116.19 318.764 115.802C315.292 110.581 311.549 105.225 305.065 103.863C291.199 102.469 276.02 113.779 264.255 120.255ZM157.595 107.294C157.191 107.329 156.786 107.364 156.369 107.4C149.321 107.832 149.321 107.832 142.653 109.787C142.633 112.351 142.619 114.915 142.61 117.479C142.606 118.349 142.6 119.22 142.594 120.09C142.584 121.348 142.58 122.606 142.576 123.864C142.572 124.247 142.568 124.631 142.564 125.026C142.563 128.933 142.808 132.763 145.419 135.852C150.512 140.828 160.537 139.953 167.041 139.886C175.181 139.759 183.896 138.831 191.653 136.247C192.245 136.21 192.839 136.195 193.431 136.197C193.737 136.196 194.043 136.195 194.358 136.194C195.21 136.247 195.21 136.247 196.395 136.642C198.754 136.853 200.717 136.852 202.718 135.457C203.887 134.295 204.838 133.033 205.484 131.508C208.383 131.66 210.773 133.437 212.967 135.21C213.765 135.974 213.765 135.974 214.968 135.852C215.405 134.477 215.626 133.332 215.363 131.903C214.325 130.9 213.265 130.215 212.019 129.488C211.016 128.743 211.016 128.743 210.68 127.665C210.66 127.369 210.641 127.073 210.621 126.769C212.586 127.465 214.349 128.504 216.153 129.533C216.235 129.028 216.316 128.523 216.4 128.003C216.446 127.719 216.492 127.435 216.539 127.142C216.542 126.888 216.545 126.635 216.548 126.374C215.457 125.283 214.491 125.355 212.992 125.189C213.122 124.668 213.253 124.146 213.387 123.609C214.779 123.578 216.003 123.593 217.339 124.004C217.81 122.473 218.129 121.273 218.129 119.66C215.761 118.477 212.637 119.427 210.226 120.104C209.741 120.234 209.741 120.234 209.246 120.367C207.632 120.812 206.054 121.304 204.488 121.898C204.202 122.007 203.916 122.115 203.622 122.226C203.094 122.431 202.57 122.643 202.05 122.867C197.744 124.558 192.598 123.533 188.143 122.96C187.594 122.892 187.045 122.824 186.496 122.756C185.353 122.614 184.21 122.47 183.067 122.325C181.627 122.141 180.188 121.961 178.747 121.783C172.631 121.025 166.524 120.227 160.436 119.265C160.436 118.744 160.436 118.223 160.436 117.685C162.131 117.685 163.826 117.685 165.573 117.685C165.908 116.344 166.014 115.407 166.006 114.051C166.005 113.664 166.004 113.277 166.002 112.878C165.999 112.477 165.996 112.076 165.992 111.663C165.991 111.256 165.989 110.848 165.987 110.429C165.982 109.425 165.976 108.421 165.968 107.417C163.124 107.033 160.449 107.035 157.595 107.294ZM257.25 108.602C256.284 110.05 256.132 111.263 256.46 112.946C257.238 114.023 257.238 114.023 258.436 114.526C259.664 114.656 259.664 114.656 260.806 114.131C261.869 112.929 262.337 112.119 262.56 110.527C262.364 109.242 262.152 108.697 261.202 107.812C259.506 107.143 258.667 107.53 257.25 108.602ZM111.04 125.189C111.04 127.468 111.076 129.646 111.288 131.901C111.314 132.194 111.341 132.487 111.368 132.789C111.454 133.746 111.543 134.703 111.632 135.659C111.693 136.33 111.754 137.001 111.815 137.672C111.942 139.073 112.071 140.473 112.2 141.873C112.366 143.665 112.529 145.456 112.692 147.247C112.818 148.631 112.944 150.014 113.071 151.397C113.132 152.058 113.192 152.718 113.252 153.379C113.337 154.302 113.422 155.225 113.508 156.148C113.532 156.418 113.557 156.689 113.582 156.967C113.726 158.507 113.946 159.991 114.202 161.522C129.589 161.522 144.977 161.522 160.831 161.522C160.439 160.349 160.048 159.176 159.645 157.968C158.729 157.685 157.806 157.422 156.879 157.178C153.871 152.97 153.484 146.409 152.927 141.381C152.717 141.314 152.506 141.246 152.288 141.177C145.269 138.895 145.269 138.895 143.444 136.642C143.166 136.316 142.889 135.99 142.604 135.654C140.872 132.424 140.642 128.785 140.282 125.189C130.632 125.189 120.983 125.189 111.04 125.189ZM206.274 133.877C206.119 134.17 205.965 134.464 205.805 134.766C205.026 135.946 204.249 136.601 203.113 137.432C202.591 137.823 202.07 138.213 201.532 138.616C205.575 138.616 209.617 138.616 213.782 138.616C213.13 138.095 212.478 137.574 211.806 137.037C211.509 136.791 211.212 136.545 210.905 136.292C210.616 136.057 210.326 135.822 210.028 135.58C209.739 135.343 209.45 135.105 209.151 134.86C208.176 134.224 207.42 134.029 206.274 133.877ZM191.258 138.221C191.258 138.352 191.258 138.482 191.258 138.616C192.823 138.616 194.388 138.616 196 138.616C194.121 137.677 193.233 137.795 191.258 138.221ZM271.871 149.279C271.603 149.459 271.335 149.639 271.059 149.824C269.492 150.879 267.939 151.951 266.391 153.034C265.478 153.673 264.563 154.308 263.648 154.944C260.466 157.158 257.3 159.392 254.163 161.67C236.642 174.37 236.642 174.37 229.194 178.109C229.194 178.239 229.194 178.369 229.194 178.503C232.798 178.57 236.289 178.432 239.863 177.96C240.608 177.864 240.608 177.864 241.368 177.766C248.93 176.742 256.427 175.239 263.923 173.821C264.553 173.702 264.553 173.702 265.195 173.581C265.777 173.47 265.777 173.47 266.371 173.357C266.709 173.292 267.048 173.228 267.397 173.161C268.237 172.99 269.065 172.795 269.895 172.58C269.843 172.346 269.79 172.112 269.736 171.872C269.592 171.227 269.449 170.582 269.307 169.937C269.163 169.286 269.012 168.637 268.858 167.989C268.619 166.474 268.406 164.894 269.105 163.496C269.626 163.496 270.148 163.496 270.686 163.496C270.696 163.821 270.706 164.146 270.716 164.481C270.869 167.475 271.35 169.879 272.661 172.58C273.687 171.042 274.518 169.425 275.378 167.791C275.55 167.468 275.721 167.146 275.898 166.813C277.017 164.69 278.038 162.542 278.984 160.337C279.506 160.337 280.027 160.337 280.565 160.337C279.59 164.029 277.932 167.3 276.173 170.672C273.593 175.66 273.308 179.852 273.993 185.34C274.189 186.916 274.37 188.493 274.552 190.07C274.591 190.408 274.631 190.747 274.671 191.095C275.149 195.24 275.543 199.392 275.937 203.546C276.013 204.348 276.09 205.15 276.166 205.952C276.359 207.984 276.552 210.016 276.743 212.048C277.054 215.333 277.366 218.618 277.678 221.903C277.785 223.028 277.891 224.153 277.997 225.278C278.428 229.831 278.891 234.379 279.379 238.927C282.557 238.78 285.734 238.633 288.912 238.484C290.388 238.414 291.864 238.346 293.34 238.278C294.767 238.212 296.194 238.145 297.621 238.078C298.163 238.053 298.704 238.028 299.246 238.003C302.25 237.866 305.237 237.691 308.226 237.347C308.629 234.928 308.747 232.527 308.847 230.08C308.867 229.631 308.886 229.183 308.906 228.721C308.969 227.232 309.031 225.743 309.092 224.254C309.125 223.469 309.157 222.683 309.19 221.898C309.343 218.236 309.489 214.574 309.634 210.912C309.645 210.625 309.656 210.338 309.668 210.043C310.513 188.975 310.513 188.975 310.84 167.895C310.844 167.034 310.851 166.173 310.859 165.313C310.962 157.27 310.962 157.27 308.621 149.674C308.511 149.439 308.401 149.204 308.288 148.961C306.454 145.058 304.285 141.941 300.306 140.074C290.394 136.575 279.705 144.018 271.871 149.279ZM183.355 140.196C182.967 140.247 182.967 140.247 182.572 140.298C181.368 140.455 180.163 140.609 178.959 140.764C178.553 140.817 178.147 140.87 177.728 140.925C172.299 141.616 166.937 141.832 161.473 141.8C160.87 141.798 160.267 141.797 159.664 141.795C158.209 141.791 156.753 141.784 155.298 141.776C155.477 144.731 155.719 147.587 156.434 150.464C156.498 150.744 156.562 151.025 156.627 151.314C157.015 152.927 157.522 154.228 158.46 155.598C160.168 155.368 161.608 154.95 163.194 154.281C163.649 154.09 164.104 153.9 164.573 153.703C165.063 153.496 165.552 153.288 166.042 153.08C166.807 152.759 167.572 152.439 168.337 152.119C168.863 151.899 169.388 151.679 169.913 151.458C172.673 150.3 175.444 149.171 178.218 148.045C178.665 147.863 179.112 147.681 179.573 147.494C181.359 146.768 183.145 146.044 184.936 145.33C184.823 144.77 184.707 144.211 184.59 143.652C184.526 143.34 184.461 143.028 184.395 142.707C184.148 141.786 183.793 141.04 183.355 140.196ZM62.7319 173.641C62.5037 173.942 62.2754 174.244 62.0403 174.554C61.9099 174.685 61.7795 174.815 61.6452 174.949C61.5314 176.105 61.4521 176.984 61.6452 178.109C62.8778 179.485 64.21 180.058 65.9919 180.478C67.2165 180.166 67.2165 180.166 68.3876 179.565C74.2184 176.827 79.9989 178.36 85.8253 180.384C87.5393 181.014 89.2157 181.716 90.8871 182.453C91.409 182.673 91.409 182.673 91.9414 182.899C92.8135 183.292 92.8135 183.292 94.0484 184.032C94.3232 184.869 94.3232 184.869 94.4436 185.612C92.7077 185.398 91.4517 184.971 89.9239 184.131C87.1712 182.706 84.3584 181.774 81.4032 180.873C81.1114 180.775 80.8195 180.677 80.5188 180.575C76.316 179.289 71.9107 179.906 67.9677 181.663C66.171 182.619 64.6719 183.646 64.0161 185.612C63.8176 188.033 63.9724 189.219 65.5968 191.141C69.6872 195.331 75.4686 195.741 81.0081 195.88C82.2971 195.883 83.5858 195.871 84.8748 195.855C85.2222 195.851 85.5697 195.847 85.9277 195.843C86.2814 195.839 86.6351 195.835 86.9996 195.831C87.7274 195.823 88.4552 195.814 89.183 195.806C89.5436 195.802 89.9042 195.797 90.2757 195.793C96.3716 195.732 101.964 196.277 107.879 197.855C107.013 193.236 104.834 189.894 101.601 186.502C100.766 185.612 100.766 185.612 99.9913 184.617C94.1593 177.527 83.3865 172.039 74.2903 171C70.4919 170.705 65.6275 170.78 62.7319 173.641ZM312.573 174.554C312.556 175.212 312.557 175.871 312.573 176.529C313.002 177.047 313.002 177.047 314.044 176.962C314.479 176.958 314.915 176.953 315.363 176.948C315.8 176.945 316.237 176.941 316.686 176.938C317.024 176.933 317.362 176.929 317.71 176.924C317.28 175.64 317.28 175.64 316.524 174.554C315.858 174.526 315.191 174.521 314.524 174.53C314.161 174.533 313.797 174.537 313.423 174.54C313.142 174.545 312.862 174.55 312.573 174.554ZM350.829 176.134C350.444 176.393 350.444 176.393 350.052 176.658C343.889 180.83 337.8 185.108 331.788 189.496C331.188 189.926 330.574 190.337 329.96 190.746C330.58 193.102 331.837 195.023 333.121 197.065C335.203 196.419 336.768 195.104 338.48 193.807C341.169 191.798 343.878 189.827 346.631 187.908C347.119 187.566 347.119 187.566 347.617 187.217C349.202 186.111 350.796 185.022 352.411 183.96C352.707 183.763 353.004 183.567 353.309 183.364C353.864 182.996 354.423 182.633 354.985 182.275C355.81 181.745 355.81 181.745 356.831 180.873C356.831 179.052 356.413 178.372 355.497 176.825C355.249 176.399 355.002 175.974 354.747 175.535C354.522 175.212 354.297 174.888 354.065 174.554C352.778 174.554 351.863 175.431 350.829 176.134ZM165.808 174.569C165.355 174.573 164.902 174.576 164.435 174.579C163.685 174.585 163.685 174.585 162.921 174.591C162.391 174.594 161.861 174.598 161.332 174.602C159.892 174.613 158.451 174.623 157.011 174.634C155.507 174.645 154.003 174.656 152.499 174.667C149.65 174.688 146.8 174.709 143.951 174.73C140.707 174.754 137.464 174.778 134.221 174.802C127.548 174.851 120.875 174.9 114.202 174.949C114.332 175.731 114.462 176.513 114.597 177.319C120.327 177.263 126.056 177.205 131.786 177.146C132.207 177.142 132.627 177.137 133.06 177.133C145.48 177.004 157.898 176.85 170.315 176.529C169.808 175.855 169.28 175.197 168.734 174.554C167.759 174.554 166.784 174.562 165.808 174.569ZM265.153 175.542C264.847 175.598 264.541 175.655 264.226 175.713C263.481 175.851 262.736 175.992 261.992 176.134C261.992 176.264 261.992 176.395 261.992 176.529C265.252 176.529 268.512 176.529 271.871 176.529C271.871 176.008 271.871 175.486 271.871 174.949C269.548 174.886 267.432 175.103 265.153 175.542ZM3.55645 195.485C3.42023 196.667 3.42023 196.667 4.13685 197.279C4.53417 197.601 4.53417 197.601 4.93952 197.929C6.08604 198.885 7.1471 199.858 8.1749 200.94C13.6081 206.402 20.3565 210.549 28.2293 210.64C33.0155 210.595 36.948 209.601 40.5781 206.395C43.1682 203.457 44.5107 200.963 44.434 196.943C44.1422 195.18 43.2496 194.213 41.8871 193.116C36.2167 189.294 27.2285 191.121 20.9436 192.326C19.3745 192.681 17.8334 193.106 16.2911 193.563C14.9483 193.924 13.6288 194.129 12.25 194.3C12.25 193.779 12.25 193.258 12.25 192.721C20.4201 190.144 32.3019 186.514 40.5766 190.462C40.9113 190.645 41.2459 190.829 41.5907 191.018C43.5203 192.062 44.5111 192.136 46.629 191.536C48.3041 190.639 48.3041 190.639 49.3952 189.166C49.5903 187.476 49.5255 186.623 48.6542 185.143C46.1232 182.456 42.1075 182.075 38.627 181.959C26.9468 182.09 11.8059 186.911 3.55645 195.485ZM115.782 185.217C115.748 185.655 115.714 186.093 115.678 186.544C112.726 224.152 112.726 224.152 111.263 239.791C111.225 240.189 111.225 240.189 111.187 240.596C110.338 249.676 110.338 249.676 110.025 252.196C109.84 254.083 109.855 255.986 109.855 257.883C123.547 257.883 137.24 257.883 151.347 257.883C151.359 250.184 151.359 250.184 151.172 242.497C151.153 241.982 151.134 241.467 151.115 240.937C151.065 239.56 151.013 238.184 150.961 236.808C150.906 235.352 150.852 233.895 150.798 232.438C150.708 230.002 150.617 227.565 150.524 225.128C150.418 222.322 150.314 219.516 150.211 216.71C150.11 213.987 150.009 211.264 149.907 208.541C149.864 207.391 149.821 206.241 149.779 205.092C149.72 203.489 149.659 201.885 149.597 200.282C149.58 199.813 149.563 199.343 149.546 198.86C149.445 196.274 149.272 193.712 148.976 191.141C148.719 191.14 148.463 191.14 148.198 191.139C145.794 191.132 143.39 191.11 140.985 191.081C140.081 191.072 139.177 191.066 138.273 191.064C128.791 191.037 128.791 191.037 124.476 188.771C123.775 188.447 123.075 188.124 122.373 187.801C121.41 187.333 120.45 186.859 119.49 186.384C119.178 186.233 118.867 186.081 118.545 185.925C118.27 185.789 117.994 185.653 117.71 185.512C116.917 185.144 116.917 185.144 115.782 185.217ZM151.347 191.141C151.595 199.826 151.857 208.506 152.199 217.187C152.231 218.007 152.263 218.826 152.295 219.645C152.394 222.191 152.494 224.737 152.594 227.283C152.697 229.894 152.799 232.505 152.899 235.116C152.987 237.387 153.076 239.657 153.165 241.927C153.218 243.271 153.271 244.616 153.322 245.96C153.379 247.447 153.438 248.933 153.498 250.42C153.514 250.857 153.531 251.295 153.548 251.745C153.564 252.151 153.581 252.557 153.598 252.975C153.612 253.324 153.625 253.674 153.639 254.034C153.733 255.323 153.93 256.603 154.113 257.883C156.33 257.883 158.547 257.883 160.831 257.883C161.304 257.03 161.304 257.03 161.788 256.16C168.391 244.334 175.378 232.962 186.689 225.08C186.965 224.886 187.241 224.693 187.526 224.493C187.918 224.227 187.918 224.227 188.318 223.955C188.551 223.796 188.785 223.636 189.025 223.472C189.677 223.13 189.677 223.13 190.863 223.13C190.639 224.534 190.286 225.572 189.559 226.792C189.37 227.113 189.182 227.434 188.988 227.764C188.784 228.108 188.579 228.452 188.368 228.807C184.72 235.086 181.354 241.431 178.489 248.109C178.297 248.553 178.105 248.998 177.907 249.456C177.734 249.868 177.561 250.281 177.383 250.706C177.229 251.073 177.075 251.439 176.916 251.816C176.526 252.794 176.526 252.794 177.032 253.934C177.205 253.684 177.379 253.435 177.557 253.178C183.187 245.241 190.37 237.597 199.556 233.793C200.078 233.793 200.6 233.793 201.137 233.793C200.906 235.223 200.522 236.328 199.833 237.6C199.644 237.953 199.456 238.306 199.261 238.67C198.955 239.237 198.955 239.237 198.643 239.815C196.803 243.283 195.021 246.773 193.308 250.305C193.097 250.734 192.886 251.162 192.669 251.604C192.478 252.001 192.287 252.397 192.09 252.806C191.834 253.334 191.834 253.334 191.573 253.872C191.469 254.153 191.365 254.434 191.258 254.724C191.388 254.984 191.519 255.245 191.653 255.513C192.012 255.136 192.371 254.759 192.741 254.37C196.086 250.912 199.53 247.947 203.508 245.245C203.931 244.946 204.355 244.646 204.791 244.337C205.879 243.666 205.879 243.666 207.065 243.666C206.923 246.073 205.764 247.582 204.422 249.491C203.99 250.122 203.558 250.753 203.127 251.385C202.92 251.687 202.712 251.989 202.499 252.301C200.5 254.895 200.5 254.895 199.556 257.883C226.42 257.883 253.283 257.883 280.96 257.883C282.62 252.33 282.62 252.33 282.54 249.59C282.26 249.566 281.979 249.542 281.69 249.517C281.327 249.484 280.963 249.451 280.589 249.417C280.046 249.369 280.046 249.369 279.492 249.32C278.589 249.195 278.589 249.195 278.194 248.8C278.072 247.873 277.974 246.954 277.89 246.024C277.862 245.732 277.834 245.44 277.806 245.138C277.713 244.158 277.623 243.177 277.533 242.196C277.468 241.503 277.403 240.811 277.338 240.118C277.163 238.256 276.991 236.393 276.819 234.53C276.677 232.994 276.533 231.458 276.389 229.922C275.711 222.665 275.043 215.408 274.398 208.149C274.375 207.886 274.351 207.624 274.327 207.353C274.093 204.719 273.861 202.085 273.633 199.451C273.578 198.817 273.578 198.817 273.521 198.17C273.454 197.398 273.387 196.626 273.322 195.854C273.292 195.518 273.263 195.183 273.233 194.837C273.208 194.55 273.183 194.263 273.158 193.967C273.045 193.017 272.849 192.079 272.661 191.141C232.628 191.141 192.594 191.141 151.347 191.141ZM312.573 191.141C312.331 192.593 312.127 193.844 312.07 195.282C312.049 195.782 312.049 195.782 312.028 196.292C312.015 196.651 312.001 197.01 311.987 197.379C311.972 197.763 311.957 198.147 311.941 198.542C311.89 199.813 311.841 201.084 311.793 202.355C311.758 203.25 311.723 204.145 311.688 205.04C311.615 206.923 311.543 208.807 311.472 210.69C311.4 212.596 311.326 214.502 311.25 216.408C310.831 226.946 310.462 237.463 310.597 248.01C308.771 248.14 306.946 248.27 305.065 248.405C305.105 248.885 305.146 249.366 305.188 249.861C305.211 250.131 305.234 250.402 305.257 250.68C305.914 253.55 308.171 254.906 310.51 256.39C313.418 258.014 315.869 258.135 319.153 258.011C319.624 258.002 320.096 257.992 320.582 257.983C321.732 257.959 322.882 257.926 324.032 257.883C322.914 242.46 321.723 227.042 320.484 211.628C320.377 210.292 320.27 208.955 320.164 207.618C319.995 205.498 319.824 203.377 319.652 201.257C319.588 200.466 319.525 199.676 319.462 198.886C319.376 197.8 319.288 196.715 319.199 195.629C319.174 195.31 319.149 194.99 319.123 194.66C319.02 193.417 318.896 192.329 318.5 191.141C316.544 191.141 314.588 191.141 312.573 191.141ZM62.8307 207.333C62.066 208.537 62.0403 208.99 62.0403 210.492C62.3949 210.598 62.7494 210.704 63.1147 210.813C69.7585 212.898 76.0404 215.963 81.255 220.637C81.4612 220.82 81.6674 221.003 81.8798 221.192C82.9201 222.159 83.6316 222.865 83.7742 224.314C82.2281 224.086 81.4071 223.348 80.2424 222.34C74.1473 217.262 66.5477 212.093 58.2678 212.353C56.9363 212.509 56.0152 212.871 54.9274 213.652C53.901 215.353 53.8218 216.849 54.1371 218.786C55.8721 223.98 59.6781 227.367 64.31 229.993C66.3473 231.007 68.4425 231.603 70.6351 232.188C71.575 232.455 72.5145 232.722 73.4537 232.99C73.923 233.123 74.3922 233.256 74.8757 233.393C81.0938 235.18 86.8762 237.234 92.4678 240.506C92.9897 240.805 93.5119 241.103 94.0345 241.401C94.6282 241.74 94.6282 241.74 95.2339 242.086C97.4965 234.217 93.7813 224.072 90.0474 217.206C86.8243 211.863 81.7434 206.799 75.6163 205.062C71.3211 204.135 66.2627 204.221 62.8307 207.333ZM54.5323 224.709C54.5265 224.985 54.5207 225.261 54.5148 225.545C54.3369 233.391 53.8957 241.206 53.3532 249.035C53.327 249.418 53.3007 249.8 53.2737 250.194C53.2241 250.912 53.1737 251.63 53.1223 252.348C52.9941 254.199 52.9267 256.028 52.9516 257.883C53.734 257.687 53.734 257.687 54.5323 257.488C54.5903 257.014 54.6484 256.54 54.7082 256.052C55.7604 248.013 57.9772 241.038 61.6429 233.81C62.0907 232.901 62.4798 231.979 62.8307 231.028C62.5912 230.903 62.3518 230.778 62.1052 230.649C59.5773 229.242 57.6771 227.589 55.6915 225.49C55.4394 225.232 55.1872 224.975 54.9274 224.709C54.797 224.709 54.6666 224.709 54.5323 224.709ZM185.331 228.659C176.183 236.228 168.577 246.251 163.597 257.093C163.597 257.354 163.597 257.614 163.597 257.883C166.596 257.883 169.595 257.883 172.686 257.883C172.964 257.132 173.242 256.381 173.528 255.607C175.583 250.117 177.754 244.72 180.317 239.445C180.539 238.987 180.761 238.528 180.989 238.056C182.292 235.416 183.701 232.88 185.252 230.377C185.409 230.071 185.565 229.764 185.726 229.448C185.53 229.058 185.53 229.058 185.331 228.659ZM193.876 239.445C193.63 239.621 193.384 239.798 193.13 239.979C190.616 241.816 188.353 243.866 186.121 246.035C185.904 246.242 185.687 246.449 185.463 246.662C183.693 248.379 182.173 250.217 180.688 252.181C180.354 252.613 180.354 252.613 180.013 253.054C178.795 254.653 177.953 256.043 177.032 257.883C180.423 257.883 183.813 257.883 187.306 257.883C189.94 253 192.36 248.077 194.639 243.019C195.444 241.236 196.296 239.485 197.186 237.742C195.862 237.742 194.918 238.696 193.876 239.445ZM298.876 239.976C298.323 240.002 297.77 240.029 297.217 240.055C295.773 240.125 294.329 240.195 292.885 240.266C291.407 240.338 289.928 240.409 288.45 240.48C285.558 240.62 282.666 240.76 279.774 240.901C279.16 242.128 279.543 243.169 279.75 244.505C279.826 245.011 279.903 245.517 279.983 246.038C280.044 246.428 280.106 246.818 280.169 247.22C285.898 247.33 291.59 247.147 297.31 246.85C297.815 246.824 297.815 246.824 298.332 246.798C299.311 246.747 300.291 246.695 301.27 246.641C301.705 246.619 301.705 246.619 302.149 246.595C304.185 246.48 306.2 246.274 308.226 246.035C308.226 243.95 308.226 241.865 308.226 239.716C305.103 239.681 301.995 239.822 298.876 239.976ZM49.7409 242.358C48.7946 243.446 48.2493 244.098 48.0893 245.543C48.1736 246.371 48.281 247.197 48.4057 248.021C48.7064 250.025 48.6472 252.035 48.6295 254.057C48.6278 254.432 48.626 254.808 48.6241 255.194C48.6195 256.091 48.6131 256.987 48.6048 257.883C49.2569 257.883 49.9089 257.883 50.5807 257.883C50.7522 256.163 50.9209 254.443 51.0871 252.722C51.1439 252.139 51.2014 251.556 51.2596 250.972C51.595 247.611 51.8643 244.285 51.7661 240.901C50.9319 240.901 50.2924 241.823 49.7409 242.358ZM45.8387 246.43C45.6637 246.595 45.4888 246.76 45.3085 246.93C44.4979 247.694 43.6864 248.457 42.875 249.219C42.5999 249.479 42.3249 249.738 42.0415 250.005C41.7664 250.264 41.4913 250.522 41.2079 250.788C40.79 251.181 40.79 251.181 40.3636 251.581C39.3039 252.547 38.2015 253.457 37.0826 254.354C36.0761 255.35 36.0761 255.35 34.7742 257.883C38.6863 257.883 42.5984 257.883 46.629 257.883C46.6453 256.213 46.6616 254.543 46.6784 252.823C46.6856 252.298 46.6928 251.772 46.7002 251.231C46.7022 250.817 46.7042 250.403 46.7062 249.977C46.7104 249.553 46.7145 249.129 46.7188 248.692C46.7093 247.528 46.7093 247.528 45.8387 246.43ZM197.877 252.181C197.53 252.505 197.53 252.505 197.175 252.835C195.615 254.304 194.157 255.794 192.839 257.488C192.839 257.618 192.839 257.749 192.839 257.883C194.308 258.361 195.336 258.445 196.79 257.883C198.728 255.703 200.218 252.74 201.137 249.984C199.743 249.984 198.85 251.267 197.877 252.181Z" fill="white"/>
<path d="M215.366 26.4609C215.888 26.5913 216.409 26.7216 216.947 26.8559C216.816 28.0288 216.686 29.2017 216.552 30.4102C216.03 30.4102 215.508 30.4102 214.971 30.4102C214.513 28.809 214.64 27.9545 215.366 26.4609Z" fill="white"/>
<path d="M221.295 29.6191C221.817 29.8798 222.339 30.1404 222.876 30.409C222.841 31.4791 222.799 32.5481 222.753 33.6177C222.739 34.0683 222.739 34.0683 222.726 34.5279C222.619 36.7776 222.108 38.3852 220.752 40.2327C219.842 40.8621 219.214 40.8154 218.134 40.677C217.873 40.4163 217.612 40.1557 217.344 39.8871C217.393 39.0973 217.393 39.0973 217.739 38.3074C217.997 38.1939 218.255 38.0804 218.522 37.9634C219.375 37.593 219.375 37.593 219.633 36.7879C219.684 36.4993 219.736 36.2106 219.789 35.9132C219.847 35.5986 219.906 35.284 219.966 34.9598C220.149 33.6894 220.279 32.419 220.369 31.1387C220.505 30.409 220.505 30.409 221.295 29.6191Z" fill="white"/>
<path d="M211.414 40.2812C213.181 40.4831 214.015 41.1369 215.365 42.2559C216.146 42.6684 216.935 43.0682 217.736 43.4406C217.606 43.9619 217.475 44.4832 217.341 45.0203C214.796 44.8168 213.417 43.9843 211.438 42.4533C211.018 41.8609 211.018 41.8609 211.142 40.997C211.232 40.7608 211.321 40.5246 211.414 40.2812Z" fill="white"/>
<path d="M72.7089 49.3652C73.6721 49.6614 73.6721 49.6614 74.6847 50.1551C75.0799 50.9202 75.0799 50.9202 75.0799 51.7348C74.6353 52.4506 74.6353 52.4506 73.8944 52.9195C72.8324 52.7961 72.8324 52.7961 71.9186 52.5246C71.6469 51.6114 71.6469 51.6114 71.5234 50.55C72.0915 49.8342 72.0915 49.8342 72.7089 49.3652Z" fill="white"/>
<path d="M315.619 54.3898C316.063 54.386 316.507 54.3822 316.965 54.3784C317.442 54.3787 317.918 54.3791 318.409 54.3795C318.901 54.3778 319.394 54.3761 319.901 54.3743C321.207 54.3715 322.514 54.3727 323.82 54.3749C324.619 54.3748 325.419 54.3709 326.218 54.3655C327.756 54.3558 329.294 54.3542 330.832 54.3548C331.308 54.3511 331.784 54.3475 332.275 54.3438C332.719 54.3462 333.164 54.3487 333.622 54.3512C334.011 54.351 334.401 54.3507 334.803 54.3505C336.077 54.5249 336.823 54.9317 337.858 55.683C338.89 57.7457 338.377 61.0446 338.392 63.3419C338.398 64.1084 338.409 64.8748 338.424 65.6412C338.446 66.7468 338.454 67.8519 338.46 68.9576C338.469 69.2992 338.478 69.6407 338.487 69.9925C338.482 71.5561 338.354 72.4804 337.591 73.869C335.452 75.1234 333.287 74.9045 330.853 74.8738C330.318 74.8731 329.784 74.8731 329.249 74.8738C328.131 74.8732 327.013 74.8658 325.895 74.8533C324.462 74.8376 323.029 74.8359 321.596 74.8389C320.493 74.8401 319.39 74.8353 318.287 74.8286C317.502 74.8245 316.716 74.8243 315.931 74.8242C315.455 74.8179 314.979 74.8116 314.488 74.8051C313.859 74.8001 313.859 74.8001 313.217 74.795C312.173 74.6393 312.173 74.6393 311.46 74.1106C310.313 72.5184 310.528 70.7117 310.525 68.8404C310.524 68.504 310.523 68.1675 310.522 67.8209C310.52 67.1095 310.519 66.3981 310.519 65.6867C310.518 64.599 310.511 63.5114 310.503 62.4237C310.502 61.7323 310.501 61.0409 310.501 60.3496C310.498 60.0245 310.495 59.6995 310.492 59.3646C310.504 56.352 310.504 56.352 311.382 55.2881C312.836 54.5817 314.011 54.3973 315.619 54.3898ZM314.543 56.8678C314.543 57.1284 314.543 57.3891 314.543 57.6576C314.933 57.8709 315.323 58.0842 315.724 58.304C316.83 58.9345 317.873 59.6148 318.907 60.3557C319.176 60.5484 319.446 60.7411 319.723 60.9396C320.278 61.3399 320.83 61.7432 321.381 62.1491C321.782 62.4343 321.782 62.4343 322.192 62.7253C322.431 62.8993 322.67 63.0733 322.916 63.2526C323.618 63.6472 323.618 63.6472 324.397 63.5092C325.378 63.1212 326.188 62.6218 327.068 62.0388C327.416 61.8102 327.764 61.5816 328.123 61.3461C328.483 61.1064 328.843 60.8666 329.214 60.6195C329.931 60.1461 330.648 59.673 331.366 59.2003C331.683 58.9898 331.999 58.7793 332.326 58.5624C333.116 58.0525 333.116 58.0525 333.906 57.6576C333.711 57.2666 333.711 57.2666 333.511 56.8678C327.252 56.8678 320.993 56.8678 314.543 56.8678ZM332.993 60.3974C332.566 60.722 332.139 61.0459 331.711 61.3693C331.489 61.5377 331.266 61.706 331.037 61.8795C329.904 62.7323 328.762 63.5712 327.608 64.396C327.197 64.6938 326.786 64.9916 326.363 65.2984C325.114 66.0073 324.634 66.2436 323.237 65.951C322.307 65.3804 321.478 64.8123 320.619 64.1492C318.266 62.3704 315.866 60.8326 313.358 59.2373C313.358 63.538 313.358 67.8387 313.358 72.2697C316.234 72.278 319.11 72.2859 321.985 72.2902C323.325 72.2923 324.664 72.2951 326.003 72.2995C327.538 72.3046 329.073 72.3066 330.608 72.3083C331.331 72.3114 331.331 72.3114 332.068 72.3145C332.511 72.3145 332.954 72.3146 333.411 72.3146C333.803 72.3155 334.195 72.3163 334.599 72.3172C335.475 72.3695 335.475 72.3695 335.882 71.8748C335.917 70.9079 335.928 69.9523 335.921 68.9854C335.92 68.6967 335.92 68.408 335.919 68.1105C335.917 67.185 335.912 66.2595 335.907 65.3339C335.905 64.7079 335.903 64.0818 335.901 63.4557C335.897 61.9179 335.89 60.3802 335.882 58.8424C334.626 58.8424 333.971 59.6396 332.993 60.3974Z" fill="white"/>
<path d="M102.819 65.7049C103.056 65.7863 103.292 65.8678 103.536 65.9517C103.666 66.7337 103.796 67.5156 103.931 68.3212C102.745 69.1111 102.745 69.1111 101.905 68.9877C101.165 68.7162 101.165 68.7162 100.769 68.3212C100.671 67.3586 100.671 67.3586 100.769 66.3466C101.955 65.5568 101.955 65.5568 102.819 65.7049Z" fill="white"/>
<path d="M59.2752 91.2266C60.3372 91.5721 60.3372 91.5721 61.251 92.0164C61.3004 92.9543 61.3004 92.9543 61.251 93.991C60.9902 94.2517 60.7294 94.5123 60.4607 94.7809C58.6605 94.5615 58.6605 94.5615 58.0897 93.991C57.9909 93.0284 57.9909 93.0284 58.0897 92.0164C58.4809 91.7558 58.8721 91.4951 59.2752 91.2266Z" fill="white"/>
<path d="M358.639 118.799C359.602 118.873 359.602 118.873 359.997 119.268C360.071 120.23 360.071 120.23 359.997 121.242C359.736 121.503 359.476 121.764 359.207 122.032C358.17 121.884 358.17 121.884 357.231 121.637C356.984 120.699 356.984 120.699 356.836 119.663C357.626 118.873 357.626 118.873 358.639 118.799Z" fill="white"/>
<path d="M34.5504 135.754C35.0516 135.803 35.0516 135.803 35.563 135.853C36.3533 137.037 36.3533 137.037 36.3039 137.852C35.8559 138.843 35.3709 139.023 34.3775 139.407C33.8559 139.016 33.3343 138.625 32.7969 138.222C33.2156 135.891 33.2156 135.891 34.5504 135.754Z" fill="white"/>
<path d="M372.239 160.338C372.486 161.276 372.486 161.276 372.635 162.312C371.844 163.102 371.844 163.102 370.832 163.176C369.868 163.102 369.868 163.102 369.473 162.707C369.457 161.918 369.456 161.127 369.473 160.338C370.527 159.811 371.12 160.073 372.239 160.338Z" fill="white"/>
<path d="M253.294 208.914C253.541 209.852 253.541 209.852 253.689 210.889C252.899 211.678 252.899 211.678 251.862 211.728C251.552 211.711 251.242 211.695 250.923 211.678C250.503 210.963 250.503 210.963 250.133 210.099C250.263 209.708 250.394 209.317 250.528 208.914C251.582 208.387 252.175 208.649 253.294 208.914Z" fill="white"/>
<path d="M132.775 224.713C133.837 225.058 133.837 225.058 134.751 225.503C134.8 226.441 134.8 226.441 134.751 227.477C134.49 227.738 134.229 227.999 133.961 228.267C132.161 228.048 132.161 228.048 131.59 227.477C131.491 226.515 131.491 226.515 131.59 225.503C131.981 225.242 132.372 224.981 132.775 224.713Z" fill="white"/>
<path d="M349.321 235.324C350.506 235.374 350.506 235.374 350.901 235.769C350.976 236.731 350.976 236.731 350.901 237.743C350.641 238.004 350.38 238.264 350.111 238.533C348.311 238.314 348.311 238.314 347.74 237.743C347.691 236.756 347.691 236.756 347.74 235.769C348.135 235.374 348.135 235.374 349.321 235.324Z" fill="white"/>
</g>
<defs>
<clipPath id="clip0_284_17">
<rect width="392" height="280" fill="white"/>
</clipPath>
</defs>
</svg>
