<svg width="336" height="240" viewBox="0 0 336 240" fill="none" xmlns="http://www.w3.org/2000/svg">
<g clip-path="url(#clip0_284_17)">
<path d="M188.323 -0.00153481C188.623 0.471129 188.919 0.946025 189.2 1.4305C189.837 2.22983 190.561 2.64374 191.434 3.17195C195.54 5.67391 198.423 8.87645 199.839 13.5387C199.839 13.8738 199.839 14.2089 199.839 14.5542C200.126 14.6366 200.413 14.7191 200.709 14.8041C201.986 15.2734 203.07 15.906 204.2 16.6487C204.406 16.7843 204.613 16.92 204.826 17.0597C209.046 19.8703 209.046 19.8703 209.767 21.8955C209.661 23.0168 209.661 23.0168 208.93 23.752C207.223 24.8498 205.525 24.6115 203.565 24.3708C201.608 23.9316 199.706 23.3148 197.806 22.6783C196.516 25.0876 195.567 27.5183 194.695 30.1043C193.726 32.8819 192.664 35.542 191.286 38.1437C191.083 38.5289 191.083 38.5289 190.876 38.9218C189.699 41.0672 188.34 42.9411 186.29 44.3426C185.955 44.3426 185.62 44.3426 185.274 44.3426C185.274 44.566 185.274 44.7894 185.274 45.0196C185.538 45.0462 185.803 45.0729 186.075 45.1003C187.738 45.4485 189.205 46.0931 190.757 46.7756C191.096 46.9238 191.434 47.072 191.783 47.2247C198.609 50.2663 205.158 53.93 211.694 57.5443C211.994 57.7106 212.295 57.8768 212.605 58.0481C214.335 59.0057 216.063 59.9662 217.79 60.9294C217.803 60.6748 217.815 60.4202 217.828 60.1579C218.017 57.0775 218.531 54.1051 219.166 51.0916C219.218 50.843 219.27 50.5944 219.323 50.3382C224.701 24.6785 224.701 24.6785 233.121 17.6417C235.129 16.3473 237.151 16.3588 239.468 16.5852C243.471 17.5287 247.587 20.7482 249.821 24.1672C251.28 26.7345 251.576 28.8629 251.323 31.8179C251.009 32.8754 250.695 33.308 249.968 34.1875C249.625 34.3131 249.283 34.4388 248.93 34.5683C247.849 35.1065 247.849 35.1065 247.639 36.1815C247.483 36.9699 247.33 37.7589 247.18 38.5484C246.823 39.9936 246.452 40.4789 245.226 41.2961C244.379 41.6346 244.379 41.6346 243.532 41.6346C242.295 41.0752 241.532 40.4215 240.823 39.265C240.823 39.0416 240.823 38.8182 240.823 38.588C240.04 38.6997 239.258 38.8114 238.452 38.9265C238.563 39.2617 238.675 39.5968 238.79 39.9421C239.528 45.5081 239.539 51.178 239.552 56.7827C239.554 57.0829 239.556 57.3831 239.558 57.6924C239.599 66.6292 239.599 66.6292 238.452 70.069C238.795 69.9648 239.138 69.8605 239.491 69.7531C241.348 69.2242 243.246 69.0121 245.157 68.7624C245.835 68.6733 246.512 68.5799 247.19 68.4862C252.135 67.8292 252.135 67.8292 254.371 68.038C254.912 68.5782 254.763 69.1389 254.766 69.8857C254.748 71.6533 254.496 73.3053 254.141 75.0329C254.082 75.3297 254.024 75.6265 253.963 75.9324C253.778 76.8699 253.587 77.8065 253.397 78.7432C253.272 79.3734 253.147 80.0037 253.023 80.6341C252.508 83.2212 251.981 85.7932 251.323 88.3483C251.523 88.2789 251.723 88.2095 251.93 88.138C252.198 88.0468 252.465 87.9556 252.741 87.8617C253.004 87.7713 253.268 87.681 253.539 87.5879C257.148 86.4812 261.723 86.4924 265.21 88.0098C269.281 90.2598 272.203 93.8219 274.672 97.6783C274.906 98.0352 275.139 98.3921 275.379 98.7598C276.057 99.8003 276.731 100.844 277.403 101.888C277.739 102.404 278.076 102.919 278.413 103.434C279.165 104.585 279.91 105.741 280.651 106.898C280.985 107.418 281.319 107.938 281.654 108.458C286.776 116.406 291.651 124.5 296.371 132.692C296.585 133.064 296.8 133.436 297.02 133.818C300.179 139.303 303.289 144.814 306.342 150.358C306.687 150.98 307.038 151.598 307.393 152.213C307.55 152.485 307.706 152.756 307.867 153.036C308.005 153.27 308.142 153.504 308.283 153.746C308.565 154.357 308.565 154.357 308.48 155.288C307.659 156.343 306.686 157.094 305.516 157.742C305.293 157.742 305.069 157.742 304.839 157.742C305.126 158.201 305.126 158.201 305.42 158.669C305.671 159.072 305.922 159.475 306.172 159.879C306.299 160.08 306.425 160.281 306.555 160.489C307.104 161.373 307.557 162.167 307.887 163.158C308.101 163.125 308.315 163.092 308.535 163.057C310.772 162.711 313.008 162.365 315.245 162.019C316.078 161.891 316.912 161.762 317.745 161.632C318.946 161.446 320.148 161.261 321.35 161.075C321.719 161.018 322.089 160.96 322.469 160.901C325.238 160.475 327.964 160.058 330.771 160.09C331.121 160.093 331.471 160.096 331.831 160.099C332.218 160.105 333.968 159.879 335.323 160.901C336.26 163.752 336 166.12 332.613 168.574C328.718 171.79 325.001 174.109 321.157 176.338C318.875 177.67 316.706 179.152 314.537 180.658C313.489 181.382 312.431 182.092 311.375 182.804C309.893 183.806 308.42 184.817 306.953 185.839C306.112 186.424 305.268 187.003 304.423 187.582C304.028 187.854 303.635 188.129 303.243 188.406C302.707 188.786 302.164 189.156 301.621 189.527C301.317 189.739 301.013 189.95 300.7 190.169C299.459 190.706 298.684 190.56 297.387 190.238C294.502 187.445 293.259 182.332 292.349 178.539C291.559 175.39 290.037 172.619 288.242 169.928C287.997 170.151 287.753 170.375 287.501 170.605C286.445 171.355 286.11 171.477 284.855 171.282C284.258 170.671 284.258 170.671 283.726 169.825C283.436 169.371 283.436 169.371 283.141 168.908C282.945 168.589 282.749 168.269 282.547 167.939C282.345 167.622 282.143 167.305 281.934 166.978C280.452 164.624 280.452 164.624 280.452 163.835C278.775 163.835 277.098 163.835 275.371 163.835C275.42 164.429 275.469 165.024 275.52 165.636C276.098 172.63 276.673 179.624 277.245 186.619C277.352 187.924 277.459 189.229 277.566 190.535C277.871 194.244 278.174 197.954 278.475 201.664C278.608 203.305 278.742 204.946 278.877 206.587C279.004 208.142 279.131 209.697 279.256 211.253C279.303 211.826 279.35 212.399 279.397 212.972C279.462 213.761 279.526 214.55 279.589 215.339C279.625 215.78 279.661 216.222 279.698 216.678C279.782 218.13 279.774 219.587 279.774 221.042C292.293 221.042 304.812 221.042 317.71 221.042C317.821 221.489 317.933 221.936 318.048 222.396C317.371 223.073 317.371 223.073 316.607 223.157C316.126 223.157 316.126 223.157 315.635 223.157C315.268 223.158 314.9 223.16 314.521 223.161C313.914 223.158 313.914 223.158 313.294 223.155C312.869 223.156 312.444 223.157 312.005 223.157C310.838 223.159 309.67 223.156 308.502 223.153C307.281 223.15 306.06 223.151 304.84 223.151C302.789 223.15 300.739 223.148 298.689 223.143C296.317 223.138 293.945 223.136 291.572 223.136C289.293 223.136 287.013 223.135 284.734 223.132C283.763 223.131 282.792 223.13 281.82 223.13C280.465 223.129 279.11 223.126 277.755 223.122C277.349 223.123 276.944 223.123 276.527 223.123C276.159 223.121 275.792 223.12 275.413 223.119C275.092 223.118 274.772 223.117 274.441 223.117C273.677 223.073 273.677 223.073 273 222.735C273 222.958 273 223.182 273 223.412C273.235 223.446 273.471 223.48 273.714 223.515C274.869 223.792 275.776 224.253 276.826 224.811C277.128 224.971 277.128 224.971 277.435 225.134C277.859 225.36 278.283 225.587 278.706 225.815C279.342 226.157 279.981 226.495 280.621 226.831C284.491 228.891 289.09 231.55 290.613 235.936C290.845 238.518 290.845 238.518 290.274 239.66C287.422 240.417 284.269 239.869 281.373 239.606C280.833 239.559 280.294 239.512 279.755 239.465C274.086 238.961 268.438 238.284 262.79 237.58C261.72 237.447 260.65 237.317 259.579 237.187C256.503 236.812 253.428 236.426 250.354 236.03C249.631 235.937 248.908 235.845 248.185 235.753C246.848 235.583 245.513 235.406 244.178 235.226C243.584 235.151 243.584 235.151 242.977 235.075C242.436 235 242.436 235 241.884 234.923C241.571 234.882 241.258 234.84 240.935 234.797C240.04 234.554 239.684 234.301 239.129 233.567C238.58 230.122 239.593 226.385 240.145 223.073C204.601 223.073 169.057 223.073 132.435 223.073C132.435 223.073 129.661 223.073 129.726 223.073C129.356 223.074 129.356 223.074 128.979 223.074C114.396 223.089 99.8132 223.101 85.23 223.108C83.4807 223.109 81.7313 223.11 79.982 223.11C79.6337 223.111 79.2854 223.111 78.9266 223.111C73.2805 223.114 67.6344 223.119 61.9884 223.125C56.1989 223.132 50.4095 223.136 44.6201 223.137C41.0451 223.138 37.4701 223.141 33.895 223.146C31.4466 223.15 28.9981 223.151 26.5496 223.15C25.135 223.15 23.7205 223.15 22.3059 223.154C21.0127 223.157 19.7194 223.157 18.4262 223.155C17.9566 223.155 17.4871 223.156 17.0175 223.158C16.3826 223.16 15.7476 223.159 15.1127 223.157C14.759 223.157 14.4053 223.157 14.0409 223.157C13.2097 223.073 13.2097 223.073 12.5323 222.396C12.644 221.949 12.7558 221.503 12.871 221.042C17.6773 220.93 22.4836 220.819 27.4355 220.704C26.7648 219.363 26.0942 218.023 25.4032 216.642C25.0176 215.674 24.6539 214.728 24.3236 213.743C24.2397 213.497 24.1558 213.251 24.0693 212.997C23.8327 212.295 23.6014 211.591 23.371 210.887C23.2583 210.555 23.1457 210.224 23.0296 209.882C21.4318 204.735 21.6053 198.821 23.842 193.904C25.2805 191.377 27.2867 189.056 30.1452 188.207C32.6948 187.573 34.6276 187.967 36.9194 189.223C37.8296 189.9 37.8296 189.9 38.2742 190.577C38.22 191.241 38.22 191.241 37.9355 191.931C37.3189 192.388 37.3189 192.388 36.5383 192.819C32.2779 195.523 30.8072 200.824 29.7324 205.492C29.3545 207.275 29.198 209.067 29.129 210.887C29.4644 210.887 29.7997 210.887 30.1452 210.887C30.1275 210.298 30.1275 210.298 30.1094 209.697C30.111 208.264 30.3509 206.938 30.7167 205.556C30.8082 205.204 30.8082 205.204 30.9016 204.846C32.0194 200.712 33.6711 196.521 37.2356 193.908C38.342 193.458 39.4595 193.404 40.6452 193.285C40.7565 186.179 40.7565 186.179 40.3488 179.089C40.3222 178.809 40.2956 178.53 40.2683 178.242C40.0945 176.646 39.7757 175.182 39.2903 173.652C39.1541 173.934 39.1541 173.934 39.0151 174.223C37.0628 178.022 34.2433 180.301 30.2298 181.691C24.6597 183.464 18.945 182.476 13.8449 179.851C10.3297 177.955 7.52063 175.493 4.75219 172.651C3.27402 171.139 1.73298 169.793 0 168.574C0.355331 166.271 2.72502 165.007 4.46938 163.703C11.9829 158.361 21.8616 154.408 31.1613 154.018C31.4006 154.005 31.6398 153.991 31.8863 153.977C35.6428 153.862 39.7911 154.338 42.6483 156.989C44.0031 158.507 44.5045 159.688 44.4623 161.785C44.3047 162.985 43.8119 163.617 43.0161 164.512C40.7953 166.204 40.7953 166.204 39.2903 166.204C39.9452 168.363 40.6087 170.511 41.3649 172.636C42.962 177.496 42.725 182.328 42.5869 187.376C42.5624 188.327 42.5484 189.279 42.5359 190.23C42.525 190.522 42.5141 190.814 42.5029 191.115C42.4964 191.876 42.5013 192.545 42.6774 193.285C43.4646 193.994 43.4646 193.994 44.371 194.3C44.4827 194.412 44.5945 194.524 44.7097 194.639C44.7416 191.65 44.7712 188.711 44.3789 185.74C44.3707 184.795 44.5844 184.078 44.8658 183.184C45.2762 181.54 45.3365 179.82 45.4929 178.137C46.3415 169.902 48.552 162.9 53.8548 156.388C53.3833 156.021 53.3833 156.021 52.9022 155.647C51.7111 154.634 50.9186 153.828 50.6993 152.215C50.6091 150.272 50.8105 149.075 52.1613 147.587C54.9484 145.061 58.6403 144.413 62.3067 144.469C72.5484 145.177 81.2872 150.579 88.2987 157.858C91.6669 161.731 94.674 165.978 94.5 171.282C94.3882 171.394 94.2765 171.505 94.1613 171.62C91.8702 171.498 89.7035 170.98 87.4863 170.422C87.1327 170.335 87.1327 170.335 86.7719 170.245C86.5642 170.193 86.3566 170.14 86.1427 170.085C83.6477 169.587 81.2415 169.557 78.7063 169.592C77.9357 169.598 77.165 169.604 76.3943 169.609C75.1934 169.62 73.9926 169.632 72.7917 169.647C59.4861 169.813 59.4861 169.813 55.1449 165.869C54.0969 164.71 53.2878 163.49 52.5 162.142C49.4084 167.601 47.5103 174.108 47.7581 180.422C48.8758 180.31 49.9936 180.198 51.1452 180.083C51.208 179.622 51.2709 179.162 51.3357 178.687C51.6879 177.151 52.1986 176.368 53.4659 175.441C57.0561 173.294 61.1423 173.076 65.1924 173.887C71.7633 175.904 76.4439 181.029 79.6352 186.927C82.4916 192.471 83.7214 198.299 83.7248 204.498C83.729 204.893 83.7331 205.288 83.7374 205.694C83.738 206.075 83.7387 206.456 83.7394 206.849C83.7408 207.194 83.7421 207.538 83.7436 207.894C83.6576 208.899 83.406 209.637 82.9839 210.549C81.6235 210.345 80.7721 209.641 79.6815 208.835C73.5364 204.47 63.1158 199.716 55.5484 199.716C51.5632 206.7 50.0634 212.908 48.4355 221.042C62.9661 221.042 77.4968 221.042 92.4678 221.042C92.4678 219.925 92.4678 218.808 92.4678 217.657C92.5165 216.788 92.5762 215.919 92.6478 215.051C92.6671 214.812 92.6865 214.572 92.7065 214.325C92.7707 213.535 92.8369 212.745 92.903 211.955C92.9499 211.384 92.9966 210.812 93.0432 210.241C93.1433 209.017 93.2443 207.792 93.3459 206.568C93.5067 204.632 93.6655 202.696 93.824 200.76C94.0749 197.699 94.327 194.638 94.5797 191.578C95.0326 186.092 95.484 180.606 95.934 175.12C96.0919 173.195 96.2505 171.271 96.4098 169.346C96.5087 168.15 96.607 166.955 96.7051 165.759C96.7508 165.204 96.7966 164.65 96.8428 164.096C96.9057 163.339 96.9678 162.582 97.0297 161.825C97.0646 161.402 97.0996 160.979 97.1356 160.542C97.1723 159.994 97.1723 159.994 97.2097 159.434C97.233 159.123 97.2564 158.812 97.2805 158.491C97.2836 157.614 97.2836 157.614 96.2571 156.896C96.0715 156.754 95.8859 156.612 95.6948 156.466C94.0067 155.107 93.7648 153.003 93.4839 150.972C93.4839 150.525 93.4839 150.078 93.4839 149.618C93.1416 149.653 92.7993 149.687 92.4466 149.723C90.075 149.711 87.8867 148.738 85.6936 147.925C85.4059 147.822 85.1182 147.718 84.8218 147.612C83.9026 147.28 82.9879 146.938 82.0736 146.592C81.7818 146.487 81.4901 146.382 81.1894 146.273C79.4111 145.581 78.3975 144.998 77.5645 143.186C77.4084 142.123 77.4084 142.123 77.4375 141.07C77.4419 140.72 77.4462 140.369 77.4507 140.007C77.5645 139.124 77.5645 139.124 78.2419 138.447C78.9406 138.366 78.9406 138.366 79.8113 138.37C80.1367 138.37 80.4622 138.37 80.7975 138.37C81.1496 138.374 81.5018 138.377 81.8645 138.381C82.2245 138.382 82.5844 138.383 82.9552 138.384C84.1079 138.388 85.2606 138.396 86.4133 138.405C87.1935 138.408 87.9737 138.411 88.7539 138.414C90.6693 138.421 92.5846 138.433 94.5 138.447C94.4368 138.001 94.4368 138.001 94.3724 137.545C93.9083 134.18 93.553 130.812 93.2378 127.43C93.1857 126.878 93.1335 126.326 93.0812 125.774C92.973 124.629 92.8655 123.485 92.7585 122.34C92.6213 120.873 92.4828 119.406 92.3439 117.938C92.2366 116.804 92.1298 115.67 92.0232 114.536C91.9722 113.994 91.9212 113.453 91.87 112.911C91.799 112.159 91.7287 111.407 91.6585 110.654C91.6184 110.227 91.5784 109.799 91.5371 109.359C91.4516 108.32 91.4516 108.32 91.4516 107.305C91.014 107.308 90.5763 107.312 90.1254 107.315C88.5057 107.328 86.886 107.335 85.2662 107.342C84.5644 107.345 83.8626 107.35 83.1608 107.356C82.1536 107.364 81.1465 107.368 80.1392 107.371C79.8242 107.374 79.5091 107.378 79.1844 107.381C78.7471 107.381 78.7471 107.381 78.301 107.381C77.9151 107.384 77.9151 107.384 77.5215 107.386C76.8871 107.305 76.8871 107.305 76.2097 106.628C76.076 105.917 76.076 105.917 76.0073 105.037C75.9806 104.714 75.9539 104.39 75.9264 104.057C75.9011 103.712 75.8758 103.366 75.8498 103.01C75.8219 102.658 75.794 102.305 75.7653 101.942C75.6845 100.909 75.608 99.8756 75.5323 98.8419C75.4931 98.3372 75.4539 97.8326 75.4145 97.3279C75.0042 91.7436 75.0042 91.7436 75.1936 90.0408C75.871 89.3638 75.871 89.3638 77.2227 89.2869C77.8068 89.287 78.3909 89.2909 78.9749 89.2977C79.4359 89.2991 79.4359 89.2991 79.9061 89.3006C80.8897 89.3044 81.8733 89.3129 82.8569 89.3215C83.5228 89.3249 84.1888 89.3279 84.8547 89.3307C86.4892 89.3382 88.1236 89.3499 89.7581 89.3638C89.7581 88.5818 89.7581 87.7999 89.7581 86.9942C89.3679 87.0489 88.9777 87.1036 88.5757 87.1599C87.1418 87.3384 85.7322 87.3873 84.2884 87.3896C84.0383 87.3907 83.7881 87.3919 83.5303 87.393C83.0072 87.3947 82.4841 87.3955 81.961 87.3955C81.1583 87.3962 80.3558 87.4024 79.5531 87.4088C79.0429 87.4098 78.5326 87.4104 78.0223 87.4108C77.7824 87.4132 77.5425 87.4156 77.2953 87.4181C75.6098 87.4102 75.6098 87.4102 74.8548 86.6557C74.7238 85.7931 74.6319 84.9586 74.5664 84.0905C74.5448 83.8322 74.5232 83.5739 74.501 83.3078C74.4557 82.7582 74.412 82.2084 74.3696 81.6585C74.3058 80.8336 74.2367 80.0092 74.1668 79.1848C74.0373 77.6141 73.9286 76.043 73.8387 74.4696C73.825 74.2307 73.8113 73.9919 73.7972 73.7459C73.7641 73.0866 73.7441 72.4267 73.7249 71.7668C73.7077 71.2106 73.7077 71.2106 73.69 70.6432C73.8387 69.7305 73.8387 69.7305 74.342 69.1748C75.5732 68.51 76.7625 68.5662 78.128 68.5686C78.4247 68.5652 78.7213 68.5617 79.027 68.5582C80.0134 68.5479 80.9998 68.5448 81.9863 68.5418C82.6825 68.536 83.3788 68.5299 84.075 68.5233C85.9199 68.5072 87.7647 68.4972 89.6096 68.4883C91.4351 68.4784 93.2606 68.4625 95.0861 68.4472C103.584 68.3792 112.082 68.3608 120.581 68.3765C120.602 68.1226 120.624 67.8687 120.647 67.6071C120.676 67.2731 120.705 66.9391 120.735 66.5949C120.764 66.2642 120.793 65.9335 120.822 65.5928C121.53 58.7382 125.494 51.7732 130.742 47.3892C137.088 43.0525 145.205 41.1495 152.82 40.8743C153.196 40.8562 153.572 40.8382 153.959 40.8196C154.711 40.7853 155.463 40.7631 156.215 40.7544C158.235 40.6586 158.235 40.6586 159.932 39.6569C160.558 38.8786 161.071 38.1017 161.565 37.234C161.753 36.91 161.753 36.91 161.945 36.5794C164.458 31.9705 164.458 31.9705 165.184 27.0088C164.948 26.3412 164.948 26.3412 164.444 25.5556C163.404 23.8244 163.389 21.9432 163.597 19.9703C164.034 18.4432 164.467 17.254 165.806 16.3406C166.993 15.25 167.052 14.217 167.301 12.6712C168.055 8.77883 169.493 5.50412 172.742 3.04501C175.903 1.23737 178.905 0.563249 182.501 0.675475C183.068 0.692753 183.634 0.70699 184.201 0.717788C184.572 0.72957 184.572 0.72957 184.95 0.741589C186.336 0.603334 186.81 -0.296537 188.323 -0.00153481ZM172.065 6.43006C170.626 8.37286 169.966 10.5501 169.355 12.8617C170.392 12.8131 171.429 12.7636 172.467 12.7136C172.753 12.7002 173.039 12.6869 173.334 12.6732C174.968 12.5937 176.596 12.4861 178.226 12.3473C180.772 12.1475 183.314 12.1039 185.867 12.1C186.221 12.0988 186.221 12.0988 186.583 12.0976C190.185 12.0931 193.621 12.3132 197.129 13.2002C196.712 10.2636 194.473 7.91486 192.275 6.05453C186.389 1.88658 177.466 0.71525 172.065 6.43006ZM177.484 14.2157C178.325 15.8973 181.852 16.6737 183.581 17.2622C185.781 17.8994 188.028 18.3447 190.27 18.8066C191.466 19.0609 192.66 19.3193 193.854 19.5789C194.286 19.6721 194.286 19.6721 194.725 19.7672C197.231 20.3157 199.694 20.9778 202.133 21.7726C203.908 22.3308 205.428 22.4113 207.29 22.3398C205.656 18.7839 200.579 16.6745 197.129 15.2312C193.551 13.9488 189.975 13.8189 186.206 13.8349C185.833 13.8355 185.46 13.8362 185.076 13.8368C182.531 13.8504 180.015 13.934 177.484 14.2157ZM167.047 17.7911C165.905 19.0634 165.673 20.1517 165.523 21.832C165.678 23.5615 166.185 24.6002 167.428 25.8095C168.388 26.4342 169.271 26.7721 170.371 27.0789C170.259 27.414 170.147 27.7491 170.032 28.0944C169.25 28.0944 168.467 28.0944 167.661 28.0944C167.587 28.2798 167.513 28.4653 167.436 28.6563C167.203 29.2394 166.969 29.822 166.734 30.4044C166.432 31.1643 166.137 31.9272 165.847 32.692C164.395 36.5013 162.914 40.1672 159.532 42.6501C159.963 45.4798 161.944 47.3135 164.081 49.0883C166.724 51.0251 170.323 53.3266 173.758 52.8052C175.66 51.7532 176.279 49.9507 177.103 48.045C177.314 47.5826 177.314 47.5826 177.529 47.1108C178.379 45.4346 178.379 45.4346 178.161 43.6656C177.532 43.1182 177.532 43.1182 176.764 42.5866C173.039 39.774 173.039 39.774 172.509 37.6598C172.457 37.2815 172.457 37.2815 172.403 36.8955C173.074 36.7279 173.074 36.7279 173.758 36.557C173.925 36.8031 173.925 36.8031 174.095 37.0542C175.788 39.4375 178.258 41.0446 179.516 41.2961C185.878 42.5676 187.306 38.7573 185.676 42.2058C190.495 38.0371 192.554 30.3249 194.475 24.5093C194.769 23.6615 195.096 22.8318 195.436 22.0013C194.262 21.4964 193.159 21.1741 191.903 20.9474C191.552 20.8818 191.201 20.8162 190.839 20.7486C190.47 20.6802 190.1 20.6119 189.72 20.5415C186.755 19.9779 183.957 19.2989 181.14 18.2169C180.145 17.9249 179.762 17.8269 178.839 18.2777C178.136 18.9559 178.136 18.9559 177.484 19.7798C176.019 21.5608 176.019 21.5608 174.774 22.0013C173.673 21.8743 173.673 21.8743 172.742 21.6628C172.684 21.4546 172.627 21.2465 172.567 21.0321C172.081 19.3642 172.081 19.3642 171.133 17.9392C169.636 17.2743 168.521 16.973 167.047 17.7911ZM231.339 22.6783C230.663 23.7104 230.082 24.7763 229.518 25.8729C229.36 26.1802 229.201 26.4874 229.038 26.8039C222.654 39.5568 220.398 53.978 219.145 68.038C218.698 67.9263 218.251 67.8146 217.79 67.6995C217.679 66.1356 217.567 64.5717 217.452 62.9604C215.999 62.2901 214.546 61.6199 213.048 60.9294C212.991 61.4246 212.933 61.9199 212.874 62.4302C212.379 66.5201 211.731 70.4859 210.677 74.4696C214.257 74.2954 217.751 73.7525 221.282 73.1675C222.227 73.0113 223.172 72.8586 224.117 72.7063C228.131 72.0525 232.109 71.281 236.081 70.4075C238.308 62.815 237.53 54.273 237.15 46.465C237.116 45.7586 237.085 45.0519 237.058 44.3451C237.021 43.4543 236.967 42.5664 236.906 41.6769C236.898 41.4197 236.89 41.1626 236.881 40.8977C236.839 40.074 236.839 40.074 236.419 38.9265C235.766 38.3969 235.1 38.0149 234.359 37.6185C233.466 37.0897 233.131 36.5004 232.715 35.5626C232.585 35.2707 232.455 34.9788 232.32 34.678C231.972 33.7292 231.757 32.8264 231.677 31.8179C232.236 31.8179 232.795 31.8179 233.371 31.8179C233.429 32.0182 233.486 32.2185 233.546 32.4249C234.042 34.0413 234.481 35.3685 235.742 36.557C236.799 37.0132 236.799 37.0132 237.774 37.234C237.705 37.0093 237.635 36.7846 237.564 36.553C237.473 36.2541 237.381 35.9552 237.287 35.6473C237.197 35.3527 237.107 35.0582 237.013 34.7547C236.609 33.3217 236.377 32.001 236.386 30.5102C236.388 30.0602 236.388 30.0602 236.39 29.6011C236.394 29.138 236.394 29.138 236.398 28.6656C236.4 28.3503 236.401 28.0351 236.403 27.7103C236.407 26.9356 236.412 26.161 236.419 25.3863C236.866 25.3863 237.314 25.3863 237.774 25.3863C237.799 25.9564 237.799 25.9564 237.824 26.538C237.929 31.7013 237.929 31.7013 240.145 36.2185C240.369 36.2185 240.592 36.2185 240.823 36.2185C241.187 34.3755 241.27 32.5471 241.352 30.6755C241.374 30.2049 241.374 30.2049 241.396 29.7248C241.432 28.9557 241.466 28.1865 241.5 27.4174C241.947 27.3057 242.394 27.194 242.855 27.0789C243.235 29.9853 243.16 32.5706 242.655 35.4501C242.454 36.7996 242.403 37.6054 243.176 38.7692C243.406 39.0445 243.635 39.3199 243.871 39.6035C245.021 38.7157 245.302 37.5894 245.565 36.2185C245.689 34.8728 245.736 33.5282 245.776 32.1776C245.789 31.8169 245.802 31.4563 245.816 31.0847C245.848 30.2008 245.877 29.3169 245.903 28.4329C246.35 28.4329 246.797 28.4329 247.258 28.4329C247.593 30.6112 247.593 30.6112 247.936 32.8334C249.303 31.6971 249.303 31.6971 249.482 30.7257C249.477 27.5878 248.339 25.3873 246.2 23.1226C243.72 20.7895 240.913 18.8183 237.457 18.4893C234.602 18.5869 232.976 20.5783 231.339 22.6783ZM129.726 51.4512C129.516 51.6506 129.306 51.85 129.089 52.0555C119.898 61.4054 120.926 79.9191 120.581 92.0718C122.452 91.9336 124.298 91.7559 126.144 91.416C132.789 90.2028 139.225 90.138 145.984 90.0408C146.207 82.333 146.431 74.6253 146.661 66.6839C147.22 66.5722 147.779 66.4605 148.355 66.3454C148.274 69.6498 148.192 72.9541 148.107 76.2584C148.068 77.7926 148.03 79.3267 147.992 80.8609C147.957 82.3403 147.919 83.8196 147.88 85.2988C147.866 85.8645 147.852 86.4301 147.839 86.9958C147.82 87.7854 147.799 88.5748 147.778 89.3644C147.773 89.6005 147.768 89.8367 147.763 90.08C147.716 91.6947 147.716 91.6947 147.339 92.0718C146.333 92.1835 145.327 92.2952 144.29 92.4103C144.29 95.4264 144.29 98.4425 144.29 101.55C147.19 101.905 150.091 102.259 152.991 102.609C154.339 102.772 155.686 102.936 157.033 103.101C158.335 103.261 159.637 103.419 160.94 103.575C161.434 103.635 161.929 103.695 162.423 103.756C167.483 104.488 167.483 104.488 172.459 103.689C172.818 103.57 173.177 103.451 173.546 103.328C173.91 103.202 174.273 103.076 174.647 102.946C181.143 100.754 181.143 100.754 184.766 100.831C185.045 100.834 185.323 100.837 185.61 100.84C186.289 100.848 186.967 100.86 187.645 100.873C188.895 96.5733 189.734 92.2153 190.567 87.8193C190.767 86.7635 190.968 85.7077 191.171 84.6523C191.296 84.0012 191.419 83.3498 191.542 82.6981C192.189 79.3195 192.189 79.3195 192.726 78.1931C193.564 77.858 193.564 77.858 194.419 77.5161C194.755 73.9415 195.09 70.3669 195.436 66.6839C195.883 66.7957 196.33 66.9074 196.79 67.0224C196.679 70.2619 196.567 73.5014 196.452 76.8391C200.55 76.258 200.55 76.258 204.644 75.6543C204.921 75.6146 205.198 75.5749 205.484 75.534C205.749 75.4934 206.015 75.4528 206.289 75.411C206.523 75.3763 206.757 75.3416 206.998 75.3059C207.736 75.1568 207.736 75.1568 208.645 74.4696C208.928 73.8748 208.928 73.8748 209.091 73.175C209.196 72.7819 209.196 72.7819 209.303 72.3808C209.407 71.9591 209.407 71.9591 209.513 71.5288C209.586 71.2406 209.66 70.9525 209.735 70.6556C210.362 68.1045 210.774 65.5784 211.016 62.9604C211.082 62.4996 211.082 62.4996 211.15 62.0295C211.271 61.138 211.271 61.138 211.016 59.9138C210.537 59.4594 210.537 59.4594 209.888 59.1165C209.641 58.9732 209.394 58.8298 209.14 58.6821C208.865 58.5301 208.59 58.378 208.306 58.2213C208.016 58.0588 207.725 57.8962 207.425 57.7288C206.445 57.1879 205.461 56.6561 204.475 56.1268C204.116 55.934 203.758 55.7412 203.388 55.5426C202.66 55.1516 201.931 54.761 201.202 54.3708C200.296 53.8843 199.392 53.3933 198.489 52.9004C189.764 47.7702 189.764 47.7702 180.194 45.3581C180.1 45.5766 180.006 45.7951 179.91 46.0203C179.48 47.0147 179.043 48.0058 178.606 48.9971C178.459 49.3409 178.311 49.6848 178.159 50.039C176.747 53.2166 176.747 53.2166 175.113 54.1593C171.892 55.2324 168.688 53.7162 165.798 52.2763C162.014 50.111 159.082 47.0609 157.5 42.9886C147.862 42.6477 136.699 44.1713 129.726 51.4512ZM93.8226 86.9942C93.8226 87.7762 93.8226 88.5581 93.8226 89.3638C102.094 89.2521 110.365 89.1404 118.887 89.0253C118.887 88.355 118.887 87.6848 118.887 86.9942C110.616 86.9942 102.345 86.9942 93.8226 86.9942ZM226.505 103.075C225.195 103.792 223.881 104.498 222.567 105.206C219.243 106.996 215.941 108.821 212.659 110.686C210.166 112.101 207.661 113.492 205.152 114.879C202.412 116.393 199.687 117.93 196.981 119.504C195.53 120.346 194.074 121.178 192.617 122.01C191.861 122.45 191.118 122.903 190.379 123.37C187.643 124.977 185.422 125.007 182.338 124.984C178.278 125.072 174.829 126.858 171.248 128.632C170.324 128.987 169.658 129.036 168.677 128.969C168.677 128.634 168.677 128.299 168.677 127.953C170.466 127.171 172.254 126.389 174.097 125.584C172.873 124.768 172.169 124.776 170.71 124.695C170.291 124.67 169.871 124.645 169.44 124.619C168.96 124.601 168.48 124.584 168 124.568C167.713 124.553 167.425 124.538 167.129 124.522C164.747 124.444 162.826 124.872 160.591 125.668C160.246 125.787 159.901 125.906 159.545 126.029C155.467 127.466 151.489 129.154 147.509 130.839C145.672 131.612 143.828 132.364 141.983 133.116C141.374 133.364 140.765 133.613 140.156 133.861C139.727 134.036 139.299 134.21 138.871 134.385C139.437 138.905 141.856 143.053 144.629 146.571C144.866 146.874 145.102 147.176 145.346 147.487C150.512 153.643 158.526 156.514 166.306 157.403C167.966 157.499 169.619 157.517 171.281 157.509C171.728 157.507 172.174 157.505 172.635 157.503C176.04 157.461 179.261 157.222 182.565 156.388C182.832 156.321 183.1 156.253 183.375 156.184C196.429 152.789 207.203 144.331 217.949 136.518C221.389 134.019 224.887 131.611 228.413 129.234C229.247 128.671 230.078 128.104 230.909 127.537C241.944 120.039 241.944 120.039 247.045 118.773C247.307 118.705 247.569 118.638 247.839 118.568C248.358 118.438 248.881 118.319 249.406 118.213C250.231 118.036 250.231 118.036 251.323 117.46C251.768 116.532 251.863 115.79 252 114.752C252.335 114.752 252.671 114.752 253.016 114.752C253.128 115.645 253.24 116.539 253.355 117.46C253.821 117.546 253.821 117.546 254.297 117.634C257.626 118.291 260.226 118.89 262.5 121.522C262.655 121.697 262.811 121.873 262.971 122.053C265.89 125.6 268.084 130.711 267.862 135.329C267.664 140.93 269.873 144.479 272.992 148.968C273.75 150.06 274.471 151.171 275.185 152.292C275.617 152.968 276.054 153.64 276.494 154.312C278.184 156.901 279.821 159.525 281.468 162.142C283.362 160.983 285.206 159.789 286.972 158.44C291.862 154.719 296.994 151.298 302.129 147.925C301.929 146.615 301.539 145.652 300.887 144.502C300.698 144.167 300.51 143.833 300.316 143.489C300.111 143.131 299.906 142.772 299.695 142.403C299.481 142.027 299.267 141.65 299.047 141.262C296.834 137.37 294.581 133.502 292.306 129.646C292.048 129.207 291.79 128.767 291.531 128.328C288.652 123.434 285.776 118.55 282.64 113.814C281.826 112.572 281.031 111.316 280.234 110.063C278.137 106.771 276.02 103.494 273.868 100.238C273.656 99.9149 273.444 99.5915 273.226 99.2583C270.25 94.7833 267.042 90.1929 261.484 89.0253C249.599 87.8301 236.588 97.5247 226.505 103.075ZM135.082 91.966C134.735 91.9961 134.388 92.0262 134.03 92.0572C127.989 92.4276 127.989 92.4276 122.274 94.1028C122.257 96.3004 122.245 98.498 122.237 100.696C122.234 101.442 122.229 102.188 122.223 102.934C122.215 104.012 122.211 105.091 122.208 106.169C122.205 106.497 122.201 106.826 122.197 107.165C122.197 110.514 122.407 113.797 124.645 116.444C129.01 120.71 137.603 119.96 143.178 119.902C150.155 119.793 157.625 118.998 164.274 116.783C164.782 116.751 165.29 116.739 165.798 116.74C166.06 116.739 166.322 116.739 166.592 116.738C167.323 116.783 167.323 116.783 168.339 117.121C170.36 117.302 172.043 117.302 173.758 116.106C174.761 115.109 175.576 114.028 176.129 112.721C178.614 112.851 180.663 114.375 182.543 115.894C183.227 116.549 183.227 116.549 184.258 116.444C184.633 115.266 184.822 114.284 184.597 113.059C183.707 112.2 182.798 111.612 181.731 110.99C180.871 110.351 180.871 110.351 180.583 109.427C180.566 109.173 180.549 108.92 180.532 108.659C182.216 109.256 183.728 110.146 185.274 111.028C185.344 110.595 185.414 110.162 185.486 109.716C185.525 109.473 185.564 109.229 185.605 108.979C185.608 108.761 185.61 108.544 185.613 108.32C184.677 107.385 183.849 107.447 182.565 107.305C182.676 106.858 182.788 106.411 182.903 105.951C184.096 105.923 185.145 105.937 186.29 106.289C186.694 104.977 186.968 103.948 186.968 102.565C184.938 101.551 182.26 102.366 180.194 102.946C179.778 103.058 179.778 103.058 179.354 103.171C177.97 103.553 176.617 103.974 175.276 104.484C175.03 104.577 174.785 104.669 174.533 104.765C174.081 104.94 173.631 105.123 173.186 105.314C169.494 106.764 165.084 105.885 161.266 105.394C160.795 105.335 160.324 105.277 159.854 105.219C158.874 105.098 157.894 104.974 156.915 104.849C155.681 104.692 154.446 104.538 153.212 104.385C147.969 103.735 142.735 103.052 137.516 102.227C137.516 101.78 137.516 101.333 137.516 100.873C138.969 100.873 140.422 100.873 141.919 100.873C142.207 99.7228 142.298 98.9199 142.291 97.7576C142.29 97.426 142.289 97.0944 142.288 96.7527C142.285 96.4089 142.282 96.065 142.279 95.7107C142.278 95.3617 142.276 95.0126 142.275 94.6529C142.271 93.7925 142.265 92.9322 142.258 92.0718C139.821 91.742 137.528 91.7437 135.082 91.966ZM220.5 93.0873C219.672 94.3286 219.541 95.3683 219.823 96.8109C220.49 97.7339 220.49 97.7339 221.516 98.1649C222.569 98.2763 222.569 98.2763 223.548 97.8264C224.459 96.7961 224.86 96.1018 225.051 94.7375C224.884 93.6355 224.702 93.1685 223.887 92.4103C222.434 91.8369 221.715 92.1685 220.5 93.0873ZM95.1774 107.305C95.1774 109.258 95.2076 111.125 95.3897 113.057C95.4123 113.309 95.4349 113.56 95.4581 113.819C95.5321 114.639 95.6081 115.459 95.6842 116.279C95.7366 116.854 95.789 117.429 95.8412 118.004C95.9506 119.205 96.0608 120.405 96.1718 121.605C96.3137 123.141 96.4538 124.676 96.5932 126.212C96.701 127.397 96.8095 128.583 96.9184 129.769C96.9703 130.335 97.022 130.901 97.0735 131.467C97.1457 132.259 97.2188 133.05 97.2923 133.841C97.3133 134.073 97.3342 134.304 97.3558 134.543C97.4796 135.863 97.6683 137.135 97.8871 138.447C111.076 138.447 124.266 138.447 137.855 138.447C137.52 137.442 137.184 136.436 136.839 135.4C136.053 135.158 135.263 134.932 134.468 134.723C131.89 131.117 131.558 125.493 131.081 121.183C130.9 121.126 130.719 121.068 130.533 121.009C124.516 119.053 124.516 119.053 122.952 117.121C122.714 116.842 122.477 116.563 122.232 116.275C120.747 113.506 120.55 110.387 120.242 107.305C111.971 107.305 103.699 107.305 95.1774 107.305ZM176.806 114.752C176.674 115.003 176.541 115.254 176.404 115.513C175.737 116.525 175.071 117.086 174.097 117.798C173.65 118.133 173.203 118.468 172.742 118.814C176.207 118.814 179.672 118.814 183.242 118.814C182.683 118.367 182.124 117.92 181.548 117.46C181.293 117.249 181.038 117.038 180.776 116.821C180.528 116.62 180.28 116.419 180.024 116.211C179.776 116.008 179.528 115.804 179.273 115.594C178.436 115.049 177.789 114.881 176.806 114.752ZM163.936 118.475C163.936 118.587 163.936 118.699 163.936 118.814C165.277 118.814 166.618 118.814 168 118.814C166.389 118.009 165.628 118.109 163.936 118.475ZM233.032 127.953C232.803 128.107 232.573 128.261 232.336 128.42C230.993 129.324 229.662 130.244 228.335 131.172C227.553 131.719 226.768 132.264 225.984 132.809C223.257 134.707 220.543 136.622 217.854 138.574C202.836 149.459 202.836 149.459 196.452 152.664C196.452 152.776 196.452 152.888 196.452 153.003C199.541 153.06 202.534 152.941 205.597 152.537C206.235 152.455 206.235 152.455 206.887 152.37C213.369 151.493 219.795 150.205 226.22 148.99C226.759 148.888 226.759 148.888 227.31 148.783C227.809 148.688 227.809 148.688 228.318 148.591C228.608 148.536 228.898 148.481 229.197 148.424C229.917 148.277 230.627 148.11 231.339 147.925C231.294 147.725 231.249 147.525 231.202 147.318C231.079 146.766 230.956 146.213 230.835 145.66C230.711 145.102 230.582 144.546 230.45 143.99C230.245 142.692 230.062 141.337 230.661 140.14C231.108 140.14 231.556 140.14 232.016 140.14C232.025 140.418 232.034 140.696 232.043 140.983C232.173 143.55 232.586 145.61 233.71 147.925C234.589 146.607 235.301 145.221 236.038 143.821C236.185 143.544 236.333 143.267 236.484 142.982C237.443 141.163 238.319 139.322 239.129 137.431C239.576 137.431 240.023 137.431 240.484 137.431C239.649 140.596 238.227 143.4 236.719 146.29C234.509 150.566 234.264 154.159 234.851 158.863C235.019 160.213 235.174 161.565 235.33 162.917C235.364 163.207 235.398 163.497 235.432 163.796C235.842 167.348 236.179 170.907 236.517 174.467C236.583 175.155 236.648 175.842 236.714 176.53C236.879 178.271 237.044 180.013 237.209 181.755C237.475 184.571 237.742 187.387 238.01 190.202C238.102 191.167 238.193 192.131 238.284 193.095C238.653 196.997 239.049 200.896 239.468 204.794C242.192 204.668 244.915 204.542 247.639 204.414C248.904 204.355 250.169 204.296 251.434 204.238C252.657 204.182 253.881 204.124 255.104 204.067C255.568 204.045 256.032 204.023 256.497 204.002C259.072 203.885 261.632 203.735 264.194 203.44C264.539 201.367 264.641 199.309 264.726 197.211C264.743 196.826 264.759 196.442 264.776 196.046C264.831 194.77 264.883 193.494 264.936 192.218C264.964 191.544 264.992 190.871 265.02 190.198C265.151 187.059 265.276 183.92 265.4 180.781C265.41 180.536 265.42 180.29 265.43 180.037C266.154 161.979 266.154 161.979 266.435 143.909C266.437 143.172 266.444 142.434 266.45 141.696C266.539 134.802 266.539 134.802 264.532 128.292C264.438 128.09 264.344 127.889 264.247 127.681C262.675 124.335 260.816 121.664 257.405 120.063C248.91 117.064 239.747 123.443 233.032 127.953ZM157.161 120.168C156.829 120.211 156.829 120.211 156.49 120.256C155.458 120.39 154.426 120.522 153.393 120.654C153.045 120.7 152.697 120.746 152.339 120.793C147.685 121.385 143.089 121.57 138.405 121.543C137.888 121.541 137.371 121.54 136.855 121.538C135.607 121.535 134.36 121.529 133.113 121.522C133.266 124.055 133.473 126.503 134.087 128.969C134.141 129.209 134.196 129.45 134.252 129.697C134.584 131.08 135.019 132.195 135.823 133.369C137.287 133.172 138.521 132.814 139.88 132.24C140.271 132.077 140.661 131.914 141.063 131.745C141.482 131.567 141.902 131.389 142.322 131.211C142.977 130.936 143.633 130.662 144.289 130.387C144.739 130.199 145.19 130.01 145.64 129.821C148.005 128.828 150.381 127.861 152.758 126.896C153.142 126.74 153.525 126.584 153.92 126.423C155.451 125.801 156.982 125.18 158.516 124.568C158.42 124.088 158.32 123.609 158.22 123.13C158.165 122.863 158.11 122.596 158.053 122.32C157.841 121.531 157.536 120.891 157.161 120.168ZM53.7702 148.835C53.5746 149.093 53.379 149.352 53.1774 149.618C53.0657 149.729 52.9539 149.841 52.8387 149.956C52.7412 150.947 52.6732 151.7 52.8387 152.664C53.8953 153.844 55.0372 154.336 56.5645 154.695C57.6141 154.428 57.6141 154.428 58.6179 153.912C63.6158 151.566 68.5705 152.88 73.5645 154.614C75.0337 155.154 76.4706 155.757 77.9032 156.388C78.3505 156.577 78.3505 156.577 78.8069 156.77C79.5544 157.107 79.5544 157.107 80.6129 157.742C80.8484 158.458 80.8484 158.458 80.9516 159.096C79.4638 158.912 78.3872 158.547 77.0776 157.826C74.7182 156.605 72.3072 155.806 69.7742 155.034C69.524 154.95 69.2738 154.865 69.0161 154.779C65.4137 153.676 61.6377 154.204 58.2581 155.711C56.718 156.531 55.4331 157.411 54.871 159.096C54.7008 161.171 54.8335 162.187 56.2258 163.835C59.7318 167.426 64.6874 167.778 69.4355 167.897C70.5404 167.9 71.645 167.889 72.7498 167.876C73.0476 167.872 73.3454 167.869 73.6523 167.866C73.9555 167.862 74.2587 167.858 74.571 167.855C75.1949 167.848 75.8187 167.841 76.4425 167.833C76.7516 167.83 77.0607 167.826 77.3792 167.822C82.6042 167.77 87.3976 168.237 92.4678 169.589C91.7254 165.631 89.8579 162.766 87.0868 159.859C86.371 159.096 86.371 159.096 85.7068 158.243C80.708 152.166 71.4742 147.462 63.6774 146.571C60.4216 146.319 56.2521 146.383 53.7702 148.835ZM267.919 149.618C267.905 150.182 267.906 150.746 267.919 151.31C268.287 151.755 268.287 151.755 269.18 151.682C269.554 151.678 269.927 151.674 270.312 151.67C270.686 151.667 271.06 151.664 271.445 151.661C271.735 151.657 272.024 151.653 272.323 151.649C271.954 150.549 271.954 150.549 271.306 149.618C270.735 149.593 270.163 149.589 269.592 149.597C269.28 149.6 268.969 149.603 268.648 149.606C268.408 149.61 268.167 149.614 267.919 149.618ZM300.711 150.972C300.381 151.194 300.381 151.194 300.044 151.421C294.762 154.997 289.543 158.664 284.39 162.424C283.876 162.793 283.349 163.145 282.823 163.496C283.354 165.516 284.432 167.162 285.532 168.912C287.317 168.359 288.658 167.232 290.126 166.12C292.43 164.398 294.752 162.709 297.112 161.063C297.53 160.77 297.53 160.77 297.957 160.471C299.316 159.523 300.682 158.59 302.067 157.68C302.321 157.511 302.575 157.342 302.836 157.169C303.312 156.854 303.791 156.542 304.273 156.235C304.98 155.781 304.98 155.781 305.855 155.034C305.855 153.473 305.497 152.89 304.712 151.564C304.5 151.199 304.287 150.834 304.069 150.459C303.876 150.181 303.683 149.904 303.484 149.618C302.381 149.618 301.597 150.369 300.711 150.972ZM142.121 149.631C141.733 149.633 141.344 149.636 140.944 149.639C140.302 149.644 140.302 149.644 139.646 149.649C139.192 149.652 138.738 149.655 138.284 149.659C137.05 149.668 135.816 149.677 134.581 149.686C133.292 149.696 132.003 149.705 130.713 149.714C128.271 149.732 125.829 149.75 123.387 149.768C120.606 149.789 117.826 149.809 115.046 149.83C109.327 149.872 103.607 149.914 97.8871 149.956C97.9989 150.626 98.1107 151.297 98.2258 151.987C103.137 151.939 108.048 151.89 112.96 151.839C113.32 151.835 113.68 151.832 114.051 151.828C124.697 151.717 135.341 151.586 145.984 151.31C145.55 150.732 145.097 150.168 144.629 149.618C143.793 149.618 142.957 149.624 142.121 149.631ZM227.274 150.464C227.012 150.512 226.749 150.561 226.479 150.611C225.84 150.729 225.202 150.85 224.565 150.972C224.565 151.083 224.565 151.195 224.565 151.31C227.359 151.31 230.153 151.31 233.032 151.31C233.032 150.863 233.032 150.417 233.032 149.956C231.041 149.902 229.227 150.088 227.274 150.464ZM3.04839 167.558C2.93162 168.572 2.93162 168.572 3.54587 169.096C3.88643 169.372 3.88643 169.372 4.23387 169.653C5.2166 170.472 6.12608 171.307 7.00706 172.234C11.6641 176.915 17.4484 180.47 24.1966 180.549C28.299 180.51 31.6697 179.658 34.7813 176.91C37.0013 174.391 38.152 172.254 38.0863 168.808C37.8362 167.297 37.0711 166.468 35.9032 165.527C31.0429 162.251 23.3387 163.817 17.9516 164.85C16.6067 165.155 15.2858 165.519 13.9638 165.911C12.8128 166.22 11.6818 166.396 10.5 166.543C10.5 166.096 10.5 165.649 10.5 165.189C17.5029 162.98 27.6873 159.869 34.7799 163.253C35.0668 163.41 35.3536 163.567 35.6492 163.729C37.3031 164.624 38.1524 164.687 39.9677 164.173C41.4035 163.405 41.4035 163.405 42.3387 162.142C42.506 160.694 42.4504 159.963 41.7036 158.694C39.5342 156.39 36.0922 156.064 33.1089 155.965C23.0972 156.077 10.1193 160.209 3.04839 167.558ZM99.2419 158.757C99.2125 159.133 99.1831 159.508 99.1528 159.894C96.6223 192.13 96.6223 192.13 95.368 205.534C95.336 205.876 95.336 205.876 95.3034 206.225C94.5758 214.008 94.5758 214.008 94.3068 216.167C94.1488 217.785 94.1613 219.417 94.1613 221.042C105.898 221.042 117.634 221.042 129.726 221.042C129.737 214.443 129.737 214.443 129.576 207.855C129.56 207.413 129.544 206.972 129.527 206.517C129.485 205.337 129.44 204.158 129.395 202.978C129.348 201.73 129.302 200.481 129.256 199.233C129.179 197.144 129.1 195.055 129.021 192.967C128.93 190.562 128.84 188.156 128.752 185.751C128.666 183.417 128.579 181.083 128.491 178.749C128.455 177.764 128.418 176.778 128.382 175.793C128.331 174.418 128.279 173.044 128.226 171.67C128.212 171.268 128.197 170.865 128.182 170.451C128.095 168.234 127.947 166.039 127.694 163.835C127.474 163.834 127.254 163.834 127.027 163.833C124.966 163.827 122.905 163.808 120.845 163.783C120.07 163.775 119.295 163.771 118.52 163.769C110.393 163.746 110.393 163.746 106.694 161.804C106.093 161.526 105.492 161.249 104.892 160.972C104.066 160.571 103.243 160.164 102.42 159.758C102.153 159.628 101.886 159.498 101.61 159.364C101.374 159.247 101.138 159.13 100.894 159.01C100.215 158.695 100.215 158.695 99.2419 158.757ZM129.726 163.835C129.939 171.279 130.164 178.719 130.456 186.16C130.484 186.862 130.511 187.565 130.538 188.267C130.623 190.449 130.709 192.631 130.795 194.814C130.883 197.052 130.97 199.29 131.057 201.528C131.132 203.474 131.208 205.42 131.284 207.366C131.33 208.518 131.375 209.67 131.419 210.823C131.468 212.097 131.519 213.371 131.57 214.645C131.584 215.02 131.598 215.395 131.612 215.781C131.626 216.129 131.641 216.477 131.655 216.835C131.667 217.135 131.679 217.434 131.691 217.743C131.771 218.848 131.94 219.945 132.097 221.042C133.997 221.042 135.897 221.042 137.855 221.042C138.261 220.311 138.261 220.311 138.675 219.565C144.335 209.428 150.324 199.681 160.019 192.925C160.256 192.759 160.493 192.593 160.737 192.423C161.072 192.194 161.072 192.194 161.415 191.961C161.615 191.825 161.815 191.688 162.022 191.547C162.581 191.254 162.581 191.254 163.597 191.254C163.405 192.458 163.102 193.347 162.479 194.393C162.317 194.668 162.156 194.943 161.99 195.226C161.815 195.521 161.639 195.816 161.459 196.12C158.332 201.502 155.447 206.941 152.991 212.664C152.826 213.045 152.661 213.426 152.491 213.819C152.343 214.173 152.195 214.526 152.042 214.891C151.91 215.205 151.778 215.519 151.642 215.842C151.308 216.681 151.308 216.681 151.742 217.657C151.89 217.443 152.039 217.23 152.192 217.009C157.018 210.206 163.174 203.654 171.048 200.393C171.496 200.393 171.943 200.393 172.403 200.393C172.205 201.62 171.876 202.566 171.285 203.657C171.124 203.96 170.962 204.262 170.795 204.574C170.533 205.06 170.533 205.06 170.265 205.556C168.688 208.528 167.161 211.52 165.693 214.547C165.512 214.914 165.331 215.282 165.145 215.66C164.981 216 164.817 216.34 164.649 216.691C164.429 217.143 164.429 217.143 164.206 217.604C164.117 217.845 164.027 218.086 163.936 218.334C164.047 218.558 164.159 218.781 164.274 219.011C164.582 218.688 164.89 218.364 165.207 218.031C168.074 215.067 171.026 212.525 174.436 210.21C174.798 209.953 175.161 209.696 175.535 209.431C176.468 208.856 176.468 208.856 177.484 208.856C177.362 210.919 176.369 212.213 175.219 213.849C174.848 214.39 174.478 214.931 174.109 215.473C173.931 215.732 173.753 215.991 173.57 216.258C171.857 218.481 171.857 218.481 171.048 221.042C194.074 221.042 217.099 221.042 240.823 221.042C242.246 216.283 242.246 216.283 242.177 213.934C241.937 213.913 241.696 213.893 241.448 213.871C241.137 213.843 240.826 213.815 240.505 213.786C240.039 213.744 240.039 213.744 239.564 213.702C238.79 213.595 238.79 213.595 238.452 213.257C238.347 212.463 238.263 211.675 238.191 210.878C238.168 210.627 238.144 210.377 238.119 210.118C238.04 209.278 237.963 208.437 237.885 207.596C237.83 207.002 237.774 206.409 237.718 205.815C237.569 204.219 237.421 202.622 237.273 201.025C237.151 199.709 237.028 198.392 236.905 197.076C236.324 190.856 235.751 184.635 235.198 178.413C235.178 178.188 235.158 177.963 235.138 177.731C234.937 175.473 234.738 173.216 234.543 170.958C234.495 170.414 234.495 170.414 234.447 169.86C234.389 169.198 234.332 168.536 234.276 167.875C234.251 167.587 234.225 167.299 234.199 167.003C234.178 166.757 234.157 166.511 234.135 166.257C234.038 165.443 233.871 164.639 233.71 163.835C199.395 163.835 165.08 163.835 129.726 163.835ZM267.919 163.835C267.712 165.079 267.537 166.152 267.489 167.384C267.471 167.813 267.471 167.813 267.453 168.25C267.441 168.558 267.43 168.865 267.418 169.182C267.405 169.511 267.391 169.84 267.378 170.179C267.334 171.268 267.293 172.357 267.251 173.447C267.221 174.214 267.191 174.981 267.162 175.748C267.099 177.362 267.037 178.977 266.976 180.591C266.914 182.225 266.851 183.859 266.786 185.492C266.427 194.525 266.11 203.539 266.226 212.58C264.661 212.691 263.096 212.803 261.484 212.918C261.519 213.33 261.554 213.742 261.59 214.166C261.609 214.398 261.629 214.63 261.649 214.868C262.212 217.328 264.146 218.491 266.151 219.763C268.644 221.154 270.745 221.258 273.56 221.152C273.964 221.144 274.368 221.136 274.784 221.128C275.771 221.107 276.756 221.079 277.742 221.042C276.784 207.822 275.763 194.607 274.701 181.395C274.609 180.25 274.517 179.104 274.426 177.958C274.281 176.141 274.135 174.323 273.988 172.505C273.933 171.828 273.879 171.151 273.825 170.473C273.751 169.543 273.675 168.612 273.599 167.682C273.578 167.408 273.556 167.134 273.534 166.851C273.446 165.786 273.34 164.853 273 163.835C271.323 163.835 269.647 163.835 267.919 163.835ZM53.8548 177.714C53.1995 178.746 53.1774 179.134 53.1774 180.422C53.4813 180.512 53.7852 180.603 54.0983 180.697C59.793 182.484 65.1775 185.111 69.6472 189.117C69.8239 189.274 70.0006 189.431 70.1827 189.593C71.0744 190.422 71.6842 191.027 71.8065 192.269C70.4812 192.074 69.7775 191.441 68.7792 190.577C63.5549 186.225 57.0409 181.793 49.9438 182.016C48.8025 182.151 48.013 182.461 47.0806 183.13C46.2008 184.588 46.133 185.87 46.4032 187.53C47.8904 191.983 51.1527 194.886 55.1229 197.136C56.8692 198.006 58.665 198.517 60.5444 199.018C61.35 199.246 62.1553 199.476 62.9603 199.706C63.3625 199.82 63.7648 199.934 64.1792 200.051C69.5089 201.583 74.4653 203.344 79.2581 206.148C79.7054 206.404 80.1531 206.66 80.601 206.915C81.1099 207.206 81.1099 207.206 81.629 207.502C83.5685 200.757 80.384 192.062 77.1835 186.176C74.4209 181.597 70.0658 177.256 64.814 175.767C61.1324 174.973 56.7966 175.046 53.8548 177.714ZM46.7419 192.608C46.737 192.844 46.7321 193.08 46.727 193.324C46.5744 200.049 46.1963 206.748 45.7314 213.458C45.7088 213.786 45.6863 214.114 45.6632 214.452C45.6207 215.067 45.5775 215.683 45.5334 216.298C45.4235 217.884 45.3658 219.452 45.3871 221.042C46.0577 220.875 46.0577 220.875 46.7419 220.704C46.7917 220.297 46.8415 219.891 46.8928 219.473C47.7946 212.582 49.6947 206.604 52.8367 200.408C53.2206 199.629 53.5541 198.839 53.8548 198.024C53.6496 197.917 53.4444 197.809 53.233 197.699C51.0662 196.493 49.4375 195.076 47.7356 193.277C47.5195 193.056 47.3033 192.835 47.0806 192.608C46.9689 192.608 46.8571 192.608 46.7419 192.608ZM158.855 195.993C151.014 202.481 144.495 211.072 140.226 220.365C140.226 220.589 140.226 220.812 140.226 221.042C142.797 221.042 145.367 221.042 148.016 221.042C148.255 220.399 148.493 219.755 148.739 219.092C150.5 214.386 152.36 209.759 154.557 205.238C154.748 204.845 154.938 204.453 155.134 204.048C156.25 201.785 157.458 199.612 158.788 197.466C158.922 197.203 159.056 196.941 159.194 196.67C159.026 196.335 159.026 196.335 158.855 195.993ZM166.179 205.238C165.969 205.389 165.758 205.54 165.54 205.696C163.385 207.271 161.446 209.028 159.532 210.887C159.346 211.064 159.16 211.242 158.968 211.425C157.452 212.896 156.148 214.471 154.875 216.155C154.589 216.525 154.589 216.525 154.297 216.903C153.253 218.273 152.531 219.465 151.742 221.042C154.648 221.042 157.554 221.042 160.548 221.042C162.806 216.857 164.88 212.637 166.833 208.302C167.523 206.773 168.254 205.272 169.016 203.778C167.882 203.778 167.073 204.597 166.179 205.238ZM256.18 205.693C255.706 205.716 255.232 205.739 254.757 205.761C253.52 205.821 252.282 205.881 251.044 205.942C249.777 206.004 248.51 206.064 247.243 206.126C244.764 206.245 242.285 206.365 239.806 206.486C239.28 207.538 239.608 208.43 239.785 209.575C239.851 210.009 239.917 210.443 239.985 210.89C240.038 211.224 240.091 211.558 240.145 211.903C245.055 211.997 249.934 211.84 254.837 211.585C255.27 211.563 255.27 211.563 255.713 211.541C256.553 211.497 257.392 211.452 258.232 211.407C258.605 211.387 258.605 211.387 258.985 211.367C260.73 211.269 262.458 211.091 264.194 210.887C264.194 209.1 264.194 207.312 264.194 205.471C261.516 205.44 258.853 205.561 256.18 205.693ZM42.6351 207.735C41.824 208.668 41.3565 209.226 41.2194 210.465C41.2916 211.175 41.3837 211.883 41.4906 212.589C41.7483 214.307 41.6976 216.03 41.6825 217.763C41.6809 218.085 41.6794 218.406 41.6778 218.738C41.6739 219.506 41.6684 220.274 41.6613 221.042C42.2202 221.042 42.779 221.042 43.3548 221.042C43.5019 219.568 43.6465 218.093 43.789 216.619C43.8376 216.119 43.8869 215.619 43.9368 215.119C44.2243 212.237 44.4551 209.387 44.371 206.486C43.6559 206.486 43.1077 207.276 42.6351 207.735ZM39.2903 211.226C39.1403 211.367 38.9904 211.508 38.8358 211.654C38.141 212.309 37.4455 212.962 36.75 213.616C36.5142 213.839 36.2785 214.061 36.0355 214.29C35.7998 214.511 35.564 214.733 35.3211 214.961C34.9628 215.298 34.9628 215.298 34.5973 215.641C33.6891 216.469 32.7441 217.249 31.7851 218.017C30.9224 218.871 30.9224 218.871 29.8065 221.042C33.1597 221.042 36.5129 221.042 39.9677 221.042C39.9817 219.611 39.9957 218.18 40.0101 216.705C40.0163 216.255 40.0224 215.805 40.0288 215.341C40.0305 214.986 40.0322 214.631 40.0339 214.265C40.0374 213.902 40.041 213.539 40.0447 213.164C40.0366 212.167 40.0366 212.167 39.2903 211.226ZM169.609 216.155C169.311 216.432 169.311 216.432 169.007 216.715C167.67 217.974 166.42 219.252 165.29 220.704C165.29 220.815 165.29 220.927 165.29 221.042C166.55 221.452 167.431 221.524 168.677 221.042C170.338 219.174 171.615 216.634 172.403 214.272C171.208 214.272 170.443 215.371 169.609 216.155Z" fill="white"/>
<path d="M184.6 22.6816C185.047 22.7933 185.494 22.9051 185.954 23.0201C185.843 24.0255 185.731 25.0309 185.616 26.0667C185.169 26.0667 184.722 26.0667 184.261 26.0667C183.869 24.6943 183.977 23.9618 184.6 22.6816Z" fill="white"/>
<path d="M189.68 25.3887C190.127 25.6121 190.574 25.8355 191.035 26.0657C191.005 26.983 190.969 27.8992 190.929 28.816C190.918 29.2022 190.918 29.2022 190.906 29.5962C190.814 31.5245 190.376 32.9024 189.214 34.486C188.435 35.0255 187.896 34.9854 186.97 34.8668C186.747 34.6434 186.523 34.42 186.293 34.1898C186.335 33.5128 186.335 33.5128 186.632 32.8358C186.853 32.7385 187.074 32.6412 187.302 32.5409C188.034 32.2234 188.034 32.2234 188.255 31.5333C188.299 31.2859 188.343 31.0385 188.389 30.7836C188.439 30.5139 188.489 30.2443 188.541 29.9664C188.698 28.8774 188.809 27.7886 188.886 26.6911C189.003 26.0657 189.003 26.0657 189.68 25.3887Z" fill="white"/>
<path d="M181.212 34.5273C182.727 34.7004 183.442 35.2608 184.599 36.2199C185.269 36.5734 185.945 36.9162 186.632 37.2354C186.52 37.6822 186.408 38.129 186.293 38.5894C184.111 38.415 182.929 37.7014 181.233 36.3891C180.873 35.8814 180.873 35.8814 180.979 35.1409C181.056 34.9384 181.133 34.7359 181.212 34.5273Z" fill="white"/>
<path d="M62.3208 42.3125C63.1464 42.5664 63.1464 42.5664 64.0144 42.9895C64.3531 43.6454 64.3531 43.6454 64.3531 44.3435C63.972 44.9571 63.972 44.9571 63.3369 45.359C62.4267 45.2533 62.4267 45.2533 61.6434 45.0205C61.4105 44.2377 61.4105 44.2377 61.3047 43.328C61.7916 42.7145 61.7916 42.7145 62.3208 42.3125Z" fill="white"/>
<path d="M270.531 46.6195C270.912 46.6163 271.293 46.6131 271.685 46.6097C272.093 46.6101 272.502 46.6104 272.922 46.6107C273.344 46.6092 273.766 46.6078 274.201 46.6063C275.321 46.6038 276.441 46.6049 277.56 46.6068C278.246 46.6067 278.931 46.6033 279.616 46.5987C280.934 46.5904 282.252 46.589 283.57 46.5895C283.979 46.5864 284.387 46.5833 284.808 46.5801C285.189 46.5822 285.569 46.5843 285.962 46.5865C286.296 46.5863 286.63 46.586 286.974 46.5858C288.066 46.7353 288.706 47.0841 289.593 47.728C290.478 49.496 290.038 52.3237 290.05 54.2927C290.056 54.9497 290.065 55.6067 290.078 56.2636C290.097 57.2113 290.104 58.1585 290.109 59.1063C290.117 59.399 290.124 59.6917 290.132 59.9933C290.128 61.3335 290.019 62.1258 289.365 63.316C287.53 64.3912 285.675 64.2036 283.589 64.1772C283.131 64.1767 282.672 64.1767 282.214 64.1773C281.255 64.1767 280.297 64.1704 279.339 64.1597C278.111 64.1463 276.883 64.1448 275.654 64.1473C274.709 64.1484 273.763 64.1443 272.818 64.1385C272.145 64.135 271.472 64.1348 270.799 64.1347C270.391 64.1293 269.983 64.1239 269.562 64.1184C269.023 64.1141 269.023 64.1141 268.472 64.1098C267.577 63.9762 267.577 63.9762 266.966 63.5231C265.983 62.1583 266.167 60.6097 266.165 59.0058C266.164 58.7174 266.163 58.429 266.162 58.1319C266.16 57.5221 266.159 56.9124 266.159 56.3026C266.159 55.3703 266.152 54.4381 266.146 53.5057C266.145 52.9131 266.144 52.3205 266.144 51.7279C266.142 51.4493 266.139 51.1707 266.137 50.8837C266.147 48.3014 266.147 48.3014 266.9 47.3895C268.146 46.784 269.153 46.626 270.531 46.6195ZM269.609 48.7435C269.609 48.9669 269.609 49.1904 269.609 49.4205C269.943 49.6034 270.277 49.7862 270.621 49.9746C271.569 50.515 272.463 51.0981 273.35 51.7332C273.58 51.8984 273.811 52.0635 274.049 52.2337C274.524 52.5768 274.998 52.9224 275.47 53.2704C275.814 53.5148 275.814 53.5148 276.165 53.7642C276.37 53.9134 276.575 54.0625 276.786 54.2162C277.387 54.5545 277.387 54.5545 278.055 54.4362C278.896 54.1036 279.59 53.6755 280.345 53.1758C280.643 52.9799 280.941 52.784 281.248 52.5821C281.557 52.3766 281.866 52.1711 282.184 51.9593C282.798 51.5536 283.413 51.148 284.028 50.7428C284.3 50.5624 284.571 50.382 284.851 50.1961C285.529 49.759 285.529 49.759 286.206 49.4205C286.038 49.0854 286.038 49.0854 285.867 48.7435C280.502 48.7435 275.137 48.7435 269.609 48.7435ZM285.423 51.7689C285.057 52.0471 284.691 52.3248 284.325 52.602C284.134 52.7463 283.943 52.8906 283.747 53.0393C282.775 53.7702 281.797 54.4893 280.808 55.1963C280.455 55.4515 280.103 55.7068 279.74 55.9698C278.669 56.5774 278.258 56.7799 277.061 56.5291C276.263 56.0401 275.553 55.5532 274.817 54.9847C272.8 53.46 270.743 52.142 268.593 50.7746C268.593 54.4609 268.593 58.1472 268.593 61.9452C271.058 61.9523 273.523 61.9591 275.988 61.9627C277.136 61.9645 278.284 61.9669 279.431 61.9708C280.747 61.9751 282.063 61.9768 283.379 61.9783C283.998 61.9809 283.998 61.9809 284.631 61.9836C285.01 61.9836 285.39 61.9836 285.781 61.9836C286.117 61.9844 286.454 61.9852 286.8 61.9859C287.551 62.0307 287.551 62.0307 287.9 61.6067C287.93 60.778 287.939 59.9588 287.933 59.1301C287.932 58.8826 287.932 58.6351 287.931 58.3802C287.929 57.5868 287.925 56.7935 287.921 56.0002C287.919 55.4636 287.918 54.927 287.916 54.3903C287.912 53.0722 287.907 51.7541 287.9 50.4361C286.822 50.4361 286.262 51.1194 285.423 51.7689Z" fill="white"/>
<path d="M88.1292 56.319C88.3317 56.3888 88.5343 56.4587 88.7431 56.5306C88.8548 57.2008 88.9666 57.8711 89.0818 58.5616C88.0657 59.2386 88.0657 59.2386 87.3459 59.1329C86.7108 58.9001 86.7108 58.9001 86.3721 58.5616C86.2874 57.7365 86.2874 57.7365 86.3721 56.8691C87.3882 56.1921 87.3882 56.1921 88.1292 56.319Z" fill="white"/>
<path d="M50.8062 78.1934C51.7165 78.4896 51.7165 78.4896 52.4997 78.8704C52.5421 79.6743 52.5421 79.6743 52.4997 80.5629C52.2762 80.7863 52.0527 81.0097 51.8223 81.2399C50.2793 81.0518 50.2793 81.0518 49.7901 80.5629C49.7054 79.7378 49.7054 79.7378 49.7901 78.8704C50.1254 78.647 50.4607 78.4235 50.8062 78.1934Z" fill="white"/>
<path d="M307.405 101.828C308.23 101.892 308.23 101.892 308.569 102.23C308.633 103.055 308.633 103.055 308.569 103.923C308.346 104.146 308.122 104.369 307.892 104.6C307.003 104.473 307.003 104.473 306.198 104.261C305.986 103.457 305.986 103.457 305.859 102.569C306.537 101.892 306.537 101.892 307.405 101.828Z" fill="white"/>
<path d="M29.6163 116.361C30.0459 116.403 30.0459 116.403 30.4842 116.446C31.1617 117.461 31.1617 117.461 31.1193 118.16C30.7353 119.009 30.3196 119.163 29.4681 119.492C29.021 119.157 28.5739 118.822 28.1133 118.477C28.4722 116.479 28.4722 116.479 29.6163 116.361Z" fill="white"/>
<path d="M319.061 137.433C319.273 138.237 319.273 138.237 319.4 139.125C318.723 139.802 318.723 139.802 317.855 139.866C317.029 139.802 317.029 139.802 316.69 139.464C316.676 138.787 316.676 138.11 316.69 137.433C317.593 136.982 318.102 137.206 319.061 137.433Z" fill="white"/>
<path d="M217.108 179.07C217.32 179.874 217.32 179.874 217.447 180.762C216.769 181.439 216.769 181.439 215.88 181.481C215.615 181.468 215.349 181.454 215.076 181.439C214.716 180.826 214.716 180.826 214.398 180.085C214.51 179.75 214.622 179.415 214.737 179.07C215.64 178.618 216.148 178.842 217.108 179.07Z" fill="white"/>
<path d="M113.806 192.611C114.716 192.908 114.716 192.908 115.5 193.288C115.542 194.092 115.542 194.092 115.5 194.981C115.276 195.204 115.053 195.428 114.822 195.658C113.279 195.47 113.279 195.47 112.79 194.981C112.705 194.156 112.705 194.156 112.79 193.288C113.125 193.065 113.461 192.842 113.806 192.611Z" fill="white"/>
<path d="M299.418 201.707C300.434 201.749 300.434 201.749 300.773 202.088C300.836 202.913 300.836 202.913 300.773 203.78C300.549 204.004 300.326 204.227 300.095 204.457C298.552 204.269 298.552 204.269 298.063 203.78C298.021 202.934 298.021 202.934 298.063 202.088C298.402 201.749 298.402 201.749 299.418 201.707Z" fill="white"/>
</g>
<defs>
<clipPath id="clip0_284_17">
<rect width="336" height="240" fill="white"/>
</clipPath>
</defs>
</svg>
