<svg width="728" height="520" viewBox="0 0 728 520" fill="none" xmlns="http://www.w3.org/2000/svg">
<g clip-path="url(#clip0_250_129)">
<path d="M408.032 0.000906343C408.682 1.02501 409.325 2.05395 409.933 3.10365C411.314 4.83552 412.882 5.73234 414.775 6.87679C423.669 12.2977 429.916 19.2365 432.984 29.338C432.984 30.0641 432.984 30.7902 432.984 31.5383C433.606 31.717 434.229 31.8957 434.87 32.0798C437.636 33.0966 439.986 34.4672 442.433 36.0764C442.881 36.3703 443.329 36.6642 443.79 36.967C452.933 43.0566 452.933 43.0566 454.496 47.4445C454.266 49.874 454.266 49.874 452.681 51.4669C448.984 53.8454 445.304 53.3292 441.056 52.8077C436.818 51.856 432.696 50.5196 428.581 49.1405C425.784 54.3608 423.728 59.6273 421.838 65.2301C419.739 71.2483 417.438 77.012 414.454 82.649C414.014 83.4835 414.014 83.4835 413.564 84.3349C411.015 88.9833 408.07 93.0432 403.629 96.0799C402.903 96.0799 402.176 96.0799 401.427 96.0799C401.427 96.564 401.427 97.048 401.427 97.5468C402 97.6044 402.572 97.6621 403.162 97.7215C406.766 98.476 409.944 99.8727 413.307 101.351C414.041 101.672 414.774 101.994 415.53 102.324C430.32 108.914 444.509 116.853 458.669 124.684C459.321 125.044 459.972 125.404 460.643 125.775C464.392 127.85 468.137 129.931 471.879 132.018C471.906 131.466 471.933 130.915 471.961 130.346C472.371 123.672 473.483 117.232 474.86 110.703C474.973 110.164 475.085 109.625 475.201 109.07C486.852 53.4744 486.852 53.4744 505.095 38.2279C509.447 35.4234 513.826 35.4484 518.847 35.9388C527.52 37.983 536.438 44.9587 541.279 52.3665C544.44 57.9289 545.08 62.5404 544.532 68.9431C543.852 71.2342 543.172 72.1716 541.597 74.0771C540.855 74.3494 540.113 74.6216 539.349 74.9022C537.006 76.0683 537.006 76.0683 536.551 78.3974C536.214 80.1057 535.883 81.8152 535.557 83.5257C534.783 86.657 533.98 87.7084 531.323 89.479C529.488 90.2125 529.488 90.2125 527.653 90.2125C524.973 89.0006 523.319 87.5841 521.782 85.0785C521.782 84.5944 521.782 84.1104 521.782 83.6116C520.087 83.8537 518.392 84.0957 516.645 84.3451C516.887 85.0712 517.13 85.7972 517.379 86.5453C518.977 98.6051 519.002 110.89 519.03 123.033C519.034 123.684 519.038 124.334 519.042 125.004C519.131 144.368 519.131 144.368 516.645 151.82C517.388 151.595 518.132 151.369 518.898 151.136C522.92 149.99 527.033 149.531 531.173 148.989C532.642 148.796 534.11 148.594 535.578 148.391C546.293 146.968 546.293 146.968 551.137 147.42C552.308 148.59 551.987 149.805 551.994 151.423C551.953 155.253 551.409 158.832 550.638 162.575C550.512 163.219 550.385 163.862 550.254 164.524C549.852 166.556 549.439 168.585 549.027 170.614C548.756 171.98 548.486 173.346 548.216 174.711C547.101 180.317 545.958 185.889 544.532 191.425C544.967 191.275 545.401 191.125 545.848 190.97C546.428 190.772 547.008 190.575 547.605 190.371C548.176 190.175 548.746 189.98 549.334 189.778C557.154 187.38 567.067 187.404 574.621 190.692C583.442 195.567 589.774 203.285 595.124 211.641C595.629 212.414 596.134 213.187 596.654 213.984C598.124 216.238 599.583 218.5 601.04 220.763C601.769 221.88 602.497 222.996 603.228 224.112C604.857 226.606 606.471 229.109 608.078 231.617C608.801 232.744 609.525 233.871 610.251 234.997C621.348 252.218 631.91 269.755 642.137 287.504C642.601 288.31 643.066 289.115 643.544 289.944C650.388 301.828 657.125 313.768 663.741 325.781C664.489 327.126 665.248 328.466 666.019 329.799C666.358 330.388 666.697 330.976 667.046 331.582C667.343 332.089 667.641 332.597 667.948 333.12C668.557 334.444 668.557 334.444 668.373 336.461C666.594 338.747 664.485 340.375 661.952 341.778C661.467 341.778 660.983 341.778 660.484 341.778C661.107 342.772 661.107 342.772 661.742 343.786C662.286 344.66 662.83 345.534 663.374 346.408C663.647 346.844 663.921 347.28 664.203 347.73C665.392 349.646 666.373 351.366 667.089 353.513C667.552 353.441 668.016 353.369 668.493 353.295C673.339 352.544 678.184 351.795 683.03 351.046C684.836 350.767 686.642 350.488 688.448 350.208C691.051 349.804 693.654 349.402 696.257 349.001C697.058 348.876 697.859 348.751 698.683 348.623C704.682 347.701 710.589 346.796 716.671 346.866C717.429 346.873 718.186 346.879 718.967 346.886C719.806 346.899 723.597 346.408 726.532 348.623C728.564 354.799 728 359.93 720.661 365.248C712.222 372.215 704.169 377.24 695.84 382.069C690.897 384.956 686.196 388.166 681.496 391.429C679.226 392.999 676.934 394.537 674.645 396.08C671.436 398.25 668.243 400.441 665.064 402.656C663.242 403.923 661.413 405.178 659.583 406.431C658.727 407.021 657.875 407.616 657.027 408.217C655.864 409.04 654.689 409.843 653.512 410.646C652.854 411.105 652.195 411.564 651.517 412.036C648.828 413.201 647.148 412.884 644.339 412.187C638.088 406.135 635.394 395.056 633.422 386.838C631.71 380.015 628.414 374.012 624.524 368.181C623.994 368.666 623.465 369.15 622.919 369.648C620.631 371.274 619.905 371.538 617.186 371.115C615.893 369.792 615.893 369.792 614.74 367.958C614.112 366.975 614.112 366.975 613.472 365.973C613.047 365.28 612.623 364.587 612.186 363.873C611.748 363.185 611.309 362.498 610.857 361.79C607.645 356.69 607.645 356.69 607.645 354.98C604.013 354.98 600.38 354.98 596.637 354.98C596.744 356.267 596.85 357.555 596.96 358.882C598.212 374.036 599.458 389.191 600.698 404.346C600.93 407.173 601.162 410.001 601.394 412.829C602.053 420.867 602.71 428.905 603.363 436.943C603.651 440.499 603.941 444.054 604.233 447.61C604.509 450.979 604.783 454.349 605.055 457.718C605.156 458.96 605.258 460.202 605.36 461.443C605.501 463.152 605.639 464.862 605.776 466.571C605.854 467.528 605.932 468.486 606.012 469.472C606.194 472.62 606.177 475.776 606.177 478.929C633.301 478.929 660.425 478.929 688.371 478.929C688.613 479.897 688.855 480.865 689.105 481.863C687.637 483.33 687.637 483.33 685.982 483.512C684.94 483.512 684.94 483.512 683.877 483.511C683.08 483.514 682.284 483.517 681.463 483.52C680.147 483.514 680.147 483.514 678.803 483.508C677.882 483.509 676.961 483.51 676.012 483.512C673.481 483.515 670.951 483.51 668.42 483.502C665.775 483.496 663.131 483.497 660.486 483.498C656.044 483.497 651.602 483.491 647.16 483.481C642.02 483.469 636.88 483.465 631.74 483.466C626.801 483.466 621.863 483.462 616.924 483.456C614.819 483.454 612.715 483.452 610.611 483.452C607.674 483.451 604.738 483.444 601.801 483.436C600.924 483.436 600.046 483.437 599.142 483.437C598.345 483.434 597.549 483.431 596.728 483.428C596.034 483.426 595.339 483.425 594.623 483.424C592.968 483.33 592.968 483.33 591.5 482.596C591.5 483.08 591.5 483.564 591.5 484.063C592.01 484.137 592.52 484.21 593.046 484.286C595.55 484.888 597.516 485.887 599.791 487.094C600.443 487.441 600.443 487.441 601.109 487.794C602.028 488.284 602.946 488.776 603.863 489.27C605.242 490.012 606.626 490.742 608.012 491.472C616.398 495.935 626.362 501.696 629.661 511.2C630.165 516.794 630.165 516.794 628.927 519.267C622.748 520.907 615.915 519.719 609.64 519.15C608.472 519.048 607.305 518.947 606.137 518.845C593.852 517.753 581.615 516.286 569.379 514.761C567.06 514.473 564.741 514.191 562.422 513.908C555.756 513.096 549.093 512.26 542.433 511.402C540.867 511.2 539.3 511.002 537.734 510.803C534.838 510.435 531.945 510.05 529.052 509.661C527.764 509.498 527.764 509.498 526.45 509.332C525.278 509.17 525.278 509.17 524.083 509.005C523.404 508.915 522.725 508.825 522.026 508.732C520.086 508.204 519.316 507.657 518.113 506.066C516.924 498.601 519.118 490.505 520.315 483.33C443.302 483.33 366.29 483.33 286.944 483.33C286.944 483.33 280.933 483.33 281.073 483.33C280.272 483.33 280.272 483.33 279.456 483.331C247.859 483.364 216.262 483.389 184.665 483.404C180.875 483.406 177.085 483.408 173.294 483.41C172.54 483.411 171.785 483.411 171.008 483.411C158.774 483.418 146.541 483.429 134.308 483.443C121.764 483.456 109.221 483.465 96.6769 483.468C88.931 483.47 81.1851 483.476 73.4392 483.488C68.1342 483.496 62.8292 483.498 57.5242 483.496C54.4593 483.495 51.3944 483.497 48.3295 483.504C45.5274 483.512 42.7255 483.512 39.9234 483.507C38.906 483.506 37.8887 483.508 36.8713 483.513C35.4956 483.519 34.1199 483.515 32.7442 483.51C31.9779 483.511 31.2116 483.511 30.422 483.512C28.621 483.33 28.621 483.33 27.1532 481.863C27.3954 480.895 27.6376 479.926 27.8871 478.929C38.3007 478.687 48.7144 478.445 59.4436 478.196C57.9905 475.291 56.5374 472.387 55.0403 469.394C54.2048 467.297 53.4168 465.247 52.7011 463.114C52.5193 462.581 52.3375 462.047 52.1502 461.497C51.6375 459.976 51.1364 458.452 50.6371 456.926C50.393 456.208 50.149 455.489 49.8975 454.749C46.4356 443.597 46.8116 430.784 51.6576 420.129C54.7745 414.655 59.1212 409.626 65.3145 407.787C70.8387 406.413 75.0266 407.266 79.9919 409.987C81.9642 411.454 81.9642 411.454 82.9274 412.921C82.8099 414.359 82.8099 414.359 82.1936 415.854C80.8577 416.846 80.8577 416.846 79.1663 417.779C69.9354 423.637 66.749 435.123 64.4201 445.237C63.6015 449.101 63.2623 452.984 63.1129 456.926C63.8394 456.926 64.566 456.926 65.3145 456.926C65.2762 455.65 65.2762 455.65 65.2371 454.348C65.2405 451.243 65.7604 448.37 66.5529 445.375C66.7511 444.614 66.7511 444.614 66.9534 443.837C69.3754 434.881 72.954 425.8 80.6771 420.137C83.0743 419.164 85.4955 419.045 88.0645 418.788C88.3058 403.392 88.3058 403.392 87.4224 388.03C87.3648 387.425 87.3072 386.819 87.2479 386.196C86.8715 382.737 86.1808 379.566 85.129 376.249C84.8339 376.862 84.8339 376.862 84.5328 377.487C80.3028 385.719 74.1939 390.656 65.498 393.668C53.4293 397.51 41.0474 395.368 29.9973 389.68C22.381 385.573 16.2947 380.24 10.2964 374.081C7.09372 370.805 3.7548 367.888 0 365.248C0.769884 360.258 5.9042 357.519 9.68366 354.693C25.9629 343.12 47.3668 334.556 67.5161 333.71C68.0345 333.681 68.553 333.652 69.0871 333.622C77.2261 333.373 86.2141 334.403 92.4047 340.148C95.34 343.436 96.4265 345.995 96.3349 350.539C95.9936 353.139 94.9259 354.508 93.2016 356.447C88.3898 360.114 88.3898 360.114 85.129 360.114C86.548 364.79 87.9854 369.444 89.624 374.049C93.0844 384.579 92.5709 395.048 92.2716 405.985C92.2186 408.047 92.1882 410.108 92.161 412.17C92.1375 412.802 92.1139 413.435 92.0897 414.087C92.0756 415.735 92.0861 417.184 92.4678 418.788C94.1733 420.324 94.1733 420.324 96.1371 420.988C96.3793 421.23 96.6215 421.472 96.871 421.722C96.9401 415.245 97.0043 408.878 96.1543 402.441C96.1366 400.394 96.5995 398.84 97.2092 396.903C98.0984 393.341 98.2292 389.614 98.5681 385.967C100.407 368.125 105.196 352.955 116.685 338.844C115.664 338.05 115.664 338.05 114.621 337.24C112.041 335.045 110.324 333.297 109.848 329.803C109.653 325.593 110.089 323 113.016 319.775C119.055 314.303 127.054 312.899 134.998 313.02C157.188 314.555 176.122 326.259 191.314 342.03C198.612 350.422 205.127 359.623 204.75 371.115C204.508 371.357 204.266 371.599 204.016 371.849C199.052 371.583 194.358 370.461 189.554 369.252C188.787 369.063 188.787 369.063 188.006 368.869C187.556 368.755 187.106 368.64 186.642 368.522C181.237 367.443 176.023 367.378 170.53 367.454C168.861 367.467 167.191 367.479 165.521 367.491C162.919 367.514 160.317 367.54 157.715 367.574C128.886 367.932 128.886 367.932 119.481 359.386C117.21 356.875 115.457 354.233 113.75 351.313C107.052 363.139 102.939 377.237 103.476 390.918C105.898 390.676 108.319 390.434 110.815 390.184C110.951 389.186 111.087 388.188 111.227 387.159C111.99 383.832 113.097 382.136 115.843 380.125C123.621 375.475 132.475 375.003 141.25 376.759C155.487 381.129 165.628 392.234 172.543 405.013C178.732 417.025 181.396 429.653 181.404 443.083C181.413 443.938 181.422 444.794 181.431 445.676C181.432 446.501 181.434 447.326 181.435 448.177C181.438 448.924 181.441 449.671 181.444 450.44C181.258 452.619 180.713 454.218 179.798 456.193C176.851 455.751 175.006 454.227 172.643 452.48C159.329 443.022 136.751 432.723 120.355 432.723C111.72 447.854 108.471 461.304 104.944 478.929C136.427 478.929 167.91 478.929 200.347 478.929C200.347 476.509 200.347 474.088 200.347 471.595C200.452 469.711 200.582 467.829 200.737 465.948C200.779 465.429 200.821 464.911 200.864 464.376C201.003 462.664 201.147 460.952 201.29 459.24C201.391 458.002 201.493 456.764 201.594 455.526C201.811 452.874 202.029 450.221 202.25 447.569C202.598 443.375 202.942 439.18 203.285 434.985C203.829 428.353 204.375 421.721 204.923 415.089C205.904 403.203 206.882 391.317 207.857 379.43C208.199 375.26 208.543 371.091 208.888 366.921C209.102 364.33 209.315 361.739 209.528 359.148C209.627 357.947 209.726 356.746 209.826 355.545C209.962 353.905 210.097 352.266 210.231 350.626C210.307 349.709 210.382 348.791 210.461 347.846C210.54 346.658 210.54 346.658 210.621 345.445C210.672 344.771 210.722 344.097 210.774 343.402C210.781 341.501 210.781 341.501 208.557 339.944C208.155 339.637 207.753 339.33 207.339 339.013C203.681 336.069 203.157 331.511 202.548 327.11C202.548 326.141 202.548 325.173 202.548 324.176C201.807 324.251 201.065 324.327 200.301 324.405C195.162 324.378 190.421 322.271 185.669 320.509C185.046 320.285 184.423 320.061 183.781 319.83C181.789 319.111 179.807 318.369 177.826 317.621C177.194 317.392 176.562 317.164 175.91 316.929C172.057 315.43 169.861 314.166 168.056 310.241C167.718 307.937 167.718 307.937 167.781 305.657C167.791 304.897 167.8 304.137 167.81 303.353C168.056 301.44 168.056 301.44 169.524 299.973C171.038 299.796 171.038 299.796 172.924 299.806C173.63 299.806 174.335 299.806 175.061 299.807C175.824 299.814 176.587 299.822 177.373 299.829C178.153 299.832 178.933 299.834 179.736 299.836C182.234 299.844 184.731 299.862 187.229 299.881C188.919 299.888 190.61 299.895 192.3 299.901C196.45 299.917 200.6 299.942 204.75 299.973C204.613 299.005 204.613 299.005 204.473 298.019C203.468 290.727 202.698 283.43 202.015 276.102C201.902 274.906 201.789 273.71 201.676 272.514C201.442 270.034 201.209 267.554 200.977 265.074C200.68 261.895 200.379 258.716 200.079 255.538C199.846 253.08 199.615 250.623 199.384 248.165C199.273 246.992 199.163 245.818 199.052 244.645C198.898 243.015 198.745 241.385 198.593 239.755C198.507 238.829 198.42 237.903 198.33 236.949C198.145 234.698 198.145 234.698 198.145 232.497C197.197 232.505 196.249 232.513 195.272 232.521C191.762 232.547 188.253 232.564 184.743 232.578C183.223 232.585 181.702 232.595 180.182 232.608C178 232.626 175.817 232.634 173.635 232.641C172.952 232.648 172.27 232.656 171.566 232.664C170.619 232.664 170.619 232.664 169.652 232.664C168.816 232.669 168.816 232.669 167.963 232.674C166.589 232.497 166.589 232.497 165.121 231.031C164.831 229.49 164.831 229.49 164.682 227.584C164.625 226.884 164.567 226.183 164.507 225.462C164.452 224.713 164.398 223.964 164.341 223.192C164.281 222.429 164.22 221.666 164.158 220.879C163.983 218.641 163.817 216.401 163.653 214.162C163.568 213.068 163.483 211.975 163.398 210.881C162.509 198.782 162.509 198.782 162.919 195.093C164.387 193.626 164.387 193.626 167.316 193.459C168.581 193.459 169.847 193.468 171.112 193.482C172.111 193.486 172.111 193.486 173.13 193.489C175.261 193.497 177.392 193.515 179.523 193.534C180.966 193.541 182.409 193.548 183.852 193.554C187.393 193.57 190.935 193.596 194.476 193.626C194.476 191.932 194.476 190.237 194.476 188.492C193.63 188.61 192.785 188.729 191.914 188.851C188.807 189.237 185.753 189.343 182.625 189.348C182.083 189.351 181.541 189.353 180.982 189.356C179.849 189.359 178.716 189.361 177.582 189.361C175.843 189.363 174.104 189.376 172.365 189.39C171.26 189.392 170.154 189.394 169.048 189.394C168.529 189.399 168.009 189.405 167.473 189.41C163.821 189.393 163.821 189.393 162.186 187.758C161.902 185.889 161.702 184.081 161.561 182.2C161.514 181.641 161.467 181.081 161.419 180.504C161.321 179.314 161.226 178.122 161.134 176.931C160.996 175.144 160.846 173.358 160.695 171.571C160.414 168.168 160.179 164.764 159.984 161.355C159.954 160.837 159.925 160.32 159.894 159.787C159.822 158.358 159.779 156.929 159.737 155.499C159.7 154.294 159.7 154.294 159.662 153.064C159.984 151.087 159.984 151.087 161.074 149.883C163.742 148.443 166.319 148.564 169.277 148.57C169.92 148.562 170.563 148.555 171.225 148.547C173.362 148.525 175.5 148.518 177.637 148.511C179.145 148.499 180.654 148.486 182.163 148.471C186.16 148.437 190.157 148.415 194.154 148.396C198.109 148.374 202.065 148.34 206.02 148.307C224.433 148.159 242.845 148.119 261.258 148.153C261.305 147.603 261.352 147.053 261.401 146.486C261.464 145.763 261.528 145.039 261.593 144.293C261.656 143.577 261.718 142.86 261.782 142.122C263.314 127.27 271.903 112.179 283.274 102.681C297.023 93.2845 314.61 89.1614 331.111 88.5651C331.925 88.526 332.74 88.4869 333.579 88.4466C335.207 88.3723 336.837 88.3242 338.466 88.3055C342.842 88.0978 342.842 88.0978 346.519 85.9276C347.875 84.2412 348.987 82.5579 350.056 80.6779C350.464 79.9758 350.464 79.9758 350.88 79.2596C356.326 69.2737 356.326 69.2737 357.9 58.5233C357.388 57.0768 357.388 57.0768 356.294 55.3747C354.042 51.6238 354.009 47.5478 354.46 43.2731C355.407 39.9646 356.346 37.3879 359.247 35.4088C361.818 33.0459 361.946 30.8078 362.486 27.4586C364.118 19.025 367.234 11.9298 374.274 6.60175C381.122 2.68521 387.627 1.2246 395.419 1.46776C396.647 1.5052 397.875 1.53604 399.103 1.55944C399.905 1.58497 399.905 1.58497 400.725 1.61101C403.729 1.31146 404.755 -0.638264 408.032 0.000906343ZM372.806 13.936C369.691 18.1454 368.26 22.8628 366.936 27.8711C369.183 27.7659 371.431 27.6586 373.678 27.5503C374.298 27.5214 374.918 27.4926 375.557 27.4629C379.098 27.2906 382.624 27.0575 386.157 26.7567C391.673 26.3238 397.18 26.2295 402.712 26.2209C403.48 26.2184 403.48 26.2184 404.264 26.2157C412.069 26.2059 419.513 26.6828 427.113 28.6046C426.208 22.242 421.358 17.1531 416.595 13.1224C403.844 4.09183 384.51 1.55394 372.806 13.936ZM384.548 30.8049C386.371 34.4484 394.014 36.1306 397.758 37.4057C402.526 38.7862 407.393 39.7511 412.252 40.752C414.842 41.3028 417.43 41.8627 420.018 42.4251C420.952 42.6271 420.952 42.6271 421.905 42.8331C427.334 44.0215 432.67 45.4561 437.955 47.1782C441.801 48.3875 445.093 48.5621 449.129 48.4071C445.589 40.7027 434.589 36.1323 427.113 33.0051C419.359 30.2267 411.612 29.9452 403.446 29.9798C402.638 29.9812 401.831 29.9826 400.999 29.984C395.485 30.0134 390.033 30.1946 384.548 30.8049ZM361.936 38.5517C359.461 41.3083 358.959 43.6662 358.634 47.307C358.968 51.0541 360.067 53.3046 362.762 55.9247C364.842 57.2783 366.754 58.0104 369.137 58.6751C368.895 59.4012 368.653 60.1273 368.403 60.8754C366.708 60.8754 365.013 60.8754 363.266 60.8754C363.105 61.2772 362.945 61.679 362.779 62.093C362.273 63.3562 361.766 64.6186 361.257 65.8805C360.602 67.527 359.963 69.1798 359.336 70.8368C356.189 79.0904 352.98 87.0333 345.653 92.4128C346.587 98.5437 350.88 102.517 355.509 106.362C361.236 110.559 369.034 115.545 376.476 114.416C380.597 112.136 381.938 108.231 383.723 104.102C384.18 103.1 384.18 103.1 384.646 102.078C386.487 98.4458 386.487 98.4458 386.016 94.613C384.654 93.427 384.654 93.427 382.989 92.2752C374.919 86.1812 374.919 86.1812 373.77 81.6004C373.656 80.7807 373.656 80.7807 373.54 79.9445C374.993 79.5814 374.993 79.5814 376.476 79.2111C376.838 79.7443 376.838 79.7443 377.207 80.2883C380.873 85.4521 386.226 88.9342 388.952 89.479C402.735 92.234 405.831 83.9783 402.299 91.4501C412.738 82.4179 417.201 65.7082 421.363 53.1078C422 51.2708 422.708 49.4731 423.444 47.6737C420.902 46.5797 418.511 45.8814 415.79 45.3903C415.029 45.2482 414.269 45.106 413.485 44.9595C412.685 44.8114 411.884 44.6633 411.06 44.5108C404.635 43.2898 398.572 41.8186 392.469 39.4742C390.314 38.8415 389.485 38.6291 387.484 39.606C385.962 41.0753 385.962 41.0753 384.548 42.8606C381.375 46.7192 381.375 46.7192 378.677 47.6737C376.292 47.3987 376.292 47.3987 374.274 46.9403C374.149 46.4893 374.024 46.0383 373.896 45.5737C372.843 41.9601 372.843 41.9601 370.788 38.8726C367.545 37.4318 365.129 36.779 361.936 38.5517ZM501.234 49.1405C499.77 51.3768 498.511 53.6862 497.289 56.0623C496.946 56.7279 496.603 57.3936 496.249 58.0794C482.417 85.7107 477.528 116.957 474.815 147.42C473.846 147.178 472.877 146.936 471.879 146.686C471.637 143.298 471.395 139.91 471.145 136.418C467.997 134.966 464.849 133.514 461.605 132.018C461.48 133.091 461.355 134.164 461.226 135.27C460.156 144.131 458.752 152.724 456.468 161.355C464.223 160.978 471.793 159.801 479.444 158.534C481.491 158.195 483.539 157.864 485.588 157.535C494.285 156.118 502.902 154.446 511.508 152.554C516.334 136.103 514.649 117.596 513.825 100.679C513.752 99.1478 513.684 97.6167 513.626 96.0853C513.545 94.1551 513.428 92.2314 513.297 90.3042C513.279 89.747 513.261 89.1898 513.243 88.6158C513.15 86.8313 513.15 86.8313 512.242 84.3451C510.826 83.1975 509.384 82.3699 507.778 81.5109C505.843 80.3652 505.118 79.0885 504.215 77.0566C503.933 76.4241 503.651 75.7916 503.361 75.14C502.606 73.0842 502.14 71.128 501.968 68.9431C503.179 68.9431 504.39 68.9431 505.637 68.9431C505.762 69.377 505.887 69.811 506.016 70.2581C507.09 73.7604 508.042 76.636 510.774 79.2111C513.065 80.1995 513.065 80.1995 515.177 80.6779C515.027 80.191 514.877 79.7041 514.722 79.2025C514.524 78.5548 514.326 77.9072 514.123 77.24C513.927 76.6018 513.731 75.9636 513.529 75.3061C512.654 72.2012 512.149 69.3397 512.17 66.1096C512.174 65.1347 512.174 65.1347 512.177 64.14C512.187 63.1367 512.187 63.1367 512.196 62.113C512.199 61.43 512.203 60.7469 512.206 60.0431C512.215 58.3647 512.227 56.6863 512.242 55.008C513.211 55.008 514.179 55.008 515.177 55.008C515.231 56.2432 515.231 56.2432 515.286 57.5033C515.512 68.6903 515.512 68.6903 520.315 78.4776C520.799 78.4776 521.283 78.4776 521.782 78.4776C522.572 74.4845 522.752 70.523 522.929 66.4678C522.977 65.4481 522.977 65.4481 523.025 64.4079C523.102 62.7415 523.177 61.0751 523.25 59.4085C524.219 59.1665 525.187 58.9245 526.186 58.6751C527.009 64.9724 526.847 70.5739 525.753 76.8127C525.317 79.7368 525.206 81.4826 526.882 84.0041C527.379 84.6007 527.875 85.1973 528.387 85.8119C530.878 83.8883 531.488 81.4478 532.057 78.4776C532.327 75.562 532.428 72.6486 532.515 69.7223C532.544 68.9409 532.572 68.1595 532.601 67.3545C532.67 65.4394 532.733 63.5243 532.79 61.6088C533.759 61.6088 534.728 61.6088 535.726 61.6088C536.452 66.3284 536.452 66.3284 537.194 71.1434C540.157 68.6812 540.157 68.6812 540.545 66.5766C540.534 59.7778 538.068 55.01 533.433 50.1032C528.061 45.0482 521.979 40.7772 514.489 40.0644C508.304 40.2759 504.782 44.5906 501.234 49.1405ZM281.073 111.482C280.618 111.914 280.163 112.346 279.694 112.791C259.78 133.049 262.007 173.162 261.258 199.493C265.312 199.194 269.312 198.809 273.312 198.072C287.709 195.444 301.655 195.303 316.298 195.093C316.783 178.392 317.267 161.692 317.766 144.486C318.977 144.244 320.188 144.002 321.436 143.753C321.261 150.912 321.083 158.072 320.899 165.231C320.814 168.555 320.731 171.879 320.65 175.203C320.572 178.408 320.491 181.613 320.408 184.818C320.376 186.044 320.346 187.269 320.317 188.495C320.277 190.206 320.232 191.916 320.186 193.627C320.175 194.139 320.164 194.65 320.152 195.178C320.051 198.676 320.051 198.676 319.234 199.493C317.054 199.735 314.875 199.977 312.629 200.227C312.629 206.761 312.629 213.296 312.629 220.029C318.913 220.799 325.197 221.565 331.481 222.324C334.4 222.677 337.319 223.031 340.237 223.39C343.059 223.736 345.88 224.078 348.703 224.417C349.774 224.546 350.845 224.677 351.917 224.81C362.88 226.396 362.88 226.396 373.661 224.665C374.438 224.407 375.216 224.148 376.017 223.882C376.804 223.609 377.591 223.336 378.402 223.055C392.476 218.304 392.476 218.304 400.327 218.471C400.93 218.477 401.534 218.484 402.156 218.491C403.625 218.508 405.095 218.534 406.565 218.562C409.272 209.246 411.091 199.804 412.894 190.279C413.328 187.992 413.764 185.704 414.203 183.418C414.474 182.007 414.742 180.595 415.007 179.183C416.411 171.863 416.411 171.863 417.573 169.423C419.389 168.697 419.389 168.697 421.242 167.956C421.969 160.211 422.695 152.466 423.444 144.486C424.412 144.728 425.381 144.97 426.379 145.22C426.137 152.238 425.895 159.257 425.645 166.489C434.524 165.23 434.524 165.23 443.396 163.922C443.996 163.836 444.596 163.75 445.215 163.661C445.79 163.573 446.366 163.485 446.959 163.395C447.466 163.32 447.973 163.244 448.496 163.167C450.095 162.844 450.095 162.844 452.065 161.355C452.676 160.066 452.676 160.066 453.031 158.55C453.257 157.698 453.257 157.698 453.489 156.829C453.715 155.916 453.715 155.916 453.945 154.983C454.104 154.359 454.262 153.735 454.426 153.091C455.785 147.564 456.676 142.091 457.202 136.418C457.345 135.42 457.345 135.42 457.491 134.401C457.753 132.47 457.753 132.47 457.202 129.818C456.163 128.833 456.163 128.833 454.756 128.09C454.222 127.779 453.687 127.469 453.137 127.149C452.541 126.819 451.945 126.49 451.331 126.15C450.701 125.798 450.071 125.446 449.421 125.083C447.298 123.911 445.166 122.759 443.029 121.612C442.252 121.195 441.475 120.777 440.674 120.347C439.096 119.499 437.517 118.653 435.938 117.808C433.974 116.754 432.016 115.69 430.06 114.622C411.155 103.506 411.155 103.506 390.419 98.2802C390.216 98.7536 390.013 99.227 389.804 99.7148C388.873 101.869 387.926 104.017 386.979 106.165C386.66 106.91 386.341 107.655 386.012 108.422C382.953 115.307 382.953 115.307 379.411 117.349C372.432 119.674 365.491 116.389 359.23 113.27C351.029 108.578 344.678 101.969 341.25 93.1462C320.367 92.4076 296.18 95.7087 281.073 111.482ZM203.282 188.492C203.282 190.186 203.282 191.88 203.282 193.626C221.203 193.384 239.125 193.142 257.589 192.892C257.589 191.44 257.589 189.988 257.589 188.492C239.668 188.492 221.746 188.492 203.282 188.492ZM490.76 223.333C487.924 224.887 485.075 226.417 482.228 227.95C475.026 231.829 467.873 235.783 460.76 239.823C455.36 242.89 449.932 245.904 444.497 248.908C438.559 252.189 432.656 255.519 426.792 258.929C423.649 260.754 420.493 262.556 417.337 264.359C415.698 265.312 414.09 266.295 412.487 267.307C406.56 270.787 401.747 270.854 395.066 270.803C386.27 270.994 378.796 274.863 371.037 278.708C369.035 279.476 367.593 279.582 365.468 279.437C365.468 278.711 365.468 277.985 365.468 277.236C369.343 275.542 373.217 273.848 377.21 272.102C374.558 270.335 373.032 270.352 369.871 270.177C368.963 270.122 368.055 270.068 367.119 270.011C366.079 269.973 365.04 269.937 364 269.902C363.377 269.869 362.755 269.836 362.113 269.802C356.951 269.633 352.79 270.56 347.947 272.286C347.199 272.544 346.451 272.801 345.681 273.067C336.845 276.18 328.226 279.839 319.602 283.489C315.624 285.164 311.627 286.794 307.63 288.421C306.31 288.96 304.99 289.498 303.671 290.037C302.743 290.415 301.815 290.794 300.887 291.172C302.114 300.966 307.355 309.953 313.363 317.575C313.876 318.23 314.388 318.885 314.917 319.56C326.109 332.898 343.473 339.118 360.331 341.045C363.927 341.253 367.508 341.29 371.109 341.274C372.077 341.27 373.045 341.266 374.042 341.261C381.42 341.17 388.4 340.651 395.556 338.844C396.136 338.699 396.716 338.553 397.313 338.403C425.597 331.047 448.939 312.721 472.222 295.793C479.677 290.378 487.255 285.161 494.895 280.011C496.701 278.791 498.502 277.563 500.302 276.334C524.212 260.09 524.212 260.09 535.264 257.345C535.832 257.199 536.399 257.053 536.984 256.902C538.11 256.621 539.242 256.363 540.379 256.132C542.167 255.748 542.167 255.748 544.532 254.5C545.498 252.491 545.704 250.882 546 248.633C546.727 248.633 547.453 248.633 548.202 248.633C548.444 250.569 548.686 252.505 548.936 254.5C549.946 254.687 549.946 254.687 550.977 254.878C558.19 256.302 563.823 257.6 568.75 263.301C569.087 263.681 569.424 264.061 569.771 264.453C576.095 272.137 580.848 283.212 580.369 293.217C579.938 305.352 584.725 313.042 591.484 322.768C593.124 325.135 594.686 327.542 596.234 329.969C597.169 331.435 598.118 332.892 599.071 334.346C602.732 339.957 606.279 345.642 609.847 351.313C613.952 348.801 617.947 346.214 621.772 343.291C632.368 335.228 643.487 327.816 654.613 320.509C654.179 317.671 653.334 315.583 651.921 313.091C651.513 312.367 651.105 311.643 650.685 310.897C650.241 310.12 649.796 309.344 649.338 308.545C648.875 307.728 648.412 306.912 647.936 306.071C643.141 297.639 638.258 289.259 633.331 280.904C632.771 279.952 632.211 279 631.651 278.048C625.412 267.445 619.18 256.862 612.387 246.602C610.623 243.909 608.901 241.19 607.173 238.474C602.631 231.342 598.044 224.24 593.381 217.187C592.922 216.486 592.463 215.786 591.99 215.064C585.542 205.368 578.591 195.422 566.548 192.892C540.798 190.303 512.608 211.308 490.76 223.333ZM292.677 199.264C291.925 199.329 291.174 199.394 290.399 199.461C277.31 200.264 277.31 200.264 264.927 203.894C264.89 208.655 264.864 213.417 264.847 218.178C264.839 219.795 264.829 221.412 264.817 223.029C264.799 225.365 264.791 227.7 264.784 230.036C264.777 230.749 264.769 231.461 264.761 232.195C264.76 239.45 265.216 246.563 270.065 252.3C279.522 261.542 298.14 259.917 310.218 259.792C325.336 259.557 341.521 257.833 355.927 253.033C357.027 252.966 358.129 252.938 359.23 252.942C359.797 252.94 360.365 252.938 360.95 252.936C362.532 253.033 362.532 253.033 364.734 253.767C369.114 254.159 372.759 254.158 376.476 251.566C378.648 249.408 380.414 247.065 381.613 244.232C386.997 244.515 391.436 247.816 395.511 251.108C396.991 252.527 396.991 252.527 399.226 252.3C400.037 249.747 400.449 247.62 399.96 244.966C398.032 243.104 396.063 241.831 393.75 240.482C391.887 239.098 391.887 239.098 391.262 237.096C391.226 236.546 391.19 235.997 391.153 235.431C394.802 236.725 398.077 238.654 401.427 240.565C401.579 239.627 401.73 238.689 401.886 237.723C401.971 237.196 402.056 236.668 402.144 236.124C402.15 235.654 402.155 235.183 402.161 234.698C400.134 232.672 398.34 232.806 395.556 232.497C395.799 231.529 396.041 230.561 396.29 229.564C398.875 229.505 401.148 229.534 403.629 230.297C404.504 227.454 405.097 225.225 405.097 222.229C400.698 220.032 394.897 221.797 390.419 223.055C389.519 223.296 389.519 223.296 388.6 223.542C385.602 224.368 382.671 225.282 379.764 226.386C379.233 226.587 378.702 226.788 378.154 226.995C377.175 227.375 376.201 227.77 375.236 228.185C367.238 231.325 357.682 229.422 349.409 228.358C348.389 228.231 347.369 228.104 346.35 227.979C344.226 227.715 342.104 227.448 339.982 227.178C337.308 226.837 334.634 226.503 331.959 226.172C320.6 224.764 309.258 223.283 297.952 221.496C297.952 220.528 297.952 219.56 297.952 218.562C301.1 218.562 304.248 218.562 307.492 218.562C308.115 216.07 308.312 214.331 308.298 211.812C308.295 211.094 308.293 210.375 308.29 209.635C308.284 208.89 308.278 208.145 308.272 207.377C308.268 206.621 308.265 205.865 308.262 205.086C308.253 203.221 308.241 201.357 308.226 199.493C302.945 198.779 297.977 198.782 292.677 199.264ZM477.75 201.693C475.956 204.383 475.673 206.636 476.282 209.761C477.729 211.761 477.729 211.761 479.952 212.695C482.233 212.936 482.233 212.936 484.355 211.961C486.329 209.729 487.197 208.225 487.611 205.269C487.248 202.881 486.854 201.869 485.089 200.227C481.94 198.984 480.382 199.703 477.75 201.693ZM206.218 232.497C206.218 236.73 206.283 240.775 206.678 244.962C206.727 245.507 206.776 246.051 206.826 246.613C206.986 248.389 207.151 250.166 207.316 251.942C207.429 253.188 207.543 254.434 207.656 255.68C207.893 258.281 208.132 260.882 208.372 263.483C208.68 266.809 208.983 270.136 209.285 273.463C209.519 276.032 209.754 278.601 209.99 281.17C210.102 282.397 210.214 283.623 210.326 284.85C210.482 286.564 210.641 288.279 210.8 289.993C210.845 290.495 210.891 290.997 210.938 291.514C211.206 294.374 211.615 297.129 212.089 299.973C240.666 299.973 269.243 299.973 298.686 299.973C297.959 297.794 297.232 295.616 296.484 293.372C294.782 292.846 293.069 292.358 291.347 291.905C285.761 284.09 285.042 271.907 284.008 262.568C283.616 262.443 283.225 262.318 282.821 262.19C269.786 257.952 269.786 257.952 266.395 253.767C265.881 253.162 265.366 252.557 264.836 251.933C261.619 245.933 261.192 239.175 260.524 232.497C242.603 232.497 224.682 232.497 206.218 232.497ZM383.081 248.633C382.793 249.177 382.506 249.722 382.209 250.283C380.763 252.475 379.32 253.69 377.21 255.234C376.241 255.96 375.272 256.686 374.274 257.434C381.782 257.434 389.289 257.434 397.024 257.434C395.813 256.466 394.602 255.498 393.355 254.5C392.802 254.044 392.25 253.587 391.681 253.116C391.143 252.681 390.606 252.245 390.052 251.796C389.515 251.354 388.978 250.913 388.424 250.458C386.612 249.276 385.209 248.914 383.081 248.633ZM355.194 256.7C355.194 256.943 355.194 257.185 355.194 257.434C358.1 257.434 361.006 257.434 364 257.434C360.51 255.69 358.861 255.908 355.194 256.7ZM504.903 277.236C504.405 277.57 503.908 277.904 503.395 278.247C500.485 280.207 497.6 282.199 494.726 284.21C493.031 285.396 491.332 286.576 489.632 287.757C483.723 291.869 477.843 296.018 472.017 300.248C439.478 323.833 439.478 323.833 425.645 330.777C425.645 331.019 425.645 331.261 425.645 331.51C432.339 331.634 438.823 331.377 445.46 330.502C446.843 330.322 446.843 330.322 448.254 330.14C462.299 328.24 476.222 325.448 490.143 322.815C491.312 322.594 491.312 322.594 492.505 322.368C493.586 322.162 493.586 322.162 494.688 321.952C495.317 321.832 495.946 321.712 496.594 321.589C498.154 321.271 499.693 320.909 501.234 320.509C501.136 320.075 501.039 319.641 500.939 319.194C500.671 317.997 500.405 316.799 500.142 315.601C499.874 314.393 499.594 313.187 499.308 311.983C498.863 309.17 498.468 306.235 499.766 303.64C500.735 303.64 501.704 303.64 502.702 303.64C502.721 304.243 502.74 304.846 502.759 305.468C503.042 311.029 503.936 315.494 506.371 320.509C508.275 317.654 509.819 314.65 511.416 311.616C511.735 311.016 512.054 310.417 512.382 309.799C514.461 305.857 516.357 301.868 518.113 297.772C519.082 297.772 520.05 297.772 521.048 297.772C519.239 304.628 516.159 310.704 512.892 316.965C508.102 326.23 507.572 334.015 508.844 344.207C509.207 347.133 509.543 350.062 509.882 352.991C509.955 353.619 510.028 354.248 510.103 354.895C510.99 362.592 511.722 370.304 512.454 378.017C512.596 379.506 512.738 380.996 512.88 382.485C513.239 386.259 513.596 390.033 513.952 393.807C514.528 399.908 515.108 406.009 515.689 412.109C515.887 414.198 516.084 416.287 516.281 418.376C517.081 426.832 517.94 435.28 518.847 443.724C524.748 443.453 530.65 443.179 536.551 442.902C539.292 442.773 542.033 442.646 544.774 442.52C547.424 442.398 550.075 442.274 552.725 442.149C553.731 442.102 554.737 442.055 555.742 442.009C561.322 441.755 566.87 441.43 572.419 440.791C573.168 436.299 573.388 431.84 573.573 427.294C573.609 426.462 573.645 425.629 573.682 424.771C573.8 422.006 573.914 419.241 574.028 416.476C574.088 415.017 574.149 413.558 574.21 412.099C574.494 405.299 574.766 398.498 575.034 391.697C575.055 391.165 575.076 390.632 575.098 390.084C576.666 350.958 576.666 350.958 577.275 311.808C577.281 310.209 577.294 308.611 577.309 307.013C577.5 292.076 577.5 292.076 573.153 277.97C572.949 277.533 572.745 277.096 572.535 276.646C569.128 269.397 565.101 263.609 557.71 260.141C539.304 253.642 519.451 267.465 504.903 277.236ZM340.516 260.368C339.797 260.462 339.797 260.462 339.062 260.558C336.826 260.849 334.589 261.135 332.352 261.422C331.598 261.521 330.844 261.62 330.067 261.721C319.984 263.004 310.026 263.406 299.878 263.347C298.758 263.343 297.638 263.34 296.518 263.337C293.816 263.329 291.114 263.317 288.411 263.301C288.743 268.791 289.192 274.094 290.521 279.437C290.639 279.958 290.758 280.479 290.88 281.015C291.6 284.011 292.542 286.426 294.282 288.971C297.455 288.544 300.129 287.769 303.074 286.525C303.92 286.171 304.765 285.817 305.636 285.453C306.545 285.067 307.454 284.681 308.363 284.296C309.784 283.699 311.205 283.105 312.626 282.51C313.602 282.102 314.577 281.693 315.552 281.283C320.678 279.133 325.825 277.036 330.976 274.944C331.807 274.607 332.637 274.269 333.493 273.921C336.809 272.573 340.127 271.228 343.452 269.902C343.243 268.862 343.027 267.823 342.81 266.785C342.69 266.207 342.571 265.628 342.448 265.032C341.989 263.321 341.329 261.935 340.516 260.368ZM116.502 322.48C116.078 323.039 115.654 323.599 115.218 324.176C114.976 324.418 114.733 324.66 114.484 324.909C114.273 327.055 114.125 328.688 114.484 330.777C116.773 333.334 119.247 334.398 122.556 335.177C124.831 334.598 124.831 334.598 127.006 333.481C137.834 328.397 148.569 331.244 159.39 335.002C162.573 336.172 165.686 337.477 168.79 338.844C169.76 339.254 169.76 339.254 170.748 339.672C172.368 340.403 172.368 340.403 174.661 341.778C175.172 343.331 175.172 343.331 175.395 344.712C172.171 344.314 169.839 343.522 167.002 341.961C161.889 339.315 156.666 337.583 151.177 335.911C150.635 335.728 150.093 335.546 149.535 335.358C141.73 332.969 133.548 334.114 126.226 337.378C122.889 339.154 120.105 341.06 118.887 344.712C118.518 349.207 118.806 351.409 121.823 354.98C129.419 362.761 140.156 363.523 150.444 363.781C152.838 363.787 155.231 363.763 157.625 363.735C158.27 363.728 158.915 363.72 159.58 363.713C160.237 363.705 160.894 363.698 161.571 363.69C162.922 363.674 164.274 363.659 165.626 363.643C166.295 363.635 166.965 363.627 167.655 363.619C178.976 363.506 189.362 364.519 200.347 367.448C198.738 358.871 194.692 352.664 188.688 346.365C187.137 344.712 187.137 344.712 185.698 342.864C174.867 329.697 154.861 319.504 137.968 317.575C130.914 317.028 121.88 317.167 116.502 322.48ZM580.492 324.176C580.461 325.398 580.462 326.621 580.492 327.843C581.289 328.806 581.289 328.806 583.224 328.648C584.033 328.639 584.842 328.631 585.675 328.622C586.486 328.616 587.296 328.609 588.132 328.602C588.759 328.594 589.386 328.585 590.032 328.576C589.234 326.193 589.234 326.193 587.831 324.176C586.593 324.123 585.354 324.114 584.115 324.13C583.441 324.137 582.766 324.143 582.072 324.15C581.55 324.159 581.029 324.167 580.492 324.176ZM651.54 327.11C650.825 327.591 650.825 327.591 650.096 328.083C638.65 335.83 627.343 343.776 616.179 351.924C615.064 352.722 613.924 353.486 612.782 354.246C613.935 358.622 616.268 362.189 618.653 365.981C622.52 364.783 625.426 362.34 628.606 359.93C633.599 356.2 638.63 352.54 643.743 348.975C644.649 348.34 644.649 348.34 645.574 347.692C648.518 345.638 651.478 343.615 654.478 341.643C655.028 341.278 655.578 340.913 656.145 340.537C657.176 339.854 658.214 339.179 659.258 338.514C660.79 337.531 660.79 337.531 662.686 335.911C662.686 332.528 661.91 331.266 660.209 328.393C659.749 327.603 659.289 326.812 658.816 325.998C658.397 325.397 657.979 324.795 657.548 324.176C655.159 324.176 653.459 325.803 651.54 327.11ZM307.93 324.204C307.088 324.21 306.246 324.216 305.379 324.222C303.987 324.233 303.987 324.233 302.567 324.243C301.583 324.25 300.6 324.258 299.616 324.265C296.942 324.284 294.267 324.304 291.593 324.324C288.799 324.345 286.006 324.365 283.212 324.386C277.921 324.424 272.629 324.463 267.337 324.502C261.314 324.547 255.29 324.591 249.267 324.635C236.874 324.727 224.481 324.818 212.089 324.909C212.331 326.361 212.573 327.814 212.823 329.31C223.464 329.206 234.105 329.099 244.746 328.989C245.526 328.981 246.307 328.973 247.111 328.964C270.177 328.725 293.238 328.44 316.298 327.843C315.359 326.591 314.377 325.369 313.363 324.176C311.552 324.176 309.741 324.19 307.93 324.204ZM492.427 326.009C491.859 326.114 491.29 326.219 490.705 326.327C489.321 326.583 487.939 326.846 486.557 327.11C486.557 327.352 486.557 327.594 486.557 327.843C492.611 327.843 498.665 327.843 504.903 327.843C504.903 326.875 504.903 325.907 504.903 324.909C500.589 324.792 496.659 325.196 492.427 326.009ZM6.60484 363.047C6.35185 365.243 6.35185 365.243 7.68271 366.379C8.4206 366.976 8.4206 366.976 9.17339 367.586C11.3026 369.361 13.2732 371.169 15.182 373.178C25.2722 383.321 37.8049 391.023 52.4259 391.193C61.3145 391.108 68.6177 389.263 75.3594 383.308C80.1695 377.852 82.6627 373.221 82.5204 365.755C81.9784 362.481 80.3206 360.685 77.7903 358.647C67.2595 351.549 50.5672 354.942 38.8952 357.18C35.9812 357.84 33.1192 358.629 30.255 359.478C27.7612 360.148 25.3106 360.53 22.75 360.847C22.75 359.879 22.75 358.911 22.75 357.913C37.923 353.128 59.9892 346.387 75.3565 353.719C75.978 354.06 76.5996 354.4 77.2399 354.751C80.8234 356.69 82.6636 356.827 86.5968 355.713C89.7076 354.048 89.7076 354.048 91.7339 351.313C92.0963 348.174 91.9759 346.59 90.3579 343.841C85.6573 338.85 78.1997 338.142 71.7359 337.928C50.044 338.171 21.9252 347.124 6.60484 363.047ZM215.024 343.978C214.96 344.791 214.897 345.604 214.831 346.442C209.348 416.285 209.348 416.285 206.631 445.329C206.561 446.07 206.561 446.07 206.491 446.825C204.914 463.687 204.914 463.687 204.331 468.367C203.989 471.872 204.016 475.407 204.016 478.929C229.445 478.929 254.873 478.929 281.073 478.929C281.096 464.631 281.096 464.631 280.747 450.356C280.713 449.399 280.678 448.443 280.643 447.457C280.55 444.901 280.453 442.346 280.356 439.79C280.253 437.085 280.154 434.38 280.054 431.675C279.887 427.15 279.717 422.624 279.545 418.099C279.348 412.888 279.154 407.677 278.962 402.465C278.777 397.408 278.588 392.351 278.398 387.294C278.318 385.159 278.239 383.023 278.16 380.888C278.051 377.911 277.937 374.934 277.823 371.956C277.792 371.085 277.76 370.213 277.727 369.315C277.54 364.512 277.219 359.755 276.669 354.98C276.193 354.978 275.716 354.977 275.225 354.976C270.76 354.962 266.295 354.921 261.83 354.868C260.151 354.851 258.472 354.84 256.793 354.836C239.184 354.786 239.184 354.786 231.169 350.579C229.868 349.977 228.567 349.377 227.265 348.777C225.476 347.908 223.693 347.027 221.91 346.146C221.331 345.864 220.752 345.583 220.156 345.293C219.644 345.04 219.132 344.787 218.604 344.526C217.132 343.843 217.132 343.843 215.024 343.978ZM281.073 354.98C281.534 371.109 282.021 387.229 282.655 403.352C282.714 404.873 282.774 406.394 282.833 407.915C283.017 412.644 283.203 417.372 283.389 422.1C283.581 426.949 283.769 431.799 283.956 436.648C284.118 440.865 284.283 445.081 284.449 449.297C284.548 451.793 284.646 454.29 284.741 456.787C284.847 459.548 284.957 462.308 285.067 465.069C285.098 465.881 285.128 466.693 285.16 467.53C285.191 468.284 285.221 469.038 285.253 469.814C285.279 470.463 285.304 471.112 285.33 471.78C285.503 474.175 285.87 476.552 286.21 478.929C290.327 478.929 294.444 478.929 298.686 478.929C299.565 477.345 299.565 477.345 300.463 475.729C312.726 453.766 325.702 432.647 346.708 418.009C347.221 417.649 347.734 417.29 348.262 416.92C348.99 416.425 348.99 416.425 349.733 415.92C350.166 415.624 350.6 415.328 351.047 415.023C352.258 414.387 352.258 414.387 354.46 414.387C354.043 416.996 353.387 418.923 352.037 421.189C351.688 421.785 351.338 422.38 350.978 422.994C350.598 423.633 350.218 424.272 349.827 424.93C343.052 436.591 336.801 448.375 331.48 460.777C331.123 461.602 330.766 462.428 330.398 463.278C330.077 464.045 329.756 464.811 329.425 465.601C329.139 466.281 328.853 466.961 328.558 467.662C327.834 469.479 327.834 469.479 328.774 471.595C329.096 471.131 329.418 470.668 329.749 470.191C340.205 455.451 353.544 441.255 370.605 434.19C371.574 434.19 372.542 434.19 373.54 434.19C373.112 436.847 372.397 438.898 371.118 441.261C370.768 441.917 370.417 442.573 370.056 443.248C369.488 444.301 369.488 444.301 368.908 445.375C365.491 451.815 362.183 458.297 359.001 464.856C358.609 465.652 358.218 466.448 357.814 467.268C357.459 468.005 357.104 468.741 356.739 469.5C356.264 470.48 356.264 470.48 355.779 471.48C355.586 472.002 355.393 472.524 355.194 473.062C355.436 473.546 355.678 474.03 355.927 474.528C356.594 473.828 357.261 473.127 357.948 472.405C364.16 465.983 370.555 460.476 377.944 455.459C378.73 454.902 379.516 454.346 380.326 453.772C382.347 452.526 382.347 452.526 384.548 452.526C384.285 456.996 382.133 459.799 379.641 463.344C378.838 464.516 378.036 465.688 377.236 466.862C376.851 467.423 376.466 467.984 376.069 468.562C372.357 473.379 372.357 473.379 370.605 478.929C420.493 478.929 470.382 478.929 521.782 478.929C524.866 468.617 524.866 468.617 524.718 463.527C524.197 463.483 523.675 463.438 523.138 463.392C522.464 463.331 521.789 463.269 521.094 463.206C520.085 463.117 520.085 463.117 519.056 463.026C517.379 462.794 517.379 462.794 516.645 462.06C516.419 460.34 516.237 458.633 516.081 456.906C516.03 456.363 515.978 455.82 515.925 455.261C515.753 453.439 515.586 451.617 515.418 449.795C515.298 448.509 515.177 447.223 515.056 445.938C514.732 442.478 514.411 439.019 514.092 435.559C513.828 432.706 513.561 429.854 513.295 427.001C512.035 413.525 510.794 400.048 509.596 386.566C509.553 386.078 509.509 385.59 509.465 385.088C509.03 380.197 508.6 375.305 508.176 370.413C508.073 369.235 508.073 369.235 507.968 368.034C507.843 366.6 507.719 365.166 507.598 363.732C507.543 363.109 507.488 362.486 507.432 361.844C507.386 361.311 507.34 360.777 507.293 360.228C507.083 358.464 506.72 356.721 506.371 354.98C432.023 354.98 357.674 354.98 281.073 354.98ZM580.492 354.98C580.042 357.676 579.664 360 579.558 362.67C579.52 363.599 579.52 363.599 579.481 364.546C579.456 365.212 579.431 365.879 579.405 366.565C579.377 367.278 579.348 367.991 579.318 368.725C579.224 371.085 579.134 373.445 579.044 375.805C578.98 377.467 578.915 379.13 578.85 380.792C578.714 384.29 578.581 387.787 578.449 391.285C578.315 394.825 578.177 398.364 578.037 401.904C577.258 421.474 576.571 441.006 576.823 460.593C573.432 460.835 570.042 461.077 566.548 461.327C566.624 462.219 566.7 463.112 566.778 464.031C566.82 464.533 566.863 465.035 566.907 465.553C568.126 470.882 572.317 473.4 576.661 476.157C582.062 479.172 586.614 479.397 592.713 479.167C593.588 479.15 594.464 479.132 595.366 479.115C597.503 479.07 599.638 479.008 601.774 478.929C599.698 450.286 597.486 421.654 595.185 393.028C594.985 390.545 594.787 388.063 594.59 385.581C594.276 381.642 593.959 377.704 593.64 373.766C593.521 372.298 593.404 370.831 593.287 369.363C593.127 367.347 592.963 365.331 592.798 363.315C592.751 362.721 592.705 362.127 592.657 361.516C592.465 359.207 592.236 357.186 591.5 354.98C587.867 354.98 584.235 354.98 580.492 354.98ZM116.685 385.05C115.265 387.286 115.218 388.128 115.218 390.918C115.876 391.114 116.535 391.311 117.213 391.514C129.552 395.386 141.218 401.078 150.902 409.758C151.285 410.098 151.668 410.438 152.063 410.788C153.994 412.584 155.316 413.897 155.581 416.588C152.709 416.164 151.185 414.793 149.022 412.921C137.702 403.491 123.589 393.89 108.212 394.373C105.739 394.664 104.028 395.336 102.008 396.785C100.102 399.945 99.9548 402.723 100.54 406.32C103.762 415.967 110.831 422.256 119.433 427.133C123.216 429.016 127.108 430.124 131.179 431.21C132.925 431.705 134.67 432.201 136.414 432.7C137.286 432.947 138.157 433.194 139.055 433.448C150.603 436.766 161.342 440.582 171.726 446.658C172.695 447.213 173.665 447.767 174.636 448.32C175.738 448.95 175.738 448.95 176.863 449.592C181.065 434.977 174.165 416.138 167.231 403.386C161.245 393.464 151.809 384.058 140.43 380.833C132.454 379.112 123.059 379.271 116.685 385.05ZM101.274 417.321C101.264 417.833 101.253 418.345 101.242 418.873C100.911 433.445 100.092 447.958 99.0846 462.497C99.0358 463.208 98.9871 463.918 98.9368 464.649C98.8448 465.983 98.7512 467.317 98.6556 468.65C98.4176 472.087 98.2925 475.484 98.3387 478.929C99.7918 478.566 99.7918 478.566 101.274 478.196C101.382 477.315 101.49 476.435 101.601 475.528C103.555 460.599 107.672 447.646 114.48 434.221C115.311 432.533 116.034 430.821 116.685 429.056C116.241 428.823 115.796 428.591 115.338 428.351C110.644 425.738 107.115 422.669 103.427 418.771C102.959 418.292 102.491 417.814 102.008 417.321C101.766 417.321 101.524 417.321 101.274 417.321ZM344.186 424.655C327.196 438.712 313.072 457.327 303.823 477.462C303.823 477.946 303.823 478.43 303.823 478.929C309.393 478.929 314.963 478.929 320.702 478.929C321.218 477.534 321.735 476.14 322.267 474.703C326.083 464.507 330.114 454.483 334.875 444.687C335.287 443.836 335.699 442.985 336.123 442.108C338.542 437.205 341.16 432.496 344.04 427.847C344.33 427.278 344.62 426.709 344.919 426.122C344.556 425.396 344.556 425.396 344.186 424.655ZM360.055 444.687C359.599 445.015 359.142 445.342 358.671 445.679C354.001 449.091 349.799 452.898 345.653 456.926C345.25 457.311 344.847 457.695 344.431 458.091C341.145 461.279 338.321 464.692 335.563 468.34C334.942 469.142 334.942 469.142 334.31 469.96C332.047 472.93 330.483 475.513 328.774 478.929C335.071 478.929 341.367 478.929 347.855 478.929C352.746 469.861 357.24 460.718 361.472 451.325C362.967 448.013 364.55 444.761 366.202 441.524C363.743 441.524 361.99 443.297 360.055 444.687ZM555.056 445.673C554.029 445.722 553.002 445.771 551.974 445.821C549.293 445.949 546.611 446.08 543.929 446.211C541.184 446.345 538.438 446.477 535.693 446.609C530.322 446.868 524.951 447.129 519.581 447.392C518.44 449.671 519.151 451.603 519.535 454.084C519.678 455.024 519.821 455.964 519.968 456.932C520.082 457.656 520.197 458.38 520.315 459.126C530.953 459.331 541.524 458.99 552.146 458.439C553.086 458.391 553.086 458.391 554.045 458.342C555.864 458.248 557.683 458.151 559.502 458.052C560.31 458.01 560.31 458.01 561.134 457.966C564.915 457.753 568.658 457.369 572.419 456.926C572.419 453.054 572.419 449.181 572.419 445.191C566.619 445.125 560.848 445.387 555.056 445.673ZM92.376 450.096C90.6186 452.118 89.6058 453.328 89.3087 456.012C89.4652 457.55 89.6648 459.085 89.8963 460.613C90.4547 464.336 90.3448 468.068 90.312 471.824C90.3087 472.521 90.3054 473.218 90.302 473.936C90.2934 475.6 90.2815 477.265 90.2661 478.929C91.477 478.929 92.6879 478.929 93.9355 478.929C94.2541 475.735 94.5674 472.54 94.8761 469.345C94.9815 468.262 95.0883 467.178 95.1965 466.095C95.8193 459.852 96.3193 453.675 96.1371 447.392C94.5877 447.392 93.4001 449.103 92.376 450.096ZM85.129 457.66C84.8041 457.966 84.4791 458.272 84.1443 458.588C82.6389 460.006 81.132 461.423 79.625 462.839C79.1142 463.321 78.6033 463.803 78.077 464.299C77.5662 464.779 77.0553 465.259 76.529 465.753C75.7528 466.482 75.7528 466.482 74.9609 467.226C72.993 469.02 70.9456 470.71 68.8678 472.375C66.9986 474.225 66.9986 474.225 64.5807 478.929C71.846 478.929 79.1113 478.929 86.5968 478.929C86.6271 475.828 86.6573 472.727 86.6885 469.532C86.7019 468.556 86.7152 467.581 86.729 466.576C86.7327 465.807 86.7363 465.038 86.7401 464.246C86.7478 463.459 86.7555 462.671 86.7634 461.86C86.7459 459.699 86.7459 459.699 85.129 457.66ZM367.486 468.34C366.841 468.941 366.841 468.941 366.182 469.554C363.284 472.282 360.577 475.05 358.129 478.196C358.129 478.438 358.129 478.68 358.129 478.929C360.859 479.817 362.767 479.973 365.468 478.929C369.065 474.881 371.833 469.378 373.54 464.26C370.951 464.26 369.294 466.642 367.486 468.34Z" fill="black"/>
<path d="M399.958 49.1406C400.927 49.3827 401.895 49.6247 402.893 49.8741C402.651 52.0523 402.409 54.2306 402.16 56.4749C401.191 56.4749 400.222 56.4749 399.224 56.4749C398.374 53.5014 398.61 51.9144 399.958 49.1406Z" fill="black"/>
<path d="M410.968 55.0059C411.936 55.4899 412.905 55.974 413.903 56.4727C413.839 58.4601 413.76 60.4453 413.674 62.4318C413.649 63.2685 413.649 63.2685 413.624 64.1221C413.425 68.3002 412.476 71.2856 409.959 74.7167C408.269 75.8856 407.103 75.7988 405.097 75.5418C404.612 75.0578 404.128 74.5737 403.629 74.075C403.721 72.6081 403.721 72.6081 404.363 71.1413C404.842 70.9304 405.322 70.7196 405.816 70.5024C407.401 69.8144 407.401 69.8144 407.88 68.3193C407.976 67.7832 408.071 67.2472 408.17 66.6949C408.279 66.1106 408.387 65.5263 408.499 64.9243C408.839 62.5648 409.08 60.2056 409.248 57.8278C409.5 56.4727 409.5 56.4727 410.968 55.0059Z" fill="black"/>
<path d="M392.618 74.8086C395.901 75.1835 397.449 76.3977 399.957 78.4757C401.408 79.2418 402.872 79.9844 404.36 80.676C404.118 81.6441 403.876 82.6123 403.626 83.6097C398.899 83.2318 396.338 81.6856 392.664 78.8424C391.884 77.7423 391.884 77.7423 392.113 76.1379C392.28 75.6992 392.446 75.2606 392.618 74.8086Z" fill="black"/>
<path d="M135.03 91.6777C136.819 92.2278 136.819 92.2278 138.699 93.1446C139.433 94.5656 139.433 94.5656 139.433 96.0783C138.607 97.4076 138.607 97.4076 137.231 98.2786C135.259 98.0494 135.259 98.0494 133.562 97.5452C133.057 95.8491 133.057 95.8491 132.828 93.878C133.883 92.5487 133.883 92.5487 135.03 91.6777Z" fill="black"/>
<path d="M586.149 101.013C586.975 101.006 587.8 100.999 588.65 100.992C589.535 100.993 590.42 100.993 591.331 100.994C592.245 100.991 593.16 100.988 594.102 100.985C596.528 100.979 598.954 100.981 601.38 100.986C602.865 100.985 604.35 100.978 605.835 100.968C608.69 100.95 611.546 100.947 614.402 100.948C615.287 100.941 616.171 100.935 617.082 100.928C617.908 100.932 618.733 100.937 619.584 100.942C620.307 100.941 621.031 100.941 621.777 100.94C624.143 101.264 625.529 102.02 627.451 103.415C629.368 107.246 628.415 113.372 628.442 117.639C628.454 119.062 628.474 120.485 628.502 121.909C628.542 123.962 628.558 126.014 628.569 128.068C628.586 128.702 628.602 129.336 628.62 129.99C628.609 132.894 628.373 134.61 626.956 137.189C622.982 139.518 618.962 139.112 614.442 139.055C613.449 139.054 612.456 139.054 611.463 139.055C609.386 139.054 607.31 139.04 605.234 139.017C602.572 138.988 599.912 138.985 597.251 138.99C595.202 138.992 593.153 138.984 591.105 138.971C589.647 138.963 588.188 138.963 586.73 138.963C585.846 138.951 584.962 138.939 584.051 138.927C582.882 138.918 582.882 138.918 581.689 138.909C579.75 138.619 579.75 138.619 578.426 137.638C576.295 134.681 576.695 131.325 576.691 127.85C576.688 127.225 576.686 126.6 576.683 125.957C576.68 124.636 576.678 123.314 576.678 121.993C576.676 119.973 576.663 117.953 576.649 115.933C576.647 114.649 576.646 113.365 576.645 112.081C576.64 111.478 576.634 110.874 576.629 110.252C576.651 104.657 576.651 104.657 578.282 102.681C580.981 101.37 583.164 101.027 586.149 101.013ZM584.153 105.615C584.153 106.099 584.153 106.583 584.153 107.082C584.876 107.478 585.6 107.874 586.346 108.282C588.399 109.453 590.335 110.717 592.257 112.093C592.757 112.451 593.257 112.809 593.772 113.177C594.802 113.921 595.828 114.669 596.851 115.423C597.596 115.953 597.596 115.953 598.357 116.493C598.801 116.817 599.245 117.14 599.702 117.473C601.005 118.206 601.005 118.206 602.451 117.949C604.274 117.229 605.778 116.301 607.413 115.219C608.059 114.794 608.705 114.37 609.371 113.932C610.04 113.487 610.709 113.042 611.398 112.583C612.729 111.704 614.061 110.825 615.394 109.947C615.982 109.556 616.571 109.165 617.177 108.762C618.645 107.815 618.645 107.815 620.112 107.082C619.749 106.356 619.749 106.356 619.379 105.615C607.754 105.615 596.13 105.615 584.153 105.615ZM618.415 112.17C617.623 112.773 616.83 113.375 616.036 113.975C615.623 114.288 615.21 114.601 614.784 114.923C612.679 116.506 610.559 118.064 608.416 119.596C607.653 120.149 606.889 120.702 606.103 121.272C603.783 122.589 602.893 123.027 600.298 122.484C598.57 121.424 597.03 120.369 595.436 119.138C591.066 115.834 586.61 112.978 581.951 110.016C581.951 118.003 581.951 125.99 581.951 134.219C587.292 134.234 592.633 134.249 597.973 134.257C600.46 134.261 602.947 134.266 605.434 134.274C608.285 134.284 611.136 134.287 613.986 134.29C615.329 134.296 615.329 134.296 616.699 134.302C617.522 134.302 618.344 134.302 619.192 134.302C619.92 134.304 620.649 134.305 621.399 134.307C623.026 134.404 623.026 134.404 623.782 133.485C623.847 131.69 623.866 129.915 623.853 128.119C623.852 127.583 623.851 127.047 623.85 126.495C623.846 124.776 623.837 123.057 623.828 121.338C623.824 120.175 623.821 119.013 623.818 117.85C623.809 114.994 623.797 112.138 623.782 109.282C621.448 109.282 620.233 110.763 618.415 112.17Z" fill="black"/>
<path d="M190.941 122.022C191.38 122.173 191.819 122.325 192.271 122.48C192.513 123.933 192.755 125.385 193.005 126.881C190.803 128.348 190.803 128.348 189.244 128.119C187.868 127.614 187.868 127.614 187.134 126.881C186.95 125.093 186.95 125.093 187.134 123.214C189.335 121.747 189.335 121.747 190.941 122.022Z" fill="black"/>
<path d="M110.077 169.42C112.05 170.062 112.05 170.062 113.747 170.887C113.839 172.629 113.839 172.629 113.747 174.554C113.262 175.038 112.778 175.522 112.279 176.021C108.936 175.613 108.936 175.613 107.876 174.554C107.692 172.766 107.692 172.766 107.876 170.887C108.602 170.403 109.329 169.919 110.077 169.42Z" fill="black"/>
<path d="M666.032 220.621C667.821 220.759 667.821 220.759 668.555 221.492C668.692 223.28 668.692 223.28 668.555 225.159C668.07 225.643 667.586 226.127 667.087 226.626C665.16 226.351 665.16 226.351 663.417 225.893C662.959 224.151 662.959 224.151 662.684 222.225C664.151 220.759 664.151 220.759 666.032 220.621Z" fill="black"/>
<path d="M64.1745 252.115C65.1054 252.206 65.1054 252.206 66.0551 252.299C67.5228 254.499 67.5228 254.499 67.4311 256.012C66.5991 257.853 65.6983 258.186 63.8535 258.899C62.8847 258.173 61.916 257.447 60.918 256.699C61.6956 252.369 61.6956 252.369 64.1745 252.115Z" fill="black"/>
<path d="M691.301 297.771C691.759 299.513 691.759 299.513 692.035 301.438C690.567 302.905 690.567 302.905 688.686 303.042C686.897 302.905 686.897 302.905 686.164 302.171C686.134 300.705 686.132 299.237 686.164 297.771C688.121 296.793 689.221 297.279 691.301 297.771Z" fill="black"/>
<path d="M470.406 387.984C470.865 389.725 470.865 389.725 471.14 391.651C469.672 393.118 469.672 393.118 467.746 393.209C467.171 393.179 466.595 393.149 466.003 393.118C465.223 391.788 465.223 391.788 464.535 390.184C464.777 389.458 465.02 388.732 465.269 387.984C467.226 387.006 468.327 387.491 470.406 387.984Z" fill="black"/>
<path d="M246.577 417.32C248.55 417.962 248.55 417.962 250.247 418.787C250.339 420.529 250.339 420.529 250.247 422.454C249.762 422.938 249.278 423.422 248.779 423.921C245.436 423.514 245.436 423.514 244.376 422.454C244.192 420.667 244.192 420.667 244.376 418.787C245.102 418.303 245.829 417.819 246.577 417.32Z" fill="black"/>
<path d="M648.743 437.031C650.944 437.123 650.944 437.123 651.678 437.856C651.816 439.644 651.816 439.644 651.678 441.523C651.194 442.008 650.709 442.492 650.21 442.99C646.867 442.583 646.867 442.583 645.807 441.523C645.715 439.69 645.715 439.69 645.807 437.856C646.541 437.123 646.541 437.123 648.743 437.031Z" fill="black"/>
</g>
<defs>
<clipPath id="clip0_250_129">
<rect width="728" height="520" fill="white"/>
</clipPath>
</defs>
</svg>
