<svg width="441" height="315" viewBox="0 0 441 315" fill="none" xmlns="http://www.w3.org/2000/svg">
<g clip-path="url(#clip0_250_129)">
<path d="M247.173 0.00128146C247.567 0.621652 247.957 1.24495 248.325 1.88083C249.161 2.92994 250.111 3.47321 251.258 4.16648C256.646 7.45031 260.43 11.6536 262.288 17.7728C262.288 18.2126 262.288 18.6525 262.288 19.1057C262.665 19.2139 263.042 19.3221 263.431 19.4337C265.106 20.0497 266.53 20.8799 268.012 21.8547C268.283 22.0327 268.555 22.2108 268.835 22.3942C274.373 26.0831 274.373 26.0831 275.319 28.7411C275.18 30.2128 275.18 30.2128 274.22 31.1778C271.981 32.6186 269.752 32.3059 267.178 31.99C264.611 31.4135 262.114 30.604 259.621 29.7686C257.927 32.9308 256.681 36.1211 255.537 39.5151C254.265 43.1608 252.871 46.6522 251.063 50.067C250.797 50.5725 250.797 50.5725 250.525 51.0882C248.98 53.904 247.196 56.3634 244.506 58.203C244.066 58.203 243.626 58.203 243.172 58.203C243.172 58.4962 243.172 58.7894 243.172 59.0916C243.519 59.1265 243.866 59.1614 244.223 59.1974C246.406 59.6545 248.332 60.5005 250.369 61.3963C250.813 61.5908 251.257 61.7853 251.715 61.9857C260.675 65.9778 269.27 70.7865 277.848 75.5302C278.242 75.7484 278.637 75.9666 279.044 76.1914C281.314 77.4482 283.583 78.7089 285.85 79.9731C285.866 79.6389 285.882 79.3048 285.899 78.9605C286.148 74.9175 286.821 71.0163 287.656 67.061C287.724 66.7347 287.792 66.4084 287.862 66.0722C294.92 32.3939 294.92 32.3939 305.971 23.158C308.607 21.4591 311.26 21.4743 314.301 21.7714C319.556 23.0097 324.957 27.2353 327.89 31.7227C329.805 35.0923 330.193 37.8858 329.861 41.7643C329.449 43.1522 329.037 43.7201 328.083 44.8743C327.633 45.0393 327.184 45.2042 326.721 45.3742C325.302 46.0805 325.302 46.0805 325.026 47.4915C324.822 48.5263 324.621 49.5618 324.424 50.598C323.955 52.4949 323.469 53.1318 321.859 54.2044C320.747 54.6487 320.747 54.6487 319.636 54.6487C318.012 53.9146 317.011 53.0565 316.08 51.5387C316.08 51.2454 316.08 50.9522 316.08 50.6501C315.053 50.7967 314.026 50.9433 312.968 51.0944C313.114 51.5342 313.261 51.9741 313.412 52.4272C314.38 59.7327 314.396 67.1745 314.413 74.5306C314.415 74.9246 314.417 75.3186 314.419 75.7246C314.474 87.4541 314.474 87.4541 312.968 91.9688C313.418 91.832 313.868 91.6952 314.332 91.5543C316.769 90.86 319.26 90.5817 321.768 90.254C322.658 90.137 323.548 90.0145 324.437 89.8915C330.927 89.0292 330.927 89.0292 333.862 89.3031C334.571 90.0122 334.377 90.7481 334.381 91.7283C334.356 94.0483 334.026 96.2165 333.56 98.4839C333.483 98.8735 333.406 99.2631 333.327 99.6645C333.083 100.895 332.833 102.124 332.584 103.354C332.42 104.181 332.256 105.008 332.092 105.835C331.417 109.231 330.725 112.607 329.861 115.96C330.124 115.869 330.387 115.778 330.658 115.684C331.009 115.565 331.361 115.445 331.722 115.322C332.068 115.203 332.414 115.085 332.77 114.962C337.507 113.51 343.512 113.525 348.088 115.516C353.431 118.469 357.267 123.145 360.508 128.206C360.813 128.674 361.119 129.143 361.435 129.625C362.325 130.991 363.209 132.361 364.092 133.732C364.533 134.409 364.974 135.085 365.417 135.761C366.404 137.271 367.381 138.788 368.355 140.307C368.793 140.99 369.232 141.673 369.671 142.354C376.393 152.786 382.791 163.41 388.987 174.162C389.268 174.65 389.549 175.138 389.839 175.64C393.985 182.839 398.066 190.072 402.074 197.349C402.527 198.164 402.987 198.976 403.454 199.783C403.659 200.139 403.864 200.496 404.076 200.863C404.256 201.17 404.436 201.478 404.622 201.795C404.991 202.596 404.991 202.596 404.88 203.818C403.802 205.203 402.525 206.189 400.99 207.039C400.697 207.039 400.403 207.039 400.101 207.039C400.478 207.642 400.478 207.642 400.863 208.256C401.193 208.785 401.522 209.315 401.851 209.844C402.017 210.108 402.183 210.373 402.354 210.645C403.074 211.805 403.668 212.847 404.102 214.148C404.383 214.104 404.663 214.061 404.953 214.016C407.888 213.561 410.823 213.107 413.759 212.654C414.853 212.485 415.946 212.315 417.04 212.146C418.617 211.901 420.194 211.658 421.771 211.415C422.256 211.339 422.741 211.264 423.241 211.186C426.874 210.627 430.453 210.079 434.137 210.122C434.596 210.126 435.055 210.13 435.528 210.134C436.036 210.141 438.333 209.844 440.111 211.186C441.342 214.927 441 218.035 436.554 221.257C431.442 225.477 426.564 228.521 421.518 231.447C418.524 233.196 415.676 235.14 412.829 237.117C411.454 238.068 410.066 238.999 408.679 239.934C406.735 241.248 404.801 242.576 402.875 243.918C401.772 244.685 400.664 245.445 399.555 246.204C399.037 246.562 398.521 246.922 398.007 247.286C397.303 247.784 396.59 248.271 395.878 248.757C395.479 249.035 395.08 249.313 394.669 249.6C393.04 250.305 392.022 250.113 390.321 249.691C386.534 246.025 384.902 239.313 383.708 234.335C382.671 230.202 380.674 226.566 378.318 223.034C377.997 223.327 377.676 223.62 377.345 223.922C375.959 224.907 375.519 225.067 373.872 224.811C373.089 224.009 373.089 224.009 372.391 222.898C372.01 222.303 372.01 222.303 371.622 221.696C371.365 221.276 371.108 220.856 370.843 220.424C370.578 220.007 370.312 219.591 370.039 219.162C368.093 216.073 368.093 216.073 368.093 215.037C365.892 215.037 363.692 215.037 361.424 215.037C361.489 215.817 361.553 216.597 361.62 217.4C362.379 226.58 363.133 235.76 363.885 244.941C364.025 246.654 364.165 248.367 364.306 250.08C364.705 254.949 365.103 259.818 365.498 264.687C365.673 266.841 365.849 268.995 366.026 271.149C366.193 273.19 366.359 275.231 366.524 277.272C366.585 278.025 366.646 278.777 366.709 279.529C366.794 280.564 366.877 281.6 366.96 282.635C367.008 283.215 367.055 283.795 367.103 284.393C367.214 286.299 367.204 288.211 367.204 290.121C383.634 290.121 400.065 290.121 416.994 290.121C417.141 290.708 417.287 291.294 417.439 291.898C416.549 292.787 416.549 292.787 415.547 292.897C414.915 292.897 414.915 292.897 414.271 292.897C413.789 292.899 413.306 292.9 412.809 292.902C412.012 292.899 412.012 292.899 411.198 292.895C410.64 292.896 410.082 292.897 409.507 292.897C407.974 292.9 406.441 292.896 404.908 292.892C403.306 292.888 401.704 292.889 400.102 292.889C397.411 292.888 394.72 292.884 392.03 292.878C388.916 292.871 385.802 292.869 382.689 292.869C379.697 292.87 376.705 292.867 373.713 292.864C372.439 292.862 371.164 292.861 369.889 292.861C368.11 292.861 366.332 292.856 364.553 292.851C364.021 292.852 363.489 292.852 362.942 292.852C362.459 292.85 361.977 292.848 361.48 292.846C361.059 292.846 360.638 292.845 360.204 292.844C359.202 292.787 359.202 292.787 358.313 292.343C358.313 292.636 358.313 292.929 358.313 293.231C358.622 293.276 358.931 293.32 359.249 293.366C360.766 293.731 361.957 294.336 363.335 295.067C363.73 295.277 363.73 295.277 364.134 295.491C364.69 295.788 365.246 296.086 365.801 296.385C366.637 296.835 367.476 297.277 368.315 297.719C373.395 300.423 379.431 303.913 381.429 309.67C381.735 313.059 381.735 313.059 380.985 314.557C377.242 315.55 373.103 314.831 369.301 314.486C368.594 314.424 367.886 314.363 367.179 314.301C359.738 313.64 352.325 312.751 344.912 311.827C343.508 311.653 342.103 311.482 340.698 311.311C336.66 310.819 332.624 310.312 328.589 309.792C327.64 309.67 326.692 309.55 325.743 309.43C323.989 309.207 322.236 308.973 320.484 308.738C319.703 308.639 319.703 308.639 318.907 308.539C318.198 308.44 318.198 308.44 317.473 308.34C317.062 308.286 316.651 308.231 316.227 308.175C315.052 307.855 314.586 307.524 313.857 306.56C313.137 302.038 314.466 297.134 315.191 292.787C268.539 292.787 221.887 292.787 173.822 292.787C173.822 292.787 170.18 292.787 170.265 292.787C169.78 292.787 169.78 292.787 169.286 292.788C150.145 292.808 131.005 292.823 111.864 292.832C109.568 292.833 107.272 292.835 104.976 292.836C104.519 292.836 104.062 292.836 103.591 292.836C96.1807 292.84 88.7702 292.847 81.3597 292.855C73.7611 292.864 66.1625 292.869 58.5639 292.871C53.8716 292.872 49.1794 292.876 44.4872 292.883C41.2736 292.887 38.06 292.889 34.8464 292.888C32.9897 292.887 31.1331 292.888 29.2765 292.893C27.5791 292.897 25.8818 292.897 24.1844 292.894C23.5681 292.894 22.9518 292.895 22.3355 292.898C21.5022 292.901 20.6688 292.899 19.8354 292.896C19.3712 292.897 18.907 292.897 18.4287 292.897C17.3377 292.787 17.3377 292.787 16.4486 291.898C16.5953 291.312 16.742 290.725 16.8931 290.121C23.2014 289.975 29.5097 289.828 36.0091 289.677C35.1289 287.918 34.2486 286.158 33.3417 284.345C32.8356 283.075 32.3583 281.833 31.9247 280.541C31.8146 280.218 31.7044 279.895 31.591 279.562C31.2804 278.64 30.9768 277.717 30.6744 276.793C30.5265 276.357 30.3787 275.922 30.2264 275.474C28.1293 268.718 28.357 260.956 31.2926 254.502C33.1807 251.186 35.8138 248.14 39.5655 247.025C42.9119 246.193 45.4488 246.71 48.4567 248.358C49.6514 249.247 49.6514 249.247 50.2349 250.135C50.1637 251.006 50.1637 251.006 49.7903 251.912C48.9811 252.513 48.9811 252.513 47.9565 253.079C42.3647 256.627 40.4345 263.585 39.0237 269.712C38.5278 272.052 38.3224 274.404 38.2319 276.793C38.672 276.793 39.1121 276.793 39.5655 276.793C39.5423 276.019 39.5423 276.019 39.5186 275.231C39.5207 273.35 39.8356 271.609 40.3157 269.795C40.4358 269.334 40.4358 269.334 40.5583 268.864C42.0255 263.438 44.1933 257.937 48.8717 254.507C50.3239 253.917 51.7906 253.846 53.3468 253.69C53.4929 244.363 53.4929 244.363 52.9578 235.057C52.9229 234.691 52.888 234.324 52.8521 233.946C52.6241 231.851 52.2057 229.93 51.5686 227.921C51.3898 228.292 51.3898 228.292 51.2073 228.671C48.645 233.658 44.9444 236.648 39.6767 238.473C32.3658 240.8 24.8653 239.503 18.1715 236.057C13.5577 233.569 9.87083 230.338 6.23725 226.608C4.29716 224.623 2.27454 222.856 0 221.257C0.466372 218.234 3.57658 216.575 5.86606 214.863C15.7275 207.852 28.6933 202.664 40.8992 202.152C41.2132 202.134 41.5273 202.117 41.8508 202.098C46.7812 201.948 52.2259 202.572 55.9759 206.052C57.754 208.044 58.4122 209.594 58.3567 212.347C58.15 213.922 57.5032 214.751 56.4587 215.925C53.5438 218.147 53.5438 218.147 51.5686 218.147C52.4281 220.98 53.2989 223.798 54.2915 226.588C56.3876 232.967 56.0766 239.309 55.8953 245.934C55.8632 247.183 55.8448 248.431 55.8283 249.681C55.814 250.064 55.7998 250.447 55.7851 250.842C55.7765 251.84 55.783 252.718 56.0141 253.69C57.0473 254.62 57.0473 254.62 58.2369 255.022C58.3836 255.169 58.5303 255.316 58.6815 255.467C58.7233 251.543 58.7622 247.686 58.2473 243.787C58.2366 242.547 58.517 241.606 58.8864 240.432C59.425 238.275 59.5042 236.017 59.7095 233.808C60.8232 223 63.7245 213.81 70.6845 205.262C70.0656 204.781 70.0656 204.781 69.4342 204.29C67.8708 202.961 66.8307 201.902 66.5428 199.785C66.4244 197.235 66.6888 195.664 68.4617 193.711C72.1198 190.396 76.9654 189.546 81.7776 189.618C95.2198 190.548 106.69 197.638 115.892 207.192C120.313 212.275 124.26 217.849 124.031 224.811C123.885 224.957 123.738 225.104 123.587 225.255C120.58 225.094 117.736 224.415 114.826 223.682C114.362 223.568 114.362 223.568 113.888 223.45C113.616 223.381 113.343 223.312 113.062 223.24C109.788 222.586 106.629 222.547 103.302 222.593C102.291 222.601 101.279 222.608 100.267 222.615C98.6913 222.629 97.1152 222.645 95.5392 222.666C78.0755 222.882 78.0755 222.882 72.3776 217.706C71.0021 216.185 69.9403 214.584 68.9063 212.815C64.8486 219.979 62.3573 228.52 62.6825 236.807C64.1495 236.66 65.6165 236.513 67.128 236.362C67.2105 235.758 67.2931 235.153 67.3781 234.53C67.8403 232.514 68.5107 231.487 70.1739 230.269C74.8861 227.452 80.2493 227.166 85.565 228.23C94.1894 230.877 100.333 237.604 104.521 245.345C108.27 252.622 109.884 260.271 109.889 268.407C109.894 268.925 109.9 269.443 109.905 269.977C109.906 270.477 109.907 270.977 109.908 271.492C109.91 271.945 109.912 272.397 109.913 272.864C109.801 274.183 109.47 275.152 108.916 276.348C107.131 276.081 106.013 275.158 104.582 274.099C96.5166 268.37 82.8395 262.131 72.9073 262.131C67.6767 271.297 65.7082 279.445 63.5716 290.121C82.643 290.121 101.715 290.121 121.364 290.121C121.364 288.655 121.364 287.189 121.364 285.678C121.428 284.537 121.506 283.397 121.6 282.258C121.626 281.944 121.651 281.629 121.677 281.305C121.762 280.268 121.848 279.231 121.935 278.194C121.997 277.444 122.058 276.694 122.119 275.945C122.251 274.338 122.383 272.731 122.517 271.124C122.728 268.583 122.936 266.042 123.144 263.501C123.473 259.484 123.804 255.466 124.136 251.449C124.73 244.249 125.323 237.048 125.913 229.848C126.121 227.322 126.329 224.796 126.538 222.27C126.668 220.701 126.797 219.131 126.925 217.562C126.985 216.834 127.046 216.106 127.106 215.379C127.189 214.386 127.27 213.392 127.351 212.399C127.397 211.843 127.443 211.288 127.491 210.715C127.539 209.995 127.539 209.995 127.588 209.261C127.618 208.852 127.649 208.444 127.681 208.023C127.685 206.871 127.685 206.871 126.337 205.929C126.094 205.743 125.85 205.556 125.599 205.365C123.384 203.581 123.066 200.82 122.698 198.154C122.698 197.567 122.698 196.981 122.698 196.376C122.248 196.422 121.799 196.468 121.336 196.515C118.223 196.499 115.351 195.222 112.473 194.155C112.095 194.019 111.718 193.884 111.329 193.744C110.122 193.308 108.922 192.859 107.722 192.406C107.339 192.267 106.956 192.129 106.561 191.987C104.227 191.079 102.897 190.313 101.803 187.935C101.599 186.54 101.599 186.54 101.637 185.158C101.642 184.698 101.648 184.237 101.654 183.763C101.803 182.604 101.803 182.604 102.693 181.715C103.61 181.608 103.61 181.608 104.752 181.614C105.179 181.614 105.607 181.614 106.047 181.614C106.509 181.619 106.971 181.623 107.447 181.628C107.92 181.629 108.392 181.631 108.879 181.632C110.392 181.637 111.905 181.648 113.417 181.659C114.441 181.664 115.465 181.668 116.489 181.672C119.003 181.681 121.517 181.696 124.031 181.715C123.948 181.129 123.948 181.129 123.864 180.531C123.255 176.114 122.788 171.694 122.375 167.255C122.306 166.53 122.238 165.806 122.169 165.082C122.027 163.579 121.886 162.077 121.746 160.574C121.565 158.649 121.384 156.723 121.201 154.798C121.061 153.309 120.92 151.82 120.78 150.331C120.714 149.621 120.647 148.91 120.579 148.199C120.486 147.212 120.394 146.224 120.302 145.237C120.249 144.676 120.197 144.115 120.142 143.537C120.03 142.173 120.03 142.173 120.03 140.84C119.456 140.845 118.881 140.85 118.29 140.855C116.164 140.871 114.038 140.881 111.912 140.889C110.991 140.894 110.07 140.9 109.149 140.908C107.827 140.918 106.505 140.923 105.183 140.927C104.769 140.932 104.356 140.936 103.93 140.941C103.356 140.941 103.356 140.941 102.77 140.941C102.264 140.944 102.264 140.944 101.747 140.947C100.914 140.84 100.914 140.84 100.025 139.952C99.8497 139.019 99.8497 139.019 99.7595 137.864C99.7245 137.44 99.6895 137.016 99.6534 136.579C99.6202 136.125 99.587 135.671 99.5529 135.204C99.5163 134.741 99.4797 134.279 99.4419 133.803C99.3359 132.446 99.2355 131.09 99.1361 129.733C99.0847 129.071 99.0332 128.409 98.9815 127.746C98.4431 120.417 98.4431 120.417 98.6915 118.182C99.5807 117.293 99.5807 117.293 101.355 117.192C102.121 117.193 102.888 117.198 103.655 117.206C104.26 117.208 104.26 117.208 104.877 117.21C106.168 117.215 107.459 117.226 108.75 117.238C109.624 117.242 110.498 117.246 111.372 117.25C113.517 117.26 115.662 117.275 117.807 117.293C117.807 116.267 117.807 115.241 117.807 114.183C117.295 114.255 116.783 114.327 116.256 114.401C114.374 114.635 112.524 114.699 110.629 114.702C110.3 114.704 109.972 114.705 109.634 114.707C108.947 114.709 108.26 114.71 107.574 114.71C106.52 114.711 105.467 114.719 104.413 114.727C103.744 114.729 103.074 114.729 102.404 114.73C102.089 114.733 101.775 114.736 101.45 114.74C99.2378 114.729 99.2378 114.729 98.247 113.739C98.075 112.607 97.9544 111.511 97.8684 110.372C97.8401 110.033 97.8117 109.694 97.7825 109.345C97.7231 108.623 97.6657 107.902 97.6101 107.18C97.5263 106.097 97.4357 105.015 97.344 103.933C97.174 101.872 97.0313 99.8097 96.9133 97.7446C96.8953 97.4311 96.8774 97.1177 96.8589 96.7947C96.8153 95.9294 96.7892 95.0633 96.764 94.1972C96.7413 93.4672 96.7413 93.4672 96.7182 92.7225C96.9133 91.5246 96.9133 91.5246 97.5739 90.7953C99.1898 89.9226 100.751 89.9965 102.543 89.9996C102.932 89.9951 103.322 89.9905 103.723 89.9859C105.018 89.9724 106.312 89.9684 107.607 89.9643C108.521 89.9568 109.435 89.9488 110.348 89.9402C112.77 89.919 115.191 89.9058 117.613 89.8942C120.009 89.8813 122.405 89.8603 124.801 89.8403C135.954 89.751 147.108 89.7269 158.262 89.7474C158.291 89.4142 158.319 89.0809 158.349 88.7376C158.387 88.2992 158.426 87.8608 158.465 87.4091C158.503 86.9751 158.541 86.5411 158.579 86.0939C159.508 77.0971 164.711 67.9556 171.599 62.2016C179.927 56.5096 190.581 54.012 200.577 53.6508C201.07 53.6271 201.563 53.6034 202.072 53.579C203.058 53.534 204.045 53.5048 205.033 53.4935C207.683 53.3677 207.683 53.3677 209.91 52.053C210.732 51.0314 211.406 50.0118 212.053 48.8729C212.3 48.4476 212.3 48.4476 212.552 48.0138C215.851 41.9646 215.851 41.9646 216.805 35.4523C216.495 34.5761 216.495 34.5761 215.832 33.545C214.468 31.2728 214.448 28.8037 214.721 26.2143C215.295 24.2101 215.864 22.6492 217.621 21.4503C219.178 20.0189 219.256 18.6631 219.583 16.6343C220.572 11.5255 222.459 7.22746 226.724 3.99987C230.872 1.62735 234.813 0.74256 239.533 0.889857C240.276 0.912534 241.02 0.93122 241.764 0.945393C242.25 0.960856 242.25 0.960856 242.747 0.976632C244.567 0.795172 245.188 -0.385908 247.173 0.00128146ZM225.835 8.44275C223.947 10.9927 223.081 13.8503 222.278 16.8842C223.64 16.8205 225.001 16.7555 226.363 16.6898C226.738 16.6724 227.114 16.6549 227.501 16.6369C229.646 16.5325 231.782 16.3914 233.922 16.2091C237.264 15.9469 240.599 15.8897 243.95 15.8846C244.416 15.883 244.416 15.883 244.89 15.8814C249.618 15.8755 254.128 16.1644 258.732 17.3285C258.184 13.4743 255.246 10.3915 252.36 7.94987C244.636 2.47943 232.925 0.942062 225.835 8.44275ZM232.948 18.6614C234.052 20.8685 238.681 21.8876 240.95 22.66C243.838 23.4962 246.786 24.0807 249.73 24.687C251.299 25.0207 252.866 25.3598 254.434 25.7006C255 25.8229 255 25.8229 255.577 25.9477C258.866 26.6676 262.098 27.5366 265.3 28.5799C267.629 29.3124 269.624 29.4182 272.069 29.3243C269.924 24.6572 263.26 21.8885 258.732 19.9942C254.035 18.3111 249.342 18.1406 244.395 18.1615C243.906 18.1624 243.417 18.1633 242.913 18.1641C239.572 18.1819 236.27 18.2917 232.948 18.6614ZM219.25 23.3542C217.75 25.024 217.446 26.4524 217.249 28.6578C217.452 30.9277 218.118 32.291 219.75 33.8782C221.01 34.6982 222.168 35.1417 223.612 35.5443C223.465 35.9841 223.318 36.424 223.167 36.8772C222.14 36.8772 221.113 36.8772 220.055 36.8772C219.958 37.1206 219.861 37.364 219.76 37.6148C219.454 38.38 219.146 39.1447 218.838 39.9091C218.442 40.9065 218.055 41.9077 217.675 42.9115C215.768 47.9113 213.824 52.7228 209.386 55.9815C209.952 59.6955 212.552 62.1022 215.356 64.4317C218.825 66.9738 223.549 69.9944 228.057 69.3102C230.554 67.9294 231.366 65.5635 232.447 63.0624C232.724 62.4554 232.724 62.4554 233.007 61.8362C234.122 59.6362 234.122 59.6362 233.837 57.3144C233.011 56.596 233.011 56.596 232.003 55.8982C227.114 52.2067 227.114 52.2067 226.418 49.4318C226.349 48.9352 226.349 48.9352 226.279 48.4286C227.159 48.2087 227.159 48.2087 228.057 47.9844C228.277 48.3074 228.277 48.3074 228.5 48.6369C230.721 51.765 233.964 53.8743 235.615 54.2044C243.964 55.8732 245.84 50.8722 243.7 55.3984C250.024 49.9269 252.727 39.8048 255.249 32.1718C255.635 31.059 256.063 29.97 256.509 28.88C254.969 28.2173 253.521 27.7943 251.873 27.4968C251.412 27.4107 250.951 27.3245 250.477 27.2358C249.992 27.1461 249.507 27.0564 249.007 26.964C245.115 26.2243 241.443 25.3332 237.746 23.913C236.44 23.5297 235.938 23.4011 234.726 23.9928C233.804 24.8829 233.804 24.8829 232.948 25.9643C231.025 28.3018 231.025 28.3018 229.391 28.88C227.946 28.7134 227.946 28.7134 226.724 28.4357C226.648 28.1625 226.573 27.8893 226.495 27.6079C225.857 25.4189 225.857 25.4189 224.612 23.5485C222.647 22.6758 221.184 22.2803 219.25 23.3542ZM303.632 29.7686C302.745 31.1232 301.983 32.5222 301.243 33.9615C301.035 34.3648 300.827 34.768 300.613 35.1834C292.233 51.9216 289.272 70.8495 287.628 89.3031C287.041 89.1565 286.454 89.0099 285.85 88.8588C285.703 86.8062 285.556 84.7536 285.405 82.6388C283.498 81.7591 281.591 80.8794 279.626 79.9731C279.55 80.6231 279.475 81.2731 279.397 81.9429C278.748 87.311 277.898 92.5161 276.514 97.7446C281.212 97.516 285.798 96.8035 290.433 96.0357C291.673 95.8306 292.913 95.6302 294.154 95.4303C299.423 94.5721 304.643 93.5596 309.856 92.4131C312.779 82.4479 311.759 71.2366 311.26 60.9887C311.215 60.0614 311.174 59.1339 311.139 58.2062C311.09 57.037 311.019 55.8717 310.939 54.7042C310.929 54.3667 310.918 54.0292 310.907 53.6815C310.851 52.6004 310.851 52.6004 310.3 51.0944C309.443 50.3992 308.569 49.8979 307.597 49.3775C306.424 48.6835 305.985 47.9101 305.438 46.6793C305.267 46.2961 305.097 45.913 304.921 45.5182C304.464 44.2729 304.181 43.0879 304.077 41.7643C304.81 41.7643 305.544 41.7643 306.299 41.7643C306.375 42.0272 306.451 42.2901 306.529 42.5609C307.18 44.6825 307.756 46.4245 309.411 47.9844C310.799 48.5831 310.799 48.5831 312.079 48.8729C311.988 48.578 311.896 48.283 311.803 47.9792C311.683 47.5868 311.563 47.1945 311.44 46.7903C311.321 46.4038 311.202 46.0172 311.08 45.6189C310.55 43.738 310.244 42.0046 310.257 40.0479C310.259 39.4573 310.259 39.4573 310.261 38.8548C310.267 38.247 310.267 38.247 310.273 37.6269C310.275 37.2131 310.277 36.7993 310.279 36.373C310.284 35.3563 310.291 34.3396 310.3 33.3229C310.887 33.3229 311.474 33.3229 312.079 33.3229C312.111 34.0711 312.111 34.0711 312.145 34.8345C312.281 41.6112 312.281 41.6112 315.191 47.5401C315.484 47.5401 315.777 47.5401 316.08 47.5401C316.558 45.1211 316.667 42.7214 316.774 40.2649C316.803 39.6472 316.803 39.6472 316.832 39.017C316.879 38.0076 316.925 36.9981 316.969 35.9886C317.556 35.842 318.142 35.6954 318.747 35.5443C319.246 39.359 319.148 42.7522 318.485 46.5315C318.221 48.3028 318.153 49.3604 319.169 50.8878C319.47 51.2492 319.771 51.6106 320.081 51.9829C321.59 50.8177 321.959 49.3393 322.303 47.5401C322.467 45.7738 322.528 44.009 322.581 42.2364C322.598 41.763 322.616 41.2897 322.633 40.802C322.675 39.6419 322.713 38.4818 322.748 37.3215C323.335 37.3215 323.922 37.3215 324.526 37.3215C324.966 40.1804 324.966 40.1804 325.415 43.0972C327.211 41.6057 327.211 41.6057 327.445 40.3308C327.439 36.2123 325.945 33.3241 323.137 30.3517C319.883 27.2896 316.199 24.7023 311.662 24.2705C307.915 24.3987 305.781 27.0123 303.632 29.7686ZM170.265 67.533C169.989 67.7947 169.714 68.0565 169.43 68.3261C157.367 80.5979 158.716 104.897 158.262 120.848C160.718 120.666 163.141 120.433 165.564 119.987C174.285 118.395 182.733 118.309 191.604 118.182C191.897 108.065 192.191 97.949 192.493 87.526C193.226 87.3794 193.96 87.2327 194.716 87.0817C194.61 91.4187 194.502 95.7556 194.391 100.092C194.34 102.106 194.289 104.12 194.24 106.133C194.193 108.075 194.144 110.016 194.093 111.958C194.074 112.7 194.056 113.443 194.038 114.185C194.014 115.222 193.987 116.258 193.959 117.294C193.952 117.604 193.945 117.914 193.938 118.233C193.877 120.353 193.877 120.353 193.382 120.848C192.062 120.994 190.741 121.141 189.381 121.292C189.381 125.25 189.381 129.209 189.381 133.288C193.187 133.754 196.994 134.218 200.801 134.678C202.569 134.892 204.338 135.106 206.105 135.323C207.814 135.533 209.524 135.74 211.233 135.946C211.882 136.024 212.531 136.103 213.18 136.184C219.822 137.144 219.822 137.144 226.352 136.096C226.823 135.939 227.294 135.783 227.78 135.622C228.256 135.456 228.733 135.291 229.224 135.12C237.75 132.243 237.75 132.243 242.506 132.343C242.871 132.347 243.237 132.352 243.613 132.356C244.504 132.366 245.394 132.382 246.284 132.399C247.924 126.756 249.026 121.036 250.119 115.266C250.382 113.88 250.645 112.495 250.911 111.109C251.076 110.255 251.238 109.4 251.398 108.545C252.249 104.11 252.249 104.11 252.953 102.632C254.053 102.192 254.053 102.192 255.175 101.743C255.616 97.0515 256.056 92.3598 256.509 87.526C257.096 87.6726 257.683 87.8192 258.287 87.9703C258.141 92.2221 257.994 96.4739 257.843 100.855C263.221 100.092 263.221 100.092 268.595 99.2996C268.959 99.2475 269.323 99.1954 269.697 99.1417C270.046 99.0884 270.395 99.0351 270.754 98.9803C271.061 98.9347 271.369 98.8892 271.685 98.8423C272.654 98.6467 272.654 98.6467 273.847 97.7446C274.217 96.964 274.217 96.964 274.432 96.0455C274.569 95.5296 274.569 95.5296 274.71 95.0031C274.846 94.4496 274.846 94.4496 274.986 93.8848C275.082 93.5066 275.178 93.1284 275.277 92.7388C276.101 89.3904 276.64 86.0749 276.959 82.6388C277.046 82.034 277.046 82.034 277.134 81.417C277.293 80.247 277.293 80.247 276.959 78.6402C276.329 78.0437 276.329 78.0437 275.477 77.5937C275.154 77.4056 274.83 77.2174 274.496 77.0236C274.135 76.824 273.774 76.6244 273.402 76.4188C273.021 76.2054 272.639 75.9921 272.246 75.7723C270.96 75.0624 269.668 74.3645 268.373 73.6697C267.902 73.4167 267.432 73.1637 266.947 72.903C265.991 72.3897 265.034 71.8771 264.078 71.365C262.888 70.7264 261.702 70.082 260.517 69.4351C249.065 62.7017 249.065 62.7017 236.504 59.5358C236.381 59.8226 236.258 60.1094 236.131 60.4049C235.567 61.71 234.994 63.0109 234.42 64.3119C234.227 64.7632 234.033 65.2145 233.834 65.6795C231.981 69.85 231.981 69.85 229.836 71.0873C225.608 72.4958 221.403 70.5058 217.61 68.616C212.643 65.7739 208.796 61.7707 206.719 56.4258C194.068 55.9784 179.417 57.9781 170.265 67.533ZM123.142 114.183C123.142 115.21 123.142 116.236 123.142 117.293C133.998 117.147 144.854 117 156.039 116.849C156.039 115.969 156.039 115.09 156.039 114.183C145.183 114.183 134.327 114.183 123.142 114.183ZM297.287 135.289C295.569 136.23 293.844 137.157 292.119 138.086C287.756 140.435 283.423 142.831 279.114 145.278C275.843 147.136 272.555 148.962 269.262 150.781C265.666 152.769 262.09 154.786 258.538 156.852C256.634 157.958 254.721 159.049 252.81 160.141C251.817 160.718 250.843 161.314 249.872 161.927C246.281 164.035 243.366 164.075 239.319 164.045C233.99 164.161 229.463 166.505 224.763 168.833C223.55 169.299 222.676 169.363 221.389 169.275C221.389 168.835 221.389 168.395 221.389 167.942C223.736 166.916 226.084 165.889 228.502 164.832C226.895 163.762 225.971 163.772 224.056 163.666C223.506 163.633 222.956 163.599 222.389 163.565C221.76 163.542 221.13 163.52 220.5 163.499C220.123 163.479 219.746 163.459 219.357 163.438C216.23 163.336 213.709 163.898 210.775 164.943C210.322 165.099 209.869 165.255 209.403 165.416C204.05 167.302 198.829 169.518 193.605 171.73C191.195 172.744 188.774 173.731 186.353 174.717C185.553 175.044 184.754 175.37 183.954 175.696C183.392 175.925 182.83 176.154 182.268 176.384C183.011 182.317 186.186 187.761 189.826 192.378C190.136 192.775 190.447 193.172 190.767 193.581C197.547 201.66 208.065 205.428 218.277 206.595C220.455 206.721 222.625 206.744 224.807 206.734C225.393 206.731 225.979 206.729 226.583 206.726C231.053 206.671 235.281 206.357 239.616 205.262C239.967 205.174 240.318 205.086 240.68 204.995C257.813 200.539 271.954 189.437 286.058 179.183C290.573 175.903 295.164 172.742 299.792 169.623C300.886 168.884 301.977 168.14 303.068 167.395C317.551 157.555 317.551 157.555 324.247 155.892C324.59 155.804 324.934 155.715 325.288 155.624C325.97 155.454 326.656 155.297 327.345 155.158C328.428 154.925 328.428 154.925 329.861 154.169C330.446 152.952 330.571 151.977 330.75 150.615C331.19 150.615 331.63 150.615 332.084 150.615C332.23 151.788 332.377 152.961 332.528 154.169C333.14 154.283 333.14 154.283 333.765 154.398C338.134 155.261 341.547 156.047 344.531 159.501C344.735 159.731 344.939 159.961 345.149 160.198C348.981 164.853 351.86 171.562 351.569 177.623C351.308 184.974 354.208 189.632 358.303 195.524C359.296 196.957 360.243 198.416 361.18 199.886C361.747 200.774 362.322 201.656 362.899 202.537C365.117 205.936 367.265 209.38 369.426 212.815C371.913 211.294 374.333 209.727 376.65 207.956C383.069 203.072 389.804 198.582 396.544 194.155C396.281 192.436 395.77 191.171 394.914 189.662C394.667 189.223 394.42 188.784 394.165 188.332C393.896 187.862 393.627 187.392 393.349 186.908C393.069 186.413 392.788 185.919 392.499 185.409C389.595 180.301 386.637 175.225 383.652 170.163C383.313 169.587 382.974 169.01 382.635 168.434C378.855 162.011 375.08 155.6 370.965 149.385C369.896 147.754 368.854 146.106 367.807 144.461C365.055 140.141 362.277 135.839 359.452 131.566C359.174 131.142 358.896 130.717 358.609 130.28C354.703 124.406 350.493 118.381 343.198 116.849C327.599 115.28 310.522 128.004 297.287 135.289ZM177.295 120.709C176.839 120.748 176.384 120.788 175.915 120.828C167.986 121.314 167.986 121.314 160.485 123.513C160.462 126.398 160.447 129.282 160.436 132.166C160.432 133.146 160.426 134.125 160.418 135.105C160.407 136.52 160.402 137.935 160.398 139.35C160.393 139.781 160.389 140.213 160.384 140.657C160.383 145.052 160.659 149.361 163.597 152.836C169.326 158.435 180.604 157.45 187.921 157.375C197.079 157.232 206.883 156.188 215.61 153.281C216.276 153.24 216.943 153.223 217.61 153.225C217.954 153.224 218.298 153.223 218.652 153.222C219.611 153.281 219.611 153.281 220.945 153.725C223.598 153.962 225.806 153.962 228.057 152.392C229.373 151.084 230.443 149.665 231.169 147.949C234.431 148.121 237.12 150.12 239.588 152.114C240.485 152.974 240.485 152.974 241.839 152.836C242.33 151.29 242.579 150.001 242.283 148.393C241.116 147.265 239.923 146.494 238.522 145.677C237.393 144.839 237.393 144.839 237.015 143.626C236.993 143.293 236.971 142.96 236.949 142.618C239.159 143.401 241.143 144.57 243.172 145.728C243.264 145.16 243.356 144.591 243.45 144.006C243.502 143.686 243.553 143.367 243.607 143.038C243.61 142.752 243.613 142.467 243.617 142.173C242.389 140.946 241.302 141.028 239.616 140.84C239.763 140.254 239.909 139.668 240.06 139.063C241.626 139.028 243.003 139.046 244.506 139.508C245.036 137.785 245.395 136.435 245.395 134.62C242.731 133.289 239.216 134.359 236.504 135.12C235.958 135.266 235.958 135.266 235.402 135.416C233.586 135.916 231.81 136.47 230.049 137.139C229.728 137.26 229.406 137.382 229.074 137.507C228.481 137.737 227.891 137.977 227.306 138.228C222.461 140.13 216.673 138.977 211.661 138.333C211.043 138.256 210.426 138.179 209.808 138.103C208.522 137.944 207.236 137.782 205.95 137.618C204.331 137.412 202.711 137.209 201.091 137.009C194.21 136.156 187.339 135.259 180.49 134.176C180.49 133.59 180.49 133.003 180.49 132.399C182.397 132.399 184.304 132.399 186.269 132.399C186.647 130.889 186.766 129.836 186.757 128.31C186.756 127.875 186.754 127.44 186.753 126.991C186.749 126.54 186.745 126.089 186.742 125.624C186.739 125.165 186.737 124.707 186.735 124.235C186.73 123.106 186.723 121.977 186.714 120.848C183.515 120.415 180.505 120.417 177.295 120.709ZM289.406 122.18C288.319 123.81 288.148 125.174 288.517 127.068C289.393 128.279 289.393 128.279 290.74 128.845C292.122 128.991 292.122 128.991 293.407 128.4C294.603 127.048 295.129 126.137 295.38 124.346C295.16 122.9 294.921 122.287 293.852 121.292C291.944 120.539 291.001 120.974 289.406 122.18ZM124.92 140.84C124.92 143.405 124.96 145.855 125.199 148.391C125.229 148.721 125.258 149.051 125.289 149.391C125.386 150.467 125.486 151.543 125.585 152.619C125.654 153.374 125.723 154.129 125.792 154.884C125.935 156.46 126.08 158.035 126.225 159.61C126.412 161.626 126.596 163.641 126.779 165.656C126.92 167.212 127.062 168.769 127.205 170.325C127.273 171.068 127.341 171.811 127.409 172.554C127.504 173.593 127.6 174.631 127.696 175.67C127.724 175.974 127.751 176.278 127.779 176.591C127.942 178.323 128.19 179.993 128.477 181.715C145.788 181.715 163.099 181.715 180.934 181.715C180.494 180.395 180.054 179.076 179.601 177.716C178.57 177.398 177.532 177.102 176.489 176.828C173.105 172.094 172.67 164.713 172.043 159.056C171.806 158.981 171.569 158.905 171.324 158.827C163.428 156.26 163.428 156.26 161.374 153.725C161.062 153.358 160.751 152.992 160.429 152.614C158.481 148.979 158.222 144.886 157.818 140.84C146.961 140.84 136.105 140.84 124.92 140.84ZM232.058 150.615C231.884 150.945 231.71 151.275 231.531 151.614C230.655 152.943 229.78 153.679 228.502 154.613C227.915 155.053 227.328 155.493 226.724 155.946C231.272 155.946 235.819 155.946 240.505 155.946C239.772 155.36 239.038 154.773 238.282 154.169C237.948 153.893 237.613 153.616 237.268 153.331C236.943 153.067 236.617 152.803 236.282 152.531C235.956 152.263 235.631 151.996 235.295 151.72C234.198 151.005 233.348 150.785 232.058 150.615ZM215.165 155.502C215.165 155.649 215.165 155.795 215.165 155.946C216.926 155.946 218.686 155.946 220.5 155.946C218.386 154.89 217.387 155.022 215.165 155.502ZM305.855 167.942C305.553 168.144 305.252 168.346 304.941 168.554C303.179 169.741 301.431 170.948 299.69 172.166C298.663 172.885 297.634 173.6 296.604 174.315C293.024 176.806 289.463 179.319 285.933 181.882C266.222 196.169 266.222 196.169 257.843 200.375C257.843 200.522 257.843 200.668 257.843 200.819C261.898 200.895 265.826 200.739 269.846 200.208C270.684 200.1 270.684 200.1 271.539 199.989C280.046 198.838 288.48 197.147 296.913 195.552C297.622 195.418 297.622 195.418 298.344 195.282C298.999 195.157 298.999 195.157 299.667 195.029C300.048 194.957 300.429 194.884 300.821 194.809C301.767 194.617 302.699 194.397 303.632 194.155C303.573 193.892 303.514 193.629 303.453 193.358C303.291 192.633 303.13 191.908 302.97 191.182C302.808 190.45 302.639 189.72 302.465 188.99C302.196 187.286 301.957 185.508 302.743 183.936C303.33 183.936 303.917 183.936 304.521 183.936C304.533 184.302 304.544 184.667 304.556 185.044C304.727 188.413 305.269 191.117 306.744 194.155C307.898 192.426 308.833 190.606 309.8 188.768C309.993 188.405 310.187 188.042 310.386 187.668C311.645 185.28 312.793 182.863 313.857 180.382C314.444 180.382 315.031 180.382 315.635 180.382C314.539 184.535 312.673 188.216 310.694 192.008C307.793 197.621 307.471 202.337 308.242 208.511C308.462 210.283 308.666 212.058 308.871 213.832C308.915 214.212 308.959 214.593 309.005 214.985C309.542 219.648 309.986 224.319 310.429 228.992C310.515 229.894 310.601 230.796 310.687 231.698C310.904 233.985 311.12 236.271 311.336 238.557C311.685 242.253 312.037 245.948 312.388 249.644C312.508 250.909 312.628 252.175 312.747 253.44C313.232 258.562 313.752 263.68 314.301 268.795C317.876 268.631 321.451 268.465 325.026 268.297C326.686 268.219 328.347 268.142 330.007 268.065C331.613 267.992 333.218 267.917 334.824 267.841C335.433 267.812 336.042 267.784 336.652 267.756C340.032 267.602 343.392 267.405 346.754 267.018C347.207 264.297 347.341 261.596 347.453 258.842C347.475 258.338 347.497 257.834 347.519 257.314C347.591 255.639 347.66 253.964 347.728 252.289C347.765 251.405 347.802 250.521 347.839 249.638C348.01 245.518 348.175 241.398 348.338 237.279C348.351 236.956 348.363 236.634 348.376 236.301C349.327 212.6 349.327 212.6 349.695 188.884C349.699 187.916 349.707 186.948 349.716 185.98C349.832 176.931 349.832 176.931 347.199 168.386C347.075 168.122 346.952 167.857 346.824 167.584C344.76 163.193 342.32 159.687 337.844 157.586C326.694 153.649 314.668 162.023 305.855 167.942ZM206.274 157.723C205.838 157.78 205.838 157.78 205.394 157.839C204.039 158.015 202.684 158.189 201.329 158.362C200.872 158.422 200.415 158.482 199.944 158.543C193.836 159.321 187.804 159.564 181.657 159.528C180.978 159.526 180.3 159.524 179.622 159.522C177.985 159.517 176.348 159.51 174.711 159.501C174.912 162.826 175.184 166.039 175.989 169.275C176.06 169.59 176.132 169.906 176.206 170.231C176.642 172.046 177.213 173.509 178.267 175.051C180.189 174.792 181.809 174.322 183.593 173.569C184.105 173.354 184.617 173.14 185.145 172.919C185.696 172.686 186.246 172.452 186.797 172.218C187.658 171.857 188.519 171.497 189.379 171.137C189.97 170.889 190.561 170.642 191.152 170.394C194.257 169.091 197.375 167.82 200.495 166.554C200.998 166.349 201.501 166.144 202.02 165.933C204.029 165.117 206.038 164.303 208.052 163.499C207.926 162.869 207.795 162.24 207.663 161.611C207.591 161.26 207.519 160.91 207.445 160.549C207.166 159.512 206.767 158.673 206.274 157.723ZM70.5733 195.349C70.3166 195.688 70.0599 196.027 69.7954 196.376C69.6487 196.523 69.502 196.67 69.3508 196.821C69.2229 198.121 69.1336 199.11 69.3508 200.375C70.7375 201.924 72.2363 202.569 74.2409 203.041C75.6185 202.69 75.6185 202.69 76.9361 202.013C83.4957 198.934 89.9988 200.658 96.5534 202.935C98.4817 203.643 100.368 204.434 102.248 205.262C102.835 205.51 102.835 205.51 103.434 205.764C104.415 206.206 104.415 206.206 105.804 207.039C106.114 207.98 106.114 207.98 106.249 208.817C104.296 208.576 102.883 208.096 101.164 207.15C98.0676 205.547 94.9031 204.498 91.5786 203.485C91.2503 203.375 90.9219 203.264 90.5836 203.15C85.8555 201.703 80.8995 202.397 76.4637 204.374C74.4424 205.45 72.7559 206.605 72.0181 208.817C71.7948 211.54 71.9689 212.874 73.7964 215.037C78.398 219.75 84.9022 220.212 91.1341 220.368C92.5843 220.371 94.034 220.357 95.4841 220.34C95.875 220.336 96.2659 220.331 96.6686 220.327C97.0665 220.322 97.4645 220.318 97.8745 220.313C98.6933 220.303 99.5121 220.294 100.331 220.285C100.737 220.28 101.142 220.275 101.56 220.27C108.418 220.201 114.709 220.815 121.364 222.589C120.39 217.394 117.939 213.634 114.301 209.818C113.362 208.817 113.362 208.817 112.49 207.697C105.929 199.721 93.8098 193.547 83.5766 192.378C79.3034 192.046 73.8309 192.131 70.5733 195.349ZM351.644 196.376C351.625 197.117 351.626 197.858 351.644 198.598C352.127 199.181 352.127 199.181 353.299 199.086C353.789 199.08 354.279 199.075 354.784 199.07C355.275 199.066 355.766 199.062 356.272 199.058C356.652 199.053 357.032 199.047 357.423 199.042C356.94 197.598 356.94 197.598 356.09 196.376C355.34 196.344 354.589 196.339 353.839 196.349C353.431 196.353 353.022 196.357 352.601 196.361C352.285 196.366 351.969 196.371 351.644 196.376ZM394.683 198.154C394.25 198.445 394.25 198.445 393.808 198.743C386.875 203.436 380.025 208.25 373.262 213.185C372.587 213.669 371.896 214.132 371.205 214.592C371.903 217.243 373.316 219.403 374.761 221.701C377.103 220.975 378.864 219.495 380.79 218.035C383.815 215.776 386.863 213.559 389.959 211.399C390.509 211.014 390.509 211.014 391.069 210.622C392.852 209.378 394.645 208.152 396.463 206.958C396.796 206.737 397.129 206.515 397.472 206.287C398.097 205.874 398.726 205.465 399.358 205.062C400.286 204.466 400.286 204.466 401.434 203.485C401.434 201.436 400.965 200.672 399.934 198.931C399.656 198.452 399.377 197.974 399.09 197.48C398.837 197.116 398.584 196.752 398.323 196.376C396.875 196.376 395.845 197.362 394.683 198.154ZM186.534 196.393C186.024 196.397 185.514 196.401 184.989 196.405C184.146 196.411 184.146 196.411 183.286 196.417C182.69 196.422 182.094 196.426 181.498 196.43C179.878 196.442 178.258 196.454 176.638 196.466C174.946 196.479 173.254 196.491 171.561 196.504C168.356 196.527 165.15 196.551 161.945 196.574C158.296 196.601 154.647 196.628 150.998 196.655C143.491 196.71 135.984 196.765 128.477 196.821C128.624 197.7 128.77 198.58 128.921 199.486C135.367 199.424 141.814 199.359 148.26 199.292C148.732 199.287 149.205 199.282 149.692 199.277C163.665 199.132 177.635 198.96 191.604 198.598C191.035 197.839 190.44 197.099 189.826 196.376C188.728 196.376 187.631 196.385 186.534 196.393ZM298.297 197.487C297.953 197.551 297.609 197.614 297.254 197.68C296.416 197.835 295.578 197.994 294.741 198.154C294.741 198.3 294.741 198.447 294.741 198.598C298.409 198.598 302.076 198.598 305.855 198.598C305.855 198.011 305.855 197.425 305.855 196.821C303.241 196.75 300.861 196.994 298.297 197.487ZM4.00101 219.924C3.84775 221.253 3.84775 221.253 4.65395 221.942C5.10094 222.304 5.10094 222.304 5.55696 222.673C6.84679 223.748 8.04048 224.843 9.19676 226.06C15.3091 232.205 22.9011 236.87 31.758 236.973C37.1424 236.922 41.5665 235.804 45.6504 232.197C48.5642 228.892 50.0745 226.087 49.9883 221.564C49.66 219.581 48.6558 218.493 47.123 217.258C40.7437 212.958 30.6321 215.014 23.5615 216.369C21.7963 216.769 20.0626 217.247 18.3275 217.761C16.8169 218.167 15.3324 218.399 13.7813 218.591C13.7813 218.004 13.7813 217.418 13.7813 216.814C22.9726 213.915 36.3396 209.831 45.6487 214.273C46.0252 214.479 46.4017 214.685 46.7896 214.898C48.9604 216.073 50.075 216.156 52.4577 215.481C54.3421 214.472 54.3421 214.472 55.5696 212.815C55.7891 210.914 55.7162 209.954 54.736 208.289C51.8886 205.265 47.371 204.837 43.4554 204.707C30.3151 204.854 13.2816 210.278 4.00101 219.924ZM130.255 208.372C130.216 208.865 130.178 209.357 130.138 209.865C126.817 252.174 126.817 252.174 125.17 269.767C125.129 270.216 125.129 270.216 125.086 270.674C124.131 280.888 124.131 280.888 123.778 283.723C123.57 285.847 123.587 287.987 123.587 290.121C138.991 290.121 154.394 290.121 170.265 290.121C170.279 281.46 170.279 281.46 170.068 272.812C170.047 272.233 170.026 271.654 170.005 271.057C169.949 269.508 169.89 267.96 169.831 266.412C169.769 264.773 169.709 263.135 169.648 261.496C169.547 258.755 169.444 256.013 169.34 253.272C169.22 250.115 169.103 246.959 168.987 243.802C168.874 240.738 168.76 237.675 168.645 234.611C168.597 233.318 168.549 232.025 168.501 230.731C168.435 228.927 168.366 227.124 168.297 225.32C168.278 224.792 168.258 224.264 168.239 223.72C168.125 220.811 167.931 217.929 167.598 215.037C167.309 215.036 167.02 215.035 166.723 215.034C164.018 215.026 161.313 215.001 158.608 214.969C157.591 214.959 156.574 214.952 155.557 214.95C144.89 214.919 144.89 214.919 140.035 212.371C139.247 212.006 138.459 211.642 137.67 211.279C136.586 210.752 135.506 210.219 134.426 209.685C134.076 209.515 133.725 209.344 133.363 209.169C133.053 209.015 132.743 208.862 132.424 208.704C131.532 208.29 131.532 208.29 130.255 208.372ZM170.265 215.037C170.544 224.807 170.84 234.572 171.224 244.339C171.26 245.26 171.296 246.182 171.331 247.103C171.443 249.968 171.555 252.832 171.668 255.696C171.784 258.634 171.898 261.571 172.012 264.509C172.11 267.063 172.21 269.617 172.311 272.171C172.37 273.683 172.43 275.196 172.487 276.708C172.552 278.381 172.618 280.053 172.685 281.725C172.703 282.217 172.722 282.709 172.741 283.216C172.76 283.673 172.778 284.129 172.798 284.6C172.813 284.993 172.828 285.386 172.844 285.791C172.949 287.241 173.171 288.681 173.377 290.121C175.871 290.121 178.365 290.121 180.934 290.121C181.467 289.162 181.467 289.162 182.011 288.183C189.44 274.878 197.3 262.085 210.025 253.218C210.336 253 210.647 252.782 210.967 252.558C211.407 252.258 211.407 252.258 211.857 251.952C212.12 251.773 212.383 251.594 212.653 251.409C213.387 251.024 213.387 251.024 214.721 251.024C214.469 252.604 214.071 253.771 213.253 255.144C213.042 255.505 212.83 255.866 212.612 256.238C212.382 256.625 212.152 257.012 211.915 257.41C207.81 264.474 204.024 271.613 200.801 279.125C200.584 279.625 200.368 280.125 200.145 280.64C199.95 281.105 199.756 281.569 199.555 282.048C199.382 282.46 199.209 282.871 199.031 283.296C198.592 284.397 198.592 284.397 199.161 285.678C199.356 285.398 199.551 285.117 199.752 284.828C206.086 275.899 214.166 267.299 224.501 263.02C225.088 263.02 225.675 263.02 226.279 263.02C226.02 264.629 225.587 265.871 224.812 267.303C224.6 267.7 224.387 268.098 224.169 268.507C223.824 269.145 223.824 269.145 223.473 269.795C221.403 273.696 219.399 277.623 217.471 281.596C217.234 282.078 216.997 282.561 216.753 283.057C216.538 283.504 216.323 283.95 216.101 284.41C215.814 285.003 215.814 285.003 215.52 285.609C215.403 285.925 215.286 286.241 215.165 286.567C215.312 286.86 215.459 287.153 215.61 287.455C216.014 287.031 216.418 286.607 216.834 286.169C220.597 282.279 224.471 278.943 228.947 275.904C229.423 275.567 229.899 275.229 230.39 274.882C231.614 274.127 231.614 274.127 232.948 274.127C232.788 276.835 231.484 278.533 229.975 280.68C229.488 281.39 229.003 282.1 228.518 282.811C228.284 283.151 228.051 283.491 227.811 283.841C225.562 286.759 225.562 286.759 224.501 290.121C254.722 290.121 284.943 290.121 316.08 290.121C317.948 283.875 317.948 283.875 317.858 280.791C317.542 280.764 317.226 280.737 316.901 280.71C316.492 280.672 316.084 280.635 315.663 280.597C315.052 280.543 315.052 280.543 314.428 280.487C313.412 280.347 313.412 280.347 312.968 279.903C312.831 278.86 312.72 277.827 312.626 276.78C312.595 276.451 312.564 276.122 312.531 275.784C312.427 274.68 312.326 273.577 312.225 272.473C312.152 271.694 312.078 270.915 312.005 270.136C311.809 268.041 311.615 265.945 311.421 263.849C311.261 262.121 311.1 260.393 310.938 258.665C310.175 250.502 309.423 242.337 308.698 234.17C308.671 233.875 308.645 233.579 308.618 233.275C308.355 230.312 308.094 227.349 307.838 224.386C307.775 223.672 307.775 223.672 307.712 222.944C307.636 222.076 307.561 221.207 307.487 220.339C307.454 219.961 307.421 219.584 307.387 219.195C307.359 218.872 307.331 218.548 307.302 218.216C307.175 217.147 306.955 216.092 306.744 215.037C261.706 215.037 216.668 215.037 170.265 215.037ZM351.644 215.037C351.372 216.67 351.142 218.078 351.079 219.695C351.055 220.258 351.055 220.258 351.031 220.832C351.016 221.235 351.001 221.639 350.986 222.055C350.969 222.486 350.951 222.918 350.933 223.363C350.876 224.793 350.822 226.222 350.767 227.652C350.728 228.659 350.689 229.666 350.65 230.673C350.567 232.792 350.486 234.91 350.406 237.029C350.325 239.173 350.242 241.318 350.157 243.462C349.685 255.317 349.269 267.148 349.421 279.014C347.368 279.161 345.314 279.307 343.198 279.458C343.243 279.999 343.289 280.54 343.337 281.097C343.362 281.401 343.388 281.705 343.415 282.018C344.153 285.246 346.692 286.772 349.324 288.442C352.595 290.268 355.353 290.404 359.047 290.265C359.577 290.255 360.108 290.244 360.654 290.234C361.949 290.207 363.242 290.169 364.536 290.121C363.279 272.77 361.938 255.426 360.545 238.085C360.424 236.581 360.304 235.077 360.184 233.574C359.994 231.188 359.802 228.802 359.609 226.417C359.537 225.528 359.466 224.639 359.395 223.75C359.298 222.528 359.199 221.307 359.099 220.086C359.071 219.726 359.042 219.366 359.013 218.996C358.897 217.597 358.758 216.373 358.313 215.037C356.112 215.037 353.911 215.037 351.644 215.037ZM70.6845 233.252C69.8243 234.607 69.7954 235.117 69.7954 236.807C70.1942 236.926 70.5931 237.045 71.004 237.168C78.4783 239.514 85.5454 242.962 91.4119 248.219C91.6439 248.425 91.8758 248.631 92.1148 248.844C93.2851 249.932 94.0855 250.727 94.246 252.357C92.5066 252.1 91.583 251.269 90.2727 250.135C83.4157 244.423 74.8662 238.607 65.5512 238.9C64.0533 239.076 63.0171 239.483 61.7933 240.361C60.6386 242.275 60.5495 243.958 60.9042 246.137C62.8561 251.981 67.1379 255.791 72.3487 258.745C74.6408 259.886 76.9978 260.556 79.4645 261.215C80.5218 261.514 81.5788 261.815 82.6354 262.117C83.1633 262.267 83.6913 262.416 84.2352 262.57C91.2305 264.58 97.7358 266.892 104.026 270.573C104.613 270.909 105.201 271.244 105.789 271.579C106.457 271.961 106.457 271.961 107.138 272.35C109.684 263.497 105.504 252.084 101.303 244.36C97.6774 238.349 91.9613 232.651 85.0683 230.698C80.2363 229.655 74.5456 229.751 70.6845 233.252ZM61.3488 252.801C61.3423 253.111 61.3358 253.421 61.3291 253.741C61.129 262.568 60.6327 271.36 60.0224 280.167C59.9929 280.598 59.9633 281.028 59.9329 281.471C59.8772 282.279 59.8204 283.087 59.7625 283.895C59.6183 285.977 59.5426 288.034 59.5706 290.121C60.4508 289.901 60.4508 289.901 61.3488 289.677C61.4141 289.144 61.4795 288.61 61.5468 288.061C62.7304 279.017 65.2243 271.171 69.3482 263.039C69.852 262.016 70.2898 260.979 70.6845 259.91C70.4151 259.769 70.1458 259.628 69.8683 259.483C67.0244 257.9 64.8867 256.04 62.6529 253.679C62.3693 253.389 62.0856 253.1 61.7933 252.801C61.6466 252.801 61.4999 252.801 61.3488 252.801ZM208.497 257.244C198.205 265.759 189.65 277.036 184.046 289.233C184.046 289.526 184.046 289.819 184.046 290.121C187.421 290.121 190.795 290.121 194.271 290.121C194.584 289.276 194.897 288.432 195.219 287.561C197.531 281.385 199.973 275.313 202.857 269.378C203.106 268.863 203.356 268.347 203.613 267.816C205.078 264.846 206.664 261.993 208.409 259.178C208.585 258.833 208.76 258.488 208.942 258.132C208.721 257.693 208.721 257.693 208.497 257.244ZM218.111 269.378C217.834 269.577 217.557 269.775 217.272 269.98C214.443 272.046 211.897 274.352 209.386 276.793C209.142 277.025 208.897 277.258 208.646 277.498C206.655 279.429 204.944 281.497 203.273 283.707C202.898 284.193 202.898 284.193 202.515 284.688C201.144 286.487 200.197 288.052 199.161 290.121C202.976 290.121 206.79 290.121 210.72 290.121C213.683 284.628 216.405 279.089 218.968 273.4C219.874 271.393 220.833 269.423 221.834 267.462C220.345 267.462 219.283 268.536 218.111 269.378ZM336.236 269.976C335.614 270.005 334.991 270.035 334.369 270.065C332.744 270.143 331.12 270.222 329.495 270.302C327.832 270.383 326.169 270.463 324.506 270.543C321.253 270.7 317.999 270.858 314.746 271.017C314.055 272.397 314.486 273.568 314.718 275.071C314.805 275.64 314.891 276.209 314.98 276.796C315.05 277.235 315.119 277.673 315.191 278.125C321.635 278.249 328.039 278.043 334.473 277.709C335.042 277.68 335.042 277.68 335.623 277.65C336.725 277.593 337.827 277.534 338.929 277.475C339.418 277.449 339.418 277.449 339.918 277.423C342.208 277.293 344.476 277.061 346.754 276.793C346.754 274.447 346.754 272.101 346.754 269.684C343.24 269.644 339.745 269.803 336.236 269.976ZM55.9585 272.655C54.894 273.88 54.2805 274.613 54.1004 276.239C54.1953 277.171 54.3162 278.1 54.4564 279.026C54.7947 281.281 54.7281 283.542 54.7082 285.817C54.7062 286.239 54.7042 286.662 54.7022 287.097C54.697 288.105 54.6897 289.113 54.6804 290.121C55.414 290.121 56.1475 290.121 56.9032 290.121C57.0962 288.186 57.286 286.251 57.473 284.315C57.5369 283.659 57.6015 283.003 57.6671 282.347C58.0444 278.565 58.3473 274.823 58.2369 271.017C57.2983 271.017 56.5789 272.053 55.9585 272.655ZM51.5686 277.237C51.3717 277.422 51.1749 277.608 50.972 277.799C50.0601 278.658 49.1472 279.516 48.2344 280.375C47.9249 280.666 47.6155 280.958 47.2966 281.259C46.9872 281.55 46.6777 281.84 46.3589 282.14C45.8887 282.581 45.8887 282.581 45.409 283.032C44.2169 284.119 42.9766 285.142 41.718 286.151C40.5857 287.272 40.5857 287.272 39.121 290.121C43.5221 290.121 47.9232 290.121 52.4577 290.121C52.476 288.243 52.4943 286.364 52.5132 284.429C52.5213 283.838 52.5294 283.247 52.5378 282.638C52.54 282.172 52.5422 281.707 52.5445 281.227C52.5491 280.75 52.5538 280.273 52.5586 279.781C52.548 278.472 52.548 278.472 51.5686 277.237ZM222.612 283.707C222.221 284.071 222.221 284.071 221.822 284.442C220.067 286.095 218.426 287.771 216.944 289.677C216.944 289.824 216.944 289.97 216.944 290.121C218.597 290.659 219.753 290.754 221.389 290.121C223.568 287.669 225.245 284.336 226.279 281.235C224.711 281.235 223.707 282.678 222.612 283.707Z" fill="black"/>
<path d="M242.281 29.7695C242.868 29.9161 243.455 30.0628 244.059 30.2138C243.913 31.5334 243.766 32.8529 243.615 34.2124C243.028 34.2124 242.441 34.2124 241.837 34.2124C241.322 32.4111 241.464 31.4498 242.281 29.7695Z" fill="black"/>
<path d="M248.953 33.3203C249.54 33.6135 250.127 33.9068 250.732 34.2089C250.693 35.4128 250.645 36.6154 250.593 37.8187C250.578 38.3256 250.578 38.3256 250.562 38.8427C250.442 41.3736 249.867 43.1821 248.342 45.2605C247.319 45.9686 246.612 45.9161 245.397 45.7604C245.104 45.4671 244.81 45.1739 244.508 44.8718C244.563 43.9832 244.563 43.9832 244.952 43.0946C245.243 42.9669 245.533 42.8392 245.833 42.7076C246.793 42.2909 246.793 42.2909 247.083 41.3852C247.141 41.0604 247.199 40.7357 247.259 40.4011C247.324 40.0472 247.39 39.6933 247.458 39.3286C247.664 37.8993 247.81 36.4702 247.911 35.0298C248.064 34.2089 248.064 34.2089 248.953 33.3203Z" fill="black"/>
<path d="M237.839 45.3164C239.828 45.5435 240.766 46.279 242.285 47.5378C243.164 48.0019 244.051 48.4517 244.952 48.8707C244.805 49.4572 244.659 50.0436 244.508 50.6479C241.644 50.4189 240.093 49.4823 237.867 47.76C237.395 47.0936 237.395 47.0936 237.534 46.1217C237.635 45.8559 237.735 45.5902 237.839 45.3164Z" fill="black"/>
<path d="M81.7985 55.5352C82.8821 55.8684 82.8821 55.8684 84.0213 56.4237C84.4659 57.2845 84.4659 57.2845 84.4659 58.2009C83.9657 59.0062 83.9657 59.0062 83.1322 59.5337C81.9374 59.3949 81.9374 59.3949 80.9094 59.0895C80.6038 58.062 80.6038 58.062 80.4648 56.868C81.1039 56.0627 81.1039 56.0627 81.7985 55.5352Z" fill="black"/>
<path d="M355.072 61.1924C355.572 61.1882 356.072 61.1839 356.587 61.1796C357.123 61.18 357.659 61.1804 358.211 61.1808C358.765 61.1789 359.319 61.177 359.89 61.175C361.359 61.1718 362.829 61.1732 364.298 61.1757C365.198 61.1756 366.097 61.1711 366.997 61.1651C368.727 61.1542 370.456 61.1523 372.186 61.153C372.722 61.1489 373.258 61.1448 373.81 61.1406C374.31 61.1434 374.81 61.1462 375.325 61.149C375.764 61.1487 376.202 61.1485 376.654 61.1482C378.087 61.3444 378.927 61.8021 380.091 62.6473C381.252 64.9678 380.675 68.6791 380.691 71.2635C380.699 72.1258 380.711 72.9881 380.728 73.8503C380.752 75.0941 380.762 76.3372 380.768 77.5813C380.779 77.9655 380.789 78.3496 380.799 78.7455C380.793 80.5045 380.65 81.5443 379.791 83.1065C377.384 84.5177 374.949 84.2714 372.211 84.2369C371.609 84.2361 371.008 84.2362 370.406 84.2369C369.148 84.2362 367.89 84.2279 366.633 84.2139C365.02 84.1962 363.409 84.1943 361.797 84.1977C360.556 84.199 359.315 84.1936 358.074 84.1861C357.19 84.1814 356.307 84.1812 355.424 84.1811C354.888 84.174 354.352 84.1669 353.801 84.1597C353.092 84.1541 353.092 84.1541 352.37 84.1483C351.195 83.9731 351.195 83.9731 350.393 83.3783C349.103 81.5871 349.345 79.5545 349.342 77.4494C349.341 77.0709 349.339 76.6924 349.338 76.3024C349.335 75.5021 349.334 74.7018 349.334 73.9015C349.333 72.6778 349.325 71.4542 349.317 70.2306C349.316 69.4528 349.315 68.675 349.314 67.8972C349.311 67.5315 349.308 67.1659 349.305 66.7891C349.318 63.3999 349.318 63.3999 350.306 62.203C351.941 61.4083 353.263 61.2008 355.072 61.1924ZM353.862 63.9802C353.862 64.2734 353.862 64.5666 353.862 64.8687C354.301 65.1087 354.739 65.3487 355.191 65.5959C356.435 66.3052 357.608 67.0705 358.772 67.9041C359.074 68.1209 359.377 68.3377 359.689 68.561C360.313 69.0113 360.935 69.465 361.554 69.9216C362.006 70.2425 362.006 70.2425 362.467 70.5698C362.736 70.7656 363.005 70.9614 363.282 71.1631C364.071 71.607 364.071 71.607 364.947 71.4518C366.051 71.0153 366.963 70.4534 367.953 69.7975C368.344 69.5404 368.736 69.2832 369.139 69.0183C369.544 68.7486 369.949 68.4788 370.367 68.2009C371.173 67.6683 371.98 67.1361 372.787 66.6042C373.144 66.3674 373.5 66.1306 373.868 65.8866C374.757 65.313 374.757 65.313 375.646 64.8687C375.426 64.4289 375.426 64.4289 375.201 63.9802C368.159 63.9802 361.118 63.9802 353.862 63.9802ZM374.618 67.951C374.138 68.3161 373.657 68.6806 373.176 69.0443C372.926 69.2338 372.676 69.4232 372.418 69.6184C371.143 70.5777 369.859 71.5215 368.561 72.4494C368.098 72.7844 367.636 73.1195 367.159 73.4647C365.754 74.2621 365.214 74.5279 363.643 74.1988C362.596 73.5569 361.663 72.9178 360.697 72.1717C358.05 70.1706 355.351 68.4406 352.529 66.6459C352.529 71.4842 352.529 76.3225 352.529 81.3074C355.764 81.3167 358.999 81.3256 362.235 81.3304C363.741 81.3327 365.248 81.3359 366.754 81.3409C368.481 81.3466 370.208 81.3488 371.935 81.3508C372.748 81.3542 372.748 81.3542 373.578 81.3577C374.076 81.3577 374.575 81.3578 375.088 81.3578C375.529 81.3588 375.971 81.3598 376.425 81.3608C377.411 81.4196 377.411 81.4196 377.868 80.8631C377.908 79.7753 377.92 78.7002 377.912 77.6125C377.911 77.2877 377.911 76.9629 377.91 76.6283C377.907 75.587 377.902 74.5458 377.896 73.5046C377.894 72.8002 377.892 72.0959 377.89 71.3916C377.885 69.6616 377.878 67.9316 377.868 66.2016C376.455 66.2016 375.718 67.0985 374.618 67.951Z" fill="black"/>
<path d="M115.667 73.9175C115.933 74.0091 116.199 74.1008 116.473 74.1952C116.619 75.0749 116.766 75.9546 116.917 76.8609C115.583 77.7495 115.583 77.7495 114.639 77.6106C113.805 77.3052 113.805 77.3052 113.361 76.8609C113.25 75.778 113.25 75.778 113.361 74.6395C114.694 73.7509 114.694 73.7509 115.667 73.9175Z" fill="black"/>
<path d="M66.6826 102.629C67.8774 103.018 67.8774 103.018 68.9054 103.517C68.961 104.573 68.961 104.573 68.9054 105.739C68.612 106.032 68.3186 106.325 68.0163 106.627C65.9911 106.381 65.9911 106.381 65.349 105.739C65.2378 104.656 65.2378 104.656 65.349 103.517C65.7891 103.224 66.2292 102.931 66.6826 102.629Z" fill="black"/>
<path d="M403.462 133.645C404.545 133.728 404.545 133.728 404.99 134.172C405.073 135.255 405.073 135.255 404.99 136.394C404.697 136.687 404.403 136.98 404.101 137.282C402.934 137.116 402.934 137.116 401.878 136.838C401.6 135.783 401.6 135.783 401.434 134.616C402.323 133.728 402.323 133.728 403.462 133.645Z" fill="black"/>
<path d="M38.8751 152.723C39.439 152.778 39.439 152.778 40.0142 152.834C40.9034 154.167 40.9034 154.167 40.8478 155.083C40.3438 156.198 39.7981 156.4 38.6806 156.832C38.0938 156.392 37.5069 155.953 36.9023 155.499C37.3734 152.877 37.3734 152.877 38.8751 152.723Z" fill="black"/>
<path d="M418.77 180.382C419.048 181.437 419.048 181.437 419.215 182.603C418.326 183.492 418.326 183.492 417.187 183.575C416.103 183.492 416.103 183.492 415.658 183.047C415.64 182.159 415.64 181.27 415.658 180.382C416.844 179.789 417.511 180.084 418.77 180.382Z" fill="black"/>
<path d="M284.959 235.028C285.237 236.083 285.237 236.083 285.403 237.25C284.514 238.138 284.514 238.138 283.347 238.194C282.999 238.175 282.65 238.157 282.291 238.138C281.819 237.333 281.819 237.333 281.402 236.361C281.549 235.921 281.696 235.481 281.847 235.028C283.032 234.436 283.699 234.73 284.959 235.028Z" fill="black"/>
<path d="M149.37 252.801C150.565 253.19 150.565 253.19 151.593 253.689C151.649 254.745 151.649 254.745 151.593 255.911C151.3 256.204 151.006 256.497 150.704 256.799C148.679 256.553 148.679 256.553 148.036 255.911C147.925 254.828 147.925 254.828 148.036 253.689C148.477 253.396 148.917 253.103 149.37 252.801Z" fill="black"/>
<path d="M392.988 264.74C394.322 264.796 394.322 264.796 394.766 265.24C394.849 266.323 394.849 266.323 394.766 267.461C394.473 267.755 394.179 268.048 393.877 268.35C391.852 268.103 391.852 268.103 391.21 267.461C391.154 266.351 391.154 266.351 391.21 265.24C391.654 264.796 391.654 264.796 392.988 264.74Z" fill="black"/>
</g>
<defs>
<clipPath id="clip0_250_129">
<rect width="441" height="315" fill="white"/>
</clipPath>
</defs>
</svg>
