<svg width="196" height="180" viewBox="0 0 196 180" fill="none" xmlns="http://www.w3.org/2000/svg">
<path d="M163.696 2.10913C165.848 3.73519 167.077 5.8935 167.509 8.56285C167.791 11.5915 167.136 14.6193 165.195 17.0124C164.019 18.3001 162.659 19.2254 161.21 20.1811C159.621 21.2494 158.598 22.2239 158.139 24.1394C158.066 24.514 157.998 24.8897 157.936 25.2666C157.853 25.693 157.853 25.693 157.641 25.9058C157.266 25.9269 156.89 25.9336 156.515 25.934C156.287 25.9343 156.059 25.9346 155.825 25.9349C155.585 25.934 155.345 25.9332 155.098 25.9324C154.858 25.9332 154.618 25.934 154.371 25.9349C154.143 25.9346 153.915 25.9343 153.68 25.934C153.47 25.9338 153.259 25.9336 153.042 25.9333C152.554 25.9058 152.554 25.9058 152.342 25.693C152.034 23.3167 152.855 21.0827 154.234 19.1844C155.491 17.7157 156.906 16.5754 158.459 15.4376C159.792 14.4411 161.05 13.3421 161.456 11.6484C161.633 10.0713 161.581 8.69161 160.608 7.39247C159.537 6.21187 158.393 5.88525 156.846 5.8098C155.503 5.83991 154.473 6.13896 153.402 6.96688C152.886 7.56272 152.499 8.18621 152.131 8.88205C152.059 9.01646 151.987 9.15087 151.913 9.28935C151.766 9.57557 151.629 9.86662 151.495 10.1588C150.214 9.93976 148.938 9.69739 147.667 9.42734C147.437 9.37934 147.207 9.33133 146.97 9.28187C146.408 9.09484 146.408 9.09484 145.984 8.45645C146.505 5.83981 148.177 3.49198 150.282 1.92626C154.33 -0.708485 159.736 -0.633555 163.696 2.10913Z" fill="black"/>
<path d="M96.3958 19.0962C96.8992 19.4154 96.8992 19.4154 97.2435 19.7345C97.1736 19.9452 97.1037 20.1559 97.0316 20.3729C96.9111 20.368 96.7906 20.3631 96.6665 20.358C95.5638 20.3321 94.6848 20.4416 93.6406 20.7985C93.6406 20.5176 93.6406 20.2367 93.6406 19.9473C94.4741 19.1682 95.2773 19.0045 96.3958 19.0962Z" fill="black"/>
<path d="M106.141 19.521C106.565 19.9466 106.565 19.9466 106.565 20.7977C105.306 20.6573 104.047 20.5169 102.75 20.3721C102.82 20.0913 102.89 19.8104 102.962 19.521C104.201 19.0546 104.884 19.0933 106.141 19.521Z" fill="black"/>
<path d="M95.543 21.8623C96.5762 22.0485 96.5762 22.0485 96.8147 22.2879C96.9091 23.1869 96.958 23.9572 96.4967 24.7484C96.3918 24.8493 96.2869 24.9502 96.1788 25.0543C95.3576 24.8681 95.3576 24.8681 95.1192 24.6287C95.0927 24.2836 95.0819 23.9373 95.0794 23.5913C95.0764 23.4031 95.0734 23.2149 95.0703 23.021C95.1192 22.5007 95.1192 22.5007 95.543 21.8623Z" fill="black"/>
<path d="M103.81 22.0742C104.247 22.1673 104.247 22.1673 104.658 22.287C104.833 23.0997 104.932 23.6154 104.632 24.4017C104.234 24.8406 104.234 24.8406 103.665 24.9071C103.503 24.8851 103.341 24.8632 103.175 24.8406C102.888 23.5073 102.888 23.5073 103.254 22.7392C103.598 22.287 103.598 22.287 103.81 22.0742Z" fill="black"/>
<path d="M100.205 22.7129C100.627 22.7378 100.627 22.7378 101.053 22.9257C101.96 24.3122 102.482 26.1788 102.324 27.82C101.996 28.3414 101.749 28.4365 101.172 28.6446C100.629 28.6712 100.629 28.6712 100.139 28.3653C100.021 28.2556 99.9028 28.1459 99.7812 28.0328C99.8512 27.6817 99.9211 27.3306 99.9932 26.9688C100.273 26.9688 100.553 26.9688 100.841 26.9688C100.782 26.7993 100.723 26.6298 100.663 26.4551C100.586 26.2296 100.509 26.0042 100.43 25.7718C100.316 25.4386 100.316 25.4386 100.199 25.0985C100 24.4384 99.843 23.8258 99.7812 23.1385C99.9211 22.998 100.061 22.8576 100.205 22.7129Z" fill="black"/>
<path d="M156.159 29.7354C157.189 30.2335 157.753 30.8478 158.278 31.8634C158.55 32.781 158.53 33.4267 158.265 34.3505C157.729 35.2701 157.121 35.8491 156.159 36.3321C155.115 36.4471 154.279 36.448 153.324 35.9863C152.54 35.2736 151.997 34.7332 151.839 33.6464C151.8 32.6783 151.849 32.0156 152.265 31.1319C153.447 29.8512 154.447 29.461 156.159 29.7354Z" fill="black"/>
<path d="M100.433 30.7066C101.055 31.2253 101.055 31.2253 101.28 31.9967C101.267 32.7149 101.267 32.7149 100.843 33.1405C100.419 33.1139 100.419 33.1139 99.9955 32.9277C99.7306 32.4888 99.7306 32.4888 99.5717 32.0765C98.178 31.9977 98.178 31.9977 97.0284 32.7149C96.5516 32.6484 96.5516 32.6484 96.1807 32.5021C96.0217 32.0233 96.0217 32.0233 95.9688 31.4381C97.0168 30.0851 98.9445 29.9827 100.433 30.7066Z" fill="black"/>
<path d="M142.632 42.7958C142.758 42.8397 142.885 42.8836 143.016 42.9288C143.148 43.5406 143.148 43.5406 143.228 44.2056C142.804 44.6312 142.804 44.6312 142.274 44.6844C141.744 44.6312 141.744 44.6312 141.32 44.2056C141.36 43.6736 141.36 43.6736 141.532 43.1416C142.168 42.716 142.168 42.716 142.632 42.7958Z" fill="black"/>
<path d="M95.145 5.1173C95.7544 5.2636 95.7544 5.2636 95.9663 5.4764C96.4137 5.50068 96.8613 5.52349 97.3092 5.53806C100.595 5.64614 103.201 6.34307 105.541 8.82129C106.459 9.97458 107.182 11.2434 107.411 12.7115C107.583 12.717 107.756 12.7225 107.933 12.7281C110.564 12.8588 113.963 13.1435 116.037 14.9384C116.312 15.265 116.312 15.265 116.299 15.797C116.06 16.4361 115.832 16.6251 115.253 16.9674C114.679 17.1594 114.354 17.2054 113.766 17.201C113.526 17.2 113.526 17.2 113.28 17.1989C113.03 17.1962 113.03 17.1962 112.776 17.1935C112.522 17.1921 112.522 17.1921 112.263 17.1906C111.847 17.1881 111.43 17.1843 111.014 17.1802C110.993 17.3036 110.972 17.4271 110.951 17.5543C110.72 18.7643 110.419 19.6926 109.53 20.585C109.507 20.9965 109.497 21.4088 109.493 21.821C109.414 26.3944 109.248 31.3679 106.139 35.0551C105.723 35.4197 105.295 35.7674 104.868 36.1191C105.068 36.1222 105.269 36.1253 105.475 36.1285C106.237 36.1411 106.998 36.1575 107.76 36.175C108.086 36.1819 108.413 36.1879 108.739 36.1928C112.807 36.2556 116.755 36.7026 119.915 39.5239C120.038 39.6251 120.161 39.7263 120.288 39.8306C124.56 43.6517 126.14 50.5793 127.922 55.8193C128.177 56.566 128.436 57.3099 128.71 58.0495C128.807 58.3129 128.904 58.5763 129.004 58.8476C129.091 59.0773 129.177 59.307 129.267 59.5437C129.446 60.1446 129.491 60.6067 129.452 61.2291C128.048 61.8675 128.048 61.8675 127.333 61.8675C127.522 62.836 127.714 63.804 127.909 64.7716C127.974 65.0991 128.039 65.4268 128.103 65.7546C128.671 68.6616 129.271 71.6722 130.737 74.2762C130.818 74.4237 130.898 74.5712 130.981 74.7232C131.908 76.397 132.938 78.0078 133.973 79.6162C134.353 80.2083 134.729 80.8026 135.104 81.3974C136.027 82.8603 136.027 82.8603 136.955 84.3193C137.184 84.6777 137.411 85.0377 137.636 85.3989C137.745 85.5709 137.854 85.7429 137.967 85.9202C138.063 86.0734 138.159 86.2266 138.258 86.3844C138.795 87.0486 139.461 87.1991 140.261 87.4031C140.615 87.5208 140.968 87.6405 141.321 87.7622C141.603 87.8556 141.886 87.9487 142.168 88.0415C143.151 86.6622 144.073 85.2606 144.95 83.8121C146.211 81.7484 147.515 79.7156 148.836 77.69C149.345 76.9084 149.85 76.1244 150.355 75.3402C150.546 75.0423 150.738 74.7445 150.93 74.4466C151.07 74.2284 151.07 74.2284 151.214 74.0057C151.488 73.58 151.763 73.1546 152.038 72.7293C153.196 70.935 154.347 69.1357 155.494 67.3337C156.63 65.5494 157.773 63.7701 158.925 61.9962C159.855 60.5616 160.775 59.1205 161.693 57.6781C163.02 55.5944 164.347 53.5114 165.693 51.4405C165.804 51.2698 165.914 51.0992 166.028 50.9234C166.375 50.39 166.723 49.8577 167.071 49.3258C167.178 49.1605 167.285 48.9953 167.395 48.825C167.496 48.6724 167.597 48.5197 167.7 48.3624C167.789 48.2272 167.877 48.092 167.968 47.9526C168.237 47.6101 168.237 47.6101 168.873 47.1845C169.485 47.1305 169.485 47.1305 170.241 47.1295C170.379 47.1287 170.517 47.128 170.659 47.1272C171.115 47.1253 171.57 47.1266 172.026 47.128C172.342 47.1277 172.659 47.1273 172.975 47.1268C173.638 47.1261 174.301 47.1271 174.964 47.129C175.815 47.1315 176.665 47.1301 177.516 47.1275C178.169 47.126 178.823 47.1265 179.476 47.1276C179.79 47.1279 180.103 47.1275 180.417 47.1265C180.855 47.1254 181.293 47.1271 181.731 47.1295C181.98 47.1298 182.23 47.1301 182.486 47.1305C183.072 47.1845 183.072 47.1845 183.496 47.6101C183.539 48.1375 183.556 48.6414 183.554 49.1691C183.555 49.3317 183.556 49.4943 183.557 49.6617C183.56 50.2094 183.56 50.7569 183.56 51.3046C183.562 51.696 183.564 52.0874 183.566 52.4788C183.57 53.3231 183.572 54.1673 183.574 55.0116C183.576 56.3454 183.582 57.6792 183.587 59.0131C183.596 61.122 183.603 63.2309 183.609 65.3398C183.62 69.1181 183.633 72.8964 183.648 76.6747C183.654 78.0018 183.658 79.3289 183.661 80.656C183.663 81.4803 183.666 82.3045 183.669 83.1287C183.671 83.5122 183.672 83.8956 183.672 84.2791C183.673 84.8008 183.675 85.3224 183.677 85.8441C183.677 85.9974 183.677 86.1507 183.677 86.3086C183.672 87.0951 183.672 87.0951 183.92 87.8287C184.137 87.834 184.354 87.8393 184.578 87.8448C185.381 87.8648 186.184 87.8862 186.987 87.9079C187.335 87.9171 187.683 87.926 188.031 87.9345C188.53 87.9468 189.03 87.9603 189.529 87.9741C189.685 87.9777 189.842 87.9813 190.003 87.9849C191.102 88.0172 191.102 88.0172 191.338 88.2543C191.359 88.5667 191.365 88.8801 191.365 89.1932C191.366 89.4925 191.366 89.4925 191.367 89.7978C191.367 90.0148 191.366 90.2318 191.366 90.4554C191.366 90.6766 191.366 90.8978 191.367 91.1256C191.367 91.5943 191.366 92.063 191.365 92.5317C191.364 93.2519 191.365 93.972 191.367 94.6922C191.367 95.1463 191.366 95.6005 191.366 96.0546C191.366 96.2716 191.367 96.4886 191.367 96.7122C191.367 96.9117 191.366 97.1113 191.365 97.3168C191.365 97.5817 191.365 97.5817 191.365 97.8519C191.338 98.2557 191.338 98.2557 191.126 98.4685C190.577 98.5025 190.032 98.5237 189.483 98.5358C189.236 98.5425 189.236 98.5425 188.984 98.5492C188.458 98.5632 187.931 98.5757 187.404 98.5882C187.047 98.5974 186.691 98.6067 186.335 98.6161C185.459 98.6389 184.584 98.6604 183.708 98.6813C183.709 98.834 183.71 98.9868 183.711 99.1441C183.719 100.584 183.726 102.025 183.73 103.465C183.732 104.205 183.735 104.946 183.74 105.686C183.746 106.538 183.748 107.389 183.749 108.241C183.752 108.506 183.754 108.772 183.756 109.045C183.756 109.416 183.756 109.416 183.756 109.794C183.757 110.011 183.758 110.229 183.759 110.453C183.707 111.032 183.58 111.38 183.284 111.875C181.662 111.88 180.04 111.884 178.418 111.886C177.866 111.887 177.313 111.889 176.761 111.891C175.969 111.893 175.177 111.895 174.385 111.895C174.136 111.897 173.888 111.898 173.633 111.899C173.403 111.899 173.174 111.899 172.938 111.899C172.635 111.9 172.635 111.9 172.325 111.9C171.84 111.875 171.84 111.875 171.416 111.662C171.195 110.997 171.171 110.516 171.16 109.818C171.156 109.568 171.152 109.317 171.147 109.059C171.144 108.796 171.14 108.533 171.137 108.261C171.133 108.019 171.129 107.777 171.125 107.528C171.11 106.623 171.098 105.718 171.085 104.813C171.054 102.789 171.023 100.766 170.992 98.6813C162.879 98.6813 154.766 98.6813 146.407 98.6813C147.107 99.8049 147.806 100.928 148.527 102.086C149.286 104.119 149.286 104.119 148.95 105.065C148.487 105.677 148.487 105.677 147.891 106.129C147.189 106.196 147.189 106.196 146.619 106.129C146.562 106.296 146.506 106.463 146.447 106.635C146.195 107.193 146.195 107.193 145.559 107.619C144.352 107.718 143.655 107.621 142.592 106.98C142.487 107.086 142.383 107.191 142.274 107.3C141.505 107.763 140.906 107.803 140.049 107.619C135.929 105.98 132.985 102.19 131.148 98.2557C130.627 96.9913 130.144 95.6854 130.021 94.3181C129.831 93.3433 129.429 92.857 128.816 92.0846C128.766 92.2524 128.715 92.4201 128.662 92.593C126.756 98.7968 124.24 104.186 119.703 108.896C119.539 109.069 119.375 109.242 119.206 109.42C119.051 109.581 118.896 109.741 118.736 109.906C118.594 110.053 118.453 110.2 118.306 110.351C117.796 110.811 117.796 110.811 117.241 111.103C116.529 111.503 116.143 111.835 115.676 112.513C115.317 114.062 115.559 115.74 115.664 117.309C115.689 117.807 115.713 118.304 115.736 118.801C115.787 119.875 115.846 120.947 115.909 122.02C116.01 123.724 116.096 125.427 116.179 127.132C116.207 127.72 116.236 128.308 116.265 128.896C116.272 129.043 116.28 129.191 116.287 129.343C116.34 130.408 116.394 131.473 116.45 132.538C116.781 138.919 117.025 145.304 117.258 151.689C117.316 153.288 117.375 154.886 117.437 156.484C117.483 157.692 117.529 158.901 117.574 160.11C117.6 160.811 117.627 161.511 117.654 162.212C117.684 162.973 117.712 163.734 117.739 164.495C117.748 164.719 117.757 164.943 117.767 165.173C117.774 165.377 117.781 165.58 117.788 165.79C117.795 165.966 117.801 166.143 117.808 166.324C117.796 166.776 117.796 166.776 117.584 167.415C117.074 167.671 116.747 167.649 116.18 167.641C116.007 167.639 115.833 167.637 115.655 167.635C115.456 167.631 115.456 167.631 115.253 167.627C116.341 169.623 118.485 170.469 120.458 171.405C120.687 171.514 120.915 171.624 121.151 171.737C122.969 172.599 124.813 173.388 126.685 174.123C129.934 175.428 129.934 175.428 130.526 176.579C131.068 177.124 131.509 177.091 132.252 177.096C132.432 177.093 132.612 177.09 132.798 177.087C132.988 177.087 133.178 177.087 133.374 177.087C134.004 177.087 134.634 177.08 135.263 177.074C135.699 177.072 136.136 177.071 136.572 177.07C137.721 177.067 138.869 177.058 140.018 177.049C141.19 177.04 142.362 177.036 143.534 177.032C145.834 177.023 148.134 177.008 150.434 176.99C150.505 176.773 150.577 176.555 150.65 176.33C150.746 176.041 150.841 175.751 150.936 175.462C150.983 175.319 151.03 175.175 151.078 175.028C151.446 173.915 151.863 172.847 152.368 171.79C152.448 171.622 152.527 171.455 152.609 171.282C153.406 169.656 154.392 168.186 155.457 166.728C155.908 166.11 156.349 165.485 156.792 164.861C157.142 164.931 157.492 165.001 157.852 165.074C157.906 168.157 157.802 171.163 157.428 174.224C157.541 174.013 157.654 173.802 157.771 173.584C159.337 170.699 161.085 168.086 163.362 165.712C163.463 165.605 163.565 165.498 163.669 165.387C165.461 163.498 167.341 161.843 169.508 160.392C170.078 160.472 170.078 160.472 170.568 160.605C170.459 161.799 169.997 162.65 169.429 163.677C168.577 165.258 167.774 166.856 167.005 168.479C166.911 168.676 166.817 168.874 166.72 169.078C166.081 170.432 165.46 171.794 164.846 173.16C164.933 173.068 165.021 172.977 165.111 172.882C167.495 170.432 170.205 168.576 173.323 167.202C173.517 167.115 173.712 167.029 173.912 166.94C174.496 166.737 174.856 166.821 175.443 166.989C175.358 168.055 174.798 168.621 174.105 169.37C172.522 171.143 170.997 173.15 169.932 175.288C170.167 175.155 170.402 175.021 170.644 174.884C170.954 174.708 171.265 174.533 171.575 174.357C171.729 174.269 171.884 174.182 172.043 174.091C172.194 174.006 172.344 173.921 172.499 173.833C172.636 173.755 172.774 173.677 172.916 173.597C173.749 173.139 174.261 172.893 175.231 172.947C175.443 173.799 175.443 173.799 173.747 177.203C179.272 177.203 184.797 177.203 190.49 177.203C190.56 177.554 190.63 177.905 190.702 178.267C190.49 178.48 190.49 178.48 190.083 178.506C189.903 178.506 189.723 178.506 189.537 178.506C189.33 178.507 189.123 178.507 188.91 178.507C188.564 178.507 188.564 178.507 188.212 178.506C187.969 178.506 187.727 178.506 187.477 178.506C186.801 178.506 186.125 178.506 185.448 178.505C184.72 178.504 183.993 178.504 183.265 178.504C182.002 178.504 180.74 178.504 179.478 178.503C177.653 178.501 175.828 178.5 174.003 178.5C171.042 178.5 168.081 178.498 165.12 178.496C162.244 178.494 159.367 178.493 156.49 178.492C156.313 178.492 156.135 178.492 155.953 178.492C155.064 178.491 154.175 178.491 153.286 178.491C145.907 178.489 138.527 178.485 131.148 178.48C131.148 178.761 131.148 179.042 131.148 179.331C130.262 179.762 129.467 179.819 128.5 179.815C128.344 179.816 128.187 179.817 128.025 179.819C127.506 179.822 126.986 179.821 126.466 179.821C126.097 179.822 125.728 179.823 125.36 179.824C124.582 179.825 123.804 179.825 123.026 179.824C122.245 179.823 121.464 179.824 120.684 179.828C114.868 179.858 108.927 179.869 103.172 178.906C103.102 178.835 103.032 178.765 102.96 178.693C102.367 178.67 101.779 178.662 101.186 178.662C101 178.661 100.814 178.66 100.622 178.66C100.003 178.658 99.3842 178.657 98.7654 178.657C98.3363 178.656 97.9072 178.656 97.4782 178.655C96.5768 178.654 95.6755 178.653 94.7741 178.653C93.6198 178.653 92.4656 178.651 91.3113 178.647C90.4242 178.644 89.5371 178.644 88.65 178.644C88.2246 178.644 87.7991 178.643 87.3737 178.641C86.7776 178.639 86.1815 178.64 85.5854 178.641C85.3222 178.639 85.3222 178.639 85.0538 178.638C84.0823 178.643 83.3196 178.759 82.4024 179.118C81.5818 179.268 80.7538 179.355 79.9253 179.451C79.7121 179.478 79.4989 179.504 79.2792 179.532C75.9947 179.922 72.6977 180.006 69.3933 179.997C68.8606 179.996 68.328 179.997 67.7953 179.999C63.4623 180.001 63.4623 180.001 62.0564 179.757C61.9166 179.616 61.7767 179.476 61.6326 179.331C61.6326 179.05 61.6326 178.769 61.6326 178.48C42.5392 178.48 23.4458 178.48 3.77386 178.48C3.66895 177.953 3.66895 177.953 3.56193 177.416C3.97598 177 4.60762 177.178 5.15866 177.177C5.35805 177.178 5.55745 177.178 5.76289 177.179C6.07611 177.179 6.07611 177.179 6.39565 177.179C7.08945 177.179 7.78324 177.181 8.47703 177.182C8.95665 177.183 9.43626 177.183 9.91588 177.183C11.181 177.184 12.4461 177.186 13.7112 177.189C15.0011 177.191 16.2909 177.192 17.5808 177.193C20.1137 177.195 22.6466 177.199 25.1795 177.203C25.1789 177.022 25.1784 176.841 25.1778 176.654C25.176 175.97 25.1746 175.287 25.1736 174.603C25.1731 174.309 25.1724 174.015 25.1715 173.721C25.1645 171.469 25.2217 169.235 25.3914 166.989C24.6216 167.406 23.8533 167.826 23.0863 168.248C22.8265 168.39 22.5664 168.532 22.3058 168.673C20.1791 169.824 18.0409 171.056 16.3973 172.868C15.8543 173.373 15.8543 173.373 15.3211 173.353C14.7946 173.16 14.7946 173.16 14.5126 172.776C14.4092 172.528 14.4092 172.528 14.3036 172.274C14.2252 172.089 14.1468 171.905 14.066 171.715C13.948 171.416 13.948 171.416 13.8276 171.112C13.745 170.909 13.6624 170.707 13.5772 170.498C12.1459 166.909 11.3578 163.582 12.8863 159.881C13.7821 158.061 15.2847 156.727 17.1946 156.056C18.6513 155.716 20.2312 155.716 21.6229 156.308C22.0877 156.621 22.362 156.982 22.7025 157.426C23.3121 158.2 23.7481 158.406 24.7159 158.57C25.0823 158.61 25.4488 158.65 25.8153 158.69C25.9552 158.76 26.095 158.83 26.2391 158.903C26.4125 156.581 26.4838 154.261 26.5041 151.934C26.5086 151.68 26.5131 151.426 26.5177 151.164C26.5282 148.429 26.0065 146.014 24.7556 143.581C24.7116 143.731 24.6676 143.88 24.6223 144.034C23.8744 146.346 22.4705 148.003 20.3016 149.122C17.9488 150.062 15.3721 149.633 13.0991 148.689C11.3914 147.886 9.81921 146.937 8.26427 145.869C6.70947 144.816 5.42675 144.023 3.50232 143.911C3.2995 143.9 3.09668 143.888 2.88772 143.876C1.98233 143.835 1.07713 143.809 0.170939 143.794C-0.081873 143.057 -0.0489927 142.751 0.234686 142.01C0.37243 141.743 0.514837 141.477 0.661042 141.214C0.73817 141.074 0.815298 140.933 0.894763 140.788C3.05413 137.006 6.87174 134.569 10.9902 133.398C15.1882 132.273 19.9881 132.185 23.9476 134.178C25.1662 134.92 26.0304 135.681 26.4643 137.064C26.4427 138.322 26.1479 139.363 25.3252 140.323C24.8961 140.794 24.8961 140.794 25.047 141.4C25.3346 141.978 25.6346 142.457 26.0007 142.983C26.7282 144.032 27.1272 145.136 27.5108 146.348C27.7536 145.292 27.9742 144.237 28.1631 143.17C28.929 138.866 29.7731 134.901 32.5972 131.452C32.5079 131.308 32.4186 131.165 32.3265 131.016C32.2104 130.827 32.0943 130.637 31.9747 130.441C31.8591 130.254 31.7436 130.066 31.6245 129.873C31.0988 128.908 31.0383 128.081 31.1137 126.983C31.5189 125.811 32.2019 125.079 33.2331 124.43C37.5551 122.335 42.9445 122.552 47.4328 124.004C49.5616 124.754 51.4126 125.742 53.1551 127.196C53.3379 127.347 53.5206 127.499 53.709 127.655C54.906 128.691 56.2001 129.837 56.97 131.239C56.9741 131.808 56.9741 131.808 56.758 132.303C55.8343 132.838 54.7783 132.87 53.7363 132.993C51.5101 133.446 49.6916 134.492 47.7772 135.681C44.126 137.942 40.4101 140.111 35.9874 139.193C34.6747 138.741 33.7173 137.983 33.0211 136.772C32.7338 135.931 32.5378 135.093 32.3853 134.218C29.6233 139.253 29.1533 145.61 28.5704 151.242C28.6404 151.172 28.7103 151.102 28.7824 151.029C29.0148 150.819 29.2491 150.611 29.4844 150.404C29.6104 150.293 29.7363 150.181 29.8661 150.066C30.6979 149.414 31.2748 149.275 32.3323 149.3C32.541 149.304 32.7498 149.308 32.9648 149.312C33.2025 149.319 33.2025 149.319 33.445 149.327C33.4625 149.081 33.48 148.835 33.498 148.582C33.7004 147.028 34.3501 145.876 35.5842 144.912C36.976 143.993 38.3717 143.815 40.015 144.007C43.7031 144.778 46.4395 147.652 48.4577 150.699C51.1758 155.075 52.556 159.861 52.559 165.007C52.5616 165.244 52.5642 165.482 52.5669 165.726C52.5673 165.955 52.5677 166.184 52.5681 166.42C52.569 166.626 52.5699 166.833 52.5708 167.045C52.5148 167.678 52.3924 168.13 52.0954 168.691C51.4596 168.904 51.4596 168.904 51.0068 168.713C50.8284 168.609 50.65 168.506 50.4662 168.399C50.1568 168.222 50.1568 168.222 49.8411 168.042C49.6059 167.905 49.3707 167.768 49.1283 167.627C45.1379 165.327 41.4368 163.776 36.8763 163.043C35.4329 162.805 34.1524 162.472 32.8092 161.882C30.4794 166.344 29.8054 171.405 29.4677 176.371C29.4182 176.778 29.4182 176.778 29.2063 177.203C33.3366 177.185 37.4669 177.165 41.5972 177.142C43.515 177.131 45.4327 177.122 47.3504 177.113C49.0217 177.106 50.693 177.098 52.3643 177.088C53.2494 177.082 54.1345 177.078 55.0197 177.075C55.8526 177.072 56.6854 177.067 57.5183 177.061C57.8242 177.059 58.13 177.058 58.4359 177.058C58.8532 177.057 59.2706 177.053 59.6879 177.05C59.9216 177.049 60.1552 177.047 60.396 177.046C61.1608 176.975 61.6295 176.797 62.1533 176.232C62.2481 176.108 62.3429 175.983 62.4406 175.855C63.0781 175.081 63.742 174.596 64.5997 174.091C64.8126 173.961 64.8126 173.961 65.0299 173.829C65.9292 173.283 66.8371 172.752 67.7431 172.218C68.0581 172.032 68.0581 172.032 68.3793 171.843C68.7948 171.598 69.2109 171.355 69.6278 171.113C69.9144 170.945 69.9144 170.945 70.2069 170.774C70.3773 170.675 70.5477 170.576 70.7233 170.474C71.543 169.936 71.8787 169.484 72.1632 168.545C72.2164 168.373 72.2697 168.201 72.3246 168.024C72.3631 167.893 72.4016 167.762 72.4413 167.627C72.2422 167.635 72.2422 167.635 72.039 167.642C71.7792 167.648 71.7792 167.648 71.5141 167.654C71.342 167.659 71.1699 167.664 70.9925 167.669C70.5339 167.627 70.5339 167.627 70.11 167.202C70.0985 166.541 70.1168 165.905 70.1553 165.247C70.1663 165.033 70.1772 164.819 70.1885 164.599C70.367 161.263 70.6017 157.93 70.8291 154.598C70.8976 153.593 70.9654 152.588 71.0333 151.583C71.1478 149.889 71.2627 148.195 71.378 146.501C71.5232 144.367 71.6676 142.233 71.8119 140.099C72.7596 126.077 72.7596 126.077 73.1362 120.841C73.1466 120.697 73.1569 120.554 73.1675 120.406C73.2699 118.981 73.3732 117.556 73.4783 116.131C73.5101 115.695 73.5418 115.258 73.5736 114.821C73.588 114.631 73.6024 114.44 73.6172 114.244C73.8779 112.346 73.8779 112.346 73.4315 110.621C73.2971 110.526 73.1626 110.43 73.0242 110.332C66.1568 104.918 62.9194 96.2562 61.7826 87.7932C61.605 86.268 61.5931 84.7421 61.5933 83.2084C61.5928 82.7644 61.589 82.3206 61.585 81.8766C61.5777 80.0685 61.7205 78.3312 62.0564 76.5505C61.8554 76.5461 61.6543 76.5417 61.4471 76.5372C59.7814 76.2934 58.3324 74.8954 57.3061 73.6278C55.5519 71.1117 54.7721 68.0772 54.3138 65.0783C54.2869 64.9038 54.2599 64.7294 54.2321 64.5496C53.9572 62.7144 53.7824 60.8739 53.6237 59.0255C53.5919 58.6673 53.5601 58.3091 53.5281 57.9509C53.4622 57.208 53.397 56.465 53.3327 55.722C53.2511 54.7798 53.1678 53.8378 53.084 52.8959C53.0028 51.9821 52.9225 51.0683 52.8422 50.1545C52.8273 49.9859 52.8124 49.8174 52.797 49.6437C52.754 49.1556 52.7116 48.6675 52.6694 48.1794C52.6493 47.9481 52.6493 47.9481 52.6287 47.7121C52.5624 46.9313 52.5074 46.1515 52.4694 45.3688C52.4616 45.2135 52.4537 45.0582 52.4456 44.8982C52.4251 44.473 52.4076 44.0476 52.3902 43.6222C52.2895 42.7792 52.0868 42.3273 51.4712 41.7566C50.7168 41.2064 49.9449 40.6883 49.1606 40.1822C45.9448 38.0376 42.5193 34.9064 41.4986 31.012C41.3897 30.0907 41.3955 29.6901 41.8827 28.8973C42.3463 28.4584 42.3463 28.4584 42.9821 28.4584C42.9647 28.2346 42.9472 28.0108 42.9292 27.7801C42.9911 26.8317 43.1409 26.542 43.8299 25.9049C44.2511 25.7551 44.675 25.6131 45.1015 25.4793C45.237 25.3344 45.3725 25.1896 45.5121 25.0404C45.9493 24.6281 45.9493 24.6281 46.638 24.3887C48.1591 24.4396 48.9939 25.5448 50.0034 26.5988C51.8347 28.5059 53.9117 29.9362 56.3341 31.012C56.474 31.012 56.6139 31.012 56.758 31.012C56.7378 30.8861 56.7176 30.7602 56.6968 30.6305C56.4516 28.8756 56.4516 28.8756 56.97 28.0328C57.3541 27.6338 57.3541 27.6338 57.8177 27.3944C58.8908 27.5017 59.2816 27.8979 59.9437 28.707C62.1683 31.92 63.3784 35.1719 62.8073 39.1315C62.7358 39.5074 62.6587 39.8824 62.573 40.2553C62.3223 41.7301 62.6026 43.0197 62.9572 44.4448C63.0048 44.6408 63.0523 44.8369 63.1014 45.0388C63.4747 46.5531 63.898 48.0445 64.3877 49.5253C64.4473 49.4066 64.5068 49.288 64.5681 49.1657C67.3042 43.7411 70.2453 38.5359 76.2562 36.3319C79.775 35.295 83.3391 35.652 86.939 36.005C87.166 36.0256 87.3931 36.0463 87.6271 36.0676C87.8303 36.0876 88.0336 36.1077 88.243 36.1284C88.816 36.1649 88.816 36.1649 89.3963 35.6935C89.6707 34.1471 89.3539 32.7642 88.758 31.3412C88.5595 30.8275 88.4768 30.3841 88.4028 29.8416C88.2197 29.0847 88.2197 29.0847 87.7347 28.9181C87.4027 28.8309 87.0701 28.7457 86.7371 28.6621C85.4987 28.177 84.7516 26.9327 84.0978 25.8251C83.718 24.4425 83.6357 23.0898 84.2568 21.7686C84.6196 21.1395 85.0113 20.6173 85.5814 20.1594C85.7213 20.1594 85.8612 20.1594 86.0053 20.1594C86.0008 20.0138 85.9964 19.8683 85.9918 19.7183C85.8792 15.4629 86.0069 11.9963 89.0386 8.70824C90.0973 7.71453 91.3666 6.85552 92.7872 6.51378C93.4445 6.39815 93.4445 6.39815 93.688 5.90199C93.7667 5.69132 93.7667 5.69132 93.8469 5.4764C94.4827 5.0508 94.4827 5.0508 95.145 5.1173ZM89.3963 10.3707C87.759 12.4025 87.2331 15.0545 87.2769 17.6058C87.4873 17.4977 87.6976 17.3896 87.9144 17.2783C93.7772 14.2853 99.3493 12.7132 105.927 12.4987C105.356 10.6083 104.152 9.15529 102.536 8.02996C98.2983 5.91515 92.6339 6.81687 89.3963 10.3707ZM91.9395 16.5418C91.9395 16.612 91.9395 16.6823 91.9395 16.7546C96.0964 17.5324 100.638 16.9469 104.8 16.3789C105.22 16.3221 105.64 16.2656 106.06 16.2093C106.267 16.1816 106.474 16.1538 106.687 16.1253C109.249 15.8026 111.825 15.7452 114.405 15.6906C114.221 15.2011 114.221 15.2011 113.62 15.0522C113.248 14.9469 113.248 14.9469 112.868 14.8394C112.627 14.7692 112.385 14.699 112.136 14.6267C109.7 14.0213 107.284 13.8941 104.788 13.8952C104.621 13.895 104.454 13.8948 104.281 13.8947C99.8697 13.9055 96.0184 14.8836 91.9395 16.5418ZM105.561 17.3589C100.88 18.0603 96.2431 18.2031 91.5156 18.2442C91.4643 18.4647 91.4129 18.6853 91.36 18.9125C91.2884 19.204 91.2166 19.4955 91.1447 19.787C91.0947 20.0046 91.0947 20.0046 91.0437 20.2267C90.8151 21.1361 90.5821 21.7247 89.8201 22.2873C88.5218 22.3119 87.8273 21.7892 86.853 21.0105C85.9134 21.7078 85.3692 22.1468 85.1575 23.3513C85.1842 25.014 85.8036 26.095 86.9325 27.288C87.6425 27.6954 88.1672 27.6225 88.9724 27.6072C89.4514 28.3287 89.5966 28.9222 89.8069 29.7618C90.0383 30.6783 90.281 31.5766 90.6149 32.4617C91.0465 33.7235 91.0769 34.9465 90.6149 36.1989C90.244 36.7575 90.244 36.7575 89.7672 37.1698C89.3256 37.6008 89.3256 37.6008 89.3698 38.3003C89.843 39.8842 91.0033 41.1636 92.3634 42.0774C94.6811 43.285 97.0117 43.7969 99.5974 43.2012C101.165 42.6044 102.307 41.763 103.012 40.2038C103.276 39.4344 103.435 38.637 103.384 37.8215C103.244 37.681 103.104 37.5406 102.96 37.3959C102.283 37.46 101.634 37.5734 100.971 37.7217C100.388 37.8267 99.8431 37.8572 99.2513 37.8614C99.0568 37.8644 98.8623 37.8674 98.6619 37.8705C98.0442 37.818 97.5869 37.654 97.026 37.3959C97.026 37.115 97.026 36.8341 97.026 36.5447C97.2872 36.557 97.5483 36.5694 97.8174 36.5821C100.393 36.6677 102.403 36.4703 104.51 34.829C107.313 32.1204 108.004 28.0018 108.086 24.2682C108.092 23.7409 108.097 23.2136 108.1 22.6863C108.102 22.4353 108.104 22.1843 108.106 21.9257C108.1 20.3041 107.94 18.77 107.623 17.1802C106.897 17.1802 106.274 17.2454 105.561 17.3589ZM46.3731 25.9049C46.6889 26.945 47.2817 27.5624 48.0156 28.3254C48.2457 28.5705 48.4755 28.8157 48.7053 29.0611C48.8151 29.1776 48.925 29.294 49.0382 29.414C50.6361 31.113 50.6361 31.113 50.8238 32.076C49.5974 31.6373 48.9127 31.1033 48.0686 30.1209C47.9597 29.9982 47.8507 29.8756 47.7385 29.7492C47.4222 29.392 47.1093 29.032 46.797 28.6712C46.6342 28.4863 46.4713 28.3015 46.3036 28.111C45.9711 27.7323 45.6408 27.352 45.3134 26.9689C45.0337 27.0391 44.7539 27.1093 44.4657 27.1817C44.3115 27.5686 44.3115 27.5686 44.2538 28.0328C44.4378 28.4256 44.4378 28.4256 44.7571 28.7909C44.8749 28.938 44.9926 29.085 45.1139 29.2365C45.2497 29.4011 45.3855 29.5656 45.5254 29.7352C45.6765 29.9261 45.8275 30.117 45.9832 30.3138C46.4579 30.9089 46.9422 31.4941 47.4328 32.076C47.6012 32.2805 47.6012 32.2805 47.7731 32.4891C48.9595 33.8089 50.5724 34.6125 52.0954 35.4807C52.5683 35.7503 53.0407 36.0208 53.5127 36.292C53.7103 36.4031 53.9078 36.5142 54.1113 36.6287C54.6591 36.9835 55.0747 37.3132 55.4864 37.8215C55.4864 38.1024 55.4864 38.3833 55.4864 38.6727C54.7776 38.4503 54.2684 38.1369 53.6982 37.6752C52.9424 37.0835 52.1661 36.6774 51.3007 36.2654C48.5249 34.9202 46.6798 33.0717 44.8268 30.6535C44.2855 29.9156 44.2855 29.9156 43.4458 29.6554C43.2928 29.6817 43.1398 29.7081 42.9821 29.7352C42.6598 30.676 42.9392 31.2419 43.3191 32.125C44.9897 35.4194 47.8243 37.6747 50.7816 39.735C53.1384 41.4006 53.1384 41.4006 53.579 42.503C53.6547 43.0623 53.7104 43.6069 53.7498 44.1689C53.763 44.3362 53.7762 44.5035 53.7897 44.6759C53.8181 45.0396 53.8457 45.4033 53.8726 45.7672C53.9157 46.3491 53.961 46.9308 54.007 47.5125C54.1209 48.9618 54.2313 50.4114 54.3413 51.861C54.5731 64.1123 54.5731 64.1123 59.9371 74.4225C61.6108 75.5399 63.4062 75.7185 65.3605 75.3959C68.1302 74.6798 70.2269 72.5601 71.6466 70.1533C71.7918 69.9111 71.7918 69.9111 71.9399 69.6641C74.0841 66.4531 74.0841 66.4531 75.1965 62.9315C74.0579 62.3546 72.9187 61.7788 71.7789 61.2041C71.391 61.0083 71.0033 60.8122 70.6158 60.6158C70.0596 60.334 69.5029 60.0533 68.946 59.7728C68.7721 59.6843 68.5981 59.5959 68.4188 59.5048C68.177 59.3834 68.177 59.3834 67.9303 59.2595C67.7882 59.1877 67.6461 59.1158 67.4996 59.0418C67.1427 58.8604 67.1427 58.8604 66.719 58.8883C66.8071 59.2541 66.8071 59.2541 66.897 59.6273C66.9746 59.9529 67.0522 60.2784 67.1297 60.604C67.1877 60.8441 67.1877 60.8441 67.2468 61.089C67.476 62.0556 67.6549 63.0096 67.7787 63.9955C67.429 63.9955 67.0793 63.9955 66.719 63.9955C66.6774 63.8068 66.6357 63.6182 66.5927 63.4239C65.9196 60.4406 65.1066 57.4951 64.3029 54.5452C62.5705 48.1837 62.5705 48.1837 61.8569 45.4871C61.8147 45.3292 61.7725 45.1713 61.729 45.0085C61.2102 43.0344 60.9659 41.1223 61.4206 39.1116C62.1557 35.721 61.0901 33.0174 59.3062 30.1857C59.0246 29.7501 58.7404 29.3161 58.4535 28.884C58.3136 28.884 58.1738 28.884 58.0296 28.884C58.0058 30.177 58.0948 31.43 58.2416 32.7144C57.2503 33.0438 56.5908 32.6363 55.6983 32.1957C55.538 32.1177 55.3776 32.0398 55.2123 31.9595C52.3298 30.5273 49.9772 28.606 47.8327 26.2099C47.3208 25.8194 47.0006 25.8452 46.3731 25.9049ZM70.9677 41.3584C68.9921 43.6638 67.5516 46.2732 66.1643 48.9655C65.9673 49.3419 65.7621 49.7141 65.5494 50.0818C64.8941 51.2385 64.8941 51.2385 64.8712 52.531C64.9496 52.8082 65.0358 53.0833 65.1295 53.3556C65.1893 53.5581 65.1893 53.5581 65.2504 53.7646C65.3321 54.0381 65.4192 54.31 65.512 54.58C65.6594 55.058 65.6594 55.058 65.7524 55.5659C65.9229 56.3838 66.0743 56.9911 66.7129 57.5545C67.262 57.8802 67.8164 58.1533 68.3971 58.4179C68.6032 58.5188 68.8093 58.6197 69.0216 58.7236C69.6772 59.0426 70.337 59.3512 70.9975 59.6597C71.4442 59.8749 71.8906 60.0907 72.3366 60.3073C73.4276 60.8351 74.5224 61.3545 75.6204 61.8675C77.0515 60.5069 77.1182 58.8265 77.2099 56.9516C77.2276 56.6202 77.2452 56.2888 77.2629 55.9574C77.2896 55.4396 77.316 54.9217 77.3424 54.4038C77.3682 53.9009 77.395 53.398 77.4218 52.8951C77.4294 52.7406 77.4369 52.5861 77.4446 52.4269C77.4825 51.7208 77.5303 51.0541 77.7397 50.3765C78.0195 50.4467 78.2993 50.5169 78.5875 50.5893C78.4578 54.268 78.2885 57.9428 78.0841 61.6181C78.0564 62.1238 78.0287 62.6295 78.001 63.1352C77.929 64.4501 77.8565 65.765 77.7839 67.0799C77.6676 69.1859 77.5519 71.2919 77.4365 73.3979C77.3967 74.1227 77.3565 74.8475 77.3164 75.5723C77.1577 78.4512 77.0166 81.3305 76.892 84.2111C77.2092 84.2898 77.5263 84.3685 77.8435 84.4471C78.0201 84.491 78.1968 84.5348 78.3787 84.5799C87.7148 86.8818 104.625 89.3336 113.557 84.8495C113.563 84.6991 113.57 84.5487 113.576 84.3938C113.732 80.7201 113.887 77.0465 114.043 73.3729C114.119 71.5964 114.194 69.8198 114.269 68.0432C114.335 66.4932 114.401 64.9432 114.467 63.3933C114.501 62.5739 114.536 61.7546 114.571 60.9353C114.603 60.1611 114.636 59.3871 114.669 58.613C114.687 58.1994 114.704 57.7858 114.722 57.3722C114.804 55.4641 114.916 53.559 115.041 51.6533C115.32 51.583 115.6 51.5128 115.888 51.4405C115.925 55.7011 115.82 59.9507 115.676 64.2083C117.056 63.7957 118.436 63.3831 119.816 62.9705C120.284 62.8304 120.753 62.6902 121.222 62.5501C121.898 62.3478 122.575 62.1455 123.251 61.9431C123.458 61.8813 123.665 61.8194 123.879 61.7556C124.273 61.6376 124.668 61.5191 125.062 61.4002C125.457 61.2827 125.853 61.1688 126.25 61.0577C126.442 61.003 126.635 60.9483 126.833 60.8919C127.006 60.844 127.178 60.7961 127.356 60.7468C127.798 60.6263 127.798 60.6263 127.969 60.1651C127.798 59.5597 127.612 58.9734 127.407 58.3796C127.346 58.1991 127.285 58.0186 127.223 57.8327C127.023 57.244 126.82 56.6564 126.618 56.0688C126.549 55.8697 126.481 55.6706 126.411 55.4655C125.401 52.5229 124.374 49.5966 123.094 46.7589C123.023 46.5995 122.951 46.44 122.878 46.2757C121.338 42.8868 119.241 39.8753 115.676 38.4599C113.066 37.5508 110.425 37.578 107.689 37.5954C107.393 37.5965 107.098 37.5974 106.802 37.5983C106.087 37.6008 105.371 37.6043 104.656 37.6087C104.631 37.795 104.607 37.9812 104.582 38.1731C104.548 38.4195 104.513 38.6658 104.478 38.9195C104.445 39.1629 104.412 39.4062 104.378 39.6569C104.065 41.1947 103.306 42.3338 102.033 43.2345C99.9282 44.4918 97.665 44.959 95.2518 44.493C92.837 43.8716 90.5626 42.7576 89.1843 40.5878C89.0834 40.322 88.9878 40.0541 88.8962 39.7849C88.4099 38.4483 88.4099 38.4483 87.4888 37.3959C85.8724 36.8395 84.0899 36.9415 82.4024 36.9703C82.0304 36.965 81.6584 36.9595 81.2864 36.9537C77.3605 36.9604 73.6754 38.4929 70.9677 41.3584ZM170.992 62.2931C169.518 64.0978 168.334 66.137 167.106 68.1121C164.686 71.9889 162.206 75.8268 159.708 79.6527C159.104 80.5788 158.499 81.505 157.895 82.4313C157.604 82.877 157.313 83.3227 157.022 83.7683C156.689 84.279 156.356 84.7902 156.024 85.3017C155.883 85.5167 155.883 85.5167 155.739 85.736C155.381 86.2896 155.094 86.7735 154.885 87.4031C155.025 87.6138 155.164 87.8244 155.309 88.0415C155.974 88.1383 155.974 88.1383 156.77 88.1207C156.996 88.1219 156.996 88.1219 157.226 88.1231C157.724 88.1248 158.221 88.1219 158.719 88.1188C159.065 88.1187 159.41 88.1188 159.755 88.1191C160.479 88.1191 161.203 88.1169 161.927 88.113C162.857 88.1082 163.786 88.1081 164.715 88.1095C165.429 88.1102 166.142 88.1088 166.855 88.1067C167.197 88.1059 167.54 88.1057 167.883 88.106C168.361 88.1061 168.84 88.1034 169.318 88.0999C169.591 88.0989 169.864 88.098 170.144 88.0969C170.804 88.1083 170.804 88.1083 171.204 87.6159C171.267 87.1497 171.267 87.1497 171.255 86.6034C171.255 86.3897 171.256 86.176 171.257 85.9559C171.255 85.7207 171.254 85.4854 171.252 85.243C171.252 84.996 171.252 84.7489 171.252 84.4944C171.252 83.6746 171.249 82.8548 171.245 82.035C171.244 81.4678 171.244 80.9007 171.243 80.3336C171.242 78.9913 171.239 77.6491 171.234 76.3069C171.23 74.779 171.227 73.2511 171.225 71.7232C171.221 68.5798 171.213 65.4365 171.204 62.2931C171.134 62.2931 171.064 62.2931 170.992 62.2931ZM124.504 62.7564C124.319 62.8111 124.133 62.8658 123.943 62.9222C123.743 62.982 123.544 63.0419 123.338 63.1035C123.133 63.1644 122.928 63.2253 122.717 63.2881C122.283 63.417 121.85 63.5464 121.417 63.6761C120.752 63.8751 120.087 64.0728 119.421 64.2702C119.001 64.3955 118.58 64.5209 118.159 64.6463C117.86 64.7354 117.86 64.7354 117.554 64.8264C117.369 64.8817 117.185 64.9371 116.994 64.9941C116.75 65.0671 116.75 65.0671 116.501 65.1416C116.088 65.2652 116.088 65.2652 115.676 65.485C115.643 66.5317 115.743 67.4157 116.01 68.4268C116.045 68.5603 116.08 68.6938 116.116 68.8314C116.191 69.1126 116.266 69.3935 116.343 69.6742C116.456 70.0946 116.566 70.516 116.676 70.9375C118.369 77.3301 122.797 82.2984 126.803 87.4031C126.991 87.6433 127.178 87.8835 127.366 88.1238C127.685 88.5314 128.005 88.9376 128.327 89.342C128.705 89.8155 129.079 90.2915 129.452 90.7679C129.569 90.9129 129.686 91.0579 129.807 91.2072C130.6 92.2262 131.025 93.1809 131.36 94.4254C131.427 94.6572 131.494 94.889 131.563 95.1278C131.622 95.3393 131.682 95.5508 131.744 95.7687C133.147 100.327 135.966 103.842 140.081 106.175C140.621 106.405 140.98 106.283 141.533 106.129C141.198 105.294 140.655 104.801 140.009 104.187C137.348 101.591 137.348 101.591 137.082 99.7453C137.64 99.8235 137.882 99.9055 138.269 100.328C138.379 100.485 138.49 100.642 138.604 100.804C139.431 101.922 140.363 102.89 141.347 103.868C141.514 104.037 141.68 104.206 141.851 104.379C142.013 104.542 142.175 104.704 142.342 104.871C142.487 105.016 142.632 105.161 142.781 105.31C143.26 105.731 143.721 106.051 144.288 106.342C144.869 106.297 144.869 106.297 145.348 106.129C145.23 105.347 145.037 104.829 144.587 104.182C144.474 104.018 144.361 103.854 144.245 103.685C144.123 103.513 144.002 103.341 143.877 103.163C143.754 102.985 143.631 102.808 143.505 102.624C142.92 101.782 142.328 100.946 141.726 100.117C141.628 99.9812 141.53 99.8455 141.429 99.7058C141.246 99.4537 141.061 99.2028 140.875 98.9532C140.261 98.1127 140.261 98.1127 140.261 97.4045C141.267 97.7024 141.68 98.1808 142.301 99.0138C142.39 99.133 142.479 99.2521 142.571 99.3749C143.436 100.549 144.222 101.775 144.994 103.012C145.133 103.232 145.133 103.232 145.274 103.458C145.355 103.588 145.436 103.719 145.519 103.853C145.788 104.237 146.051 104.549 146.407 104.852C146.964 104.906 146.964 104.906 147.467 104.852C147.752 104.513 147.752 104.513 147.891 104.001C147.383 102.336 146.258 100.893 145.295 99.4627C143.96 97.458 142.702 95.3691 142.38 92.9358C143.152 92.6776 143.322 92.7945 144.049 93.1087C144.228 93.1847 144.407 93.2607 144.591 93.3389C144.957 93.4971 145.323 93.6556 145.689 93.8144C146.303 94.0394 146.819 94.0301 147.467 93.9998C147.537 93.7189 147.607 93.438 147.679 93.1486C147.553 93.0704 147.427 92.9921 147.297 92.9115C146.718 92.5517 146.139 92.1918 145.559 91.8319C145.361 91.7089 145.163 91.5859 144.959 91.4591C144.764 91.3377 144.569 91.2163 144.367 91.0913C144.173 90.9711 143.979 90.8509 143.778 90.7271C143.439 90.5142 143.101 90.2975 142.768 90.0748C141.927 89.5165 141.145 89.154 140.178 88.8688C138.373 88.3362 137.392 87.8095 136.446 86.1263C136.273 85.843 136.099 85.5605 135.925 85.2784C135.521 84.6239 135.122 83.9661 134.728 83.3059C134.156 82.3561 133.557 81.4274 132.949 80.5005C132.114 79.2176 131.319 77.9157 130.552 76.5904C130.414 76.3542 130.414 76.3542 130.274 76.1133C129.994 75.6238 129.722 75.1306 129.452 74.6353C129.345 74.4441 129.239 74.2529 129.128 74.0559C128.245 72.3979 127.79 70.7623 127.399 68.9297C127.339 68.6635 127.28 68.3972 127.218 68.123C126.804 66.2564 126.428 64.3823 126.061 62.5059C125.46 62.5059 125.073 62.587 124.504 62.7564ZM76.4681 63.3571C76.3882 63.522 76.3083 63.6869 76.226 63.8567C75.8538 64.6221 75.4794 65.3863 75.1038 66.15C75.0363 66.2877 74.9687 66.4254 74.8992 66.5673C74.1557 68.0783 73.4063 69.5364 72.4281 70.9113C70.2092 74.1911 70.0229 79.0156 70.0438 82.8413C70.0442 82.989 70.0446 83.1368 70.045 83.2891C70.0719 89.4341 71.4955 94.8498 74.5607 100.171C75.0519 99.4311 75.0739 99.0299 75.1494 98.1512C75.1619 98.0121 75.1744 97.8729 75.1872 97.7296C75.2279 97.2703 75.266 96.8108 75.3041 96.3513C75.3319 96.0326 75.3598 95.7138 75.3878 95.3951C75.4612 94.5567 75.5324 93.7181 75.6032 92.8795C75.6757 92.0235 75.7504 91.1678 75.8249 90.312C75.9707 88.6332 76.1142 86.9542 76.2562 85.2751C76.1163 85.2049 75.9764 85.1347 75.8323 85.0623C75.8092 83.0115 75.8595 80.9779 75.9893 78.9307C76.0188 78.4656 76.0469 78.0003 76.0748 77.5351C76.1442 76.3802 76.2155 75.2255 76.2871 74.0708C76.3575 72.9343 76.427 71.7978 76.4946 70.6611C76.5039 70.5059 76.5131 70.3506 76.5226 70.1906C76.6566 67.9115 76.7389 65.6404 76.6801 63.3571C76.6101 63.3571 76.5402 63.3571 76.4681 63.3571ZM115.253 71.2305C115.248 71.3585 115.243 71.4864 115.238 71.6182C115.187 72.9683 115.135 74.3185 115.083 75.6686C115.064 76.1702 115.045 76.6719 115.026 77.1735C114.844 81.9798 114.844 81.9798 114.722 84.2319C114.714 84.3809 114.707 84.53 114.699 84.6835C114.642 85.6755 114.642 85.6755 114.405 85.9135C114.379 86.535 114.37 87.1496 114.372 87.7713C114.372 87.9683 114.372 88.1653 114.373 88.3682C114.393 91.1225 114.566 93.8707 114.723 96.6198C114.753 97.1736 114.784 97.7273 114.815 98.2811C114.889 99.6204 114.964 100.96 115.041 102.299C118.935 97.4985 120.326 91.6875 120.917 85.6544C120.953 85.2848 120.992 84.9155 121.035 84.5467C121.203 83.0566 121.231 81.8447 120.301 80.5809C119.925 80.1158 119.534 79.6656 119.137 79.2183C117.54 77.364 116.822 75.3015 116.155 72.9862C116.07 72.6915 116.07 72.6915 115.983 72.391C115.934 72.2135 115.884 72.0361 115.834 71.8533C115.713 71.4021 115.713 71.4021 115.253 71.2305ZM77.5278 85.7007C77.224 86.6158 77.1794 87.5362 77.0907 88.4937C77.0714 88.6879 77.0522 88.8821 77.0323 89.0822C76.9173 90.3018 76.8733 91.498 76.892 92.723C79.2234 92.371 81.3952 90.9496 82.8262 89.1055C83.4574 88.1121 83.4574 88.1121 83.674 86.9775C81.6358 86.4834 79.5904 86.0756 77.5278 85.7007ZM111.575 86.5253C111.395 86.5637 111.214 86.6021 111.029 86.6417C110.84 86.6823 110.652 86.7229 110.457 86.7647C110.267 86.8053 110.077 86.8459 109.881 86.8877C109.411 86.9882 108.941 87.0891 108.471 87.1903C109.048 89.322 110.128 91.0519 112.047 92.2176C112.686 92.5531 112.686 92.5531 113.345 92.5102C113.316 91.6811 113.284 90.8521 113.252 90.0231C113.244 89.7885 113.236 89.5538 113.227 89.312C113.218 89.085 113.209 88.858 113.2 88.6242C113.192 88.4158 113.185 88.2074 113.177 87.9927C113.135 87.4255 113.045 86.8935 112.921 86.3391C112.446 86.3391 112.04 86.4257 111.575 86.5253ZM84.9456 87.1903C84.8557 87.3881 84.7658 87.5858 84.6732 87.7896C83.2275 90.8862 81.3739 92.3667 78.1967 93.6133C78.0504 93.6713 77.904 93.7294 77.7532 93.7892C77.3957 93.931 77.0379 94.0719 76.6801 94.2126C75.2623 107.118 74.461 120.089 73.6327 133.043C73.5709 134.01 73.5091 134.977 73.4472 135.944C73.432 136.182 73.4167 136.421 73.401 136.667C73.177 140.166 72.9433 143.664 72.7005 147.162C72.6854 147.38 72.6703 147.597 72.6548 147.821C72.5121 149.878 72.3683 151.936 72.2227 153.994C72.1706 154.732 72.1191 155.469 72.0677 156.207C72.044 156.544 72.0201 156.881 71.9959 157.219C71.9628 157.679 71.9307 158.139 71.8987 158.6C71.8806 158.855 71.8625 159.111 71.8438 159.374C71.7974 160.351 71.8055 161.33 71.8055 162.307C76.4215 162.307 81.0375 162.307 85.7933 162.307C86.1255 160.139 86.4578 157.971 86.8 155.737C87.9756 148.123 89.2101 140.518 90.4559 132.915C90.5252 132.492 90.5944 132.07 90.6637 131.647C90.7097 131.366 90.7558 131.085 90.8019 130.803C91.052 129.277 91.3021 127.75 91.5521 126.224C91.5963 125.953 91.6405 125.683 91.6861 125.405C92.4776 120.571 93.2597 115.735 94.0302 110.898C94.1114 110.388 94.1927 109.878 94.2741 109.369C94.3979 108.593 94.5213 107.818 94.6444 107.042C94.7091 106.635 94.774 106.227 94.839 105.82C94.8764 105.583 94.9138 105.347 94.9524 105.103C94.9848 104.898 95.0171 104.694 95.0505 104.484C95.1285 104.012 95.1285 104.012 95.1186 103.576C95.6923 103.468 96.2663 103.362 96.8405 103.256C97.0017 103.226 97.1629 103.196 97.329 103.164C98.2299 103 99.073 102.902 99.9931 102.937C99.9931 103.218 99.9931 103.499 99.9931 103.788C98.8041 104.069 97.6152 104.35 96.3902 104.64C96.5326 107.467 96.7881 110.269 97.0823 113.084C97.1316 113.562 97.1808 114.04 97.2299 114.517C97.3355 115.543 97.4415 116.568 97.5479 117.593C97.8203 120.219 98.0901 122.846 98.3597 125.472C98.4046 125.91 98.4496 126.347 98.4945 126.785C98.9776 131.487 99.4513 136.19 99.9194 140.893C99.9352 141.052 99.951 141.211 99.9673 141.375C100.278 144.497 100.588 147.62 100.897 150.743C101.027 152.049 101.156 153.355 101.286 154.661C101.364 155.455 101.443 156.249 101.521 157.043C101.569 157.522 101.616 158.001 101.664 158.48C101.685 158.694 101.706 158.907 101.728 159.127C101.747 159.326 101.767 159.525 101.788 159.731C101.804 159.901 101.821 160.071 101.839 160.246C101.921 161.005 102.018 161.763 102.112 162.52C106.728 162.52 111.344 162.52 116.1 162.52C116.103 157.857 116.103 157.857 115.981 153.201C115.968 152.859 115.955 152.517 115.942 152.175C115.908 151.261 115.872 150.347 115.836 149.433C115.797 148.452 115.759 147.472 115.722 146.491C115.649 144.607 115.576 142.724 115.501 140.841C115.442 139.328 115.382 137.815 115.323 136.302C114.918 125.915 114.499 115.528 114.007 105.145C113.996 104.912 113.985 104.679 113.974 104.439C113.912 103.129 113.85 101.818 113.786 100.508C113.767 100.127 113.749 99.7456 113.731 99.3643C113.678 98.2851 113.621 97.2064 113.557 96.1277C113.538 95.7867 113.538 95.7867 113.519 95.4387C113.505 95.2463 113.491 95.0539 113.477 94.8557C113.461 94.6189 113.461 94.6189 113.444 94.3774C113.364 93.9151 113.364 93.9151 112.735 93.5335C112.477 93.4372 112.22 93.3409 111.954 93.2417C109.69 92.285 108.577 90.7101 107.623 88.4671C107.481 88.1126 107.34 87.758 107.199 87.4031C105.231 87.3881 103.27 87.4327 101.304 87.5095C101.034 87.5196 100.763 87.5298 100.484 87.5402C99.8261 87.565 99.1678 87.5902 98.5095 87.6159C98.2485 88.4384 98.254 89.2666 98.238 90.1212C98.2341 90.283 98.2302 90.4448 98.2262 90.6114C98.2138 91.1291 98.2026 91.6467 98.1916 92.1644C98.1415 94.4853 98.0663 96.7926 97.8737 99.1069C97.594 99.1069 97.3142 99.1069 97.026 99.1069C97.026 95.3149 97.026 91.5228 97.026 87.6159C95.5704 87.5698 95.5704 87.5698 94.0854 87.5228C91.0382 87.4252 87.9918 87.3129 84.9456 87.1903ZM94.0589 117.62C93.4062 121.673 92.7537 125.726 92.1015 129.779C92.0435 130.139 92.0435 130.139 91.9844 130.506C91.8258 131.492 91.6672 132.477 91.5086 133.463C91.0412 136.368 90.5735 139.273 90.1054 142.178C89.8203 143.948 89.5354 145.717 89.2506 147.487C89.0839 148.523 88.9172 149.558 88.7501 150.594C88.1051 154.594 87.465 158.594 86.8478 162.598C86.7911 162.967 86.7342 163.335 86.6771 163.703C86.599 164.208 86.5215 164.713 86.4442 165.218C86.421 165.368 86.3978 165.517 86.3739 165.671C86.2844 166.26 86.2172 166.817 86.2172 167.415C85.4479 167.485 84.6786 167.555 83.8859 167.627C84.0258 170.787 84.1657 173.947 84.3098 177.203C90.3945 177.203 96.4792 177.203 102.748 177.203C102.888 175.097 103.028 172.99 103.172 170.819C103.44 168.575 103.44 168.575 103.596 167.627C103.461 167.615 103.326 167.602 103.186 167.588C103.011 167.571 102.836 167.553 102.656 167.534C102.394 167.508 102.394 167.508 102.127 167.482C101.689 167.415 101.689 167.415 101.477 167.202C101.399 166.622 101.334 166.045 101.276 165.463C101.257 165.277 101.238 165.091 101.218 164.9C101.153 164.266 101.09 163.633 101.026 163C100.98 162.544 100.933 162.088 100.887 161.632C100.757 160.358 100.628 159.085 100.5 157.811C100.416 156.974 100.331 156.136 100.246 155.299C99.9368 152.246 99.6284 149.193 99.3209 146.14C99.3049 145.982 99.289 145.824 99.2727 145.661C99.1109 144.055 98.9493 142.449 98.7878 140.844C98.5805 138.783 98.373 136.723 98.1651 134.663C98.1497 134.51 98.1343 134.357 98.1184 134.2C97.5605 128.671 96.9846 123.145 96.3902 117.62C95.6208 117.62 94.8515 117.62 94.0589 117.62ZM32.8092 126.345C32.3566 127.027 32.3301 127.135 32.4118 127.901C32.4255 128.058 32.4391 128.215 32.4532 128.377C32.6473 129.08 33.0243 129.587 33.445 130.175C33.6401 130.078 33.8351 129.98 34.0361 129.879C36.8725 128.488 39.6512 127.584 42.8364 127.582C43.0068 127.579 43.1771 127.577 43.3526 127.574C44.5519 127.571 45.6384 127.739 46.797 128.047C46.9019 128.469 46.9019 128.469 47.0089 128.898C46.842 128.883 46.6751 128.868 46.5031 128.852C42.5963 128.518 38.365 128.457 34.9882 130.785C34.0139 131.7 33.8397 133.08 33.7894 134.378C33.8403 135.587 34.2389 136.298 35.1007 137.144C36.5236 138.153 37.8928 138.204 39.5912 138.049C42.7763 137.466 45.6824 135.519 48.3865 133.819C50.6316 132.416 52.6387 131.772 55.2745 131.452C53.2095 127.936 49.4231 125.932 45.6247 124.856C41.7037 123.93 36.1617 123.599 32.8092 126.345ZM3.56193 139.325C2.32055 140.772 2.32055 140.772 1.6545 142.517C1.86978 142.52 2.08506 142.523 2.30686 142.527C5.5232 142.616 7.60242 143.764 10.2503 145.536C12.7098 147.171 15.3524 148.624 18.3975 148.263C20.1363 147.84 21.5198 147.158 22.5377 145.654C23.2185 144.44 23.5512 143.269 23.272 141.879C22.7682 140.723 22.0208 140.443 20.8981 139.988C17.2872 138.58 13.4185 138.502 9.67332 139.399C9.07228 139.538 9.07228 139.538 8.43647 139.538C8.43647 139.257 8.43647 138.976 8.43647 138.687C13.1661 137.08 18.0185 137.503 22.5327 139.527C22.9923 139.722 23.4212 139.86 23.9078 139.964C24.6179 139.132 25.1944 138.437 25.1662 137.304C24.6845 136.014 23.5576 135.436 22.3738 134.886C16.1393 132.309 8.12486 134.54 3.56193 139.325ZM35.7101 146.64C34.9581 147.599 34.6964 148.321 34.7166 149.54C34.9576 149.64 35.1985 149.741 35.4468 149.845C40.0412 151.803 44.2655 154.599 47.0089 158.903C47.0089 159.113 47.0089 159.324 47.0089 159.541C46.3824 159.472 46.0428 159.425 45.5958 158.963C45.4895 158.807 45.3832 158.651 45.2737 158.49C42.7497 155.044 38.3564 151.554 34.0808 150.604C32.9322 150.436 31.8629 150.328 30.8041 150.871C29.5436 151.883 28.8847 153.172 28.6897 154.767C28.9671 156.955 30.1289 158.331 31.7925 159.717C33.7574 161.122 35.9791 161.575 38.3195 161.948C42.384 162.659 45.7551 164.13 49.3402 166.138C49.6973 166.337 50.0544 166.536 50.4115 166.735C50.6903 166.89 50.969 167.046 51.2477 167.202C51.4388 160.057 49.8724 153.711 44.8805 148.382C43.1885 146.637 41.3363 145.323 38.8494 145.217C37.5335 145.258 36.5947 145.656 35.7101 146.64ZM27.7227 156.775C27.7207 156.968 27.7187 157.161 27.7167 157.359C27.7073 158.088 27.6942 158.816 27.6787 159.544C27.6728 159.857 27.6683 160.169 27.6653 160.482C27.6498 161.997 27.6343 163.413 27.0869 164.848C26.4638 166.501 26.5196 168.17 26.5041 169.915C26.4981 170.244 26.4917 170.572 26.485 170.901C26.4455 173.001 26.4446 175.102 26.4511 177.203C26.9407 177.203 27.4302 177.203 27.9346 177.203C27.9537 177.017 27.9727 176.831 27.9923 176.64C28.5623 171.2 29.5101 166.138 31.5376 161.031C31.3969 160.91 31.2562 160.789 31.1112 160.664C29.79 159.504 28.6529 158.414 27.9346 156.775C27.8647 156.775 27.7948 156.775 27.7227 156.775ZM71.5936 163.797C71.5236 164.64 71.4537 165.482 71.3816 166.351C75.9277 166.351 80.4737 166.351 85.1575 166.351C85.2275 165.508 85.2974 164.665 85.3695 163.797C79.6614 163.626 79.6614 163.626 73.9514 163.558C73.7328 163.557 73.5143 163.556 73.2891 163.555C73.093 163.555 72.8968 163.556 72.6947 163.556C72.4423 163.556 72.4423 163.556 72.1848 163.557C71.8005 163.543 71.8005 163.543 71.5936 163.797ZM166.727 164.146C166.595 164.267 166.464 164.389 166.329 164.514C166.189 164.646 166.049 164.778 165.905 164.914C165.762 165.05 165.618 165.186 165.471 165.325C162.015 168.641 159.308 172.798 157.428 177.203C158.827 177.203 160.225 177.203 161.667 177.203C161.773 176.928 161.879 176.654 161.989 176.37C163.31 173.04 164.867 169.856 166.488 166.664C166.575 166.492 166.663 166.319 166.753 166.142C166.919 165.814 167.085 165.487 167.253 165.16C167.668 164.411 167.668 164.411 167.813 163.584C167.25 163.584 167.136 163.768 166.727 164.146ZM102.324 163.797C102.394 164.64 102.464 165.482 102.536 166.351C107.082 166.351 111.628 166.351 116.312 166.351C116.312 165.508 116.312 164.665 116.312 163.797C111.696 163.797 107.08 163.797 102.324 163.797ZM156.368 167.627C153.27 172.084 153.27 172.084 151.918 177.203C153.176 177.203 154.435 177.203 155.732 177.203C156.147 174.011 156.476 170.846 156.58 167.627C156.51 167.627 156.44 167.627 156.368 167.627ZM165.495 174.384C164.089 175.642 164.089 175.642 163.362 177.203C164.628 177.403 165.933 177.603 167.177 177.203C168.103 176.452 168.574 175.303 169.075 174.245C169.396 173.597 169.787 173.025 170.197 172.429C170.332 172.228 170.466 172.028 170.604 171.821C170.732 171.631 170.86 171.441 170.992 171.245C171.239 170.873 171.487 170.5 171.734 170.128C171.91 169.862 172.087 169.596 172.263 169.33C170.148 169.33 166.946 172.948 165.495 174.384ZM173.111 174.862C172.62 175.172 172.13 175.482 171.641 175.793C171.501 175.881 171.361 175.969 171.217 176.059C170.452 176.511 170.452 176.511 169.932 177.203C170.67 177.322 171.319 177.371 172.052 177.203C172.616 176.635 172.974 176.007 173.323 175.288C173.253 175.148 173.183 175.007 173.111 174.862Z" fill="black"/>
<path d="M34.2771 47.1621C34.6258 47.166 34.9745 47.1688 35.3232 47.1706C36.2367 47.1783 37.1494 47.2003 38.0625 47.2251C38.9952 47.2476 39.928 47.2555 40.8608 47.2652C42.219 47.2821 43.5769 47.3027 44.9348 47.3369C45.2078 47.3435 45.4808 47.3501 45.7621 47.3569C46.3716 47.3982 46.3716 47.3982 46.5835 47.611C46.6064 48.1272 46.6154 48.6375 46.6156 49.1539C46.617 49.399 46.617 49.399 46.6184 49.6491C46.6211 50.2008 46.6224 50.7525 46.6237 51.3042C46.6254 51.698 46.6271 52.0918 46.629 52.4857C46.6329 53.3357 46.636 54.1858 46.6387 55.0359C46.643 56.3786 46.6489 57.7213 46.655 59.0639C46.6688 62.1566 46.6805 65.2493 46.6923 68.342C46.703 71.1755 46.7142 74.009 46.7271 76.8425C46.7332 78.1788 46.7382 79.515 46.7424 80.8512C46.7452 81.6808 46.7489 82.5104 46.7528 83.3399C46.7545 83.7262 46.7558 84.1125 46.7567 84.4988C46.7579 85.0238 46.7605 85.5488 46.7634 86.0738C46.7634 86.2287 46.7635 86.3836 46.7636 86.5432C46.7082 87.2467 46.7082 87.2467 47.0074 87.8296C47.4748 87.8607 47.9432 87.878 48.4115 87.8894C48.622 87.8953 48.622 87.8953 48.8367 87.9013C49.2866 87.9138 49.7365 87.925 50.1865 87.936C50.7782 87.9503 51.3698 87.966 51.9614 87.9825C52.2253 87.989 52.4893 87.9954 52.7612 88.002C53.3655 88.0424 53.3655 88.0424 53.5774 88.2552C53.5983 88.5676 53.6046 88.8809 53.6049 89.194C53.6055 89.3936 53.6062 89.5931 53.6069 89.7987C53.6063 90.1242 53.6063 90.1242 53.6056 90.4563C53.6058 90.6775 53.606 90.8986 53.6062 91.1265C53.6064 91.5952 53.606 92.0639 53.6051 92.5326C53.6039 93.2528 53.6051 93.9729 53.6064 94.6931C53.6063 95.1472 53.606 95.6014 53.6056 96.0555C53.606 96.2725 53.6065 96.4895 53.6069 96.7131C53.6059 97.0124 53.6059 97.0124 53.6049 97.3177C53.6047 97.4943 53.6045 97.6708 53.6044 97.8527C53.5774 98.2566 53.5774 98.2566 53.3655 98.4694C52.862 98.4882 52.3647 98.4939 51.8613 98.4902C51.6359 98.4897 51.6359 98.4897 51.406 98.4893C50.9244 98.4881 50.4429 98.4854 49.9613 98.4827C49.6355 98.4816 49.3097 98.4807 48.984 98.4798C48.1838 98.4774 47.3837 98.4738 46.5835 98.4694C46.5846 98.7405 46.5858 99.0117 46.5869 99.291C46.5908 100.315 46.5932 101.338 46.5952 102.362C46.5962 102.802 46.5977 103.241 46.5995 103.681C46.6084 105.841 46.6112 107.997 46.49 110.154C46.4817 110.306 46.4735 110.457 46.4649 110.613C46.3989 111.635 46.3989 111.635 46.1597 111.876C45.7847 111.898 45.409 111.905 45.0334 111.906C44.6727 111.909 44.6727 111.909 44.3047 111.911C44.0429 111.911 43.781 111.911 43.5113 111.911C43.2445 111.912 42.9776 111.913 42.7027 111.913C42.137 111.915 41.5713 111.915 41.0057 111.915C40.2799 111.915 39.5541 111.918 38.8284 111.922C38.1375 111.924 37.4467 111.924 36.7558 111.925C36.4944 111.926 36.233 111.928 35.9637 111.929C35.602 111.928 35.602 111.928 35.233 111.927C35.0199 111.928 34.8069 111.928 34.5874 111.928C34.0793 111.876 34.0793 111.876 33.6554 111.45C33.5964 110.914 33.5964 110.914 33.5878 110.23C33.5815 109.846 33.5815 109.846 33.5751 109.455C33.5714 109.039 33.5714 109.039 33.5676 108.615C33.5637 108.33 33.5595 108.044 33.5552 107.759C33.5443 107.006 33.5359 106.254 33.5281 105.502C33.5196 104.735 33.5087 103.967 33.4981 103.2C33.4776 101.694 33.4597 100.188 33.4435 98.6822C33.2975 98.6815 33.1515 98.6808 33.0011 98.6801C29.453 98.6628 25.905 98.6432 22.3569 98.621C20.6411 98.6103 18.9253 98.6004 17.2095 98.5924C15.7144 98.5854 14.2193 98.5769 12.7242 98.5667C11.9322 98.5613 11.1403 98.5567 10.3482 98.5538C9.46516 98.5506 8.58213 98.5441 7.69906 98.5372C7.43503 98.5368 7.171 98.5363 6.89896 98.5359C6.65942 98.5335 6.41988 98.5311 6.17308 98.5287C5.96405 98.5275 5.75501 98.5263 5.53964 98.5251C5.04396 98.4694 5.04396 98.4694 4.62008 98.0438C4.54772 97.6392 4.54772 97.6392 4.52151 97.1389C4.51143 96.9507 4.50135 96.7626 4.49096 96.5687C4.48303 96.3637 4.4751 96.1587 4.46693 95.9474C4.45866 95.7351 4.45039 95.5227 4.44188 95.3039C4.17679 87.0098 4.17679 87.0098 7.31576 83.3163C8.13575 82.3089 8.82095 81.2127 9.52594 80.1227C9.85068 79.6236 10.1817 79.1289 10.5131 78.6342C11.3319 77.4121 12.1244 76.1779 12.8918 74.9228C13.805 73.4381 14.7653 71.9843 15.7203 70.5265C17.166 68.3188 18.5909 66.1001 19.9884 63.8612C21.5351 61.3903 23.0998 58.9306 24.684 56.4838C25.2745 55.5706 25.8591 54.6539 26.4404 53.7347C26.5886 53.501 26.7367 53.2672 26.8893 53.0264C27.179 52.5687 27.4682 52.1107 27.7567 51.6522C27.8922 51.4383 28.0278 51.2245 28.1674 51.0041C28.2857 50.8165 28.4041 50.6289 28.526 50.4357C28.6801 50.2057 28.8341 49.9758 28.9928 49.739C29.0928 49.5437 29.1927 49.3484 29.2957 49.1472C30.5466 46.986 32.0314 47.0835 34.2771 47.1621ZM33.6554 62.294C32.3373 64.0063 31.2051 65.8829 30.026 67.6937C29.8263 67.9999 29.6266 68.3061 29.4269 68.6123C28.8578 69.485 28.2894 70.3581 27.7212 71.2314C27.5826 71.4443 27.4439 71.6572 27.3011 71.8766C26.2556 73.4833 25.2157 75.0934 24.187 76.7109C23.982 77.0332 23.982 77.0332 23.7728 77.3621C23.4919 77.8043 23.2114 78.2467 22.9313 78.6894C22.1221 79.9644 21.2979 81.2268 20.4566 82.4806C20.1753 82.9022 19.8942 83.324 19.6132 83.7458C19.4297 84.0196 19.2451 84.2927 19.0593 84.5649C18.7997 84.9453 18.5442 85.3281 18.2892 85.7116C18.1409 85.9307 17.9927 86.1498 17.84 86.3755C17.4477 87.0315 17.4477 87.0315 17.7602 88.0424C23.0056 88.0424 28.251 88.0424 33.6554 88.0424C33.9148 87.5214 33.8934 87.1867 33.8928 86.6042C33.8931 86.3906 33.8934 86.1769 33.8937 85.9568C33.8929 85.7215 33.8922 85.4863 33.8914 85.2439C33.8914 84.9969 33.8915 84.7498 33.8915 84.4953C33.8913 83.6755 33.8897 82.8557 33.888 82.0358C33.8876 81.4687 33.8873 80.9016 33.8871 80.3344C33.8865 78.9922 33.8847 77.65 33.8826 76.3078C33.8802 74.7799 33.8791 73.252 33.878 71.7241C33.8758 68.5807 33.8721 65.4373 33.8673 62.294C33.7974 62.294 33.7275 62.294 33.6554 62.294Z" fill="black"/>
<path d="M147.136 53.1045C147.679 53.1444 147.679 53.1444 148.103 53.57C148.076 54.102 148.076 54.102 147.891 54.634C147.454 54.9133 147.454 54.9133 147.043 55.0596C146.763 54.8489 146.484 54.6382 146.195 54.4212C146.421 53.1597 146.421 53.1597 147.136 53.1045Z" fill="black"/>
<path d="M21.9187 109.162C22.4221 109.322 22.4221 109.322 22.634 109.535C22.6737 110.053 22.6737 110.053 22.634 110.599C22.4941 110.739 22.3542 110.88 22.2101 111.024C21.5478 110.945 21.5478 110.945 20.9385 110.812C20.7928 110.319 20.7928 110.319 20.7266 109.748C21.0782 109.159 21.2345 109.097 21.9187 109.162Z" fill="black"/>
<path d="M135.039 119.083C135.234 119.082 135.429 119.081 135.63 119.08C135.953 119.081 135.953 119.081 136.283 119.081C136.512 119.08 136.74 119.08 136.975 119.079C137.744 119.077 138.514 119.077 139.283 119.076C139.833 119.075 140.382 119.074 140.932 119.073C142.428 119.07 143.925 119.069 145.422 119.068C146.356 119.068 147.29 119.067 148.224 119.066C150.81 119.063 153.395 119.061 155.981 119.06C156.146 119.06 156.312 119.06 156.483 119.06C156.731 119.06 156.731 119.06 156.985 119.06C157.322 119.06 157.658 119.06 157.994 119.06C158.244 119.06 158.244 119.06 158.5 119.059C161.203 119.059 163.906 119.055 166.609 119.05C169.384 119.045 172.158 119.042 174.932 119.042C176.49 119.042 178.048 119.041 179.606 119.037C181.071 119.033 182.536 119.033 184.001 119.035C184.54 119.035 185.078 119.034 185.617 119.032C186.351 119.029 187.084 119.03 187.818 119.033C188.14 119.03 188.14 119.03 188.468 119.027C189.775 119.037 190.53 119.191 191.511 120.108C192.257 121.568 191.536 123.499 191.177 124.991C191.114 125.26 191.051 125.53 190.985 125.807C190.811 126.55 190.634 127.292 190.456 128.034C190.307 128.661 190.158 129.288 190.01 129.915C189.469 132.202 188.921 134.488 188.371 136.773C188.324 136.97 188.277 137.167 188.228 137.369C187.529 140.278 186.827 143.187 186.122 146.094C185.974 146.707 185.826 147.319 185.678 147.932C185.443 148.904 185.207 149.875 184.97 150.846C184.883 151.205 184.796 151.564 184.709 151.922C183.46 157.084 183.46 157.084 182.013 158.053C181.397 158.259 181.005 158.293 180.363 158.294C180.153 158.295 179.943 158.296 179.727 158.297C179.496 158.297 179.264 158.297 179.026 158.297C178.781 158.297 178.535 158.298 178.283 158.299C177.601 158.301 176.919 158.302 176.237 158.302C175.502 158.303 174.767 158.305 174.031 158.307C172.256 158.311 170.48 158.314 168.704 158.315C167.868 158.316 167.032 158.318 166.196 158.319C163.417 158.322 160.638 158.325 157.859 158.327C157.137 158.327 156.416 158.328 155.695 158.328C155.516 158.328 155.336 158.328 155.152 158.328C152.247 158.33 149.343 158.336 146.439 158.343C143.457 158.35 140.476 158.353 137.494 158.354C135.82 158.355 134.146 158.356 132.472 158.362C131.046 158.366 129.62 158.368 128.195 158.366C127.467 158.365 126.74 158.366 126.013 158.37C125.224 158.373 124.435 158.372 123.647 158.369C123.417 158.371 123.188 158.374 122.951 158.376C121.609 158.365 120.798 158.212 119.704 157.414C118.947 156.581 119.006 155.745 119.025 154.671C119.068 154.222 119.068 154.222 119.28 154.009C119.672 153.976 120.066 153.956 120.46 153.942C120.817 153.929 120.817 153.929 121.182 153.915C121.433 153.907 121.684 153.898 121.942 153.89C122.194 153.88 122.446 153.871 122.705 153.862C123.33 153.839 123.954 153.817 124.578 153.797C124.688 153.346 124.797 152.895 124.907 152.445C124.942 152.299 124.978 152.154 125.014 152.005C125.218 151.166 125.422 150.327 125.625 149.488C126.046 147.754 126.468 146.021 126.89 144.288C127.135 143.283 127.38 142.278 127.624 141.273C127.674 141.07 127.723 140.867 127.774 140.657C128.452 137.869 129.12 135.079 129.779 132.286C130.036 131.198 130.295 130.11 130.554 129.022C130.799 127.99 131.041 126.958 131.281 125.925C131.43 125.285 131.583 124.645 131.736 124.005C131.806 123.711 131.875 123.416 131.942 123.12C132.575 120.351 132.575 120.351 133.692 119.324C134.19 119.074 134.483 119.084 135.039 119.083ZM133.904 121.026C133.689 121.622 133.689 121.622 133.535 122.321C133.47 122.591 133.404 122.862 133.337 123.14C133.266 123.44 133.196 123.74 133.126 124.039C133.051 124.353 132.976 124.667 132.9 124.981C132.696 125.83 132.495 126.681 132.294 127.531C132.084 128.418 131.872 129.304 131.659 130.19C131.353 131.47 131.047 132.749 130.743 134.029C130.011 137.103 129.27 140.174 128.527 143.245C128.273 144.296 128.019 145.346 127.766 146.397C127.698 146.679 127.63 146.962 127.562 147.244C127.437 147.759 127.313 148.274 127.189 148.789C127.134 149.02 127.078 149.25 127.021 149.488C126.941 149.818 126.941 149.818 126.86 150.155C126.64 151.054 126.41 151.951 126.177 152.847C126.039 153.385 126.039 153.385 126.062 154.009C144.736 154.009 163.409 154.009 182.649 154.009C183.176 152.433 183.176 152.433 183.608 150.844C183.663 150.615 183.719 150.385 183.776 150.149C183.835 149.903 183.894 149.657 183.955 149.404C184.019 149.138 184.083 148.873 184.149 148.599C184.324 147.873 184.499 147.146 184.673 146.418C184.782 145.961 184.892 145.504 185.001 145.048C185.351 143.589 185.701 142.13 186.049 140.671C186.435 139.055 186.822 137.441 187.211 135.826C187.616 134.15 188.018 132.473 188.419 130.795C188.634 129.892 188.851 128.988 189.07 128.085C189.276 127.231 189.48 126.378 189.682 125.524C189.757 125.209 189.833 124.894 189.91 124.58C190.015 124.148 190.117 123.716 190.218 123.284C190.276 123.042 190.334 122.8 190.394 122.55C190.497 121.832 190.464 121.3 190.279 120.6C189.783 120.351 189.493 120.36 188.941 120.36C188.747 120.359 188.554 120.358 188.355 120.357C188.035 120.357 188.035 120.357 187.708 120.358C187.369 120.357 187.369 120.357 187.024 120.356C186.262 120.354 185.501 120.354 184.739 120.353C184.195 120.352 183.651 120.351 183.107 120.35C181.626 120.347 180.144 120.346 178.663 120.345C177.739 120.344 176.814 120.343 175.89 120.342C173.332 120.34 170.774 120.338 168.216 120.337C168.052 120.337 167.889 120.337 167.72 120.337C167.556 120.337 167.392 120.337 167.223 120.337C166.89 120.337 166.557 120.336 166.224 120.336C166.059 120.336 165.894 120.336 165.724 120.336C163.049 120.335 160.374 120.332 157.698 120.327C154.953 120.322 152.208 120.319 149.464 120.319C147.922 120.319 146.38 120.317 144.838 120.314C143.388 120.31 141.939 120.31 140.489 120.311C139.956 120.312 139.423 120.311 138.89 120.309C138.164 120.306 137.439 120.307 136.713 120.309C136.5 120.308 136.287 120.306 136.067 120.304C135.874 120.306 135.68 120.307 135.48 120.308C135.313 120.308 135.145 120.308 134.973 120.308C134.424 120.409 134.242 120.589 133.904 121.026Z" fill="black"/>
<path d="M59.5535 120.893C59.6803 120.936 59.8071 120.98 59.9377 121.025C60.0701 121.637 60.0701 121.637 60.1496 122.302C59.7257 122.728 59.7257 122.728 59.1959 122.781C58.6661 122.728 58.6661 122.728 58.2422 122.302C58.2819 121.77 58.2819 121.77 58.4541 121.238C59.0899 120.813 59.0899 120.813 59.5535 120.893Z" fill="black"/>
<path d="M160.609 124.643C161.797 125.447 162.309 126.367 162.919 127.646C163.012 127.835 163.105 128.024 163.201 128.219C163.497 128.821 163.788 129.425 164.08 130.03C164.274 130.427 164.468 130.824 164.663 131.22C165.043 131.996 165.421 132.773 165.799 133.551C166.28 134.541 166.769 135.527 167.262 136.512C167.845 137.677 168.409 138.848 168.954 140.031C169.703 141.638 170.504 143.211 171.341 144.773C172.9 147.69 172.9 147.69 172.69 148.902C172.339 149.436 172.17 149.66 171.63 149.966C170.741 150.128 169.86 150.111 168.959 150.104C168.552 150.106 168.552 150.106 168.136 150.109C167.394 150.114 166.651 150.112 165.908 150.109C165.131 150.106 164.353 150.109 163.575 150.11C162.268 150.112 160.962 150.11 159.656 150.105C158.146 150.099 156.637 150.101 155.128 150.107C153.831 150.111 152.534 150.112 151.237 150.109C150.463 150.108 149.689 150.108 148.915 150.111C148.052 150.115 147.189 150.11 146.326 150.104C145.942 150.107 145.942 150.107 145.55 150.11C143.623 150.086 143.623 150.086 142.971 149.457C142.564 148.857 142.383 148.563 142.383 147.838C142.781 146.772 143.27 145.928 143.946 145.005C144.037 144.879 144.129 144.753 144.223 144.623C144.422 144.349 144.622 144.075 144.822 143.802C145.262 143.2 145.696 142.594 146.131 141.988C146.481 141.5 146.831 141.013 147.182 140.526C147.879 139.559 148.575 138.592 149.271 137.624C149.5 137.305 149.73 136.985 149.96 136.666C150.073 136.508 150.187 136.35 150.304 136.187C150.648 135.709 150.993 135.23 151.337 134.751C151.451 134.593 151.565 134.435 151.682 134.272C151.911 133.954 152.14 133.636 152.368 133.317C152.954 132.504 153.538 131.69 154.122 130.876C154.696 130.076 155.27 129.277 155.847 128.479C156.047 128.202 156.248 127.924 156.447 127.646C156.703 127.292 156.961 126.938 157.218 126.585C157.428 126.296 157.428 126.296 157.642 126.001C158.537 124.931 159.185 124.417 160.609 124.643ZM157.642 132.304C157.091 134.322 157.093 136.6 157.006 138.688C156.995 138.952 156.983 139.216 156.972 139.488C156.966 139.733 156.96 139.978 156.953 140.231C156.948 140.447 156.943 140.663 156.937 140.886C157.018 141.551 157.168 141.837 157.642 142.305C158.384 142.447 158.384 142.447 159.126 142.305C159.744 141.674 159.88 141.095 160.009 140.234C160.045 139.995 160.082 139.755 160.119 139.509C160.154 139.255 160.189 139.002 160.225 138.741C160.262 138.483 160.298 138.225 160.335 137.96C160.76 135.136 160.76 135.136 160.609 132.304C160.121 131.671 159.919 131.479 159.126 131.346C158.334 131.479 158.139 131.68 157.642 132.304ZM156.834 144.566C156.318 145.129 156.159 145.374 156.159 146.136C156.401 146.622 156.623 147.027 157.006 147.412C158.108 147.518 158.108 147.518 159.113 147.173C159.441 146.591 159.536 146.169 159.55 145.497C159.143 144.763 158.868 144.494 158.079 144.207C157.409 144.169 157.409 144.169 156.834 144.566Z" fill="black"/>
<path d="M195.05 140.976C195.58 141.029 195.58 141.029 196.004 141.454C195.925 142.119 195.925 142.119 195.792 142.731C195.302 142.864 195.302 142.864 194.732 142.944C194.523 142.804 194.313 142.663 194.097 142.518C194.03 141.986 194.03 141.986 194.097 141.454C194.52 141.029 194.52 141.029 195.05 140.976Z" fill="black"/>
</svg>
