<svg width="392" height="280" viewBox="0 0 392 280" fill="none" xmlns="http://www.w3.org/2000/svg">
<g clip-path="url(#clip0_284_17)">
<path d="M219.71 -0.000488529C220.06 0.550952 220.406 1.105 220.733 1.67022C221.477 2.60277 222.321 3.08567 223.34 3.70191C228.129 6.62087 231.493 10.3572 233.145 15.7964C233.145 16.1874 233.145 16.5784 233.145 16.9812C233.48 17.0774 233.816 17.1736 234.161 17.2727C235.65 17.8203 236.915 18.5583 238.233 19.4248C238.474 19.583 238.715 19.7413 238.964 19.9043C243.887 23.1834 243.887 23.1834 244.728 25.5461C244.605 26.8542 244.605 26.8542 243.751 27.712C241.761 28.9927 239.779 28.7147 237.492 28.4339C235.21 27.9215 232.99 27.2019 230.774 26.4593C229.268 29.2702 228.161 32.106 227.144 35.1229C226.013 38.3635 224.774 41.467 223.167 44.5023C222.93 44.9517 222.93 44.9517 222.689 45.4101C221.316 47.9131 219.73 50.0992 217.339 51.7344C216.948 51.7344 216.556 51.7344 216.153 51.7344C216.153 51.995 216.153 52.2557 216.153 52.5242C216.461 52.5553 216.77 52.5863 217.087 52.6183C219.028 53.0246 220.739 53.7766 222.55 54.5729C222.945 54.7458 223.34 54.9187 223.747 55.0968C231.711 58.6453 239.351 62.9197 246.976 67.1363C247.327 67.3303 247.677 67.5242 248.039 67.7241C250.057 68.8412 252.074 69.9619 254.089 71.0856C254.103 70.7885 254.118 70.4915 254.133 70.1855C254.353 66.5917 254.952 63.1239 255.694 59.6081C255.755 59.3181 255.815 59.0281 255.877 58.7292C262.151 28.7929 262.151 28.7929 271.974 20.5833C274.317 19.0731 276.676 19.0866 279.379 19.3507C284.049 20.4514 288.851 24.2076 291.458 28.1964C293.16 31.1915 293.505 33.6746 293.21 37.1222C292.844 38.3559 292.477 38.8607 291.629 39.8867C291.23 40.0333 290.83 40.1799 290.419 40.331C289.157 40.9589 289.157 40.9589 288.912 42.213C288.731 43.1329 288.552 44.0533 288.377 44.9744C287.96 46.6605 287.528 47.2266 286.097 48.1801C285.109 48.575 285.109 48.575 284.121 48.575C282.678 47.9224 281.787 47.1597 280.96 45.8105C280.96 45.5499 280.96 45.2892 280.96 45.0207C280.047 45.151 279.134 45.2813 278.194 45.4156C278.324 45.8066 278.454 46.1975 278.589 46.6004C279.449 53.0941 279.463 59.709 279.478 66.2478C279.48 66.598 279.482 66.9483 279.484 67.3091C279.532 77.7354 279.532 77.7354 278.194 81.7485C278.594 81.6269 278.994 81.5052 279.406 81.38C281.572 80.7628 283.787 80.5155 286.016 80.2241C286.807 80.1201 287.598 80.0112 288.388 79.9019C294.158 79.1354 294.158 79.1354 296.766 79.3789C297.397 80.0092 297.224 80.6633 297.228 81.5346C297.205 83.5968 296.912 85.5242 296.498 87.5396C296.429 87.8859 296.361 88.2323 296.291 88.5891C296.074 89.6829 295.852 90.7756 295.63 91.8683C295.484 92.6036 295.339 93.339 295.193 94.0744C294.593 97.0927 293.977 100.093 293.21 103.074C293.444 102.993 293.677 102.912 293.918 102.829C294.23 102.723 294.543 102.616 294.864 102.507C295.172 102.401 295.479 102.296 295.795 102.187C300.006 100.896 305.344 100.909 309.411 102.679C314.161 105.304 317.571 109.46 320.451 113.959C320.723 114.376 320.995 114.792 321.275 115.221C322.067 116.435 322.852 117.653 323.637 118.871C324.029 119.473 324.422 120.074 324.815 120.675C325.692 122.017 326.561 123.365 327.427 124.716C327.816 125.323 328.206 125.929 328.597 126.536C334.572 135.809 340.259 145.252 345.766 154.809C346.016 155.243 346.266 155.676 346.524 156.123C350.209 162.522 353.837 168.951 357.399 175.419C357.802 176.144 358.21 176.866 358.626 177.583C358.808 177.9 358.991 178.217 359.178 178.543C359.339 178.816 359.499 179.09 359.664 179.372C359.992 180.084 359.992 180.084 359.893 181.17C358.935 182.401 357.8 183.278 356.436 184.033C356.175 184.033 355.914 184.033 355.645 184.033C355.981 184.569 355.981 184.569 356.323 185.115C356.616 185.585 356.908 186.056 357.201 186.526C357.349 186.761 357.496 186.996 357.648 187.238C358.288 188.27 358.816 189.196 359.202 190.352C359.451 190.313 359.701 190.275 359.958 190.235C362.567 189.83 365.176 189.427 367.786 189.024C368.758 188.874 369.73 188.723 370.703 188.572C372.104 188.355 373.506 188.139 374.908 187.922C375.339 187.855 375.77 187.788 376.214 187.719C379.444 187.223 382.625 186.736 385.9 186.773C386.308 186.777 386.716 186.78 387.136 186.784C387.588 186.791 389.629 186.526 391.21 187.719C392.304 191.045 392 193.808 388.048 196.671C383.504 200.423 379.168 203.128 374.683 205.729C372.021 207.283 369.49 209.012 366.959 210.769C365.737 211.614 364.503 212.442 363.271 213.273C361.542 214.441 359.823 215.621 358.111 216.814C357.131 217.496 356.146 218.172 355.16 218.847C354.699 219.164 354.24 219.485 353.784 219.808C353.158 220.251 352.525 220.684 351.891 221.116C351.537 221.363 351.182 221.61 350.817 221.865C349.369 222.492 348.464 222.321 346.952 221.946C343.586 218.687 342.135 212.721 341.074 208.296C340.152 204.623 338.377 201.39 336.282 198.251C335.997 198.511 335.712 198.772 335.418 199.04C334.186 199.916 333.795 200.058 332.331 199.83C331.635 199.118 331.635 199.118 331.014 198.13C330.676 197.601 330.676 197.601 330.331 197.061C330.102 196.688 329.874 196.315 329.639 195.93C329.403 195.56 329.166 195.19 328.923 194.809C327.194 192.063 327.194 192.063 327.194 191.142C325.238 191.142 323.281 191.142 321.266 191.142C321.323 191.835 321.381 192.529 321.44 193.243C322.114 201.403 322.785 209.563 323.453 217.724C323.578 219.246 323.703 220.769 323.827 222.292C324.182 226.62 324.536 230.948 324.888 235.276C325.043 237.191 325.199 239.105 325.356 241.02C325.505 242.834 325.653 244.648 325.799 246.463C325.853 247.131 325.908 247.8 325.963 248.469C326.039 249.389 326.113 250.309 326.187 251.23C326.229 251.745 326.271 252.261 326.314 252.792C326.412 254.487 326.403 256.186 326.403 257.884C341.008 257.884 355.614 257.884 370.661 257.884C370.792 258.405 370.922 258.926 371.056 259.464C370.266 260.253 370.266 260.253 369.375 260.352C368.814 260.351 368.814 260.351 368.241 260.351C367.812 260.353 367.383 260.354 366.942 260.356C366.233 260.353 366.233 260.353 365.51 260.349C365.014 260.35 364.517 260.351 364.006 260.352C362.644 260.354 361.281 260.351 359.919 260.347C358.494 260.343 357.07 260.344 355.646 260.344C353.254 260.344 350.863 260.34 348.471 260.335C345.703 260.328 342.935 260.326 340.168 260.327C337.508 260.327 334.849 260.325 332.19 260.322C331.057 260.32 329.923 260.32 328.79 260.319C327.209 260.319 325.628 260.315 324.047 260.311C323.574 260.311 323.102 260.311 322.615 260.311C322.186 260.31 321.757 260.308 321.315 260.306C320.941 260.306 320.567 260.305 320.181 260.304C319.29 260.253 319.29 260.253 318.5 259.858C318.5 260.119 318.5 260.38 318.5 260.648C318.775 260.688 319.049 260.728 319.332 260.768C320.681 261.092 321.739 261.63 322.964 262.28C323.316 262.467 323.316 262.467 323.674 262.657C324.169 262.921 324.663 263.186 325.157 263.452C325.899 263.852 326.645 264.245 327.391 264.638C331.907 267.041 337.272 270.143 339.048 275.26C339.32 278.273 339.32 278.273 338.653 279.605C335.326 280.488 331.647 279.848 328.268 279.541C327.639 279.487 327.01 279.432 326.381 279.377C319.767 278.789 313.177 277.999 306.589 277.178C305.34 277.023 304.091 276.871 302.842 276.719C299.253 276.282 295.665 275.831 292.079 275.369C291.236 275.261 290.393 275.154 289.549 275.047C287.99 274.849 286.432 274.641 284.874 274.432C284.181 274.344 284.181 274.344 283.473 274.255C282.842 274.168 282.842 274.168 282.198 274.079C281.833 274.03 281.467 273.982 281.091 273.932C280.046 273.647 279.632 273.353 278.984 272.496C278.344 268.476 279.525 264.117 280.169 260.253C238.701 260.253 197.233 260.253 154.508 260.253C154.508 260.253 151.271 260.253 151.347 260.253C150.916 260.254 150.916 260.254 150.476 260.254C133.462 260.272 116.449 260.286 99.435 260.294C97.3941 260.295 95.3532 260.296 93.3123 260.297C92.906 260.297 92.4996 260.297 92.081 260.297C85.4939 260.301 78.9068 260.307 72.3198 260.314C65.5654 260.322 58.8111 260.326 52.0568 260.328C47.8859 260.329 43.7151 260.332 39.5442 260.339C36.6877 260.343 33.8311 260.344 30.9746 260.343C29.3242 260.343 27.6739 260.343 26.0236 260.348C24.5148 260.351 23.006 260.352 21.4972 260.349C20.9494 260.349 20.4016 260.35 19.8538 260.352C19.113 260.355 18.3723 260.353 17.6315 260.351C17.2189 260.351 16.8062 260.351 16.3811 260.352C15.4113 260.253 15.4113 260.253 14.621 259.464C14.7514 258.942 14.8818 258.421 15.0161 257.884C20.6235 257.754 26.2308 257.623 32.0081 257.489C31.2256 255.925 30.4432 254.361 29.6371 252.75C29.1872 251.62 28.7629 250.517 28.3775 249.368C28.2796 249.081 28.1817 248.794 28.0809 248.498C27.8048 247.679 27.535 246.858 27.2661 246.036C27.1347 245.649 27.0033 245.262 26.8679 244.864C25.0038 238.859 25.2062 231.959 27.8157 226.222C29.494 223.275 31.8345 220.567 35.1694 219.576C38.1439 218.837 40.3989 219.296 43.0726 220.761C44.1346 221.551 44.1346 221.551 44.6532 222.341C44.5899 223.115 44.5899 223.115 44.2581 223.921C43.5388 224.454 43.5388 224.454 42.628 224.957C37.6575 228.111 35.9418 234.296 34.6878 239.742C34.247 241.822 34.0643 243.913 33.9839 246.036C34.3751 246.036 34.7663 246.036 35.1694 246.036C35.1487 245.349 35.1487 245.349 35.1277 244.648C35.1295 242.976 35.4094 241.429 35.8362 239.816C35.9429 239.406 35.9429 239.406 36.0518 238.988C37.356 234.166 39.2829 229.276 43.4415 226.227C44.7323 225.703 46.0361 225.639 47.4194 225.5C47.5493 217.21 47.5493 217.21 47.0736 208.938C47.0426 208.612 47.0116 208.286 46.9796 207.951C46.777 206.088 46.405 204.381 45.8387 202.595C45.6798 202.925 45.6798 202.925 45.5176 203.261C43.24 207.694 39.9505 210.352 35.2681 211.974C28.7696 214.043 22.1025 212.89 16.1524 209.827C12.0513 207.615 8.77407 204.744 5.54422 201.427C3.81969 199.663 2.02181 198.093 0 196.671C0.414553 193.984 3.17919 192.509 5.21428 190.988C13.98 184.756 25.5052 180.144 36.3548 179.689C36.634 179.673 36.9131 179.658 37.2007 179.641C41.5833 179.507 46.423 180.062 49.7564 183.156C51.3369 184.926 51.922 186.304 51.8726 188.751C51.6889 190.151 51.1139 190.888 50.1855 191.932C47.5945 193.906 47.5945 193.906 45.8387 193.906C46.6028 196.425 47.3768 198.93 48.2591 201.41C50.1224 207.08 49.8459 212.717 49.6847 218.606C49.6561 219.716 49.6398 220.826 49.6252 221.937C49.6125 222.277 49.5998 222.618 49.5867 222.969C49.5791 223.856 49.5848 224.637 49.7903 225.5C50.7087 226.327 50.7087 226.327 51.7661 226.685C51.8965 226.815 52.0269 226.946 52.1613 227.08C52.1985 223.592 52.2331 220.164 51.7754 216.698C51.7659 215.596 52.0151 214.759 52.3434 213.716C52.8222 211.798 52.8926 209.791 53.0751 207.827C54.0651 198.22 56.644 190.052 62.8307 182.454C62.2805 182.026 62.2805 182.026 61.7193 181.59C60.3296 180.408 59.4051 179.467 59.1492 177.585C59.0439 175.318 59.2789 173.922 60.8548 172.186C64.1065 169.239 68.4137 168.483 72.6912 168.548C84.6399 169.375 94.8351 175.677 103.015 184.169C106.945 188.688 110.453 193.642 110.25 199.83C110.12 199.961 109.989 200.091 109.855 200.225C107.182 200.082 104.654 199.478 102.067 198.827C101.655 198.725 101.655 198.725 101.234 198.621C100.992 198.559 100.749 198.498 100.5 198.434C97.5889 197.853 94.7817 197.818 91.8241 197.859C90.9249 197.866 90.0258 197.872 89.1266 197.879C87.7256 197.891 86.3247 197.905 84.9237 197.923C69.4004 198.116 69.4004 198.116 64.3357 193.515C63.113 192.163 62.1691 190.74 61.25 189.167C57.6432 195.535 55.4287 203.127 55.7177 210.493C57.0218 210.363 58.3258 210.233 59.6694 210.098C59.7427 209.561 59.8161 209.023 59.8916 208.469C60.3025 206.678 60.8984 205.764 62.3768 204.682C66.5654 202.178 71.3327 201.924 76.0578 202.869C83.7239 205.222 89.1845 211.202 92.9077 218.083C96.2402 224.551 97.6749 231.351 97.6789 238.582C97.6838 239.043 97.6886 239.503 97.6936 239.978C97.6944 240.423 97.6951 240.867 97.6959 241.325C97.6975 241.727 97.6992 242.129 97.7008 242.544C97.6006 243.717 97.307 244.578 96.8145 245.641C95.2274 245.403 94.2342 244.583 92.9617 243.642C85.7925 238.55 73.6351 233.004 64.8065 233.004C60.1571 241.151 58.4073 248.394 56.5081 257.884C73.4605 257.884 90.4129 257.884 107.879 257.884C107.879 256.581 107.879 255.277 107.879 253.935C107.936 252.92 108.006 251.907 108.089 250.894C108.112 250.615 108.134 250.336 108.158 250.048C108.232 249.126 108.31 248.204 108.387 247.282C108.442 246.616 108.496 245.949 108.55 245.282C108.667 243.854 108.785 242.426 108.904 240.998C109.091 238.739 109.276 236.48 109.461 234.222C109.754 230.651 110.048 227.08 110.343 223.509C110.871 217.108 111.398 210.708 111.923 204.308C112.107 202.062 112.292 199.817 112.478 197.572C112.593 196.177 112.708 194.782 112.823 193.387C112.876 192.74 112.929 192.093 112.983 191.446C113.057 190.563 113.129 189.68 113.201 188.798C113.242 188.304 113.283 187.81 113.325 187.301C113.368 186.661 113.368 186.661 113.411 186.008C113.439 185.645 113.466 185.282 113.494 184.908C113.498 183.884 113.498 183.884 112.3 183.046C112.083 182.881 111.867 182.715 111.644 182.545C109.674 180.959 109.392 178.505 109.065 176.135C109.065 175.614 109.065 175.092 109.065 174.555C108.665 174.596 108.266 174.637 107.854 174.679C105.087 174.664 102.534 173.529 99.9758 172.581C99.6402 172.46 99.3046 172.339 98.9588 172.215C97.8864 171.828 96.8192 171.429 95.7525 171.026C95.4121 170.903 95.0717 170.78 94.721 170.653C92.6462 169.846 91.4638 169.165 90.4919 167.052C90.3098 165.811 90.3098 165.811 90.3438 164.583C90.3489 164.174 90.3539 163.765 90.3592 163.343C90.4919 162.313 90.4919 162.313 91.2823 161.523C92.0974 161.428 92.0974 161.428 93.1132 161.433C93.4929 161.433 93.8725 161.433 94.2637 161.433C94.6746 161.437 95.0854 161.441 95.5086 161.446C95.9285 161.447 96.3484 161.448 96.781 161.449C98.1259 161.453 99.4707 161.463 100.816 161.473C101.726 161.477 102.636 161.481 103.546 161.484C105.781 161.493 108.015 161.506 110.25 161.523C110.176 161.002 110.176 161.002 110.101 160.471C109.56 156.544 109.145 152.615 108.777 148.669C108.717 148.025 108.656 147.381 108.595 146.738C108.469 145.402 108.343 144.067 108.218 142.731C108.058 141.019 107.897 139.308 107.735 137.596C107.609 136.273 107.485 134.95 107.36 133.626C107.301 132.995 107.241 132.363 107.182 131.731C107.099 130.853 107.017 129.976 106.935 129.098C106.888 128.599 106.841 128.101 106.793 127.587C106.694 126.375 106.694 126.375 106.694 125.19C106.183 125.194 105.672 125.198 105.146 125.202C103.257 125.217 101.367 125.226 99.4772 125.233C98.6585 125.237 97.8397 125.243 97.021 125.25C95.8459 125.259 94.6709 125.264 93.4958 125.267C93.1282 125.271 92.7606 125.275 92.3819 125.279C91.8717 125.28 91.8717 125.28 91.3512 125.28C90.901 125.282 90.901 125.282 90.4417 125.285C89.7016 125.19 89.7016 125.19 88.9113 124.4C88.7553 123.571 88.7553 123.571 88.6751 122.544C88.644 122.167 88.6129 121.79 88.5808 121.402C88.5513 120.998 88.5218 120.595 88.4914 120.179C88.4589 119.768 88.4264 119.357 88.3928 118.934C88.2986 117.729 88.2093 116.523 88.121 115.317C88.0753 114.728 88.0295 114.139 87.9836 113.551C87.505 107.035 87.505 107.035 87.7258 105.049C88.5161 104.259 88.5161 104.259 90.0931 104.169C90.7746 104.169 91.456 104.174 92.1374 104.182C92.6752 104.184 92.6752 104.184 93.2238 104.185C94.3713 104.19 95.5188 104.2 96.6663 104.21C97.4433 104.214 98.2202 104.217 98.9972 104.22C100.904 104.229 102.811 104.243 104.718 104.259C104.718 103.347 104.718 102.434 104.718 101.495C104.263 101.558 103.807 101.622 103.338 101.688C101.665 101.896 100.021 101.953 98.3365 101.956C98.0446 101.957 97.7528 101.958 97.4521 101.96C96.8418 101.962 96.2314 101.963 95.6211 101.963C94.6847 101.964 93.7484 101.971 92.812 101.978C92.2167 101.979 91.6213 101.98 91.026 101.981C90.7461 101.983 90.4663 101.986 90.1779 101.989C88.2114 101.98 88.2114 101.98 87.3307 101.1C87.1778 100.093 87.0706 99.1196 86.9941 98.1069C86.969 97.8056 86.9438 97.5042 86.9178 97.1938C86.865 96.5525 86.814 95.9111 86.7645 95.2695C86.6901 94.3071 86.6095 93.3454 86.528 92.3836C86.3769 90.5511 86.2501 88.7181 86.1452 86.8825C86.1292 86.6038 86.1132 86.3252 86.0968 86.0381C86.0581 85.269 86.0348 84.4991 86.0124 83.7292C85.9923 83.0804 85.9923 83.0804 85.9717 82.4184C86.1452 81.3535 86.1452 81.3535 86.7324 80.7053C88.1687 79.9296 89.5562 79.9952 91.1493 79.998C91.4954 79.994 91.8416 79.99 92.1982 79.9858C93.349 79.9739 94.4997 79.9702 95.6507 79.9667C96.4629 79.96 97.2752 79.9528 98.0875 79.9452C100.24 79.9264 102.392 79.9147 104.545 79.9043C106.674 79.8928 108.804 79.8742 110.934 79.8564C120.848 79.7771 130.763 79.7556 140.677 79.7738C140.703 79.4776 140.728 79.1814 140.754 78.8762C140.788 78.4866 140.823 78.0969 140.858 77.6954C140.891 77.3096 140.925 76.9238 140.959 76.5263C141.784 68.5292 146.409 60.4034 152.532 55.2887C159.935 50.2292 169.405 48.009 178.29 47.6879C178.729 47.6669 179.167 47.6458 179.619 47.6241C180.496 47.5841 181.374 47.5582 182.251 47.5481C184.607 47.4363 184.607 47.4363 186.587 46.2677C187.317 45.3597 187.916 44.4533 188.492 43.441C188.711 43.0629 188.711 43.0629 188.935 42.6773C191.868 37.3002 191.868 37.3002 192.715 31.5115C192.44 30.7327 192.44 30.7327 191.851 29.8162C190.638 27.7964 190.62 25.6017 190.863 23.2999C191.373 21.5184 191.879 20.131 193.441 19.0653C194.825 17.793 194.894 16.5878 195.185 14.7844C196.064 10.2433 197.742 6.42278 201.532 3.55381C205.22 1.44491 208.722 0.658426 212.918 0.789356C213.579 0.809514 214.24 0.826124 214.901 0.838722C215.334 0.852467 215.334 0.852467 215.775 0.86649C217.393 0.705192 217.945 -0.344657 219.71 -0.000488529ZM200.742 7.50304C199.064 9.76964 198.294 12.3098 197.581 15.0066C198.791 14.9499 200.001 14.8921 201.211 14.8338C201.545 14.8183 201.879 14.8027 202.223 14.7867C204.13 14.694 206.028 14.5685 207.93 14.4065C210.901 14.1734 213.866 14.1226 216.845 14.118C217.258 14.1166 217.258 14.1166 217.68 14.1152C221.883 14.1099 225.892 14.3667 229.984 15.4015C229.497 11.9755 226.885 9.2353 224.32 7.06492C217.454 2.20231 207.044 0.835761 200.742 7.50304ZM207.065 16.5863C208.046 18.5481 212.161 19.454 214.177 20.1406C216.745 20.8839 219.366 21.4035 221.982 21.9424C223.377 22.239 224.77 22.5405 226.163 22.8433C226.667 22.9521 226.667 22.9521 227.18 23.063C230.103 23.7029 232.976 24.4754 235.822 25.4027C237.893 26.0538 239.665 26.1478 241.839 26.0644C239.932 21.9159 234.009 19.4549 229.984 17.771C225.809 16.2749 221.637 16.1233 217.24 16.142C216.805 16.1427 216.37 16.1435 215.923 16.1443C212.953 16.1601 210.018 16.2577 207.065 16.5863ZM194.889 20.7576C193.556 22.2419 193.286 23.5116 193.11 25.472C193.291 27.4897 193.882 28.7015 195.333 30.1123C196.453 30.8412 197.483 31.2354 198.766 31.5933C198.636 31.9843 198.505 32.3753 198.371 32.7781C197.458 32.7781 196.545 32.7781 195.605 32.7781C195.518 32.9944 195.432 33.2108 195.342 33.4337C195.07 34.1139 194.797 34.7937 194.523 35.4731C194.17 36.3597 193.826 37.2497 193.489 38.1419C191.794 42.5862 190.066 46.8631 186.121 49.7597C186.624 53.061 188.935 55.2004 191.428 57.271C194.511 59.5306 198.711 62.2156 202.718 61.6074C204.937 60.3801 205.659 58.2771 206.62 56.0538C206.866 55.5143 206.866 55.5143 207.117 54.9639C208.109 53.0083 208.109 53.0083 207.855 50.9445C207.121 50.3059 207.121 50.3059 206.225 49.6857C201.879 46.4043 201.879 46.4043 201.261 43.9377C201.199 43.4963 201.199 43.4963 201.137 43.0461C201.92 42.8506 201.92 42.8506 202.718 42.6511C202.913 42.9383 202.913 42.9383 203.111 43.2312C205.086 46.0117 207.968 47.8867 209.436 48.18C216.857 49.6635 218.524 45.2181 216.623 49.2414C222.244 44.3779 224.647 35.3804 226.888 28.5955C227.231 27.6064 227.612 26.6384 228.008 25.6695C226.639 25.0804 225.352 24.7044 223.887 24.44C223.477 24.3634 223.068 24.2869 222.646 24.208C222.215 24.1283 221.784 24.0485 221.34 23.9664C217.88 23.3089 214.616 22.5167 211.33 21.2544C210.169 20.9137 209.723 20.7993 208.645 21.3253C207.826 22.1165 207.826 22.1165 207.065 23.0778C205.356 25.1555 205.356 25.1555 203.903 25.6695C202.619 25.5214 202.619 25.5214 201.532 25.2745C201.465 25.0317 201.398 24.7889 201.329 24.5387C200.762 22.5929 200.762 22.5929 199.655 20.9304C197.909 20.1546 196.608 19.8031 194.889 20.7576ZM269.895 26.4593C269.107 27.6634 268.429 28.907 267.771 30.1864C267.586 30.5448 267.402 30.9032 267.211 31.2725C259.763 46.1509 257.131 62.9757 255.669 79.3789C255.148 79.2486 254.626 79.1183 254.089 78.984C253.958 77.1595 253.828 75.3349 253.694 73.4551C251.998 72.6731 250.303 71.8912 248.556 71.0856C248.489 71.6634 248.422 72.2412 248.353 72.8365C247.776 77.6081 247.02 82.2349 245.79 86.8825C249.966 86.6793 254.043 86.0459 258.162 85.3634C259.264 85.1811 260.367 85.003 261.47 84.8253C266.153 84.0625 270.794 83.1625 275.427 82.1434C278.026 73.2854 277.119 63.3198 276.675 54.2105C276.635 53.3863 276.599 52.5618 276.568 51.7372C276.524 50.6979 276.461 49.6621 276.391 48.6243C276.381 48.3243 276.371 48.0243 276.362 47.7152C276.312 46.7543 276.312 46.7543 275.823 45.4156C275.06 44.7977 274.284 44.3521 273.419 43.8895C272.377 43.2726 271.986 42.5851 271.501 41.4911C271.349 41.1505 271.197 40.8099 271.041 40.459C270.634 39.3521 270.383 38.2987 270.29 37.1222C270.942 37.1222 271.594 37.1222 272.266 37.1222C272.333 37.3559 272.401 37.5896 272.47 37.8303C273.049 39.7161 273.561 41.2646 275.032 42.6511C276.266 43.1834 276.266 43.1834 277.403 43.441C277.322 43.1788 277.241 42.9166 277.158 42.6465C277.051 42.2978 276.945 41.9491 276.835 41.5898C276.73 41.2462 276.624 40.9025 276.516 40.5485C276.044 38.8766 275.773 37.3358 275.784 35.5965C275.786 35.0715 275.786 35.0715 275.788 34.5359C275.793 33.9957 275.793 33.9957 275.798 33.4445C275.8 33.0767 275.801 32.7089 275.803 32.3299C275.808 31.4262 275.814 30.5224 275.823 29.6187C276.344 29.6187 276.866 29.6187 277.403 29.6187C277.432 30.2838 277.432 30.2838 277.462 30.9624C277.583 36.9861 277.583 36.9861 280.169 42.2562C280.43 42.2562 280.691 42.2562 280.96 42.2562C281.385 40.106 281.482 37.973 281.577 35.7894C281.603 35.2403 281.603 35.2403 281.629 34.6802C281.671 33.7829 281.711 32.8856 281.75 31.9882C282.272 31.8579 282.793 31.7276 283.331 31.5933C283.774 34.9842 283.687 38.0003 283.098 41.3597C282.863 42.9342 282.803 43.8743 283.706 45.232C283.973 45.5532 284.241 45.8745 284.516 46.2054C285.857 45.1697 286.186 43.8555 286.492 42.2562C286.637 40.6862 286.692 39.1175 286.739 37.5418C286.754 37.1211 286.77 36.7003 286.785 36.2668C286.822 35.2356 286.856 34.2044 286.887 33.173C287.409 33.173 287.93 33.173 288.468 33.173C288.859 35.7143 288.859 35.7143 289.258 38.307C290.854 36.9812 290.854 36.9812 291.063 35.848C291.057 32.1871 289.729 29.6198 287.233 26.9777C284.34 24.2558 281.066 21.956 277.033 21.5722C273.702 21.6861 271.805 24.0093 269.895 26.4593ZM151.347 60.0277C151.102 60.2604 150.857 60.493 150.604 60.7327C139.881 71.641 141.081 93.2403 140.677 107.418C142.86 107.257 145.014 107.05 147.168 106.653C154.92 105.238 162.43 105.162 170.315 105.049C170.575 96.0565 170.836 87.0641 171.105 77.7992C171.757 77.6689 172.409 77.5386 173.081 77.4043C172.987 81.2594 172.891 85.1145 172.792 88.9694C172.746 90.7593 172.701 92.5491 172.658 94.339C172.616 96.0649 172.572 97.7908 172.527 99.5166C172.51 100.177 172.494 100.836 172.478 101.496C172.457 102.418 172.433 103.339 172.408 104.26C172.402 104.535 172.396 104.811 172.39 105.095C172.335 106.978 172.335 106.978 171.895 107.418C170.722 107.549 169.548 107.679 168.339 107.813C168.339 111.332 168.339 114.851 168.339 118.476C171.722 118.891 175.106 119.303 178.49 119.712C180.062 119.902 181.633 120.093 183.205 120.286C184.724 120.472 186.243 120.656 187.763 120.839C188.34 120.909 188.917 120.979 189.494 121.051C195.397 121.904 195.397 121.904 201.202 120.972C201.621 120.833 202.039 120.694 202.471 120.551C202.895 120.404 203.318 120.257 203.755 120.105C211.333 117.548 211.333 117.548 215.561 117.637C215.885 117.641 216.21 117.644 216.545 117.648C217.337 117.657 218.128 117.671 218.919 117.686C220.377 112.67 221.357 107.586 222.328 102.457C222.561 101.225 222.796 99.9937 223.032 98.7623C223.178 98.0027 223.323 97.2427 223.465 96.4824C224.221 92.5408 224.221 92.5408 224.847 91.2266C225.825 90.8356 225.825 90.8356 226.823 90.4368C227.214 86.2664 227.605 82.096 228.008 77.7992C228.53 77.9296 229.051 78.0599 229.589 78.1942C229.458 81.9736 229.328 85.753 229.194 89.6469C233.974 88.9689 233.974 88.9689 238.752 88.2647C239.075 88.2184 239.398 88.172 239.731 88.1243C240.041 88.077 240.351 88.0296 240.67 87.9808C240.943 87.9404 241.216 87.8999 241.498 87.8582C242.359 87.6843 242.359 87.6843 243.419 86.8825C243.749 86.1886 243.749 86.1886 243.94 85.3722C244.062 84.9135 244.062 84.9135 244.186 84.4456C244.308 83.9536 244.308 83.9536 244.432 83.4516C244.517 83.1154 244.603 82.7792 244.691 82.4328C245.423 79.4565 245.903 76.5094 246.186 73.4551C246.263 72.9175 246.263 72.9175 246.341 72.3691C246.482 71.329 246.482 71.329 246.186 69.9008C245.626 69.3705 245.626 69.3705 244.869 68.9706C244.581 68.8033 244.293 68.6361 243.997 68.4638C243.676 68.2864 243.355 68.109 243.024 67.9262C242.685 67.7365 242.346 67.5469 241.996 67.3515C240.853 66.7205 239.705 66.1001 238.554 65.4826C238.136 65.2577 237.717 65.0328 237.286 64.801C236.436 64.3448 235.586 63.8891 234.736 63.4339C233.678 62.8663 232.624 62.2935 231.571 61.7185C221.391 55.7332 221.391 55.7332 210.226 52.9191C210.116 53.174 210.007 53.429 209.894 53.6916C209.393 54.8517 208.883 56.0081 208.374 57.1645C208.202 57.5657 208.03 57.9668 207.853 58.3802C206.205 62.0873 206.205 62.0873 204.298 63.1871C200.54 64.4391 196.803 62.6702 193.431 60.9903C189.016 58.4641 185.596 54.9056 183.75 50.1547C172.505 49.757 159.482 51.5345 151.347 60.0277ZM109.46 101.495C109.46 102.407 109.46 103.319 109.46 104.259C119.11 104.129 128.759 103.998 138.702 103.864C138.702 103.082 138.702 102.3 138.702 101.495C129.052 101.495 119.402 101.495 109.46 101.495ZM264.255 120.256C262.728 121.092 261.194 121.916 259.661 122.741C255.783 124.83 251.931 126.959 248.102 129.135C245.194 130.786 242.271 132.409 239.344 134.026C236.147 135.793 232.969 137.586 229.811 139.423C228.119 140.405 226.419 141.375 224.72 142.346C223.837 142.859 222.971 143.389 222.108 143.933C218.917 145.807 216.325 145.843 212.728 145.816C207.992 145.919 203.967 148.002 199.789 150.072C198.711 150.486 197.934 150.543 196.79 150.465C196.79 150.074 196.79 149.683 196.79 149.28C198.877 148.368 200.963 147.456 203.113 146.516C201.685 145.564 200.863 145.573 199.161 145.479C198.672 145.45 198.183 145.42 197.679 145.39C197.12 145.369 196.56 145.35 196 145.331C195.665 145.313 195.33 145.295 194.984 145.277C192.204 145.186 189.964 145.685 187.356 146.614C186.953 146.753 186.551 146.892 186.136 147.035C181.378 148.711 176.737 150.681 172.093 152.647C169.951 153.549 167.799 154.426 165.647 155.303C164.936 155.593 164.226 155.883 163.515 156.173C163.015 156.376 162.516 156.58 162.016 156.784C162.677 162.058 165.499 166.897 168.734 171.001C169.01 171.354 169.286 171.707 169.571 172.07C175.597 179.252 184.947 182.601 194.024 183.638C195.96 183.751 197.889 183.771 199.828 183.762C200.349 183.76 200.87 183.757 201.407 183.755C205.38 183.706 209.138 183.427 212.992 182.454C213.304 182.375 213.616 182.297 213.938 182.216C229.167 178.255 241.737 168.387 254.274 159.272C258.287 156.356 262.368 153.547 266.482 150.774C267.454 150.117 268.424 149.456 269.394 148.794C282.268 140.047 282.268 140.047 288.219 138.569C288.525 138.491 288.83 138.412 289.145 138.331C289.751 138.179 290.361 138.041 290.973 137.916C291.936 137.71 291.936 137.71 293.21 137.038C293.73 135.956 293.841 135.089 294 133.878C294.391 133.878 294.782 133.878 295.186 133.878C295.316 134.921 295.446 135.963 295.581 137.038C296.125 137.138 296.125 137.138 296.68 137.241C300.564 138.008 303.597 138.707 306.25 141.777C306.431 141.981 306.613 142.186 306.8 142.397C310.205 146.535 312.764 152.498 312.506 157.885C312.274 164.42 314.852 168.56 318.491 173.797C319.375 175.072 320.216 176.368 321.049 177.675C321.553 178.464 322.064 179.248 322.577 180.032C324.548 183.053 326.458 186.114 328.379 189.167C330.589 187.815 332.741 186.422 334.8 184.848C340.506 180.507 346.493 176.516 352.484 172.581C352.25 171.053 351.795 169.928 351.034 168.587C350.815 168.197 350.595 167.807 350.369 167.405C350.13 166.987 349.89 166.569 349.644 166.138C349.394 165.699 349.145 165.259 348.888 164.806C346.307 160.266 343.677 155.754 341.024 151.255C340.723 150.742 340.421 150.23 340.12 149.717C336.76 144.008 333.405 138.309 329.747 132.785C328.797 131.335 327.87 129.87 326.939 128.408C324.493 124.568 322.024 120.744 319.513 116.946C319.265 116.569 319.018 116.191 318.764 115.803C315.292 110.582 311.549 105.226 305.065 103.864C291.199 102.47 276.02 113.78 264.255 120.256ZM157.595 107.295C157.191 107.33 156.786 107.365 156.369 107.401C149.321 107.833 149.321 107.833 142.653 109.788C142.633 112.352 142.619 114.916 142.61 117.48C142.606 118.35 142.6 119.221 142.594 120.091C142.584 121.349 142.58 122.607 142.576 123.865C142.572 124.248 142.568 124.632 142.564 125.027C142.563 128.934 142.808 132.764 145.419 135.853C150.512 140.829 160.537 139.954 167.041 139.887C175.181 139.76 183.896 138.832 191.653 136.248C192.245 136.211 192.839 136.196 193.431 136.198C193.737 136.197 194.043 136.196 194.358 136.195C195.21 136.248 195.21 136.248 196.395 136.643C198.754 136.854 200.717 136.853 202.718 135.458C203.887 134.296 204.838 133.034 205.484 131.509C208.383 131.661 210.773 133.438 212.967 135.211C213.765 135.975 213.765 135.975 214.968 135.853C215.405 134.478 215.626 133.333 215.363 131.904C214.325 130.901 213.265 130.216 212.019 129.489C211.016 128.744 211.016 128.744 210.68 127.666C210.66 127.37 210.641 127.074 210.621 126.77C212.586 127.466 214.349 128.505 216.153 129.534C216.235 129.029 216.316 128.524 216.4 128.004C216.446 127.72 216.492 127.436 216.539 127.143C216.542 126.889 216.545 126.636 216.548 126.375C215.457 125.284 214.491 125.356 212.992 125.19C213.122 124.669 213.253 124.147 213.387 123.61C214.779 123.579 216.003 123.594 217.339 124.005C217.81 122.474 218.129 121.274 218.129 119.661C215.761 118.478 212.637 119.428 210.226 120.105C209.741 120.235 209.741 120.235 209.246 120.368C207.632 120.813 206.054 121.305 204.488 121.899C204.202 122.008 203.916 122.116 203.622 122.227C203.094 122.432 202.57 122.644 202.05 122.868C197.744 124.559 192.598 123.534 188.143 122.961C187.594 122.893 187.045 122.825 186.496 122.757C185.353 122.615 184.21 122.471 183.067 122.325C181.627 122.142 180.188 121.962 178.747 121.784C172.631 121.026 166.524 120.228 160.436 119.266C160.436 118.745 160.436 118.223 160.436 117.686C162.131 117.686 163.826 117.686 165.573 117.686C165.908 116.345 166.014 115.408 166.006 114.052C166.005 113.665 166.004 113.278 166.002 112.879C165.999 112.478 165.996 112.077 165.992 111.664C165.991 111.257 165.989 110.849 165.987 110.43C165.982 109.426 165.976 108.422 165.968 107.418C163.124 107.034 160.449 107.036 157.595 107.295ZM257.25 108.603C256.284 110.051 256.132 111.264 256.46 112.947C257.238 114.024 257.238 114.024 258.436 114.527C259.664 114.657 259.664 114.657 260.806 114.132C261.869 112.93 262.337 112.12 262.56 110.528C262.364 109.243 262.152 108.698 261.202 107.813C259.506 107.144 258.667 107.531 257.25 108.603ZM111.04 125.19C111.04 127.469 111.076 129.647 111.288 131.902C111.314 132.195 111.341 132.488 111.368 132.79C111.454 133.747 111.543 134.704 111.632 135.66C111.693 136.331 111.754 137.002 111.815 137.673C111.942 139.074 112.071 140.474 112.2 141.874C112.366 143.665 112.529 145.457 112.692 147.248C112.818 148.632 112.944 150.015 113.071 151.398C113.132 152.059 113.192 152.719 113.252 153.38C113.337 154.303 113.422 155.226 113.508 156.149C113.532 156.419 113.557 156.69 113.582 156.968C113.726 158.508 113.946 159.992 114.202 161.523C129.589 161.523 144.977 161.523 160.831 161.523C160.439 160.35 160.048 159.177 159.645 157.968C158.729 157.685 157.806 157.423 156.879 157.179C153.871 152.971 153.484 146.41 152.927 141.382C152.717 141.315 152.506 141.247 152.288 141.178C145.269 138.896 145.269 138.896 143.444 136.643C143.166 136.317 142.889 135.991 142.604 135.655C140.872 132.425 140.642 128.786 140.282 125.19C130.632 125.19 120.983 125.19 111.04 125.19ZM206.274 133.878C206.119 134.171 205.965 134.465 205.805 134.767C205.026 135.947 204.249 136.602 203.113 137.433C202.591 137.823 202.07 138.214 201.532 138.617C205.575 138.617 209.617 138.617 213.782 138.617C213.13 138.096 212.478 137.575 211.806 137.038C211.509 136.792 211.212 136.546 210.905 136.292C210.616 136.058 210.326 135.823 210.028 135.581C209.739 135.344 209.45 135.106 209.151 134.861C208.176 134.225 207.42 134.029 206.274 133.878ZM191.258 138.222C191.258 138.353 191.258 138.483 191.258 138.617C192.823 138.617 194.388 138.617 196 138.617C194.121 137.678 193.233 137.796 191.258 138.222ZM271.871 149.28C271.603 149.46 271.335 149.639 271.059 149.825C269.492 150.88 267.939 151.952 266.391 153.035C265.478 153.674 264.563 154.309 263.648 154.945C260.466 157.159 257.3 159.393 254.163 161.671C236.642 174.371 236.642 174.371 229.194 178.11C229.194 178.24 229.194 178.37 229.194 178.504C232.798 178.571 236.289 178.433 239.863 177.961C240.608 177.865 240.608 177.865 241.368 177.767C248.93 176.743 256.427 175.24 263.923 173.822C264.553 173.703 264.553 173.703 265.195 173.582C265.777 173.471 265.777 173.471 266.371 173.358C266.709 173.293 267.048 173.229 267.397 173.162C268.237 172.991 269.065 172.796 269.895 172.581C269.843 172.347 269.79 172.113 269.736 171.873C269.592 171.228 269.449 170.583 269.307 169.938C269.163 169.287 269.012 168.638 268.858 167.99C268.619 166.475 268.406 164.895 269.105 163.497C269.626 163.497 270.148 163.497 270.686 163.497C270.696 163.822 270.706 164.147 270.716 164.482C270.869 167.476 271.35 169.88 272.661 172.581C273.687 171.043 274.518 169.426 275.378 167.792C275.55 167.469 275.721 167.147 275.898 166.814C277.017 164.691 278.038 162.543 278.984 160.338C279.506 160.338 280.027 160.338 280.565 160.338C279.59 164.03 277.932 167.301 276.173 170.673C273.593 175.661 273.308 179.853 273.993 185.341C274.189 186.917 274.37 188.494 274.552 190.071C274.591 190.409 274.631 190.748 274.671 191.096C275.149 195.241 275.543 199.393 275.937 203.547C276.013 204.349 276.09 205.151 276.166 205.953C276.359 207.985 276.552 210.017 276.743 212.049C277.054 215.334 277.366 218.619 277.678 221.904C277.785 223.029 277.891 224.154 277.997 225.279C278.428 229.832 278.891 234.38 279.379 238.928C282.557 238.781 285.734 238.634 288.912 238.485C290.388 238.415 291.864 238.347 293.34 238.279C294.767 238.213 296.194 238.146 297.621 238.079C298.163 238.054 298.704 238.029 299.246 238.004C302.25 237.867 305.237 237.692 308.226 237.348C308.629 234.929 308.747 232.528 308.847 230.081C308.867 229.632 308.886 229.184 308.906 228.722C308.969 227.233 309.031 225.744 309.092 224.255C309.125 223.47 309.157 222.684 309.19 221.898C309.343 218.237 309.489 214.575 309.634 210.913C309.645 210.626 309.656 210.339 309.668 210.044C310.513 188.976 310.513 188.976 310.84 167.896C310.844 167.035 310.851 166.174 310.859 165.314C310.962 157.271 310.962 157.271 308.621 149.675C308.511 149.44 308.401 149.205 308.288 148.962C306.454 145.059 304.285 141.942 300.306 140.075C290.394 136.576 279.705 144.019 271.871 149.28ZM183.355 140.197C182.967 140.248 182.967 140.248 182.572 140.299C181.368 140.456 180.163 140.61 178.959 140.765C178.553 140.818 178.147 140.871 177.728 140.926C172.299 141.617 166.937 141.833 161.473 141.801C160.87 141.799 160.267 141.798 159.664 141.796C158.209 141.792 156.753 141.785 155.298 141.777C155.477 144.732 155.719 147.588 156.434 150.465C156.498 150.745 156.562 151.026 156.627 151.315C157.015 152.928 157.522 154.229 158.46 155.599C160.168 155.369 161.608 154.951 163.194 154.282C163.649 154.091 164.104 153.901 164.573 153.704C165.063 153.497 165.552 153.289 166.042 153.081C166.807 152.76 167.572 152.44 168.337 152.12C168.863 151.9 169.388 151.68 169.913 151.459C172.673 150.301 175.444 149.172 178.218 148.046C178.665 147.864 179.112 147.682 179.573 147.495C181.359 146.769 183.145 146.045 184.936 145.331C184.823 144.771 184.707 144.212 184.59 143.653C184.526 143.341 184.461 143.029 184.395 142.708C184.148 141.787 183.793 141.041 183.355 140.197ZM62.7319 173.642C62.5037 173.943 62.2754 174.245 62.0403 174.555C61.9099 174.686 61.7795 174.816 61.6452 174.95C61.5314 176.106 61.4521 176.985 61.6452 178.11C62.8778 179.486 64.21 180.059 65.9919 180.479C67.2165 180.167 67.2165 180.167 68.3876 179.566C74.2184 176.828 79.9989 178.361 85.8253 180.385C87.5393 181.015 89.2157 181.717 90.8871 182.454C91.409 182.674 91.409 182.674 91.9414 182.9C92.8135 183.293 92.8135 183.293 94.0484 184.033C94.3232 184.869 94.3232 184.869 94.4436 185.613C92.7077 185.399 91.4517 184.972 89.9239 184.132C87.1712 182.707 84.3584 181.775 81.4032 180.874C81.1114 180.776 80.8195 180.677 80.5188 180.576C76.316 179.29 71.9107 179.906 67.9677 181.664C66.171 182.62 64.6719 183.647 64.0161 185.613C63.8176 188.034 63.9724 189.219 65.5968 191.142C69.6872 195.332 75.4686 195.742 81.0081 195.881C82.2971 195.884 83.5858 195.871 84.8748 195.856C85.2222 195.852 85.5697 195.848 85.9277 195.844C86.2814 195.84 86.6351 195.836 86.9996 195.832C87.7274 195.824 88.4552 195.815 89.183 195.807C89.5436 195.803 89.9042 195.798 90.2757 195.794C96.3716 195.733 101.964 196.278 107.879 197.856C107.013 193.237 104.834 189.895 101.601 186.503C100.766 185.613 100.766 185.613 99.9913 184.618C94.1593 177.528 83.3865 172.04 74.2903 171.001C70.4919 170.706 65.6275 170.781 62.7319 173.642ZM312.573 174.555C312.556 175.213 312.557 175.872 312.573 176.53C313.002 177.048 313.002 177.048 314.044 176.963C314.479 176.959 314.915 176.954 315.363 176.949C315.8 176.946 316.237 176.942 316.686 176.939C317.024 176.934 317.362 176.929 317.71 176.925C317.28 175.641 317.28 175.641 316.524 174.555C315.858 174.527 315.191 174.522 314.524 174.531C314.161 174.534 313.797 174.538 313.423 174.541C313.142 174.546 312.862 174.551 312.573 174.555ZM350.829 176.135C350.444 176.394 350.444 176.394 350.052 176.659C343.889 180.831 337.8 185.109 331.788 189.497C331.188 189.926 330.574 190.338 329.96 190.747C330.58 193.103 331.837 195.024 333.121 197.066C335.203 196.42 336.768 195.105 338.48 193.808C341.169 191.799 343.878 189.828 346.631 187.909C347.119 187.567 347.119 187.567 347.617 187.218C349.202 186.112 350.796 185.023 352.411 183.961C352.707 183.764 353.004 183.568 353.309 183.365C353.864 182.997 354.423 182.634 354.985 182.276C355.81 181.746 355.81 181.746 356.831 180.874C356.831 179.053 356.413 178.373 355.497 176.826C355.249 176.4 355.002 175.975 354.747 175.536C354.522 175.213 354.297 174.889 354.065 174.555C352.778 174.555 351.863 175.432 350.829 176.135ZM165.808 174.57C165.355 174.574 164.902 174.577 164.435 174.58C163.685 174.586 163.685 174.586 162.921 174.591C162.391 174.595 161.861 174.599 161.332 174.603C159.892 174.614 158.451 174.624 157.011 174.635C155.507 174.646 154.003 174.657 152.499 174.668C149.65 174.689 146.8 174.71 143.951 174.731C140.707 174.755 137.464 174.779 134.221 174.803C127.548 174.852 120.875 174.901 114.202 174.95C114.332 175.732 114.462 176.514 114.597 177.32C120.327 177.264 126.056 177.206 131.786 177.147C132.207 177.143 132.627 177.138 133.06 177.134C145.48 177.005 157.898 176.851 170.315 176.53C169.808 175.856 169.28 175.197 168.734 174.555C167.759 174.555 166.784 174.563 165.808 174.57ZM265.153 175.543C264.847 175.599 264.541 175.656 264.226 175.714C263.481 175.852 262.736 175.993 261.992 176.135C261.992 176.265 261.992 176.396 261.992 176.53C265.252 176.53 268.512 176.53 271.871 176.53C271.871 176.009 271.871 175.487 271.871 174.95C269.548 174.887 267.432 175.104 265.153 175.543ZM3.55645 195.486C3.42023 196.668 3.42023 196.668 4.13685 197.28C4.53417 197.602 4.53417 197.602 4.93952 197.93C6.08604 198.886 7.1471 199.859 8.1749 200.941C13.6081 206.403 20.3565 210.55 28.2293 210.641C33.0155 210.596 36.948 209.602 40.5781 206.396C43.1682 203.458 44.5107 200.964 44.434 196.944C44.1422 195.181 43.2496 194.214 41.8871 193.117C36.2167 189.295 27.2285 191.122 20.9436 192.327C19.3745 192.682 17.8334 193.107 16.2911 193.564C14.9483 193.925 13.6288 194.13 12.25 194.301C12.25 193.78 12.25 193.259 12.25 192.722C20.4201 190.145 32.3019 186.515 40.5766 190.463C40.9113 190.646 41.2459 190.83 41.5907 191.019C43.5203 192.063 44.5111 192.137 46.629 191.537C48.3041 190.64 48.3041 190.64 49.3952 189.167C49.5903 187.477 49.5255 186.624 48.6542 185.144C46.1232 182.456 42.1075 182.076 38.627 181.96C26.9468 182.091 11.8059 186.912 3.55645 195.486ZM115.782 185.218C115.748 185.656 115.714 186.094 115.678 186.545C112.726 224.153 112.726 224.153 111.263 239.791C111.225 240.19 111.225 240.19 111.187 240.597C110.338 249.677 110.338 249.677 110.025 252.197C109.84 254.084 109.855 255.987 109.855 257.884C123.547 257.884 137.24 257.884 151.347 257.884C151.359 250.185 151.359 250.185 151.172 242.498C151.153 241.983 151.134 241.468 151.115 240.938C151.065 239.561 151.013 238.185 150.961 236.809C150.906 235.353 150.852 233.896 150.798 232.439C150.708 230.003 150.617 227.566 150.524 225.129C150.418 222.323 150.314 219.517 150.211 216.711C150.11 213.988 150.009 211.265 149.907 208.542C149.864 207.392 149.821 206.242 149.779 205.093C149.72 203.489 149.659 201.886 149.597 200.283C149.58 199.814 149.563 199.344 149.546 198.861C149.445 196.275 149.272 193.713 148.976 191.142C148.719 191.141 148.463 191.141 148.198 191.14C145.794 191.133 143.39 191.111 140.985 191.082C140.081 191.073 139.177 191.067 138.273 191.065C128.791 191.038 128.791 191.038 124.476 188.772C123.775 188.448 123.075 188.125 122.373 187.802C121.41 187.334 120.45 186.86 119.49 186.385C119.178 186.234 118.867 186.082 118.545 185.926C118.27 185.79 117.994 185.654 117.71 185.513C116.917 185.145 116.917 185.145 115.782 185.218ZM151.347 191.142C151.595 199.827 151.857 208.507 152.199 217.188C152.231 218.007 152.263 218.827 152.295 219.646C152.394 222.192 152.494 224.738 152.594 227.284C152.697 229.895 152.799 232.506 152.899 235.117C152.987 237.388 153.076 239.658 153.165 241.928C153.218 243.272 153.271 244.617 153.322 245.961C153.379 247.448 153.438 248.934 153.498 250.421C153.514 250.858 153.531 251.296 153.548 251.746C153.564 252.152 153.581 252.558 153.598 252.976C153.612 253.325 153.625 253.675 153.639 254.035C153.733 255.324 153.93 256.604 154.113 257.884C156.33 257.884 158.547 257.884 160.831 257.884C161.304 257.031 161.304 257.031 161.788 256.161C168.391 244.335 175.378 232.963 186.689 225.081C186.965 224.887 187.241 224.694 187.526 224.494C187.918 224.228 187.918 224.228 188.318 223.956C188.551 223.797 188.785 223.637 189.025 223.473C189.677 223.131 189.677 223.131 190.863 223.131C190.639 224.535 190.286 225.573 189.559 226.793C189.37 227.114 189.182 227.435 188.988 227.765C188.784 228.109 188.579 228.453 188.368 228.808C184.72 235.087 181.354 241.432 178.489 248.11C178.297 248.554 178.105 248.999 177.907 249.457C177.734 249.869 177.561 250.282 177.383 250.707C177.229 251.074 177.075 251.44 176.916 251.817C176.526 252.795 176.526 252.795 177.032 253.935C177.205 253.685 177.379 253.436 177.557 253.179C183.187 245.242 190.37 237.598 199.556 233.794C200.078 233.794 200.6 233.794 201.137 233.794C200.906 235.224 200.522 236.328 199.833 237.601C199.644 237.954 199.456 238.307 199.261 238.671C198.955 239.238 198.955 239.238 198.643 239.816C196.803 243.284 195.021 246.774 193.308 250.306C193.097 250.735 192.886 251.163 192.669 251.605C192.478 252.002 192.287 252.398 192.09 252.807C191.834 253.334 191.834 253.334 191.573 253.873C191.469 254.154 191.365 254.435 191.258 254.724C191.388 254.985 191.519 255.246 191.653 255.514C192.012 255.137 192.371 254.76 192.741 254.371C196.086 250.913 199.53 247.948 203.508 245.246C203.931 244.947 204.355 244.647 204.791 244.338C205.879 243.667 205.879 243.667 207.065 243.667C206.923 246.074 205.764 247.583 204.422 249.492C203.99 250.123 203.558 250.754 203.127 251.386C202.92 251.688 202.712 251.99 202.499 252.302C200.5 254.896 200.5 254.896 199.556 257.884C226.42 257.884 253.283 257.884 280.96 257.884C282.62 252.331 282.62 252.331 282.54 249.591C282.26 249.567 281.979 249.543 281.69 249.518C281.327 249.485 280.963 249.452 280.589 249.418C280.046 249.37 280.046 249.37 279.492 249.321C278.589 249.196 278.589 249.196 278.194 248.801C278.072 247.874 277.974 246.955 277.89 246.025C277.862 245.733 277.834 245.441 277.806 245.139C277.713 244.159 277.623 243.178 277.533 242.197C277.468 241.504 277.403 240.812 277.338 240.119C277.163 238.257 276.991 236.394 276.819 234.531C276.677 232.995 276.533 231.459 276.389 229.923C275.711 222.666 275.043 215.409 274.398 208.15C274.375 207.887 274.351 207.625 274.327 207.354C274.093 204.72 273.861 202.086 273.633 199.452C273.578 198.818 273.578 198.818 273.521 198.171C273.454 197.399 273.387 196.627 273.322 195.855C273.292 195.519 273.263 195.184 273.233 194.838C273.208 194.551 273.183 194.264 273.158 193.968C273.045 193.018 272.849 192.08 272.661 191.142C232.628 191.142 192.594 191.142 151.347 191.142ZM312.573 191.142C312.331 192.594 312.127 193.845 312.07 195.283C312.049 195.783 312.049 195.783 312.028 196.293C312.015 196.652 312.001 197.011 311.987 197.38C311.972 197.764 311.957 198.148 311.941 198.543C311.89 199.814 311.841 201.085 311.793 202.356C311.758 203.251 311.723 204.146 311.688 205.041C311.615 206.924 311.543 208.808 311.472 210.691C311.4 212.597 311.326 214.503 311.25 216.409C310.831 226.947 310.462 237.464 310.597 248.011C308.771 248.141 306.946 248.271 305.065 248.406C305.105 248.886 305.146 249.367 305.188 249.862C305.211 250.132 305.234 250.403 305.257 250.681C305.914 253.551 308.171 254.907 310.51 256.391C313.418 258.015 315.869 258.136 319.153 258.012C319.624 258.003 320.096 257.993 320.582 257.984C321.732 257.96 322.882 257.926 324.032 257.884C322.914 242.461 321.723 227.043 320.484 211.629C320.377 210.293 320.27 208.956 320.164 207.619C319.995 205.499 319.824 203.378 319.652 201.258C319.588 200.467 319.525 199.677 319.462 198.887C319.376 197.801 319.288 196.716 319.199 195.63C319.174 195.311 319.149 194.991 319.123 194.661C319.02 193.418 318.896 192.33 318.5 191.142C316.544 191.142 314.588 191.142 312.573 191.142ZM62.8307 207.334C62.066 208.538 62.0403 208.991 62.0403 210.493C62.3949 210.599 62.7494 210.705 63.1147 210.814C69.7585 212.899 76.0404 215.964 81.255 220.638C81.4612 220.821 81.6674 221.004 81.8798 221.193C82.9201 222.16 83.6316 222.866 83.7742 224.315C82.2281 224.087 81.4071 223.349 80.2424 222.341C74.1473 217.263 66.5477 212.094 58.2678 212.354C56.9363 212.51 56.0152 212.872 54.9274 213.653C53.901 215.354 53.8218 216.85 54.1371 218.787C55.8721 223.981 59.6781 227.368 64.31 229.994C66.3473 231.008 68.4425 231.604 70.6351 232.189C71.575 232.455 72.5145 232.723 73.4537 232.991C73.923 233.124 74.3922 233.257 74.8757 233.394C81.0938 235.181 86.8762 237.235 92.4678 240.507C92.9897 240.806 93.5119 241.104 94.0345 241.402C94.6282 241.741 94.6282 241.741 95.2339 242.087C97.4965 234.218 93.7813 224.073 90.0474 217.207C86.8243 211.864 81.7434 206.8 75.6163 205.063C71.3211 204.136 66.2627 204.222 62.8307 207.334ZM54.5323 224.71C54.5265 224.986 54.5207 225.262 54.5148 225.546C54.3369 233.392 53.8957 241.207 53.3532 249.036C53.327 249.418 53.3007 249.801 53.2737 250.195C53.2241 250.913 53.1737 251.631 53.1223 252.349C52.9941 254.2 52.9267 256.029 52.9516 257.884C53.734 257.688 53.734 257.688 54.5323 257.489C54.5903 257.015 54.6484 256.541 54.7082 256.053C55.7604 248.014 57.9772 241.039 61.6429 233.811C62.0907 232.902 62.4798 231.98 62.8307 231.029C62.5912 230.904 62.3518 230.779 62.1052 230.65C59.5773 229.243 57.6771 227.59 55.6915 225.491C55.4394 225.233 55.1872 224.976 54.9274 224.71C54.797 224.71 54.6666 224.71 54.5323 224.71ZM185.331 228.66C176.183 236.229 168.577 246.252 163.597 257.094C163.597 257.355 163.597 257.615 163.597 257.884C166.596 257.884 169.595 257.884 172.686 257.884C172.964 257.133 173.242 256.382 173.528 255.608C175.583 250.118 177.754 244.721 180.317 239.446C180.539 238.988 180.761 238.529 180.989 238.057C182.292 235.417 183.701 232.881 185.252 230.378C185.409 230.072 185.565 229.765 185.726 229.449C185.53 229.058 185.53 229.058 185.331 228.66ZM193.876 239.446C193.63 239.622 193.384 239.799 193.13 239.98C190.616 241.817 188.353 243.867 186.121 246.036C185.904 246.243 185.687 246.45 185.463 246.663C183.693 248.38 182.173 250.218 180.688 252.182C180.354 252.614 180.354 252.614 180.013 253.055C178.795 254.654 177.953 256.044 177.032 257.884C180.423 257.884 183.813 257.884 187.306 257.884C189.94 253.001 192.36 248.078 194.639 243.02C195.444 241.237 196.296 239.486 197.186 237.743C195.862 237.743 194.918 238.697 193.876 239.446ZM298.876 239.977C298.323 240.003 297.77 240.03 297.217 240.056C295.773 240.126 294.329 240.196 292.885 240.267C291.407 240.339 289.928 240.41 288.45 240.481C285.558 240.62 282.666 240.761 279.774 240.902C279.16 242.129 279.543 243.17 279.75 244.506C279.826 245.012 279.903 245.518 279.983 246.039C280.044 246.429 280.106 246.819 280.169 247.221C285.898 247.331 291.59 247.148 297.31 246.851C297.815 246.825 297.815 246.825 298.332 246.799C299.311 246.748 300.291 246.696 301.27 246.642C301.705 246.62 301.705 246.62 302.149 246.596C304.185 246.481 306.2 246.275 308.226 246.036C308.226 243.951 308.226 241.866 308.226 239.717C305.103 239.682 301.995 239.823 298.876 239.977ZM49.7409 242.358C48.7946 243.447 48.2493 244.099 48.0893 245.544C48.1736 246.372 48.281 247.198 48.4057 248.022C48.7064 250.026 48.6472 252.036 48.6295 254.058C48.6278 254.433 48.626 254.809 48.6241 255.195C48.6195 256.092 48.6131 256.988 48.6048 257.884C49.2569 257.884 49.9089 257.884 50.5807 257.884C50.7522 256.164 50.9209 254.444 51.0871 252.723C51.1439 252.14 51.2014 251.557 51.2596 250.973C51.595 247.612 51.8643 244.286 51.7661 240.902C50.9319 240.902 50.2924 241.824 49.7409 242.358ZM45.8387 246.431C45.6637 246.596 45.4888 246.761 45.3085 246.931C44.4979 247.695 43.6864 248.457 42.875 249.22C42.5999 249.48 42.3249 249.739 42.0415 250.006C41.7664 250.265 41.4913 250.523 41.2079 250.789C40.79 251.182 40.79 251.182 40.3636 251.582C39.3039 252.548 38.2015 253.458 37.0826 254.355C36.0761 255.351 36.0761 255.351 34.7742 257.884C38.6863 257.884 42.5984 257.884 46.629 257.884C46.6453 256.214 46.6616 254.544 46.6784 252.824C46.6856 252.299 46.6928 251.773 46.7002 251.232C46.7022 250.818 46.7042 250.404 46.7062 249.978C46.7104 249.554 46.7145 249.13 46.7188 248.693C46.7093 247.529 46.7093 247.529 45.8387 246.431ZM197.877 252.182C197.53 252.506 197.53 252.506 197.175 252.836C195.615 254.305 194.157 255.795 192.839 257.489C192.839 257.619 192.839 257.75 192.839 257.884C194.308 258.362 195.336 258.446 196.79 257.884C198.728 255.704 200.218 252.741 201.137 249.985C199.743 249.985 198.85 251.268 197.877 252.182Z" fill="white"/>
<path d="M215.366 26.46C215.888 26.5903 216.409 26.7206 216.947 26.8549C216.816 28.0278 216.686 29.2007 216.552 30.4092C216.03 30.4092 215.508 30.4092 214.971 30.4092C214.513 28.808 214.64 27.9535 215.366 26.46Z" fill="white"/>
<path d="M221.295 29.6191C221.817 29.8798 222.339 30.1404 222.876 30.409C222.841 31.4791 222.799 32.5481 222.753 33.6177C222.739 34.0683 222.739 34.0683 222.726 34.5279C222.619 36.7776 222.108 38.3852 220.752 40.2327C219.842 40.8621 219.214 40.8154 218.134 40.677C217.873 40.4163 217.612 40.1557 217.344 39.8871C217.393 39.0973 217.393 39.0973 217.739 38.3074C217.997 38.1939 218.255 38.0804 218.522 37.9634C219.375 37.593 219.375 37.593 219.633 36.7879C219.684 36.4993 219.736 36.2106 219.789 35.9132C219.847 35.5986 219.906 35.284 219.966 34.9598C220.149 33.6894 220.279 32.419 220.369 31.1387C220.505 30.409 220.505 30.409 221.295 29.6191Z" fill="white"/>
<path d="M211.414 40.2812C213.181 40.4831 214.015 41.1369 215.365 42.2559C216.146 42.6684 216.935 43.0682 217.736 43.4406C217.606 43.9619 217.475 44.4832 217.341 45.0203C214.796 44.8168 213.417 43.9843 211.438 42.4533C211.018 41.8609 211.018 41.8609 211.142 40.997C211.232 40.7608 211.321 40.5246 211.414 40.2812Z" fill="white"/>
<path d="M72.7089 49.3652C73.6721 49.6614 73.6721 49.6614 74.6847 50.1551C75.0799 50.9202 75.0799 50.9202 75.0799 51.7348C74.6353 52.4506 74.6353 52.4506 73.8944 52.9195C72.8324 52.7961 72.8324 52.7961 71.9186 52.5246C71.6469 51.6114 71.6469 51.6114 71.5234 50.55C72.0915 49.8342 72.0915 49.8342 72.7089 49.3652Z" fill="white"/>
<path d="M315.619 54.3907C316.063 54.387 316.507 54.3832 316.965 54.3793C317.442 54.3797 317.918 54.3801 318.409 54.3804C318.901 54.3787 319.394 54.377 319.901 54.3753C321.207 54.3725 322.514 54.3737 323.82 54.3759C324.619 54.3758 325.419 54.3718 326.218 54.3665C327.756 54.3568 329.294 54.3551 330.832 54.3557C331.308 54.3521 331.784 54.3485 332.275 54.3447C332.719 54.3472 333.164 54.3496 333.622 54.3522C334.011 54.3519 334.401 54.3517 334.803 54.3514C336.077 54.5259 336.823 54.9327 337.858 55.684C338.89 57.7467 338.377 61.0456 338.392 63.3428C338.398 64.1093 338.409 64.8758 338.424 65.6422C338.446 66.7478 338.454 67.8528 338.46 68.9586C338.469 69.3001 338.478 69.6416 338.487 69.9935C338.482 71.5571 338.354 72.4814 337.591 73.87C335.452 75.1243 333.287 74.9054 330.853 74.8747C330.318 74.8741 329.784 74.8741 329.249 74.8748C328.131 74.8741 327.013 74.8668 325.895 74.8543C324.462 74.8386 323.029 74.8369 321.596 74.8399C320.493 74.8411 319.39 74.8363 318.287 74.8296C317.502 74.8254 316.716 74.8253 315.931 74.8251C315.455 74.8189 314.979 74.8126 314.488 74.8061C313.859 74.8011 313.859 74.8011 313.217 74.796C312.173 74.6403 312.173 74.6403 311.46 74.1116C310.313 72.5194 310.528 70.7126 310.525 68.8414C310.524 68.5049 310.523 68.1685 310.522 67.8219C310.52 67.1105 310.519 66.3991 310.519 65.6877C310.518 64.6 310.511 63.5124 310.503 62.4247C310.502 61.7333 310.501 61.0419 310.501 60.3505C310.498 60.0255 310.495 59.7005 310.492 59.3656C310.504 56.353 310.504 56.353 311.382 55.2891C312.836 54.5827 314.011 54.3983 315.619 54.3907ZM314.543 56.8688C314.543 57.1294 314.543 57.39 314.543 57.6586C314.933 57.8719 315.323 58.0852 315.724 58.305C316.83 58.9355 317.873 59.6157 318.907 60.3567C319.176 60.5494 319.446 60.7421 319.723 60.9406C320.278 61.3409 320.83 61.7441 321.381 62.1501C321.782 62.4353 321.782 62.4353 322.192 62.7263C322.431 62.9003 322.67 63.0743 322.916 63.2536C323.618 63.6482 323.618 63.6482 324.397 63.5102C325.378 63.1222 326.188 62.6228 327.068 62.0398C327.416 61.8112 327.764 61.5826 328.123 61.3471C328.483 61.1073 328.843 60.8676 329.214 60.6205C329.931 60.1471 330.648 59.674 331.366 59.2013C331.683 58.9908 331.999 58.7803 332.326 58.5634C333.116 58.0535 333.116 58.0535 333.906 57.6586C333.711 57.2676 333.711 57.2676 333.511 56.8688C327.252 56.8688 320.993 56.8688 314.543 56.8688ZM332.993 60.3984C332.566 60.723 332.139 61.0469 331.711 61.3702C331.489 61.5386 331.266 61.707 331.037 61.8805C329.904 62.7332 328.762 63.5722 327.608 64.397C327.197 64.6948 326.786 64.9926 326.363 65.2994C325.114 66.0083 324.634 66.2446 323.237 65.952C322.307 65.3814 321.478 64.8133 320.619 64.1501C318.266 62.3713 315.866 60.8336 313.358 59.2383C313.358 63.539 313.358 67.8397 313.358 72.2707C316.234 72.279 319.11 72.2869 321.985 72.2912C323.325 72.2933 324.664 72.296 326.003 72.3005C327.538 72.3056 329.073 72.3075 330.608 72.3093C331.331 72.3123 331.331 72.3123 332.068 72.3155C332.511 72.3155 332.954 72.3155 333.411 72.3156C333.803 72.3164 334.195 72.3173 334.599 72.3182C335.475 72.3704 335.475 72.3704 335.882 71.8758C335.917 70.9089 335.928 69.9532 335.921 68.9864C335.92 68.6977 335.92 68.409 335.919 68.1115C335.917 67.186 335.912 66.2604 335.907 65.3349C335.905 64.7088 335.903 64.0828 335.901 63.4567C335.897 61.9189 335.89 60.3811 335.882 58.8434C334.626 58.8434 333.971 59.6406 332.993 60.3984Z" fill="white"/>
<path d="M102.819 65.7049C103.056 65.7863 103.292 65.8678 103.536 65.9517C103.666 66.7337 103.796 67.5156 103.931 68.3212C102.745 69.1111 102.745 69.1111 101.905 68.9877C101.165 68.7162 101.165 68.7162 100.769 68.3212C100.671 67.3586 100.671 67.3586 100.769 66.3466C101.955 65.5568 101.955 65.5568 102.819 65.7049Z" fill="white"/>
<path d="M59.2752 91.2266C60.3372 91.5721 60.3372 91.5721 61.251 92.0164C61.3004 92.9543 61.3004 92.9543 61.251 93.991C60.9902 94.2517 60.7294 94.5123 60.4607 94.7809C58.6605 94.5615 58.6605 94.5615 58.0897 93.991C57.9909 93.0284 57.9909 93.0284 58.0897 92.0164C58.4809 91.7558 58.8721 91.4951 59.2752 91.2266Z" fill="white"/>
<path d="M358.639 118.798C359.602 118.872 359.602 118.872 359.997 119.267C360.071 120.229 360.071 120.229 359.997 121.241C359.736 121.502 359.476 121.763 359.207 122.031C358.17 121.883 358.17 121.883 357.231 121.636C356.984 120.698 356.984 120.698 356.836 119.662C357.626 118.872 357.626 118.872 358.639 118.798Z" fill="white"/>
<path d="M34.5504 135.755C35.0516 135.804 35.0516 135.804 35.563 135.854C36.3533 137.038 36.3533 137.038 36.3039 137.853C35.8559 138.844 35.3709 139.024 34.3775 139.408C33.8559 139.017 33.3343 138.626 32.7969 138.223C33.2156 135.892 33.2156 135.892 34.5504 135.755Z" fill="white"/>
<path d="M372.239 160.338C372.486 161.276 372.486 161.276 372.635 162.312C371.844 163.102 371.844 163.102 370.832 163.176C369.868 163.102 369.868 163.102 369.473 162.707C369.457 161.918 369.456 161.127 369.473 160.338C370.527 159.811 371.12 160.073 372.239 160.338Z" fill="white"/>
<path d="M253.294 208.914C253.541 209.852 253.541 209.852 253.689 210.889C252.899 211.678 252.899 211.678 251.862 211.728C251.552 211.711 251.242 211.695 250.923 211.678C250.503 210.963 250.503 210.963 250.133 210.099C250.263 209.708 250.394 209.317 250.528 208.914C251.582 208.387 252.175 208.649 253.294 208.914Z" fill="white"/>
<path d="M132.775 224.712C133.837 225.057 133.837 225.057 134.751 225.502C134.8 226.44 134.8 226.44 134.751 227.476C134.49 227.737 134.229 227.998 133.961 228.266C132.161 228.047 132.161 228.047 131.59 227.476C131.491 226.514 131.491 226.514 131.59 225.502C131.981 225.241 132.372 224.98 132.775 224.712Z" fill="white"/>
<path d="M349.321 235.324C350.506 235.374 350.506 235.374 350.901 235.769C350.976 236.731 350.976 236.731 350.901 237.743C350.641 238.004 350.38 238.264 350.111 238.533C348.311 238.314 348.311 238.314 347.74 237.743C347.691 236.756 347.691 236.756 347.74 235.769C348.135 235.374 348.135 235.374 349.321 235.324Z" fill="white"/>
</g>
<defs>
<clipPath id="clip0_284_17">
<rect width="392" height="280" fill="white"/>
</clipPath>
</defs>
</svg>
