<svg width="48" height="24" viewBox="0 0 48 24" fill="none" xmlns="http://www.w3.org/2000/svg">
<path d="M2.24989 21.7413L0 24H5.87944C11.3109 24 16.5199 21.8426 20.3609 18.0024L22.9595 15.4043C25.1366 13.2277 28.0891 12.0049 31.1677 12.0049C34.2477 12.0049 37.2014 10.7809 39.3787 8.60251L40.7817 7.19887H31.1711C32.7142 5.65943 34.8048 4.79488 36.9845 4.79488H38.3857C41.4582 4.79488 44.4057 3.57794 46.5833 1.41029L48 2.05694e-06L41.0927 0C34.7389 0 28.6442 2.51885 24.1443 7.00454L14.4187 16.6994C12.8061 18.3069 10.622 19.2095 8.34507 19.2095C6.05755 19.2095 3.86423 20.1206 2.24989 21.7413Z" fill="black"/>
</svg>
