<svg width="35" height="35" viewBox="0 0 35 35" fill="none" xmlns="http://www.w3.org/2000/svg">
<path d="M13.9015 10.2323C13.9053 9.89418 14.1482 9.6146 14.4677 9.5528L14.6086 9.54037L25.191 9.65707L25.3298 9.67157C25.6437 9.73831 25.8792 10.016 25.8829 10.349L25.9996 20.9314C26.0039 21.3178 25.6948 21.6347 25.3084 21.6392C24.922 21.6433 24.6049 21.333 24.6006 20.9466L24.5019 12.0311L11.0233 25.5097C10.75 25.783 10.3065 25.7829 10.0331 25.5097C9.75973 25.2363 9.75973 24.7928 10.0331 24.5194L23.5144 11.0381L14.5934 10.9394L14.4525 10.9242C14.1344 10.8553 13.8978 10.5704 13.9015 10.2323Z" fill="#0D0D0D"/>
</svg>
