<svg width="21" height="22" viewBox="0 0 21 22" fill="none" xmlns="http://www.w3.org/2000/svg">
<path d="M7.84604 5.497C7.84873 5.20701 8.05611 4.96684 8.3301 4.91349L8.45094 4.90314L15.9336 4.97219C16.2196 4.97492 16.4579 5.17762 16.515 5.44728L16.5281 5.56674L16.5972 13.0494C16.6 13.3803 16.3349 13.6515 16.004 13.655C15.6728 13.658 15.4017 13.3916 15.3984 13.0604L15.3411 7.00788L5.97055 16.3784C5.73633 16.6126 5.35691 16.6124 5.12257 16.3784C4.88826 16.1441 4.88826 15.7648 5.12257 15.5305L14.4938 6.15922L8.4399 6.1019L8.31905 6.08878C8.04636 6.0303 7.84358 5.78669 7.84604 5.497Z" fill="#0D0D0D"/>
</svg>
