<svg width="35" height="35" viewBox="0 0 35 35" fill="none" xmlns="http://www.w3.org/2000/svg">
<path d="M25.9006 20.9333C25.904 21.2643 25.6379 21.5359 25.3068 21.5396C24.9758 21.5429 24.7051 21.2774 24.7012 20.9464L25.9006 20.9333ZM14.0014 10.2341C14.0046 9.94404 14.2133 9.70407 14.4875 9.65132L14.6077 9.64027L25.1901 9.75697L25.3096 9.77009C25.5785 9.82744 25.7808 10.0654 25.7839 10.3508L25.9006 20.9333L25.3006 20.9395L24.7012 20.9464L24.5997 11.7906L10.952 25.4383C10.7177 25.6726 10.3383 25.6726 10.104 25.4383C9.86981 25.204 9.86972 24.8246 10.104 24.5903L23.7524 10.9419L14.5952 10.8404L14.4737 10.8266C14.2013 10.7676 13.9985 10.5236 14.0014 10.2341Z" fill="#0D0D0D"/>
</svg>
