<svg width="17" height="12" viewBox="0 0 17 12" fill="none" xmlns="http://www.w3.org/2000/svg">
<path d="M10.5791 0.161411C10.3477 0.00534972 10.0303 0.0285451 9.82329 0.231723C9.58766 0.463797 9.58396 0.843122 9.81547 1.07938L14.0586 5.40067H0.803755L0.682661 5.41239C0.40915 5.46826 0.203169 5.71026 0.203169 6.00028C0.203308 6.29017 0.409242 6.53232 0.682661 6.58817L0.803755 6.59989H14.0567L9.81547 10.9202C9.58417 11.1566 9.58746 11.5359 9.82329 11.7679C10.0596 11.9999 10.4397 11.9962 10.6719 11.76L15.9141 6.4202C16.1432 6.18682 16.1432 5.81276 15.9141 5.57938L10.6719 0.239536L10.5791 0.161411Z" fill="#0D0D0D"/>
</svg>
