<svg width="17" height="12" viewBox="0 0 17 12" fill="none" xmlns="http://www.w3.org/2000/svg">
<path d="M10.5107 0.230719C10.7177 0.0275732 11.0342 0.00438687 11.2656 0.160407L11.3584 0.238532L16.6006 5.57838C16.8009 5.78259 16.8261 6.0944 16.6758 6.32545L16.6006 6.4192L11.3584 11.759C11.1264 11.995 10.7472 11.9993 10.5107 11.7678C10.2744 11.5358 10.2711 11.1557 10.5029 10.9192L14.7422 6.59888H1.49023C1.15901 6.59888 0.890855 6.33045 0.890625 5.99927C0.890625 5.6679 1.15886 5.39966 1.49023 5.39966H14.7432L10.5029 1.07838L10.4268 0.983649C10.2753 0.749477 10.3042 0.433825 10.5107 0.230719Z" fill="#0D0D0D"/>
</svg>
