<svg width="17" height="12" viewBox="0 0 17 12" fill="none" xmlns="http://www.w3.org/2000/svg">
<path d="M6.42085 0.161411C6.65233 0.00534972 6.96974 0.0285451 7.17671 0.231723C7.41234 0.463797 7.41604 0.843122 7.18453 1.07938L2.94136 5.40067H16.1962L16.3173 5.41239C16.5908 5.46826 16.7968 5.71026 16.7968 6.00028C16.7967 6.29017 16.5908 6.53232 16.3173 6.58817L16.1962 6.59989H2.94332L7.18453 10.9202C7.41583 11.1566 7.41254 11.5359 7.17671 11.7679C6.94036 11.9999 6.56025 11.9962 6.32808 11.76L1.08589 6.4202C0.856785 6.18682 0.856786 5.81276 1.08589 5.57938L6.32808 0.239536L6.42085 0.161411Z" fill="#0D0D0D"/>
</svg>
