<svg width="15" height="15" viewBox="0 0 15 15" fill="none" xmlns="http://www.w3.org/2000/svg">
<path d="M0.574219 0.576172C0.808506 0.341885 1.18755 0.34194 1.42188 0.576172L7.49805 6.65234L13.5742 0.576172L13.668 0.499023C13.9008 0.345362 14.2169 0.371258 14.4219 0.576172C14.6268 0.781106 14.6535 1.09722 14.5 1.33008L14.4219 1.42383L8.3457 7.5L14.4219 13.5762C14.6562 13.8105 14.6562 14.1895 14.4219 14.4238C14.1876 14.658 13.8085 14.6581 13.5742 14.4238L7.49805 8.34766L1.42188 14.4238C1.18755 14.658 0.808498 14.6581 0.574219 14.4238C0.340023 14.1895 0.340038 13.8105 0.574219 13.5762L6.65039 7.5L0.574219 1.42383C0.340022 1.18954 0.340039 0.810468 0.574219 0.576172Z" fill="#0D0D0D"/>
</svg>
