<svg width="40" height="40" viewBox="0 0 40 40" fill="none" xmlns="http://www.w3.org/2000/svg">
<path d="M15 4C11.8981 4 9.33337 6.61934 9.33337 9.78723C9.33337 12.0223 10.6444 13.9319 12.4857 14.8936C10.6444 15.8553 9.33337 17.7649 9.33337 20C9.33337 22.2351 10.6444 24.1447 12.4857 25.1064C10.6444 26.0681 9.33337 27.9777 9.33337 30.2128C9.33337 33.3807 11.8981 36 15 36C18.1019 36 20.6667 33.3807 20.6667 30.2128V25.1064V22.8418C21.5583 24.5724 23.2794 25.7872 25.3334 25.7872C28.2867 25.7872 30.6667 23.3565 30.6667 20.3404C30.6667 17.8593 29.024 15.8584 26.8086 15.1968C29.0272 14.4095 30.6667 12.3023 30.6667 9.78723C30.6667 6.61934 28.1019 4 25 4H20H15ZM15 5.3617H19.3334V14.2128H15C12.6353 14.2128 10.6667 12.2023 10.6667 9.78723C10.6667 7.37215 12.6353 5.3617 15 5.3617ZM20.6667 5.3617H25C27.3648 5.3617 29.3334 7.37215 29.3334 9.78723C29.3334 12.2023 27.3648 14.2128 25 14.2128H20.6667V5.3617ZM15 15.5745H19.3334V24.4255H15C12.6353 24.4255 10.6667 22.4151 10.6667 20C10.6667 17.5849 12.6353 15.5745 15 15.5745ZM20.6667 15.5745H22.8842C21.9316 16.0863 21.1679 16.8662 20.6667 17.8391V15.5745ZM25.3334 16.2553C27.5801 16.2553 29.3334 18.0459 29.3334 20.3404C29.3334 22.635 27.5801 24.4255 25.3334 24.4255C23.0867 24.4255 21.3334 22.635 21.3334 20.3404C21.3334 18.0459 23.0867 16.2553 25.3334 16.2553ZM15 25.7872H19.3334V30.2128C19.3334 32.6278 17.3648 34.6383 15 34.6383C12.6353 34.6383 10.6667 32.6278 10.6667 30.2128C10.6667 27.7977 12.6353 25.7872 15 25.7872Z" fill="white"/>
</svg>
