<svg width="24" height="24" viewBox="0 0 24 24" fill="none" xmlns="http://www.w3.org/2000/svg">
<path d="M5.21094 18.0024C5.24134 18.0507 5.2733 18.0967 5.30469 18.1421C5.29105 18.134 5.27578 18.1275 5.2627 18.1167L5.19629 18.0435C5.19091 18.0355 5.18822 18.0261 5.18359 18.0181M5.21094 18.0024L5.18359 18.0181M5.21094 18.0024C5.19092 17.9707 5.17191 17.9378 5.15234 17.9048C5.14966 17.9059 5.14722 17.9076 5.14453 17.9087C5.14996 17.9442 5.16243 17.9812 5.18359 18.0181M5.21094 18.0024L5.18359 18.0181M11.8447 0.499512C18.287 0.499512 23.5 5.50885 23.5 12.1089C23.4998 17.3982 20.3591 21.8936 15.7598 23.48C15.6794 23.4919 15.6316 23.4887 15.6074 23.4829C15.5831 23.4771 15.5752 23.4701 15.5732 23.4683C15.5651 23.4606 15.5439 23.4273 15.5439 23.3687C15.5439 23.1665 15.5471 22.5499 15.5508 21.771C15.5544 20.9937 15.5576 20.0575 15.5576 19.2202C15.5576 18.4399 15.4014 17.8012 15.1475 17.3062C16.2414 17.1553 17.3871 16.9107 18.3135 16.2642C19.5393 15.4086 20.29 13.9333 20.29 11.4331C20.29 10.6899 20.1591 10.1031 19.9072 9.57568C19.7003 9.14244 19.4185 8.76872 19.1025 8.39697C19.277 7.78207 19.4806 6.51452 18.8828 4.96143L18.7969 4.73877L18.5703 4.66553L18.416 4.62549C18.0516 4.55509 17.6572 4.63112 17.3213 4.73389C16.918 4.85729 16.5005 5.05141 16.1328 5.24658C15.7625 5.44316 15.4272 5.64901 15.1855 5.80518C15.1088 5.85475 15.0412 5.89984 14.9844 5.93799C14.0374 5.68855 13.0337 5.55911 12.0391 5.55908C11.0435 5.55908 10.0386 5.6891 9.09082 5.93896C9.03427 5.90108 8.96787 5.85531 8.8916 5.80615C8.64998 5.65042 8.3146 5.44476 7.94434 5.24854C7.57662 5.05368 7.1589 4.85941 6.75586 4.73584C6.37241 4.61831 5.91352 4.5359 5.50977 4.66455L5.28125 4.73779L5.19531 4.96045C4.59681 6.51074 4.80008 7.78242 4.97461 8.39795C4.658 8.77679 4.39709 9.15502 4.21289 9.59521C3.9921 10.123 3.8936 10.7046 3.89355 11.4331C3.89355 13.9185 4.60956 15.3953 5.80371 16.2563C6.71065 16.9102 7.83886 17.1583 8.92871 17.3091C8.79179 17.5769 8.681 17.8851 8.6084 18.2339C8.30199 18.3497 7.89171 18.453 7.47266 18.4146C6.97409 18.3687 6.41205 18.1229 5.96289 17.311L5.96191 17.3081L5.80664 17.0581C5.42814 16.5097 4.9483 16.193 4.54785 16.0132C4.32026 15.911 4.11637 15.8525 3.9668 15.8188C3.89171 15.8019 3.82879 15.7904 3.7832 15.7837C3.76062 15.7804 3.74165 15.7785 3.72754 15.7769C3.72057 15.7761 3.7147 15.7754 3.70996 15.7749C3.70774 15.7747 3.70581 15.7741 3.7041 15.7739H3.69922L3.66406 15.772C3.49363 15.7698 3.33639 15.7819 3.19824 15.8149C3.06608 15.8465 2.89894 15.9103 2.77148 16.0542C2.62587 16.2188 2.5921 16.4174 2.61816 16.5845C2.64112 16.731 2.70761 16.8496 2.75879 16.9263C2.86265 17.0818 3.00738 17.2151 3.10156 17.2954C3.15273 17.3391 3.19879 17.3753 3.23242 17.4009C3.24937 17.4138 3.26412 17.4246 3.27441 17.4321C3.27922 17.4356 3.28306 17.4387 3.28613 17.4409C3.28773 17.4421 3.28994 17.4431 3.29102 17.4438L3.29199 17.4448H3.29297V17.4458L3.3291 17.4702L3.36816 17.4888C3.61419 17.6042 3.88517 17.935 4.11816 18.3354C4.22604 18.5209 4.31288 18.6973 4.37207 18.8276C4.40147 18.8924 4.42375 18.9454 4.43848 18.981C4.44583 18.9987 4.45168 19.0124 4.45508 19.021C4.45665 19.025 4.45733 19.028 4.45801 19.0298L4.45898 19.0317C4.91593 20.4141 6.20029 20.8259 7.19336 20.9233C7.70042 20.9731 8.17734 20.9474 8.52637 20.9106C8.52772 21.3096 8.52885 21.7417 8.53125 22.1333C8.53489 22.728 8.53906 23.2262 8.53906 23.3784C8.53906 23.4398 8.51652 23.4726 8.50977 23.479C8.50819 23.4805 8.50082 23.4871 8.47754 23.4927C8.45315 23.4985 8.40396 23.5021 8.32129 23.4897C3.73009 21.891 0.500155 17.3907 0.5 12.1089C0.5 5.49209 5.41951 0.499737 11.8447 0.499512ZM7.95996 19.4077C7.96266 19.4177 7.96563 19.4274 7.96875 19.437C7.92283 19.4765 7.8541 19.5034 7.77539 19.5034H7.75684C7.66126 19.508 7.58564 19.4782 7.54297 19.4272C7.54189 19.4237 7.54102 19.4201 7.54004 19.4165C7.68385 19.422 7.8242 19.4204 7.95996 19.4077ZM8.7002 19.3921C8.63269 19.4035 8.57128 19.3942 8.52441 19.3696C8.52544 19.3549 8.52733 19.34 8.52734 19.3247C8.52734 19.3189 8.52553 19.3128 8.52539 19.3071C8.58067 19.293 8.63454 19.2788 8.68652 19.2632L8.7002 19.3921ZM8.93457 19.2378C8.90767 19.2996 8.83962 19.3503 8.75 19.3784L8.71973 19.2534C8.76904 19.2382 8.81641 19.2216 8.8623 19.2056L8.93457 19.1968C8.93635 19.2108 8.93455 19.2245 8.93457 19.2378ZM6.74219 19.2739C6.81068 19.2974 6.87933 19.3179 6.94824 19.3354C6.90054 19.3601 6.83953 19.3701 6.77832 19.3579L6.72363 19.3423L6.74219 19.2739ZM6.53613 19.1929C6.60193 19.2218 6.66788 19.248 6.73438 19.271L6.71387 19.3394C6.63107 19.3181 6.56586 19.27 6.53516 19.2134C6.53505 19.2067 6.53583 19.1998 6.53613 19.1929ZM8.93359 19.187L8.90723 19.1899C8.91541 19.187 8.92358 19.1841 8.93164 19.1812C8.93197 19.1831 8.9333 19.185 8.93359 19.187ZM5.70996 18.6294C5.80689 18.7248 5.90687 18.81 6.00879 18.8862C5.96038 18.8847 5.90591 18.8659 5.85449 18.8267L5.81152 18.7886C5.75783 18.7431 5.72264 18.6847 5.70996 18.6294ZM4.81738 17.4204C4.8148 17.4231 4.81208 17.4255 4.80957 17.4282C4.78467 17.4144 4.76079 17.3963 4.73926 17.3745L4.75879 17.356C4.77889 17.3764 4.79766 17.3985 4.81738 17.4204ZM4.74805 17.3452L4.72949 17.3618C4.72592 17.3574 4.72301 17.3526 4.71973 17.3481C4.72622 17.3442 4.73287 17.3406 4.73926 17.3364C4.7422 17.3393 4.74511 17.3423 4.74805 17.3452Z" stroke="black" stroke-opacity="0.01"/>
</svg>
