<svg width="40" height="40" viewBox="0 0 40 40" fill="none" xmlns="http://www.w3.org/2000/svg">
<path d="M35.2381 4H4.7619C4.34057 4 4 4.34133 4 4.7619V35.2381C4 35.6587 4.34057 36 4.7619 36H35.2381C35.6594 36 36 35.6587 36 35.2381V4.7619C36 4.34133 35.6594 4 35.2381 4ZM23.0476 21.101H19.2381V32.9524H16.1905V21.101H12.381V18.4762H23.0476V21.101ZM23.9017 32.2758V29.1078C23.9017 29.1078 25.632 30.4122 27.7082 30.4122C29.7844 30.4122 29.7044 29.0545 29.7044 28.8686C29.7044 26.8983 23.8217 26.8983 23.8217 22.5333C23.8217 16.5973 32.3931 18.9394 32.3931 18.9394L32.2865 21.7615C32.2865 21.7615 30.8488 20.803 29.2251 20.803C27.6015 20.803 27.0156 21.5749 27.0156 22.4C27.0156 24.5295 32.9516 24.317 32.9516 28.6027C32.9524 35.2038 23.9017 32.2758 23.9017 32.2758Z" fill="white"/>
</svg>
