<svg width="60" height="60" viewBox="0 0 60 60" fill="none" xmlns="http://www.w3.org/2000/svg">
<path d="M52.8571 6H7.14286C6.51086 6 6 6.512 6 7.14286V52.8571C6 53.488 6.51086 54 7.14286 54H52.8571C53.4891 54 54 53.488 54 52.8571V7.14286C54 6.512 53.4891 6 52.8571 6ZM34.5714 31.6514H28.8571V49.4286H24.2857V31.6514H18.5714V27.7143H34.5714V31.6514ZM35.8526 48.4137V43.6617C35.8526 43.6617 38.448 45.6183 41.5623 45.6183C44.6766 45.6183 44.5566 43.5817 44.5566 43.3029C44.5566 40.3474 35.7326 40.3474 35.7326 33.8C35.7326 24.896 48.5897 28.4091 48.5897 28.4091L48.4297 32.6423C48.4297 32.6423 46.2731 31.2046 43.8377 31.2046C41.4023 31.2046 40.5234 32.3623 40.5234 33.6C40.5234 36.7943 49.4274 36.4754 49.4274 42.904C49.4286 52.8057 35.8526 48.4137 35.8526 48.4137Z" fill="white"/>
</svg>
