<svg width="24" height="24" viewBox="0 0 24 24" fill="none" xmlns="http://www.w3.org/2000/svg">
<path d="M8.02742 19.3243C8.02742 19.4235 7.91613 19.5029 7.77581 19.5029C7.61613 19.5178 7.50484 19.4384 7.50484 19.3243C7.50484 19.225 7.61613 19.1456 7.75645 19.1456C7.90161 19.1307 8.02742 19.2101 8.02742 19.3243ZM6.52258 19.101C6.48871 19.2002 6.58548 19.3144 6.73065 19.3441C6.85645 19.3938 7.00161 19.3441 7.03064 19.2449C7.05968 19.1456 6.96774 19.0315 6.82258 18.9868C6.69677 18.9521 6.55645 19.0017 6.52258 19.101ZM8.66129 19.0166C8.52097 19.0513 8.42419 19.1456 8.43871 19.2598C8.45323 19.359 8.57903 19.4235 8.72419 19.3888C8.86452 19.3541 8.96129 19.2598 8.94677 19.1605C8.93226 19.0662 8.80161 19.0017 8.66129 19.0166ZM11.8452 -0.000488281C5.13387 -0.000488281 0 5.22524 0 12.1085C0 17.6121 3.37742 22.3217 8.20161 23.9793C8.82097 24.0934 9.03871 23.7014 9.03871 23.3788C9.03871 23.0711 9.02419 21.3739 9.02419 20.3317C9.02419 20.3317 5.6371 21.0761 4.92581 18.8528C4.92581 18.8528 4.37419 17.4087 3.58065 17.0365C3.58065 17.0365 2.47258 16.2573 3.65806 16.2722C3.65806 16.2722 4.8629 16.3715 5.52581 17.5526C6.58548 19.4682 8.36129 18.9173 9.05323 18.5898C9.16452 17.7958 9.47903 17.2449 9.82742 16.9174C7.12258 16.6097 4.39355 16.2077 4.39355 11.4336C4.39355 10.0688 4.76129 9.38398 5.53548 8.51055C5.40968 8.18797 4.99839 6.85797 5.66129 5.14087C6.67258 4.8183 9 6.4808 9 6.4808C9.96774 6.20289 11.0081 6.05897 12.0387 6.05897C13.0694 6.05897 14.1097 6.20289 15.0774 6.4808C15.0774 6.4808 17.4048 4.81333 18.4161 5.14087C19.079 6.86293 18.6677 8.18797 18.5419 8.51055C19.3161 9.38895 19.7903 10.0738 19.7903 11.4336C19.7903 16.2226 16.9403 16.6047 14.2355 16.9174C14.6806 17.3094 15.0581 18.0538 15.0581 19.2201C15.0581 20.8925 15.0435 22.9619 15.0435 23.3689C15.0435 23.6915 15.2661 24.0835 15.8806 23.9694C20.7194 22.3217 24 17.6121 24 12.1085C24 5.22524 18.5565 -0.000488281 11.8452 -0.000488281ZM4.70323 17.1159C4.64032 17.1655 4.65484 17.2796 4.7371 17.3739C4.81452 17.4533 4.92581 17.4881 4.98871 17.4236C5.05161 17.3739 5.0371 17.2598 4.95484 17.1655C4.87742 17.0861 4.76613 17.0514 4.70323 17.1159ZM4.18064 16.7139C4.14677 16.7784 4.19516 16.8578 4.29194 16.9074C4.36935 16.9571 4.46613 16.9422 4.5 16.8727C4.53387 16.8082 4.48548 16.7288 4.38871 16.6792C4.29194 16.6494 4.21452 16.6643 4.18064 16.7139ZM5.74839 18.4806C5.67097 18.5451 5.7 18.694 5.81129 18.7883C5.92258 18.9024 6.0629 18.9173 6.12581 18.8379C6.18871 18.7734 6.15968 18.6245 6.0629 18.5302C5.95645 18.4161 5.81129 18.4012 5.74839 18.4806ZM5.19677 17.7511C5.11935 17.8007 5.11935 17.9298 5.19677 18.0439C5.27419 18.158 5.40484 18.2077 5.46774 18.158C5.54516 18.0935 5.54516 17.9645 5.46774 17.8504C5.4 17.7362 5.27419 17.6866 5.19677 17.7511Z" fill="#A2A2A2"/>
</svg>
