<svg width="24" height="24" viewBox="0 0 24 24" fill="none" xmlns="http://www.w3.org/2000/svg">
<path d="M7.07812 0.583496C8.79498 0.486031 13.5414 0.473291 16.0156 0.546387L16.9219 0.583496H16.9248C18.6684 0.670936 20.1482 1.04481 21.3809 2.146L21.624 2.37646H21.625C22.8291 3.57628 23.2722 5.02215 23.3955 6.72998L23.416 7.07471V7.07959C23.5135 8.79703 23.5262 13.5406 23.4531 16.0142L23.416 16.9194V16.9224C23.3286 18.6663 22.9544 20.1465 21.8535 21.3794L21.624 21.6226L21.623 21.6235C20.4236 22.8278 18.9787 23.2717 17.2715 23.395L16.9258 23.4155H16.9219C15.205 23.513 10.4586 23.5257 7.98438 23.4526L7.07812 23.4155H7.0752C5.21617 23.3223 3.66055 22.9035 2.375 21.6226C1.17094 20.4227 0.727756 18.9769 0.604492 17.269L0.583984 16.9243V16.9194L0.546875 16.0132C0.484239 13.8918 0.484229 10.1011 0.546875 7.97998L0.583984 7.07373V7.0708C0.677285 5.20969 1.09138 3.65081 2.375 2.37158C3.57993 1.17097 5.02679 0.727307 6.72949 0.604004L7.07422 0.583496H7.07812ZM8.38867 1.66846C7.12951 1.70772 5.80489 1.81399 4.91699 2.11572L4.74512 2.1792H4.74414C3.6368 2.62336 2.76771 3.45072 2.27734 4.52295L2.18457 4.74072L2.18359 4.7417C1.83665 5.62135 1.71831 7.03849 1.67578 8.38232C1.63264 9.74579 1.66699 11.1449 1.66699 11.9995C1.66699 12.8532 1.63137 14.2523 1.67383 15.6147C1.71308 16.874 1.81951 18.1984 2.12109 19.0864L2.18457 19.2583V19.2603C2.62859 20.3677 3.45543 21.2366 4.52734 21.7271L4.74512 21.8198L4.74609 21.8208C5.62549 22.1679 7.04226 22.2861 8.38574 22.3286C9.74894 22.3718 11.1485 22.3374 12.0029 22.3374C12.8564 22.3374 14.2551 22.373 15.6172 22.3306C16.8761 22.2913 18.2001 22.1849 19.0879 21.8833L19.2598 21.8198H19.2617C20.369 21.3757 21.2372 20.5482 21.7275 19.4761L21.8213 19.2583C22.1714 18.3778 22.2902 16.9602 22.332 15.6167C22.3745 14.2535 22.3379 12.8532 22.3379 11.9995C22.3379 11.1458 22.3745 9.74677 22.332 8.38428C22.2928 7.1249 22.1854 5.8006 21.8838 4.9126L21.8213 4.74072L21.8203 4.73877L21.7266 4.521C21.2652 3.51769 20.4789 2.72984 19.4785 2.27197L19.2607 2.1792L19.2588 2.17822L19.0879 2.11572C18.2026 1.81657 16.8787 1.71029 15.6191 1.67041C14.2561 1.62726 12.8573 1.66161 12.0029 1.66162C11.1495 1.66162 9.7508 1.626 8.38867 1.66846ZM12.0029 6.34619C15.1318 6.34633 17.6543 8.86963 17.6543 11.9995C17.6543 15.1294 15.1318 17.6527 12.0029 17.6528C8.87393 17.6528 6.35059 15.1295 6.35059 11.9995C6.35059 8.86955 8.87393 6.34619 12.0029 6.34619ZM12.0029 7.49951C9.52077 7.49951 7.50293 9.51707 7.50293 11.9995C7.50293 14.4824 9.52656 16.4995 12.0029 16.4995C14.4792 16.4994 16.502 14.4823 16.502 11.9995C16.502 9.51715 14.485 7.49965 12.0029 7.49951ZM18.4062 4.65967C18.9223 4.65967 19.3407 5.07781 19.3408 5.59424C19.3408 6.11493 18.9236 6.52978 18.4062 6.52979C17.8859 6.52979 17.4717 6.11201 17.4717 5.59424C17.4718 5.07781 17.8902 4.65967 18.4062 4.65967Z" stroke="black" stroke-opacity="0.01"/>
</svg>
