<svg width="24" height="16" viewBox="0 0 24 16" fill="none" xmlns="http://www.w3.org/2000/svg">
<path d="M18.7959 4.51416C20.3177 4.51418 21.4745 5.1435 22.2627 6.146C23.0605 7.16085 23.5 8.58658 23.5 10.1821C23.5 10.2104 23.4986 10.2387 23.498 10.2671H15.7627V10.7671C15.7628 11.7537 16.0078 12.6123 16.5566 13.229C17.1138 13.8548 17.92 14.1597 18.8877 14.1597C19.4206 14.1596 20.0173 14.009 20.5273 13.7153C20.9368 13.4796 21.3137 13.1338 21.5439 12.6753H23.0898C22.7276 13.5647 22.2472 14.2159 21.6553 14.6646C20.9298 15.2144 19.9918 15.4995 18.7959 15.4995C17.2354 15.4995 16.0076 14.9422 15.166 14.0083C14.3193 13.0687 13.8252 11.704 13.8252 10.0308C13.8253 6.8395 15.8665 4.51416 18.7959 4.51416ZM6.96289 0.499512C8.19515 0.499552 9.25296 0.688575 9.99219 1.18604C10.6927 1.65752 11.1836 2.45913 11.1836 3.89014C11.1836 4.60824 11.0277 5.16265 10.749 5.60498C10.4695 6.04853 10.0428 6.41693 9.44043 6.72314L8.32715 7.28857L9.52344 7.64795C10.3291 7.88975 10.9016 8.32355 11.2783 8.896C11.6589 9.47446 11.8623 10.2297 11.8623 11.1431C11.8623 12.5893 11.2991 13.5797 10.4619 14.2222C9.60692 14.8783 8.4233 15.2026 7.1582 15.2026H0.5V0.499512H6.96289ZM2.74609 13.5356H6.7168C7.42553 13.5356 8.15136 13.4048 8.70996 12.9907C9.29624 12.5561 9.61621 11.8714 9.61621 10.9526C9.6162 10.0554 9.36184 9.33792 8.81836 8.85498C8.28594 8.38207 7.56104 8.21045 6.7832 8.21045H2.74609V13.5356ZM18.7041 5.87158C17.8848 5.8716 17.1662 6.14601 16.6396 6.67139C16.1162 7.1938 15.8217 7.92407 15.7676 8.76709L15.7334 9.29932H21.5889L21.5439 8.7583C21.476 7.93979 21.2356 7.21087 20.749 6.68213C20.2511 6.14113 19.5526 5.87158 18.7041 5.87158ZM2.74609 6.84424H6.53711C7.18417 6.84424 7.8137 6.69536 8.28711 6.28857C8.77392 5.87021 9.01652 5.24862 9.0166 4.4751C9.0166 3.61172 8.68959 2.99219 8.11719 2.61768C7.58474 2.26946 6.90936 2.18021 6.29199 2.18018H2.74609V6.84424ZM21.1543 1.32373V1.86963H16.167V1.32373H21.1543Z" stroke="black" stroke-opacity="0.01"/>
</svg>
