<svg width="160" height="80" viewBox="0 0 160 80" fill="none" xmlns="http://www.w3.org/2000/svg">
<path d="M7.55517 72.4598L0.0591431 79.9888H19.6363C37.7314 79.9888 55.0851 72.7993 67.8786 60.0025L76.5369 51.3419C83.7867 44.0903 93.6206 40.0162 103.875 40.0162C114.133 40.0162 123.971 35.9384 131.222 28.6808L135.898 24.0007H103.886C109.026 18.8708 115.991 15.9897 123.252 15.9897H127.917C138.151 15.9897 147.968 11.9351 155.219 4.71347L159.941 0.0112526L136.96 0.0112498C115.78 0.0112457 95.4643 8.41007 80.4677 23.3661L48.0839 55.6622C42.714 61.0176 35.4395 64.0251 27.8555 64.0251C20.2363 64.0251 12.9309 67.0604 7.55517 72.4598Z" fill="white"/>
</svg>
